<?xml version="1.0" encoding="UTF-8" standalone="no"?>
<!DOCTYPE svg PUBLIC "-//W3C//DTD SVG 1.1//EN"
 "http://www.w3.org/Graphics/SVG/1.1/DTD/svg11.dtd">
<!-- Generated by graphviz version 2.40.1 (20161225.0304)
 -->
<!-- Title: ABLWallFunction.H Pages: 1 -->
<svg width="2227pt" height="352pt"
 viewBox="0.00 0.00 2226.50 352.00" xmlns="http://www.w3.org/2000/svg" xmlns:xlink="http://www.w3.org/1999/xlink">
<g id="graph0" class="graph" transform="scale(1 1) rotate(0) translate(4 348)">
<title>ABLWallFunction.H</title>
<polygon fill="#ffffff" stroke="transparent" points="-4,4 -4,-348 2222.5,-348 2222.5,4 -4,4"/>
<!-- Node0 -->
<g id="node1" class="node">
<title>Node0</title>
<polygon fill="#bfbfbf" stroke="#000000" points="1854,-324.5 1854,-343.5 1957,-343.5 1957,-324.5 1854,-324.5"/>
<text text-anchor="middle" x="1905.5" y="-331.5" font-family="Helvetica,sans-Serif" font-size="10.00" fill="#000000">ABLWallFunction.H</text>
</g>
<!-- Node1 -->
<g id="node2" class="node">
<title>Node1</title>
<g id="a_node2"><a xlink:href="_c_f_d_sim_8_h.html" target="_top" xlink:title="amr&#45;wind/CFDSim.H">
<polygon fill="#ffffff" stroke="#000000" points="916.5,-196 916.5,-215 1024.5,-215 1024.5,-196 916.5,-196"/>
<text text-anchor="middle" x="970.5" y="-203" font-family="Helvetica,sans-Serif" font-size="10.00" fill="#000000">amr&#45;wind/CFDSim.H</text>
</a>
</g>
</g>
<!-- Node0&#45;&gt;Node1 -->
<g id="edge1" class="edge">
<title>Node0&#45;&gt;Node1</title>
<path fill="none" stroke="#191970" d="M1853.8985,-326.9082C1694.4646,-304.9967 1209.9387,-238.4068 1034.6531,-214.3168"/>
<polygon fill="#191970" stroke="#191970" points="1034.9345,-210.8226 1024.551,-212.9284 1033.9813,-217.7574 1034.9345,-210.8226"/>
</g>
<!-- Node34 -->
<g id="node35" class="node">
<title>Node34</title>
<g id="a_node35"><a xlink:href="_field_plane_averaging_8_h.html" target="_top" xlink:title="amr&#45;wind/utilities\l/FieldPlaneAveraging.H">
<polygon fill="#ffffff" stroke="#000000" points="1623,-257.5 1623,-287.5 1742,-287.5 1742,-257.5 1623,-257.5"/>
<text text-anchor="start" x="1631" y="-275.5" font-family="Helvetica,sans-Serif" font-size="10.00" fill="#000000">amr&#45;wind/utilities</text>
<text text-anchor="middle" x="1682.5" y="-264.5" font-family="Helvetica,sans-Serif" font-size="10.00" fill="#000000">/FieldPlaneAveraging.H</text>
</a>
</g>
</g>
<!-- Node0&#45;&gt;Node34 -->
<g id="edge59" class="edge">
<title>Node0&#45;&gt;Node34</title>
<path fill="none" stroke="#191970" d="M1870.6563,-324.3906C1837.6116,-315.2774 1787.1566,-301.3627 1746.8103,-290.2358"/>
<polygon fill="#191970" stroke="#191970" points="1747.6226,-286.8292 1737.0519,-287.5446 1745.7615,-293.5773 1747.6226,-286.8292"/>
</g>
<!-- Node36 -->
<g id="node37" class="node">
<title>Node36</title>
<g id="a_node37"><a xlink:href="_field_b_c_ops_8_h.html" target="_top" xlink:title="amr&#45;wind/core/FieldBCOps.H">
<polygon fill="#ffffff" stroke="#000000" points="1824,-62 1824,-81 1969,-81 1969,-62 1824,-62"/>
<text text-anchor="middle" x="1896.5" y="-69" font-family="Helvetica,sans-Serif" font-size="10.00" fill="#000000">amr&#45;wind/core/FieldBCOps.H</text>
</a>
</g>
</g>
<!-- Node0&#45;&gt;Node36 -->
<g id="edge65" class="edge">
<title>Node0&#45;&gt;Node36</title>
<path fill="none" stroke="#191970" d="M1905.169,-324.3462C1903.8542,-285.9987 1898.9848,-143.9727 1897.1793,-91.3136"/>
<polygon fill="#191970" stroke="#191970" points="1900.6747,-91.1158 1896.834,-81.2416 1893.6788,-91.3557 1900.6747,-91.1158"/>
</g>
<!-- Node38 -->
<g id="node39" class="node">
<title>Node38</title>
<g id="a_node39"><a xlink:href="_m_o_data_8h.html" target="_top" xlink:title="amr&#45;wind/wind_energy\l/MOData.h">
<polygon fill="#ffffff" stroke="#000000" points="2089.5,-257.5 2089.5,-287.5 2203.5,-287.5 2203.5,-257.5 2089.5,-257.5"/>
<text text-anchor="start" x="2097.5" y="-275.5" font-family="Helvetica,sans-Serif" font-size="10.00" fill="#000000">amr&#45;wind/wind_energy</text>
<text text-anchor="middle" x="2146.5" y="-264.5" font-family="Helvetica,sans-Serif" font-size="10.00" fill="#000000">/MOData.h</text>
</a>
</g>
</g>
<!-- Node0&#45;&gt;Node38 -->
<g id="edge71" class="edge">
<title>Node0&#45;&gt;Node38</title>
<path fill="none" stroke="#191970" d="M1942.8918,-324.4581C1979.2748,-315.1736 2035.3662,-300.8599 2079.4701,-289.6051"/>
<polygon fill="#191970" stroke="#191970" points="2080.4334,-292.9716 2089.2575,-287.1075 2078.7025,-286.1889 2080.4334,-292.9716"/>
</g>
<!-- Node2 -->
<g id="node3" class="node">
<title>Node2</title>
<polygon fill="#ffffff" stroke="#bfbfbf" points="571.5,-62 571.5,-81 677.5,-81 677.5,-62 571.5,-62"/>
<text text-anchor="middle" x="624.5" y="-69" font-family="Helvetica,sans-Serif" font-size="10.00" fill="#000000">AMReX_AmrCore.H</text>
</g>
<!-- Node1&#45;&gt;Node2 -->
<g id="edge2" class="edge">
<title>Node1&#45;&gt;Node2</title>
<path fill="none" stroke="#191970" d="M916.3203,-198.4936C870.2861,-191.2503 803.1694,-177.5994 748.5,-154 708.5042,-136.7348 667.446,-106.4628 644.0465,-87.7816"/>
<polygon fill="#191970" stroke="#191970" points="645.9533,-84.8217 635.982,-81.2407 641.5438,-90.2583 645.9533,-84.8217"/>
</g>
<!-- Node3 -->
<g id="node4" class="node">
<title>Node3</title>
<g id="a_node4"><a xlink:href="_sim_time_8_h.html" target="_top" xlink:title="amr&#45;wind/core/SimTime.H">
<polygon fill="#ffffff" stroke="#000000" points="1617,-129 1617,-148 1748,-148 1748,-129 1617,-129"/>
<text text-anchor="middle" x="1682.5" y="-136" font-family="Helvetica,sans-Serif" font-size="10.00" fill="#000000">amr&#45;wind/core/SimTime.H</text>
</a>
</g>
</g>
<!-- Node1&#45;&gt;Node3 -->
<g id="edge3" class="edge">
<title>Node1&#45;&gt;Node3</title>
<path fill="none" stroke="#191970" d="M1024.6001,-200.4091C1150.2577,-188.5846 1462.1306,-159.237 1606.6951,-145.6333"/>
<polygon fill="#191970" stroke="#191970" points="1607.1816,-149.1031 1616.8097,-144.6815 1606.5258,-142.1339 1607.1816,-149.1031"/>
</g>
<!-- Node7 -->
<g id="node8" class="node">
<title>Node7</title>
<g id="a_node8"><a xlink:href="_field_repo_8_h.html" target="_top" xlink:title="amr&#45;wind/core/FieldRepo.H">
<polygon fill="#ffffff" stroke="#000000" points="902.5,-129 902.5,-148 1038.5,-148 1038.5,-129 902.5,-129"/>
<text text-anchor="middle" x="970.5" y="-136" font-family="Helvetica,sans-Serif" font-size="10.00" fill="#000000">amr&#45;wind/core/FieldRepo.H</text>
</a>
</g>
</g>
<!-- Node1&#45;&gt;Node7 -->
<g id="edge7" class="edge">
<title>Node1&#45;&gt;Node7</title>
<path fill="none" stroke="#191970" d="M970.5,-195.9005C970.5,-186.149 970.5,-170.7597 970.5,-158.3695"/>
<polygon fill="#191970" stroke="#191970" points="974.0001,-158.0816 970.5,-148.0817 967.0001,-158.0817 974.0001,-158.0816"/>
</g>
<!-- Node24 -->
<g id="node25" class="node">
<title>Node24</title>
<g id="a_node25"><a xlink:href="_p_d_e_base_8_h.html" target="_top" xlink:title="amr&#45;wind/equation_systems\l/PDEBase.H">
<polygon fill="#ffffff" stroke="#000000" points="330,-123.5 330,-153.5 469,-153.5 469,-123.5 330,-123.5"/>
<text text-anchor="start" x="338" y="-141.5" font-family="Helvetica,sans-Serif" font-size="10.00" fill="#000000">amr&#45;wind/equation_systems</text>
<text text-anchor="middle" x="399.5" y="-130.5" font-family="Helvetica,sans-Serif" font-size="10.00" fill="#000000">/PDEBase.H</text>
</a>
</g>
</g>
<!-- Node1&#45;&gt;Node24 -->
<g id="edge37" class="edge">
<title>Node1&#45;&gt;Node24</title>
<path fill="none" stroke="#191970" d="M916.2669,-199.1364C815.1009,-187.2658 597.2045,-161.6982 479.2502,-147.8577"/>
<polygon fill="#191970" stroke="#191970" points="479.5365,-144.3674 469.1967,-146.6781 478.7207,-151.3197 479.5365,-144.3674"/>
</g>
<!-- Node32 -->
<g id="node33" class="node">
<title>Node32</title>
<g id="a_node33"><a xlink:href="_physics_8_h.html" target="_top" xlink:title="amr&#45;wind/core/Physics.H">
<polygon fill="#ffffff" stroke="#000000" points="757,-129 757,-148 884,-148 884,-129 757,-129"/>
<text text-anchor="middle" x="820.5" y="-136" font-family="Helvetica,sans-Serif" font-size="10.00" fill="#000000">amr&#45;wind/core/Physics.H</text>
</a>
</g>
</g>
<!-- Node1&#45;&gt;Node32 -->
<g id="edge54" class="edge">
<title>Node1&#45;&gt;Node32</title>
<path fill="none" stroke="#191970" d="M949.0087,-195.9005C923.3897,-184.4574 880.3901,-165.2509 851.2553,-152.2374"/>
<polygon fill="#191970" stroke="#191970" points="852.5095,-148.9643 841.9515,-148.0817 849.6546,-155.3557 852.5095,-148.9643"/>
</g>
<!-- Node4 -->
<g id="node5" class="node">
<title>Node4</title>
<polygon fill="#ffffff" stroke="#bfbfbf" points="1987,-62 1987,-81 2080,-81 2080,-62 1987,-62"/>
<text text-anchor="middle" x="2033.5" y="-69" font-family="Helvetica,sans-Serif" font-size="10.00" fill="#000000">AMReX_REAL.H</text>
</g>
<!-- Node3&#45;&gt;Node4 -->
<g id="edge4" class="edge">
<title>Node3&#45;&gt;Node4</title>
<path fill="none" stroke="#191970" d="M1748.1353,-129.0552C1808.3725,-119.9205 1899.9155,-104.8602 1978.5,-87 1982.8623,-86.0086 1987.3943,-84.8855 1991.9009,-83.7079"/>
<polygon fill="#191970" stroke="#191970" points="1992.9099,-87.0608 2001.6503,-81.0728 1991.0834,-80.3033 1992.9099,-87.0608"/>
</g>
<!-- Node5 -->
<g id="node6" class="node">
<title>Node5</title>
<polygon fill="#ffffff" stroke="#bfbfbf" points="1551.5,-62 1551.5,-81 1677.5,-81 1677.5,-62 1551.5,-62"/>
<text text-anchor="middle" x="1614.5" y="-69" font-family="Helvetica,sans-Serif" font-size="10.00" fill="#000000">AMReX_GpuQualifiers.H</text>
</g>
<!-- Node3&#45;&gt;Node5 -->
<g id="edge5" class="edge">
<title>Node3&#45;&gt;Node5</title>
<path fill="none" stroke="#191970" d="M1672.7573,-128.9005C1662.0523,-118.353 1644.653,-101.2096 1631.6521,-88.3998"/>
<polygon fill="#191970" stroke="#191970" points="1633.8044,-85.607 1624.2247,-81.0817 1628.8915,-90.5933 1633.8044,-85.607"/>
</g>
<!-- Node6 -->
<g id="node7" class="node">
<title>Node6</title>
<polygon fill="#ffffff" stroke="#bfbfbf" points="1695.5,-62 1695.5,-81 1805.5,-81 1805.5,-62 1695.5,-62"/>
<text text-anchor="middle" x="1750.5" y="-69" font-family="Helvetica,sans-Serif" font-size="10.00" fill="#000000">AMReX_Extension.H</text>
</g>
<!-- Node3&#45;&gt;Node6 -->
<g id="edge6" class="edge">
<title>Node3&#45;&gt;Node6</title>
<path fill="none" stroke="#191970" d="M1692.2427,-128.9005C1702.9477,-118.353 1720.347,-101.2096 1733.3479,-88.3998"/>
<polygon fill="#191970" stroke="#191970" points="1736.1085,-90.5933 1740.7753,-81.0817 1731.1956,-85.607 1736.1085,-90.5933"/>
</g>
<!-- Node7&#45;&gt;Node2 -->
<g id="edge34" class="edge">
<title>Node7&#45;&gt;Node2</title>
<path fill="none" stroke="#191970" d="M924.1146,-128.9888C914.0303,-126.9697 903.4139,-124.881 893.5,-123 803.906,-106.001 780.8408,-105.2829 691.5,-87 685.8051,-85.8346 679.853,-84.5518 673.9475,-83.2385"/>
<polygon fill="#191970" stroke="#191970" points="674.632,-79.805 664.1065,-81.0147 673.0891,-86.6329 674.632,-79.805"/>
</g>
<!-- Node8 -->
<g id="node9" class="node">
<title>Node8</title>
<polygon fill="#ffffff" stroke="#bfbfbf" points="797,-.5 797,-19.5 838,-19.5 838,-.5 797,-.5"/>
<text text-anchor="middle" x="817.5" y="-7.5" font-family="Helvetica,sans-Serif" font-size="10.00" fill="#000000">string</text>
</g>
<!-- Node7&#45;&gt;Node8 -->
<g id="edge8" class="edge">
<title>Node7&#45;&gt;Node8</title>
<path fill="none" stroke="#191970" d="M926.26,-128.9954C866.7227,-115.9961 767.6157,-93.5368 762.5,-87 754.0087,-76.1499 756.6672,-68.4822 762.5,-56 768.4463,-43.2749 779.8358,-32.8307 790.715,-25.129"/>
<polygon fill="#191970" stroke="#191970" points="792.777,-27.9622 799.2167,-19.5491 788.936,-22.1101 792.777,-27.9622"/>
</g>
<!-- Node9 -->
<g id="node10" class="node">
<title>Node9</title>
<polygon fill="#ffffff" stroke="#bfbfbf" points="354,-.5 354,-19.5 437,-19.5 437,-.5 354,-.5"/>
<text text-anchor="middle" x="395.5" y="-7.5" font-family="Helvetica,sans-Serif" font-size="10.00" fill="#000000">unordered_map</text>
</g>
<!-- Node7&#45;&gt;Node9 -->
<g id="edge9" class="edge">
<title>Node7&#45;&gt;Node9</title>
<path fill="none" stroke="#191970" d="M927.8941,-128.9526C916.7473,-126.7219 904.7117,-124.5482 893.5,-123 841.1782,-115.7748 460.827,-119.8916 419.5,-87 402.4331,-73.4167 397.2501,-47.853 395.8077,-29.9187"/>
<polygon fill="#191970" stroke="#191970" points="399.2915,-29.4962 395.3162,-19.6755 392.2996,-29.8318 399.2915,-29.4962"/>
</g>
<!-- Node10 -->
<g id="node11" class="node">
<title>Node10</title>
<g id="a_node11"><a xlink:href="_field_desc_types_8_h.html" target="_top" xlink:title="amr&#45;wind/core/FieldDescTypes.H">
<polygon fill="#ffffff" stroke="#000000" points="1086,-.5 1086,-19.5 1249,-19.5 1249,-.5 1086,-.5"/>
<text text-anchor="middle" x="1167.5" y="-7.5" font-family="Helvetica,sans-Serif" font-size="10.00" fill="#000000">amr&#45;wind/core/FieldDescTypes.H</text>
</a>
</g>
</g>
<!-- Node7&#45;&gt;Node10 -->
<g id="edge10" class="edge">
<title>Node7&#45;&gt;Node10</title>
<path fill="none" stroke="#191970" d="M1038.5796,-135.0273C1109.4685,-129.8179 1213.6049,-117.1345 1238.5,-87 1247.2751,-76.3781 1245.0807,-68.1046 1238.5,-56 1230.8623,-41.9511 1216.8791,-31.5317 1203.3292,-24.1958"/>
<polygon fill="#191970" stroke="#191970" points="1204.613,-20.9253 1194.101,-19.603 1201.4941,-27.1921 1204.613,-20.9253"/>
</g>
<!-- Node11 -->
<g id="node12" class="node">
<title>Node11</title>
<g id="a_node12"><a xlink:href="_field_utils_8_h.html" target="_top" xlink:title="amr&#45;wind/core/FieldUtils.H">
<polygon fill="#ffffff" stroke="#000000" points="1324,-62 1324,-81 1457,-81 1457,-62 1324,-62"/>
<text text-anchor="middle" x="1390.5" y="-69" font-family="Helvetica,sans-Serif" font-size="10.00" fill="#000000">amr&#45;wind/core/FieldUtils.H</text>
</a>
</g>
</g>
<!-- Node7&#45;&gt;Node11 -->
<g id="edge11" class="edge">
<title>Node7&#45;&gt;Node11</title>
<path fill="none" stroke="#191970" d="M1038.158,-129C1106.6716,-119.197 1215.6246,-103.1065 1309.5,-87 1316.8589,-85.7374 1324.5809,-84.346 1332.2126,-82.9307"/>
<polygon fill="#191970" stroke="#191970" points="1332.9722,-86.3494 1342.1553,-81.0652 1331.6813,-79.4694 1332.9722,-86.3494"/>
</g>
<!-- Node12 -->
<g id="node13" class="node">
<title>Node12</title>
<polygon fill="#ffffff" stroke="#bfbfbf" points="1267.5,-.5 1267.5,-19.5 1371.5,-19.5 1371.5,-.5 1267.5,-.5"/>
<text text-anchor="middle" x="1319.5" y="-7.5" font-family="Helvetica,sans-Serif" font-size="10.00" fill="#000000">AMReX_MultiFab.H</text>
</g>
<!-- Node7&#45;&gt;Node12 -->
<g id="edge35" class="edge">
<title>Node7&#45;&gt;Node12</title>
<path fill="none" stroke="#191970" d="M1038.7392,-136.3886C1168.0388,-131.681 1438.3846,-118.1858 1466.5,-87 1496.8563,-53.3286 1434.3522,-31.9584 1381.6772,-20.489"/>
<polygon fill="#191970" stroke="#191970" points="1382.1469,-17.0116 1371.6427,-18.3941 1380.7163,-23.8639 1382.1469,-17.0116"/>
</g>
<!-- Node14 -->
<g id="node15" class="node">
<title>Node14</title>
<g id="a_node15"><a xlink:href="_field_8_h.html" target="_top" xlink:title="amr&#45;wind/core/Field.H">
<polygon fill="#ffffff" stroke="#000000" points="914,-62 914,-81 1027,-81 1027,-62 914,-62"/>
<text text-anchor="middle" x="970.5" y="-69" font-family="Helvetica,sans-Serif" font-size="10.00" fill="#000000">amr&#45;wind/core/Field.H</text>
</a>
</g>
</g>
<!-- Node7&#45;&gt;Node14 -->
<g id="edge15" class="edge">
<title>Node7&#45;&gt;Node14</title>
<path fill="none" stroke="#191970" d="M970.5,-128.9005C970.5,-119.149 970.5,-103.7597 970.5,-91.3695"/>
<polygon fill="#191970" stroke="#191970" points="974.0001,-91.0816 970.5,-81.0817 967.0001,-91.0817 974.0001,-91.0816"/>
</g>
<!-- Node19 -->
<g id="node20" class="node">
<title>Node19</title>
<g id="a_node20"><a xlink:href="_int_field_8_h.html" target="_top" xlink:title="amr&#45;wind/core/IntField.H">
<polygon fill="#ffffff" stroke="#000000" points="771.5,-62 771.5,-81 895.5,-81 895.5,-62 771.5,-62"/>
<text text-anchor="middle" x="833.5" y="-69" font-family="Helvetica,sans-Serif" font-size="10.00" fill="#000000">amr&#45;wind/core/IntField.H</text>
</a>
</g>
</g>
<!-- Node7&#45;&gt;Node19 -->
<g id="edge24" class="edge">
<title>Node7&#45;&gt;Node19</title>
<path fill="none" stroke="#191970" d="M950.8712,-128.9005C927.6761,-117.5569 888.8815,-98.5844 862.2869,-85.5783"/>
<polygon fill="#191970" stroke="#191970" points="863.6133,-82.3308 853.0923,-81.0817 860.538,-88.6191 863.6133,-82.3308"/>
</g>
<!-- Node20 -->
<g id="node21" class="node">
<title>Node20</title>
<polygon fill="#ffffff" stroke="#bfbfbf" points="672,-.5 672,-19.5 779,-19.5 779,-.5 672,-.5"/>
<text text-anchor="middle" x="725.5" y="-7.5" font-family="Helvetica,sans-Serif" font-size="10.00" fill="#000000">AMReX_iMultiFab.H</text>
</g>
<!-- Node7&#45;&gt;Node20 -->
<g id="edge36" class="edge">
<title>Node7&#45;&gt;Node20</title>
<path fill="none" stroke="#191970" d="M925.2122,-128.9604C863.2633,-115.744 758.977,-92.8287 752.5,-87 736.2607,-72.3861 729.7886,-47.4358 727.2092,-29.9061"/>
<polygon fill="#191970" stroke="#191970" points="730.647,-29.169 726.0127,-19.6415 723.6941,-29.9795 730.647,-29.169"/>
</g>
<!-- Node21 -->
<g id="node22" class="node">
<title>Node21</title>
<g id="a_node22"><a xlink:href="_scratch_field_8_h.html" target="_top" xlink:title="amr&#45;wind/core/ScratchField.H">
<polygon fill="#ffffff" stroke="#000000" points="1083.5,-62 1083.5,-81 1229.5,-81 1229.5,-62 1083.5,-62"/>
<text text-anchor="middle" x="1156.5" y="-69" font-family="Helvetica,sans-Serif" font-size="10.00" fill="#000000">amr&#45;wind/core/ScratchField.H</text>
</a>
</g>
</g>
<!-- Node7&#45;&gt;Node21 -->
<g id="edge28" class="edge">
<title>Node7&#45;&gt;Node21</title>
<path fill="none" stroke="#191970" d="M997.1493,-128.9005C1029.4692,-117.2584 1084.0974,-97.5805 1120.2325,-84.5641"/>
<polygon fill="#191970" stroke="#191970" points="1121.6781,-87.7636 1129.9002,-81.0817 1119.3058,-81.1778 1121.6781,-87.7636"/>
</g>
<!-- Node11&#45;&gt;Node10 -->
<g id="edge12" class="edge">
<title>Node11&#45;&gt;Node10</title>
<path fill="none" stroke="#191970" d="M1355.6563,-61.8906C1316.8714,-51.1944 1254.1023,-33.8836 1211.8441,-22.2294"/>
<polygon fill="#191970" stroke="#191970" points="1212.6697,-18.8265 1202.0991,-19.5419 1210.8087,-25.5746 1212.6697,-18.8265"/>
</g>
<!-- Node11&#45;&gt;Node12 -->
<g id="edge13" class="edge">
<title>Node11&#45;&gt;Node12</title>
<path fill="none" stroke="#191970" d="M1379.4063,-61.8906C1368.5285,-52.4683 1351.7252,-37.9134 1338.68,-26.6137"/>
<polygon fill="#191970" stroke="#191970" points="1340.6004,-23.6466 1330.7502,-19.7449 1336.0173,-28.9377 1340.6004,-23.6466"/>
</g>
<!-- Node13 -->
<g id="node14" class="node">
<title>Node13</title>
<polygon fill="#ffffff" stroke="#bfbfbf" points="1389.5,-.5 1389.5,-19.5 1505.5,-19.5 1505.5,-.5 1389.5,-.5"/>
<text text-anchor="middle" x="1447.5" y="-7.5" font-family="Helvetica,sans-Serif" font-size="10.00" fill="#000000">AMReX_Interpolater.H</text>
</g>
<!-- Node11&#45;&gt;Node13 -->
<g id="edge14" class="edge">
<title>Node11&#45;&gt;Node13</title>
<path fill="none" stroke="#191970" d="M1399.4063,-61.8906C1407.9728,-52.6478 1421.1169,-38.466 1431.5003,-27.2628"/>
<polygon fill="#191970" stroke="#191970" points="1434.2375,-29.4584 1438.4682,-19.7449 1429.1035,-24.7 1434.2375,-29.4584"/>
</g>
<!-- Node14&#45;&gt;Node8 -->
<g id="edge16" class="edge">
<title>Node14&#45;&gt;Node8</title>
<path fill="none" stroke="#191970" d="M946.5938,-61.8906C919.9796,-51.1928 876.905,-33.8785 847.9115,-22.2242"/>
<polygon fill="#191970" stroke="#191970" points="848.8774,-18.8403 838.2935,-18.3582 846.2666,-25.3353 848.8774,-18.8403"/>
</g>
<!-- Node14&#45;&gt;Node9 -->
<g id="edge18" class="edge">
<title>Node14&#45;&gt;Node9</title>
<path fill="none" stroke="#191970" d="M934.3843,-61.9725C924.7331,-59.714 914.269,-57.522 904.5,-56 706.0013,-25.0744 650.5743,-46.9589 447.291,-19.9461"/>
<polygon fill="#191970" stroke="#191970" points="447.562,-16.451 437.1831,-18.5791 446.6238,-23.3878 447.562,-16.451"/>
</g>
<!-- Node14&#45;&gt;Node10 -->
<g id="edge23" class="edge">
<title>Node14&#45;&gt;Node10</title>
<path fill="none" stroke="#191970" d="M1001.2813,-61.8906C1035.2549,-51.2846 1090.0604,-34.1753 1127.3772,-22.5257"/>
<polygon fill="#191970" stroke="#191970" points="1128.4323,-25.8629 1136.9349,-19.5419 1126.3462,-19.181 1128.4323,-25.8629"/>
</g>
<!-- Node14&#45;&gt;Node12 -->
<g id="edge19" class="edge">
<title>Node14&#45;&gt;Node12</title>
<path fill="none" stroke="#191970" d="M1024.6483,-61.9581C1087.5679,-50.8706 1191.1894,-32.6106 1257.3418,-20.9534"/>
<polygon fill="#191970" stroke="#191970" points="1257.982,-24.3946 1267.2228,-19.2122 1256.7671,-17.5008 1257.982,-24.3946"/>
</g>
<!-- Node15 -->
<g id="node16" class="node">
<title>Node15</title>
<polygon fill="#ffffff" stroke="#bfbfbf" points="455.5,-.5 455.5,-19.5 507.5,-19.5 507.5,-.5 455.5,-.5"/>
<text text-anchor="middle" x="481.5" y="-7.5" font-family="Helvetica,sans-Serif" font-size="10.00" fill="#000000">memory</text>
</g>
<!-- Node14&#45;&gt;Node15 -->
<g id="edge17" class="edge">
<title>Node14&#45;&gt;Node15</title>
<path fill="none" stroke="#191970" d="M934.0244,-61.9849C924.4694,-59.7537 914.1419,-57.5718 904.5,-56 736.8261,-28.6667 688.5464,-51.0391 517.8304,-19.938"/>
<polygon fill="#191970" stroke="#191970" points="518.219,-16.4504 507.7481,-18.0656 516.9408,-23.3328 518.219,-16.4504"/>
</g>
<!-- Node16 -->
<g id="node17" class="node">
<title>Node16</title>
<polygon fill="#ffffff" stroke="#bfbfbf" points="856,-.5 856,-19.5 955,-19.5 955,-.5 856,-.5"/>
<text text-anchor="middle" x="905.5" y="-7.5" font-family="Helvetica,sans-Serif" font-size="10.00" fill="#000000">AMReX_BCRec.H</text>
</g>
<!-- Node14&#45;&gt;Node16 -->
<g id="edge20" class="edge">
<title>Node14&#45;&gt;Node16</title>
<path fill="none" stroke="#191970" d="M960.3438,-61.8906C950.4801,-52.5581 935.2945,-38.1902 923.4013,-26.9374"/>
<polygon fill="#191970" stroke="#191970" points="925.4689,-24.0753 915.7994,-19.7449 920.6579,-29.1601 925.4689,-24.0753"/>
</g>
<!-- Node17 -->
<g id="node18" class="node">
<title>Node17</title>
<polygon fill="#ffffff" stroke="#bfbfbf" points="2018,-.5 2018,-19.5 2103,-19.5 2103,-.5 2018,-.5"/>
<text text-anchor="middle" x="2060.5" y="-7.5" font-family="Helvetica,sans-Serif" font-size="10.00" fill="#000000">AMReX_Gpu.H</text>
</g>
<!-- Node14&#45;&gt;Node17 -->
<g id="edge21" class="edge">
<title>Node14&#45;&gt;Node17</title>
<path fill="none" stroke="#191970" d="M1026.7688,-61.9863C1042.2011,-59.6852 1058.9612,-57.4686 1074.5,-56 1467.7384,-18.8335 1568.5072,-48.0616 1962.5,-20 1977.0508,-18.9636 1992.7848,-17.5077 2007.2982,-16.0269"/>
<polygon fill="#191970" stroke="#191970" points="2008.0335,-19.4692 2017.616,-14.9499 2007.3067,-12.5071 2008.0335,-19.4692"/>
</g>
<!-- Node18 -->
<g id="node19" class="node">
<title>Node18</title>
<g id="a_node19"><a xlink:href="incflo__enums_8_h.html" target="_top" xlink:title="amr&#45;wind/incflo_enums.H">
<polygon fill="#ffffff" stroke="#000000" points="525.5,-.5 525.5,-19.5 653.5,-19.5 653.5,-.5 525.5,-.5"/>
<text text-anchor="middle" x="589.5" y="-7.5" font-family="Helvetica,sans-Serif" font-size="10.00" fill="#000000">amr&#45;wind/incflo_enums.H</text>
</a>
</g>
</g>
<!-- Node14&#45;&gt;Node18 -->
<g id="edge22" class="edge">
<title>Node14&#45;&gt;Node18</title>
<path fill="none" stroke="#191970" d="M932.2288,-61.9264C923.1694,-59.823 913.5192,-57.7144 904.5,-56 859.7474,-47.4935 742.0133,-30.868 663.8461,-20.1072"/>
<polygon fill="#191970" stroke="#191970" points="663.9504,-16.5887 653.567,-18.6945 662.9973,-23.5235 663.9504,-16.5887"/>
</g>
<!-- Node19&#45;&gt;Node8 -->
<g id="edge25" class="edge">
<title>Node19&#45;&gt;Node8</title>
<path fill="none" stroke="#191970" d="M831,-61.8906C828.7588,-53.276 825.4014,-40.3708 822.5955,-29.5858"/>
<polygon fill="#191970" stroke="#191970" points="825.9404,-28.5414 820.0352,-19.7449 819.1659,-30.304 825.9404,-28.5414"/>
</g>
<!-- Node19&#45;&gt;Node10 -->
<g id="edge26" class="edge">
<title>Node19&#45;&gt;Node10</title>
<path fill="none" stroke="#191970" d="M876.4668,-61.9689C886.0112,-59.9303 896.0881,-57.8386 905.5,-56 971.2874,-43.1484 1046.6978,-30.0827 1099.6712,-21.1769"/>
<polygon fill="#191970" stroke="#191970" points="1100.3417,-24.6135 1109.6253,-19.508 1099.1841,-17.7098 1100.3417,-24.6135"/>
</g>
<!-- Node19&#45;&gt;Node20 -->
<g id="edge27" class="edge">
<title>Node19&#45;&gt;Node20</title>
<path fill="none" stroke="#191970" d="M816.625,-61.8906C799.0302,-51.8713 771.2434,-36.0483 750.9759,-24.5071"/>
<polygon fill="#191970" stroke="#191970" points="752.6783,-21.4489 742.2565,-19.5419 749.2144,-27.5318 752.6783,-21.4489"/>
</g>
<!-- Node21&#45;&gt;Node8 -->
<g id="edge29" class="edge">
<title>Node21&#45;&gt;Node8</title>
<path fill="none" stroke="#191970" d="M1083.4182,-62.6064C1022.7247,-54.47 934.0755,-40.8535 847.9739,-19.7845"/>
<polygon fill="#191970" stroke="#191970" points="848.5809,-16.329 838.032,-17.3152 846.8935,-23.1226 848.5809,-16.329"/>
</g>
<!-- Node21&#45;&gt;Node10 -->
<g id="edge30" class="edge">
<title>Node21&#45;&gt;Node10</title>
<path fill="none" stroke="#191970" d="M1158.2188,-61.8906C1159.7435,-53.3657 1162.0198,-40.6392 1163.9364,-29.9235"/>
<polygon fill="#191970" stroke="#191970" points="1167.4416,-30.2049 1165.757,-19.7449 1160.5509,-28.9724 1167.4416,-30.2049"/>
</g>
<!-- Node21&#45;&gt;Node12 -->
<g id="edge31" class="edge">
<title>Node21&#45;&gt;Node12</title>
<path fill="none" stroke="#191970" d="M1181.9688,-61.8906C1209.6005,-51.4652 1253.8869,-34.7559 1284.7128,-23.1252"/>
<polygon fill="#191970" stroke="#191970" points="1286.0894,-26.3467 1294.2101,-19.5419 1283.6183,-19.7974 1286.0894,-26.3467"/>
</g>
<!-- Node22 -->
<g id="node23" class="node">
<title>Node22</title>
<polygon fill="#ffffff" stroke="#bfbfbf" points="973,-.5 973,-19.5 1068,-19.5 1068,-.5 973,-.5"/>
<text text-anchor="middle" x="1020.5" y="-7.5" font-family="Helvetica,sans-Serif" font-size="10.00" fill="#000000">AMReX_Vector.H</text>
</g>
<!-- Node21&#45;&gt;Node22 -->
<g id="edge32" class="edge">
<title>Node21&#45;&gt;Node22</title>
<path fill="none" stroke="#191970" d="M1135.25,-61.8906C1112.5945,-51.6457 1076.5202,-35.3326 1050.8709,-23.7339"/>
<polygon fill="#191970" stroke="#191970" points="1052.1546,-20.4732 1041.6008,-19.5419 1049.2703,-26.8514 1052.1546,-20.4732"/>
</g>
<!-- Node23 -->
<g id="node24" class="node">
<title>Node23</title>
<polygon fill="#ffffff" stroke="#bfbfbf" points="1534.5,-.5 1534.5,-19.5 1662.5,-19.5 1662.5,-.5 1534.5,-.5"/>
<text text-anchor="middle" x="1598.5" y="-7.5" font-family="Helvetica,sans-Serif" font-size="10.00" fill="#000000">AMReX_PhysBCFunct.H</text>
</g>
<!-- Node21&#45;&gt;Node23 -->
<g id="edge33" class="edge">
<title>Node21&#45;&gt;Node23</title>
<path fill="none" stroke="#191970" d="M1225.0775,-61.9581C1306.2808,-50.6595 1441.0136,-31.9127 1524.5112,-20.2948"/>
<polygon fill="#191970" stroke="#191970" points="1525.0106,-23.7591 1534.4329,-18.9143 1524.0459,-16.8259 1525.0106,-23.7591"/>
</g>
<!-- Node24&#45;&gt;Node8 -->
<g id="edge38" class="edge">
<title>Node24&#45;&gt;Node8</title>
<path fill="none" stroke="#191970" d="M398.3732,-123.3788C397.8837,-104.5166 400.2497,-72.7179 419.5,-56 479.5189,-3.8767 692.2929,-35.1594 786.9002,-19.6896"/>
<polygon fill="#191970" stroke="#191970" points="787.5927,-23.1207 796.7581,-17.806 786.2789,-16.2451 787.5927,-23.1207"/>
</g>
<!-- Node24&#45;&gt;Node10 -->
<g id="edge52" class="edge">
<title>Node24&#45;&gt;Node10</title>
<path fill="none" stroke="#191970" d="M469.062,-135.2146C623.3881,-127.5904 984.9044,-107.7567 1036.5,-87 1056.721,-78.8652 1056.1714,-67.7951 1074.5,-56 1093.8485,-43.5486 1117.0422,-32.0704 1135.4269,-23.6942"/>
<polygon fill="#191970" stroke="#191970" points="1136.859,-26.8879 1144.5567,-19.6081 1133.9994,-20.4987 1136.859,-26.8879"/>
</g>
<!-- Node24&#45;&gt;Node18 -->
<g id="edge53" class="edge">
<title>Node24&#45;&gt;Node18</title>
<path fill="none" stroke="#191970" d="M390.5998,-123.3545C381.311,-105.3404 370.0764,-75.2888 385.5,-56 394.1225,-45.2167 464.5264,-31.0067 520.2455,-21.2497"/>
<polygon fill="#191970" stroke="#191970" points="520.8503,-24.6971 530.1065,-19.5421 519.6559,-17.7998 520.8503,-24.6971"/>
</g>
<!-- Node25 -->
<g id="node26" class="node">
<title>Node25</title>
<g id="a_node26"><a xlink:href="_factory_8_h.html" target="_top" xlink:title="amr&#45;wind/core/Factory.H">
<polygon fill="#ffffff" stroke="#000000" points="170,-62 170,-81 295,-81 295,-62 170,-62"/>
<text text-anchor="middle" x="232.5" y="-69" font-family="Helvetica,sans-Serif" font-size="10.00" fill="#000000">amr&#45;wind/core/Factory.H</text>
</a>
</g>
</g>
<!-- Node24&#45;&gt;Node25 -->
<g id="edge39" class="edge">
<title>Node24&#45;&gt;Node25</title>
<path fill="none" stroke="#191970" d="M362.0219,-123.4639C333.118,-111.8677 293.5146,-95.9789 265.7343,-84.8335"/>
<polygon fill="#191970" stroke="#191970" points="267.0223,-81.5791 256.4381,-81.1039 264.4158,-88.0758 267.0223,-81.5791"/>
</g>
<!-- Node29 -->
<g id="node30" class="node">
<title>Node29</title>
<g id="a_node30"><a xlink:href="_coll_mgr_8_h.html" target="_top" xlink:title="amr&#45;wind/core/CollMgr.H">
<polygon fill="#ffffff" stroke="#000000" points="428,-62 428,-81 553,-81 553,-62 428,-62"/>
<text text-anchor="middle" x="490.5" y="-69" font-family="Helvetica,sans-Serif" font-size="10.00" fill="#000000">amr&#45;wind/core/CollMgr.H</text>
</a>
</g>
</g>
<!-- Node24&#45;&gt;Node29 -->
<g id="edge45" class="edge">
<title>Node24&#45;&gt;Node29</title>
<path fill="none" stroke="#191970" d="M420.1493,-123.2967C434.8781,-112.4524 454.6186,-97.9182 469.4396,-87.006"/>
<polygon fill="#191970" stroke="#191970" points="471.5447,-89.8025 477.5224,-81.055 467.3944,-84.1655 471.5447,-89.8025"/>
</g>
<!-- Node30 -->
<g id="node31" class="node">
<title>Node30</title>
<g id="a_node31"><a xlink:href="_p_d_e_fields_8_h.html" target="_top" xlink:title="amr&#45;wind/equation_systems\l/PDEFields.H">
<polygon fill="#ffffff" stroke="#000000" points="0,-56.5 0,-86.5 139,-86.5 139,-56.5 0,-56.5"/>
<text text-anchor="start" x="8" y="-74.5" font-family="Helvetica,sans-Serif" font-size="10.00" fill="#000000">amr&#45;wind/equation_systems</text>
<text text-anchor="middle" x="69.5" y="-63.5" font-family="Helvetica,sans-Serif" font-size="10.00" fill="#000000">/PDEFields.H</text>
</a>
</g>
</g>
<!-- Node24&#45;&gt;Node30 -->
<g id="edge50" class="edge">
<title>Node24&#45;&gt;Node30</title>
<path fill="none" stroke="#191970" d="M329.9187,-124.3729C277.1363,-113.6565 204.5056,-98.9102 149.3554,-87.7131"/>
<polygon fill="#191970" stroke="#191970" points="149.7663,-84.2252 139.2698,-85.6654 148.3734,-91.0852 149.7663,-84.2252"/>
</g>
<!-- Node25&#45;&gt;Node9 -->
<g id="edge41" class="edge">
<title>Node25&#45;&gt;Node9</title>
<path fill="none" stroke="#191970" d="M257.9688,-61.8906C285.6005,-51.4652 329.8869,-34.7559 360.7128,-23.1252"/>
<polygon fill="#191970" stroke="#191970" points="362.0894,-26.3467 370.2101,-19.5419 359.6183,-19.7974 362.0894,-26.3467"/>
</g>
<!-- Node25&#45;&gt;Node15 -->
<g id="edge40" class="edge">
<title>Node25&#45;&gt;Node15</title>
<path fill="none" stroke="#191970" d="M274.4568,-61.9537C315.5869,-52.4728 380.2949,-37.2318 445.1702,-20.2783"/>
<polygon fill="#191970" stroke="#191970" points="446.3768,-23.5802 455.1594,-17.6544 444.5983,-16.8099 446.3768,-23.5802"/>
</g>
<!-- Node26 -->
<g id="node27" class="node">
<title>Node26</title>
<polygon fill="#ffffff" stroke="#bfbfbf" points="281.5,-.5 281.5,-19.5 335.5,-19.5 335.5,-.5 281.5,-.5"/>
<text text-anchor="middle" x="308.5" y="-7.5" font-family="Helvetica,sans-Serif" font-size="10.00" fill="#000000">iostream</text>
</g>
<!-- Node25&#45;&gt;Node26 -->
<g id="edge42" class="edge">
<title>Node25&#45;&gt;Node26</title>
<path fill="none" stroke="#191970" d="M244.375,-61.8906C256.1297,-52.3786 274.3486,-37.6357 288.3672,-26.2917"/>
<polygon fill="#191970" stroke="#191970" points="290.8856,-28.7562 296.4576,-19.7449 286.4822,-23.3146 290.8856,-28.7562"/>
</g>
<!-- Node27 -->
<g id="node28" class="node">
<title>Node27</title>
<polygon fill="#ffffff" stroke="#bfbfbf" points="96,-.5 96,-19.5 183,-19.5 183,-.5 96,-.5"/>
<text text-anchor="middle" x="139.5" y="-7.5" font-family="Helvetica,sans-Serif" font-size="10.00" fill="#000000">AMReX_Print.H</text>
</g>
<!-- Node25&#45;&gt;Node27 -->
<g id="edge43" class="edge">
<title>Node25&#45;&gt;Node27</title>
<path fill="none" stroke="#191970" d="M217.9688,-61.8906C203.0906,-52.0519 179.7496,-36.6167 162.3872,-25.1351"/>
<polygon fill="#191970" stroke="#191970" points="164.201,-22.1385 153.9292,-19.5419 160.3398,-27.9773 164.201,-22.1385"/>
</g>
<!-- Node28 -->
<g id="node29" class="node">
<title>Node28</title>
<polygon fill="#ffffff" stroke="#bfbfbf" points="201.5,-.5 201.5,-19.5 263.5,-19.5 263.5,-.5 201.5,-.5"/>
<text text-anchor="middle" x="232.5" y="-7.5" font-family="Helvetica,sans-Serif" font-size="10.00" fill="#000000">AMReX.H</text>
</g>
<!-- Node25&#45;&gt;Node28 -->
<g id="edge44" class="edge">
<title>Node25&#45;&gt;Node28</title>
<path fill="none" stroke="#191970" d="M232.5,-61.8906C232.5,-53.3657 232.5,-40.6392 232.5,-29.9235"/>
<polygon fill="#191970" stroke="#191970" points="236.0001,-29.7448 232.5,-19.7449 229.0001,-29.7449 236.0001,-29.7448"/>
</g>
<!-- Node29&#45;&gt;Node8 -->
<g id="edge46" class="edge">
<title>Node29&#45;&gt;Node8</title>
<path fill="none" stroke="#191970" d="M533.0638,-61.9384C542.7221,-59.8798 552.9482,-57.7876 562.5,-56 659.3509,-37.875 688.0465,-44.2359 786.9286,-20.0845"/>
<polygon fill="#191970" stroke="#191970" points="787.8613,-23.4592 796.7216,-17.6501 786.1726,-16.6659 787.8613,-23.4592"/>
</g>
<!-- Node29&#45;&gt;Node9 -->
<g id="edge48" class="edge">
<title>Node29&#45;&gt;Node9</title>
<path fill="none" stroke="#191970" d="M475.6563,-61.8906C460.4582,-52.0519 436.6152,-36.6167 418.8794,-25.1351"/>
<polygon fill="#191970" stroke="#191970" points="420.5361,-22.0382 410.2395,-19.5419 416.732,-27.9144 420.5361,-22.0382"/>
</g>
<!-- Node29&#45;&gt;Node15 -->
<g id="edge47" class="edge">
<title>Node29&#45;&gt;Node15</title>
<path fill="none" stroke="#191970" d="M489.0938,-61.8906C487.8462,-53.3657 485.9838,-40.6392 484.4156,-29.9235"/>
<polygon fill="#191970" stroke="#191970" points="487.8373,-29.1326 482.9261,-19.7449 480.911,-30.1463 487.8373,-29.1326"/>
</g>
<!-- Node29&#45;&gt;Node22 -->
<g id="edge49" class="edge">
<title>Node29&#45;&gt;Node22</title>
<path fill="none" stroke="#191970" d="M530.7043,-61.9334C541.0215,-59.7298 552.134,-57.5739 562.5,-56 736.6451,-29.5598 784.9673,-43.2714 962.9294,-20.1109"/>
<polygon fill="#191970" stroke="#191970" points="963.4305,-23.5752 972.8855,-18.7946 962.513,-16.6356 963.4305,-23.5752"/>
</g>
<!-- Node31 -->
<g id="node32" class="node">
<title>Node31</title>
<polygon fill="#ffffff" stroke="#bfbfbf" points="33,-.5 33,-19.5 78,-19.5 78,-.5 33,-.5"/>
<text text-anchor="middle" x="55.5" y="-7.5" font-family="Helvetica,sans-Serif" font-size="10.00" fill="#000000">iosfwd</text>
</g>
<!-- Node30&#45;&gt;Node31 -->
<g id="edge51" class="edge">
<title>Node30&#45;&gt;Node31</title>
<path fill="none" stroke="#191970" d="M66.0393,-56.2977C64.2174,-48.2945 61.9615,-38.3843 60.0048,-29.7889"/>
<polygon fill="#191970" stroke="#191970" points="63.374,-28.8206 57.7416,-19.8469 56.5486,-30.3744 63.374,-28.8206"/>
</g>
<!-- Node32&#45;&gt;Node12 -->
<g id="edge57" class="edge">
<title>Node32&#45;&gt;Node12</title>
<path fill="none" stroke="#191970" d="M861.6678,-128.9678C872.0194,-126.7894 883.1339,-124.6367 893.5,-123 1045.7795,-98.9567 1098.4992,-151.5515 1238.5,-87 1267.2698,-73.7348 1292.2916,-46.0667 1306.6425,-27.765"/>
<polygon fill="#191970" stroke="#191970" points="1309.5512,-29.7215 1312.8,-19.637 1303.9716,-25.4945 1309.5512,-29.7215"/>
</g>
<!-- Node32&#45;&gt;Node25 -->
<g id="edge55" class="edge">
<title>Node32&#45;&gt;Node25</title>
<path fill="none" stroke="#191970" d="M756.9171,-134.1094C660.0232,-126.9639 469.7481,-111.1444 309.5,-87 301.8204,-85.8429 293.7468,-84.4335 285.8345,-82.9413"/>
<polygon fill="#191970" stroke="#191970" points="286.4243,-79.4906 275.9404,-81.0197 285.0897,-86.3622 286.4243,-79.4906"/>
</g>
<!-- Node32&#45;&gt;Node29 -->
<g id="edge56" class="edge">
<title>Node32&#45;&gt;Node29</title>
<path fill="none" stroke="#191970" d="M771.4752,-128.9415C719.5423,-118.7628 635.1753,-102.0752 562.5,-87 556.645,-85.7855 550.5264,-84.4974 544.436,-83.2033"/>
<polygon fill="#191970" stroke="#191970" points="544.7747,-79.6968 534.2642,-81.0314 543.3129,-86.5424 544.7747,-79.6968"/>
</g>
<!-- Node33 -->
<g id="node34" class="node">
<title>Node33</title>
<polygon fill="#ffffff" stroke="#bfbfbf" points="1701.5,-.5 1701.5,-19.5 1811.5,-19.5 1811.5,-.5 1701.5,-.5"/>
<text text-anchor="middle" x="1756.5" y="-7.5" font-family="Helvetica,sans-Serif" font-size="10.00" fill="#000000">AMReX_Geometry.H</text>
</g>
<!-- Node32&#45;&gt;Node33 -->
<g id="edge58" class="edge">
<title>Node32&#45;&gt;Node33</title>
<path fill="none" stroke="#191970" d="M860.0957,-128.99C870.8756,-126.7033 882.5889,-124.4929 893.5,-123 1146.3132,-88.4082 1217.7641,-143.9346 1466.5,-87 1502.06,-78.8605 1507.6444,-66.7635 1542.5,-56 1591.5775,-40.8447 1648.487,-28.8697 1691.2769,-20.9414"/>
<polygon fill="#191970" stroke="#191970" points="1692.0764,-24.3533 1701.2846,-19.113 1690.8183,-17.4673 1692.0764,-24.3533"/>
</g>
<!-- Node34&#45;&gt;Node1 -->
<g id="edge62" class="edge">
<title>Node34&#45;&gt;Node1</title>
<path fill="none" stroke="#191970" d="M1622.7147,-266.8741C1490.0968,-254.3946 1172.2041,-224.4806 1035.1673,-211.5853"/>
<polygon fill="#191970" stroke="#191970" points="1035.1157,-208.065 1024.8317,-210.6127 1034.4598,-215.0342 1035.1157,-208.065"/>
</g>
<!-- Node34&#45;&gt;Node3 -->
<g id="edge64" class="edge">
<title>Node34&#45;&gt;Node3</title>
<path fill="none" stroke="#191970" d="M1682.5,-257.389C1682.5,-233.0735 1682.5,-185.2644 1682.5,-158.2698"/>
<polygon fill="#191970" stroke="#191970" points="1686.0001,-158.1041 1682.5,-148.1042 1679.0001,-158.1042 1686.0001,-158.1041"/>
</g>
<!-- Node34&#45;&gt;Node14 -->
<g id="edge63" class="edge">
<title>Node34&#45;&gt;Node14</title>
<path fill="none" stroke="#191970" d="M1629.2755,-257.4745C1493.9344,-219.2673 1138.5797,-118.9495 1014.229,-83.8448"/>
<polygon fill="#191970" stroke="#191970" points="1014.8741,-80.3902 1004.2993,-81.0417 1012.9723,-87.1269 1014.8741,-80.3902"/>
</g>
<!-- Node35 -->
<g id="node36" class="node">
<title>Node35</title>
<g id="a_node36"><a xlink:href="_direction_selector_8_h.html" target="_top" xlink:title="amr&#45;wind/utilities\l/DirectionSelector.H">
<polygon fill="#ffffff" stroke="#000000" points="1786,-190.5 1786,-220.5 1891,-220.5 1891,-190.5 1786,-190.5"/>
<text text-anchor="start" x="1794" y="-208.5" font-family="Helvetica,sans-Serif" font-size="10.00" fill="#000000">amr&#45;wind/utilities</text>
<text text-anchor="middle" x="1838.5" y="-197.5" font-family="Helvetica,sans-Serif" font-size="10.00" fill="#000000">/DirectionSelector.H</text>
</a>
</g>
</g>
<!-- Node34&#45;&gt;Node35 -->
<g id="edge60" class="edge">
<title>Node34&#45;&gt;Node35</title>
<path fill="none" stroke="#191970" d="M1717.5094,-257.4639C1740.1113,-247.7567 1769.7168,-235.0415 1793.9847,-224.6188"/>
<polygon fill="#191970" stroke="#191970" points="1795.5307,-227.764 1803.3379,-220.6017 1792.7682,-221.3321 1795.5307,-227.764"/>
</g>
<!-- Node35&#45;&gt;Node17 -->
<g id="edge61" class="edge">
<title>Node35&#45;&gt;Node17</title>
<path fill="none" stroke="#191970" d="M1891.1909,-197.4696C1951.0468,-185.2223 2046.0354,-155.5852 2089.5,-87 2101.3712,-68.2678 2088.1784,-43.937 2075.9556,-27.6873"/>
<polygon fill="#191970" stroke="#191970" points="2078.4262,-25.1747 2069.4303,-19.5779 2072.9726,-29.5631 2078.4262,-25.1747"/>
</g>
<!-- Node36&#45;&gt;Node10 -->
<g id="edge66" class="edge">
<title>Node36&#45;&gt;Node10</title>
<path fill="none" stroke="#191970" d="M1851.5433,-61.9782C1839.5531,-59.7197 1826.574,-57.5262 1814.5,-56 1572.0653,-25.3548 1506.9004,-41.1009 1259.3554,-20.0322"/>
<polygon fill="#191970" stroke="#191970" points="1259.5993,-16.5403 1249.3354,-19.1678 1258.9976,-23.5144 1259.5993,-16.5403"/>
</g>
<!-- Node36&#45;&gt;Node17 -->
<g id="edge67" class="edge">
<title>Node36&#45;&gt;Node17</title>
<path fill="none" stroke="#191970" d="M1922.125,-61.8906C1949.9263,-51.4652 1994.4844,-34.7559 2025.4994,-23.1252"/>
<polygon fill="#191970" stroke="#191970" points="2026.9206,-26.3303 2035.0549,-19.5419 2024.4627,-19.776 2026.9206,-26.3303"/>
</g>
<!-- Node36&#45;&gt;Node23 -->
<g id="edge70" class="edge">
<title>Node36&#45;&gt;Node23</title>
<path fill="none" stroke="#191970" d="M1850.2645,-61.9581C1797.5205,-51.073 1711.2801,-33.2751 1654.7008,-21.5985"/>
<polygon fill="#191970" stroke="#191970" points="1655.3451,-18.1578 1644.844,-19.5643 1653.9302,-25.0133 1655.3451,-18.1578"/>
</g>
<!-- Node36&#45;&gt;Node33 -->
<g id="edge69" class="edge">
<title>Node36&#45;&gt;Node33</title>
<path fill="none" stroke="#191970" d="M1874.625,-61.8906C1851.2004,-51.6005 1813.8404,-35.1888 1787.4159,-23.5809"/>
<polygon fill="#191970" stroke="#191970" points="1788.7846,-20.3594 1778.2214,-19.5419 1785.9693,-26.7683 1788.7846,-20.3594"/>
</g>
<!-- Node37 -->
<g id="node38" class="node">
<title>Node37</title>
<polygon fill="#ffffff" stroke="#bfbfbf" points="1840,-.5 1840,-19.5 1953,-19.5 1953,-.5 1840,-.5"/>
<text text-anchor="middle" x="1896.5" y="-7.5" font-family="Helvetica,sans-Serif" font-size="10.00" fill="#000000">AMReX_FArrayBox.H</text>
</g>
<!-- Node36&#45;&gt;Node37 -->
<g id="edge68" class="edge">
<title>Node36&#45;&gt;Node37</title>
<path fill="none" stroke="#191970" d="M1896.5,-61.8906C1896.5,-53.3657 1896.5,-40.6392 1896.5,-29.9235"/>
<polygon fill="#191970" stroke="#191970" points="1900.0001,-29.7448 1896.5,-19.7449 1893.0001,-29.7449 1900.0001,-29.7448"/>
</g>
<!-- Node39 -->
<g id="node40" class="node">
<title>Node39</title>
<g id="a_node40"><a xlink:href="trig__ops_8_h.html" target="_top" xlink:title="Trigonometric utilities. ">
<polygon fill="#ffffff" stroke="#000000" points="2101.5,-123.5 2101.5,-153.5 2191.5,-153.5 2191.5,-123.5 2101.5,-123.5"/>
<text text-anchor="start" x="2109.5" y="-141.5" font-family="Helvetica,sans-Serif" font-size="10.00" fill="#000000">amr&#45;wind/utilities</text>
<text text-anchor="middle" x="2146.5" y="-130.5" font-family="Helvetica,sans-Serif" font-size="10.00" fill="#000000">/trig_ops.H</text>
</a>
</g>
</g>
<!-- Node38&#45;&gt;Node39 -->
<g id="edge72" class="edge">
<title>Node38&#45;&gt;Node39</title>
<path fill="none" stroke="#191970" d="M2146.5,-257.389C2146.5,-234.6691 2146.5,-191.438 2146.5,-163.8405"/>
<polygon fill="#191970" stroke="#191970" points="2150.0001,-163.7614 2146.5,-153.7614 2143.0001,-163.7614 2150.0001,-163.7614"/>
</g>
<!-- Node39&#45;&gt;Node4 -->
<g id="edge74" class="edge">
<title>Node39&#45;&gt;Node4</title>
<path fill="none" stroke="#191970" d="M2121.1406,-123.4639C2102.4369,-112.3741 2077.1119,-97.3584 2058.495,-86.32"/>
<polygon fill="#191970" stroke="#191970" points="2060.0844,-83.1935 2049.6977,-81.1039 2056.5143,-89.2147 2060.0844,-83.1935"/>
</g>
<!-- Node39&#45;&gt;Node17 -->
<g id="edge75" class="edge">
<title>Node39&#45;&gt;Node17</title>
<path fill="none" stroke="#191970" d="M2145.0149,-123.2492C2142.6744,-105.6731 2136.8106,-76.5721 2122.5,-56 2113.7173,-43.3744 2100.351,-32.8251 2088.2749,-25.0275"/>
<polygon fill="#191970" stroke="#191970" points="2089.7497,-21.8275 2079.3891,-19.6121 2086.1068,-27.8049 2089.7497,-21.8275"/>
</g>
<!-- Node40 -->
<g id="node41" class="node">
<title>Node40</title>
<polygon fill="#ffffff" stroke="#bfbfbf" points="2174.5,-62 2174.5,-81 2218.5,-81 2218.5,-62 2174.5,-62"/>
<text text-anchor="middle" x="2196.5" y="-69" font-family="Helvetica,sans-Serif" font-size="10.00" fill="#000000">cmath</text>
</g>
<!-- Node39&#45;&gt;Node40 -->
<g id="edge73" class="edge">
<title>Node39&#45;&gt;Node40</title>
<path fill="none" stroke="#191970" d="M2157.8458,-123.2967C2165.4091,-113.1618 2175.3776,-99.804 2183.2969,-89.1921"/>
<polygon fill="#191970" stroke="#191970" points="2186.1936,-91.1626 2189.3694,-81.055 2180.5835,-86.976 2186.1936,-91.1626"/>
</g>
</g>
</svg>
