<?xml version="1.0" encoding="UTF-8" standalone="no"?>
<!DOCTYPE svg PUBLIC "-//W3C//DTD SVG 1.1//EN"
 "http://www.w3.org/Graphics/SVG/1.1/DTD/svg11.dtd">
<!-- Generated by graphviz version 2.40.1 (20161225.0304)
 -->
<!-- Title: BCInterface.cpp Pages: 1 -->
<!--zoomable 330 -->
<svg id="main" version="1.1" xmlns="http://www.w3.org/2000/svg" xmlns:xlink="http://www.w3.org/1999/xlink" xml:space="preserve" onload="init(evt)">
<style type="text/css"><![CDATA[
.edge:hover path { stroke: red; }
.edge:hover polygon { stroke: red; fill: red; }
]]></style>
<script type="text/javascript"><![CDATA[
var edges = document.getElementsByTagName('g');
if (edges && edges.length) {
  for (var i=0;i<edges.length;i++) {
    if (edges[i].id.substr(0,4)=='edge') {
      edges[i].setAttribute('class','edge');
    }
  }
}
]]></script>
        <defs>
                <circle id="rim" cx="0" cy="0" r="7"/>
                <circle id="rim2" cx="0" cy="0" r="3.5"/>
                <g id="zoomPlus">
                        <use xlink:href="#rim" fill="#404040">
                                <set attributeName="fill" to="#808080" begin="zoomplus.mouseover" end="zoomplus.mouseout"/>
                        </use>
                        <path d="M-4,0h8M0,-4v8" fill="none" stroke="white" stroke-width="1.5" pointer-events="none"/>
                </g>
                <g id="zoomMin">
                        <use xlink:href="#rim" fill="#404040">
                                <set attributeName="fill" to="#808080" begin="zoomminus.mouseover" end="zoomminus.mouseout"/>
                        </use>
                        <path d="M-4,0h8" fill="none" stroke="white" stroke-width="1.5" pointer-events="none"/>
                </g>
                <g id="dirArrow">
                        <path fill="none" stroke="white" stroke-width="1.5" d="M0,-3.0v7 M-2.5,-0.5L0,-3.0L2.5,-0.5"/>
                </g>
               <g id="resetDef">
                       <use xlink:href="#rim2" fill="#404040">
                               <set attributeName="fill" to="#808080" begin="reset.mouseover" end="reset.mouseout"/>
                       </use>
               </g>
        </defs>

<script type="text/javascript">
var viewWidth = 1835;
var viewHeight = 330;
var sectionId = 'dynsection-0';
</script>
<script xlink:href="svgpan.js"/>
<svg id="graph" class="graph">
<g id="viewport">
<title>BCInterface.cpp</title>
<polygon fill="#ffffff" stroke="transparent" points="-4,4 -4,-326 1830.9232,-326 1830.9232,4 -4,4"/>
<!-- Node0 -->
<g id="node1" class="node">
<title>Node0</title>
<polygon fill="#bfbfbf" stroke="#000000" points="977.5,-302.5 977.5,-321.5 1065.5,-321.5 1065.5,-302.5 977.5,-302.5"/>
<text text-anchor="middle" x="1021.5" y="-309.5" font-family="Helvetica,sans-Serif" font-size="10.00" fill="#000000">BCInterface.cpp</text>
</g>
<!-- Node1 -->
<g id="node2" class="node">
<title>Node1</title>
<g id="a_node2"><a xlink:href="_b_c_interface_8_h.html" target="_top" xlink:title="amr&#45;wind/boundary_conditions\l/BCInterface.H">
<polygon fill="#ffffff" stroke="#000000" points="338,-168.5 338,-198.5 487,-198.5 487,-168.5 338,-168.5"/>
<text text-anchor="start" x="346" y="-186.5" font-family="Helvetica,sans-Serif" font-size="10.00" fill="#000000">amr&#45;wind/boundary_conditions</text>
<text text-anchor="middle" x="412.5" y="-175.5" font-family="Helvetica,sans-Serif" font-size="10.00" fill="#000000">/BCInterface.H</text>
</a>
</g>
</g>
<!-- Node0&#45;&gt;Node1 -->
<g id="edge1" class="edge">
<title>Node0&#45;&gt;Node1</title>
<path fill="none" stroke="#191970" d="M977.2117,-302.6551C875.5746,-281.2095 624.333,-228.1971 493.9465,-200.6853"/>
<polygon fill="#191970" stroke="#191970" points="494.514,-197.2281 484.0068,-198.5881 493.0687,-204.0773 494.514,-197.2281"/>
</g>
<!-- Node14 -->
<g id="node15" class="node">
<title>Node14</title>
<g id="a_node15"><a xlink:href="_field_repo_8_h.html" target="_top" xlink:title="amr&#45;wind/core/FieldRepo.H">
<polygon fill="#ffffff" stroke="#000000" points="905.5,-174 905.5,-193 1041.5,-193 1041.5,-174 905.5,-174"/>
<text text-anchor="middle" x="973.5" y="-181" font-family="Helvetica,sans-Serif" font-size="10.00" fill="#000000">amr&#45;wind/core/FieldRepo.H</text>
</a>
</g>
</g>
<!-- Node0&#45;&gt;Node14 -->
<g id="edge18" class="edge">
<title>Node0&#45;&gt;Node14</title>
<path fill="none" stroke="#191970" d="M1013.0844,-302.4842C1005.7257,-293.644 995.3298,-279.801 989.5,-266 980.9203,-245.689 976.8944,-220.6079 975.0359,-203.4668"/>
<polygon fill="#191970" stroke="#191970" points="978.4759,-202.658 974.0661,-193.0246 971.5059,-203.3054 978.4759,-202.658"/>
</g>
<!-- Node22 -->
<g id="node23" class="node">
<title>Node22</title>
<g id="a_node23"><a xlink:href="_fixed_gradient_b_c_8_h.html" target="_top" xlink:title="amr&#45;wind/boundary_conditions\l/FixedGradientBC.H">
<polygon fill="#ffffff" stroke="#000000" points="998,-235.5 998,-265.5 1147,-265.5 1147,-235.5 998,-235.5"/>
<text text-anchor="start" x="1006" y="-253.5" font-family="Helvetica,sans-Serif" font-size="10.00" fill="#000000">amr&#45;wind/boundary_conditions</text>
<text text-anchor="middle" x="1072.5" y="-242.5" font-family="Helvetica,sans-Serif" font-size="10.00" fill="#000000">/FixedGradientBC.H</text>
</a>
</g>
</g>
<!-- Node0&#45;&gt;Node22 -->
<g id="edge41" class="edge">
<title>Node0&#45;&gt;Node22</title>
<path fill="none" stroke="#191970" d="M1029.4688,-302.3906C1035.9236,-294.6068 1045.2832,-283.3202 1053.6261,-273.2597"/>
<polygon fill="#191970" stroke="#191970" points="1056.3348,-275.4764 1060.024,-265.5446 1050.9464,-271.008 1056.3348,-275.4764"/>
</g>
<!-- Node27 -->
<g id="node28" class="node">
<title>Node27</title>
<polygon fill="#ffffff" stroke="#bfbfbf" points="1164.5,-241 1164.5,-260 1280.5,-260 1280.5,-241 1164.5,-241"/>
<text text-anchor="middle" x="1222.5" y="-248" font-family="Helvetica,sans-Serif" font-size="10.00" fill="#000000">AMReX_ParmParse.H</text>
</g>
<!-- Node0&#45;&gt;Node27 -->
<g id="edge50" class="edge">
<title>Node0&#45;&gt;Node27</title>
<path fill="none" stroke="#191970" d="M1052.9063,-302.3906C1087.5698,-291.7846 1143.4881,-274.6753 1181.5625,-263.0257"/>
<polygon fill="#191970" stroke="#191970" points="1182.7759,-266.3146 1191.3143,-260.0419 1180.7278,-259.6209 1182.7759,-266.3146"/>
</g>
<!-- Node2 -->
<g id="node3" class="node">
<title>Node2</title>
<g id="a_node3"><a xlink:href="_field_8_h.html" target="_top" xlink:title="amr&#45;wind/core/Field.H">
<polygon fill="#ffffff" stroke="#000000" points="515,-112.5 515,-131.5 628,-131.5 628,-112.5 515,-112.5"/>
<text text-anchor="middle" x="571.5" y="-119.5" font-family="Helvetica,sans-Serif" font-size="10.00" fill="#000000">amr&#45;wind/core/Field.H</text>
</a>
</g>
</g>
<!-- Node1&#45;&gt;Node2 -->
<g id="edge2" class="edge">
<title>Node1&#45;&gt;Node2</title>
<path fill="none" stroke="#191970" d="M451.3958,-168.4554C477.6926,-158.284 512.0917,-144.9787 537.3332,-135.2155"/>
<polygon fill="#191970" stroke="#191970" points="538.7966,-138.4022 546.8606,-131.5303 536.2714,-131.8735 538.7966,-138.4022"/>
</g>
<!-- Node9 -->
<g id="node10" class="node">
<title>Node9</title>
<g id="a_node10"><a xlink:href="incflo__enums_8_h.html" target="_top" xlink:title="amr&#45;wind/incflo_enums.H">
<polygon fill="#ffffff" stroke="#000000" points="189.5,-56.5 189.5,-75.5 317.5,-75.5 317.5,-56.5 189.5,-56.5"/>
<text text-anchor="middle" x="253.5" y="-63.5" font-family="Helvetica,sans-Serif" font-size="10.00" fill="#000000">amr&#45;wind/incflo_enums.H</text>
</a>
</g>
</g>
<!-- Node1&#45;&gt;Node9 -->
<g id="edge16" class="edge">
<title>Node1&#45;&gt;Node9</title>
<path fill="none" stroke="#191970" d="M392.039,-168.3795C361.8091,-146.0397 305.4876,-104.4185 274.7891,-81.7325"/>
<polygon fill="#191970" stroke="#191970" points="276.6193,-78.733 266.4969,-75.6046 272.459,-84.3627 276.6193,-78.733"/>
</g>
<!-- Node13 -->
<g id="node14" class="node">
<title>Node13</title>
<polygon fill="#ffffff" stroke="#bfbfbf" points="22,-112.5 22,-131.5 141,-131.5 141,-112.5 22,-112.5"/>
<text text-anchor="middle" x="81.5" y="-119.5" font-family="Helvetica,sans-Serif" font-size="10.00" fill="#000000">AMReX_BC_TYPES.H</text>
</g>
<!-- Node1&#45;&gt;Node13 -->
<g id="edge17" class="edge">
<title>Node1&#45;&gt;Node13</title>
<path fill="none" stroke="#191970" d="M337.8044,-169.6215C278.9279,-158.6822 197.845,-143.617 142.7548,-133.3812"/>
<polygon fill="#191970" stroke="#191970" points="143.253,-129.9139 132.7819,-131.5282 141.9743,-136.7961 143.253,-129.9139"/>
</g>
<!-- Node3 -->
<g id="node4" class="node">
<title>Node3</title>
<polygon fill="#ffffff" stroke="#bfbfbf" points="1121,-.5 1121,-19.5 1162,-19.5 1162,-.5 1121,-.5"/>
<text text-anchor="middle" x="1141.5" y="-7.5" font-family="Helvetica,sans-Serif" font-size="10.00" fill="#000000">string</text>
</g>
<!-- Node2&#45;&gt;Node3 -->
<g id="edge3" class="edge">
<title>Node2&#45;&gt;Node3</title>
<path fill="none" stroke="#191970" d="M628.2829,-117.7676C725.6163,-110.1686 920.2378,-93.3772 986.5,-76 1033.2166,-63.7486 1084.1564,-39.8418 1114.4338,-24.4132"/>
<polygon fill="#191970" stroke="#191970" points="1116.2276,-27.426 1123.5065,-19.7274 1113.0154,-21.2066 1116.2276,-27.426"/>
</g>
<!-- Node4 -->
<g id="node5" class="node">
<title>Node4</title>
<polygon fill="#ffffff" stroke="#bfbfbf" points="373.5,-56.5 373.5,-75.5 425.5,-75.5 425.5,-56.5 373.5,-56.5"/>
<text text-anchor="middle" x="399.5" y="-63.5" font-family="Helvetica,sans-Serif" font-size="10.00" fill="#000000">memory</text>
</g>
<!-- Node2&#45;&gt;Node4 -->
<g id="edge4" class="edge">
<title>Node2&#45;&gt;Node4</title>
<path fill="none" stroke="#191970" d="M541.9321,-112.3733C512.3778,-102.7509 466.9039,-87.9455 435.3192,-77.6621"/>
<polygon fill="#191970" stroke="#191970" points="436.1825,-74.2624 425.5902,-74.4945 434.0154,-80.9185 436.1825,-74.2624"/>
</g>
<!-- Node5 -->
<g id="node6" class="node">
<title>Node5</title>
<polygon fill="#ffffff" stroke="#bfbfbf" points="600,-56.5 600,-75.5 683,-75.5 683,-56.5 600,-56.5"/>
<text text-anchor="middle" x="641.5" y="-63.5" font-family="Helvetica,sans-Serif" font-size="10.00" fill="#000000">unordered_map</text>
</g>
<!-- Node2&#45;&gt;Node5 -->
<g id="edge5" class="edge">
<title>Node2&#45;&gt;Node5</title>
<path fill="none" stroke="#191970" d="M583.6931,-112.2455C594.1321,-103.8943 609.3655,-91.7076 621.574,-81.9408"/>
<polygon fill="#191970" stroke="#191970" points="623.8244,-84.6227 629.4467,-75.6427 619.4515,-79.1566 623.8244,-84.6227"/>
</g>
<!-- Node6 -->
<g id="node7" class="node">
<title>Node6</title>
<polygon fill="#ffffff" stroke="#bfbfbf" points="293.5,-.5 293.5,-19.5 397.5,-19.5 397.5,-.5 293.5,-.5"/>
<text text-anchor="middle" x="345.5" y="-7.5" font-family="Helvetica,sans-Serif" font-size="10.00" fill="#000000">AMReX_MultiFab.H</text>
</g>
<!-- Node2&#45;&gt;Node6 -->
<g id="edge6" class="edge">
<title>Node2&#45;&gt;Node6</title>
<path fill="none" stroke="#191970" d="M514.8046,-115.9239C461.2163,-109.0586 385.9235,-96.1422 364.5,-76 351.901,-64.1545 347.4793,-44.5476 346.0132,-29.7753"/>
<polygon fill="#191970" stroke="#191970" points="349.4962,-29.3931 345.3817,-19.6299 342.5098,-29.828 349.4962,-29.3931"/>
</g>
<!-- Node7 -->
<g id="node8" class="node">
<title>Node7</title>
<polygon fill="#ffffff" stroke="#bfbfbf" points="444,-56.5 444,-75.5 543,-75.5 543,-56.5 444,-56.5"/>
<text text-anchor="middle" x="493.5" y="-63.5" font-family="Helvetica,sans-Serif" font-size="10.00" fill="#000000">AMReX_BCRec.H</text>
</g>
<!-- Node2&#45;&gt;Node7 -->
<g id="edge7" class="edge">
<title>Node2&#45;&gt;Node7</title>
<path fill="none" stroke="#191970" d="M557.9134,-112.2455C546.1695,-103.814 528.9801,-91.4729 515.3118,-81.6598"/>
<polygon fill="#191970" stroke="#191970" points="517.0954,-78.6316 506.9309,-75.6427 513.0129,-84.3179 517.0954,-78.6316"/>
</g>
<!-- Node8 -->
<g id="node9" class="node">
<title>Node8</title>
<polygon fill="#ffffff" stroke="#bfbfbf" points="892,-56.5 892,-75.5 977,-75.5 977,-56.5 892,-56.5"/>
<text text-anchor="middle" x="934.5" y="-63.5" font-family="Helvetica,sans-Serif" font-size="10.00" fill="#000000">AMReX_Gpu.H</text>
</g>
<!-- Node2&#45;&gt;Node8 -->
<g id="edge8" class="edge">
<title>Node2&#45;&gt;Node8</title>
<path fill="none" stroke="#191970" d="M628.0824,-114.3782C688.365,-106.09 786.8336,-92.0721 881.8834,-76.0447"/>
<polygon fill="#191970" stroke="#191970" points="882.686,-79.4586 891.96,-74.3357 881.5155,-72.5571 882.686,-79.4586"/>
</g>
<!-- Node2&#45;&gt;Node9 -->
<g id="edge9" class="edge">
<title>Node2&#45;&gt;Node9</title>
<path fill="none" stroke="#191970" d="M517.1952,-112.4369C461.8573,-102.6918 376.0617,-87.5832 317.4661,-77.2645"/>
<polygon fill="#191970" stroke="#191970" points="318.0363,-73.8111 307.5808,-75.5237 316.8223,-80.705 318.0363,-73.8111"/>
</g>
<!-- Node10 -->
<g id="node11" class="node">
<title>Node10</title>
<g id="a_node11"><a xlink:href="_field_desc_types_8_h.html" target="_top" xlink:title="amr&#45;wind/core/FieldDescTypes.H">
<polygon fill="#ffffff" stroke="#000000" points="940,-.5 940,-19.5 1103,-19.5 1103,-.5 940,-.5"/>
<text text-anchor="middle" x="1021.5" y="-7.5" font-family="Helvetica,sans-Serif" font-size="10.00" fill="#000000">amr&#45;wind/core/FieldDescTypes.H</text>
</a>
</g>
</g>
<!-- Node2&#45;&gt;Node10 -->
<g id="edge10" class="edge">
<title>Node2&#45;&gt;Node10</title>
<path fill="none" stroke="#191970" d="M571.34,-112.1275C571.688,-97.3926 574.7158,-69.8969 591.5,-56 604.3667,-45.3467 807.2195,-27.2697 929.6445,-17.2425"/>
<polygon fill="#191970" stroke="#191970" points="930.0905,-20.7178 939.7728,-16.4163 929.5213,-13.741 930.0905,-20.7178"/>
</g>
<!-- Node11 -->
<g id="node12" class="node">
<title>Node11</title>
<g id="a_node12"><a xlink:href="_view_field_8_h.html" target="_top" xlink:title="amr&#45;wind/core/ViewField.H">
<polygon fill="#ffffff" stroke="#000000" points="739.5,-56.5 739.5,-75.5 873.5,-75.5 873.5,-56.5 739.5,-56.5"/>
<text text-anchor="middle" x="806.5" y="-63.5" font-family="Helvetica,sans-Serif" font-size="10.00" fill="#000000">amr&#45;wind/core/ViewField.H</text>
</a>
</g>
</g>
<!-- Node2&#45;&gt;Node11 -->
<g id="edge11" class="edge">
<title>Node2&#45;&gt;Node11</title>
<path fill="none" stroke="#191970" d="M611.6309,-112.4369C651.7649,-102.8731 713.5775,-88.1432 756.7933,-77.845"/>
<polygon fill="#191970" stroke="#191970" points="757.6183,-81.2465 766.5346,-75.5237 755.9956,-74.4372 757.6183,-81.2465"/>
</g>
<!-- Node11&#45;&gt;Node3 -->
<g id="edge12" class="edge">
<title>Node11&#45;&gt;Node3</title>
<path fill="none" stroke="#191970" d="M873.5883,-56.5789C949.6248,-45.8064 1067.7836,-28.7498 1110.862,-19.8912"/>
<polygon fill="#191970" stroke="#191970" points="1111.7389,-23.2815 1120.7272,-17.6725 1110.2029,-16.4521 1111.7389,-23.2815"/>
</g>
<!-- Node11&#45;&gt;Node6 -->
<g id="edge14" class="edge">
<title>Node11&#45;&gt;Node6</title>
<path fill="none" stroke="#191970" d="M739.3179,-57.6935C734.6418,-57.1191 730.0007,-56.5502 725.5,-56 613.6758,-42.329 483.3148,-26.592 408.0052,-17.5204"/>
<polygon fill="#191970" stroke="#191970" points="408.0986,-14.0064 397.7518,-16.2855 407.2615,-20.9562 408.0986,-14.0064"/>
</g>
<!-- Node11&#45;&gt;Node10 -->
<g id="edge13" class="edge">
<title>Node11&#45;&gt;Node10</title>
<path fill="none" stroke="#191970" d="M843.4598,-56.3733C879.9075,-46.8799 935.7246,-32.3415 975.1289,-22.0781"/>
<polygon fill="#191970" stroke="#191970" points="976.2276,-25.4087 985.0225,-19.5011 974.4631,-18.6348 976.2276,-25.4087"/>
</g>
<!-- Node12 -->
<g id="node13" class="node">
<title>Node12</title>
<polygon fill="#ffffff" stroke="#bfbfbf" points="782,-.5 782,-19.5 877,-19.5 877,-.5 782,-.5"/>
<text text-anchor="middle" x="829.5" y="-7.5" font-family="Helvetica,sans-Serif" font-size="10.00" fill="#000000">AMReX_Vector.H</text>
</g>
<!-- Node11&#45;&gt;Node12 -->
<g id="edge15" class="edge">
<title>Node11&#45;&gt;Node12</title>
<path fill="none" stroke="#191970" d="M810.5063,-56.2455C813.5735,-48.7776 817.9003,-38.2427 821.6497,-29.1137"/>
<polygon fill="#191970" stroke="#191970" points="824.9779,-30.2226 825.5396,-19.6427 818.5028,-27.5631 824.9779,-30.2226"/>
</g>
<!-- Node14&#45;&gt;Node2 -->
<g id="edge26" class="edge">
<title>Node14&#45;&gt;Node2</title>
<path fill="none" stroke="#191970" d="M911.1286,-173.9581C837.0466,-162.6247 713.9791,-143.7972 638.0927,-132.1877"/>
<polygon fill="#191970" stroke="#191970" points="638.5796,-128.7215 628.1653,-130.6689 637.521,-135.641 638.5796,-128.7215"/>
</g>
<!-- Node14&#45;&gt;Node3 -->
<g id="edge19" class="edge">
<title>Node14&#45;&gt;Node3</title>
<path fill="none" stroke="#191970" d="M1040.8165,-173.9951C1057.3677,-171.841 1075.0572,-169.6926 1091.5,-168 1254.3653,-151.2346 1720.2151,-203.8436 1822.5,-76 1828.0532,-69.0592 1828.5699,-62.4937 1822.5,-56 1799.9951,-31.9236 1302.2007,-14.9507 1172.285,-10.9204"/>
<polygon fill="#191970" stroke="#191970" points="1172.322,-7.4199 1162.2192,-10.6113 1172.1071,-14.4166 1172.322,-7.4199"/>
</g>
<!-- Node14&#45;&gt;Node5 -->
<g id="edge20" class="edge">
<title>Node14&#45;&gt;Node5</title>
<path fill="none" stroke="#191970" d="M967.2024,-173.7583C956.4262,-157.9668 932.8457,-127.0352 904.5,-112 822.0056,-68.2429 789.4636,-92.2078 697.5,-76 696.0411,-75.7429 694.5609,-75.4816 693.0669,-75.2174"/>
<polygon fill="#191970" stroke="#191970" points="693.5437,-71.7474 683.0861,-73.4476 692.3214,-78.6399 693.5437,-71.7474"/>
</g>
<!-- Node14&#45;&gt;Node6 -->
<g id="edge39" class="edge">
<title>Node14&#45;&gt;Node6</title>
<path fill="none" stroke="#191970" d="M905.2285,-179.4055C721.464,-167.6819 227.0603,-131.2403 180.5,-76 148.0763,-37.5317 223.9063,-21.2914 283.2351,-14.5698"/>
<polygon fill="#191970" stroke="#191970" points="283.7676,-18.033 293.342,-13.4964 283.0283,-11.0722 283.7676,-18.033"/>
</g>
<!-- Node14&#45;&gt;Node10 -->
<g id="edge21" class="edge">
<title>Node14&#45;&gt;Node10</title>
<path fill="none" stroke="#191970" d="M1011.5221,-173.9159C1046.7629,-164.1727 1095.374,-148.2391 1106.5,-132 1132.8852,-93.489 1079.5773,-48.5077 1046.0012,-25.4147"/>
<polygon fill="#191970" stroke="#191970" points="1047.8039,-22.4099 1037.5436,-19.7684 1043.9172,-28.2318 1047.8039,-22.4099"/>
</g>
<!-- Node15 -->
<g id="node16" class="node">
<title>Node15</title>
<g id="a_node16"><a xlink:href="_field_utils_8_h.html" target="_top" xlink:title="amr&#45;wind/core/FieldUtils.H">
<polygon fill="#ffffff" stroke="#000000" points="0,-56.5 0,-75.5 133,-75.5 133,-56.5 0,-56.5"/>
<text text-anchor="middle" x="66.5" y="-63.5" font-family="Helvetica,sans-Serif" font-size="10.00" fill="#000000">amr&#45;wind/core/FieldUtils.H</text>
</a>
</g>
</g>
<!-- Node14&#45;&gt;Node15 -->
<g id="edge22" class="edge">
<title>Node14&#45;&gt;Node15</title>
<path fill="none" stroke="#191970" d="M905.3538,-181.4747C747.1193,-176.3352 358.6362,-161.0851 231.5,-132 181.3491,-120.5269 126.5254,-95.9978 94.3943,-80.289"/>
<polygon fill="#191970" stroke="#191970" points="95.6955,-77.0275 85.1815,-75.7212 92.586,-83.299 95.6955,-77.0275"/>
</g>
<!-- Node17 -->
<g id="node18" class="node">
<title>Node17</title>
<g id="a_node18"><a xlink:href="_int_field_8_h.html" target="_top" xlink:title="amr&#45;wind/core/IntField.H">
<polygon fill="#ffffff" stroke="#000000" points="1185.5,-112.5 1185.5,-131.5 1309.5,-131.5 1309.5,-112.5 1185.5,-112.5"/>
<text text-anchor="middle" x="1247.5" y="-119.5" font-family="Helvetica,sans-Serif" font-size="10.00" fill="#000000">amr&#45;wind/core/IntField.H</text>
</a>
</g>
</g>
<!-- Node14&#45;&gt;Node17 -->
<g id="edge27" class="edge">
<title>Node14&#45;&gt;Node17</title>
<path fill="none" stroke="#191970" d="M1016.0119,-173.9581C1064.2068,-163.1406 1142.819,-145.4959 1194.8529,-133.8168"/>
<polygon fill="#191970" stroke="#191970" points="1195.8977,-137.1694 1204.8884,-131.5643 1194.3646,-130.3394 1195.8977,-137.1694"/>
</g>
<!-- Node18 -->
<g id="node19" class="node">
<title>Node18</title>
<polygon fill="#ffffff" stroke="#bfbfbf" points="1408,-56.5 1408,-75.5 1515,-75.5 1515,-56.5 1408,-56.5"/>
<text text-anchor="middle" x="1461.5" y="-63.5" font-family="Helvetica,sans-Serif" font-size="10.00" fill="#000000">AMReX_iMultiFab.H</text>
</g>
<!-- Node14&#45;&gt;Node18 -->
<g id="edge40" class="edge">
<title>Node14&#45;&gt;Node18</title>
<path fill="none" stroke="#191970" d="M1032.2113,-173.9799C1044.8366,-171.9714 1058.1086,-169.8893 1070.5,-168 1180.605,-151.2123 1211.7186,-163.6651 1318.5,-132 1361.4133,-119.2744 1407.917,-95.8364 1435.8722,-80.5896"/>
<polygon fill="#191970" stroke="#191970" points="1437.8932,-83.4715 1444.9504,-75.5692 1434.5056,-77.3458 1437.8932,-83.4715"/>
</g>
<!-- Node19 -->
<g id="node20" class="node">
<title>Node19</title>
<g id="a_node20"><a xlink:href="_scratch_field_8_h.html" target="_top" xlink:title="amr&#45;wind/core/ScratchField.H">
<polygon fill="#ffffff" stroke="#000000" points="951.5,-112.5 951.5,-131.5 1097.5,-131.5 1097.5,-112.5 951.5,-112.5"/>
<text text-anchor="middle" x="1024.5" y="-119.5" font-family="Helvetica,sans-Serif" font-size="10.00" fill="#000000">amr&#45;wind/core/ScratchField.H</text>
</a>
</g>
</g>
<!-- Node14&#45;&gt;Node19 -->
<g id="edge31" class="edge">
<title>Node14&#45;&gt;Node19</title>
<path fill="none" stroke="#191970" d="M981.4688,-173.8906C989.0591,-164.7376 1000.6661,-150.7409 1009.9132,-139.59"/>
<polygon fill="#191970" stroke="#191970" points="1012.7297,-141.6766 1016.4189,-131.7449 1007.3413,-137.2083 1012.7297,-141.6766"/>
</g>
<!-- Node21 -->
<g id="node22" class="node">
<title>Node21</title>
<polygon fill="#ffffff" stroke="#bfbfbf" points="789.5,-112.5 789.5,-131.5 895.5,-131.5 895.5,-112.5 789.5,-112.5"/>
<text text-anchor="middle" x="842.5" y="-119.5" font-family="Helvetica,sans-Serif" font-size="10.00" fill="#000000">AMReX_AmrCore.H</text>
</g>
<!-- Node14&#45;&gt;Node21 -->
<g id="edge38" class="edge">
<title>Node14&#45;&gt;Node21</title>
<path fill="none" stroke="#191970" d="M953.0313,-173.8906C931.3048,-163.6908 896.7665,-147.4763 872.0815,-135.8875"/>
<polygon fill="#191970" stroke="#191970" points="873.3645,-132.6234 862.825,-131.5419 870.3897,-138.9598 873.3645,-132.6234"/>
</g>
<!-- Node15&#45;&gt;Node6 -->
<g id="edge24" class="edge">
<title>Node15&#45;&gt;Node6</title>
<path fill="none" stroke="#191970" d="M114.1448,-56.4369C162.2947,-46.7724 236.7271,-31.8326 288.0993,-21.5213"/>
<polygon fill="#191970" stroke="#191970" points="288.9361,-24.9232 298.0517,-19.5237 287.5585,-18.0601 288.9361,-24.9232"/>
</g>
<!-- Node15&#45;&gt;Node10 -->
<g id="edge23" class="edge">
<title>Node15&#45;&gt;Node10</title>
<path fill="none" stroke="#191970" d="M133.0782,-59.7479C148.6313,-58.4016 165.1394,-57.065 180.5,-56 493.933,-34.269 572.9269,-39.606 886.5,-20 900.3729,-19.1326 915.0414,-18.1322 929.3974,-17.1066"/>
<polygon fill="#191970" stroke="#191970" points="930.0578,-20.5682 939.7797,-16.3569 929.5536,-13.5863 930.0578,-20.5682"/>
</g>
<!-- Node16 -->
<g id="node17" class="node">
<title>Node16</title>
<polygon fill="#ffffff" stroke="#bfbfbf" points="8.5,-.5 8.5,-19.5 124.5,-19.5 124.5,-.5 8.5,-.5"/>
<text text-anchor="middle" x="66.5" y="-7.5" font-family="Helvetica,sans-Serif" font-size="10.00" fill="#000000">AMReX_Interpolater.H</text>
</g>
<!-- Node15&#45;&gt;Node16 -->
<g id="edge25" class="edge">
<title>Node15&#45;&gt;Node16</title>
<path fill="none" stroke="#191970" d="M66.5,-56.2455C66.5,-48.9382 66.5,-38.6944 66.5,-29.7046"/>
<polygon fill="#191970" stroke="#191970" points="70.0001,-29.6426 66.5,-19.6427 63.0001,-29.6427 70.0001,-29.6426"/>
</g>
<!-- Node17&#45;&gt;Node3 -->
<g id="edge28" class="edge">
<title>Node17&#45;&gt;Node3</title>
<path fill="none" stroke="#191970" d="M1243.5307,-112.1518C1237.639,-98.4095 1225.5288,-73.2327 1209.5,-56 1197.9059,-43.5351 1182.3286,-32.6883 1169.0086,-24.6631"/>
<polygon fill="#191970" stroke="#191970" points="1170.6315,-21.5584 1160.2244,-19.5728 1167.1218,-27.615 1170.6315,-21.5584"/>
</g>
<!-- Node17&#45;&gt;Node10 -->
<g id="edge29" class="edge">
<title>Node17&#45;&gt;Node10</title>
<path fill="none" stroke="#191970" d="M1238.6558,-112.0366C1225.4067,-97.687 1199.0089,-71.255 1171.5,-56 1143.2659,-40.3429 1109.0221,-29.3234 1080.3857,-22.0035"/>
<polygon fill="#191970" stroke="#191970" points="1081.0568,-18.5642 1070.5095,-19.5671 1079.3801,-25.3604 1081.0568,-18.5642"/>
</g>
<!-- Node17&#45;&gt;Node18 -->
<g id="edge30" class="edge">
<title>Node17&#45;&gt;Node18</title>
<path fill="none" stroke="#191970" d="M1284.2879,-112.3733C1320.5661,-102.8799 1376.1236,-88.3415 1415.3446,-78.0781"/>
<polygon fill="#191970" stroke="#191970" points="1416.404,-81.4188 1425.1921,-75.5011 1414.6318,-74.6468 1416.404,-81.4188"/>
</g>
<!-- Node19&#45;&gt;Node3 -->
<g id="edge32" class="edge">
<title>Node19&#45;&gt;Node3</title>
<path fill="none" stroke="#191970" d="M1043.403,-112.4138C1058.5835,-104.1224 1079.8719,-91.1086 1095.5,-76 1110.0225,-61.9602 1122.8176,-42.7193 1131.2021,-28.6348"/>
<polygon fill="#191970" stroke="#191970" points="1134.3121,-30.2476 1136.269,-19.8351 1128.2459,-26.7546 1134.3121,-30.2476"/>
</g>
<!-- Node19&#45;&gt;Node6 -->
<g id="edge35" class="edge">
<title>Node19&#45;&gt;Node6</title>
<path fill="none" stroke="#191970" d="M951.4388,-113.3553C878.0677,-104.1753 770.3471,-89.1979 730.5,-76 712.3826,-69.9993 710.6863,-61.7883 692.5,-56 640.8885,-39.5734 492.9123,-23.72 407.7929,-15.6058"/>
<polygon fill="#191970" stroke="#191970" points="408.0198,-12.1117 397.7348,-14.6551 407.3611,-19.0807 408.0198,-12.1117"/>
</g>
<!-- Node19&#45;&gt;Node10 -->
<g id="edge33" class="edge">
<title>Node19&#45;&gt;Node10</title>
<path fill="none" stroke="#191970" d="M1024.2442,-112.4509C1023.7549,-94.184 1022.6774,-53.9553 1022.0276,-29.6976"/>
<polygon fill="#191970" stroke="#191970" points="1025.5217,-29.4276 1021.7551,-19.5249 1018.5242,-29.6151 1025.5217,-29.4276"/>
</g>
<!-- Node19&#45;&gt;Node11 -->
<g id="edge34" class="edge">
<title>Node19&#45;&gt;Node11</title>
<path fill="none" stroke="#191970" d="M987.0245,-112.3733C949.9897,-102.8598 893.2318,-88.2797 853.2639,-78.0127"/>
<polygon fill="#191970" stroke="#191970" points="854.0429,-74.5993 843.4865,-75.5011 852.3012,-81.3792 854.0429,-74.5993"/>
</g>
<!-- Node19&#45;&gt;Node12 -->
<g id="edge36" class="edge">
<title>Node19&#45;&gt;Node12</title>
<path fill="none" stroke="#191970" d="M1021.5505,-112.3742C1016.6392,-97.9616 1005.4108,-70.881 986.5,-56 958.1012,-33.6529 919.151,-22.1564 887.152,-16.2449"/>
<polygon fill="#191970" stroke="#191970" points="887.4758,-12.7496 877.0291,-14.5152 886.2967,-19.6496 887.4758,-12.7496"/>
</g>
<!-- Node20 -->
<g id="node21" class="node">
<title>Node20</title>
<polygon fill="#ffffff" stroke="#bfbfbf" points="1261.5,-56.5 1261.5,-75.5 1389.5,-75.5 1389.5,-56.5 1261.5,-56.5"/>
<text text-anchor="middle" x="1325.5" y="-63.5" font-family="Helvetica,sans-Serif" font-size="10.00" fill="#000000">AMReX_PhysBCFunct.H</text>
</g>
<!-- Node19&#45;&gt;Node20 -->
<g id="edge37" class="edge">
<title>Node19&#45;&gt;Node20</title>
<path fill="none" stroke="#191970" d="M1075.9017,-112.4369C1128.0649,-102.7321 1208.8197,-87.708 1264.2646,-77.3926"/>
<polygon fill="#191970" stroke="#191970" points="1265.1192,-80.7938 1274.3103,-75.5237 1263.8388,-73.9119 1265.1192,-80.7938"/>
</g>
<!-- Node22&#45;&gt;Node14 -->
<g id="edge48" class="edge">
<title>Node22&#45;&gt;Node14</title>
<path fill="none" stroke="#191970" d="M1050.0354,-235.2967C1033.8619,-224.351 1012.1339,-209.6462 995.9612,-198.701"/>
<polygon fill="#191970" stroke="#191970" points="997.8619,-195.7612 987.6185,-193.055 993.9386,-201.5584 997.8619,-195.7612"/>
</g>
<!-- Node23 -->
<g id="node24" class="node">
<title>Node23</title>
<g id="a_node24"><a xlink:href="_field_b_c_ops_8_h.html" target="_top" xlink:title="amr&#45;wind/core/FieldBCOps.H">
<polygon fill="#ffffff" stroke="#000000" points="1419,-112.5 1419,-131.5 1564,-131.5 1564,-112.5 1419,-112.5"/>
<text text-anchor="middle" x="1491.5" y="-119.5" font-family="Helvetica,sans-Serif" font-size="10.00" fill="#000000">amr&#45;wind/core/FieldBCOps.H</text>
</a>
</g>
</g>
<!-- Node22&#45;&gt;Node23 -->
<g id="edge42" class="edge">
<title>Node22&#45;&gt;Node23</title>
<path fill="none" stroke="#191970" d="M1071.2185,-235.4509C1070.5308,-216.6649 1072.5432,-184.9466 1091.5,-168 1097.365,-162.757 1292.877,-142.1314 1408.3464,-130.3568"/>
<polygon fill="#191970" stroke="#191970" points="1408.9811,-133.8104 1418.5752,-129.3155 1408.2721,-126.8464 1408.9811,-133.8104"/>
</g>
<!-- Node26 -->
<g id="node27" class="node">
<title>Node26</title>
<polygon fill="#ffffff" stroke="#bfbfbf" points="1100.5,-174 1100.5,-193 1214.5,-193 1214.5,-174 1100.5,-174"/>
<text text-anchor="middle" x="1157.5" y="-181" font-family="Helvetica,sans-Serif" font-size="10.00" fill="#000000">AMReX_Orientation.H</text>
</g>
<!-- Node22&#45;&gt;Node26 -->
<g id="edge49" class="edge">
<title>Node22&#45;&gt;Node26</title>
<path fill="none" stroke="#191970" d="M1091.7878,-235.2967C1105.4169,-224.5537 1123.6402,-210.1895 1137.4388,-199.3129"/>
<polygon fill="#191970" stroke="#191970" points="1139.6911,-201.9942 1145.378,-193.055 1135.3578,-196.4967 1139.6911,-201.9942"/>
</g>
<!-- Node23&#45;&gt;Node8 -->
<g id="edge44" class="edge">
<title>Node23&#45;&gt;Node8</title>
<path fill="none" stroke="#191970" d="M1418.9677,-114.7077C1305.2893,-103.2786 1087.8095,-81.4135 987.5387,-71.3324"/>
<polygon fill="#191970" stroke="#191970" points="987.6434,-67.8254 977.3434,-70.3074 986.9431,-74.7903 987.6434,-67.8254"/>
</g>
<!-- Node23&#45;&gt;Node10 -->
<g id="edge43" class="edge">
<title>Node23&#45;&gt;Node10</title>
<path fill="none" stroke="#191970" d="M1502.6178,-112.4981C1517.4357,-98.7234 1540.0797,-73.0004 1524.5,-56 1494.9692,-23.7764 1190.2418,-24.3633 1113.3207,-19.8254"/>
<polygon fill="#191970" stroke="#191970" points="1113.5763,-16.3348 1103.3435,-19.0809 1113.0553,-23.3154 1113.5763,-16.3348"/>
</g>
<!-- Node23&#45;&gt;Node20 -->
<g id="edge47" class="edge">
<title>Node23&#45;&gt;Node20</title>
<path fill="none" stroke="#191970" d="M1462.9636,-112.3733C1435.4798,-103.1016 1393.7314,-89.0178 1363.4548,-78.804"/>
<polygon fill="#191970" stroke="#191970" points="1364.2582,-75.3813 1353.664,-75.5011 1362.0206,-82.0141 1364.2582,-75.3813"/>
</g>
<!-- Node24 -->
<g id="node25" class="node">
<title>Node24</title>
<polygon fill="#ffffff" stroke="#bfbfbf" points="1572,-56.5 1572,-75.5 1685,-75.5 1685,-56.5 1572,-56.5"/>
<text text-anchor="middle" x="1628.5" y="-63.5" font-family="Helvetica,sans-Serif" font-size="10.00" fill="#000000">AMReX_FArrayBox.H</text>
</g>
<!-- Node23&#45;&gt;Node24 -->
<g id="edge45" class="edge">
<title>Node23&#45;&gt;Node24</title>
<path fill="none" stroke="#191970" d="M1515.0511,-112.3733C1537.3391,-103.2629 1570.9937,-89.5062 1595.8637,-79.3404"/>
<polygon fill="#191970" stroke="#191970" points="1597.3239,-82.5247 1605.2562,-75.5011 1594.6753,-76.0451 1597.3239,-82.5247"/>
</g>
<!-- Node25 -->
<g id="node26" class="node">
<title>Node25</title>
<polygon fill="#ffffff" stroke="#bfbfbf" points="1703.5,-56.5 1703.5,-75.5 1813.5,-75.5 1813.5,-56.5 1703.5,-56.5"/>
<text text-anchor="middle" x="1758.5" y="-63.5" font-family="Helvetica,sans-Serif" font-size="10.00" fill="#000000">AMReX_Geometry.H</text>
</g>
<!-- Node23&#45;&gt;Node25 -->
<g id="edge46" class="edge">
<title>Node23&#45;&gt;Node25</title>
<path fill="none" stroke="#191970" d="M1537.0956,-112.4369C1583.0785,-102.7925 1654.1088,-87.8948 1703.2606,-77.5858"/>
<polygon fill="#191970" stroke="#191970" points="1704.0239,-81.0019 1713.0925,-75.5237 1702.587,-74.151 1704.0239,-81.0019"/>
</g>
</g>
</svg>
        <g id="navigator" transform="translate(0 0)" fill="#404254">
                <rect fill="#f2f5e9" fill-opacity="0.5" stroke="#606060" stroke-width=".5" x="0" y="0" width="60" height="60"/>
                <use id="zoomplus" xlink:href="#zoomPlus" x="17" y="9" onmousedown="handleZoom(evt,'in')"/>
                <use id="zoomminus" xlink:href="#zoomMin" x="42" y="9" onmousedown="handleZoom(evt,'out')"/>
                <use id="reset" xlink:href="#resetDef" x="30" y="36" onmousedown="handleReset()"/>
                <g id="arrowUp" xlink:href="#dirArrow" transform="translate(30 24)" onmousedown="handlePan(0,-1)">
                  <use xlink:href="#rim" fill="#404040">
                        <set attributeName="fill" to="#808080" begin="arrowUp.mouseover" end="arrowUp.mouseout"/>
                  </use>
                  <path fill="none" stroke="white" stroke-width="1.5" d="M0,-3.0v7 M-2.5,-0.5L0,-3.0L2.5,-0.5"/>
                </g>
                <g id="arrowRight" xlink:href="#dirArrow" transform="rotate(90) translate(36 -43)" onmousedown="handlePan(1,0)">
                  <use xlink:href="#rim" fill="#404040">
                        <set attributeName="fill" to="#808080" begin="arrowRight.mouseover" end="arrowRight.mouseout"/>
                  </use>
                  <path fill="none" stroke="white" stroke-width="1.5" d="M0,-3.0v7 M-2.5,-0.5L0,-3.0L2.5,-0.5"/>
                </g>
                <g id="arrowDown" xlink:href="#dirArrow" transform="rotate(180) translate(-30 -48)" onmousedown="handlePan(0,1)">
                  <use xlink:href="#rim" fill="#404040">
                        <set attributeName="fill" to="#808080" begin="arrowDown.mouseover" end="arrowDown.mouseout"/>
                  </use>
                  <path fill="none" stroke="white" stroke-width="1.5" d="M0,-3.0v7 M-2.5,-0.5L0,-3.0L2.5,-0.5"/>
                </g>
                <g id="arrowLeft" xlink:href="#dirArrow" transform="rotate(270) translate(-36 17)" onmousedown="handlePan(-1,0)">
                  <use xlink:href="#rim" fill="#404040">
                        <set attributeName="fill" to="#808080" begin="arrowLeft.mouseover" end="arrowLeft.mouseout"/>
                  </use>
                  <path fill="none" stroke="white" stroke-width="1.5" d="M0,-3.0v7 M-2.5,-0.5L0,-3.0L2.5,-0.5"/>
                </g>
        </g>
        <svg viewBox="0 0 15 15" width="100%" height="30px" preserveAspectRatio="xMaxYMin meet">
         <g id="arrow_out" transform="scale(0.3 0.3)">
          <a xlink:href="_b_c_interface_8cpp__incl_org.svg" target="_base">
           <rect id="button" ry="5" rx="5" y="6" x="6" height="38" width="38"
                fill="#f2f5e9" fill-opacity="0.5" stroke="#606060" stroke-width="1.0"/>
           <path id="arrow"
             d="M 11.500037,31.436501 C 11.940474,20.09759 22.043105,11.32322 32.158766,21.979434 L 37.068811,17.246167 C 37.068811,17.246167 37.088388,32 37.088388,32 L 22.160133,31.978069 C 22.160133,31.978069 26.997745,27.140456 26.997745,27.140456 C 18.528582,18.264221 13.291696,25.230495 11.500037,31.436501 z"
             style="fill:#404040;"/>
          </a>
         </g>
        </svg>
</svg>
