<?xml version="1.0" encoding="UTF-8" standalone="no"?>
<!DOCTYPE svg PUBLIC "-//W3C//DTD SVG 1.1//EN"
 "http://www.w3.org/Graphics/SVG/1.1/DTD/svg11.dtd">
<!-- Generated by graphviz version 2.40.1 (20161225.0304)
 -->
<!-- Title: BodyForce.cpp Pages: 1 -->
<!--zoomable 352 -->
<svg id="main" version="1.1" xmlns="http://www.w3.org/2000/svg" xmlns:xlink="http://www.w3.org/1999/xlink" xml:space="preserve" onload="init(evt)">
<style type="text/css"><![CDATA[
.edge:hover path { stroke: red; }
.edge:hover polygon { stroke: red; fill: red; }
]]></style>
<script type="text/javascript"><![CDATA[
var edges = document.getElementsByTagName('g');
if (edges && edges.length) {
  for (var i=0;i<edges.length;i++) {
    if (edges[i].id.substr(0,4)=='edge') {
      edges[i].setAttribute('class','edge');
    }
  }
}
]]></script>
        <defs>
                <circle id="rim" cx="0" cy="0" r="7"/>
                <circle id="rim2" cx="0" cy="0" r="3.5"/>
                <g id="zoomPlus">
                        <use xlink:href="#rim" fill="#404040">
                                <set attributeName="fill" to="#808080" begin="zoomplus.mouseover" end="zoomplus.mouseout"/>
                        </use>
                        <path d="M-4,0h8M0,-4v8" fill="none" stroke="white" stroke-width="1.5" pointer-events="none"/>
                </g>
                <g id="zoomMin">
                        <use xlink:href="#rim" fill="#404040">
                                <set attributeName="fill" to="#808080" begin="zoomminus.mouseover" end="zoomminus.mouseout"/>
                        </use>
                        <path d="M-4,0h8" fill="none" stroke="white" stroke-width="1.5" pointer-events="none"/>
                </g>
                <g id="dirArrow">
                        <path fill="none" stroke="white" stroke-width="1.5" d="M0,-3.0v7 M-2.5,-0.5L0,-3.0L2.5,-0.5"/>
                </g>
               <g id="resetDef">
                       <use xlink:href="#rim2" fill="#404040">
                               <set attributeName="fill" to="#808080" begin="reset.mouseover" end="reset.mouseout"/>
                       </use>
               </g>
        </defs>

<script type="text/javascript">
var viewWidth = 2350;
var viewHeight = 352;
var sectionId = 'dynsection-0';
</script>
<script xlink:href="svgpan.js"/>
<svg id="graph" class="graph">
<g id="viewport">
<title>BodyForce.cpp</title>
<polygon fill="#ffffff" stroke="transparent" points="-4,4 -4,-348 2346,-348 2346,4 -4,4"/>
<!-- Node0 -->
<g id="node1" class="node">
<title>Node0</title>
<polygon fill="#bfbfbf" stroke="#000000" points="2056.5,-324.5 2056.5,-343.5 2139.5,-343.5 2139.5,-324.5 2056.5,-324.5"/>
<text text-anchor="middle" x="2098" y="-331.5" font-family="Helvetica,sans-Serif" font-size="10.00" fill="#000000">BodyForce.cpp</text>
</g>
<!-- Node1 -->
<g id="node2" class="node">
<title>Node1</title>
<g id="a_node2"><a xlink:href="_body_force_8_h.html" target="_top" xlink:title="amr&#45;wind/equation_systems\l/icns/source_terms/BodyForce.H">
<polygon fill="#ffffff" stroke="#000000" points="1108.5,-257.5 1108.5,-287.5 1269.5,-287.5 1269.5,-257.5 1108.5,-257.5"/>
<text text-anchor="start" x="1116.5" y="-275.5" font-family="Helvetica,sans-Serif" font-size="10.00" fill="#000000">amr&#45;wind/equation_systems</text>
<text text-anchor="middle" x="1189" y="-264.5" font-family="Helvetica,sans-Serif" font-size="10.00" fill="#000000">/icns/source_terms/BodyForce.H</text>
</a>
</g>
</g>
<!-- Node0&#45;&gt;Node1 -->
<g id="edge1" class="edge">
<title>Node0&#45;&gt;Node1</title>
<path fill="none" stroke="#191970" d="M2056.2806,-331.1774C1918.0634,-321.8261 1472.9671,-291.7123 1279.8302,-278.6453"/>
<polygon fill="#191970" stroke="#191970" points="1279.9217,-275.1436 1269.7082,-277.9605 1279.4491,-282.1276 1279.9217,-275.1436"/>
</g>
<!-- Node17 -->
<g id="node18" class="node">
<title>Node17</title>
<polygon fill="#ffffff" stroke="#bfbfbf" points="2055.5,-.5 2055.5,-19.5 2140.5,-19.5 2140.5,-.5 2055.5,-.5"/>
<text text-anchor="middle" x="2098" y="-7.5" font-family="Helvetica,sans-Serif" font-size="10.00" fill="#000000">AMReX_Gpu.H</text>
</g>
<!-- Node0&#45;&gt;Node17 -->
<g id="edge72" class="edge">
<title>Node0&#45;&gt;Node17</title>
<path fill="none" stroke="#191970" d="M2113.1878,-324.3961C2141.1625,-305.3889 2198,-260.058 2198,-205.5 2198,-205.5 2198,-205.5 2198,-138.5 2198,-100.8735 2201.4805,-86.1725 2179,-56 2168.278,-41.6093 2151.6317,-31.0513 2136.2117,-23.7071"/>
<polygon fill="#191970" stroke="#191970" points="2137.393,-20.4022 2126.833,-19.5442 2134.5531,-26.8003 2137.393,-20.4022"/>
</g>
<!-- Node29 -->
<g id="node30" class="node">
<title>Node29</title>
<g id="a_node30"><a xlink:href="_c_f_d_sim_8_h.html" target="_top" xlink:title="amr&#45;wind/CFDSim.H">
<polygon fill="#ffffff" stroke="#000000" points="1259,-196 1259,-215 1367,-215 1367,-196 1259,-196"/>
<text text-anchor="middle" x="1313" y="-203" font-family="Helvetica,sans-Serif" font-size="10.00" fill="#000000">amr&#45;wind/CFDSim.H</text>
</a>
</g>
</g>
<!-- Node0&#45;&gt;Node29 -->
<g id="edge46" class="edge">
<title>Node0&#45;&gt;Node29</title>
<path fill="none" stroke="#191970" d="M2056.3492,-327.182C1927.1677,-306.0357 1532.6456,-241.4547 1377.0563,-215.9857"/>
<polygon fill="#191970" stroke="#191970" points="1377.5929,-212.527 1367.1588,-214.3655 1376.462,-219.435 1377.5929,-212.527"/>
</g>
<!-- Node36 -->
<g id="node37" class="node">
<title>Node36</title>
<g id="a_node37"><a xlink:href="trig__ops_8_h.html" target="_top" xlink:title="Trigonometric utilities. ">
<polygon fill="#ffffff" stroke="#000000" points="2053,-123.5 2053,-153.5 2143,-153.5 2143,-123.5 2053,-123.5"/>
<text text-anchor="start" x="2061" y="-141.5" font-family="Helvetica,sans-Serif" font-size="10.00" fill="#000000">amr&#45;wind/utilities</text>
<text text-anchor="middle" x="2098" y="-130.5" font-family="Helvetica,sans-Serif" font-size="10.00" fill="#000000">/trig_ops.H</text>
</a>
</g>
</g>
<!-- Node0&#45;&gt;Node36 -->
<g id="edge67" class="edge">
<title>Node0&#45;&gt;Node36</title>
<path fill="none" stroke="#191970" d="M2098,-324.3051C2098,-295.1129 2098,-207.3738 2098,-163.7262"/>
<polygon fill="#191970" stroke="#191970" points="2101.5001,-163.6417 2098,-153.6418 2094.5001,-163.6418 2101.5001,-163.6417"/>
</g>
<!-- Node38 -->
<g id="node39" class="node">
<title>Node38</title>
<polygon fill="#ffffff" stroke="#bfbfbf" points="2226,-263 2226,-282 2342,-282 2342,-263 2226,-263"/>
<text text-anchor="middle" x="2284" y="-270" font-family="Helvetica,sans-Serif" font-size="10.00" fill="#000000">AMReX_ParmParse.H</text>
</g>
<!-- Node0&#45;&gt;Node38 -->
<g id="edge71" class="edge">
<title>Node0&#45;&gt;Node38</title>
<path fill="none" stroke="#191970" d="M2127.0625,-324.3906C2158.8662,-313.8749 2210.0051,-296.966 2245.2144,-285.3243"/>
<polygon fill="#191970" stroke="#191970" points="2246.7459,-288.5043 2255.1416,-282.0419 2244.5483,-281.8582 2246.7459,-288.5043"/>
</g>
<!-- Node2 -->
<g id="node3" class="node">
<title>Node2</title>
<g id="a_node3"><a xlink:href="_momentum_source_8_h.html" target="_top" xlink:title="amr&#45;wind/equation_systems\l/icns/MomentumSource.H">
<polygon fill="#ffffff" stroke="#000000" points="278.5,-190.5 278.5,-220.5 417.5,-220.5 417.5,-190.5 278.5,-190.5"/>
<text text-anchor="start" x="286.5" y="-208.5" font-family="Helvetica,sans-Serif" font-size="10.00" fill="#000000">amr&#45;wind/equation_systems</text>
<text text-anchor="middle" x="348" y="-197.5" font-family="Helvetica,sans-Serif" font-size="10.00" fill="#000000">/icns/MomentumSource.H</text>
</a>
</g>
</g>
<!-- Node1&#45;&gt;Node2 -->
<g id="edge2" class="edge">
<title>Node1&#45;&gt;Node2</title>
<path fill="none" stroke="#191970" d="M1108.3614,-266.0758C947.4449,-253.256 588.1978,-224.6359 427.8947,-211.865"/>
<polygon fill="#191970" stroke="#191970" points="427.8741,-208.3523 417.6277,-211.047 427.3181,-215.3302 427.8741,-208.3523"/>
</g>
<!-- Node25 -->
<g id="node26" class="node">
<title>Node25</title>
<g id="a_node26"><a xlink:href="_sim_time_8_h.html" target="_top" xlink:title="amr&#45;wind/core/SimTime.H">
<polygon fill="#ffffff" stroke="#000000" points="1123.5,-129 1123.5,-148 1254.5,-148 1254.5,-129 1123.5,-129"/>
<text text-anchor="middle" x="1189" y="-136" font-family="Helvetica,sans-Serif" font-size="10.00" fill="#000000">amr&#45;wind/core/SimTime.H</text>
</a>
</g>
</g>
<!-- Node1&#45;&gt;Node25 -->
<g id="edge42" class="edge">
<title>Node1&#45;&gt;Node25</title>
<path fill="none" stroke="#191970" d="M1189,-257.389C1189,-233.0735 1189,-185.2644 1189,-158.2698"/>
<polygon fill="#191970" stroke="#191970" points="1192.5001,-158.1041 1189,-148.1042 1185.5001,-158.1042 1192.5001,-158.1041"/>
</g>
<!-- Node3 -->
<g id="node4" class="node">
<title>Node3</title>
<g id="a_node4"><a xlink:href="_factory_8_h.html" target="_top" xlink:title="amr&#45;wind/core/Factory.H">
<polygon fill="#ffffff" stroke="#000000" points="1676.5,-62 1676.5,-81 1801.5,-81 1801.5,-62 1676.5,-62"/>
<text text-anchor="middle" x="1739" y="-69" font-family="Helvetica,sans-Serif" font-size="10.00" fill="#000000">amr&#45;wind/core/Factory.H</text>
</a>
</g>
</g>
<!-- Node2&#45;&gt;Node3 -->
<g id="edge3" class="edge">
<title>Node2&#45;&gt;Node3</title>
<path fill="none" stroke="#191970" d="M417.5327,-205.2329C668.7781,-203.9235 1520.8068,-196.3721 1635,-154 1671.652,-140.4 1705.3936,-108.601 1723.9895,-88.6919"/>
<polygon fill="#191970" stroke="#191970" points="1726.6458,-90.973 1730.7813,-81.2186 1721.4655,-86.2651 1726.6458,-90.973"/>
</g>
<!-- Node9 -->
<g id="node10" class="node">
<title>Node9</title>
<g id="a_node10"><a xlink:href="_field_desc_types_8_h.html" target="_top" xlink:title="amr&#45;wind/core/FieldDescTypes.H">
<polygon fill="#ffffff" stroke="#000000" points="259.5,-.5 259.5,-19.5 422.5,-19.5 422.5,-.5 259.5,-.5"/>
<text text-anchor="middle" x="341" y="-7.5" font-family="Helvetica,sans-Serif" font-size="10.00" fill="#000000">amr&#45;wind/core/FieldDescTypes.H</text>
</a>
</g>
</g>
<!-- Node2&#45;&gt;Node9 -->
<g id="edge9" class="edge">
<title>Node2&#45;&gt;Node9</title>
<path fill="none" stroke="#191970" d="M278.2352,-195.0947C175.2224,-176.8936 1.3242,-133.6207 67,-56 73.3305,-48.5182 182.089,-31.992 260.6494,-20.9233"/>
<polygon fill="#191970" stroke="#191970" points="261.1365,-24.3893 270.5534,-19.5342 260.1641,-17.4572 261.1365,-24.3893"/>
</g>
<!-- Node10 -->
<g id="node11" class="node">
<title>Node10</title>
<g id="a_node11"><a xlink:href="_field_utils_8_h.html" target="_top" xlink:title="amr&#45;wind/core/FieldUtils.H">
<polygon fill="#ffffff" stroke="#000000" points="76.5,-62 76.5,-81 209.5,-81 209.5,-62 76.5,-62"/>
<text text-anchor="middle" x="143" y="-69" font-family="Helvetica,sans-Serif" font-size="10.00" fill="#000000">amr&#45;wind/core/FieldUtils.H</text>
</a>
</g>
</g>
<!-- Node2&#45;&gt;Node10 -->
<g id="edge10" class="edge">
<title>Node2&#45;&gt;Node10</title>
<path fill="none" stroke="#191970" d="M299.5212,-190.4884C275.6354,-181.8504 247.083,-169.5931 224,-154 196.9845,-135.7504 171.6438,-107.4486 156.7275,-89.1961"/>
<polygon fill="#191970" stroke="#191970" points="159.2586,-86.757 150.2807,-81.1312 153.7908,-91.1278 159.2586,-86.757"/>
</g>
<!-- Node11 -->
<g id="node12" class="node">
<title>Node11</title>
<polygon fill="#ffffff" stroke="#bfbfbf" points="441,-.5 441,-19.5 545,-19.5 545,-.5 441,-.5"/>
<text text-anchor="middle" x="493" y="-7.5" font-family="Helvetica,sans-Serif" font-size="10.00" fill="#000000">AMReX_MultiFab.H</text>
</g>
<!-- Node2&#45;&gt;Node11 -->
<g id="edge41" class="edge">
<title>Node2&#45;&gt;Node11</title>
<path fill="none" stroke="#191970" d="M326.5344,-190.3637C289.2766,-162.2859 219.9999,-100.9083 257,-56 262.5781,-49.2296 362.6113,-31.5129 430.6332,-20.1471"/>
<polygon fill="#191970" stroke="#191970" points="431.5487,-23.543 440.8387,-18.4493 430.3999,-16.6379 431.5487,-23.543"/>
</g>
<!-- Node13 -->
<g id="node14" class="node">
<title>Node13</title>
<g id="a_node14"><a xlink:href="_field_repo_8_h.html" target="_top" xlink:title="amr&#45;wind/core/FieldRepo.H">
<polygon fill="#ffffff" stroke="#000000" points="439,-129 439,-148 575,-148 575,-129 439,-129"/>
<text text-anchor="middle" x="507" y="-136" font-family="Helvetica,sans-Serif" font-size="10.00" fill="#000000">amr&#45;wind/core/FieldRepo.H</text>
</a>
</g>
</g>
<!-- Node2&#45;&gt;Node13 -->
<g id="edge14" class="edge">
<title>Node2&#45;&gt;Node13</title>
<path fill="none" stroke="#191970" d="M383.6827,-190.4639C410.9617,-178.969 448.2504,-163.2561 474.6622,-152.1266"/>
<polygon fill="#191970" stroke="#191970" points="476.3525,-155.2125 484.2086,-148.1039 473.6342,-148.7618 476.3525,-155.2125"/>
</g>
<!-- Node4 -->
<g id="node5" class="node">
<title>Node4</title>
<polygon fill="#ffffff" stroke="#bfbfbf" points="1531,-.5 1531,-19.5 1583,-19.5 1583,-.5 1531,-.5"/>
<text text-anchor="middle" x="1557" y="-7.5" font-family="Helvetica,sans-Serif" font-size="10.00" fill="#000000">memory</text>
</g>
<!-- Node3&#45;&gt;Node4 -->
<g id="edge4" class="edge">
<title>Node3&#45;&gt;Node4</title>
<path fill="none" stroke="#191970" d="M1710.5625,-61.8906C1678.8058,-51.1597 1627.3473,-33.7712 1592.8559,-22.1161"/>
<polygon fill="#191970" stroke="#191970" points="1593.7672,-18.7297 1583.173,-18.8442 1591.5263,-25.3613 1593.7672,-18.7297"/>
</g>
<!-- Node5 -->
<g id="node6" class="node">
<title>Node5</title>
<polygon fill="#ffffff" stroke="#bfbfbf" points="1361.5,-.5 1361.5,-19.5 1444.5,-19.5 1444.5,-.5 1361.5,-.5"/>
<text text-anchor="middle" x="1403" y="-7.5" font-family="Helvetica,sans-Serif" font-size="10.00" fill="#000000">unordered_map</text>
</g>
<!-- Node3&#45;&gt;Node5 -->
<g id="edge5" class="edge">
<title>Node3&#45;&gt;Node5</title>
<path fill="none" stroke="#191970" d="M1692.6154,-61.9844C1682.5311,-59.9655 1671.9145,-57.8781 1662,-56 1590.2765,-42.4136 1507.1454,-27.86 1454.8147,-18.8438"/>
<polygon fill="#191970" stroke="#191970" points="1455.2203,-15.3622 1444.7717,-17.1163 1454.0336,-22.2609 1455.2203,-15.3622"/>
</g>
<!-- Node6 -->
<g id="node7" class="node">
<title>Node6</title>
<polygon fill="#ffffff" stroke="#bfbfbf" points="1615,-.5 1615,-19.5 1669,-19.5 1669,-.5 1615,-.5"/>
<text text-anchor="middle" x="1642" y="-7.5" font-family="Helvetica,sans-Serif" font-size="10.00" fill="#000000">iostream</text>
</g>
<!-- Node3&#45;&gt;Node6 -->
<g id="edge6" class="edge">
<title>Node3&#45;&gt;Node6</title>
<path fill="none" stroke="#191970" d="M1723.8438,-61.8906C1708.3257,-52.0519 1683.9807,-36.6167 1665.8716,-25.1351"/>
<polygon fill="#191970" stroke="#191970" points="1667.3696,-21.9407 1657.0498,-19.5419 1663.6213,-27.8526 1667.3696,-21.9407"/>
</g>
<!-- Node7 -->
<g id="node8" class="node">
<title>Node7</title>
<polygon fill="#ffffff" stroke="#bfbfbf" points="1687.5,-.5 1687.5,-19.5 1774.5,-19.5 1774.5,-.5 1687.5,-.5"/>
<text text-anchor="middle" x="1731" y="-7.5" font-family="Helvetica,sans-Serif" font-size="10.00" fill="#000000">AMReX_Print.H</text>
</g>
<!-- Node3&#45;&gt;Node7 -->
<g id="edge7" class="edge">
<title>Node3&#45;&gt;Node7</title>
<path fill="none" stroke="#191970" d="M1737.75,-61.8906C1736.6411,-53.3657 1734.9856,-40.6392 1733.5917,-29.9235"/>
<polygon fill="#191970" stroke="#191970" points="1737.0284,-29.2098 1732.2676,-19.7449 1730.0869,-30.1128 1737.0284,-29.2098"/>
</g>
<!-- Node8 -->
<g id="node9" class="node">
<title>Node8</title>
<polygon fill="#ffffff" stroke="#bfbfbf" points="1793,-.5 1793,-19.5 1855,-19.5 1855,-.5 1793,-.5"/>
<text text-anchor="middle" x="1824" y="-7.5" font-family="Helvetica,sans-Serif" font-size="10.00" fill="#000000">AMReX.H</text>
</g>
<!-- Node3&#45;&gt;Node8 -->
<g id="edge8" class="edge">
<title>Node3&#45;&gt;Node8</title>
<path fill="none" stroke="#191970" d="M1752.2813,-61.8906C1765.7548,-52.1421 1786.822,-36.8994 1802.6435,-25.4521"/>
<polygon fill="#191970" stroke="#191970" points="1804.7619,-28.2394 1810.812,-19.5419 1800.6586,-22.5682 1804.7619,-28.2394"/>
</g>
<!-- Node10&#45;&gt;Node9 -->
<g id="edge11" class="edge">
<title>Node10&#45;&gt;Node9</title>
<path fill="none" stroke="#191970" d="M173.9375,-61.8906C208.0837,-51.2846 263.1674,-34.1753 300.6735,-22.5257"/>
<polygon fill="#191970" stroke="#191970" points="301.768,-25.8507 310.2797,-19.5419 299.6916,-19.1658 301.768,-25.8507"/>
</g>
<!-- Node10&#45;&gt;Node11 -->
<g id="edge12" class="edge">
<title>Node10&#45;&gt;Node11</title>
<path fill="none" stroke="#191970" d="M192.2308,-61.9185C202.71,-59.9241 213.7155,-57.8632 224,-56 294.8804,-43.1591 376.4491,-29.3458 431.0103,-20.2442"/>
<polygon fill="#191970" stroke="#191970" points="431.5862,-23.6966 440.8751,-18.6009 430.4359,-16.7917 431.5862,-23.6966"/>
</g>
<!-- Node12 -->
<g id="node13" class="node">
<title>Node12</title>
<polygon fill="#ffffff" stroke="#bfbfbf" points="0,-.5 0,-19.5 116,-19.5 116,-.5 0,-.5"/>
<text text-anchor="middle" x="58" y="-7.5" font-family="Helvetica,sans-Serif" font-size="10.00" fill="#000000">AMReX_Interpolater.H</text>
</g>
<!-- Node10&#45;&gt;Node12 -->
<g id="edge13" class="edge">
<title>Node10&#45;&gt;Node12</title>
<path fill="none" stroke="#191970" d="M129.7188,-61.8906C116.2452,-52.1421 95.178,-36.8994 79.3565,-25.4521"/>
<polygon fill="#191970" stroke="#191970" points="81.3414,-22.5682 71.188,-19.5419 77.2381,-28.2394 81.3414,-22.5682"/>
</g>
<!-- Node13&#45;&gt;Node5 -->
<g id="edge16" class="edge">
<title>Node13&#45;&gt;Node5</title>
<path fill="none" stroke="#191970" d="M575.1759,-130.8312C650.7686,-121.6293 767.4069,-105.1536 808,-87 828.2129,-77.9606 826.4135,-64.1528 847,-56 893.1956,-37.7053 1222.5437,-19.1852 1351.452,-12.5546"/>
<polygon fill="#191970" stroke="#191970" points="1351.6661,-16.0483 1361.4743,-12.0423 1351.3087,-9.0575 1351.6661,-16.0483"/>
</g>
<!-- Node13&#45;&gt;Node9 -->
<g id="edge17" class="edge">
<title>Node13&#45;&gt;Node9</title>
<path fill="none" stroke="#191970" d="M494.523,-128.8416C466.1629,-106.8881 396.6195,-53.0549 361.7059,-26.0283"/>
<polygon fill="#191970" stroke="#191970" points="363.6718,-23.1241 353.6218,-19.7705 359.3869,-28.6594 363.6718,-23.1241"/>
</g>
<!-- Node13&#45;&gt;Node10 -->
<g id="edge18" class="edge">
<title>Node13&#45;&gt;Node10</title>
<path fill="none" stroke="#191970" d="M455.2342,-128.9717C389.2897,-116.8335 275.442,-95.8781 204.9557,-82.9039"/>
<polygon fill="#191970" stroke="#191970" points="205.3499,-79.4178 194.8815,-81.0496 204.0827,-86.3021 205.3499,-79.4178"/>
</g>
<!-- Node13&#45;&gt;Node11 -->
<g id="edge39" class="edge">
<title>Node13&#45;&gt;Node11</title>
<path fill="none" stroke="#191970" d="M498.5286,-128.6682C490.6838,-118.8622 479.5641,-102.9932 475,-87 469.3754,-67.2907 476.4332,-44.3814 483.2939,-28.7078"/>
<polygon fill="#191970" stroke="#191970" points="486.5103,-30.0939 487.6387,-19.5593 480.1871,-27.0909 486.5103,-30.0939"/>
</g>
<!-- Node14 -->
<g id="node15" class="node">
<title>Node14</title>
<polygon fill="#ffffff" stroke="#bfbfbf" points="709.5,-.5 709.5,-19.5 750.5,-19.5 750.5,-.5 709.5,-.5"/>
<text text-anchor="middle" x="730" y="-7.5" font-family="Helvetica,sans-Serif" font-size="10.00" fill="#000000">string</text>
</g>
<!-- Node13&#45;&gt;Node14 -->
<g id="edge15" class="edge">
<title>Node13&#45;&gt;Node14</title>
<path fill="none" stroke="#191970" d="M540.1221,-128.9466C567.6933,-120.2196 607.403,-105.8168 639,-87 642.9711,-84.6351 685.723,-48.0665 711.1907,-26.1881"/>
<polygon fill="#191970" stroke="#191970" points="713.4796,-28.8359 718.781,-19.6628 708.9163,-23.5278 713.4796,-28.8359"/>
</g>
<!-- Node15 -->
<g id="node16" class="node">
<title>Node15</title>
<g id="a_node16"><a xlink:href="_field_8_h.html" target="_top" xlink:title="amr&#45;wind/core/Field.H">
<polygon fill="#ffffff" stroke="#000000" points="686.5,-62 686.5,-81 799.5,-81 799.5,-62 686.5,-62"/>
<text text-anchor="middle" x="743" y="-69" font-family="Helvetica,sans-Serif" font-size="10.00" fill="#000000">amr&#45;wind/core/Field.H</text>
</a>
</g>
</g>
<!-- Node13&#45;&gt;Node15 -->
<g id="edge19" class="edge">
<title>Node13&#45;&gt;Node15</title>
<path fill="none" stroke="#191970" d="M540.5624,-128.9717C582.2946,-117.124 653.6164,-96.8758 699.503,-83.8487"/>
<polygon fill="#191970" stroke="#191970" points="700.5073,-87.202 709.1713,-81.1039 698.5955,-80.4681 700.5073,-87.202"/>
</g>
<!-- Node19 -->
<g id="node20" class="node">
<title>Node19</title>
<g id="a_node20"><a xlink:href="_int_field_8_h.html" target="_top" xlink:title="amr&#45;wind/core/IntField.H">
<polygon fill="#ffffff" stroke="#000000" points="266,-62 266,-81 390,-81 390,-62 266,-62"/>
<text text-anchor="middle" x="328" y="-69" font-family="Helvetica,sans-Serif" font-size="10.00" fill="#000000">amr&#45;wind/core/IntField.H</text>
</a>
</g>
</g>
<!-- Node13&#45;&gt;Node19 -->
<g id="edge28" class="edge">
<title>Node13&#45;&gt;Node19</title>
<path fill="none" stroke="#191970" d="M481.3537,-128.9005C450.383,-117.3082 398.1268,-97.7486 363.3494,-84.7313"/>
<polygon fill="#191970" stroke="#191970" points="364.1912,-81.3093 353.5988,-81.0817 361.7373,-87.8651 364.1912,-81.3093"/>
</g>
<!-- Node20 -->
<g id="node21" class="node">
<title>Node20</title>
<polygon fill="#ffffff" stroke="#bfbfbf" points="134.5,-.5 134.5,-19.5 241.5,-19.5 241.5,-.5 134.5,-.5"/>
<text text-anchor="middle" x="188" y="-7.5" font-family="Helvetica,sans-Serif" font-size="10.00" fill="#000000">AMReX_iMultiFab.H</text>
</g>
<!-- Node13&#45;&gt;Node20 -->
<g id="edge40" class="edge">
<title>Node13&#45;&gt;Node20</title>
<path fill="none" stroke="#191970" d="M438.7217,-135.4143C321.2858,-129.4012 91.2525,-114.2567 67,-87 40.8405,-57.6 93.0999,-35.1531 136.9218,-22.2798"/>
<polygon fill="#191970" stroke="#191970" points="138.0093,-25.6096 146.6822,-19.5243 136.1074,-18.8729 138.0093,-25.6096"/>
</g>
<!-- Node21 -->
<g id="node22" class="node">
<title>Node21</title>
<g id="a_node22"><a xlink:href="_scratch_field_8_h.html" target="_top" xlink:title="amr&#45;wind/core/ScratchField.H">
<polygon fill="#ffffff" stroke="#000000" points="484,-62 484,-81 630,-81 630,-62 484,-62"/>
<text text-anchor="middle" x="557" y="-69" font-family="Helvetica,sans-Serif" font-size="10.00" fill="#000000">amr&#45;wind/core/ScratchField.H</text>
</a>
</g>
</g>
<!-- Node13&#45;&gt;Node21 -->
<g id="edge32" class="edge">
<title>Node13&#45;&gt;Node21</title>
<path fill="none" stroke="#191970" d="M514.1638,-128.9005C521.8866,-118.552 534.3476,-101.8542 543.8437,-89.1295"/>
<polygon fill="#191970" stroke="#191970" points="546.6736,-91.1893 549.8495,-81.0817 541.0636,-87.0027 546.6736,-91.1893"/>
</g>
<!-- Node24 -->
<g id="node25" class="node">
<title>Node24</title>
<polygon fill="#ffffff" stroke="#bfbfbf" points="856,-62 856,-81 962,-81 962,-62 856,-62"/>
<text text-anchor="middle" x="909" y="-69" font-family="Helvetica,sans-Serif" font-size="10.00" fill="#000000">AMReX_AmrCore.H</text>
</g>
<!-- Node13&#45;&gt;Node24 -->
<g id="edge38" class="edge">
<title>Node13&#45;&gt;Node24</title>
<path fill="none" stroke="#191970" d="M575.2675,-129.5298C643.1452,-120.2527 750.1223,-104.6642 842,-87 847.8586,-85.8736 853.9827,-84.5965 860.0455,-83.2702"/>
<polygon fill="#191970" stroke="#191970" points="861.1405,-86.6118 870.1333,-81.01 859.6099,-79.7811 861.1405,-86.6118"/>
</g>
<!-- Node15&#45;&gt;Node4 -->
<g id="edge21" class="edge">
<title>Node15&#45;&gt;Node4</title>
<path fill="none" stroke="#191970" d="M799.559,-62.1404C814.9164,-59.8534 831.5665,-57.6053 847,-56 1115.3603,-28.0864 1184.0037,-40.9155 1453,-20 1475.534,-18.2479 1500.7708,-15.8323 1520.7407,-13.8142"/>
<polygon fill="#191970" stroke="#191970" points="1521.3589,-17.2693 1530.9512,-12.7707 1520.6472,-10.3056 1521.3589,-17.2693"/>
</g>
<!-- Node15&#45;&gt;Node5 -->
<g id="edge22" class="edge">
<title>Node15&#45;&gt;Node5</title>
<path fill="none" stroke="#191970" d="M782.2561,-61.9249C792.5347,-59.6945 803.6402,-57.528 814,-56 917.0337,-40.8031 1227.2558,-20.7693 1351.108,-13.1361"/>
<polygon fill="#191970" stroke="#191970" points="1351.686,-16.6073 1361.4526,-12.5007 1351.2568,-9.6204 1351.686,-16.6073"/>
</g>
<!-- Node15&#45;&gt;Node9 -->
<g id="edge27" class="edge">
<title>Node15&#45;&gt;Node9</title>
<path fill="none" stroke="#191970" d="M686.2558,-62.819C614.7963,-51.8867 491.9224,-33.0889 413.6632,-21.1164"/>
<polygon fill="#191970" stroke="#191970" points="413.815,-17.599 403.4007,-19.5464 412.7564,-24.5185 413.815,-17.599"/>
</g>
<!-- Node15&#45;&gt;Node11 -->
<g id="edge23" class="edge">
<title>Node15&#45;&gt;Node11</title>
<path fill="none" stroke="#191970" d="M704.2118,-61.9581C660.4216,-51.1857 589.1091,-33.6428 541.6304,-21.9631"/>
<polygon fill="#191970" stroke="#191970" points="542.4258,-18.5545 531.8792,-19.5643 540.7536,-25.3518 542.4258,-18.5545"/>
</g>
<!-- Node15&#45;&gt;Node14 -->
<g id="edge20" class="edge">
<title>Node15&#45;&gt;Node14</title>
<path fill="none" stroke="#191970" d="M740.9688,-61.8906C739.1478,-53.276 736.4198,-40.3708 734.1401,-29.5858"/>
<polygon fill="#191970" stroke="#191970" points="737.5524,-28.8048 732.0599,-19.7449 730.7038,-30.2525 737.5524,-28.8048"/>
</g>
<!-- Node16 -->
<g id="node17" class="node">
<title>Node16</title>
<polygon fill="#ffffff" stroke="#bfbfbf" points="881.5,-.5 881.5,-19.5 980.5,-19.5 980.5,-.5 881.5,-.5"/>
<text text-anchor="middle" x="931" y="-7.5" font-family="Helvetica,sans-Serif" font-size="10.00" fill="#000000">AMReX_BCRec.H</text>
</g>
<!-- Node15&#45;&gt;Node16 -->
<g id="edge24" class="edge">
<title>Node15&#45;&gt;Node16</title>
<path fill="none" stroke="#191970" d="M772.375,-61.8906C804.6586,-51.3298 856.6535,-34.3208 892.2547,-22.6747"/>
<polygon fill="#191970" stroke="#191970" points="893.4151,-25.9776 901.8313,-19.5419 891.2387,-19.3246 893.4151,-25.9776"/>
</g>
<!-- Node15&#45;&gt;Node17 -->
<g id="edge25" class="edge">
<title>Node15&#45;&gt;Node17</title>
<path fill="none" stroke="#191970" d="M798.7209,-61.9924C814.302,-59.6619 831.2742,-57.429 847,-56 1325.7384,-12.4977 1447.7982,-42.1159 1928,-20 1967.3443,-18.188 2011.7764,-15.5538 2045.3466,-13.4439"/>
<polygon fill="#191970" stroke="#191970" points="2045.6397,-16.9325 2055.3985,-12.8074 2045.1973,-9.9465 2045.6397,-16.9325"/>
</g>
<!-- Node18 -->
<g id="node19" class="node">
<title>Node18</title>
<g id="a_node19"><a xlink:href="incflo__enums_8_h.html" target="_top" xlink:title="amr&#45;wind/incflo_enums.H">
<polygon fill="#ffffff" stroke="#000000" points="1080,-.5 1080,-19.5 1208,-19.5 1208,-.5 1080,-.5"/>
<text text-anchor="middle" x="1144" y="-7.5" font-family="Helvetica,sans-Serif" font-size="10.00" fill="#000000">amr&#45;wind/incflo_enums.H</text>
</a>
</g>
</g>
<!-- Node15&#45;&gt;Node18 -->
<g id="edge26" class="edge">
<title>Node15&#45;&gt;Node18</title>
<path fill="none" stroke="#191970" d="M784.1919,-61.9492C793.9367,-59.8448 804.3122,-57.7301 814,-56 901.4752,-40.3785 1002.7924,-26.9414 1069.8429,-18.6921"/>
<polygon fill="#191970" stroke="#191970" points="1070.3904,-22.1513 1079.8915,-17.463 1069.5405,-15.203 1070.3904,-22.1513"/>
</g>
<!-- Node19&#45;&gt;Node9 -->
<g id="edge30" class="edge">
<title>Node19&#45;&gt;Node9</title>
<path fill="none" stroke="#191970" d="M330.0313,-61.8906C331.8522,-53.276 334.5802,-40.3708 336.8599,-29.5858"/>
<polygon fill="#191970" stroke="#191970" points="340.2962,-30.2525 338.9401,-19.7449 333.4476,-28.8048 340.2962,-30.2525"/>
</g>
<!-- Node19&#45;&gt;Node14 -->
<g id="edge29" class="edge">
<title>Node19&#45;&gt;Node14</title>
<path fill="none" stroke="#191970" d="M390.2841,-64.2879C476.1511,-54.1153 627.4988,-35.3035 699.4621,-19.6734"/>
<polygon fill="#191970" stroke="#191970" points="700.5126,-23.0239 709.4864,-17.3918 698.959,-16.1985 700.5126,-23.0239"/>
</g>
<!-- Node19&#45;&gt;Node20 -->
<g id="edge31" class="edge">
<title>Node19&#45;&gt;Node20</title>
<path fill="none" stroke="#191970" d="M306.125,-61.8906C282.7004,-51.6005 245.3404,-35.1888 218.9159,-23.5809"/>
<polygon fill="#191970" stroke="#191970" points="220.2846,-20.3594 209.7214,-19.5419 217.4693,-26.7683 220.2846,-20.3594"/>
</g>
<!-- Node21&#45;&gt;Node9 -->
<g id="edge34" class="edge">
<title>Node21&#45;&gt;Node9</title>
<path fill="none" stroke="#191970" d="M523.25,-61.8906C485.7619,-51.2169 425.1403,-33.9566 384.2114,-22.3033"/>
<polygon fill="#191970" stroke="#191970" points="385.0892,-18.9141 374.513,-19.5419 383.1723,-25.6466 385.0892,-18.9141"/>
</g>
<!-- Node21&#45;&gt;Node11 -->
<g id="edge35" class="edge">
<title>Node21&#45;&gt;Node11</title>
<path fill="none" stroke="#191970" d="M547,-61.8906C537.2881,-52.5581 522.3361,-38.1902 510.6259,-26.9374"/>
<polygon fill="#191970" stroke="#191970" points="512.7766,-24.15 503.141,-19.7449 507.9264,-29.1974 512.7766,-24.15"/>
</g>
<!-- Node21&#45;&gt;Node14 -->
<g id="edge33" class="edge">
<title>Node21&#45;&gt;Node14</title>
<path fill="none" stroke="#191970" d="M584.0313,-61.8906C615.466,-50.7159 667.2093,-32.3215 699.8997,-20.7004"/>
<polygon fill="#191970" stroke="#191970" points="701.1397,-23.9742 709.3897,-17.3268 698.795,-17.3786 701.1397,-23.9742"/>
</g>
<!-- Node22 -->
<g id="node23" class="node">
<title>Node22</title>
<polygon fill="#ffffff" stroke="#bfbfbf" points="768.5,-.5 768.5,-19.5 863.5,-19.5 863.5,-.5 768.5,-.5"/>
<text text-anchor="middle" x="816" y="-7.5" font-family="Helvetica,sans-Serif" font-size="10.00" fill="#000000">AMReX_Vector.H</text>
</g>
<!-- Node21&#45;&gt;Node22 -->
<g id="edge36" class="edge">
<title>Node21&#45;&gt;Node22</title>
<path fill="none" stroke="#191970" d="M597.1846,-61.9581C642.6461,-51.1632 716.7402,-33.5694 765.9273,-21.8899"/>
<polygon fill="#191970" stroke="#191970" points="766.8003,-25.28 775.7212,-19.5643 765.1831,-18.4693 766.8003,-25.28"/>
</g>
<!-- Node23 -->
<g id="node24" class="node">
<title>Node23</title>
<polygon fill="#ffffff" stroke="#bfbfbf" points="563,-.5 563,-19.5 691,-19.5 691,-.5 563,-.5"/>
<text text-anchor="middle" x="627" y="-7.5" font-family="Helvetica,sans-Serif" font-size="10.00" fill="#000000">AMReX_PhysBCFunct.H</text>
</g>
<!-- Node21&#45;&gt;Node23 -->
<g id="edge37" class="edge">
<title>Node21&#45;&gt;Node23</title>
<path fill="none" stroke="#191970" d="M567.9375,-61.8906C578.662,-52.4683 595.2287,-37.9134 608.0901,-26.6137"/>
<polygon fill="#191970" stroke="#191970" points="610.7059,-28.9745 615.9083,-19.7449 606.0857,-23.7158 610.7059,-28.9745"/>
</g>
<!-- Node26 -->
<g id="node27" class="node">
<title>Node26</title>
<polygon fill="#ffffff" stroke="#bfbfbf" points="1976.5,-62 1976.5,-81 2069.5,-81 2069.5,-62 1976.5,-62"/>
<text text-anchor="middle" x="2023" y="-69" font-family="Helvetica,sans-Serif" font-size="10.00" fill="#000000">AMReX_REAL.H</text>
</g>
<!-- Node25&#45;&gt;Node26 -->
<g id="edge43" class="edge">
<title>Node25&#45;&gt;Node26</title>
<path fill="none" stroke="#191970" d="M1234.0634,-128.9576C1246.3199,-126.6709 1259.6269,-124.4687 1272,-123 1579.5874,-86.4887 1662.3682,-137.3223 1968,-87 1973.1896,-86.1455 1978.5885,-84.9802 1983.8875,-83.6695"/>
<polygon fill="#191970" stroke="#191970" points="1985.1092,-86.9663 1993.8732,-81.013 1983.3095,-80.2016 1985.1092,-86.9663"/>
</g>
<!-- Node27 -->
<g id="node28" class="node">
<title>Node27</title>
<polygon fill="#ffffff" stroke="#bfbfbf" points="980,-62 980,-81 1106,-81 1106,-62 980,-62"/>
<text text-anchor="middle" x="1043" y="-69" font-family="Helvetica,sans-Serif" font-size="10.00" fill="#000000">AMReX_GpuQualifiers.H</text>
</g>
<!-- Node25&#45;&gt;Node27 -->
<g id="edge44" class="edge">
<title>Node25&#45;&gt;Node27</title>
<path fill="none" stroke="#191970" d="M1168.0818,-128.9005C1143.2544,-117.5072 1101.6567,-98.4178 1073.3058,-85.4075"/>
<polygon fill="#191970" stroke="#191970" points="1074.4279,-82.0715 1063.8794,-81.0817 1071.5083,-88.4336 1074.4279,-82.0715"/>
</g>
<!-- Node28 -->
<g id="node29" class="node">
<title>Node28</title>
<polygon fill="#ffffff" stroke="#bfbfbf" points="1124,-62 1124,-81 1234,-81 1234,-62 1124,-62"/>
<text text-anchor="middle" x="1179" y="-69" font-family="Helvetica,sans-Serif" font-size="10.00" fill="#000000">AMReX_Extension.H</text>
</g>
<!-- Node25&#45;&gt;Node28 -->
<g id="edge45" class="edge">
<title>Node25&#45;&gt;Node28</title>
<path fill="none" stroke="#191970" d="M1187.5672,-128.9005C1186.0969,-119.0495 1183.7679,-103.4451 1181.9091,-90.9912"/>
<polygon fill="#191970" stroke="#191970" points="1185.368,-90.4554 1180.4301,-81.0817 1178.4447,-91.4888 1185.368,-90.4554"/>
</g>
<!-- Node29&#45;&gt;Node13 -->
<g id="edge49" class="edge">
<title>Node29&#45;&gt;Node13</title>
<path fill="none" stroke="#191970" d="M1258.8645,-200.9999C1119.5915,-189.4226 748.4232,-158.5687 585.5122,-145.0265"/>
<polygon fill="#191970" stroke="#191970" points="585.343,-141.5004 575.0874,-144.1599 584.7631,-148.4763 585.343,-141.5004"/>
</g>
<!-- Node29&#45;&gt;Node24 -->
<g id="edge47" class="edge">
<title>Node29&#45;&gt;Node24</title>
<path fill="none" stroke="#191970" d="M1269.4436,-195.941C1228.8105,-186.6214 1166.712,-171.3468 1114,-154 1050.842,-133.2156 979.2422,-102.761 939.5781,-85.2558"/>
<polygon fill="#191970" stroke="#191970" points="940.7669,-81.9543 930.2067,-81.0981 937.9281,-88.3528 940.7669,-81.9543"/>
</g>
<!-- Node29&#45;&gt;Node25 -->
<g id="edge48" class="edge">
<title>Node29&#45;&gt;Node25</title>
<path fill="none" stroke="#191970" d="M1295.2338,-195.9005C1274.4238,-184.6564 1239.7412,-165.9166 1215.6913,-152.9219"/>
<polygon fill="#191970" stroke="#191970" points="1217.1949,-149.7561 1206.7332,-148.0817 1213.8673,-155.9147 1217.1949,-149.7561"/>
</g>
<!-- Node30 -->
<g id="node31" class="node">
<title>Node30</title>
<g id="a_node31"><a xlink:href="_p_d_e_base_8_h.html" target="_top" xlink:title="amr&#45;wind/equation_systems\l/PDEBase.H">
<polygon fill="#ffffff" stroke="#000000" points="1487.5,-123.5 1487.5,-153.5 1626.5,-153.5 1626.5,-123.5 1487.5,-123.5"/>
<text text-anchor="start" x="1495.5" y="-141.5" font-family="Helvetica,sans-Serif" font-size="10.00" fill="#000000">amr&#45;wind/equation_systems</text>
<text text-anchor="middle" x="1557" y="-130.5" font-family="Helvetica,sans-Serif" font-size="10.00" fill="#000000">/PDEBase.H</text>
</a>
</g>
</g>
<!-- Node29&#45;&gt;Node30 -->
<g id="edge50" class="edge">
<title>Node29&#45;&gt;Node30</title>
<path fill="none" stroke="#191970" d="M1347.7001,-195.9717C1385.2871,-185.6507 1446.0904,-168.9547 1492.5002,-156.211"/>
<polygon fill="#191970" stroke="#191970" points="1493.4553,-159.5784 1502.1716,-153.5553 1491.6017,-152.8282 1493.4553,-159.5784"/>
</g>
<!-- Node34 -->
<g id="node35" class="node">
<title>Node34</title>
<g id="a_node35"><a xlink:href="_physics_8_h.html" target="_top" xlink:title="amr&#45;wind/core/Physics.H">
<polygon fill="#ffffff" stroke="#000000" points="1281.5,-129 1281.5,-148 1408.5,-148 1408.5,-129 1281.5,-129"/>
<text text-anchor="middle" x="1345" y="-136" font-family="Helvetica,sans-Serif" font-size="10.00" fill="#000000">amr&#45;wind/core/Physics.H</text>
</a>
</g>
</g>
<!-- Node29&#45;&gt;Node34 -->
<g id="edge62" class="edge">
<title>Node29&#45;&gt;Node34</title>
<path fill="none" stroke="#191970" d="M1317.5848,-195.9005C1322.3848,-185.8505 1330.0449,-169.8122 1336.0494,-157.2403"/>
<polygon fill="#191970" stroke="#191970" points="1339.2721,-158.6137 1340.4237,-148.0817 1332.9556,-155.5968 1339.2721,-158.6137"/>
</g>
<!-- Node30&#45;&gt;Node3 -->
<g id="edge52" class="edge">
<title>Node30&#45;&gt;Node3</title>
<path fill="none" stroke="#191970" d="M1597.8444,-123.4639C1629.5762,-111.7824 1673.1407,-95.7449 1703.4466,-84.5884"/>
<polygon fill="#191970" stroke="#191970" points="1705.0045,-87.7445 1713.1797,-81.0053 1702.5862,-81.1755 1705.0045,-87.7445"/>
</g>
<!-- Node30&#45;&gt;Node9 -->
<g id="edge60" class="edge">
<title>Node30&#45;&gt;Node9</title>
<path fill="none" stroke="#191970" d="M1514.5396,-123.4292C1492.0398,-114.4893 1464.4853,-101.9771 1442,-87 1425.2521,-75.8444 1427.5697,-63.7527 1409,-56 1311.3015,-15.2116 578.9292,-27.2738 433.0152,-19.8932"/>
<polygon fill="#191970" stroke="#191970" points="433.0203,-16.3872 422.8268,-19.2755 432.5966,-23.3744 433.0203,-16.3872"/>
</g>
<!-- Node30&#45;&gt;Node14 -->
<g id="edge51" class="edge">
<title>Node30&#45;&gt;Node14</title>
<path fill="none" stroke="#191970" d="M1535.8769,-123.4224C1521.5199,-113.1667 1502.1021,-99.281 1485,-87 1465.8632,-73.2579 1464.2217,-63.8268 1442,-56 1301.5837,-6.5431 924.0961,-47.3099 760.6959,-19.744"/>
<polygon fill="#191970" stroke="#191970" points="761.1843,-16.2754 750.7181,-17.9212 759.9263,-23.1614 761.1843,-16.2754"/>
</g>
<!-- Node30&#45;&gt;Node18 -->
<g id="edge61" class="edge">
<title>Node30&#45;&gt;Node18</title>
<path fill="none" stroke="#191970" d="M1585.4885,-123.3816C1613.4195,-106.6712 1648.9784,-79.0667 1628,-56 1614.405,-41.0516 1350.2863,-22.7254 1218.0801,-14.4408"/>
<polygon fill="#191970" stroke="#191970" points="1218.2211,-10.9429 1208.0227,-13.814 1217.7856,-17.9293 1218.2211,-10.9429"/>
</g>
<!-- Node31 -->
<g id="node32" class="node">
<title>Node31</title>
<g id="a_node32"><a xlink:href="_coll_mgr_8_h.html" target="_top" xlink:title="amr&#45;wind/core/CollMgr.H">
<polygon fill="#ffffff" stroke="#000000" points="1494.5,-62 1494.5,-81 1619.5,-81 1619.5,-62 1494.5,-62"/>
<text text-anchor="middle" x="1557" y="-69" font-family="Helvetica,sans-Serif" font-size="10.00" fill="#000000">amr&#45;wind/core/CollMgr.H</text>
</a>
</g>
</g>
<!-- Node30&#45;&gt;Node31 -->
<g id="edge53" class="edge">
<title>Node30&#45;&gt;Node31</title>
<path fill="none" stroke="#191970" d="M1557,-123.2967C1557,-113.7699 1557,-101.3954 1557,-91.1306"/>
<polygon fill="#191970" stroke="#191970" points="1560.5001,-91.0549 1557,-81.055 1553.5001,-91.055 1560.5001,-91.0549"/>
</g>
<!-- Node32 -->
<g id="node33" class="node">
<title>Node32</title>
<g id="a_node33"><a xlink:href="_p_d_e_fields_8_h.html" target="_top" xlink:title="amr&#45;wind/equation_systems\l/PDEFields.H">
<polygon fill="#ffffff" stroke="#000000" points="1819.5,-56.5 1819.5,-86.5 1958.5,-86.5 1958.5,-56.5 1819.5,-56.5"/>
<text text-anchor="start" x="1827.5" y="-74.5" font-family="Helvetica,sans-Serif" font-size="10.00" fill="#000000">amr&#45;wind/equation_systems</text>
<text text-anchor="middle" x="1889" y="-63.5" font-family="Helvetica,sans-Serif" font-size="10.00" fill="#000000">/PDEFields.H</text>
</a>
</g>
</g>
<!-- Node30&#45;&gt;Node32 -->
<g id="edge58" class="edge">
<title>Node30&#45;&gt;Node32</title>
<path fill="none" stroke="#191970" d="M1626.5981,-124.4546C1680.0512,-113.6674 1753.9127,-98.7616 1809.6569,-87.512"/>
<polygon fill="#191970" stroke="#191970" points="1810.3836,-90.936 1819.4935,-85.5269 1808.9988,-84.0743 1810.3836,-90.936"/>
</g>
<!-- Node31&#45;&gt;Node4 -->
<g id="edge55" class="edge">
<title>Node31&#45;&gt;Node4</title>
<path fill="none" stroke="#191970" d="M1557,-61.8906C1557,-53.3657 1557,-40.6392 1557,-29.9235"/>
<polygon fill="#191970" stroke="#191970" points="1560.5001,-29.7448 1557,-19.7449 1553.5001,-29.7449 1560.5001,-29.7448"/>
</g>
<!-- Node31&#45;&gt;Node5 -->
<g id="edge56" class="edge">
<title>Node31&#45;&gt;Node5</title>
<path fill="none" stroke="#191970" d="M1532.9375,-61.8906C1506.9444,-51.5103 1465.3522,-34.9004 1436.2453,-23.2766"/>
<polygon fill="#191970" stroke="#191970" points="1437.4785,-20.0003 1426.8935,-19.5419 1434.8823,-26.5011 1437.4785,-20.0003"/>
</g>
<!-- Node31&#45;&gt;Node14 -->
<g id="edge54" class="edge">
<title>Node31&#45;&gt;Node14</title>
<path fill="none" stroke="#191970" d="M1515.6255,-61.9954C1504.1448,-59.6797 1491.6367,-57.4535 1480,-56 1164.895,-16.6402 1075.8318,-79.5859 760.588,-19.8256"/>
<polygon fill="#191970" stroke="#191970" points="761.1976,-16.3787 750.7167,-17.9284 759.8764,-23.2529 761.1976,-16.3787"/>
</g>
<!-- Node31&#45;&gt;Node22 -->
<g id="edge57" class="edge">
<title>Node31&#45;&gt;Node22</title>
<path fill="none" stroke="#191970" d="M1515.2155,-61.9858C1503.845,-59.6991 1491.4946,-57.4898 1480,-56 1214.827,-21.6306 1142.5719,-51.1095 873.6624,-20.0717"/>
<polygon fill="#191970" stroke="#191970" points="873.9415,-16.5806 863.6021,-18.8931 873.1269,-23.533 873.9415,-16.5806"/>
</g>
<!-- Node33 -->
<g id="node34" class="node">
<title>Node33</title>
<polygon fill="#ffffff" stroke="#bfbfbf" points="1873.5,-.5 1873.5,-19.5 1918.5,-19.5 1918.5,-.5 1873.5,-.5"/>
<text text-anchor="middle" x="1896" y="-7.5" font-family="Helvetica,sans-Serif" font-size="10.00" fill="#000000">iosfwd</text>
</g>
<!-- Node32&#45;&gt;Node33 -->
<g id="edge59" class="edge">
<title>Node32&#45;&gt;Node33</title>
<path fill="none" stroke="#191970" d="M1890.7303,-56.2977C1891.6413,-48.2945 1892.7693,-38.3843 1893.7476,-29.7889"/>
<polygon fill="#191970" stroke="#191970" points="1897.2258,-30.1786 1894.8792,-19.8469 1890.2707,-29.3869 1897.2258,-30.1786"/>
</g>
<!-- Node34&#45;&gt;Node3 -->
<g id="edge63" class="edge">
<title>Node34&#45;&gt;Node3</title>
<path fill="none" stroke="#191970" d="M1401.0322,-128.9717C1472.7042,-116.7838 1596.6534,-95.7062 1672.8738,-82.7448"/>
<polygon fill="#191970" stroke="#191970" points="1673.5708,-86.1766 1682.8425,-81.0496 1672.3973,-79.2757 1673.5708,-86.1766"/>
</g>
<!-- Node34&#45;&gt;Node11 -->
<g id="edge65" class="edge">
<title>Node34&#45;&gt;Node11</title>
<path fill="none" stroke="#191970" d="M1332.7111,-128.6515C1319.8119,-118.3045 1298.9514,-101.5446 1281,-87 1264.065,-73.2789 1263.3347,-63.8461 1243,-56 1102.8223,-1.9125 722.0933,-35.0369 555.1514,-19.9318"/>
<polygon fill="#191970" stroke="#191970" points="555.4883,-16.4481 545.1918,-18.9445 554.7978,-23.414 555.4883,-16.4481"/>
</g>
<!-- Node34&#45;&gt;Node31 -->
<g id="edge64" class="edge">
<title>Node34&#45;&gt;Node31</title>
<path fill="none" stroke="#191970" d="M1375.3744,-128.9005C1412.6058,-117.134 1475.8099,-97.1591 1516.9757,-84.1492"/>
<polygon fill="#191970" stroke="#191970" points="1518.2015,-87.4325 1526.6819,-81.0817 1516.092,-80.7579 1518.2015,-87.4325"/>
</g>
<!-- Node35 -->
<g id="node36" class="node">
<title>Node35</title>
<polygon fill="#ffffff" stroke="#bfbfbf" points="1290,-62 1290,-81 1400,-81 1400,-62 1290,-62"/>
<text text-anchor="middle" x="1345" y="-69" font-family="Helvetica,sans-Serif" font-size="10.00" fill="#000000">AMReX_Geometry.H</text>
</g>
<!-- Node34&#45;&gt;Node35 -->
<g id="edge66" class="edge">
<title>Node34&#45;&gt;Node35</title>
<path fill="none" stroke="#191970" d="M1345,-128.9005C1345,-119.149 1345,-103.7597 1345,-91.3695"/>
<polygon fill="#191970" stroke="#191970" points="1348.5001,-91.0816 1345,-81.0817 1341.5001,-91.0817 1348.5001,-91.0816"/>
</g>
<!-- Node36&#45;&gt;Node17 -->
<g id="edge70" class="edge">
<title>Node36&#45;&gt;Node17</title>
<path fill="none" stroke="#191970" d="M2098,-123.2548C2098,-99.9744 2098,-55.5607 2098,-29.8117"/>
<polygon fill="#191970" stroke="#191970" points="2101.5001,-29.7358 2098,-19.7358 2094.5001,-29.7358 2101.5001,-29.7358"/>
</g>
<!-- Node36&#45;&gt;Node26 -->
<g id="edge69" class="edge">
<title>Node36&#45;&gt;Node26</title>
<path fill="none" stroke="#191970" d="M2080.9813,-123.2967C2069.1825,-112.7564 2053.4816,-98.7303 2041.3943,-87.9323"/>
<polygon fill="#191970" stroke="#191970" points="2043.4853,-85.107 2033.6959,-81.055 2038.8217,-90.3273 2043.4853,-85.107"/>
</g>
<!-- Node37 -->
<g id="node38" class="node">
<title>Node37</title>
<polygon fill="#ffffff" stroke="#bfbfbf" points="2126,-62 2126,-81 2170,-81 2170,-62 2126,-62"/>
<text text-anchor="middle" x="2148" y="-69" font-family="Helvetica,sans-Serif" font-size="10.00" fill="#000000">cmath</text>
</g>
<!-- Node36&#45;&gt;Node37 -->
<g id="edge68" class="edge">
<title>Node36&#45;&gt;Node37</title>
<path fill="none" stroke="#191970" d="M2109.3458,-123.2967C2116.9091,-113.1618 2126.8776,-99.804 2134.7969,-89.1921"/>
<polygon fill="#191970" stroke="#191970" points="2137.6936,-91.1626 2140.8694,-81.055 2132.0835,-86.976 2137.6936,-91.1626"/>
</g>
</g>
</svg>
        <g id="navigator" transform="translate(0 0)" fill="#404254">
                <rect fill="#f2f5e9" fill-opacity="0.5" stroke="#606060" stroke-width=".5" x="0" y="0" width="60" height="60"/>
                <use id="zoomplus" xlink:href="#zoomPlus" x="17" y="9" onmousedown="handleZoom(evt,'in')"/>
                <use id="zoomminus" xlink:href="#zoomMin" x="42" y="9" onmousedown="handleZoom(evt,'out')"/>
                <use id="reset" xlink:href="#resetDef" x="30" y="36" onmousedown="handleReset()"/>
                <g id="arrowUp" xlink:href="#dirArrow" transform="translate(30 24)" onmousedown="handlePan(0,-1)">
                  <use xlink:href="#rim" fill="#404040">
                        <set attributeName="fill" to="#808080" begin="arrowUp.mouseover" end="arrowUp.mouseout"/>
                  </use>
                  <path fill="none" stroke="white" stroke-width="1.5" d="M0,-3.0v7 M-2.5,-0.5L0,-3.0L2.5,-0.5"/>
                </g>
                <g id="arrowRight" xlink:href="#dirArrow" transform="rotate(90) translate(36 -43)" onmousedown="handlePan(1,0)">
                  <use xlink:href="#rim" fill="#404040">
                        <set attributeName="fill" to="#808080" begin="arrowRight.mouseover" end="arrowRight.mouseout"/>
                  </use>
                  <path fill="none" stroke="white" stroke-width="1.5" d="M0,-3.0v7 M-2.5,-0.5L0,-3.0L2.5,-0.5"/>
                </g>
                <g id="arrowDown" xlink:href="#dirArrow" transform="rotate(180) translate(-30 -48)" onmousedown="handlePan(0,1)">
                  <use xlink:href="#rim" fill="#404040">
                        <set attributeName="fill" to="#808080" begin="arrowDown.mouseover" end="arrowDown.mouseout"/>
                  </use>
                  <path fill="none" stroke="white" stroke-width="1.5" d="M0,-3.0v7 M-2.5,-0.5L0,-3.0L2.5,-0.5"/>
                </g>
                <g id="arrowLeft" xlink:href="#dirArrow" transform="rotate(270) translate(-36 17)" onmousedown="handlePan(-1,0)">
                  <use xlink:href="#rim" fill="#404040">
                        <set attributeName="fill" to="#808080" begin="arrowLeft.mouseover" end="arrowLeft.mouseout"/>
                  </use>
                  <path fill="none" stroke="white" stroke-width="1.5" d="M0,-3.0v7 M-2.5,-0.5L0,-3.0L2.5,-0.5"/>
                </g>
        </g>
        <svg viewBox="0 0 15 15" width="100%" height="30px" preserveAspectRatio="xMaxYMin meet">
         <g id="arrow_out" transform="scale(0.3 0.3)">
          <a xlink:href="_body_force_8cpp__incl_org.svg" target="_base">
           <rect id="button" ry="5" rx="5" y="6" x="6" height="38" width="38"
                fill="#f2f5e9" fill-opacity="0.5" stroke="#606060" stroke-width="1.0"/>
           <path id="arrow"
             d="M 11.500037,31.436501 C 11.940474,20.09759 22.043105,11.32322 32.158766,21.979434 L 37.068811,17.246167 C 37.068811,17.246167 37.088388,32 37.088388,32 L 22.160133,31.978069 C 22.160133,31.978069 26.997745,27.140456 26.997745,27.140456 C 18.528582,18.264221 13.291696,25.230495 11.500037,31.436501 z"
             style="fill:#404040;"/>
          </a>
         </g>
        </svg>
</svg>
