<?xml version="1.0" encoding="UTF-8" standalone="no"?>
<!DOCTYPE svg PUBLIC "-//W3C//DTD SVG 1.1//EN"
 "http://www.w3.org/Graphics/SVG/1.1/DTD/svg11.dtd">
<!-- Generated by graphviz version 2.40.1 (20161225.0304)
 -->
<!-- Title: CFDSim.H Pages: 1 -->
<svg width="4825pt" height="207pt"
 viewBox="0.00 0.00 4824.50 207.00" xmlns="http://www.w3.org/2000/svg" xmlns:xlink="http://www.w3.org/1999/xlink">
<g id="graph0" class="graph" transform="scale(1 1) rotate(0) translate(4 203)">
<title>CFDSim.H</title>
<polygon fill="#ffffff" stroke="transparent" points="-4,4 -4,-203 4820.5,-203 4820.5,4 -4,4"/>
<!-- Node34 -->
<g id="node1" class="node">
<title>Node34</title>
<polygon fill="#bfbfbf" stroke="#000000" points="2233.5,-179.5 2233.5,-198.5 2298.5,-198.5 2298.5,-179.5 2233.5,-179.5"/>
<text text-anchor="middle" x="2266" y="-186.5" font-family="Helvetica,sans-Serif" font-size="10.00" fill="#000000">CFDSim.H</text>
</g>
<!-- Node35 -->
<g id="node2" class="node">
<title>Node35</title>
<g id="a_node2"><a xlink:href="incflo_8_h.html" target="_top" xlink:title="incflo.H">
<polygon fill="#ffffff" stroke="#ff0000" points="122,-123.5 122,-142.5 172,-142.5 172,-123.5 122,-123.5"/>
<text text-anchor="middle" x="147" y="-130.5" font-family="Helvetica,sans-Serif" font-size="10.00" fill="#000000">incflo.H</text>
</a>
</g>
</g>
<!-- Node34&#45;&gt;Node35 -->
<g id="edge1" class="edge">
<title>Node34&#45;&gt;Node35</title>
<path fill="none" stroke="#191970" d="M2223.4021,-188.5586C1945.9064,-185.6164 400.1659,-168.1897 192,-143 185.485,-142.2116 178.5267,-140.9023 172.0775,-139.4867"/>
<polygon fill="#191970" stroke="#191970" points="2223.4356,-192.059 2233.472,-188.6649 2223.5096,-185.0594 2223.4356,-192.059"/>
</g>
<!-- Node54 -->
<g id="node5" class="node">
<title>Node54</title>
<g id="a_node5"><a xlink:href="_a_b_l_wall_function_8_h.html" target="_top" xlink:title="ABLWallFunction.H">
<polygon fill="#ffffff" stroke="#ff0000" points="284.5,-62 284.5,-81 387.5,-81 387.5,-62 284.5,-62"/>
<text text-anchor="middle" x="336" y="-69" font-family="Helvetica,sans-Serif" font-size="10.00" fill="#000000">ABLWallFunction.H</text>
</a>
</g>
</g>
<!-- Node34&#45;&gt;Node54 -->
<g id="edge4" class="edge">
<title>Node34&#45;&gt;Node54</title>
<path fill="none" stroke="#191970" d="M2223.1343,-188.8865C1952.346,-188.052 487.6238,-181.7544 402,-143 373.0664,-129.9043 351.0348,-97.4825 341.372,-81.1824"/>
<polygon fill="#191970" stroke="#191970" points="2223.3313,-192.387 2233.3418,-188.9171 2223.3524,-185.3871 2223.3313,-192.387"/>
</g>
<!-- Node59 -->
<g id="node6" class="node">
<title>Node59</title>
<g id="a_node6"><a xlink:href="_a_b_l_stats_8_h.html" target="_top" xlink:title="ABLStats.H">
<polygon fill="#ffffff" stroke="#ff0000" points="221.5,-.5 221.5,-19.5 290.5,-19.5 290.5,-.5 221.5,-.5"/>
<text text-anchor="middle" x="256" y="-7.5" font-family="Helvetica,sans-Serif" font-size="10.00" fill="#000000">ABLStats.H</text>
</a>
</g>
</g>
<!-- Node34&#45;&gt;Node59 -->
<g id="edge12" class="edge">
<title>Node34&#45;&gt;Node59</title>
<path fill="none" stroke="#191970" d="M2223.1967,-188.8568C1932.7341,-187.7863 261.1971,-180.0221 225,-143 191.0213,-108.2468 231.3404,-43.8667 248.7536,-19.5945"/>
<polygon fill="#191970" stroke="#191970" points="2223.3141,-192.3572 2233.3267,-188.8935 2223.3395,-185.3572 2223.3141,-192.3572"/>
</g>
<!-- Node61 -->
<g id="node7" class="node">
<title>Node61</title>
<g id="a_node7"><a xlink:href="_boussinesq_bubble_8cpp.html" target="_top" xlink:title="BoussinesqBubble.cpp">
<polygon fill="#ffffff" stroke="#000000" points="333,-.5 333,-19.5 449,-19.5 449,-.5 333,-.5"/>
<text text-anchor="middle" x="391" y="-7.5" font-family="Helvetica,sans-Serif" font-size="10.00" fill="#000000">BoussinesqBubble.cpp</text>
</a>
</g>
</g>
<!-- Node34&#45;&gt;Node61 -->
<g id="edge31" class="edge">
<title>Node34&#45;&gt;Node61</title>
<path fill="none" stroke="#191970" d="M2222.9974,-188.4917C1953.0846,-185.2298 502.7773,-166.6239 464,-143 417.4372,-114.633 398.446,-45.1822 392.8819,-19.6348"/>
<polygon fill="#191970" stroke="#191970" points="2223.1356,-191.9935 2233.177,-188.6142 2223.2199,-184.994 2223.1356,-191.9935"/>
</g>
<!-- Node62 -->
<g id="node8" class="node">
<title>Node62</title>
<g id="a_node8"><a xlink:href="_field_plane_averaging_8_h.html" target="_top" xlink:title="FieldPlaneAveraging.H">
<polygon fill="#ffffff" stroke="#ff0000" points="234,-123.5 234,-142.5 350,-142.5 350,-123.5 234,-123.5"/>
<text text-anchor="middle" x="292" y="-130.5" font-family="Helvetica,sans-Serif" font-size="10.00" fill="#000000">FieldPlaneAveraging.H</text>
</a>
</g>
</g>
<!-- Node34&#45;&gt;Node62 -->
<g id="edge7" class="edge">
<title>Node34&#45;&gt;Node62</title>
<path fill="none" stroke="#191970" d="M2223.0996,-188.6274C1977.0327,-186.3895 742.7334,-173.7802 364,-143 359.4717,-142.632 354.7932,-142.1697 350.0963,-141.647"/>
<polygon fill="#191970" stroke="#191970" points="2223.3814,-192.13 2233.4125,-188.7204 2223.4445,-185.1303 2223.3814,-192.13"/>
</g>
<!-- Node68 -->
<g id="node9" class="node">
<title>Node68</title>
<g id="a_node9"><a xlink:href="_a_b_l_boundary_plane_8_h.html" target="_top" xlink:title="ABLBoundaryPlane.H">
<polygon fill="#ffffff" stroke="#ff0000" points="482,-123.5 482,-142.5 594,-142.5 594,-123.5 482,-123.5"/>
<text text-anchor="middle" x="538" y="-130.5" font-family="Helvetica,sans-Serif" font-size="10.00" fill="#000000">ABLBoundaryPlane.H</text>
</a>
</g>
</g>
<!-- Node34&#45;&gt;Node68 -->
<g id="edge10" class="edge">
<title>Node34&#45;&gt;Node68</title>
<path fill="none" stroke="#191970" d="M2223.1925,-188.5418C1996.1965,-186.0017 931.2866,-172.676 603,-143 600.1572,-142.743 597.2498,-142.4409 594.3174,-142.1048"/>
<polygon fill="#191970" stroke="#191970" points="2223.324,-192.0434 2233.3622,-188.6546 2223.4017,-185.0438 2223.324,-192.0434"/>
</g>
<!-- Node69 -->
<g id="node10" class="node">
<title>Node69</title>
<g id="a_node10"><a xlink:href="_a_b_l_boundary_plane_8cpp.html" target="_top" xlink:title="ABLBoundaryPlane.cpp">
<polygon fill="#ffffff" stroke="#000000" points="461,-62 461,-81 581,-81 581,-62 461,-62"/>
<text text-anchor="middle" x="521" y="-69" font-family="Helvetica,sans-Serif" font-size="10.00" fill="#000000">ABLBoundaryPlane.cpp</text>
</a>
</g>
</g>
<!-- Node34&#45;&gt;Node69 -->
<g id="edge59" class="edge">
<title>Node34&#45;&gt;Node69</title>
<path fill="none" stroke="#191970" d="M2223.0286,-188.719C1953.334,-186.8566 504.5348,-175.3542 473,-143 454.0074,-123.5139 486.2806,-95.5962 506.5256,-81.0845"/>
<polygon fill="#191970" stroke="#191970" points="2223.1764,-192.22 2233.2002,-188.7886 2223.2243,-185.2202 2223.1764,-192.22"/>
</g>
<!-- Node72 -->
<g id="node11" class="node">
<title>Node72</title>
<g id="a_node11"><a xlink:href="_c_f_d_sim_8cpp.html" target="_top" xlink:title="CFDSim.cpp">
<polygon fill="#ffffff" stroke="#000000" points="612,-123.5 612,-142.5 686,-142.5 686,-123.5 612,-123.5"/>
<text text-anchor="middle" x="649" y="-130.5" font-family="Helvetica,sans-Serif" font-size="10.00" fill="#000000">CFDSim.cpp</text>
</a>
</g>
</g>
<!-- Node34&#45;&gt;Node72 -->
<g id="edge13" class="edge">
<title>Node34&#45;&gt;Node72</title>
<path fill="none" stroke="#191970" d="M2223.241,-188.6943C2004.3196,-186.9843 1007.3361,-177.4088 700,-143 695.5166,-142.498 690.8391,-141.8107 686.2142,-141.0295"/>
<polygon fill="#191970" stroke="#191970" points="2223.3379,-192.195 2233.3645,-188.772 2223.3917,-185.1952 2223.3379,-192.195"/>
</g>
<!-- Node73 -->
<g id="node12" class="node">
<title>Node73</title>
<g id="a_node12"><a xlink:href="_p_d_e_ops_8_h.html" target="_top" xlink:title="PDEOps.H">
<polygon fill="#ffffff" stroke="#ff0000" points="742,-123.5 742,-142.5 808,-142.5 808,-123.5 742,-123.5"/>
<text text-anchor="middle" x="775" y="-130.5" font-family="Helvetica,sans-Serif" font-size="10.00" fill="#000000">PDEOps.H</text>
</a>
</g>
</g>
<!-- Node34&#45;&gt;Node73 -->
<g id="edge14" class="edge">
<title>Node34&#45;&gt;Node73</title>
<path fill="none" stroke="#191970" d="M2223.1159,-188.8066C2013.9157,-187.6846 1099.1467,-180.6735 817,-143 814.1768,-142.623 811.2663,-142.1376 808.3566,-141.5843"/>
<polygon fill="#191970" stroke="#191970" points="2223.363,-192.3078 2233.381,-188.8599 2223.3994,-185.3079 2223.363,-192.3078"/>
</g>
<!-- Node87 -->
<g id="node13" class="node">
<title>Node87</title>
<g id="a_node13"><a xlink:href="_p_d_e_8_h.html" target="_top" xlink:title="PDE.H">
<polygon fill="#ffffff" stroke="#ff0000" points="720,-62 720,-81 768,-81 768,-62 720,-62"/>
<text text-anchor="middle" x="744" y="-69" font-family="Helvetica,sans-Serif" font-size="10.00" fill="#000000">PDE.H</text>
</a>
</g>
</g>
<!-- Node34&#45;&gt;Node87 -->
<g id="edge16" class="edge">
<title>Node34&#45;&gt;Node87</title>
<path fill="none" stroke="#191970" d="M2222.8542,-188.5258C1976.6785,-185.7207 759.6652,-170.4774 733,-143 716.9064,-126.4162 729.63,-96.7346 738.06,-81.3505"/>
<polygon fill="#191970" stroke="#191970" points="2223.1436,-192.0292 2233.1826,-188.6427 2223.2228,-185.0297 2223.1436,-192.0292"/>
</g>
<!-- Node56 -->
<g id="node14" class="node">
<title>Node56</title>
<g id="a_node14"><a xlink:href="_a_b_l_forcing_8cpp.html" target="_top" xlink:title="ABLForcing.cpp">
<polygon fill="#ffffff" stroke="#000000" points="826,-123.5 826,-142.5 912,-142.5 912,-123.5 826,-123.5"/>
<text text-anchor="middle" x="869" y="-130.5" font-family="Helvetica,sans-Serif" font-size="10.00" fill="#000000">ABLForcing.cpp</text>
</a>
</g>
</g>
<!-- Node34&#45;&gt;Node56 -->
<g id="edge17" class="edge">
<title>Node34&#45;&gt;Node56</title>
<path fill="none" stroke="#191970" d="M2223.3582,-188.4367C2023.9681,-185.6658 1182.3125,-172.4132 921,-143 918.0766,-142.6709 915.0716,-142.2679 912.051,-141.8145"/>
<polygon fill="#191970" stroke="#191970" points="2223.39,-191.9374 2233.4372,-188.5754 2223.4864,-184.9381 2223.39,-191.9374"/>
</g>
<!-- Node57 -->
<g id="node15" class="node">
<title>Node57</title>
<g id="a_node15"><a xlink:href="_a_b_l_mean_boussinesq_8cpp.html" target="_top" xlink:title="ABLMeanBoussinesq.cpp">
<polygon fill="#ffffff" stroke="#000000" points="930.5,-123.5 930.5,-142.5 1059.5,-142.5 1059.5,-123.5 930.5,-123.5"/>
<text text-anchor="middle" x="995" y="-130.5" font-family="Helvetica,sans-Serif" font-size="10.00" fill="#000000">ABLMeanBoussinesq.cpp</text>
</a>
</g>
</g>
<!-- Node34&#45;&gt;Node57 -->
<g id="edge18" class="edge">
<title>Node34&#45;&gt;Node57</title>
<path fill="none" stroke="#191970" d="M2223.0494,-187.9151C2036.9502,-183.1273 1299.2392,-163.229 1068,-143 1065.3239,-142.7659 1062.5956,-142.5029 1059.8417,-142.2173"/>
<polygon fill="#191970" stroke="#191970" points="2223.1697,-191.4192 2233.2561,-188.1767 2223.3491,-184.4215 2223.1697,-191.4192"/>
</g>
<!-- Node100 -->
<g id="node16" class="node">
<title>Node100</title>
<g id="a_node16"><a xlink:href="_body_force_8cpp.html" target="_top" xlink:title="BodyForce.cpp">
<polygon fill="#ffffff" stroke="#000000" points="1077.5,-123.5 1077.5,-142.5 1160.5,-142.5 1160.5,-123.5 1077.5,-123.5"/>
<text text-anchor="middle" x="1119" y="-130.5" font-family="Helvetica,sans-Serif" font-size="10.00" fill="#000000">BodyForce.cpp</text>
</a>
</g>
</g>
<!-- Node34&#45;&gt;Node100 -->
<g id="edge19" class="edge">
<title>Node34&#45;&gt;Node100</title>
<path fill="none" stroke="#191970" d="M2223.2952,-188.0745C2047.5455,-184.1319 1379.5496,-167.7964 1170,-143 1166.9535,-142.6395 1163.8167,-142.1984 1160.6672,-141.7044"/>
<polygon fill="#191970" stroke="#191970" points="2223.3662,-191.5769 2233.4417,-188.3006 2223.5222,-184.5786 2223.3662,-191.5769"/>
</g>
<!-- Node101 -->
<g id="node17" class="node">
<title>Node101</title>
<g id="a_node17"><a xlink:href="_boussinesq_buoyancy_8cpp.html" target="_top" xlink:title="BoussinesqBuoyancy.cpp">
<polygon fill="#ffffff" stroke="#000000" points="1179,-123.5 1179,-142.5 1309,-142.5 1309,-123.5 1179,-123.5"/>
<text text-anchor="middle" x="1244" y="-130.5" font-family="Helvetica,sans-Serif" font-size="10.00" fill="#000000">BoussinesqBuoyancy.cpp</text>
</a>
</g>
</g>
<!-- Node34&#45;&gt;Node101 -->
<g id="edge20" class="edge">
<title>Node34&#45;&gt;Node101</title>
<path fill="none" stroke="#191970" d="M2222.9204,-188.2258C2088.7126,-185.5321 1666.2824,-174.9231 1318,-143 1315.1598,-142.7397 1312.2613,-142.4502 1309.3354,-142.1386"/>
<polygon fill="#191970" stroke="#191970" points="2223.1157,-191.7303 2233.1826,-188.4275 2223.2533,-184.7316 2223.1157,-191.7303"/>
</g>
<!-- Node102 -->
<g id="node18" class="node">
<title>Node102</title>
<g id="a_node18"><a xlink:href="_coriolis_forcing_8cpp.html" target="_top" xlink:title="CoriolisForcing.cpp">
<polygon fill="#ffffff" stroke="#000000" points="1327.5,-123.5 1327.5,-142.5 1428.5,-142.5 1428.5,-123.5 1327.5,-123.5"/>
<text text-anchor="middle" x="1378" y="-130.5" font-family="Helvetica,sans-Serif" font-size="10.00" fill="#000000">CoriolisForcing.cpp</text>
</a>
</g>
</g>
<!-- Node34&#45;&gt;Node102 -->
<g id="edge21" class="edge">
<title>Node34&#45;&gt;Node102</title>
<path fill="none" stroke="#191970" d="M2223.4054,-188.3256C2100.855,-186.0222 1736.9555,-176.6341 1437,-143 1434.3156,-142.699 1431.568,-142.356 1428.7975,-141.9826"/>
<polygon fill="#191970" stroke="#191970" points="2223.4361,-191.8267 2233.4982,-188.5094 2223.5636,-184.8278 2223.4361,-191.8267"/>
</g>
<!-- Node103 -->
<g id="node19" class="node">
<title>Node103</title>
<g id="a_node19"><a xlink:href="_density_buoyancy_8cpp.html" target="_top" xlink:title="DensityBuoyancy.cpp">
<polygon fill="#ffffff" stroke="#000000" points="1446.5,-123.5 1446.5,-142.5 1559.5,-142.5 1559.5,-123.5 1446.5,-123.5"/>
<text text-anchor="middle" x="1503" y="-130.5" font-family="Helvetica,sans-Serif" font-size="10.00" fill="#000000">DensityBuoyancy.cpp</text>
</a>
</g>
</g>
<!-- Node34&#45;&gt;Node103 -->
<g id="edge22" class="edge">
<title>Node34&#45;&gt;Node103</title>
<path fill="none" stroke="#191970" d="M2222.9555,-187.4253C2113.507,-183.1467 1815.7709,-169.7894 1569,-143 1566.0044,-142.6748 1562.9366,-142.3125 1559.8419,-141.924"/>
<polygon fill="#191970" stroke="#191970" points="2223.1266,-190.9344 2233.2541,-187.8227 2223.3965,-183.9396 2223.1266,-190.9344"/>
</g>
<!-- Node104 -->
<g id="node20" class="node">
<title>Node104</title>
<g id="a_node20"><a xlink:href="_geostrophic_forcing_8cpp.html" target="_top" xlink:title="GeostrophicForcing.cpp">
<polygon fill="#ffffff" stroke="#000000" points="1578,-123.5 1578,-142.5 1698,-142.5 1698,-123.5 1578,-123.5"/>
<text text-anchor="middle" x="1638" y="-130.5" font-family="Helvetica,sans-Serif" font-size="10.00" fill="#000000">GeostrophicForcing.cpp</text>
</a>
</g>
</g>
<!-- Node34&#45;&gt;Node104 -->
<g id="edge23" class="edge">
<title>Node34&#45;&gt;Node104</title>
<path fill="none" stroke="#191970" d="M2223.269,-186.3883C2129.5879,-180.4641 1899.1526,-164.8091 1707,-143 1704.1135,-142.6724 1701.1618,-142.3183 1698.1824,-141.9456"/>
<polygon fill="#191970" stroke="#191970" points="2223.2811,-189.8958 2233.4809,-187.0296 2223.72,-182.9096 2223.2811,-189.8958"/>
</g>
<!-- Node105 -->
<g id="node21" class="node">
<title>Node105</title>
<g id="a_node21"><a xlink:href="_p_d_e_base_8cpp.html" target="_top" xlink:title="PDEBase.cpp">
<polygon fill="#ffffff" stroke="#000000" points="1716.5,-123.5 1716.5,-142.5 1795.5,-142.5 1795.5,-123.5 1716.5,-123.5"/>
<text text-anchor="middle" x="1756" y="-130.5" font-family="Helvetica,sans-Serif" font-size="10.00" fill="#000000">PDEBase.cpp</text>
</a>
</g>
</g>
<!-- Node34&#45;&gt;Node105 -->
<g id="edge24" class="edge">
<title>Node34&#45;&gt;Node105</title>
<path fill="none" stroke="#191970" d="M2223.0616,-186.1829C2141.3484,-180.4974 1957.9757,-166.1803 1805,-143 1801.9097,-142.5317 1798.7195,-141.9974 1795.5186,-141.4248"/>
<polygon fill="#191970" stroke="#191970" points="2223.2245,-189.7023 2233.4411,-186.8965 2223.7047,-182.7188 2223.2245,-189.7023"/>
</g>
<!-- Node106 -->
<g id="node22" class="node">
<title>Node106</title>
<g id="a_node22"><a xlink:href="_ksgs_m84_src_8cpp.html" target="_top" xlink:title="KsgsM84Src.cpp">
<polygon fill="#ffffff" stroke="#000000" points="1814,-123.5 1814,-142.5 1906,-142.5 1906,-123.5 1814,-123.5"/>
<text text-anchor="middle" x="1860" y="-130.5" font-family="Helvetica,sans-Serif" font-size="10.00" fill="#000000">KsgsM84Src.cpp</text>
</a>
</g>
</g>
<!-- Node34&#45;&gt;Node106 -->
<g id="edge25" class="edge">
<title>Node34&#45;&gt;Node106</title>
<path fill="none" stroke="#191970" d="M2223.0806,-183.756C2157.6187,-175.6533 2028.9373,-159.3151 1920,-143 1915.5091,-142.3274 1910.8341,-141.5987 1906.1635,-140.8515"/>
<polygon fill="#191970" stroke="#191970" points="2222.6778,-187.2327 2233.0313,-184.9844 2223.5355,-180.2855 2222.6778,-187.2327"/>
</g>
<!-- Node107 -->
<g id="node23" class="node">
<title>Node107</title>
<g id="a_node23"><a xlink:href="_m_m_s_8_h.html" target="_top" xlink:title="MMS.H">
<polygon fill="#ffffff" stroke="#000000" points="1962,-123.5 1962,-142.5 2012,-142.5 2012,-123.5 1962,-123.5"/>
<text text-anchor="middle" x="1987" y="-130.5" font-family="Helvetica,sans-Serif" font-size="10.00" fill="#000000">MMS.H</text>
</a>
</g>
</g>
<!-- Node34&#45;&gt;Node107 -->
<g id="edge26" class="edge">
<title>Node34&#45;&gt;Node107</title>
<path fill="none" stroke="#191970" d="M2223.3346,-182.3256C2174.235,-174.3363 2091.3215,-159.8978 2021,-143 2018.1284,-142.31 2015.1383,-141.5271 2012.1752,-140.7106"/>
<polygon fill="#191970" stroke="#191970" points="2222.8521,-185.7929 2233.282,-183.9311 2223.9675,-178.8824 2222.8521,-185.7929"/>
</g>
<!-- Node108 -->
<g id="node24" class="node">
<title>Node108</title>
<g id="a_node24"><a xlink:href="_m_m_s_8cpp.html" target="_top" xlink:title="MMS.cpp">
<polygon fill="#ffffff" stroke="#000000" points="1930.5,-62 1930.5,-81 1989.5,-81 1989.5,-62 1930.5,-62"/>
<text text-anchor="middle" x="1960" y="-69" font-family="Helvetica,sans-Serif" font-size="10.00" fill="#000000">MMS.cpp</text>
</a>
</g>
</g>
<!-- Node34&#45;&gt;Node108 -->
<g id="edge28" class="edge">
<title>Node34&#45;&gt;Node108</title>
<path fill="none" stroke="#191970" d="M2222.9279,-185.7637C2141.251,-179.1877 1970.4163,-163.1629 1953,-143 1937.9984,-125.6325 1948.1778,-96.2938 1955.0904,-81.1645"/>
<polygon fill="#191970" stroke="#191970" points="2223.1227,-189.29 2233.3682,-186.5918 2223.6763,-182.3119 2223.1227,-189.29"/>
</g>
<!-- Node109 -->
<g id="node25" class="node">
<title>Node109</title>
<g id="a_node25"><a xlink:href="_m_m_s_forcing_8cpp.html" target="_top" xlink:title="MMSForcing.cpp">
<polygon fill="#ffffff" stroke="#000000" points="2030.5,-123.5 2030.5,-142.5 2121.5,-142.5 2121.5,-123.5 2030.5,-123.5"/>
<text text-anchor="middle" x="2076" y="-130.5" font-family="Helvetica,sans-Serif" font-size="10.00" fill="#000000">MMSForcing.cpp</text>
</a>
</g>
</g>
<!-- Node34&#45;&gt;Node109 -->
<g id="edge29" class="edge">
<title>Node34&#45;&gt;Node109</title>
<path fill="none" stroke="#191970" d="M2223.4403,-176.4561C2188.5631,-166.1765 2139.9532,-151.8494 2108.236,-142.5011"/>
<polygon fill="#191970" stroke="#191970" points="2222.7563,-179.9033 2233.3378,-179.3733 2224.7353,-173.1888 2222.7563,-179.9033"/>
</g>
<!-- Node110 -->
<g id="node26" class="node">
<title>Node110</title>
<g id="a_node26"><a xlink:href="_tioga_interface_8cpp.html" target="_top" xlink:title="TiogaInterface.cpp">
<polygon fill="#ffffff" stroke="#000000" points="2140,-123.5 2140,-142.5 2238,-142.5 2238,-123.5 2140,-123.5"/>
<text text-anchor="middle" x="2189" y="-130.5" font-family="Helvetica,sans-Serif" font-size="10.00" fill="#000000">TiogaInterface.cpp</text>
</a>
</g>
</g>
<!-- Node34&#45;&gt;Node110 -->
<g id="edge30" class="edge">
<title>Node34&#45;&gt;Node110</title>
<path fill="none" stroke="#191970" d="M2244.2884,-173.2097C2230.7647,-163.3743 2213.8042,-151.0394 2202.2587,-142.6427"/>
<polygon fill="#191970" stroke="#191970" points="2242.4416,-176.1944 2252.5876,-179.2455 2246.5589,-170.5332 2242.4416,-176.1944"/>
</g>
<!-- Node111 -->
<g id="node27" class="node">
<title>Node111</title>
<g id="a_node27"><a xlink:href="_convecting_taylor_vortex_8_h.html" target="_top" xlink:title="ConvectingTaylorVortex.H">
<polygon fill="#ffffff" stroke="#000000" points="2294,-123.5 2294,-142.5 2426,-142.5 2426,-123.5 2294,-123.5"/>
<text text-anchor="middle" x="2360" y="-130.5" font-family="Helvetica,sans-Serif" font-size="10.00" fill="#000000">ConvectingTaylorVortex.H</text>
</a>
</g>
</g>
<!-- Node34&#45;&gt;Node111 -->
<g id="edge32" class="edge">
<title>Node34&#45;&gt;Node111</title>
<path fill="none" stroke="#191970" d="M2291.1005,-174.0465C2307.826,-164.0824 2329.3168,-151.2794 2343.8141,-142.6427"/>
<polygon fill="#191970" stroke="#191970" points="2289.1732,-171.1206 2282.3736,-179.2455 2292.7559,-177.1343 2289.1732,-171.1206"/>
</g>
<!-- Node112 -->
<g id="node28" class="node">
<title>Node112</title>
<g id="a_node28"><a xlink:href="_convecting_taylor_vortex_8cpp.html" target="_top" xlink:title="ConvectingTaylorVortex.cpp">
<polygon fill="#ffffff" stroke="#000000" points="2223,-62 2223,-81 2363,-81 2363,-62 2223,-62"/>
<text text-anchor="middle" x="2293" y="-69" font-family="Helvetica,sans-Serif" font-size="10.00" fill="#000000">ConvectingTaylorVortex.cpp</text>
</a>
</g>
</g>
<!-- Node34&#45;&gt;Node112 -->
<g id="edge34" class="edge">
<title>Node34&#45;&gt;Node112</title>
<path fill="none" stroke="#191970" d="M2270.5016,-169.4095C2276.3468,-143.9723 2286.3241,-100.5527 2290.7599,-81.2484"/>
<polygon fill="#191970" stroke="#191970" points="2267.038,-168.8546 2268.2095,-179.3845 2273.8602,-170.4223 2267.038,-168.8546"/>
</g>
<!-- Node113 -->
<g id="node29" class="node">
<title>Node113</title>
<g id="a_node29"><a xlink:href="_ekman_spiral_8_h.html" target="_top" xlink:title="EkmanSpiral.H">
<polygon fill="#ffffff" stroke="#000000" points="2482.5,-123.5 2482.5,-142.5 2565.5,-142.5 2565.5,-123.5 2482.5,-123.5"/>
<text text-anchor="middle" x="2524" y="-130.5" font-family="Helvetica,sans-Serif" font-size="10.00" fill="#000000">EkmanSpiral.H</text>
</a>
</g>
</g>
<!-- Node34&#45;&gt;Node113 -->
<g id="edge35" class="edge">
<title>Node34&#45;&gt;Node113</title>
<path fill="none" stroke="#191970" d="M2308.4632,-179.7832C2356.5477,-169.3462 2434.4016,-152.4477 2482.2073,-142.0713"/>
<polygon fill="#191970" stroke="#191970" points="2307.7059,-176.366 2298.6759,-181.9076 2309.1908,-183.2067 2307.7059,-176.366"/>
</g>
<!-- Node114 -->
<g id="node30" class="node">
<title>Node114</title>
<g id="a_node30"><a xlink:href="_ekman_spiral_8cpp.html" target="_top" xlink:title="EkmanSpiral.cpp">
<polygon fill="#ffffff" stroke="#000000" points="2443.5,-62 2443.5,-81 2534.5,-81 2534.5,-62 2443.5,-62"/>
<text text-anchor="middle" x="2489" y="-69" font-family="Helvetica,sans-Serif" font-size="10.00" fill="#000000">EkmanSpiral.cpp</text>
</a>
</g>
</g>
<!-- Node34&#45;&gt;Node114 -->
<g id="edge37" class="edge">
<title>Node34&#45;&gt;Node114</title>
<path fill="none" stroke="#191970" d="M2309.0431,-185.0814C2345.2607,-180.0554 2397.0641,-168.6675 2435,-143 2458.706,-126.9605 2476.2311,-97.0408 2484.2138,-81.4797"/>
<polygon fill="#191970" stroke="#191970" points="2308.2768,-181.6508 2298.8017,-186.3914 2309.165,-188.5942 2308.2768,-181.6508"/>
</g>
<!-- Node115 -->
<g id="node31" class="node">
<title>Node115</title>
<g id="a_node31"><a xlink:href="_free_stream_8cpp.html" target="_top" xlink:title="FreeStream.cpp">
<polygon fill="#ffffff" stroke="#000000" points="2584,-123.5 2584,-142.5 2670,-142.5 2670,-123.5 2584,-123.5"/>
<text text-anchor="middle" x="2627" y="-130.5" font-family="Helvetica,sans-Serif" font-size="10.00" fill="#000000">FreeStream.cpp</text>
</a>
</g>
</g>
<!-- Node34&#45;&gt;Node115 -->
<g id="edge38" class="edge">
<title>Node34&#45;&gt;Node115</title>
<path fill="none" stroke="#191970" d="M2309.0541,-183.0995C2368.6769,-174.8076 2479.7057,-158.9312 2574,-143 2577.2315,-142.454 2580.5701,-141.8704 2583.926,-141.2697"/>
<polygon fill="#191970" stroke="#191970" points="2308.3098,-179.6691 2298.8853,-184.5094 2309.2712,-186.6028 2308.3098,-179.6691"/>
</g>
<!-- Node116 -->
<g id="node32" class="node">
<title>Node116</title>
<g id="a_node32"><a xlink:href="_dam_break_8cpp.html" target="_top" xlink:title="DamBreak.cpp">
<polygon fill="#ffffff" stroke="#000000" points="2688,-123.5 2688,-142.5 2770,-142.5 2770,-123.5 2688,-123.5"/>
<text text-anchor="middle" x="2729" y="-130.5" font-family="Helvetica,sans-Serif" font-size="10.00" fill="#000000">DamBreak.cpp</text>
</a>
</g>
</g>
<!-- Node34&#45;&gt;Node116 -->
<g id="edge39" class="edge">
<title>Node34&#45;&gt;Node116</title>
<path fill="none" stroke="#191970" d="M2308.5316,-185.4854C2383.5913,-179.0106 2544.3584,-163.9222 2679,-143 2681.8867,-142.5514 2684.86,-142.0523 2687.8496,-141.5232"/>
<polygon fill="#191970" stroke="#191970" points="2308.1861,-182.0021 2298.5208,-186.3415 2308.7827,-188.9766 2308.1861,-182.0021"/>
</g>
<!-- Node117 -->
<g id="node33" class="node">
<title>Node117</title>
<g id="a_node33"><a xlink:href="_multi_phase_8cpp.html" target="_top" xlink:title="MultiPhase.cpp">
<polygon fill="#ffffff" stroke="#000000" points="2788,-123.5 2788,-142.5 2872,-142.5 2872,-123.5 2788,-123.5"/>
<text text-anchor="middle" x="2830" y="-130.5" font-family="Helvetica,sans-Serif" font-size="10.00" fill="#000000">MultiPhase.cpp</text>
</a>
</g>
</g>
<!-- Node34&#45;&gt;Node117 -->
<g id="edge40" class="edge">
<title>Node34&#45;&gt;Node117</title>
<path fill="none" stroke="#191970" d="M2308.6946,-186.6803C2396.8892,-181.557 2605.4617,-167.7254 2779,-143 2781.8584,-142.5927 2784.7991,-142.131 2787.7568,-141.6349"/>
<polygon fill="#191970" stroke="#191970" points="2308.3296,-183.1954 2298.5464,-187.2621 2308.7303,-190.1839 2308.3296,-183.1954"/>
</g>
<!-- Node118 -->
<g id="node34" class="node">
<title>Node118</title>
<g id="a_node34"><a xlink:href="_vortex_patch_8cpp.html" target="_top" xlink:title="VortexPatch.cpp">
<polygon fill="#ffffff" stroke="#000000" points="2889.5,-123.5 2889.5,-142.5 2978.5,-142.5 2978.5,-123.5 2889.5,-123.5"/>
<text text-anchor="middle" x="2934" y="-130.5" font-family="Helvetica,sans-Serif" font-size="10.00" fill="#000000">VortexPatch.cpp</text>
</a>
</g>
</g>
<!-- Node34&#45;&gt;Node118 -->
<g id="edge41" class="edge">
<title>Node34&#45;&gt;Node118</title>
<path fill="none" stroke="#191970" d="M2308.8564,-187.445C2409.2284,-183.4437 2667.2266,-171.0726 2881,-143 2883.6924,-142.6464 2886.4549,-142.2447 2889.2371,-141.8101"/>
<polygon fill="#191970" stroke="#191970" points="2308.6567,-183.9501 2298.8013,-187.8387 2308.9306,-190.9447 2308.6567,-183.9501"/>
</g>
<!-- Node119 -->
<g id="node35" class="node">
<title>Node119</title>
<g id="a_node35"><a xlink:href="_zalesak_disk_8cpp.html" target="_top" xlink:title="ZalesakDisk.cpp">
<polygon fill="#ffffff" stroke="#000000" points="2997,-123.5 2997,-142.5 3087,-142.5 3087,-123.5 2997,-123.5"/>
<text text-anchor="middle" x="3042" y="-130.5" font-family="Helvetica,sans-Serif" font-size="10.00" fill="#000000">ZalesakDisk.cpp</text>
</a>
</g>
</g>
<!-- Node34&#45;&gt;Node119 -->
<g id="edge42" class="edge">
<title>Node34&#45;&gt;Node119</title>
<path fill="none" stroke="#191970" d="M2309.0416,-187.9967C2421.1079,-185.0076 2731.0084,-174.3307 2987,-143 2990.179,-142.6109 2993.4523,-142.156 2996.7428,-141.6586"/>
<polygon fill="#191970" stroke="#191970" points="2308.7281,-184.5036 2298.8225,-188.2624 2308.9101,-191.5012 2308.7281,-184.5036"/>
</g>
<!-- Node120 -->
<g id="node36" class="node">
<title>Node120</title>
<g id="a_node36"><a xlink:href="_rayleigh_taylor_8cpp.html" target="_top" xlink:title="RayleighTaylor.cpp">
<polygon fill="#ffffff" stroke="#000000" points="3105.5,-123.5 3105.5,-142.5 3206.5,-142.5 3206.5,-123.5 3105.5,-123.5"/>
<text text-anchor="middle" x="3156" y="-130.5" font-family="Helvetica,sans-Serif" font-size="10.00" fill="#000000">RayleighTaylor.cpp</text>
</a>
</g>
</g>
<!-- Node34&#45;&gt;Node120 -->
<g id="edge43" class="edge">
<title>Node34&#45;&gt;Node120</title>
<path fill="none" stroke="#191970" d="M2308.6414,-188.2876C2431.3275,-185.883 2795.6367,-176.252 3096,-143 3099.0439,-142.663 3102.1681,-142.2741 3105.3154,-141.8492"/>
<polygon fill="#191970" stroke="#191970" points="2308.469,-184.7902 2298.5374,-188.4799 2308.6023,-191.7889 2308.469,-184.7902"/>
</g>
<!-- Node121 -->
<g id="node37" class="node">
<title>Node121</title>
<g id="a_node37"><a xlink:href="_taylor_green_vortex_8cpp.html" target="_top" xlink:title="TaylorGreenVortex.cpp">
<polygon fill="#ffffff" stroke="#000000" points="3224.5,-123.5 3224.5,-142.5 3341.5,-142.5 3341.5,-123.5 3224.5,-123.5"/>
<text text-anchor="middle" x="3283" y="-130.5" font-family="Helvetica,sans-Serif" font-size="10.00" fill="#000000">TaylorGreenVortex.cpp</text>
</a>
</g>
</g>
<!-- Node34&#45;&gt;Node121 -->
<g id="edge44" class="edge">
<title>Node34&#45;&gt;Node121</title>
<path fill="none" stroke="#191970" d="M2309.1419,-188.4065C2443.5403,-186.237 2866.543,-176.9853 3215,-143 3218.0878,-142.6988 3221.2498,-142.3557 3224.4391,-141.9822"/>
<polygon fill="#191970" stroke="#191970" points="2308.809,-184.9112 2298.8651,-188.5675 2308.9188,-191.9103 2308.809,-184.9112"/>
</g>
<!-- Node122 -->
<g id="node38" class="node">
<title>Node122</title>
<g id="a_node38"><a xlink:href="_turb_model_8_h.html" target="_top" xlink:title="TurbModel.H">
<polygon fill="#ffffff" stroke="#ff0000" points="3359.5,-123.5 3359.5,-142.5 3432.5,-142.5 3432.5,-123.5 3359.5,-123.5"/>
<text text-anchor="middle" x="3396" y="-130.5" font-family="Helvetica,sans-Serif" font-size="10.00" fill="#000000">TurbModel.H</text>
</a>
</g>
</g>
<!-- Node34&#45;&gt;Node122 -->
<g id="edge45" class="edge">
<title>Node34&#45;&gt;Node122</title>
<path fill="none" stroke="#191970" d="M2308.83,-188.1654C2483.5943,-184.6078 3143.2372,-169.6606 3350,-143 3353.0801,-142.6028 3356.2594,-142.1033 3359.4404,-141.5404"/>
<polygon fill="#191970" stroke="#191970" points="2308.6619,-184.6679 2298.7346,-188.3691 2308.8032,-191.6665 2308.6619,-184.6679"/>
</g>
<!-- Node125 -->
<g id="node39" class="node">
<title>Node125</title>
<g id="a_node39"><a xlink:href="turbulence__utils_8_h.html" target="_top" xlink:title="turbulence_utils.H">
<polygon fill="#ffffff" stroke="#000000" points="3450.5,-123.5 3450.5,-142.5 3545.5,-142.5 3545.5,-123.5 3450.5,-123.5"/>
<text text-anchor="middle" x="3498" y="-130.5" font-family="Helvetica,sans-Serif" font-size="10.00" fill="#000000">turbulence_utils.H</text>
</a>
</g>
</g>
<!-- Node34&#45;&gt;Node125 -->
<g id="edge46" class="edge">
<title>Node34&#45;&gt;Node125</title>
<path fill="none" stroke="#191970" d="M2308.7509,-188.0983C2492.3503,-184.1069 3214.8639,-167.1521 3441,-143 3444.0969,-142.6692 3447.2797,-142.2719 3450.482,-141.8291"/>
<polygon fill="#191970" stroke="#191970" points="2308.5973,-184.6007 2298.6753,-188.316 2308.7486,-191.5991 2308.5973,-184.6007"/>
</g>
<!-- Node130 -->
<g id="node40" class="node">
<title>Node130</title>
<g id="a_node40"><a xlink:href="_derived_quantity_8_h.html" target="_top" xlink:title="DerivedQuantity.H">
<polygon fill="#ffffff" stroke="#ff0000" points="3602,-123.5 3602,-142.5 3700,-142.5 3700,-123.5 3602,-123.5"/>
<text text-anchor="middle" x="3651" y="-130.5" font-family="Helvetica,sans-Serif" font-size="10.00" fill="#000000">DerivedQuantity.H</text>
</a>
</g>
</g>
<!-- Node34&#45;&gt;Node130 -->
<g id="edge47" class="edge">
<title>Node34&#45;&gt;Node130</title>
<path fill="none" stroke="#191970" d="M2308.8313,-188.2175C2506.4124,-184.499 3331.1298,-167.7613 3588,-143 3592.5196,-142.5643 3597.2074,-142.0117 3601.8937,-141.3908"/>
<polygon fill="#191970" stroke="#191970" points="2308.5026,-184.7229 2298.5699,-188.4095 2308.6337,-191.7217 2308.5026,-184.7229"/>
</g>
<!-- Node133 -->
<g id="node41" class="node">
<title>Node133</title>
<g id="a_node41"><a xlink:href="_i_o_manager_8cpp.html" target="_top" xlink:title="IOManager.cpp">
<polygon fill="#ffffff" stroke="#000000" points="3570.5,-62 3570.5,-81 3653.5,-81 3653.5,-62 3570.5,-62"/>
<text text-anchor="middle" x="3612" y="-69" font-family="Helvetica,sans-Serif" font-size="10.00" fill="#000000">IOManager.cpp</text>
</a>
</g>
</g>
<!-- Node34&#45;&gt;Node133 -->
<g id="edge49" class="edge">
<title>Node34&#45;&gt;Node133</title>
<path fill="none" stroke="#191970" d="M2308.8533,-188.4639C2526.0379,-185.6213 3497.1102,-171.3622 3554,-143 3580.8927,-129.5927 3599.5665,-97.317 3607.5895,-81.1164"/>
<polygon fill="#191970" stroke="#191970" points="2308.7503,-184.9648 2298.7966,-188.5944 2308.8412,-191.9642 2308.7503,-184.9648"/>
</g>
<!-- Node135 -->
<g id="node42" class="node">
<title>Node135</title>
<g id="a_node42"><a xlink:href="_post_processing_8cpp.html" target="_top" xlink:title="PostProcessing.cpp">
<polygon fill="#ffffff" stroke="#000000" points="3718,-123.5 3718,-142.5 3822,-142.5 3822,-123.5 3718,-123.5"/>
<text text-anchor="middle" x="3770" y="-130.5" font-family="Helvetica,sans-Serif" font-size="10.00" fill="#000000">PostProcessing.cpp</text>
</a>
</g>
</g>
<!-- Node34&#45;&gt;Node135 -->
<g id="edge50" class="edge">
<title>Node34&#45;&gt;Node135</title>
<path fill="none" stroke="#191970" d="M2308.9992,-188.3879C2517.7595,-185.3003 3427.0175,-170.4891 3709,-143 3711.8839,-142.7189 3714.838,-142.3858 3717.8154,-142.0149"/>
<polygon fill="#191970" stroke="#191970" points="2308.6999,-184.8919 2298.7524,-188.5384 2308.8027,-191.8911 2308.6999,-184.8919"/>
</g>
<!-- Node136 -->
<g id="node43" class="node">
<title>Node136</title>
<g id="a_node43"><a xlink:href="_line_sampler_8cpp.html" target="_top" xlink:title="LineSampler.cpp">
<polygon fill="#ffffff" stroke="#000000" points="3840.5,-123.5 3840.5,-142.5 3929.5,-142.5 3929.5,-123.5 3840.5,-123.5"/>
<text text-anchor="middle" x="3885" y="-130.5" font-family="Helvetica,sans-Serif" font-size="10.00" fill="#000000">LineSampler.cpp</text>
</a>
</g>
</g>
<!-- Node34&#45;&gt;Node136 -->
<g id="edge51" class="edge">
<title>Node34&#45;&gt;Node136</title>
<path fill="none" stroke="#191970" d="M2308.7251,-188.6331C2527.4739,-186.6192 3523.6838,-175.7751 3831,-143 3834.0338,-142.6764 3837.1529,-142.2775 3840.2886,-141.8272"/>
<polygon fill="#191970" stroke="#191970" points="2308.5774,-185.1342 2298.6096,-188.725 2308.641,-192.1339 2308.5774,-185.1342"/>
</g>
<!-- Node137 -->
<g id="node44" class="node">
<title>Node137</title>
<g id="a_node44"><a xlink:href="_probe_sampler_8cpp.html" target="_top" xlink:title="ProbeSampler.cpp">
<polygon fill="#ffffff" stroke="#000000" points="3947.5,-123.5 3947.5,-142.5 4044.5,-142.5 4044.5,-123.5 3947.5,-123.5"/>
<text text-anchor="middle" x="3996" y="-130.5" font-family="Helvetica,sans-Serif" font-size="10.00" fill="#000000">ProbeSampler.cpp</text>
</a>
</g>
</g>
<!-- Node34&#45;&gt;Node137 -->
<g id="edge52" class="edge">
<title>Node34&#45;&gt;Node137</title>
<path fill="none" stroke="#191970" d="M2308.7079,-188.6725C2536.342,-186.7979 3608.8923,-176.3146 3939,-143 3941.699,-142.7276 3944.4627,-142.4015 3947.2474,-142.0359"/>
<polygon fill="#191970" stroke="#191970" points="2308.4843,-185.1741 2298.5131,-188.7553 2308.5412,-192.1738 2308.4843,-185.1741"/>
</g>
<!-- Node138 -->
<g id="node45" class="node">
<title>Node138</title>
<g id="a_node45"><a xlink:href="_sampling_8_h.html" target="_top" xlink:title="Sampling.H">
<polygon fill="#ffffff" stroke="#ff0000" points="4063,-123.5 4063,-142.5 4131,-142.5 4131,-123.5 4063,-123.5"/>
<text text-anchor="middle" x="4097" y="-130.5" font-family="Helvetica,sans-Serif" font-size="10.00" fill="#000000">Sampling.H</text>
</a>
</g>
</g>
<!-- Node34&#45;&gt;Node138 -->
<g id="edge53" class="edge">
<title>Node34&#45;&gt;Node138</title>
<path fill="none" stroke="#191970" d="M2308.9575,-188.4169C2564.1868,-184.8831 3876.1734,-165.7259 4054,-143 4056.889,-142.6308 4059.8678,-142.1509 4062.846,-141.6012"/>
<polygon fill="#191970" stroke="#191970" points="2308.5708,-184.9218 2298.62,-188.5595 2308.6674,-191.9212 2308.5708,-184.9218"/>
</g>
<!-- Node140 -->
<g id="node46" class="node">
<title>Node140</title>
<g id="a_node46"><a xlink:href="_cart_box_refinement_8cpp.html" target="_top" xlink:title="CartBoxRefinement.cpp">
<polygon fill="#ffffff" stroke="#000000" points="4149,-123.5 4149,-142.5 4271,-142.5 4271,-123.5 4149,-123.5"/>
<text text-anchor="middle" x="4210" y="-130.5" font-family="Helvetica,sans-Serif" font-size="10.00" fill="#000000">CartBoxRefinement.cpp</text>
</a>
</g>
</g>
<!-- Node34&#45;&gt;Node140 -->
<g id="edge54" class="edge">
<title>Node34&#45;&gt;Node140</title>
<path fill="none" stroke="#191970" d="M2309.0529,-188.6308C2553.3291,-186.432 3767.3036,-174.0873 4140,-143 4142.9361,-142.7551 4145.9369,-142.4682 4148.9645,-142.1494"/>
<polygon fill="#191970" stroke="#191970" points="2308.7758,-185.1331 2298.8074,-188.7222 2308.8382,-192.1328 2308.7758,-185.1331"/>
</g>
<!-- Node141 -->
<g id="node47" class="node">
<title>Node141</title>
<g id="a_node47"><a xlink:href="_field_refinement_8cpp.html" target="_top" xlink:title="FieldRefinement.cpp">
<polygon fill="#ffffff" stroke="#000000" points="4289.5,-123.5 4289.5,-142.5 4396.5,-142.5 4396.5,-123.5 4289.5,-123.5"/>
<text text-anchor="middle" x="4343" y="-130.5" font-family="Helvetica,sans-Serif" font-size="10.00" fill="#000000">FieldRefinement.cpp</text>
</a>
</g>
</g>
<!-- Node34&#45;&gt;Node141 -->
<g id="edge55" class="edge">
<title>Node34&#45;&gt;Node141</title>
<path fill="none" stroke="#191970" d="M2308.9871,-188.8067C2563.7425,-187.5419 3878.0166,-179.3278 4280,-143 4283.0883,-142.7209 4286.2546,-142.3832 4289.4451,-142.0031"/>
<polygon fill="#191970" stroke="#191970" points="2308.6539,-185.3082 2298.6712,-188.857 2308.6881,-192.3081 2308.6539,-185.3082"/>
</g>
<!-- Node142 -->
<g id="node48" class="node">
<title>Node142</title>
<g id="a_node48"><a xlink:href="_geometry_refinement_8cpp.html" target="_top" xlink:title="GeometryRefinement.cpp">
<polygon fill="#ffffff" stroke="#000000" points="4415,-123.5 4415,-142.5 4543,-142.5 4543,-123.5 4415,-123.5"/>
<text text-anchor="middle" x="4479" y="-130.5" font-family="Helvetica,sans-Serif" font-size="10.00" fill="#000000">GeometryRefinement.cpp</text>
</a>
</g>
</g>
<!-- Node34&#45;&gt;Node142 -->
<g id="edge56" class="edge">
<title>Node34&#45;&gt;Node142</title>
<path fill="none" stroke="#191970" d="M2309.1283,-188.7481C2573.4412,-187.1025 3977.1175,-176.8728 4406,-143 4408.933,-142.7684 4411.9283,-142.4976 4414.9509,-142.1967"/>
<polygon fill="#191970" stroke="#191970" points="2308.7777,-185.2501 2298.7995,-188.8116 2308.8209,-192.25 2308.7777,-185.2501"/>
</g>
<!-- Node143 -->
<g id="node49" class="node">
<title>Node143</title>
<g id="a_node49"><a xlink:href="_overset_refinement_8cpp.html" target="_top" xlink:title="OversetRefinement.cpp">
<polygon fill="#ffffff" stroke="#000000" points="4561,-123.5 4561,-142.5 4681,-142.5 4681,-123.5 4561,-123.5"/>
<text text-anchor="middle" x="4621" y="-130.5" font-family="Helvetica,sans-Serif" font-size="10.00" fill="#000000">OversetRefinement.cpp</text>
</a>
</g>
</g>
<!-- Node34&#45;&gt;Node143 -->
<g id="edge57" class="edge">
<title>Node34&#45;&gt;Node143</title>
<path fill="none" stroke="#191970" d="M2308.9971,-188.8627C2583.3558,-187.8772 4092.298,-180.7907 4552,-143 4554.8953,-142.762 4557.8541,-142.4807 4560.8392,-142.1664"/>
<polygon fill="#191970" stroke="#191970" points="2308.6552,-185.3638 2298.6676,-188.899 2308.6798,-192.3638 2308.6552,-185.3638"/>
</g>
<!-- Node144 -->
<g id="node50" class="node">
<title>Node144</title>
<g id="a_node50"><a xlink:href="_refinement_criteria_8cpp.html" target="_top" xlink:title="RefinementCriteria.cpp">
<polygon fill="#ffffff" stroke="#000000" points="4699.5,-123.5 4699.5,-142.5 4816.5,-142.5 4816.5,-123.5 4699.5,-123.5"/>
<text text-anchor="middle" x="4758" y="-130.5" font-family="Helvetica,sans-Serif" font-size="10.00" fill="#000000">RefinementCriteria.cpp</text>
</a>
</g>
</g>
<!-- Node34&#45;&gt;Node144 -->
<g id="edge58" class="edge">
<title>Node34&#45;&gt;Node144</title>
<path fill="none" stroke="#191970" d="M2308.8833,-188.9322C2592.4277,-188.3715 4201.0414,-183.4276 4690,-143 4693.0919,-142.7444 4696.2572,-142.4375 4699.449,-142.0924"/>
<polygon fill="#191970" stroke="#191970" points="2308.6011,-185.4326 2298.6078,-188.9517 2308.6145,-192.4326 2308.6011,-185.4326"/>
</g>
<!-- Node36 -->
<g id="node3" class="node">
<title>Node36</title>
<g id="a_node3"><a xlink:href="incflo__set__velocity__bcs_8cpp.html" target="_top" xlink:title="incflo_set_velocity\l_bcs.cpp">
<polygon fill="#ffffff" stroke="#000000" points="0,-56.5 0,-86.5 98,-86.5 98,-56.5 0,-56.5"/>
<text text-anchor="start" x="8" y="-74.5" font-family="Helvetica,sans-Serif" font-size="10.00" fill="#000000">incflo_set_velocity</text>
<text text-anchor="middle" x="49" y="-63.5" font-family="Helvetica,sans-Serif" font-size="10.00" fill="#000000">_bcs.cpp</text>
</a>
</g>
</g>
<!-- Node35&#45;&gt;Node36 -->
<g id="edge2" class="edge">
<title>Node35&#45;&gt;Node36</title>
<path fill="none" stroke="#191970" d="M122.8657,-117.8545C107.6714,-108.3193 88.137,-96.0605 72.9735,-86.5446"/>
<polygon fill="#191970" stroke="#191970" points="121.3568,-121.0397 131.6875,-123.3906 125.0777,-115.1105 121.3568,-121.0397"/>
</g>
<!-- Node37 -->
<g id="node4" class="node">
<title>Node37</title>
<g id="a_node4"><a xlink:href="derive_8cpp.html" target="_top" xlink:title="derive.cpp">
<polygon fill="#ffffff" stroke="#000000" points="116,-62 116,-81 178,-81 178,-62 116,-62"/>
<text text-anchor="middle" x="147" y="-69" font-family="Helvetica,sans-Serif" font-size="10.00" fill="#000000">derive.cpp</text>
</a>
</g>
</g>
<!-- Node35&#45;&gt;Node37 -->
<g id="edge3" class="edge">
<title>Node35&#45;&gt;Node37</title>
<path fill="none" stroke="#191970" d="M147,-113.2462C147,-102.5519 147,-89.814 147,-81.2449"/>
<polygon fill="#191970" stroke="#191970" points="143.5001,-113.3906 147,-123.3906 150.5001,-113.3907 143.5001,-113.3906"/>
</g>
<!-- Node54&#45;&gt;Node59 -->
<g id="edge5" class="edge">
<title>Node54&#45;&gt;Node59</title>
<path fill="none" stroke="#191970" d="M315.381,-55.6491C300.5164,-44.222 280.943,-29.1749 268.4122,-19.5419"/>
<polygon fill="#191970" stroke="#191970" points="313.4387,-58.5707 323.5,-61.8906 317.7051,-53.021 313.4387,-58.5707"/>
</g>
<!-- Node54&#45;&gt;Node61 -->
<g id="edge6" class="edge">
<title>Node54&#45;&gt;Node61</title>
<path fill="none" stroke="#191970" d="M351.292,-54.4007C361.285,-43.2268 373.9763,-29.0356 382.2851,-19.7449"/>
<polygon fill="#191970" stroke="#191970" points="348.6511,-52.1034 344.5938,-61.8906 353.8689,-56.7698 348.6511,-52.1034"/>
</g>
<!-- Node62&#45;&gt;Node54 -->
<g id="edge8" class="edge">
<title>Node62&#45;&gt;Node54</title>
<path fill="none" stroke="#191970" d="M304.7017,-115.2465C312.621,-104.1775 322.5101,-90.3552 329.0281,-81.2449"/>
<polygon fill="#191970" stroke="#191970" points="301.8472,-113.2212 298.875,-123.3906 307.5402,-117.2943 301.8472,-113.2212"/>
</g>
<!-- Node62&#45;&gt;Node59 -->
<g id="edge9" class="edge">
<title>Node62&#45;&gt;Node59</title>
<path fill="none" stroke="#191970" d="M284.375,-113.8462C281.2548,-105.6494 277.7416,-95.9273 275,-87 267.6433,-63.0446 261.1437,-34.2325 258.0008,-19.5772"/>
<polygon fill="#191970" stroke="#191970" points="281.1415,-115.1883 288.0295,-123.2386 287.6651,-112.65 281.1415,-115.1883"/>
</g>
<!-- Node68&#45;&gt;Node69 -->
<g id="edge11" class="edge">
<title>Node68&#45;&gt;Node69</title>
<path fill="none" stroke="#191970" d="M532.6328,-113.5832C529.6577,-102.8205 526.0873,-89.9042 523.6937,-81.2449"/>
<polygon fill="#191970" stroke="#191970" points="529.3059,-114.6846 535.3438,-123.3906 536.0529,-112.8195 529.3059,-114.6846"/>
</g>
<!-- Node73&#45;&gt;Node87 -->
<g id="edge15" class="edge">
<title>Node73&#45;&gt;Node87</title>
<path fill="none" stroke="#191970" d="M765.5503,-114.253C760.0598,-103.3606 753.3679,-90.0846 748.912,-81.2449"/>
<polygon fill="#191970" stroke="#191970" points="762.5296,-116.0363 770.1563,-123.3906 768.7804,-112.8855 762.5296,-116.0363"/>
</g>
<!-- Node107&#45;&gt;Node108 -->
<g id="edge27" class="edge">
<title>Node107&#45;&gt;Node108</title>
<path fill="none" stroke="#191970" d="M1978.6229,-113.9189C1973.8688,-103.0901 1968.1195,-89.9944 1964.2782,-81.2449"/>
<polygon fill="#191970" stroke="#191970" points="1975.5565,-115.6412 1982.7813,-123.3906 1981.966,-112.8272 1975.5565,-115.6412"/>
</g>
<!-- Node111&#45;&gt;Node112 -->
<g id="edge33" class="edge">
<title>Node111&#45;&gt;Node112</title>
<path fill="none" stroke="#191970" d="M2342.0769,-116.5482C2329.8007,-105.2798 2313.9345,-90.716 2303.6163,-81.2449"/>
<polygon fill="#191970" stroke="#191970" points="2339.7975,-119.2068 2349.5313,-123.3906 2344.531,-114.0499 2339.7975,-119.2068"/>
</g>
<!-- Node113&#45;&gt;Node114 -->
<g id="edge36" class="edge">
<title>Node113&#45;&gt;Node114</title>
<path fill="none" stroke="#191970" d="M2513.5203,-114.5857C2507.2865,-103.632 2499.6279,-90.1748 2494.5459,-81.2449"/>
<polygon fill="#191970" stroke="#191970" points="2510.5431,-116.4307 2518.5313,-123.3906 2516.6269,-112.9683 2510.5431,-116.4307"/>
</g>
<!-- Node130&#45;&gt;Node133 -->
<g id="edge48" class="edge">
<title>Node130&#45;&gt;Node133</title>
<path fill="none" stroke="#191970" d="M3639.5327,-114.9169C3632.5491,-103.9043 3623.8998,-90.265 3618.1797,-81.2449"/>
<polygon fill="#191970" stroke="#191970" points="3636.595,-116.8199 3644.9063,-123.3906 3642.5066,-113.0711 3636.595,-116.8199"/>
</g>
</g>
</svg>
