<?xml version="1.0" encoding="UTF-8" standalone="no"?>
<!DOCTYPE svg PUBLIC "-//W3C//DTD SVG 1.1//EN"
 "http://www.w3.org/Graphics/SVG/1.1/DTD/svg11.dtd">
<!-- Generated by graphviz version 2.40.1 (20161225.0304)
 -->
<!-- Title: CFDSim.H Pages: 1 -->
<svg width="4893pt" height="207pt"
 viewBox="0.00 0.00 4892.50 207.00" xmlns="http://www.w3.org/2000/svg" xmlns:xlink="http://www.w3.org/1999/xlink">
<g id="graph0" class="graph" transform="scale(1 1) rotate(0) translate(4 203)">
<title>CFDSim.H</title>
<polygon fill="#ffffff" stroke="transparent" points="-4,4 -4,-203 4888.5,-203 4888.5,4 -4,4"/>
<!-- Node34 -->
<g id="node1" class="node">
<title>Node34</title>
<polygon fill="#bfbfbf" stroke="#000000" points="2256.5,-179.5 2256.5,-198.5 2321.5,-198.5 2321.5,-179.5 2256.5,-179.5"/>
<text text-anchor="middle" x="2289" y="-186.5" font-family="Helvetica,sans-Serif" font-size="10.00" fill="#000000">CFDSim.H</text>
</g>
<!-- Node35 -->
<g id="node2" class="node">
<title>Node35</title>
<g id="a_node2"><a xlink:href="incflo_8_h.html" target="_top" xlink:title="incflo.H">
<polygon fill="#ffffff" stroke="#ff0000" points="36,-123.5 36,-142.5 86,-142.5 86,-123.5 36,-123.5"/>
<text text-anchor="middle" x="61" y="-130.5" font-family="Helvetica,sans-Serif" font-size="10.00" fill="#000000">incflo.H</text>
</a>
</g>
</g>
<!-- Node34&#45;&gt;Node35 -->
<g id="edge1" class="edge">
<title>Node34&#45;&gt;Node35</title>
<path fill="none" stroke="#191970" d="M2246.1285,-188.5395C1959.9517,-185.4063 331.2892,-166.637 112,-143 103.4777,-142.0814 94.2573,-140.4675 86.0306,-138.8008"/>
<polygon fill="#191970" stroke="#191970" points="2246.4585,-192.0432 2256.4962,-188.6525 2246.535,-185.0436 2246.4585,-192.0432"/>
</g>
<!-- Node54 -->
<g id="node4" class="node">
<title>Node54</title>
<g id="a_node4"><a xlink:href="_a_b_l_wall_function_8_h.html" target="_top" xlink:title="ABLWallFunction.H">
<polygon fill="#ffffff" stroke="#ff0000" points="154.5,-62 154.5,-81 257.5,-81 257.5,-62 154.5,-62"/>
<text text-anchor="middle" x="206" y="-69" font-family="Helvetica,sans-Serif" font-size="10.00" fill="#000000">ABLWallFunction.H</text>
</a>
</g>
</g>
<!-- Node34&#45;&gt;Node54 -->
<g id="edge3" class="edge">
<title>Node34&#45;&gt;Node54</title>
<path fill="none" stroke="#191970" d="M2245.779,-188.8861C1948.7692,-188.0034 220.402,-181.2279 183,-143 166.2207,-125.8502 185.4435,-96.4162 197.5836,-81.2162"/>
<polygon fill="#191970" stroke="#191970" points="2246.1184,-192.387 2256.1285,-188.9161 2246.1388,-185.387 2246.1184,-192.387"/>
</g>
<!-- Node59 -->
<g id="node5" class="node">
<title>Node59</title>
<g id="a_node5"><a xlink:href="_a_b_l_stats_8_h.html" target="_top" xlink:title="ABLStats.H">
<polygon fill="#ffffff" stroke="#ff0000" points="251.5,-.5 251.5,-19.5 320.5,-19.5 320.5,-.5 251.5,-.5"/>
<text text-anchor="middle" x="286" y="-7.5" font-family="Helvetica,sans-Serif" font-size="10.00" fill="#000000">ABLStats.H</text>
</a>
</g>
</g>
<!-- Node34&#45;&gt;Node59 -->
<g id="edge11" class="edge">
<title>Node34&#45;&gt;Node59</title>
<path fill="none" stroke="#191970" d="M2245.9908,-188.5801C1964.6033,-185.7596 396.4913,-168.8976 355,-143 309.3214,-114.4888 292.3998,-45.127 287.5955,-19.619"/>
<polygon fill="#191970" stroke="#191970" points="2246.1669,-192.0819 2256.2013,-188.6819 2246.2367,-185.0822 2246.1669,-192.0819"/>
</g>
<!-- Node61 -->
<g id="node6" class="node">
<title>Node61</title>
<g id="a_node6"><a xlink:href="_boussinesq_bubble_8cpp.html" target="_top" xlink:title="BoussinesqBubble.cpp">
<polygon fill="#ffffff" stroke="#000000" points="93,-.5 93,-19.5 209,-19.5 209,-.5 93,-.5"/>
<text text-anchor="middle" x="151" y="-7.5" font-family="Helvetica,sans-Serif" font-size="10.00" fill="#000000">BoussinesqBubble.cpp</text>
</a>
</g>
</g>
<!-- Node34&#45;&gt;Node61 -->
<g id="edge30" class="edge">
<title>Node34&#45;&gt;Node61</title>
<path fill="none" stroke="#191970" d="M2245.7473,-188.6757C1948.4988,-186.3724 218.4004,-171.7455 173,-143 131.8706,-116.9587 143.053,-45.4337 148.6924,-19.5274"/>
<polygon fill="#191970" stroke="#191970" points="2246.0783,-192.1782 2256.105,-188.7554 2246.1323,-185.1784 2246.0783,-192.1782"/>
</g>
<!-- Node62 -->
<g id="node7" class="node">
<title>Node62</title>
<g id="a_node7"><a xlink:href="_field_plane_averaging_8_h.html" target="_top" xlink:title="FieldPlaneAveraging.H">
<polygon fill="#ffffff" stroke="#ff0000" points="192,-123.5 192,-142.5 308,-142.5 308,-123.5 192,-123.5"/>
<text text-anchor="middle" x="250" y="-130.5" font-family="Helvetica,sans-Serif" font-size="10.00" fill="#000000">FieldPlaneAveraging.H</text>
</a>
</g>
</g>
<!-- Node34&#45;&gt;Node62 -->
<g id="edge6" class="edge">
<title>Node34&#45;&gt;Node62</title>
<path fill="none" stroke="#191970" d="M2246.225,-188.6679C1995.5295,-186.6207 714.5051,-174.7417 322,-143 317.4716,-142.6338 312.793,-142.1728 308.0959,-141.651"/>
<polygon fill="#191970" stroke="#191970" points="2246.3562,-192.169 2256.3843,-188.7501 2246.4129,-185.1692 2246.3562,-192.169"/>
</g>
<!-- Node68 -->
<g id="node8" class="node">
<title>Node68</title>
<g id="a_node8"><a xlink:href="_a_b_l_boundary_plane_8_h.html" target="_top" xlink:title="ABLBoundaryPlane.H">
<polygon fill="#ffffff" stroke="#ff0000" points="364,-123.5 364,-142.5 476,-142.5 476,-123.5 364,-123.5"/>
<text text-anchor="middle" x="420" y="-130.5" font-family="Helvetica,sans-Serif" font-size="10.00" fill="#000000">ABLBoundaryPlane.H</text>
</a>
</g>
</g>
<!-- Node34&#45;&gt;Node68 -->
<g id="edge9" class="edge">
<title>Node34&#45;&gt;Node68</title>
<path fill="none" stroke="#191970" d="M2246.1785,-188.5824C2008.2721,-186.1597 847.0222,-172.9638 490,-143 485.4737,-142.6201 480.7936,-142.1412 476.0986,-141.5997"/>
<polygon fill="#191970" stroke="#191970" points="2246.4525,-192.0853 2256.4873,-188.6865 2246.5232,-185.0856 2246.4525,-192.0853"/>
</g>
<!-- Node69 -->
<g id="node9" class="node">
<title>Node69</title>
<g id="a_node9"><a xlink:href="_a_b_l_boundary_plane_8cpp.html" target="_top" xlink:title="ABLBoundaryPlane.cpp">
<polygon fill="#ffffff" stroke="#000000" points="404,-62 404,-81 524,-81 524,-62 404,-62"/>
<text text-anchor="middle" x="464" y="-69" font-family="Helvetica,sans-Serif" font-size="10.00" fill="#000000">ABLBoundaryPlane.cpp</text>
</a>
</g>
</g>
<!-- Node34&#45;&gt;Node69 -->
<g id="edge59" class="edge">
<title>Node34&#45;&gt;Node69</title>
<path fill="none" stroke="#191970" d="M2245.9015,-188.8855C1982.9053,-188.0608 602.7958,-181.8876 523,-143 495.8017,-129.7452 476.7318,-97.398 468.52,-81.1487"/>
<polygon fill="#191970" stroke="#191970" points="2246.177,-192.3862 2256.1876,-188.9167 2246.1984,-185.3862 2246.177,-192.3862"/>
</g>
<!-- Node72 -->
<g id="node10" class="node">
<title>Node72</title>
<g id="a_node10"><a xlink:href="_c_f_d_sim_8cpp.html" target="_top" xlink:title="CFDSim.cpp">
<polygon fill="#ffffff" stroke="#000000" points="532,-123.5 532,-142.5 606,-142.5 606,-123.5 532,-123.5"/>
<text text-anchor="middle" x="569" y="-130.5" font-family="Helvetica,sans-Serif" font-size="10.00" fill="#000000">CFDSim.cpp</text>
</a>
</g>
</g>
<!-- Node34&#45;&gt;Node72 -->
<g id="edge12" class="edge">
<title>Node34&#45;&gt;Node72</title>
<path fill="none" stroke="#191970" d="M2246.2408,-188.9058C2018.3366,-188.2396 944.5647,-182.995 615,-143 612.0793,-142.6456 609.0703,-142.193 606.0558,-141.677"/>
<polygon fill="#191970" stroke="#191970" points="2246.4379,-192.4063 2256.4476,-188.9342 2246.4574,-185.4063 2246.4379,-192.4063"/>
</g>
<!-- Node73 -->
<g id="node11" class="node">
<title>Node73</title>
<g id="a_node11"><a xlink:href="_p_d_e_ops_8_h.html" target="_top" xlink:title="PDEOps.H">
<polygon fill="#ffffff" stroke="#ff0000" points="624,-123.5 624,-142.5 690,-142.5 690,-123.5 624,-123.5"/>
<text text-anchor="middle" x="657" y="-130.5" font-family="Helvetica,sans-Serif" font-size="10.00" fill="#000000">PDEOps.H</text>
</a>
</g>
</g>
<!-- Node34&#45;&gt;Node73 -->
<g id="edge13" class="edge">
<title>Node34&#45;&gt;Node73</title>
<path fill="none" stroke="#191970" d="M2246.0705,-188.803C2025.1728,-187.6296 1014.9476,-180.2815 704,-143 699.5272,-142.4637 694.85,-141.7087 690.2539,-140.8512"/>
<polygon fill="#191970" stroke="#191970" points="2246.2639,-192.3039 2256.2818,-188.8558 2246.3001,-185.304 2246.2639,-192.3039"/>
</g>
<!-- Node87 -->
<g id="node12" class="node">
<title>Node87</title>
<g id="a_node12"><a xlink:href="_p_d_e_8_h.html" target="_top" xlink:title="PDE.H">
<polygon fill="#ffffff" stroke="#ff0000" points="663,-62 663,-81 711,-81 711,-62 663,-62"/>
<text text-anchor="middle" x="687" y="-69" font-family="Helvetica,sans-Serif" font-size="10.00" fill="#000000">PDE.H</text>
</a>
</g>
</g>
<!-- Node34&#45;&gt;Node87 -->
<g id="edge15" class="edge">
<title>Node34&#45;&gt;Node87</title>
<path fill="none" stroke="#191970" d="M2246.1976,-188.8116C2003.1566,-187.6069 805.1809,-179.8135 737,-143 711.9424,-129.4705 696.7228,-97.252 690.4054,-81.0906"/>
<polygon fill="#191970" stroke="#191970" points="2246.38,-192.3125 2256.3969,-188.8611 2246.414,-185.3125 2246.38,-192.3125"/>
</g>
<!-- Node56 -->
<g id="node13" class="node">
<title>Node56</title>
<g id="a_node13"><a xlink:href="_a_b_l_forcing_8cpp.html" target="_top" xlink:title="ABLForcing.cpp">
<polygon fill="#ffffff" stroke="#000000" points="746,-123.5 746,-142.5 832,-142.5 832,-123.5 746,-123.5"/>
<text text-anchor="middle" x="789" y="-130.5" font-family="Helvetica,sans-Serif" font-size="10.00" fill="#000000">ABLForcing.cpp</text>
</a>
</g>
</g>
<!-- Node34&#45;&gt;Node56 -->
<g id="edge16" class="edge">
<title>Node34&#45;&gt;Node56</title>
<path fill="none" stroke="#191970" d="M2246.1762,-188.5544C2037.2657,-186.2409 1123.7079,-174.4737 841,-143 838.0762,-142.6745 835.0709,-142.2741 832.0501,-141.8227"/>
<polygon fill="#191970" stroke="#191970" points="2246.3894,-192.0569 2256.4271,-188.6666 2246.466,-185.0573 2246.3894,-192.0569"/>
</g>
<!-- Node57 -->
<g id="node14" class="node">
<title>Node57</title>
<g id="a_node14"><a xlink:href="_a_b_l_mean_boussinesq_8cpp.html" target="_top" xlink:title="ABLMeanBoussinesq.cpp">
<polygon fill="#ffffff" stroke="#000000" points="850.5,-123.5 850.5,-142.5 979.5,-142.5 979.5,-123.5 850.5,-123.5"/>
<text text-anchor="middle" x="915" y="-130.5" font-family="Helvetica,sans-Serif" font-size="10.00" fill="#000000">ABLMeanBoussinesq.cpp</text>
</a>
</g>
</g>
<!-- Node34&#45;&gt;Node57 -->
<g id="edge17" class="edge">
<title>Node34&#45;&gt;Node57</title>
<path fill="none" stroke="#191970" d="M2246.2207,-188.0685C2050.6942,-183.7217 1240.7573,-164.7249 988,-143 985.3236,-142.77 982.595,-142.5104 979.8409,-142.2276"/>
<polygon fill="#191970" stroke="#191970" points="2246.3068,-191.5712 2256.3818,-188.2935 2246.4618,-184.5729 2246.3068,-191.5712"/>
</g>
<!-- Node100 -->
<g id="node15" class="node">
<title>Node100</title>
<g id="a_node15"><a xlink:href="_body_force_8cpp.html" target="_top" xlink:title="BodyForce.cpp">
<polygon fill="#ffffff" stroke="#000000" points="997.5,-123.5 997.5,-142.5 1080.5,-142.5 1080.5,-123.5 997.5,-123.5"/>
<text text-anchor="middle" x="1039" y="-130.5" font-family="Helvetica,sans-Serif" font-size="10.00" fill="#000000">BodyForce.cpp</text>
</a>
</g>
</g>
<!-- Node34&#45;&gt;Node100 -->
<g id="edge18" class="edge">
<title>Node34&#45;&gt;Node100</title>
<path fill="none" stroke="#191970" d="M2246.2868,-188.2516C2060.3972,-184.8573 1320.8818,-169.8994 1090,-143 1086.9529,-142.645 1083.8155,-142.2079 1080.6657,-141.7168"/>
<polygon fill="#191970" stroke="#191970" points="2246.4172,-191.7544 2256.479,-188.4362 2246.544,-184.7555 2246.4172,-191.7544"/>
</g>
<!-- Node101 -->
<g id="node16" class="node">
<title>Node101</title>
<g id="a_node16"><a xlink:href="_boussinesq_buoyancy_8cpp.html" target="_top" xlink:title="BoussinesqBuoyancy.cpp">
<polygon fill="#ffffff" stroke="#000000" points="1099,-123.5 1099,-142.5 1229,-142.5 1229,-123.5 1099,-123.5"/>
<text text-anchor="middle" x="1164" y="-130.5" font-family="Helvetica,sans-Serif" font-size="10.00" fill="#000000">BoussinesqBuoyancy.cpp</text>
</a>
</g>
</g>
<!-- Node34&#45;&gt;Node101 -->
<g id="edge19" class="edge">
<title>Node34&#45;&gt;Node101</title>
<path fill="none" stroke="#191970" d="M2246.1176,-188.515C2102.9495,-186.5988 1628.4456,-177.8538 1238,-143 1235.1592,-142.7464 1232.2602,-142.4626 1229.3339,-142.1555"/>
<polygon fill="#191970" stroke="#191970" points="2246.1924,-192.0162 2256.237,-188.6463 2246.2833,-185.0168 2246.1924,-192.0162"/>
</g>
<!-- Node102 -->
<g id="node17" class="node">
<title>Node102</title>
<g id="a_node17"><a xlink:href="_coriolis_forcing_8cpp.html" target="_top" xlink:title="CoriolisForcing.cpp">
<polygon fill="#ffffff" stroke="#000000" points="1247.5,-123.5 1247.5,-142.5 1348.5,-142.5 1348.5,-123.5 1247.5,-123.5"/>
<text text-anchor="middle" x="1298" y="-130.5" font-family="Helvetica,sans-Serif" font-size="10.00" fill="#000000">CoriolisForcing.cpp</text>
</a>
</g>
</g>
<!-- Node34&#45;&gt;Node102 -->
<g id="edge20" class="edge">
<title>Node34&#45;&gt;Node102</title>
<path fill="none" stroke="#191970" d="M2246.1414,-188.6898C2113.5544,-187.3437 1698.4356,-180.2285 1357,-143 1354.3147,-142.7072 1351.5663,-142.3707 1348.7953,-142.0025"/>
<polygon fill="#191970" stroke="#191970" points="2246.2515,-192.1909 2256.2846,-188.7869 2246.3186,-185.1912 2246.2515,-192.1909"/>
</g>
<!-- Node103 -->
<g id="node18" class="node">
<title>Node103</title>
<g id="a_node18"><a xlink:href="_density_buoyancy_8cpp.html" target="_top" xlink:title="DensityBuoyancy.cpp">
<polygon fill="#ffffff" stroke="#000000" points="1366.5,-123.5 1366.5,-142.5 1479.5,-142.5 1479.5,-123.5 1366.5,-123.5"/>
<text text-anchor="middle" x="1423" y="-130.5" font-family="Helvetica,sans-Serif" font-size="10.00" fill="#000000">DensityBuoyancy.cpp</text>
</a>
</g>
</g>
<!-- Node34&#45;&gt;Node103 -->
<g id="edge21" class="edge">
<title>Node34&#45;&gt;Node103</title>
<path fill="none" stroke="#191970" d="M2245.9006,-187.9305C2125.7748,-184.6459 1777.1041,-173.0434 1489,-143 1486.0031,-142.6875 1482.9341,-142.3353 1479.8387,-141.9547"/>
<polygon fill="#191970" stroke="#191970" points="2246.0544,-191.4358 2256.1447,-188.2054 2246.2423,-184.4383 2246.0544,-191.4358"/>
</g>
<!-- Node104 -->
<g id="node19" class="node">
<title>Node104</title>
<g id="a_node19"><a xlink:href="_geostrophic_forcing_8cpp.html" target="_top" xlink:title="GeostrophicForcing.cpp">
<polygon fill="#ffffff" stroke="#000000" points="1498,-123.5 1498,-142.5 1618,-142.5 1618,-123.5 1498,-123.5"/>
<text text-anchor="middle" x="1558" y="-130.5" font-family="Helvetica,sans-Serif" font-size="10.00" fill="#000000">GeostrophicForcing.cpp</text>
</a>
</g>
</g>
<!-- Node34&#45;&gt;Node104 -->
<g id="edge22" class="edge">
<title>Node34&#45;&gt;Node104</title>
<path fill="none" stroke="#191970" d="M2245.9472,-187.1219C2140.2948,-182.2709 1859.851,-167.9282 1627,-143 1624.1115,-142.6908 1621.1581,-142.3516 1618.1774,-141.9909"/>
<polygon fill="#191970" stroke="#191970" points="2246.0565,-190.6304 2256.2051,-187.5882 2246.3744,-183.6376 2246.0565,-190.6304"/>
</g>
<!-- Node105 -->
<g id="node20" class="node">
<title>Node105</title>
<g id="a_node20"><a xlink:href="_p_d_e_base_8cpp.html" target="_top" xlink:title="PDEBase.cpp">
<polygon fill="#ffffff" stroke="#000000" points="1636.5,-123.5 1636.5,-142.5 1715.5,-142.5 1715.5,-123.5 1636.5,-123.5"/>
<text text-anchor="middle" x="1676" y="-130.5" font-family="Helvetica,sans-Serif" font-size="10.00" fill="#000000">PDEBase.cpp</text>
</a>
</g>
</g>
<!-- Node34&#45;&gt;Node105 -->
<g id="edge23" class="edge">
<title>Node34&#45;&gt;Node105</title>
<path fill="none" stroke="#191970" d="M2246.4103,-187.2728C2152.0859,-183.0657 1918.589,-170.5472 1725,-143 1721.9055,-142.5597 1718.7124,-142.0454 1715.5096,-141.4868"/>
<polygon fill="#191970" stroke="#191970" points="2246.2784,-190.7702 2256.422,-187.7112 2246.5847,-183.7769 2246.2784,-190.7702"/>
</g>
<!-- Node106 -->
<g id="node21" class="node">
<title>Node106</title>
<g id="a_node21"><a xlink:href="_ksgs_m84_src_8cpp.html" target="_top" xlink:title="KsgsM84Src.cpp">
<polygon fill="#ffffff" stroke="#000000" points="1734,-123.5 1734,-142.5 1826,-142.5 1826,-123.5 1734,-123.5"/>
<text text-anchor="middle" x="1780" y="-130.5" font-family="Helvetica,sans-Serif" font-size="10.00" fill="#000000">KsgsM84Src.cpp</text>
</a>
</g>
</g>
<!-- Node34&#45;&gt;Node106 -->
<g id="edge24" class="edge">
<title>Node34&#45;&gt;Node106</title>
<path fill="none" stroke="#191970" d="M2246.1568,-185.7927C2165.4644,-179.5008 1985.5207,-164.2754 1835,-143 1832.1171,-142.5925 1829.1546,-142.1432 1826.1707,-141.6675"/>
<polygon fill="#191970" stroke="#191970" points="2246.1736,-189.3044 2256.4137,-186.5859 2246.7134,-182.3252 2246.1736,-189.3044"/>
</g>
<!-- Node107 -->
<g id="node22" class="node">
<title>Node107</title>
<g id="a_node22"><a xlink:href="_m_m_s_8_h.html" target="_top" xlink:title="MMS.H">
<polygon fill="#ffffff" stroke="#000000" points="1844,-123.5 1844,-142.5 1894,-142.5 1894,-123.5 1844,-123.5"/>
<text text-anchor="middle" x="1869" y="-130.5" font-family="Helvetica,sans-Serif" font-size="10.00" fill="#000000">MMS.H</text>
</a>
</g>
</g>
<!-- Node34&#45;&gt;Node107 -->
<g id="edge25" class="edge">
<title>Node34&#45;&gt;Node107</title>
<path fill="none" stroke="#191970" d="M2246.1142,-185.6647C2175.2898,-179.7454 2029.6111,-165.831 1908,-143 1903.4659,-142.1488 1898.6775,-141.0718 1894.0672,-139.942"/>
<polygon fill="#191970" stroke="#191970" points="2246.1627,-189.1805 2256.4163,-186.5133 2246.7374,-182.2041 2246.1627,-189.1805"/>
</g>
<!-- Node108 -->
<g id="node23" class="node">
<title>Node108</title>
<g id="a_node23"><a xlink:href="_m_m_s_8cpp.html" target="_top" xlink:title="MMS.cpp">
<polygon fill="#ffffff" stroke="#000000" points="1865.5,-62 1865.5,-81 1924.5,-81 1924.5,-62 1865.5,-62"/>
<text text-anchor="middle" x="1895" y="-69" font-family="Helvetica,sans-Serif" font-size="10.00" fill="#000000">MMS.cpp</text>
</a>
</g>
</g>
<!-- Node34&#45;&gt;Node108 -->
<g id="edge27" class="edge">
<title>Node34&#45;&gt;Node108</title>
<path fill="none" stroke="#191970" d="M2245.8794,-187.7635C2164.2388,-184.708 1990.8053,-174.5918 1941,-143 1917.6918,-128.2155 1903.8905,-96.8789 1898.1441,-81.0606"/>
<polygon fill="#191970" stroke="#191970" points="2246.1833,-191.2764 2256.3013,-188.1336 2246.4319,-184.2808 2246.1833,-191.2764"/>
</g>
<!-- Node109 -->
<g id="node24" class="node">
<title>Node109</title>
<g id="a_node24"><a xlink:href="_m_m_s_forcing_8cpp.html" target="_top" xlink:title="MMSForcing.cpp">
<polygon fill="#ffffff" stroke="#000000" points="1950.5,-123.5 1950.5,-142.5 2041.5,-142.5 2041.5,-123.5 1950.5,-123.5"/>
<text text-anchor="middle" x="1996" y="-130.5" font-family="Helvetica,sans-Serif" font-size="10.00" fill="#000000">MMSForcing.cpp</text>
</a>
</g>
</g>
<!-- Node34&#45;&gt;Node109 -->
<g id="edge28" class="edge">
<title>Node34&#45;&gt;Node109</title>
<path fill="none" stroke="#191970" d="M2246.2025,-180.8203C2191.6308,-170.3902 2097.6586,-152.4296 2041.7212,-141.7385"/>
<polygon fill="#191970" stroke="#191970" points="2245.7628,-184.2995 2256.242,-182.7391 2247.0769,-177.424 2245.7628,-184.2995"/>
</g>
<!-- Node110 -->
<g id="node25" class="node">
<title>Node110</title>
<g id="a_node25"><a xlink:href="_tioga_interface_8cpp.html" target="_top" xlink:title="TiogaInterface.cpp">
<polygon fill="#ffffff" stroke="#000000" points="2060,-123.5 2060,-142.5 2158,-142.5 2158,-123.5 2060,-123.5"/>
<text text-anchor="middle" x="2109" y="-130.5" font-family="Helvetica,sans-Serif" font-size="10.00" fill="#000000">TiogaInterface.cpp</text>
</a>
</g>
</g>
<!-- Node34&#45;&gt;Node110 -->
<g id="edge29" class="edge">
<title>Node34&#45;&gt;Node110</title>
<path fill="none" stroke="#191970" d="M2248.2541,-176.3235C2215.2437,-166.0536 2169.4583,-151.8093 2139.5393,-142.5011"/>
<polygon fill="#191970" stroke="#191970" points="2247.4686,-179.7445 2258.0569,-179.3733 2249.5481,-173.0605 2247.4686,-179.7445"/>
</g>
<!-- Node111 -->
<g id="node26" class="node">
<title>Node111</title>
<g id="a_node26"><a xlink:href="_convecting_taylor_vortex_8_h.html" target="_top" xlink:title="ConvectingTaylorVortex.H">
<polygon fill="#ffffff" stroke="#000000" points="2176,-123.5 2176,-142.5 2308,-142.5 2308,-123.5 2176,-123.5"/>
<text text-anchor="middle" x="2242" y="-130.5" font-family="Helvetica,sans-Serif" font-size="10.00" fill="#000000">ConvectingTaylorVortex.H</text>
</a>
</g>
</g>
<!-- Node34&#45;&gt;Node111 -->
<g id="edge31" class="edge">
<title>Node34&#45;&gt;Node111</title>
<path fill="none" stroke="#191970" d="M2274.3128,-171.5004C2266.3204,-161.9775 2256.7375,-150.5596 2250.093,-142.6427"/>
<polygon fill="#191970" stroke="#191970" points="2271.7036,-173.8358 2280.8132,-179.2455 2277.0654,-169.3357 2271.7036,-173.8358"/>
</g>
<!-- Node112 -->
<g id="node27" class="node">
<title>Node112</title>
<g id="a_node27"><a xlink:href="_convecting_taylor_vortex_8cpp.html" target="_top" xlink:title="ConvectingTaylorVortex.cpp">
<polygon fill="#ffffff" stroke="#000000" points="2187,-62 2187,-81 2327,-81 2327,-62 2187,-62"/>
<text text-anchor="middle" x="2257" y="-69" font-family="Helvetica,sans-Serif" font-size="10.00" fill="#000000">ConvectingTaylorVortex.cpp</text>
</a>
</g>
</g>
<!-- Node34&#45;&gt;Node112 -->
<g id="edge33" class="edge">
<title>Node34&#45;&gt;Node112</title>
<path fill="none" stroke="#191970" d="M2304.9497,-171.1533C2314.8598,-157.8022 2324.4181,-139.1431 2317,-123 2308.4021,-104.2895 2289.2805,-89.8242 2274.9195,-81.0531"/>
<polygon fill="#191970" stroke="#191970" points="2302.111,-169.0979 2298.5615,-179.0805 2307.5615,-173.4903 2302.111,-169.0979"/>
</g>
<!-- Node113 -->
<g id="node28" class="node">
<title>Node113</title>
<g id="a_node28"><a xlink:href="_ekman_spiral_8_h.html" target="_top" xlink:title="EkmanSpiral.H">
<polygon fill="#ffffff" stroke="#000000" points="2364.5,-123.5 2364.5,-142.5 2447.5,-142.5 2447.5,-123.5 2364.5,-123.5"/>
<text text-anchor="middle" x="2406" y="-130.5" font-family="Helvetica,sans-Serif" font-size="10.00" fill="#000000">EkmanSpiral.H</text>
</a>
</g>
</g>
<!-- Node34&#45;&gt;Node113 -->
<g id="edge34" class="edge">
<title>Node34&#45;&gt;Node113</title>
<path fill="none" stroke="#191970" d="M2318.3042,-174.9741C2339.488,-164.8348 2367.5403,-151.408 2386.1494,-142.5011"/>
<polygon fill="#191970" stroke="#191970" points="2316.622,-171.8989 2309.113,-179.3733 2319.6441,-178.2129 2316.622,-171.8989"/>
</g>
<!-- Node114 -->
<g id="node29" class="node">
<title>Node114</title>
<g id="a_node29"><a xlink:href="_ekman_spiral_8cpp.html" target="_top" xlink:title="EkmanSpiral.cpp">
<polygon fill="#ffffff" stroke="#000000" points="2395.5,-62 2395.5,-81 2486.5,-81 2486.5,-62 2395.5,-62"/>
<text text-anchor="middle" x="2441" y="-69" font-family="Helvetica,sans-Serif" font-size="10.00" fill="#000000">EkmanSpiral.cpp</text>
</a>
</g>
</g>
<!-- Node34&#45;&gt;Node114 -->
<g id="edge36" class="edge">
<title>Node34&#45;&gt;Node114</title>
<path fill="none" stroke="#191970" d="M2331.4939,-183.1937C2375.8283,-176.1625 2440.9529,-162.7521 2456,-143 2469.9885,-124.6374 2456.5056,-96.2457 2447.542,-81.3661"/>
<polygon fill="#191970" stroke="#191970" points="2330.8989,-179.744 2321.5456,-184.7206 2331.9609,-186.6629 2330.8989,-179.744"/>
</g>
<!-- Node115 -->
<g id="node30" class="node">
<title>Node115</title>
<g id="a_node30"><a xlink:href="_free_stream_8cpp.html" target="_top" xlink:title="FreeStream.cpp">
<polygon fill="#ffffff" stroke="#000000" points="2504,-123.5 2504,-142.5 2590,-142.5 2590,-123.5 2504,-123.5"/>
<text text-anchor="middle" x="2547" y="-130.5" font-family="Helvetica,sans-Serif" font-size="10.00" fill="#000000">FreeStream.cpp</text>
</a>
</g>
</g>
<!-- Node34&#45;&gt;Node115 -->
<g id="edge37" class="edge">
<title>Node34&#45;&gt;Node115</title>
<path fill="none" stroke="#191970" d="M2331.6731,-179.7376C2379.324,-169.3948 2456.02,-152.7476 2503.8597,-142.3638"/>
<polygon fill="#191970" stroke="#191970" points="2330.7059,-176.366 2321.6759,-181.9076 2332.1908,-183.2067 2330.7059,-176.366"/>
</g>
<!-- Node116 -->
<g id="node31" class="node">
<title>Node116</title>
<g id="a_node31"><a xlink:href="_dam_break_8cpp.html" target="_top" xlink:title="DamBreak.cpp">
<polygon fill="#ffffff" stroke="#000000" points="2608,-123.5 2608,-142.5 2690,-142.5 2690,-123.5 2608,-123.5"/>
<text text-anchor="middle" x="2649" y="-130.5" font-family="Helvetica,sans-Serif" font-size="10.00" fill="#000000">DamBreak.cpp</text>
</a>
</g>
</g>
<!-- Node34&#45;&gt;Node116 -->
<g id="edge38" class="edge">
<title>Node34&#45;&gt;Node116</title>
<path fill="none" stroke="#191970" d="M2331.8815,-183.3286C2391.8057,-175.2458 2503.9349,-159.549 2599,-143 2601.878,-142.499 2604.8449,-141.961 2607.8299,-141.4038"/>
<polygon fill="#191970" stroke="#191970" points="2331.1123,-179.9004 2321.6673,-184.7007 2332.0443,-186.8381 2331.1123,-179.9004"/>
</g>
<!-- Node117 -->
<g id="node32" class="node">
<title>Node117</title>
<g id="a_node32"><a xlink:href="_multi_phase_8cpp.html" target="_top" xlink:title="MultiPhase.cpp">
<polygon fill="#ffffff" stroke="#000000" points="2708,-123.5 2708,-142.5 2792,-142.5 2792,-123.5 2708,-123.5"/>
<text text-anchor="middle" x="2750" y="-130.5" font-family="Helvetica,sans-Serif" font-size="10.00" fill="#000000">MultiPhase.cpp</text>
</a>
</g>
</g>
<!-- Node34&#45;&gt;Node117 -->
<g id="edge39" class="edge">
<title>Node34&#45;&gt;Node117</title>
<path fill="none" stroke="#191970" d="M2331.9557,-185.3479C2406.7698,-178.7269 2565.7359,-163.5057 2699,-143 2701.8537,-142.5609 2704.7909,-142.0753 2707.746,-141.5617"/>
<polygon fill="#191970" stroke="#191970" points="2331.1968,-181.9009 2321.5412,-186.2619 2331.8089,-188.8741 2331.1968,-181.9009"/>
</g>
<!-- Node118 -->
<g id="node33" class="node">
<title>Node118</title>
<g id="a_node33"><a xlink:href="_vortex_patch_8cpp.html" target="_top" xlink:title="VortexPatch.cpp">
<polygon fill="#ffffff" stroke="#000000" points="2809.5,-123.5 2809.5,-142.5 2898.5,-142.5 2898.5,-123.5 2809.5,-123.5"/>
<text text-anchor="middle" x="2854" y="-130.5" font-family="Helvetica,sans-Serif" font-size="10.00" fill="#000000">VortexPatch.cpp</text>
</a>
</g>
</g>
<!-- Node34&#45;&gt;Node118 -->
<g id="edge40" class="edge">
<title>Node34&#45;&gt;Node118</title>
<path fill="none" stroke="#191970" d="M2331.921,-186.5536C2420.1031,-181.2173 2627.9248,-167.0451 2801,-143 2803.6897,-142.6263 2806.4501,-142.209 2809.2307,-141.7627"/>
<polygon fill="#191970" stroke="#191970" points="2331.5438,-183.0698 2321.7706,-187.1606 2331.9617,-190.0573 2331.5438,-183.0698"/>
</g>
<!-- Node119 -->
<g id="node34" class="node">
<title>Node119</title>
<g id="a_node34"><a xlink:href="_zalesak_disk_8cpp.html" target="_top" xlink:title="ZalesakDisk.cpp">
<polygon fill="#ffffff" stroke="#000000" points="2917,-123.5 2917,-142.5 3007,-142.5 3007,-123.5 2917,-123.5"/>
<text text-anchor="middle" x="2962" y="-130.5" font-family="Helvetica,sans-Serif" font-size="10.00" fill="#000000">ZalesakDisk.cpp</text>
</a>
</g>
</g>
<!-- Node34&#45;&gt;Node119 -->
<g id="edge41" class="edge">
<title>Node34&#45;&gt;Node119</title>
<path fill="none" stroke="#191970" d="M2331.6909,-187.376C2432.2663,-183.2116 2691.8345,-170.4903 2907,-143 2910.1769,-142.5941 2913.4486,-142.1267 2916.738,-141.6204"/>
<polygon fill="#191970" stroke="#191970" points="2331.4687,-183.882 2321.6194,-187.7862 2331.7536,-190.8762 2331.4687,-183.882"/>
</g>
<!-- Node120 -->
<g id="node35" class="node">
<title>Node120</title>
<g id="a_node35"><a xlink:href="_rayleigh_taylor_8cpp.html" target="_top" xlink:title="RayleighTaylor.cpp">
<polygon fill="#ffffff" stroke="#000000" points="3025.5,-123.5 3025.5,-142.5 3126.5,-142.5 3126.5,-123.5 3025.5,-123.5"/>
<text text-anchor="middle" x="3076" y="-130.5" font-family="Helvetica,sans-Serif" font-size="10.00" fill="#000000">RayleighTaylor.cpp</text>
</a>
</g>
</g>
<!-- Node34&#45;&gt;Node120 -->
<g id="edge42" class="edge">
<title>Node34&#45;&gt;Node120</title>
<path fill="none" stroke="#191970" d="M2331.9754,-187.8106C2444.5744,-184.3634 2757.3493,-172.6589 3016,-143 3019.0426,-142.6511 3022.1658,-142.2529 3025.3123,-141.8211"/>
<polygon fill="#191970" stroke="#191970" points="2331.6026,-184.3201 2321.7122,-188.1188 2331.8128,-191.317 2331.6026,-184.3201"/>
</g>
<!-- Node121 -->
<g id="node36" class="node">
<title>Node121</title>
<g id="a_node36"><a xlink:href="_taylor_green_vortex_8cpp.html" target="_top" xlink:title="TaylorGreenVortex.cpp">
<polygon fill="#ffffff" stroke="#000000" points="3144.5,-123.5 3144.5,-142.5 3261.5,-142.5 3261.5,-123.5 3144.5,-123.5"/>
<text text-anchor="middle" x="3203" y="-130.5" font-family="Helvetica,sans-Serif" font-size="10.00" fill="#000000">TaylorGreenVortex.cpp</text>
</a>
</g>
</g>
<!-- Node34&#45;&gt;Node121 -->
<g id="edge43" class="edge">
<title>Node34&#45;&gt;Node121</title>
<path fill="none" stroke="#191970" d="M2331.9988,-188.0545C2456.5409,-185.0163 2828.1822,-173.836 3135,-143 3138.0869,-142.6898 3141.2482,-142.3394 3144.4369,-141.9602"/>
<polygon fill="#191970" stroke="#191970" points="2331.6601,-184.5615 2321.7466,-188.2996 2331.8275,-191.5595 2331.6601,-184.5615"/>
</g>
<!-- Node122 -->
<g id="node37" class="node">
<title>Node122</title>
<g id="a_node37"><a xlink:href="_turb_model_8_h.html" target="_top" xlink:title="TurbModel.H">
<polygon fill="#ffffff" stroke="#ff0000" points="3279.5,-123.5 3279.5,-142.5 3352.5,-142.5 3352.5,-123.5 3279.5,-123.5"/>
<text text-anchor="middle" x="3316" y="-130.5" font-family="Helvetica,sans-Serif" font-size="10.00" fill="#000000">TurbModel.H</text>
</a>
</g>
</g>
<!-- Node34&#45;&gt;Node122 -->
<g id="edge44" class="edge">
<title>Node34&#45;&gt;Node122</title>
<path fill="none" stroke="#191970" d="M2331.9776,-187.942C2496.254,-183.7492 3084.5241,-167.3351 3270,-143 3273.0792,-142.596 3276.2578,-142.0916 3279.4385,-141.5255"/>
<polygon fill="#191970" stroke="#191970" points="2331.6871,-184.4481 2321.779,-188.2004 2331.8645,-191.4459 2331.6871,-184.4481"/>
</g>
<!-- Node125 -->
<g id="node38" class="node">
<title>Node125</title>
<g id="a_node38"><a xlink:href="turbulence__utils_8_h.html" target="_top" xlink:title="turbulence_utils.H">
<polygon fill="#ffffff" stroke="#000000" points="3370.5,-123.5 3370.5,-142.5 3465.5,-142.5 3465.5,-123.5 3370.5,-123.5"/>
<text text-anchor="middle" x="3418" y="-130.5" font-family="Helvetica,sans-Serif" font-size="10.00" fill="#000000">turbulence_utils.H</text>
</a>
</g>
</g>
<!-- Node34&#45;&gt;Node125 -->
<g id="edge45" class="edge">
<title>Node34&#45;&gt;Node125</title>
<path fill="none" stroke="#191970" d="M2331.6162,-187.9172C2504.7745,-183.402 3156.1499,-165.2678 3361,-143 3364.0963,-142.6634 3367.2786,-142.2617 3370.4806,-141.8156"/>
<polygon fill="#191970" stroke="#191970" points="2331.5165,-184.4185 2321.6107,-188.1767 2331.6982,-191.4161 2331.5165,-184.4185"/>
</g>
<!-- Node130 -->
<g id="node39" class="node">
<title>Node130</title>
<g id="a_node39"><a xlink:href="_derived_quantity_8_h.html" target="_top" xlink:title="DerivedQuantity.H">
<polygon fill="#ffffff" stroke="#ff0000" points="3484,-123.5 3484,-142.5 3582,-142.5 3582,-123.5 3484,-123.5"/>
<text text-anchor="middle" x="3533" y="-130.5" font-family="Helvetica,sans-Serif" font-size="10.00" fill="#000000">DerivedQuantity.H</text>
</a>
</g>
</g>
<!-- Node34&#45;&gt;Node130 -->
<g id="edge46" class="edge">
<title>Node34&#45;&gt;Node130</title>
<path fill="none" stroke="#191970" d="M2331.806,-188.0803C2516.4563,-183.9986 3245.7434,-166.6741 3474,-143 3477.2034,-142.6677 3480.4962,-142.2693 3483.8097,-141.8256"/>
<polygon fill="#191970" stroke="#191970" points="2331.5964,-184.5839 2321.6757,-188.303 2331.7503,-191.5822 2331.5964,-184.5839"/>
</g>
<!-- Node133 -->
<g id="node40" class="node">
<title>Node133</title>
<g id="a_node40"><a xlink:href="_i_o_manager_8cpp.html" target="_top" xlink:title="IOManager.cpp">
<polygon fill="#ffffff" stroke="#000000" points="3529.5,-62 3529.5,-81 3612.5,-81 3612.5,-62 3529.5,-62"/>
<text text-anchor="middle" x="3571" y="-69" font-family="Helvetica,sans-Serif" font-size="10.00" fill="#000000">IOManager.cpp</text>
</a>
</g>
</g>
<!-- Node34&#45;&gt;Node133 -->
<g id="edge48" class="edge">
<title>Node34&#45;&gt;Node133</title>
<path fill="none" stroke="#191970" d="M2331.83,-188.2965C2554.295,-184.5432 3568.6257,-166.1787 3591,-143 3607.4717,-125.936 3589.9333,-96.4645 3578.765,-81.2366"/>
<polygon fill="#191970" stroke="#191970" points="2331.4848,-184.8017 2321.545,-188.4691 2331.6023,-191.8007 2331.4848,-184.8017"/>
</g>
<!-- Node135 -->
<g id="node41" class="node">
<title>Node135</title>
<g id="a_node41"><a xlink:href="_post_processing_8cpp.html" target="_top" xlink:title="PostProcessing.cpp">
<polygon fill="#ffffff" stroke="#000000" points="3638,-123.5 3638,-142.5 3742,-142.5 3742,-123.5 3638,-123.5"/>
<text text-anchor="middle" x="3690" y="-130.5" font-family="Helvetica,sans-Serif" font-size="10.00" fill="#000000">PostProcessing.cpp</text>
</a>
</g>
</g>
<!-- Node34&#45;&gt;Node135 -->
<g id="edge49" class="edge">
<title>Node34&#45;&gt;Node135</title>
<path fill="none" stroke="#191970" d="M2331.626,-188.1975C2530.0162,-184.3605 3364.2455,-167.0718 3624,-143 3628.5005,-142.5829 3633.1615,-142.0609 3637.8296,-141.4754"/>
<polygon fill="#191970" stroke="#191970" points="2331.5252,-184.6987 2321.5945,-188.3905 2331.66,-191.6974 2331.5252,-184.6987"/>
</g>
<!-- Node136 -->
<g id="node42" class="node">
<title>Node136</title>
<g id="a_node42"><a xlink:href="_line_sampler_8cpp.html" target="_top" xlink:title="LineSampler.cpp">
<polygon fill="#ffffff" stroke="#000000" points="3760.5,-123.5 3760.5,-142.5 3849.5,-142.5 3849.5,-123.5 3760.5,-123.5"/>
<text text-anchor="middle" x="3805" y="-130.5" font-family="Helvetica,sans-Serif" font-size="10.00" fill="#000000">LineSampler.cpp</text>
</a>
</g>
</g>
<!-- Node34&#45;&gt;Node136 -->
<g id="edge50" class="edge">
<title>Node34&#45;&gt;Node136</title>
<path fill="none" stroke="#191970" d="M2331.5775,-188.5327C2541.2232,-186.0985 3465.1522,-173.7845 3751,-143 3754.0335,-142.6733 3757.1523,-142.272 3760.2878,-141.8199"/>
<polygon fill="#191970" stroke="#191970" points="2331.5362,-185.0328 2321.5771,-188.6476 2331.6167,-192.0324 2331.5362,-185.0328"/>
</g>
<!-- Node137 -->
<g id="node43" class="node">
<title>Node137</title>
<g id="a_node43"><a xlink:href="_probe_sampler_8cpp.html" target="_top" xlink:title="ProbeSampler.cpp">
<polygon fill="#ffffff" stroke="#000000" points="3867.5,-123.5 3867.5,-142.5 3964.5,-142.5 3964.5,-123.5 3867.5,-123.5"/>
<text text-anchor="middle" x="3916" y="-130.5" font-family="Helvetica,sans-Serif" font-size="10.00" fill="#000000">ProbeSampler.cpp</text>
</a>
</g>
</g>
<!-- Node34&#45;&gt;Node137 -->
<g id="edge51" class="edge">
<title>Node34&#45;&gt;Node137</title>
<path fill="none" stroke="#191970" d="M2331.8558,-188.582C2551.2752,-186.3142 3550.5496,-174.4098 3859,-143 3861.6987,-142.7252 3864.4622,-142.3971 3867.2468,-142.03"/>
<polygon fill="#191970" stroke="#191970" points="2331.6731,-185.0836 2321.7094,-188.6857 2331.7447,-192.0832 2331.6731,-185.0836"/>
</g>
<!-- Node138 -->
<g id="node44" class="node">
<title>Node138</title>
<g id="a_node44"><a xlink:href="_sampling_8_h.html" target="_top" xlink:title="Sampling.H">
<polygon fill="#ffffff" stroke="#ff0000" points="3983,-123.5 3983,-142.5 4051,-142.5 4051,-123.5 3983,-123.5"/>
<text text-anchor="middle" x="4017" y="-130.5" font-family="Helvetica,sans-Serif" font-size="10.00" fill="#000000">Sampling.H</text>
</a>
</g>
</g>
<!-- Node34&#45;&gt;Node138 -->
<g id="edge52" class="edge">
<title>Node34&#45;&gt;Node138</title>
<path fill="none" stroke="#191970" d="M2332.1904,-188.3411C2579.1348,-184.5041 3807.0464,-164.4697 3974,-143 3976.8887,-142.6285 3979.8673,-142.147 3982.8454,-141.5963"/>
<polygon fill="#191970" stroke="#191970" points="2331.7787,-184.8469 2321.8341,-188.5014 2331.8871,-191.8461 2331.7787,-184.8469"/>
</g>
<!-- Node140 -->
<g id="node45" class="node">
<title>Node140</title>
<g id="a_node45"><a xlink:href="_cart_box_refinement_8cpp.html" target="_top" xlink:title="CartBoxRefinement.cpp">
<polygon fill="#ffffff" stroke="#000000" points="4069,-123.5 4069,-142.5 4191,-142.5 4191,-123.5 4069,-123.5"/>
<text text-anchor="middle" x="4130" y="-130.5" font-family="Helvetica,sans-Serif" font-size="10.00" fill="#000000">CartBoxRefinement.cpp</text>
</a>
</g>
</g>
<!-- Node34&#45;&gt;Node140 -->
<g id="edge53" class="edge">
<title>Node34&#45;&gt;Node140</title>
<path fill="none" stroke="#191970" d="M2331.9125,-188.5615C2567.8127,-186.0484 3708.9141,-172.5369 4060,-143 4062.9359,-142.753 4065.9366,-142.4644 4068.964,-142.1442"/>
<polygon fill="#191970" stroke="#191970" points="2331.6456,-185.0641 2321.6832,-188.6696 2331.7197,-192.0637 2331.6456,-185.0641"/>
</g>
<!-- Node141 -->
<g id="node46" class="node">
<title>Node141</title>
<g id="a_node46"><a xlink:href="_field_refinement_8cpp.html" target="_top" xlink:title="FieldRefinement.cpp">
<polygon fill="#ffffff" stroke="#000000" points="4209.5,-123.5 4209.5,-142.5 4316.5,-142.5 4316.5,-123.5 4209.5,-123.5"/>
<text text-anchor="middle" x="4263" y="-130.5" font-family="Helvetica,sans-Serif" font-size="10.00" fill="#000000">FieldRefinement.cpp</text>
</a>
</g>
</g>
<!-- Node34&#45;&gt;Node141 -->
<g id="edge54" class="edge">
<title>Node34&#45;&gt;Node141</title>
<path fill="none" stroke="#191970" d="M2332.1132,-188.7448C2579.3989,-187.1622 3819.7917,-177.5958 4200,-143 4203.0881,-142.719 4206.2543,-142.3799 4209.4446,-141.9986"/>
<polygon fill="#191970" stroke="#191970" points="2331.7268,-185.247 2321.7491,-188.8101 2331.771,-192.2469 2331.7268,-185.247"/>
</g>
<!-- Node142 -->
<g id="node47" class="node">
<title>Node142</title>
<g id="a_node47"><a xlink:href="_geometry_refinement_8cpp.html" target="_top" xlink:title="GeometryRefinement.cpp">
<polygon fill="#ffffff" stroke="#000000" points="4335,-123.5 4335,-142.5 4463,-142.5 4463,-123.5 4335,-123.5"/>
<text text-anchor="middle" x="4399" y="-130.5" font-family="Helvetica,sans-Serif" font-size="10.00" fill="#000000">GeometryRefinement.cpp</text>
</a>
</g>
</g>
<!-- Node34&#45;&gt;Node142 -->
<g id="edge55" class="edge">
<title>Node34&#45;&gt;Node142</title>
<path fill="none" stroke="#191970" d="M2331.6751,-188.6974C2587.3327,-186.785 3918.6373,-175.3958 4326,-143 4328.9329,-142.7668 4331.928,-142.4947 4334.9506,-142.1927"/>
<polygon fill="#191970" stroke="#191970" points="2331.6429,-185.1975 2321.6692,-188.7715 2331.6948,-192.1973 2331.6429,-185.1975"/>
</g>
<!-- Node143 -->
<g id="node48" class="node">
<title>Node143</title>
<g id="a_node48"><a xlink:href="_overset_refinement_8cpp.html" target="_top" xlink:title="OversetRefinement.cpp">
<polygon fill="#ffffff" stroke="#000000" points="4481,-123.5 4481,-142.5 4601,-142.5 4601,-123.5 4481,-123.5"/>
<text text-anchor="middle" x="4541" y="-130.5" font-family="Helvetica,sans-Serif" font-size="10.00" fill="#000000">OversetRefinement.cpp</text>
</a>
</g>
</g>
<!-- Node34&#45;&gt;Node143 -->
<g id="edge56" class="edge">
<title>Node34&#45;&gt;Node143</title>
<path fill="none" stroke="#191970" d="M2331.7447,-188.8168C2598.1726,-187.5664 4033.9514,-179.22 4472,-143 4474.8952,-142.7606 4477.8539,-142.4782 4480.8389,-142.163"/>
<polygon fill="#191970" stroke="#191970" points="2331.6815,-185.3169 2321.6978,-188.8631 2331.7139,-192.3168 2331.6815,-185.3169"/>
</g>
<!-- Node144 -->
<g id="node49" class="node">
<title>Node144</title>
<g id="a_node49"><a xlink:href="_q_criterion_refinement_8cpp.html" target="_top" xlink:title="QCriterionRefinement.cpp">
<polygon fill="#ffffff" stroke="#000000" points="4619,-123.5 4619,-142.5 4749,-142.5 4749,-123.5 4619,-123.5"/>
<text text-anchor="middle" x="4684" y="-130.5" font-family="Helvetica,sans-Serif" font-size="10.00" fill="#000000">QCriterionRefinement.cpp</text>
</a>
</g>
</g>
<!-- Node34&#45;&gt;Node144 -->
<g id="edge57" class="edge">
<title>Node34&#45;&gt;Node144</title>
<path fill="none" stroke="#191970" d="M2331.7976,-188.8224C2608.0371,-187.5748 4142.5992,-179.0936 4610,-143 4612.8436,-142.7804 4615.745,-142.5247 4618.6732,-142.2407"/>
<polygon fill="#191970" stroke="#191970" points="2331.7549,-185.3224 2321.7706,-188.8669 2331.7861,-192.3224 2331.7549,-185.3224"/>
</g>
<!-- Node145 -->
<g id="node50" class="node">
<title>Node145</title>
<g id="a_node50"><a xlink:href="_refinement_criteria_8cpp.html" target="_top" xlink:title="RefinementCriteria.cpp">
<polygon fill="#ffffff" stroke="#000000" points="4767.5,-123.5 4767.5,-142.5 4884.5,-142.5 4884.5,-123.5 4767.5,-123.5"/>
<text text-anchor="middle" x="4826" y="-130.5" font-family="Helvetica,sans-Serif" font-size="10.00" fill="#000000">RefinementCriteria.cpp</text>
</a>
</g>
</g>
<!-- Node34&#45;&gt;Node145 -->
<g id="edge58" class="edge">
<title>Node34&#45;&gt;Node145</title>
<path fill="none" stroke="#191970" d="M2332.2218,-188.9488C2619.7519,-188.4948 4259.6967,-184.1135 4758,-143 4761.092,-142.7449 4764.2573,-142.4385 4767.4491,-142.0937"/>
<polygon fill="#191970" stroke="#191970" points="2331.8009,-185.4493 2321.8062,-188.9644 2331.8115,-192.4493 2331.8009,-185.4493"/>
</g>
<!-- Node36 -->
<g id="node3" class="node">
<title>Node36</title>
<g id="a_node3"><a xlink:href="incflo__set__velocity__bcs_8cpp.html" target="_top" xlink:title="incflo_set_velocity\l_bcs.cpp">
<polygon fill="#ffffff" stroke="#000000" points="0,-56.5 0,-86.5 98,-86.5 98,-56.5 0,-56.5"/>
<text text-anchor="start" x="8" y="-74.5" font-family="Helvetica,sans-Serif" font-size="10.00" fill="#000000">incflo_set_velocity</text>
<text text-anchor="middle" x="49" y="-63.5" font-family="Helvetica,sans-Serif" font-size="10.00" fill="#000000">_bcs.cpp</text>
</a>
</g>
</g>
<!-- Node35&#45;&gt;Node36 -->
<g id="edge2" class="edge">
<title>Node35&#45;&gt;Node36</title>
<path fill="none" stroke="#191970" d="M57.1696,-113.3693C55.4743,-104.681 53.512,-94.6241 51.9355,-86.5446"/>
<polygon fill="#191970" stroke="#191970" points="53.7746,-114.246 59.125,-123.3906 60.645,-112.9054 53.7746,-114.246"/>
</g>
<!-- Node54&#45;&gt;Node59 -->
<g id="edge4" class="edge">
<title>Node54&#45;&gt;Node59</title>
<path fill="none" stroke="#191970" d="M226.619,-55.6491C241.4836,-44.222 261.057,-29.1749 273.5878,-19.5419"/>
<polygon fill="#191970" stroke="#191970" points="224.2949,-53.021 218.5,-61.8906 228.5613,-58.5707 224.2949,-53.021"/>
</g>
<!-- Node54&#45;&gt;Node61 -->
<g id="edge5" class="edge">
<title>Node54&#45;&gt;Node61</title>
<path fill="none" stroke="#191970" d="M190.708,-54.4007C180.715,-43.2268 168.0237,-29.0356 159.7149,-19.7449"/>
<polygon fill="#191970" stroke="#191970" points="188.1311,-56.7698 197.4063,-61.8906 193.3489,-52.1034 188.1311,-56.7698"/>
</g>
<!-- Node62&#45;&gt;Node54 -->
<g id="edge7" class="edge">
<title>Node62&#45;&gt;Node54</title>
<path fill="none" stroke="#191970" d="M237.2983,-115.2465C229.379,-104.1775 219.4899,-90.3552 212.9719,-81.2449"/>
<polygon fill="#191970" stroke="#191970" points="234.4598,-117.2943 243.125,-123.3906 240.1528,-113.2212 234.4598,-117.2943"/>
</g>
<!-- Node62&#45;&gt;Node59 -->
<g id="edge8" class="edge">
<title>Node62&#45;&gt;Node59</title>
<path fill="none" stroke="#191970" d="M257.0676,-113.7954C259.9862,-105.5901 263.3086,-95.8754 266,-87 273.2947,-62.9445 280.3259,-34.1747 283.7813,-19.5521"/>
<polygon fill="#191970" stroke="#191970" points="253.7743,-112.6105 253.6646,-123.2048 260.3571,-114.9912 253.7743,-112.6105"/>
</g>
<!-- Node68&#45;&gt;Node69 -->
<g id="edge10" class="edge">
<title>Node68&#45;&gt;Node69</title>
<path fill="none" stroke="#191970" d="M432.7017,-115.2465C440.621,-104.1775 450.5101,-90.3552 457.0281,-81.2449"/>
<polygon fill="#191970" stroke="#191970" points="429.8472,-113.2212 426.875,-123.3906 435.5402,-117.2943 429.8472,-113.2212"/>
</g>
<!-- Node73&#45;&gt;Node87 -->
<g id="edge14" class="edge">
<title>Node73&#45;&gt;Node87</title>
<path fill="none" stroke="#191970" d="M666.1449,-114.253C671.4583,-103.3606 677.9343,-90.0846 682.2464,-81.2449"/>
<polygon fill="#191970" stroke="#191970" points="662.9261,-112.8684 661.6875,-123.3906 669.2175,-115.9374 662.9261,-112.8684"/>
</g>
<!-- Node107&#45;&gt;Node108 -->
<g id="edge26" class="edge">
<title>Node107&#45;&gt;Node108</title>
<path fill="none" stroke="#191970" d="M1877.0668,-113.9189C1881.6448,-103.0901 1887.1812,-89.9944 1890.8802,-81.2449"/>
<polygon fill="#191970" stroke="#191970" points="1873.7328,-112.817 1873.0625,-123.3906 1880.1803,-115.5428 1873.7328,-112.817"/>
</g>
<!-- Node111&#45;&gt;Node112 -->
<g id="edge32" class="edge">
<title>Node111&#45;&gt;Node112</title>
<path fill="none" stroke="#191970" d="M2246.7358,-113.5832C2249.3608,-102.8205 2252.5112,-89.9042 2254.6232,-81.2449"/>
<polygon fill="#191970" stroke="#191970" points="2243.3131,-112.846 2244.3438,-123.3906 2250.1137,-114.5048 2243.3131,-112.846"/>
</g>
<!-- Node113&#45;&gt;Node114 -->
<g id="edge35" class="edge">
<title>Node113&#45;&gt;Node114</title>
<path fill="none" stroke="#191970" d="M2416.4797,-114.5857C2422.7135,-103.632 2430.3721,-90.1748 2435.4541,-81.2449"/>
<polygon fill="#191970" stroke="#191970" points="2413.3731,-112.9683 2411.4688,-123.3906 2419.4569,-116.4307 2413.3731,-112.9683"/>
</g>
<!-- Node130&#45;&gt;Node133 -->
<g id="edge47" class="edge">
<title>Node130&#45;&gt;Node133</title>
<path fill="none" stroke="#191970" d="M3544.3779,-114.5857C3551.1461,-103.632 3559.4611,-90.1748 3564.9788,-81.2449"/>
<polygon fill="#191970" stroke="#191970" points="3541.2165,-113.0438 3538.9375,-123.3906 3547.1714,-116.7233 3541.2165,-113.0438"/>
</g>
</g>
</svg>
