<?xml version="1.0" encoding="UTF-8" standalone="no"?>
<!DOCTYPE svg PUBLIC "-//W3C//DTD SVG 1.1//EN"
 "http://www.w3.org/Graphics/SVG/1.1/DTD/svg11.dtd">
<!-- Generated by graphviz version 2.40.1 (20161225.0304)
 -->
<!-- Title: CoriolisForcing.cpp Pages: 1 -->
<svg width="2197pt" height="352pt"
 viewBox="0.00 0.00 2197.26 352.00" xmlns="http://www.w3.org/2000/svg" xmlns:xlink="http://www.w3.org/1999/xlink">
<g id="graph0" class="graph" transform="scale(1 1) rotate(0) translate(4 348)">
<title>CoriolisForcing.cpp</title>
<polygon fill="#ffffff" stroke="transparent" points="-4,4 -4,-348 2193.2596,-348 2193.2596,4 -4,4"/>
<!-- Node0 -->
<g id="node1" class="node">
<title>Node0</title>
<polygon fill="#bfbfbf" stroke="#000000" points="1660,-324.5 1660,-343.5 1761,-343.5 1761,-324.5 1660,-324.5"/>
<text text-anchor="middle" x="1710.5" y="-331.5" font-family="Helvetica,sans-Serif" font-size="10.00" fill="#000000">CoriolisForcing.cpp</text>
</g>
<!-- Node1 -->
<g id="node2" class="node">
<title>Node1</title>
<g id="a_node2"><a xlink:href="_coriolis_forcing_8_h.html" target="_top" xlink:title="amr&#45;wind/equation_systems\l/icns/source_terms/CoriolisForcing.H">
<polygon fill="#ffffff" stroke="#000000" points="472,-257.5 472,-287.5 651,-287.5 651,-257.5 472,-257.5"/>
<text text-anchor="start" x="480" y="-275.5" font-family="Helvetica,sans-Serif" font-size="10.00" fill="#000000">amr&#45;wind/equation_systems</text>
<text text-anchor="middle" x="561.5" y="-264.5" font-family="Helvetica,sans-Serif" font-size="10.00" fill="#000000">/icns/source_terms/CoriolisForcing.H</text>
</a>
</g>
</g>
<!-- Node0&#45;&gt;Node1 -->
<g id="edge1" class="edge">
<title>Node0&#45;&gt;Node1</title>
<path fill="none" stroke="#191970" d="M1659.6463,-331.2781C1483.5462,-321.8523 897.6473,-290.4922 661.4638,-277.8505"/>
<polygon fill="#191970" stroke="#191970" points="661.3375,-274.3389 651.1647,-277.2993 660.9633,-281.3289 661.3375,-274.3389"/>
</g>
<!-- Node25 -->
<g id="node26" class="node">
<title>Node25</title>
<g id="a_node26"><a xlink:href="_c_f_d_sim_8_h.html" target="_top" xlink:title="amr&#45;wind/CFDSim.H">
<polygon fill="#ffffff" stroke="#000000" points="1151.5,-196 1151.5,-215 1259.5,-215 1259.5,-196 1151.5,-196"/>
<text text-anchor="middle" x="1205.5" y="-203" font-family="Helvetica,sans-Serif" font-size="10.00" fill="#000000">amr&#45;wind/CFDSim.H</text>
</a>
</g>
</g>
<!-- Node0&#45;&gt;Node25 -->
<g id="edge43" class="edge">
<title>Node0&#45;&gt;Node25</title>
<path fill="none" stroke="#191970" d="M1672.9555,-324.4466C1582.4584,-301.4191 1352.4168,-242.8838 1252.7454,-217.5219"/>
<polygon fill="#191970" stroke="#191970" points="1253.5028,-214.1031 1242.9485,-215.029 1251.7766,-220.8869 1253.5028,-214.1031"/>
</g>
<!-- Node36 -->
<g id="node37" class="node">
<title>Node36</title>
<g id="a_node37"><a xlink:href="tensor__ops_8_h.html" target="_top" xlink:title="amr&#45;wind/utilities\l/tensor_ops.H">
<polygon fill="#ffffff" stroke="#000000" points="2000.5,-190.5 2000.5,-220.5 2090.5,-220.5 2090.5,-190.5 2000.5,-190.5"/>
<text text-anchor="start" x="2008.5" y="-208.5" font-family="Helvetica,sans-Serif" font-size="10.00" fill="#000000">amr&#45;wind/utilities</text>
<text text-anchor="middle" x="2045.5" y="-197.5" font-family="Helvetica,sans-Serif" font-size="10.00" fill="#000000">/tensor_ops.H</text>
</a>
</g>
</g>
<!-- Node0&#45;&gt;Node36 -->
<g id="edge67" class="edge">
<title>Node0&#45;&gt;Node36</title>
<path fill="none" stroke="#191970" d="M1714.6908,-324.3603C1722.4764,-307.687 1740.8393,-273.6543 1767.5,-257 1803.9052,-234.2585 1920.3253,-218.5528 1990.436,-210.884"/>
<polygon fill="#191970" stroke="#191970" points="1990.86,-214.3587 2000.4292,-209.811 1990.1126,-207.3987 1990.86,-214.3587"/>
</g>
<!-- Node37 -->
<g id="node38" class="node">
<title>Node37</title>
<g id="a_node38"><a xlink:href="trig__ops_8_h.html" target="_top" xlink:title="Trigonometric utilities. ">
<polygon fill="#ffffff" stroke="#000000" points="2020.5,-123.5 2020.5,-153.5 2110.5,-153.5 2110.5,-123.5 2020.5,-123.5"/>
<text text-anchor="start" x="2028.5" y="-141.5" font-family="Helvetica,sans-Serif" font-size="10.00" fill="#000000">amr&#45;wind/utilities</text>
<text text-anchor="middle" x="2065.5" y="-130.5" font-family="Helvetica,sans-Serif" font-size="10.00" fill="#000000">/trig_ops.H</text>
</a>
</g>
</g>
<!-- Node0&#45;&gt;Node37 -->
<g id="edge69" class="edge">
<title>Node0&#45;&gt;Node37</title>
<path fill="none" stroke="#191970" d="M1710.4131,-324.3734C1710.7936,-308.3246 1713.8748,-275.9933 1731.5,-257 1805.348,-177.42 1936.0717,-151.2457 2010.1831,-142.6631"/>
<polygon fill="#191970" stroke="#191970" points="2010.6913,-146.1285 2020.253,-141.5651 2009.9325,-139.1698 2010.6913,-146.1285"/>
</g>
<!-- Node39 -->
<g id="node40" class="node">
<title>Node39</title>
<polygon fill="#ffffff" stroke="#bfbfbf" points="1776.5,-263 1776.5,-282 1892.5,-282 1892.5,-263 1776.5,-263"/>
<text text-anchor="middle" x="1834.5" y="-270" font-family="Helvetica,sans-Serif" font-size="10.00" fill="#000000">AMReX_ParmParse.H</text>
</g>
<!-- Node0&#45;&gt;Node39 -->
<g id="edge73" class="edge">
<title>Node0&#45;&gt;Node39</title>
<path fill="none" stroke="#191970" d="M1729.875,-324.3906C1750.3495,-314.2359 1782.8442,-298.1196 1806.1885,-286.5416"/>
<polygon fill="#191970" stroke="#191970" points="1807.8575,-289.6207 1815.2611,-282.0419 1804.7472,-283.3496 1807.8575,-289.6207"/>
</g>
<!-- Node2 -->
<g id="node3" class="node">
<title>Node2</title>
<g id="a_node3"><a xlink:href="_field_repo_8_h.html" target="_top" xlink:title="amr&#45;wind/core/FieldRepo.H">
<polygon fill="#ffffff" stroke="#000000" points="493.5,-129 493.5,-148 629.5,-148 629.5,-129 493.5,-129"/>
<text text-anchor="middle" x="561.5" y="-136" font-family="Helvetica,sans-Serif" font-size="10.00" fill="#000000">amr&#45;wind/core/FieldRepo.H</text>
</a>
</g>
</g>
<!-- Node1&#45;&gt;Node2 -->
<g id="edge2" class="edge">
<title>Node1&#45;&gt;Node2</title>
<path fill="none" stroke="#191970" d="M561.5,-257.389C561.5,-233.0735 561.5,-185.2644 561.5,-158.2698"/>
<polygon fill="#191970" stroke="#191970" points="565.0001,-158.1041 561.5,-148.1042 558.0001,-158.1042 565.0001,-158.1041"/>
</g>
<!-- Node20 -->
<g id="node21" class="node">
<title>Node20</title>
<g id="a_node21"><a xlink:href="_momentum_source_8_h.html" target="_top" xlink:title="amr&#45;wind/equation_systems\l/icns/MomentumSource.H">
<polygon fill="#ffffff" stroke="#000000" points="355,-190.5 355,-220.5 494,-220.5 494,-190.5 355,-190.5"/>
<text text-anchor="start" x="363" y="-208.5" font-family="Helvetica,sans-Serif" font-size="10.00" fill="#000000">amr&#45;wind/equation_systems</text>
<text text-anchor="middle" x="424.5" y="-197.5" font-family="Helvetica,sans-Serif" font-size="10.00" fill="#000000">/icns/MomentumSource.H</text>
</a>
</g>
</g>
<!-- Node1&#45;&gt;Node20 -->
<g id="edge32" class="edge">
<title>Node1&#45;&gt;Node20</title>
<path fill="none" stroke="#191970" d="M530.7545,-257.4639C511.2376,-247.9191 485.7743,-235.4663 464.6675,-225.144"/>
<polygon fill="#191970" stroke="#191970" points="466.1378,-221.9669 455.6169,-220.7177 463.0625,-228.2552 466.1378,-221.9669"/>
</g>
<!-- Node3 -->
<g id="node4" class="node">
<title>Node3</title>
<polygon fill="#ffffff" stroke="#bfbfbf" points="759,-.5 759,-19.5 800,-19.5 800,-.5 759,-.5"/>
<text text-anchor="middle" x="779.5" y="-7.5" font-family="Helvetica,sans-Serif" font-size="10.00" fill="#000000">string</text>
</g>
<!-- Node2&#45;&gt;Node3 -->
<g id="edge3" class="edge">
<title>Node2&#45;&gt;Node3</title>
<path fill="none" stroke="#191970" d="M617.4977,-128.9991C649.7953,-121.5076 689.93,-108.5994 720.5,-87 742.1158,-71.7273 759.427,-46.1877 769.5725,-28.7425"/>
<polygon fill="#191970" stroke="#191970" points="772.8871,-29.9843 774.6964,-19.5451 766.772,-26.5776 772.8871,-29.9843"/>
</g>
<!-- Node4 -->
<g id="node5" class="node">
<title>Node4</title>
<polygon fill="#ffffff" stroke="#bfbfbf" points="1292,-.5 1292,-19.5 1375,-19.5 1375,-.5 1292,-.5"/>
<text text-anchor="middle" x="1333.5" y="-7.5" font-family="Helvetica,sans-Serif" font-size="10.00" fill="#000000">unordered_map</text>
</g>
<!-- Node2&#45;&gt;Node4 -->
<g id="edge4" class="edge">
<title>Node2&#45;&gt;Node4</title>
<path fill="none" stroke="#191970" d="M629.5005,-136.2263C811.6277,-129.8302 1298.3982,-110.5998 1323.5,-87 1338.7185,-72.6922 1339.1776,-47.4944 1337.169,-29.8318"/>
<polygon fill="#191970" stroke="#191970" points="1340.6008,-29.1136 1335.6664,-19.7379 1333.6771,-30.1443 1340.6008,-29.1136"/>
</g>
<!-- Node5 -->
<g id="node6" class="node">
<title>Node5</title>
<g id="a_node6"><a xlink:href="_field_desc_types_8_h.html" target="_top" xlink:title="amr&#45;wind/core/FieldDescTypes.H">
<polygon fill="#ffffff" stroke="#000000" points="288,-.5 288,-19.5 451,-19.5 451,-.5 288,-.5"/>
<text text-anchor="middle" x="369.5" y="-7.5" font-family="Helvetica,sans-Serif" font-size="10.00" fill="#000000">amr&#45;wind/core/FieldDescTypes.H</text>
</a>
</g>
</g>
<!-- Node2&#45;&gt;Node5 -->
<g id="edge5" class="edge">
<title>Node2&#45;&gt;Node5</title>
<path fill="none" stroke="#191970" d="M547.0688,-128.8416C513.9773,-106.6945 432.408,-52.1025 392.3895,-25.3193"/>
<polygon fill="#191970" stroke="#191970" points="394.094,-22.2485 383.8368,-19.5952 390.2006,-28.0659 394.094,-22.2485"/>
</g>
<!-- Node6 -->
<g id="node7" class="node">
<title>Node6</title>
<g id="a_node7"><a xlink:href="_field_utils_8_h.html" target="_top" xlink:title="amr&#45;wind/core/FieldUtils.H">
<polygon fill="#ffffff" stroke="#000000" points="82,-62 82,-81 215,-81 215,-62 82,-62"/>
<text text-anchor="middle" x="148.5" y="-69" font-family="Helvetica,sans-Serif" font-size="10.00" fill="#000000">amr&#45;wind/core/FieldUtils.H</text>
</a>
</g>
</g>
<!-- Node2&#45;&gt;Node6 -->
<g id="edge6" class="edge">
<title>Node2&#45;&gt;Node6</title>
<path fill="none" stroke="#191970" d="M493.2408,-129.0807C425.0464,-119.4324 317.2911,-103.5419 224.5,-87 217.7306,-85.7932 210.638,-84.4512 203.6205,-83.0759"/>
<polygon fill="#191970" stroke="#191970" points="203.93,-79.5689 193.439,-81.0489 202.5632,-86.4341 203.93,-79.5689"/>
</g>
<!-- Node7 -->
<g id="node8" class="node">
<title>Node7</title>
<polygon fill="#ffffff" stroke="#bfbfbf" points="469.5,-.5 469.5,-19.5 573.5,-19.5 573.5,-.5 469.5,-.5"/>
<text text-anchor="middle" x="521.5" y="-7.5" font-family="Helvetica,sans-Serif" font-size="10.00" fill="#000000">AMReX_MultiFab.H</text>
</g>
<!-- Node2&#45;&gt;Node7 -->
<g id="edge30" class="edge">
<title>Node2&#45;&gt;Node7</title>
<path fill="none" stroke="#191970" d="M551.5645,-128.9367C542.3411,-119.3299 529.2027,-103.6041 523.5,-87 517.1384,-68.4775 517.401,-45.9473 518.7906,-30.057"/>
<polygon fill="#191970" stroke="#191970" points="522.3031,-30.1361 519.923,-19.8121 515.3454,-29.367 522.3031,-30.1361"/>
</g>
<!-- Node9 -->
<g id="node10" class="node">
<title>Node9</title>
<g id="a_node10"><a xlink:href="_field_8_h.html" target="_top" xlink:title="amr&#45;wind/core/Field.H">
<polygon fill="#ffffff" stroke="#000000" points="1058,-62 1058,-81 1171,-81 1171,-62 1058,-62"/>
<text text-anchor="middle" x="1114.5" y="-69" font-family="Helvetica,sans-Serif" font-size="10.00" fill="#000000">amr&#45;wind/core/Field.H</text>
</a>
</g>
</g>
<!-- Node2&#45;&gt;Node9 -->
<g id="edge10" class="edge">
<title>Node2&#45;&gt;Node9</title>
<path fill="none" stroke="#191970" d="M629.6682,-131.4049C717.7307,-122.073 875.7298,-104.7668 1010.5,-87 1022.5185,-85.4156 1035.2997,-83.6102 1047.6393,-81.8051"/>
<polygon fill="#191970" stroke="#191970" points="1048.4929,-85.2171 1057.8743,-80.2937 1047.4703,-78.2922 1048.4929,-85.2171"/>
</g>
<!-- Node14 -->
<g id="node15" class="node">
<title>Node14</title>
<g id="a_node15"><a xlink:href="_int_field_8_h.html" target="_top" xlink:title="amr&#45;wind/core/IntField.H">
<polygon fill="#ffffff" stroke="#000000" points="233.5,-62 233.5,-81 357.5,-81 357.5,-62 233.5,-62"/>
<text text-anchor="middle" x="295.5" y="-69" font-family="Helvetica,sans-Serif" font-size="10.00" fill="#000000">amr&#45;wind/core/IntField.H</text>
</a>
</g>
</g>
<!-- Node2&#45;&gt;Node14 -->
<g id="edge19" class="edge">
<title>Node2&#45;&gt;Node14</title>
<path fill="none" stroke="#191970" d="M523.6712,-128.9717C476.3382,-117.0495 395.2334,-96.6208 343.5538,-83.6038"/>
<polygon fill="#191970" stroke="#191970" points="344.181,-80.1525 333.629,-81.1039 342.4712,-86.9405 344.181,-80.1525"/>
</g>
<!-- Node15 -->
<g id="node16" class="node">
<title>Node15</title>
<polygon fill="#ffffff" stroke="#bfbfbf" points="0,-.5 0,-19.5 107,-19.5 107,-.5 0,-.5"/>
<text text-anchor="middle" x="53.5" y="-7.5" font-family="Helvetica,sans-Serif" font-size="10.00" fill="#000000">AMReX_iMultiFab.H</text>
</g>
<!-- Node2&#45;&gt;Node15 -->
<g id="edge31" class="edge">
<title>Node2&#45;&gt;Node15</title>
<path fill="none" stroke="#191970" d="M493.3662,-135.6186C366.3972,-129.6317 103.5901,-114.0983 72.5,-87 56.3308,-72.9069 52.8044,-47.4538 52.5215,-29.6843"/>
<polygon fill="#191970" stroke="#191970" points="56.0232,-29.6058 52.6919,-19.5484 49.0242,-29.4881 56.0232,-29.6058"/>
</g>
<!-- Node16 -->
<g id="node17" class="node">
<title>Node16</title>
<g id="a_node17"><a xlink:href="_scratch_field_8_h.html" target="_top" xlink:title="amr&#45;wind/core/ScratchField.H">
<polygon fill="#ffffff" stroke="#000000" points="565.5,-62 565.5,-81 711.5,-81 711.5,-62 565.5,-62"/>
<text text-anchor="middle" x="638.5" y="-69" font-family="Helvetica,sans-Serif" font-size="10.00" fill="#000000">amr&#45;wind/core/ScratchField.H</text>
</a>
</g>
</g>
<!-- Node2&#45;&gt;Node16 -->
<g id="edge23" class="edge">
<title>Node2&#45;&gt;Node16</title>
<path fill="none" stroke="#191970" d="M572.5322,-128.9005C584.8828,-118.1539 605.1023,-100.5603 619.9057,-87.6794"/>
<polygon fill="#191970" stroke="#191970" points="622.2418,-90.2863 627.4882,-81.0817 617.6468,-85.0055 622.2418,-90.2863"/>
</g>
<!-- Node19 -->
<g id="node20" class="node">
<title>Node19</title>
<polygon fill="#ffffff" stroke="#bfbfbf" points="767.5,-62 767.5,-81 873.5,-81 873.5,-62 767.5,-62"/>
<text text-anchor="middle" x="820.5" y="-69" font-family="Helvetica,sans-Serif" font-size="10.00" fill="#000000">AMReX_AmrCore.H</text>
</g>
<!-- Node2&#45;&gt;Node19 -->
<g id="edge29" class="edge">
<title>Node2&#45;&gt;Node19</title>
<path fill="none" stroke="#191970" d="M598.3333,-128.9717C644.3247,-117.0743 723.0623,-96.7059 773.3959,-83.6852"/>
<polygon fill="#191970" stroke="#191970" points="774.5697,-86.9969 783.3744,-81.1039 772.8165,-80.22 774.5697,-86.9969"/>
</g>
<!-- Node6&#45;&gt;Node5 -->
<g id="edge7" class="edge">
<title>Node6&#45;&gt;Node5</title>
<path fill="none" stroke="#191970" d="M183.0313,-61.8906C221.4682,-51.1944 283.6744,-33.8836 325.5536,-22.2294"/>
<polygon fill="#191970" stroke="#191970" points="326.5157,-25.5948 335.2112,-19.5419 324.6389,-18.851 326.5157,-25.5948"/>
</g>
<!-- Node6&#45;&gt;Node7 -->
<g id="edge8" class="edge">
<title>Node6&#45;&gt;Node7</title>
<path fill="none" stroke="#191970" d="M193.4387,-61.9491C203.6329,-59.89 214.4244,-57.7948 224.5,-56 325.7956,-37.9561 354.0112,-36.648 459.1832,-20.1894"/>
<polygon fill="#191970" stroke="#191970" points="459.9287,-23.6152 469.2627,-18.6027 458.8401,-16.7004 459.9287,-23.6152"/>
</g>
<!-- Node8 -->
<g id="node9" class="node">
<title>Node8</title>
<polygon fill="#ffffff" stroke="#bfbfbf" points="125.5,-.5 125.5,-19.5 241.5,-19.5 241.5,-.5 125.5,-.5"/>
<text text-anchor="middle" x="183.5" y="-7.5" font-family="Helvetica,sans-Serif" font-size="10.00" fill="#000000">AMReX_Interpolater.H</text>
</g>
<!-- Node6&#45;&gt;Node8 -->
<g id="edge9" class="edge">
<title>Node6&#45;&gt;Node8</title>
<path fill="none" stroke="#191970" d="M153.9688,-61.8906C159.0246,-53.0068 166.6772,-39.5601 172.9254,-28.5811"/>
<polygon fill="#191970" stroke="#191970" points="176.0498,-30.1672 177.9541,-19.7449 169.966,-26.7048 176.0498,-30.1672"/>
</g>
<!-- Node9&#45;&gt;Node3 -->
<g id="edge11" class="edge">
<title>Node9&#45;&gt;Node3</title>
<path fill="none" stroke="#191970" d="M1072.5227,-61.9736C1062.9989,-59.9133 1052.9161,-57.8113 1043.5,-56 947.928,-37.6153 923.1586,-37.9285 827.5,-20 821.8526,-18.9415 815.8462,-17.746 810.0627,-16.5593"/>
<polygon fill="#191970" stroke="#191970" points="810.5231,-13.0801 800.0191,-14.4643 809.0936,-19.9326 810.5231,-13.0801"/>
</g>
<!-- Node9&#45;&gt;Node4 -->
<g id="edge13" class="edge">
<title>Node9&#45;&gt;Node4</title>
<path fill="none" stroke="#191970" d="M1148.7188,-61.8906C1186.7275,-51.2169 1248.1911,-33.9566 1289.6884,-22.3033"/>
<polygon fill="#191970" stroke="#191970" points="1290.8402,-25.6153 1299.5215,-19.5419 1288.9477,-18.8759 1290.8402,-25.6153"/>
</g>
<!-- Node9&#45;&gt;Node5 -->
<g id="edge18" class="edge">
<title>Node9&#45;&gt;Node5</title>
<path fill="none" stroke="#191970" d="M1057.9344,-62.2027C1042.5771,-59.9155 1025.9286,-57.6518 1010.5,-56 770.2546,-30.2789 706.2723,-41.078 461.6147,-20.0578"/>
<polygon fill="#191970" stroke="#191970" points="461.601,-16.5435 451.3357,-19.1651 460.9954,-23.5172 461.601,-16.5435"/>
</g>
<!-- Node9&#45;&gt;Node7 -->
<g id="edge14" class="edge">
<title>Node9&#45;&gt;Node7</title>
<path fill="none" stroke="#191970" d="M1057.913,-62.3941C1042.5557,-60.1066 1025.9126,-57.7949 1010.5,-56 824.1279,-34.2962 773.6609,-43.1422 583.7389,-20.0678"/>
<polygon fill="#191970" stroke="#191970" points="584.0567,-16.5806 573.7045,-18.835 583.203,-23.5284 584.0567,-16.5806"/>
</g>
<!-- Node10 -->
<g id="node11" class="node">
<title>Node10</title>
<polygon fill="#ffffff" stroke="#bfbfbf" points="1221.5,-.5 1221.5,-19.5 1273.5,-19.5 1273.5,-.5 1221.5,-.5"/>
<text text-anchor="middle" x="1247.5" y="-7.5" font-family="Helvetica,sans-Serif" font-size="10.00" fill="#000000">memory</text>
</g>
<!-- Node9&#45;&gt;Node10 -->
<g id="edge12" class="edge">
<title>Node9&#45;&gt;Node10</title>
<path fill="none" stroke="#191970" d="M1135.2813,-61.8906C1157.3394,-51.6908 1192.405,-35.4763 1217.4669,-23.8875"/>
<polygon fill="#191970" stroke="#191970" points="1219.2571,-26.9158 1226.8647,-19.5419 1216.3191,-20.5622 1219.2571,-26.9158"/>
</g>
<!-- Node11 -->
<g id="node12" class="node">
<title>Node11</title>
<polygon fill="#ffffff" stroke="#bfbfbf" points="958,-.5 958,-19.5 1057,-19.5 1057,-.5 958,-.5"/>
<text text-anchor="middle" x="1007.5" y="-7.5" font-family="Helvetica,sans-Serif" font-size="10.00" fill="#000000">AMReX_BCRec.H</text>
</g>
<!-- Node9&#45;&gt;Node11 -->
<g id="edge15" class="edge">
<title>Node9&#45;&gt;Node11</title>
<path fill="none" stroke="#191970" d="M1097.7813,-61.8906C1080.4278,-51.9165 1053.0677,-36.1908 1033.0118,-24.6633"/>
<polygon fill="#191970" stroke="#191970" points="1034.5154,-21.4907 1024.1013,-19.5419 1031.0272,-27.5596 1034.5154,-21.4907"/>
</g>
<!-- Node12 -->
<g id="node13" class="node">
<title>Node12</title>
<polygon fill="#ffffff" stroke="#bfbfbf" points="2061,-.5 2061,-19.5 2146,-19.5 2146,-.5 2061,-.5"/>
<text text-anchor="middle" x="2103.5" y="-7.5" font-family="Helvetica,sans-Serif" font-size="10.00" fill="#000000">AMReX_Gpu.H</text>
</g>
<!-- Node9&#45;&gt;Node12 -->
<g id="edge16" class="edge">
<title>Node9&#45;&gt;Node12</title>
<path fill="none" stroke="#191970" d="M1149.8996,-61.9442C1159.74,-59.6283 1170.4771,-57.4148 1180.5,-56 1350.4055,-32.0163 1880.749,-15.9976 2050.6005,-11.3773"/>
<polygon fill="#191970" stroke="#191970" points="2050.8866,-14.8709 2060.7884,-11.1021 2050.6975,-7.8735 2050.8866,-14.8709"/>
</g>
<!-- Node13 -->
<g id="node14" class="node">
<title>Node13</title>
<g id="a_node14"><a xlink:href="incflo__enums_8_h.html" target="_top" xlink:title="amr&#45;wind/incflo_enums.H">
<polygon fill="#ffffff" stroke="#000000" points="1075.5,-.5 1075.5,-19.5 1203.5,-19.5 1203.5,-.5 1075.5,-.5"/>
<text text-anchor="middle" x="1139.5" y="-7.5" font-family="Helvetica,sans-Serif" font-size="10.00" fill="#000000">amr&#45;wind/incflo_enums.H</text>
</a>
</g>
</g>
<!-- Node9&#45;&gt;Node13 -->
<g id="edge17" class="edge">
<title>Node9&#45;&gt;Node13</title>
<path fill="none" stroke="#191970" d="M1118.4063,-61.8906C1121.9446,-53.1862 1127.2636,-40.1015 1131.675,-29.2494"/>
<polygon fill="#191970" stroke="#191970" points="1135.0152,-30.3268 1135.5387,-19.7449 1128.5305,-27.6907 1135.0152,-30.3268"/>
</g>
<!-- Node14&#45;&gt;Node3 -->
<g id="edge20" class="edge">
<title>Node14&#45;&gt;Node3</title>
<path fill="none" stroke="#191970" d="M357.726,-65.5846C442.0184,-57.2329 597.0669,-40.6718 728.5,-20 735.0512,-18.9696 742.0446,-17.7066 748.6863,-16.4294"/>
<polygon fill="#191970" stroke="#191970" points="749.5901,-19.8185 758.7195,-14.4423 748.23,-12.9519 749.5901,-19.8185"/>
</g>
<!-- Node14&#45;&gt;Node5 -->
<g id="edge21" class="edge">
<title>Node14&#45;&gt;Node5</title>
<path fill="none" stroke="#191970" d="M307.0625,-61.8906C318.5079,-52.3786 336.2473,-37.6357 349.897,-26.2917"/>
<polygon fill="#191970" stroke="#191970" points="352.3208,-28.8283 357.7745,-19.7449 347.8467,-23.4447 352.3208,-28.8283"/>
</g>
<!-- Node14&#45;&gt;Node15 -->
<g id="edge22" class="edge">
<title>Node14&#45;&gt;Node15</title>
<path fill="none" stroke="#191970" d="M257.953,-61.9581C215.6528,-51.2082 146.8223,-33.7162 100.863,-22.0365"/>
<polygon fill="#191970" stroke="#191970" points="101.6891,-18.6352 91.1351,-19.5643 99.9649,-25.4196 101.6891,-18.6352"/>
</g>
<!-- Node16&#45;&gt;Node3 -->
<g id="edge24" class="edge">
<title>Node16&#45;&gt;Node3</title>
<path fill="none" stroke="#191970" d="M660.5313,-61.8906C684.537,-51.42 723.0746,-34.6111 749.7537,-22.9745"/>
<polygon fill="#191970" stroke="#191970" points="751.2306,-26.1488 758.9974,-18.9426 748.432,-19.7325 751.2306,-26.1488"/>
</g>
<!-- Node16&#45;&gt;Node5 -->
<g id="edge25" class="edge">
<title>Node16&#45;&gt;Node5</title>
<path fill="none" stroke="#191970" d="M596.7639,-61.9581C549.4485,-51.1406 472.2708,-33.4959 421.1864,-21.8168"/>
<polygon fill="#191970" stroke="#191970" points="421.8626,-18.3811 411.334,-19.5643 420.3024,-25.2051 421.8626,-18.3811"/>
</g>
<!-- Node16&#45;&gt;Node7 -->
<g id="edge26" class="edge">
<title>Node16&#45;&gt;Node7</title>
<path fill="none" stroke="#191970" d="M620.2188,-61.8906C600.9859,-51.7811 570.5121,-35.7628 548.5075,-24.1962"/>
<polygon fill="#191970" stroke="#191970" points="550.133,-21.0967 539.6529,-19.5419 546.876,-27.2928 550.133,-21.0967"/>
</g>
<!-- Node17 -->
<g id="node18" class="node">
<title>Node17</title>
<polygon fill="#ffffff" stroke="#bfbfbf" points="836,-.5 836,-19.5 931,-19.5 931,-.5 836,-.5"/>
<text text-anchor="middle" x="883.5" y="-7.5" font-family="Helvetica,sans-Serif" font-size="10.00" fill="#000000">AMReX_Vector.H</text>
</g>
<!-- Node16&#45;&gt;Node17 -->
<g id="edge27" class="edge">
<title>Node16&#45;&gt;Node17</title>
<path fill="none" stroke="#191970" d="M676.5124,-61.9581C719.3371,-51.2082 789.0208,-33.7162 835.5499,-22.0365"/>
<polygon fill="#191970" stroke="#191970" points="836.5515,-25.3937 845.3984,-19.5643 834.8471,-18.6043 836.5515,-25.3937"/>
</g>
<!-- Node18 -->
<g id="node19" class="node">
<title>Node18</title>
<polygon fill="#ffffff" stroke="#bfbfbf" points="591.5,-.5 591.5,-19.5 719.5,-19.5 719.5,-.5 591.5,-.5"/>
<text text-anchor="middle" x="655.5" y="-7.5" font-family="Helvetica,sans-Serif" font-size="10.00" fill="#000000">AMReX_PhysBCFunct.H</text>
</g>
<!-- Node16&#45;&gt;Node18 -->
<g id="edge28" class="edge">
<title>Node16&#45;&gt;Node18</title>
<path fill="none" stroke="#191970" d="M641.1563,-61.8906C643.5375,-53.276 647.1048,-40.3708 650.086,-29.5858"/>
<polygon fill="#191970" stroke="#191970" points="653.5154,-30.3159 652.8063,-19.7449 646.7684,-28.4509 653.5154,-30.3159"/>
</g>
<!-- Node20&#45;&gt;Node2 -->
<g id="edge41" class="edge">
<title>Node20&#45;&gt;Node2</title>
<path fill="none" stroke="#191970" d="M455.2455,-190.4639C478.4394,-179.1209 510.0316,-163.6707 532.7294,-152.5703"/>
<polygon fill="#191970" stroke="#191970" points="534.4165,-155.6414 541.8621,-148.1039 531.3412,-149.3531 534.4165,-155.6414"/>
</g>
<!-- Node20&#45;&gt;Node5 -->
<g id="edge39" class="edge">
<title>Node20&#45;&gt;Node5</title>
<path fill="none" stroke="#191970" d="M354.7855,-192.1144C261.9011,-172.6842 105.4018,-133.823 72.5,-87 64.5787,-75.727 63.5342,-66.4614 72.5,-56 85.8842,-40.3832 195.4478,-26.5536 277.6374,-18.2338"/>
<polygon fill="#191970" stroke="#191970" points="278.1671,-21.6984 287.7697,-17.2218 277.4713,-14.7331 278.1671,-21.6984"/>
</g>
<!-- Node20&#45;&gt;Node6 -->
<g id="edge40" class="edge">
<title>Node20&#45;&gt;Node6</title>
<path fill="none" stroke="#191970" d="M393.3758,-190.389C339.4923,-164.2281 229.5953,-110.8724 177.3414,-85.5027"/>
<polygon fill="#191970" stroke="#191970" points="178.8062,-82.3232 168.2817,-81.1042 175.7489,-88.6203 178.8062,-82.3232"/>
</g>
<!-- Node20&#45;&gt;Node7 -->
<g id="edge42" class="edge">
<title>Node20&#45;&gt;Node7</title>
<path fill="none" stroke="#191970" d="M431.9504,-190.4841C449.3801,-155.3551 492.7911,-67.8618 512.0456,-29.0549"/>
<polygon fill="#191970" stroke="#191970" points="515.2836,-30.4035 516.593,-19.8898 509.0131,-27.2922 515.2836,-30.4035"/>
</g>
<!-- Node21 -->
<g id="node22" class="node">
<title>Node21</title>
<g id="a_node22"><a xlink:href="_factory_8_h.html" target="_top" xlink:title="amr&#45;wind/core/Factory.H">
<polygon fill="#ffffff" stroke="#000000" points="1409,-62 1409,-81 1534,-81 1534,-62 1409,-62"/>
<text text-anchor="middle" x="1471.5" y="-69" font-family="Helvetica,sans-Serif" font-size="10.00" fill="#000000">amr&#45;wind/core/Factory.H</text>
</a>
</g>
</g>
<!-- Node20&#45;&gt;Node21 -->
<g id="edge33" class="edge">
<title>Node20&#45;&gt;Node21</title>
<path fill="none" stroke="#191970" d="M494.3353,-203.9754C697.6415,-199.2135 1279.8659,-183.1658 1360.5,-154 1398.9708,-140.0849 1435.4019,-108.1476 1455.467,-88.3417"/>
<polygon fill="#191970" stroke="#191970" points="1458.0187,-90.7389 1462.5589,-81.1662 1453.04,-85.8183 1458.0187,-90.7389"/>
</g>
<!-- Node21&#45;&gt;Node4 -->
<g id="edge35" class="edge">
<title>Node21&#45;&gt;Node4</title>
<path fill="none" stroke="#191970" d="M1449.9375,-61.8906C1426.9488,-51.6457 1390.344,-35.3326 1364.3176,-23.7339"/>
<polygon fill="#191970" stroke="#191970" points="1365.4698,-20.4156 1354.9111,-19.5419 1362.6204,-26.8095 1365.4698,-20.4156"/>
</g>
<!-- Node21&#45;&gt;Node10 -->
<g id="edge34" class="edge">
<title>Node21&#45;&gt;Node10</title>
<path fill="none" stroke="#191970" d="M1436.4941,-61.9507C1398.7309,-51.6399 1336.8384,-34.7137 1283.5,-20 1283.4023,-19.973 1283.3044,-19.9461 1283.2064,-19.919"/>
<polygon fill="#191970" stroke="#191970" points="1284.4142,-16.6217 1273.8431,-17.3292 1282.5481,-23.3684 1284.4142,-16.6217"/>
</g>
<!-- Node22 -->
<g id="node23" class="node">
<title>Node22</title>
<polygon fill="#ffffff" stroke="#bfbfbf" points="1393.5,-.5 1393.5,-19.5 1447.5,-19.5 1447.5,-.5 1393.5,-.5"/>
<text text-anchor="middle" x="1420.5" y="-7.5" font-family="Helvetica,sans-Serif" font-size="10.00" fill="#000000">iostream</text>
</g>
<!-- Node21&#45;&gt;Node22 -->
<g id="edge36" class="edge">
<title>Node21&#45;&gt;Node22</title>
<path fill="none" stroke="#191970" d="M1463.5313,-61.8906C1455.9409,-52.7376 1444.3339,-38.7409 1435.0868,-27.59"/>
<polygon fill="#191970" stroke="#191970" points="1437.6587,-25.2083 1428.5811,-19.7449 1432.2703,-29.6766 1437.6587,-25.2083"/>
</g>
<!-- Node23 -->
<g id="node24" class="node">
<title>Node23</title>
<polygon fill="#ffffff" stroke="#bfbfbf" points="1466,-.5 1466,-19.5 1553,-19.5 1553,-.5 1466,-.5"/>
<text text-anchor="middle" x="1509.5" y="-7.5" font-family="Helvetica,sans-Serif" font-size="10.00" fill="#000000">AMReX_Print.H</text>
</g>
<!-- Node21&#45;&gt;Node23 -->
<g id="edge37" class="edge">
<title>Node21&#45;&gt;Node23</title>
<path fill="none" stroke="#191970" d="M1477.4375,-61.8906C1482.9267,-53.0068 1491.2353,-39.5601 1498.019,-28.5811"/>
<polygon fill="#191970" stroke="#191970" points="1501.1998,-30.0917 1503.4788,-19.7449 1495.2449,-26.4122 1501.1998,-30.0917"/>
</g>
<!-- Node24 -->
<g id="node25" class="node">
<title>Node24</title>
<polygon fill="#ffffff" stroke="#bfbfbf" points="1571.5,-.5 1571.5,-19.5 1633.5,-19.5 1633.5,-.5 1571.5,-.5"/>
<text text-anchor="middle" x="1602.5" y="-7.5" font-family="Helvetica,sans-Serif" font-size="10.00" fill="#000000">AMReX.H</text>
</g>
<!-- Node21&#45;&gt;Node24 -->
<g id="edge38" class="edge">
<title>Node21&#45;&gt;Node24</title>
<path fill="none" stroke="#191970" d="M1491.9688,-61.8906C1513.6952,-51.6908 1548.2335,-35.4763 1572.9185,-23.8875"/>
<polygon fill="#191970" stroke="#191970" points="1574.6103,-26.9598 1582.175,-19.5419 1571.6355,-20.6234 1574.6103,-26.9598"/>
</g>
<!-- Node25&#45;&gt;Node2 -->
<g id="edge49" class="edge">
<title>Node25&#45;&gt;Node2</title>
<path fill="none" stroke="#191970" d="M1151.4246,-199.8741C1037.5216,-188.024 772.5148,-160.4534 639.9492,-146.6616"/>
<polygon fill="#191970" stroke="#191970" points="640.1716,-143.166 629.8631,-145.6123 639.4472,-150.1284 640.1716,-143.166"/>
</g>
<!-- Node25&#45;&gt;Node19 -->
<g id="edge44" class="edge">
<title>Node25&#45;&gt;Node19</title>
<path fill="none" stroke="#191970" d="M1178.1204,-195.9705C1110.384,-172.3947 934.8824,-111.311 857.7704,-84.472"/>
<polygon fill="#191970" stroke="#191970" points="858.5924,-81.0523 847.9976,-81.0706 856.2914,-87.6633 858.5924,-81.0523"/>
</g>
<!-- Node26 -->
<g id="node27" class="node">
<title>Node26</title>
<g id="a_node27"><a xlink:href="_sim_time_8_h.html" target="_top" xlink:title="amr&#45;wind/core/SimTime.H">
<polygon fill="#ffffff" stroke="#000000" points="1766,-129 1766,-148 1897,-148 1897,-129 1766,-129"/>
<text text-anchor="middle" x="1831.5" y="-136" font-family="Helvetica,sans-Serif" font-size="10.00" fill="#000000">amr&#45;wind/core/SimTime.H</text>
</a>
</g>
</g>
<!-- Node25&#45;&gt;Node26 -->
<g id="edge45" class="edge">
<title>Node25&#45;&gt;Node26</title>
<path fill="none" stroke="#191970" d="M1259.686,-199.7005C1371.457,-187.7378 1627.8197,-160.2996 1755.8525,-146.5965"/>
<polygon fill="#191970" stroke="#191970" points="1756.3959,-150.0584 1765.9666,-145.514 1755.6508,-143.0981 1756.3959,-150.0584"/>
</g>
<!-- Node30 -->
<g id="node31" class="node">
<title>Node30</title>
<g id="a_node31"><a xlink:href="_p_d_e_base_8_h.html" target="_top" xlink:title="amr&#45;wind/equation_systems\l/PDEBase.H">
<polygon fill="#ffffff" stroke="#000000" points="1212,-123.5 1212,-153.5 1351,-153.5 1351,-123.5 1212,-123.5"/>
<text text-anchor="start" x="1220" y="-141.5" font-family="Helvetica,sans-Serif" font-size="10.00" fill="#000000">amr&#45;wind/equation_systems</text>
<text text-anchor="middle" x="1281.5" y="-130.5" font-family="Helvetica,sans-Serif" font-size="10.00" fill="#000000">/PDEBase.H</text>
</a>
</g>
</g>
<!-- Node25&#45;&gt;Node30 -->
<g id="edge50" class="edge">
<title>Node25&#45;&gt;Node30</title>
<path fill="none" stroke="#191970" d="M1216.3889,-195.9005C1226.8879,-186.6448 1243.1482,-172.3101 1256.7925,-160.2816"/>
<polygon fill="#191970" stroke="#191970" points="1259.2736,-162.7602 1264.4604,-153.5218 1254.6446,-157.5093 1259.2736,-162.7602"/>
</g>
<!-- Node34 -->
<g id="node35" class="node">
<title>Node34</title>
<g id="a_node35"><a xlink:href="_physics_8_h.html" target="_top" xlink:title="amr&#45;wind/core/Physics.H">
<polygon fill="#ffffff" stroke="#000000" points="1067,-129 1067,-148 1194,-148 1194,-129 1067,-129"/>
<text text-anchor="middle" x="1130.5" y="-136" font-family="Helvetica,sans-Serif" font-size="10.00" fill="#000000">amr&#45;wind/core/Physics.H</text>
</a>
</g>
</g>
<!-- Node25&#45;&gt;Node34 -->
<g id="edge62" class="edge">
<title>Node25&#45;&gt;Node34</title>
<path fill="none" stroke="#191970" d="M1194.7543,-195.9005C1182.836,-185.2535 1163.3943,-167.8856 1149.0132,-155.0385"/>
<polygon fill="#191970" stroke="#191970" points="1151.0151,-152.1337 1141.2257,-148.0817 1146.3516,-157.354 1151.0151,-152.1337"/>
</g>
<!-- Node27 -->
<g id="node28" class="node">
<title>Node27</title>
<polygon fill="#ffffff" stroke="#bfbfbf" points="1982,-62 1982,-81 2075,-81 2075,-62 1982,-62"/>
<text text-anchor="middle" x="2028.5" y="-69" font-family="Helvetica,sans-Serif" font-size="10.00" fill="#000000">AMReX_REAL.H</text>
</g>
<!-- Node26&#45;&gt;Node27 -->
<g id="edge46" class="edge">
<title>Node26&#45;&gt;Node27</title>
<path fill="none" stroke="#191970" d="M1859.7253,-128.9005C1894.1029,-117.2086 1952.3104,-97.4122 1990.5772,-84.3976"/>
<polygon fill="#191970" stroke="#191970" points="1991.9866,-87.6152 2000.3271,-81.0817 1989.7326,-80.988 1991.9866,-87.6152"/>
</g>
<!-- Node28 -->
<g id="node29" class="node">
<title>Node28</title>
<polygon fill="#ffffff" stroke="#bfbfbf" points="1837.5,-62 1837.5,-81 1963.5,-81 1963.5,-62 1837.5,-62"/>
<text text-anchor="middle" x="1900.5" y="-69" font-family="Helvetica,sans-Serif" font-size="10.00" fill="#000000">AMReX_GpuQualifiers.H</text>
</g>
<!-- Node26&#45;&gt;Node28 -->
<g id="edge47" class="edge">
<title>Node26&#45;&gt;Node28</title>
<path fill="none" stroke="#191970" d="M1841.386,-128.9005C1852.2484,-118.353 1869.9035,-101.2096 1883.0957,-88.3998"/>
<polygon fill="#191970" stroke="#191970" points="1885.8962,-90.559 1890.6323,-81.0817 1881.0198,-85.537 1885.8962,-90.559"/>
</g>
<!-- Node29 -->
<g id="node30" class="node">
<title>Node29</title>
<polygon fill="#ffffff" stroke="#bfbfbf" points="1709.5,-62 1709.5,-81 1819.5,-81 1819.5,-62 1709.5,-62"/>
<text text-anchor="middle" x="1764.5" y="-69" font-family="Helvetica,sans-Serif" font-size="10.00" fill="#000000">AMReX_Extension.H</text>
</g>
<!-- Node26&#45;&gt;Node29 -->
<g id="edge48" class="edge">
<title>Node26&#45;&gt;Node29</title>
<path fill="none" stroke="#191970" d="M1821.9005,-128.9005C1811.353,-118.353 1794.2096,-101.2096 1781.3998,-88.3998"/>
<polygon fill="#191970" stroke="#191970" points="1783.6276,-85.6779 1774.0817,-81.0817 1778.6779,-90.6276 1783.6276,-85.6779"/>
</g>
<!-- Node30&#45;&gt;Node3 -->
<g id="edge51" class="edge">
<title>Node30&#45;&gt;Node3</title>
<path fill="none" stroke="#191970" d="M1211.7029,-124.6608C1148.8671,-111.9318 1064.1864,-94.0044 1049.5,-87 1029.5145,-77.4683 1030.5993,-65.2892 1010.5,-56 935.2552,-21.2245 908.7428,-36.4534 827.5,-20 821.8686,-18.8595 815.8697,-17.6252 810.0887,-16.4259"/>
<polygon fill="#191970" stroke="#191970" points="810.5485,-12.9466 800.0447,-14.3327 809.1203,-19.7993 810.5485,-12.9466"/>
</g>
<!-- Node30&#45;&gt;Node5 -->
<g id="edge60" class="edge">
<title>Node30&#45;&gt;Node5</title>
<path fill="none" stroke="#191970" d="M1211.8382,-124.1529C1209.0269,-123.7338 1206.2394,-123.3467 1203.5,-123 917.7782,-86.8441 837.3629,-150.7199 556.5,-87 540.6508,-83.4043 449.9055,-44.7301 400.8948,-23.6005"/>
<polygon fill="#191970" stroke="#191970" points="402.252,-20.3742 391.6837,-19.6241 399.4776,-26.801 402.252,-20.3742"/>
</g>
<!-- Node30&#45;&gt;Node13 -->
<g id="edge61" class="edge">
<title>Node30&#45;&gt;Node13</title>
<path fill="none" stroke="#191970" d="M1299.1887,-123.1901C1317.112,-105.818 1340.018,-77.1558 1323.5,-56 1315.7348,-46.0545 1251.3031,-31.5275 1200.8475,-21.4709"/>
<polygon fill="#191970" stroke="#191970" points="1201.4519,-18.0228 1190.9637,-19.5219 1200.0976,-24.8905 1201.4519,-18.0228"/>
</g>
<!-- Node30&#45;&gt;Node21 -->
<g id="edge52" class="edge">
<title>Node30&#45;&gt;Node21</title>
<path fill="none" stroke="#191970" d="M1324.1397,-123.4639C1357.4104,-111.7316 1403.1415,-95.6054 1434.7956,-84.4431"/>
<polygon fill="#191970" stroke="#191970" points="1436.2779,-87.6317 1444.5447,-81.0053 1433.9499,-81.0302 1436.2779,-87.6317"/>
</g>
<!-- Node31 -->
<g id="node32" class="node">
<title>Node31</title>
<g id="a_node32"><a xlink:href="_coll_mgr_8_h.html" target="_top" xlink:title="amr&#45;wind/core/CollMgr.H">
<polygon fill="#ffffff" stroke="#000000" points="1189,-62 1189,-81 1314,-81 1314,-62 1189,-62"/>
<text text-anchor="middle" x="1251.5" y="-69" font-family="Helvetica,sans-Serif" font-size="10.00" fill="#000000">amr&#45;wind/core/CollMgr.H</text>
</a>
</g>
</g>
<!-- Node30&#45;&gt;Node31 -->
<g id="edge53" class="edge">
<title>Node30&#45;&gt;Node31</title>
<path fill="none" stroke="#191970" d="M1274.6925,-123.2967C1270.3361,-113.5672 1264.6496,-100.8675 1259.9978,-90.4784"/>
<polygon fill="#191970" stroke="#191970" points="1263.0594,-88.7515 1255.7783,-81.055 1256.6707,-91.6122 1263.0594,-88.7515"/>
</g>
<!-- Node32 -->
<g id="node33" class="node">
<title>Node32</title>
<g id="a_node33"><a xlink:href="_p_d_e_fields_8_h.html" target="_top" xlink:title="amr&#45;wind/equation_systems\l/PDEFields.H">
<polygon fill="#ffffff" stroke="#000000" points="1552,-56.5 1552,-86.5 1691,-86.5 1691,-56.5 1552,-56.5"/>
<text text-anchor="start" x="1560" y="-74.5" font-family="Helvetica,sans-Serif" font-size="10.00" fill="#000000">amr&#45;wind/equation_systems</text>
<text text-anchor="middle" x="1621.5" y="-63.5" font-family="Helvetica,sans-Serif" font-size="10.00" fill="#000000">/PDEFields.H</text>
</a>
</g>
</g>
<!-- Node30&#45;&gt;Node32 -->
<g id="edge58" class="edge">
<title>Node30&#45;&gt;Node32</title>
<path fill="none" stroke="#191970" d="M1351.013,-124.8769C1401.4473,-114.9834 1471.5981,-101.2028 1541.849,-87.3245"/>
<polygon fill="#191970" stroke="#191970" points="1542.6285,-90.7382 1551.7603,-85.366 1541.2715,-83.871 1542.6285,-90.7382"/>
</g>
<!-- Node31&#45;&gt;Node3 -->
<g id="edge54" class="edge">
<title>Node31&#45;&gt;Node3</title>
<path fill="none" stroke="#191970" d="M1211.4737,-61.9315C1201.4054,-59.7541 1190.5918,-57.6108 1180.5,-56 1024.7688,-31.1422 983.348,-44.1145 827.5,-20 821.9269,-19.1377 816.0237,-18.052 810.3345,-16.9162"/>
<polygon fill="#191970" stroke="#191970" points="810.9461,-13.4686 800.4425,-14.8553 809.5184,-20.3214 810.9461,-13.4686"/>
</g>
<!-- Node31&#45;&gt;Node4 -->
<g id="edge56" class="edge">
<title>Node31&#45;&gt;Node4</title>
<path fill="none" stroke="#191970" d="M1264.3125,-61.8906C1277.1901,-52.2324 1297.2584,-37.1812 1312.472,-25.771"/>
<polygon fill="#191970" stroke="#191970" points="1314.8775,-28.3419 1320.7775,-19.5419 1310.6774,-22.7419 1314.8775,-28.3419"/>
</g>
<!-- Node31&#45;&gt;Node10 -->
<g id="edge55" class="edge">
<title>Node31&#45;&gt;Node10</title>
<path fill="none" stroke="#191970" d="M1250.875,-61.8906C1250.3205,-53.3657 1249.4928,-40.6392 1248.7958,-29.9235"/>
<polygon fill="#191970" stroke="#191970" points="1252.2756,-29.4966 1248.1338,-19.7449 1245.2903,-29.951 1252.2756,-29.4966"/>
</g>
<!-- Node31&#45;&gt;Node17 -->
<g id="edge57" class="edge">
<title>Node31&#45;&gt;Node17</title>
<path fill="none" stroke="#191970" d="M1209.9136,-61.9745C1200.2789,-59.8919 1190.0503,-57.7803 1180.5,-56 1157.473,-51.7074 1020.619,-30.8037 940.9546,-18.7045"/>
<polygon fill="#191970" stroke="#191970" points="941.4722,-15.2431 931.0601,-17.2024 940.4214,-22.1638 941.4722,-15.2431"/>
</g>
<!-- Node33 -->
<g id="node34" class="node">
<title>Node33</title>
<polygon fill="#ffffff" stroke="#bfbfbf" points="1652,-.5 1652,-19.5 1697,-19.5 1697,-.5 1652,-.5"/>
<text text-anchor="middle" x="1674.5" y="-7.5" font-family="Helvetica,sans-Serif" font-size="10.00" fill="#000000">iosfwd</text>
</g>
<!-- Node32&#45;&gt;Node33 -->
<g id="edge59" class="edge">
<title>Node32&#45;&gt;Node33</title>
<path fill="none" stroke="#191970" d="M1634.6011,-56.2977C1642.1113,-47.5831 1651.57,-36.6075 1659.3927,-27.5302"/>
<polygon fill="#191970" stroke="#191970" points="1662.1371,-29.707 1666.014,-19.8469 1656.8345,-25.1372 1662.1371,-29.707"/>
</g>
<!-- Node34&#45;&gt;Node7 -->
<g id="edge65" class="edge">
<title>Node34&#45;&gt;Node7</title>
<path fill="none" stroke="#191970" d="M1066.7672,-136.3686C925.9238,-131.1502 597.3841,-115.992 556.5,-87 537.7522,-73.7054 528.8459,-47.8848 524.755,-29.8242"/>
<polygon fill="#191970" stroke="#191970" points="528.1415,-28.9043 522.7852,-19.7631 521.2719,-30.2493 528.1415,-28.9043"/>
</g>
<!-- Node34&#45;&gt;Node21 -->
<g id="edge63" class="edge">
<title>Node34&#45;&gt;Node21</title>
<path fill="none" stroke="#191970" d="M1174.4731,-128.9929C1184.0337,-126.9735 1194.0993,-124.8837 1203.5,-123 1288.1999,-106.028 1309.7115,-103.5238 1394.5,-87 1401.0646,-85.7207 1407.9402,-84.3626 1414.7667,-83.0029"/>
<polygon fill="#191970" stroke="#191970" points="1415.5714,-86.4114 1424.6911,-81.0187 1414.199,-79.5472 1415.5714,-86.4114"/>
</g>
<!-- Node34&#45;&gt;Node31 -->
<g id="edge64" class="edge">
<title>Node34&#45;&gt;Node31</title>
<path fill="none" stroke="#191970" d="M1147.8363,-128.9005C1168.053,-117.7062 1201.6872,-99.0823 1225.1424,-86.0947"/>
<polygon fill="#191970" stroke="#191970" points="1227.1429,-88.9878 1234.1958,-81.0817 1223.7519,-82.8639 1227.1429,-88.9878"/>
</g>
<!-- Node35 -->
<g id="node36" class="node">
<title>Node35</title>
<polygon fill="#ffffff" stroke="#bfbfbf" points="891.5,-62 891.5,-81 1001.5,-81 1001.5,-62 891.5,-62"/>
<text text-anchor="middle" x="946.5" y="-69" font-family="Helvetica,sans-Serif" font-size="10.00" fill="#000000">AMReX_Geometry.H</text>
</g>
<!-- Node34&#45;&gt;Node35 -->
<g id="edge66" class="edge">
<title>Node34&#45;&gt;Node35</title>
<path fill="none" stroke="#191970" d="M1104.1373,-128.9005C1072.1649,-117.2584 1018.1241,-97.5805 982.3775,-84.5641"/>
<polygon fill="#191970" stroke="#191970" points="983.4078,-81.2145 972.8138,-81.0817 981.0127,-87.792 983.4078,-81.2145"/>
</g>
<!-- Node36&#45;&gt;Node12 -->
<g id="edge68" class="edge">
<title>Node36&#45;&gt;Node12</title>
<path fill="none" stroke="#191970" d="M2076.696,-190.4546C2111.1969,-171.7652 2164.5456,-136.2255 2184.5,-87 2189.676,-74.2314 2191.4313,-67.9073 2184.5,-56 2175.8761,-41.185 2160.5066,-30.752 2145.4562,-23.6123"/>
<polygon fill="#191970" stroke="#191970" points="2146.7559,-20.3609 2136.1897,-19.5826 2143.9644,-26.7802 2146.7559,-20.3609"/>
</g>
<!-- Node37&#45;&gt;Node12 -->
<g id="edge72" class="edge">
<title>Node37&#45;&gt;Node12</title>
<path fill="none" stroke="#191970" d="M2071.6047,-123.3287C2075.5738,-113.1511 2080.6985,-99.3908 2084.5,-87 2090.4145,-67.7217 2095.7801,-45.3005 2099.2892,-29.6418"/>
<polygon fill="#191970" stroke="#191970" points="2102.7731,-30.0944 2101.4975,-19.5766 2095.9357,-28.5942 2102.7731,-30.0944"/>
</g>
<!-- Node37&#45;&gt;Node27 -->
<g id="edge71" class="edge">
<title>Node37&#45;&gt;Node27</title>
<path fill="none" stroke="#191970" d="M2057.1041,-123.2967C2051.6192,-113.3645 2044.4249,-100.3371 2038.6237,-89.8321"/>
<polygon fill="#191970" stroke="#191970" points="2041.6748,-88.1169 2033.7766,-81.055 2035.547,-91.5009 2041.6748,-88.1169"/>
</g>
<!-- Node38 -->
<g id="node39" class="node">
<title>Node38</title>
<polygon fill="#ffffff" stroke="#bfbfbf" points="2131.5,-62 2131.5,-81 2175.5,-81 2175.5,-62 2131.5,-62"/>
<text text-anchor="middle" x="2153.5" y="-69" font-family="Helvetica,sans-Serif" font-size="10.00" fill="#000000">cmath</text>
</g>
<!-- Node37&#45;&gt;Node38 -->
<g id="edge70" class="edge">
<title>Node37&#45;&gt;Node38</title>
<path fill="none" stroke="#191970" d="M2085.4686,-123.2967C2099.5787,-112.5537 2118.4451,-98.1895 2132.7308,-87.3129"/>
<polygon fill="#191970" stroke="#191970" points="2135.114,-89.8975 2140.9502,-81.055 2130.8736,-84.328 2135.114,-89.8975"/>
</g>
</g>
</svg>
