<?xml version="1.0" encoding="UTF-8" standalone="no"?>
<!DOCTYPE svg PUBLIC "-//W3C//DTD SVG 1.1//EN"
 "http://www.w3.org/Graphics/SVG/1.1/DTD/svg11.dtd">
<!-- Generated by graphviz version 2.40.1 (20161225.0304)
 -->
<!-- Title: DiffusionOps.H Pages: 1 -->
<!--zoomable 252 -->
<svg id="main" version="1.1" xmlns="http://www.w3.org/2000/svg" xmlns:xlink="http://www.w3.org/1999/xlink" xml:space="preserve" onload="init(evt)">
<style type="text/css"><![CDATA[
.edge:hover path { stroke: red; }
.edge:hover polygon { stroke: red; fill: red; }
]]></style>
<script type="text/javascript"><![CDATA[
var edges = document.getElementsByTagName('g');
if (edges && edges.length) {
  for (var i=0;i<edges.length;i++) {
    if (edges[i].id.substr(0,4)=='edge') {
      edges[i].setAttribute('class','edge');
    }
  }
}
]]></script>
        <defs>
                <circle id="rim" cx="0" cy="0" r="7"/>
                <circle id="rim2" cx="0" cy="0" r="3.5"/>
                <g id="zoomPlus">
                        <use xlink:href="#rim" fill="#404040">
                                <set attributeName="fill" to="#808080" begin="zoomplus.mouseover" end="zoomplus.mouseout"/>
                        </use>
                        <path d="M-4,0h8M0,-4v8" fill="none" stroke="white" stroke-width="1.5" pointer-events="none"/>
                </g>
                <g id="zoomMin">
                        <use xlink:href="#rim" fill="#404040">
                                <set attributeName="fill" to="#808080" begin="zoomminus.mouseover" end="zoomminus.mouseout"/>
                        </use>
                        <path d="M-4,0h8" fill="none" stroke="white" stroke-width="1.5" pointer-events="none"/>
                </g>
                <g id="dirArrow">
                        <path fill="none" stroke="white" stroke-width="1.5" d="M0,-3.0v7 M-2.5,-0.5L0,-3.0L2.5,-0.5"/>
                </g>
               <g id="resetDef">
                       <use xlink:href="#rim2" fill="#404040">
                               <set attributeName="fill" to="#808080" begin="reset.mouseover" end="reset.mouseout"/>
                       </use>
               </g>
        </defs>

<script type="text/javascript">
var viewWidth = 1059;
var viewHeight = 252;
var sectionId = 'dynsection-1';
</script>
<script xlink:href="svgpan.js"/>
<svg id="graph" class="graph">
<g id="viewport">
<title>DiffusionOps.H</title>
<polygon fill="#ffffff" stroke="transparent" points="-4,4 -4,-248 1054.5,-248 1054.5,4 -4,4"/>
<!-- Node54 -->
<g id="node1" class="node">
<title>Node54</title>
<polygon fill="#bfbfbf" stroke="#000000" points="273.5,-224.5 273.5,-243.5 357.5,-243.5 357.5,-224.5 273.5,-224.5"/>
<text text-anchor="middle" x="315.5" y="-231.5" font-family="Helvetica,sans-Serif" font-size="10.00" fill="#000000">DiffusionOps.H</text>
</g>
<!-- Node55 -->
<g id="node2" class="node">
<title>Node55</title>
<g id="a_node2"><a xlink:href="_p_d_e_8_h.html" target="_top" xlink:title="PDE.H">
<polygon fill="#ffffff" stroke="#000000" points="460.5,-168.5 460.5,-187.5 508.5,-187.5 508.5,-168.5 460.5,-168.5"/>
<text text-anchor="middle" x="484.5" y="-175.5" font-family="Helvetica,sans-Serif" font-size="10.00" fill="#000000">PDE.H</text>
</a>
</g>
</g>
<!-- Node54&#45;&gt;Node55 -->
<g id="edge1" class="edge">
<title>Node54&#45;&gt;Node55</title>
<path fill="none" stroke="#191970" d="M354.2524,-221.159C386.9757,-210.3157 432.8025,-195.1305 460.468,-185.9633"/>
<polygon fill="#191970" stroke="#191970" points="352.9437,-217.9054 344.5521,-224.3733 355.1455,-224.5501 352.9437,-217.9054"/>
</g>
<!-- Node61 -->
<g id="node8" class="node">
<title>Node61</title>
<g id="a_node8"><a xlink:href="icns__ops_8_h.html" target="_top" xlink:title="icns_ops.H">
<polygon fill="#ffffff" stroke="#000000" points="125.5,-56.5 125.5,-75.5 191.5,-75.5 191.5,-56.5 125.5,-56.5"/>
<text text-anchor="middle" x="158.5" y="-63.5" font-family="Helvetica,sans-Serif" font-size="10.00" fill="#000000">icns_ops.H</text>
</a>
</g>
</g>
<!-- Node54&#45;&gt;Node61 -->
<g id="edge28" class="edge">
<title>Node54&#45;&gt;Node61</title>
<path fill="none" stroke="#191970" d="M299.6052,-216.9915C267.0137,-182.1166 193.5122,-103.4652 167.6844,-75.8279"/>
<polygon fill="#191970" stroke="#191970" points="297.2241,-219.5697 306.6092,-224.4862 302.3385,-214.7902 297.2241,-219.5697"/>
</g>
<!-- Node63 -->
<g id="node10" class="node">
<title>Node63</title>
<g id="a_node10"><a xlink:href="icns__diffusion_8_h.html" target="_top" xlink:title="icns_diffusion.H">
<polygon fill="#ffffff" stroke="#000000" points="210,-56.5 210,-75.5 297,-75.5 297,-56.5 210,-56.5"/>
<text text-anchor="middle" x="253.5" y="-63.5" font-family="Helvetica,sans-Serif" font-size="10.00" fill="#000000">icns_diffusion.H</text>
</a>
</g>
</g>
<!-- Node54&#45;&gt;Node63 -->
<g id="edge29" class="edge">
<title>Node54&#45;&gt;Node63</title>
<path fill="none" stroke="#191970" d="M308.3872,-214.7267C295.1362,-178.8207 267.1113,-102.8822 257.127,-75.8279"/>
<polygon fill="#191970" stroke="#191970" points="305.2431,-216.3165 311.989,-224.4862 311.8102,-213.8929 305.2431,-216.3165"/>
</g>
<!-- Node76 -->
<g id="node23" class="node">
<title>Node76</title>
<g id="a_node23"><a xlink:href="_diffusion_ops_8cpp.html" target="_top" xlink:title="DiffusionOps.cpp">
<polygon fill="#ffffff" stroke="#000000" points="526.5,-168.5 526.5,-187.5 618.5,-187.5 618.5,-168.5 526.5,-168.5"/>
<text text-anchor="middle" x="572.5" y="-175.5" font-family="Helvetica,sans-Serif" font-size="10.00" fill="#000000">DiffusionOps.cpp</text>
</a>
</g>
</g>
<!-- Node54&#45;&gt;Node76 -->
<g id="edge27" class="edge">
<title>Node54&#45;&gt;Node76</title>
<path fill="none" stroke="#191970" d="M367.7032,-222.625C415.0429,-212.3097 484.0412,-197.2751 528.6047,-187.5647"/>
<polygon fill="#191970" stroke="#191970" points="366.6761,-219.2666 357.6505,-224.8154 368.1665,-226.1061 366.6761,-219.2666"/>
</g>
<!-- Node56 -->
<g id="node3" class="node">
<title>Node56</title>
<g id="a_node3"><a xlink:href="density_8_h.html" target="_top" xlink:title="density.H">
<polygon fill="#ffffff" stroke="#000000" points="38,-112.5 38,-131.5 97,-131.5 97,-112.5 38,-112.5"/>
<text text-anchor="middle" x="67.5" y="-119.5" font-family="Helvetica,sans-Serif" font-size="10.00" fill="#000000">density.H</text>
</a>
</g>
</g>
<!-- Node55&#45;&gt;Node56 -->
<g id="edge2" class="edge">
<title>Node55&#45;&gt;Node56</title>
<path fill="none" stroke="#191970" d="M450.2453,-173.3998C370.309,-162.665 172.5416,-136.1063 97.2518,-125.9954"/>
<polygon fill="#191970" stroke="#191970" points="449.901,-176.8849 460.2779,-174.7472 450.8327,-169.9472 449.901,-176.8849"/>
</g>
<!-- Node59 -->
<g id="node6" class="node">
<title>Node59</title>
<g id="a_node6"><a xlink:href="icns_8_h.html" target="_top" xlink:title="icns.H">
<polygon fill="#ffffff" stroke="#000000" points="335,-112.5 335,-131.5 380,-131.5 380,-112.5 335,-112.5"/>
<text text-anchor="middle" x="357.5" y="-119.5" font-family="Helvetica,sans-Serif" font-size="10.00" fill="#000000">icns.H</text>
</a>
</g>
</g>
<!-- Node55&#45;&gt;Node59 -->
<g id="edge6" class="edge">
<title>Node55&#45;&gt;Node59</title>
<path fill="none" stroke="#191970" d="M453.3108,-164.2473C430.2463,-154.0771 399.4288,-140.4883 379.0472,-131.5011"/>
<polygon fill="#191970" stroke="#191970" points="452.1058,-167.5411 462.6679,-168.3733 454.9301,-161.1361 452.1058,-167.5411"/>
</g>
<!-- Node66 -->
<g id="node13" class="node">
<title>Node66</title>
<g id="a_node13"><a xlink:href="levelset_8_h.html" target="_top" xlink:title="levelset.H">
<polygon fill="#ffffff" stroke="#000000" points="550,-112.5 550,-131.5 611,-131.5 611,-112.5 550,-112.5"/>
<text text-anchor="middle" x="580.5" y="-119.5" font-family="Helvetica,sans-Serif" font-size="10.00" fill="#000000">levelset.H</text>
</a>
</g>
</g>
<!-- Node55&#45;&gt;Node66 -->
<g id="edge16" class="edge">
<title>Node55&#45;&gt;Node66</title>
<path fill="none" stroke="#191970" d="M510.1346,-163.0465C527.2159,-153.0824 549.164,-140.2794 563.9697,-131.6427"/>
<polygon fill="#191970" stroke="#191970" points="508.0962,-160.1836 501.2219,-168.2455 511.6233,-166.23 508.0962,-160.1836"/>
</g>
<!-- Node69 -->
<g id="node16" class="node">
<title>Node69</title>
<g id="a_node16"><a xlink:href="_s_d_r_8_h.html" target="_top" xlink:title="SDR.H">
<polygon fill="#ffffff" stroke="#000000" points="671,-112.5 671,-131.5 720,-131.5 720,-112.5 671,-112.5"/>
<text text-anchor="middle" x="695.5" y="-119.5" font-family="Helvetica,sans-Serif" font-size="10.00" fill="#000000">SDR.H</text>
</a>
</g>
</g>
<!-- Node55&#45;&gt;Node69 -->
<g id="edge20" class="edge">
<title>Node55&#45;&gt;Node69</title>
<path fill="none" stroke="#191970" d="M518.2842,-167.8573C578.5188,-151.069 638.2737,-136.0674 670.9404,-128.0057"/>
<polygon fill="#191970" stroke="#191970" points="517.3016,-164.4978 508.6169,-170.5663 519.1904,-171.2381 517.3016,-164.4978"/>
</g>
<!-- Node71 -->
<g id="node18" class="node">
<title>Node71</title>
<g id="a_node18"><a xlink:href="temperature_8_h.html" target="_top" xlink:title="temperature.H">
<polygon fill="#ffffff" stroke="#000000" points="763,-112.5 763,-131.5 842,-131.5 842,-112.5 763,-112.5"/>
<text text-anchor="middle" x="802.5" y="-119.5" font-family="Helvetica,sans-Serif" font-size="10.00" fill="#000000">temperature.H</text>
</a>
</g>
</g>
<!-- Node55&#45;&gt;Node71 -->
<g id="edge22" class="edge">
<title>Node55&#45;&gt;Node71</title>
<path fill="none" stroke="#191970" d="M518.6015,-168.0443C578.2601,-155.1581 699.729,-136.9495 762.8398,-127.728"/>
<polygon fill="#191970" stroke="#191970" points="517.5384,-164.6959 508.55,-170.3047 519.0743,-171.5253 517.5384,-164.6959"/>
</g>
<!-- Node73 -->
<g id="node20" class="node">
<title>Node73</title>
<g id="a_node20"><a xlink:href="_t_k_e_8_h.html" target="_top" xlink:title="TKE.H">
<polygon fill="#ffffff" stroke="#000000" points="893,-112.5 893,-131.5 940,-131.5 940,-112.5 893,-112.5"/>
<text text-anchor="middle" x="916.5" y="-119.5" font-family="Helvetica,sans-Serif" font-size="10.00" fill="#000000">TKE.H</text>
</a>
</g>
</g>
<!-- Node55&#45;&gt;Node73 -->
<g id="edge24" class="edge">
<title>Node55&#45;&gt;Node73</title>
<path fill="none" stroke="#191970" d="M518.3407,-168.1631C665.114,-138.8234 706.0468,-150.743 850.5,-132 864.5212,-130.1807 880.1678,-127.8243 892.7062,-125.8559"/>
<polygon fill="#191970" stroke="#191970" points="517.622,-164.7375 508.5177,-170.156 519.014,-171.5977 517.622,-164.7375"/>
</g>
<!-- Node57 -->
<g id="node4" class="node">
<title>Node57</title>
<g id="a_node4"><a xlink:href="density_8cpp.html" target="_top" xlink:title="density.cpp">
<polygon fill="#ffffff" stroke="#000000" points="0,-.5 0,-19.5 67,-19.5 67,-.5 0,-.5"/>
<text text-anchor="middle" x="33.5" y="-7.5" font-family="Helvetica,sans-Serif" font-size="10.00" fill="#000000">density.cpp</text>
</a>
</g>
</g>
<!-- Node56&#45;&gt;Node57 -->
<g id="edge3" class="edge">
<title>Node56&#45;&gt;Node57</title>
<path fill="none" stroke="#191970" d="M43.5955,-106.2861C33.8842,-98.4665 23.7337,-88.0919 18.5,-76 10.2852,-57.0206 20.4556,-32.9426 27.6143,-19.7472"/>
<polygon fill="#191970" stroke="#191970" points="41.7766,-109.2962 51.882,-112.4791 45.9671,-103.6891 41.7766,-109.2962"/>
</g>
<!-- Node58 -->
<g id="node5" class="node">
<title>Node58</title>
<g id="a_node5"><a xlink:href="density__ops_8_h.html" target="_top" xlink:title="density_ops.H">
<polygon fill="#ffffff" stroke="#000000" points="27.5,-56.5 27.5,-75.5 107.5,-75.5 107.5,-56.5 27.5,-56.5"/>
<text text-anchor="middle" x="67.5" y="-63.5" font-family="Helvetica,sans-Serif" font-size="10.00" fill="#000000">density_ops.H</text>
</a>
</g>
</g>
<!-- Node56&#45;&gt;Node58 -->
<g id="edge4" class="edge">
<title>Node56&#45;&gt;Node58</title>
<path fill="none" stroke="#191970" d="M67.5,-102.1575C67.5,-93.155 67.5,-82.9199 67.5,-75.6427"/>
<polygon fill="#191970" stroke="#191970" points="64.0001,-102.2455 67.5,-112.2455 71.0001,-102.2456 64.0001,-102.2455"/>
</g>
<!-- Node58&#45;&gt;Node57 -->
<g id="edge5" class="edge">
<title>Node58&#45;&gt;Node57</title>
<path fill="none" stroke="#191970" d="M56.3465,-47.6296C50.6753,-38.2887 44.0155,-27.3197 39.3545,-19.6427"/>
<polygon fill="#191970" stroke="#191970" points="53.3961,-49.5141 61.5777,-56.2455 59.3796,-45.8812 53.3961,-49.5141"/>
</g>
<!-- Node60 -->
<g id="node7" class="node">
<title>Node60</title>
<g id="a_node7"><a xlink:href="icns_8cpp.html" target="_top" xlink:title="icns.cpp">
<polygon fill="#ffffff" stroke="#000000" points="263,-.5 263,-19.5 316,-19.5 316,-.5 263,-.5"/>
<text text-anchor="middle" x="289.5" y="-7.5" font-family="Helvetica,sans-Serif" font-size="10.00" fill="#000000">icns.cpp</text>
</a>
</g>
</g>
<!-- Node59&#45;&gt;Node60 -->
<g id="edge7" class="edge">
<title>Node59&#45;&gt;Node60</title>
<path fill="none" stroke="#191970" d="M346.5063,-103.8927C331.8967,-79.8299 306.6125,-38.1853 295.283,-19.5249"/>
<polygon fill="#191970" stroke="#191970" points="343.5208,-105.7195 351.7024,-112.4509 349.5043,-102.0866 343.5208,-105.7195"/>
</g>
<!-- Node59&#45;&gt;Node61 -->
<g id="edge8" class="edge">
<title>Node59&#45;&gt;Node61</title>
<path fill="none" stroke="#191970" d="M324.9392,-112.8371C288.1581,-102.4867 228.6188,-85.7319 191.6122,-75.318"/>
<polygon fill="#191970" stroke="#191970" points="324.0979,-116.2363 334.6722,-115.5761 325.9942,-109.498 324.0979,-116.2363"/>
</g>
<!-- Node59&#45;&gt;Node63 -->
<g id="edge11" class="edge">
<title>Node59&#45;&gt;Node63</title>
<path fill="none" stroke="#191970" d="M330.4971,-107.46C311.8864,-97.4388 287.6701,-84.3993 271.4078,-75.6427"/>
<polygon fill="#191970" stroke="#191970" points="328.9205,-110.5861 339.3846,-112.2455 332.2392,-104.4228 328.9205,-110.5861"/>
</g>
<!-- Node64 -->
<g id="node11" class="node">
<title>Node64</title>
<g id="a_node11"><a xlink:href="icns__bcop_8_h.html" target="_top" xlink:title="icns_bcop.H">
<polygon fill="#ffffff" stroke="#000000" points="354,-56.5 354,-75.5 425,-75.5 425,-56.5 354,-56.5"/>
<text text-anchor="middle" x="389.5" y="-63.5" font-family="Helvetica,sans-Serif" font-size="10.00" fill="#000000">icns_bcop.H</text>
</a>
</g>
</g>
<!-- Node59&#45;&gt;Node64 -->
<g id="edge13" class="edge">
<title>Node59&#45;&gt;Node64</title>
<path fill="none" stroke="#191970" d="M368.1645,-103.3372C373.4654,-94.0605 379.6487,-83.2398 383.9899,-75.6427"/>
<polygon fill="#191970" stroke="#191970" points="364.9966,-101.8266 363.074,-112.2455 371.0743,-105.2996 364.9966,-101.8266"/>
</g>
<!-- Node65 -->
<g id="node12" class="node">
<title>Node65</title>
<g id="a_node12"><a xlink:href="_power_law_profile_8cpp.html" target="_top" xlink:title="PowerLawProfile.cpp">
<polygon fill="#ffffff" stroke="#000000" points="443,-56.5 443,-75.5 552,-75.5 552,-56.5 443,-56.5"/>
<text text-anchor="middle" x="497.5" y="-63.5" font-family="Helvetica,sans-Serif" font-size="10.00" fill="#000000">PowerLawProfile.cpp</text>
</a>
</g>
</g>
<!-- Node59&#45;&gt;Node65 -->
<g id="edge15" class="edge">
<title>Node59&#45;&gt;Node65</title>
<path fill="none" stroke="#191970" d="M389.8922,-109.0431C415.344,-98.8624 450.2299,-84.908 473.2949,-75.682"/>
<polygon fill="#191970" stroke="#191970" points="388.2899,-105.9144 380.305,-112.878 390.8897,-112.4137 388.2899,-105.9144"/>
</g>
<!-- Node61&#45;&gt;Node60 -->
<g id="edge9" class="edge">
<title>Node61&#45;&gt;Node60</title>
<path fill="none" stroke="#191970" d="M190.3534,-52.3833C214.1785,-42.1985 246.1568,-28.5284 267.2742,-19.5011"/>
<polygon fill="#191970" stroke="#191970" points="188.839,-49.2242 181.0197,-56.3733 191.5906,-55.6608 188.839,-49.2242"/>
</g>
<!-- Node62 -->
<g id="node9" class="node">
<title>Node62</title>
<g id="a_node9"><a xlink:href="icns__ops_8cpp.html" target="_top" xlink:title="icns_ops.cpp">
<polygon fill="#ffffff" stroke="#000000" points="121.5,-.5 121.5,-19.5 195.5,-19.5 195.5,-.5 121.5,-.5"/>
<text text-anchor="middle" x="158.5" y="-7.5" font-family="Helvetica,sans-Serif" font-size="10.00" fill="#000000">icns_ops.cpp</text>
</a>
</g>
</g>
<!-- Node61&#45;&gt;Node62 -->
<g id="edge10" class="edge">
<title>Node61&#45;&gt;Node62</title>
<path fill="none" stroke="#191970" d="M158.5,-46.1575C158.5,-37.155 158.5,-26.9199 158.5,-19.6427"/>
<polygon fill="#191970" stroke="#191970" points="155.0001,-46.2455 158.5,-56.2455 162.0001,-46.2456 155.0001,-46.2455"/>
</g>
<!-- Node63&#45;&gt;Node60 -->
<g id="edge12" class="edge">
<title>Node63&#45;&gt;Node60</title>
<path fill="none" stroke="#191970" d="M265.3096,-47.6296C271.3144,-38.2887 278.3659,-27.3197 283.3011,-19.6427"/>
<polygon fill="#191970" stroke="#191970" points="262.2342,-45.9411 259.7707,-56.2455 268.1225,-49.7264 262.2342,-45.9411"/>
</g>
<!-- Node64&#45;&gt;Node60 -->
<g id="edge14" class="edge">
<title>Node64&#45;&gt;Node60</title>
<path fill="none" stroke="#191970" d="M363.2902,-51.3225C345.4283,-41.3198 322.2845,-28.3593 306.7191,-19.6427"/>
<polygon fill="#191970" stroke="#191970" points="361.6461,-54.4132 372.0813,-56.2455 365.0664,-48.3057 361.6461,-54.4132"/>
</g>
<!-- Node67 -->
<g id="node14" class="node">
<title>Node67</title>
<g id="a_node14"><a xlink:href="levelset_8cpp.html" target="_top" xlink:title="levelset.cpp">
<polygon fill="#ffffff" stroke="#000000" points="580,-.5 580,-19.5 649,-19.5 649,-.5 580,-.5"/>
<text text-anchor="middle" x="614.5" y="-7.5" font-family="Helvetica,sans-Serif" font-size="10.00" fill="#000000">levelset.cpp</text>
</a>
</g>
</g>
<!-- Node66&#45;&gt;Node67 -->
<g id="edge17" class="edge">
<title>Node66&#45;&gt;Node67</title>
<path fill="none" stroke="#191970" d="M585.9796,-102.2906C589.6822,-89.1445 594.7447,-71.4955 599.5,-56 603.3444,-43.4726 608.0735,-29.1315 611.1815,-19.8389"/>
<polygon fill="#191970" stroke="#191970" points="582.5511,-101.5549 583.2259,-112.1282 589.292,-103.4419 582.5511,-101.5549"/>
</g>
<!-- Node68 -->
<g id="node15" class="node">
<title>Node68</title>
<g id="a_node15"><a xlink:href="levelset__ops_8_h.html" target="_top" xlink:title="levelset_ops.H">
<polygon fill="#ffffff" stroke="#000000" points="608.5,-56.5 608.5,-75.5 690.5,-75.5 690.5,-56.5 608.5,-56.5"/>
<text text-anchor="middle" x="649.5" y="-63.5" font-family="Helvetica,sans-Serif" font-size="10.00" fill="#000000">levelset_ops.H</text>
</a>
</g>
</g>
<!-- Node66&#45;&gt;Node68 -->
<g id="edge18" class="edge">
<title>Node66&#45;&gt;Node68</title>
<path fill="none" stroke="#191970" d="M600.303,-105.928C612.3636,-96.1397 627.3714,-83.9595 637.6188,-75.6427"/>
<polygon fill="#191970" stroke="#191970" points="598.0779,-103.2262 592.5189,-112.2455 602.4891,-108.6614 598.0779,-103.2262"/>
</g>
<!-- Node68&#45;&gt;Node67 -->
<g id="edge19" class="edge">
<title>Node68&#45;&gt;Node67</title>
<path fill="none" stroke="#191970" d="M638.0185,-47.6296C632.1804,-38.2887 625.3248,-27.3197 620.5267,-19.6427"/>
<polygon fill="#191970" stroke="#191970" points="635.1354,-49.6206 643.4035,-56.2455 641.0714,-45.9105 635.1354,-49.6206"/>
</g>
<!-- Node70 -->
<g id="node17" class="node">
<title>Node70</title>
<g id="a_node17"><a xlink:href="_s_d_r_8cpp.html" target="_top" xlink:title="SDR.cpp">
<polygon fill="#ffffff" stroke="#000000" points="709,-56.5 709,-75.5 766,-75.5 766,-56.5 709,-56.5"/>
<text text-anchor="middle" x="737.5" y="-63.5" font-family="Helvetica,sans-Serif" font-size="10.00" fill="#000000">SDR.cpp</text>
</a>
</g>
</g>
<!-- Node69&#45;&gt;Node70 -->
<g id="edge21" class="edge">
<title>Node69&#45;&gt;Node70</title>
<path fill="none" stroke="#191970" d="M708.8416,-104.2112C715.9396,-94.7472 724.3903,-83.4797 730.268,-75.6427"/>
<polygon fill="#191970" stroke="#191970" points="706.0159,-102.1455 702.8158,-112.2455 711.6159,-106.3455 706.0159,-102.1455"/>
</g>
<!-- Node72 -->
<g id="node19" class="node">
<title>Node72</title>
<g id="a_node19"><a xlink:href="temperature_8cpp.html" target="_top" xlink:title="temperature.cpp">
<polygon fill="#ffffff" stroke="#000000" points="784,-56.5 784,-75.5 871,-75.5 871,-56.5 784,-56.5"/>
<text text-anchor="middle" x="827.5" y="-63.5" font-family="Helvetica,sans-Serif" font-size="10.00" fill="#000000">temperature.cpp</text>
</a>
</g>
</g>
<!-- Node71&#45;&gt;Node72 -->
<g id="edge23" class="edge">
<title>Node71&#45;&gt;Node72</title>
<path fill="none" stroke="#191970" d="M810.9626,-103.0437C815.0745,-93.8331 819.8394,-83.1598 823.1952,-75.6427"/>
<polygon fill="#191970" stroke="#191970" points="807.7352,-101.6874 806.8547,-112.2455 814.1272,-104.541 807.7352,-101.6874"/>
</g>
<!-- Node74 -->
<g id="node21" class="node">
<title>Node74</title>
<g id="a_node21"><a xlink:href="_t_k_e_8cpp.html" target="_top" xlink:title="TKE.cpp">
<polygon fill="#ffffff" stroke="#000000" points="889,-56.5 889,-75.5 944,-75.5 944,-56.5 889,-56.5"/>
<text text-anchor="middle" x="916.5" y="-63.5" font-family="Helvetica,sans-Serif" font-size="10.00" fill="#000000">TKE.cpp</text>
</a>
</g>
</g>
<!-- Node73&#45;&gt;Node74 -->
<g id="edge25" class="edge">
<title>Node73&#45;&gt;Node74</title>
<path fill="none" stroke="#191970" d="M916.5,-102.1575C916.5,-93.155 916.5,-82.9199 916.5,-75.6427"/>
<polygon fill="#191970" stroke="#191970" points="913.0001,-102.2455 916.5,-112.2455 920.0001,-102.2456 913.0001,-102.2455"/>
</g>
<!-- Node75 -->
<g id="node22" class="node">
<title>Node75</title>
<g id="a_node22"><a xlink:href="_one_eq_ksgs_8cpp.html" target="_top" xlink:title="OneEqKsgs.cpp">
<polygon fill="#ffffff" stroke="#000000" points="962.5,-56.5 962.5,-75.5 1050.5,-75.5 1050.5,-56.5 962.5,-56.5"/>
<text text-anchor="middle" x="1006.5" y="-63.5" font-family="Helvetica,sans-Serif" font-size="10.00" fill="#000000">OneEqKsgs.cpp</text>
</a>
</g>
</g>
<!-- Node73&#45;&gt;Node75 -->
<g id="edge26" class="edge">
<title>Node73&#45;&gt;Node75</title>
<path fill="none" stroke="#191970" d="M940.9784,-106.769C956.9266,-96.8456 977.251,-84.1994 991.0028,-75.6427"/>
<polygon fill="#191970" stroke="#191970" points="938.8183,-103.9908 932.1768,-112.2455 942.5165,-109.9342 938.8183,-103.9908"/>
</g>
</g>
</svg>
        <g id="navigator" transform="translate(0 0)" fill="#404254">
                <rect fill="#f2f5e9" fill-opacity="0.5" stroke="#606060" stroke-width=".5" x="0" y="0" width="60" height="60"/>
                <use id="zoomplus" xlink:href="#zoomPlus" x="17" y="9" onmousedown="handleZoom(evt,'in')"/>
                <use id="zoomminus" xlink:href="#zoomMin" x="42" y="9" onmousedown="handleZoom(evt,'out')"/>
                <use id="reset" xlink:href="#resetDef" x="30" y="36" onmousedown="handleReset()"/>
                <g id="arrowUp" xlink:href="#dirArrow" transform="translate(30 24)" onmousedown="handlePan(0,-1)">
                  <use xlink:href="#rim" fill="#404040">
                        <set attributeName="fill" to="#808080" begin="arrowUp.mouseover" end="arrowUp.mouseout"/>
                  </use>
                  <path fill="none" stroke="white" stroke-width="1.5" d="M0,-3.0v7 M-2.5,-0.5L0,-3.0L2.5,-0.5"/>
                </g>
                <g id="arrowRight" xlink:href="#dirArrow" transform="rotate(90) translate(36 -43)" onmousedown="handlePan(1,0)">
                  <use xlink:href="#rim" fill="#404040">
                        <set attributeName="fill" to="#808080" begin="arrowRight.mouseover" end="arrowRight.mouseout"/>
                  </use>
                  <path fill="none" stroke="white" stroke-width="1.5" d="M0,-3.0v7 M-2.5,-0.5L0,-3.0L2.5,-0.5"/>
                </g>
                <g id="arrowDown" xlink:href="#dirArrow" transform="rotate(180) translate(-30 -48)" onmousedown="handlePan(0,1)">
                  <use xlink:href="#rim" fill="#404040">
                        <set attributeName="fill" to="#808080" begin="arrowDown.mouseover" end="arrowDown.mouseout"/>
                  </use>
                  <path fill="none" stroke="white" stroke-width="1.5" d="M0,-3.0v7 M-2.5,-0.5L0,-3.0L2.5,-0.5"/>
                </g>
                <g id="arrowLeft" xlink:href="#dirArrow" transform="rotate(270) translate(-36 17)" onmousedown="handlePan(-1,0)">
                  <use xlink:href="#rim" fill="#404040">
                        <set attributeName="fill" to="#808080" begin="arrowLeft.mouseover" end="arrowLeft.mouseout"/>
                  </use>
                  <path fill="none" stroke="white" stroke-width="1.5" d="M0,-3.0v7 M-2.5,-0.5L0,-3.0L2.5,-0.5"/>
                </g>
        </g>
        <svg viewBox="0 0 15 15" width="100%" height="30px" preserveAspectRatio="xMaxYMin meet">
         <g id="arrow_out" transform="scale(0.3 0.3)">
          <a xlink:href="_diffusion_ops_8_h__dep__incl_org.svg" target="_base">
           <rect id="button" ry="5" rx="5" y="6" x="6" height="38" width="38"
                fill="#f2f5e9" fill-opacity="0.5" stroke="#606060" stroke-width="1.0"/>
           <path id="arrow"
             d="M 11.500037,31.436501 C 11.940474,20.09759 22.043105,11.32322 32.158766,21.979434 L 37.068811,17.246167 C 37.068811,17.246167 37.088388,32 37.088388,32 L 22.160133,31.978069 C 22.160133,31.978069 26.997745,27.140456 26.997745,27.140456 C 18.528582,18.264221 13.291696,25.230495 11.500037,31.436501 z"
             style="fill:#404040;"/>
          </a>
         </g>
        </svg>
</svg>
