<?xml version="1.0" encoding="UTF-8" standalone="no"?>
<!DOCTYPE svg PUBLIC "-//W3C//DTD SVG 1.1//EN"
 "http://www.w3.org/Graphics/SVG/1.1/DTD/svg11.dtd">
<!-- Generated by graphviz version 2.40.1 (20161225.0304)
 -->
<!-- Title: EkmanSpiral.cpp Pages: 1 -->
<!--zoomable 330 -->
<svg id="main" version="1.1" xmlns="http://www.w3.org/2000/svg" xmlns:xlink="http://www.w3.org/1999/xlink" xml:space="preserve" onload="init(evt)">
<style type="text/css"><![CDATA[
.edge:hover path { stroke: red; }
.edge:hover polygon { stroke: red; fill: red; }
]]></style>
<script type="text/javascript"><![CDATA[
var edges = document.getElementsByTagName('g');
if (edges && edges.length) {
  for (var i=0;i<edges.length;i++) {
    if (edges[i].id.substr(0,4)=='edge') {
      edges[i].setAttribute('class','edge');
    }
  }
}
]]></script>
        <defs>
                <circle id="rim" cx="0" cy="0" r="7"/>
                <circle id="rim2" cx="0" cy="0" r="3.5"/>
                <g id="zoomPlus">
                        <use xlink:href="#rim" fill="#404040">
                                <set attributeName="fill" to="#808080" begin="zoomplus.mouseover" end="zoomplus.mouseout"/>
                        </use>
                        <path d="M-4,0h8M0,-4v8" fill="none" stroke="white" stroke-width="1.5" pointer-events="none"/>
                </g>
                <g id="zoomMin">
                        <use xlink:href="#rim" fill="#404040">
                                <set attributeName="fill" to="#808080" begin="zoomminus.mouseover" end="zoomminus.mouseout"/>
                        </use>
                        <path d="M-4,0h8" fill="none" stroke="white" stroke-width="1.5" pointer-events="none"/>
                </g>
                <g id="dirArrow">
                        <path fill="none" stroke="white" stroke-width="1.5" d="M0,-3.0v7 M-2.5,-0.5L0,-3.0L2.5,-0.5"/>
                </g>
               <g id="resetDef">
                       <use xlink:href="#rim2" fill="#404040">
                               <set attributeName="fill" to="#808080" begin="reset.mouseover" end="reset.mouseout"/>
                       </use>
               </g>
        </defs>

<script type="text/javascript">
var viewWidth = 2412;
var viewHeight = 330;
var sectionId = 'dynsection-0';
</script>
<script xlink:href="svgpan.js"/>
<svg id="graph" class="graph">
<g id="viewport">
<title>EkmanSpiral.cpp</title>
<polygon fill="#ffffff" stroke="transparent" points="-4,4 -4,-326 2408,-326 2408,4 -4,4"/>
<!-- Node0 -->
<g id="node1" class="node">
<title>Node0</title>
<polygon fill="#bfbfbf" stroke="#000000" points="2057.5,-302.5 2057.5,-321.5 2148.5,-321.5 2148.5,-302.5 2057.5,-302.5"/>
<text text-anchor="middle" x="2103" y="-309.5" font-family="Helvetica,sans-Serif" font-size="10.00" fill="#000000">EkmanSpiral.cpp</text>
</g>
<!-- Node1 -->
<g id="node2" class="node">
<title>Node1</title>
<g id="a_node2"><a xlink:href="_ekman_spiral_8_h.html" target="_top" xlink:title="amr&#45;wind/physics/EkmanSpiral.H">
<polygon fill="#ffffff" stroke="#000000" points="893,-246.5 893,-265.5 1055,-265.5 1055,-246.5 893,-246.5"/>
<text text-anchor="middle" x="974" y="-253.5" font-family="Helvetica,sans-Serif" font-size="10.00" fill="#000000">amr&#45;wind/physics/EkmanSpiral.H</text>
</a>
</g>
</g>
<!-- Node0&#45;&gt;Node1 -->
<g id="edge1" class="edge">
<title>Node0&#45;&gt;Node1</title>
<path fill="none" stroke="#191970" d="M2057.3436,-309.7354C1888.1235,-301.3418 1294.6916,-271.9068 1065.3897,-260.5331"/>
<polygon fill="#191970" stroke="#191970" points="1065.2391,-257.0214 1055.078,-260.0216 1064.8923,-264.0128 1065.2391,-257.0214"/>
</g>
<!-- Node19 -->
<g id="node20" class="node">
<title>Node19</title>
<g id="a_node20"><a xlink:href="_c_f_d_sim_8_h.html" target="_top" xlink:title="amr&#45;wind/CFDSim.H">
<polygon fill="#ffffff" stroke="#000000" points="879,-190.5 879,-209.5 987,-209.5 987,-190.5 879,-190.5"/>
<text text-anchor="middle" x="933" y="-197.5" font-family="Helvetica,sans-Serif" font-size="10.00" fill="#000000">amr&#45;wind/CFDSim.H</text>
</a>
</g>
</g>
<!-- Node0&#45;&gt;Node19 -->
<g id="edge62" class="edge">
<title>Node0&#45;&gt;Node19</title>
<path fill="none" stroke="#191970" d="M2057.4937,-307.6438C1876.5906,-290.3266 1207.9903,-226.3239 997.1368,-206.1396"/>
<polygon fill="#191970" stroke="#191970" points="997.4378,-202.6525 987.1497,-205.1836 996.7707,-209.6206 997.4378,-202.6525"/>
</g>
<!-- Node29 -->
<g id="node30" class="node">
<title>Node29</title>
<polygon fill="#ffffff" stroke="#bfbfbf" points="1791.5,-.5 1791.5,-19.5 1898.5,-19.5 1898.5,-.5 1791.5,-.5"/>
<text text-anchor="middle" x="1845" y="-7.5" font-family="Helvetica,sans-Serif" font-size="10.00" fill="#000000">AMReX_iMultiFab.H</text>
</g>
<!-- Node0&#45;&gt;Node29 -->
<g id="edge63" class="edge">
<title>Node0&#45;&gt;Node29</title>
<path fill="none" stroke="#191970" d="M2105.8035,-302.2066C2111.0887,-282.8521 2122,-238.2612 2122,-200 2122,-200 2122,-200 2122,-138.5 2122,-100.8735 2130.2616,-81.9337 2103,-56 2075.721,-30.0497 1975.8796,-18.4269 1908.7005,-13.4524"/>
<polygon fill="#191970" stroke="#191970" points="1908.8497,-9.9542 1898.6271,-12.7378 1908.3543,-16.9367 1908.8497,-9.9542"/>
</g>
<!-- Node35 -->
<g id="node36" class="node">
<title>Node35</title>
<polygon fill="#ffffff" stroke="#bfbfbf" points="2150.5,-246.5 2150.5,-265.5 2269.5,-265.5 2269.5,-246.5 2150.5,-246.5"/>
<text text-anchor="middle" x="2210" y="-253.5" font-family="Helvetica,sans-Serif" font-size="10.00" fill="#000000">AMReX_MultiFabUtil.H</text>
</g>
<!-- Node0&#45;&gt;Node35 -->
<g id="edge64" class="edge">
<title>Node0&#45;&gt;Node35</title>
<path fill="none" stroke="#191970" d="M2121.638,-302.2455C2138.4386,-293.4527 2163.3634,-280.4079 2182.4618,-270.4125"/>
<polygon fill="#191970" stroke="#191970" points="2184.3386,-273.3807 2191.5756,-265.6427 2181.0927,-267.1787 2184.3386,-273.3807"/>
</g>
<!-- Node36 -->
<g id="node37" class="node">
<title>Node36</title>
<polygon fill="#ffffff" stroke="#bfbfbf" points="2288,-246.5 2288,-265.5 2404,-265.5 2404,-246.5 2288,-246.5"/>
<text text-anchor="middle" x="2346" y="-253.5" font-family="Helvetica,sans-Serif" font-size="10.00" fill="#000000">AMReX_ParmParse.H</text>
</g>
<!-- Node0&#45;&gt;Node36 -->
<g id="edge65" class="edge">
<title>Node0&#45;&gt;Node36</title>
<path fill="none" stroke="#191970" d="M2144.4971,-302.4369C2186.0847,-292.8529 2250.1834,-278.0812 2294.8831,-267.78"/>
<polygon fill="#191970" stroke="#191970" points="2295.7155,-271.18 2304.6741,-265.5237 2294.1435,-264.3588 2295.7155,-271.18"/>
</g>
<!-- Node37 -->
<g id="node38" class="node">
<title>Node37</title>
<g id="a_node38"><a xlink:href="trig__ops_8_h.html" target="_top" xlink:title="Trigonometric utilities. ">
<polygon fill="#ffffff" stroke="#000000" points="1990,-123.5 1990,-153.5 2080,-153.5 2080,-123.5 1990,-123.5"/>
<text text-anchor="start" x="1998" y="-141.5" font-family="Helvetica,sans-Serif" font-size="10.00" fill="#000000">amr&#45;wind/utilities</text>
<text text-anchor="middle" x="2035" y="-130.5" font-family="Helvetica,sans-Serif" font-size="10.00" fill="#000000">/trig_ops.H</text>
</a>
</g>
</g>
<!-- Node0&#45;&gt;Node37 -->
<g id="edge66" class="edge">
<title>Node0&#45;&gt;Node37</title>
<path fill="none" stroke="#191970" d="M2099.2472,-302.4248C2088.947,-276.1442 2059.9901,-202.2616 2044.7144,-163.2861"/>
<polygon fill="#191970" stroke="#191970" points="2047.8778,-161.7657 2040.9701,-153.7325 2041.3605,-164.3201 2047.8778,-161.7657"/>
</g>
<!-- Node2 -->
<g id="node3" class="node">
<title>Node2</title>
<g id="a_node3"><a xlink:href="_physics_8_h.html" target="_top" xlink:title="amr&#45;wind/core/Physics.H">
<polygon fill="#ffffff" stroke="#000000" points="405.5,-129 405.5,-148 532.5,-148 532.5,-129 405.5,-129"/>
<text text-anchor="middle" x="469" y="-136" font-family="Helvetica,sans-Serif" font-size="10.00" fill="#000000">amr&#45;wind/core/Physics.H</text>
</a>
</g>
</g>
<!-- Node1&#45;&gt;Node2 -->
<g id="edge2" class="edge">
<title>Node1&#45;&gt;Node2</title>
<path fill="none" stroke="#191970" d="M933.1015,-246.484C841.5012,-225.1711 620.0645,-173.6487 519.8168,-150.3237"/>
<polygon fill="#191970" stroke="#191970" points="520.4603,-146.88 509.9273,-148.0227 518.8739,-153.6979 520.4603,-146.88"/>
</g>
<!-- Node14 -->
<g id="node15" class="node">
<title>Node14</title>
<g id="a_node15"><a xlink:href="_field_8_h.html" target="_top" xlink:title="amr&#45;wind/core/Field.H">
<polygon fill="#ffffff" stroke="#000000" points="958.5,-62 958.5,-81 1071.5,-81 1071.5,-62 958.5,-62"/>
<text text-anchor="middle" x="1015" y="-69" font-family="Helvetica,sans-Serif" font-size="10.00" fill="#000000">amr&#45;wind/core/Field.H</text>
</a>
</g>
</g>
<!-- Node1&#45;&gt;Node14 -->
<g id="edge16" class="edge">
<title>Node1&#45;&gt;Node14</title>
<path fill="none" stroke="#191970" d="M979.6331,-246.482C984.7328,-237.4162 992.0349,-223.2284 996,-210 1008.3168,-168.9084 1012.683,-118.5365 1014.2059,-91.2872"/>
<polygon fill="#191970" stroke="#191970" points="1017.7105,-91.277 1014.6994,-81.1191 1010.7187,-90.9376 1017.7105,-91.277"/>
</g>
<!-- Node1&#45;&gt;Node19 -->
<g id="edge25" class="edge">
<title>Node1&#45;&gt;Node19</title>
<path fill="none" stroke="#191970" d="M966.8583,-246.2455C961.1556,-238.4564 953.01,-227.3308 946.1375,-217.9439"/>
<polygon fill="#191970" stroke="#191970" points="948.7913,-215.6437 940.0598,-209.6427 943.1432,-219.7789 948.7913,-215.6437"/>
</g>
<!-- Node3 -->
<g id="node4" class="node">
<title>Node3</title>
<g id="a_node4"><a xlink:href="_factory_8_h.html" target="_top" xlink:title="amr&#45;wind/core/Factory.H">
<polygon fill="#ffffff" stroke="#000000" points="128.5,-62 128.5,-81 253.5,-81 253.5,-62 128.5,-62"/>
<text text-anchor="middle" x="191" y="-69" font-family="Helvetica,sans-Serif" font-size="10.00" fill="#000000">amr&#45;wind/core/Factory.H</text>
</a>
</g>
</g>
<!-- Node2&#45;&gt;Node3 -->
<g id="edge3" class="edge">
<title>Node2&#45;&gt;Node3</title>
<path fill="none" stroke="#191970" d="M429.4646,-128.9717C379.8932,-117.0246 294.8793,-96.5357 240.8845,-83.5225"/>
<polygon fill="#191970" stroke="#191970" points="241.3908,-80.0444 230.8491,-81.1039 239.7507,-86.8496 241.3908,-80.0444"/>
</g>
<!-- Node9 -->
<g id="node10" class="node">
<title>Node9</title>
<g id="a_node10"><a xlink:href="_coll_mgr_8_h.html" target="_top" xlink:title="amr&#45;wind/core/CollMgr.H">
<polygon fill="#ffffff" stroke="#000000" points="428.5,-62 428.5,-81 553.5,-81 553.5,-62 428.5,-62"/>
<text text-anchor="middle" x="491" y="-69" font-family="Helvetica,sans-Serif" font-size="10.00" fill="#000000">amr&#45;wind/core/CollMgr.H</text>
</a>
</g>
</g>
<!-- Node2&#45;&gt;Node9 -->
<g id="edge9" class="edge">
<title>Node2&#45;&gt;Node9</title>
<path fill="none" stroke="#191970" d="M472.1521,-128.9005C475.4194,-118.95 480.6143,-103.1292 484.7235,-90.6147"/>
<polygon fill="#191970" stroke="#191970" points="488.0593,-91.6745 487.8538,-81.0817 481.4087,-89.4907 488.0593,-91.6745"/>
</g>
<!-- Node12 -->
<g id="node13" class="node">
<title>Node12</title>
<polygon fill="#ffffff" stroke="#bfbfbf" points="1250,-.5 1250,-19.5 1354,-19.5 1354,-.5 1250,-.5"/>
<text text-anchor="middle" x="1302" y="-7.5" font-family="Helvetica,sans-Serif" font-size="10.00" fill="#000000">AMReX_MultiFab.H</text>
</g>
<!-- Node2&#45;&gt;Node12 -->
<g id="edge14" class="edge">
<title>Node2&#45;&gt;Node12</title>
<path fill="none" stroke="#191970" d="M507.6587,-128.962C518.3938,-126.6462 530.0969,-124.4283 541,-123 622.8421,-112.2785 1219.2708,-139.4565 1283,-87 1299.5605,-73.3688 1303.002,-47.8155 1303.1584,-29.8967"/>
<polygon fill="#191970" stroke="#191970" points="1306.6516,-29.574 1302.9057,-19.6635 1299.6538,-29.7469 1306.6516,-29.574"/>
</g>
<!-- Node13 -->
<g id="node14" class="node">
<title>Node13</title>
<polygon fill="#ffffff" stroke="#bfbfbf" points="0,-62 0,-81 110,-81 110,-62 0,-62"/>
<text text-anchor="middle" x="55" y="-69" font-family="Helvetica,sans-Serif" font-size="10.00" fill="#000000">AMReX_Geometry.H</text>
</g>
<!-- Node2&#45;&gt;Node13 -->
<g id="edge15" class="edge">
<title>Node2&#45;&gt;Node13</title>
<path fill="none" stroke="#191970" d="M405.476,-130.9291C335.1217,-122.1319 218.4806,-106.3234 119,-87 113.3203,-85.8968 107.385,-84.624 101.5172,-83.2917"/>
<polygon fill="#191970" stroke="#191970" points="102.2967,-79.8797 91.7627,-81.0131 100.7043,-86.6962 102.2967,-79.8797"/>
</g>
<!-- Node4 -->
<g id="node5" class="node">
<title>Node4</title>
<polygon fill="#ffffff" stroke="#bfbfbf" points="465,-.5 465,-19.5 517,-19.5 517,-.5 465,-.5"/>
<text text-anchor="middle" x="491" y="-7.5" font-family="Helvetica,sans-Serif" font-size="10.00" fill="#000000">memory</text>
</g>
<!-- Node3&#45;&gt;Node4 -->
<g id="edge4" class="edge">
<title>Node3&#45;&gt;Node4</title>
<path fill="none" stroke="#191970" d="M234.1536,-61.9584C243.339,-59.9613 252.9856,-57.8892 262,-56 330.1183,-41.724 409.8301,-25.9141 454.9723,-17.0438"/>
<polygon fill="#191970" stroke="#191970" points="455.7314,-20.4617 464.8702,-15.1013 454.3833,-13.5927 455.7314,-20.4617"/>
</g>
<!-- Node5 -->
<g id="node6" class="node">
<title>Node5</title>
<polygon fill="#ffffff" stroke="#bfbfbf" points="539.5,-.5 539.5,-19.5 622.5,-19.5 622.5,-.5 539.5,-.5"/>
<text text-anchor="middle" x="581" y="-7.5" font-family="Helvetica,sans-Serif" font-size="10.00" fill="#000000">unordered_map</text>
</g>
<!-- Node3&#45;&gt;Node5 -->
<g id="edge5" class="edge">
<title>Node3&#45;&gt;Node5</title>
<path fill="none" stroke="#191970" d="M232.1882,-61.9283C241.9331,-59.8248 252.3097,-57.7157 262,-56 378.6057,-35.3551 409.0501,-38.5963 526,-20 527.0783,-19.8285 528.168,-19.6528 529.2661,-19.4736"/>
<polygon fill="#191970" stroke="#191970" points="530.0119,-22.8973 539.2911,-17.7839 528.8484,-15.9947 530.0119,-22.8973"/>
</g>
<!-- Node6 -->
<g id="node7" class="node">
<title>Node6</title>
<polygon fill="#ffffff" stroke="#bfbfbf" points="67,-.5 67,-19.5 121,-19.5 121,-.5 67,-.5"/>
<text text-anchor="middle" x="94" y="-7.5" font-family="Helvetica,sans-Serif" font-size="10.00" fill="#000000">iostream</text>
</g>
<!-- Node3&#45;&gt;Node6 -->
<g id="edge6" class="edge">
<title>Node3&#45;&gt;Node6</title>
<path fill="none" stroke="#191970" d="M175.8438,-61.8906C160.3257,-52.0519 135.9807,-36.6167 117.8716,-25.1351"/>
<polygon fill="#191970" stroke="#191970" points="119.3696,-21.9407 109.0498,-19.5419 115.6213,-27.8526 119.3696,-21.9407"/>
</g>
<!-- Node7 -->
<g id="node8" class="node">
<title>Node7</title>
<polygon fill="#ffffff" stroke="#bfbfbf" points="139.5,-.5 139.5,-19.5 226.5,-19.5 226.5,-.5 139.5,-.5"/>
<text text-anchor="middle" x="183" y="-7.5" font-family="Helvetica,sans-Serif" font-size="10.00" fill="#000000">AMReX_Print.H</text>
</g>
<!-- Node3&#45;&gt;Node7 -->
<g id="edge7" class="edge">
<title>Node3&#45;&gt;Node7</title>
<path fill="none" stroke="#191970" d="M189.75,-61.8906C188.6411,-53.3657 186.9856,-40.6392 185.5917,-29.9235"/>
<polygon fill="#191970" stroke="#191970" points="189.0284,-29.2098 184.2676,-19.7449 182.0869,-30.1128 189.0284,-29.2098"/>
</g>
<!-- Node8 -->
<g id="node9" class="node">
<title>Node8</title>
<polygon fill="#ffffff" stroke="#bfbfbf" points="245,-.5 245,-19.5 307,-19.5 307,-.5 245,-.5"/>
<text text-anchor="middle" x="276" y="-7.5" font-family="Helvetica,sans-Serif" font-size="10.00" fill="#000000">AMReX.H</text>
</g>
<!-- Node3&#45;&gt;Node8 -->
<g id="edge8" class="edge">
<title>Node3&#45;&gt;Node8</title>
<path fill="none" stroke="#191970" d="M204.2813,-61.8906C217.7548,-52.1421 238.822,-36.8994 254.6435,-25.4521"/>
<polygon fill="#191970" stroke="#191970" points="256.7619,-28.2394 262.812,-19.5419 252.6586,-22.5682 256.7619,-28.2394"/>
</g>
<!-- Node9&#45;&gt;Node4 -->
<g id="edge11" class="edge">
<title>Node9&#45;&gt;Node4</title>
<path fill="none" stroke="#191970" d="M491,-61.8906C491,-53.3657 491,-40.6392 491,-29.9235"/>
<polygon fill="#191970" stroke="#191970" points="494.5001,-29.7448 491,-19.7449 487.5001,-29.7449 494.5001,-29.7448"/>
</g>
<!-- Node9&#45;&gt;Node5 -->
<g id="edge12" class="edge">
<title>Node9&#45;&gt;Node5</title>
<path fill="none" stroke="#191970" d="M505.0625,-61.8906C519.3286,-52.1421 541.635,-36.8994 558.3872,-25.4521"/>
<polygon fill="#191970" stroke="#191970" points="560.7545,-28.0736 567.0362,-19.5419 556.8051,-22.2941 560.7545,-28.0736"/>
</g>
<!-- Node10 -->
<g id="node11" class="node">
<title>Node10</title>
<polygon fill="#ffffff" stroke="#bfbfbf" points="1044.5,-.5 1044.5,-19.5 1085.5,-19.5 1085.5,-.5 1044.5,-.5"/>
<text text-anchor="middle" x="1065" y="-7.5" font-family="Helvetica,sans-Serif" font-size="10.00" fill="#000000">string</text>
</g>
<!-- Node9&#45;&gt;Node10 -->
<g id="edge10" class="edge">
<title>Node9&#45;&gt;Node10</title>
<path fill="none" stroke="#191970" d="M553.5991,-62.4816C570.5807,-60.1939 588.9774,-57.8602 606,-56 792.9539,-35.5698 845.7852,-57.7417 1034.2384,-19.6808"/>
<polygon fill="#191970" stroke="#191970" points="1035.0993,-23.0772 1044.1928,-17.6403 1033.6936,-16.2198 1035.0993,-23.0772"/>
</g>
<!-- Node11 -->
<g id="node12" class="node">
<title>Node11</title>
<polygon fill="#ffffff" stroke="#bfbfbf" points="810.5,-.5 810.5,-19.5 905.5,-19.5 905.5,-.5 810.5,-.5"/>
<text text-anchor="middle" x="858" y="-7.5" font-family="Helvetica,sans-Serif" font-size="10.00" fill="#000000">AMReX_Vector.H</text>
</g>
<!-- Node9&#45;&gt;Node11 -->
<g id="edge13" class="edge">
<title>Node9&#45;&gt;Node11</title>
<path fill="none" stroke="#191970" d="M547.9411,-61.9581C616.4995,-50.4694 731.0123,-31.28 800.0278,-19.7147"/>
<polygon fill="#191970" stroke="#191970" points="801.0003,-23.1006 810.2844,-17.9959 799.8434,-16.1969 801.0003,-23.1006"/>
</g>
<!-- Node14&#45;&gt;Node4 -->
<g id="edge18" class="edge">
<title>Node14&#45;&gt;Node4</title>
<path fill="none" stroke="#191970" d="M958.4004,-62.5003C943.0431,-60.2126 926.4031,-57.8742 911,-56 742.1577,-35.4563 697.5602,-49.2125 530,-20 529.0962,-19.8424 528.1826,-19.6747 527.2625,-19.4984"/>
<polygon fill="#191970" stroke="#191970" points="527.8259,-16.0393 517.3116,-17.3429 526.344,-22.8807 527.8259,-16.0393"/>
</g>
<!-- Node14&#45;&gt;Node5 -->
<g id="edge19" class="edge">
<title>Node14&#45;&gt;Node5</title>
<path fill="none" stroke="#191970" d="M974.5784,-61.985C964.6171,-59.8313 953.9516,-57.6855 944,-56 812.901,-33.7954 778.7474,-37.9615 647,-20 642.2956,-19.3586 637.4066,-18.6664 632.5126,-17.9561"/>
<polygon fill="#191970" stroke="#191970" points="632.9209,-14.4786 622.5174,-16.4831 631.9003,-21.4038 632.9209,-14.4786"/>
</g>
<!-- Node14&#45;&gt;Node10 -->
<g id="edge17" class="edge">
<title>Node14&#45;&gt;Node10</title>
<path fill="none" stroke="#191970" d="M1022.8125,-61.8906C1030.254,-52.7376 1041.6334,-38.7409 1050.6992,-27.59"/>
<polygon fill="#191970" stroke="#191970" points="1053.4847,-29.712 1057.0774,-19.7449 1048.0533,-25.2962 1053.4847,-29.712"/>
</g>
<!-- Node14&#45;&gt;Node12 -->
<g id="edge20" class="edge">
<title>Node14&#45;&gt;Node12</title>
<path fill="none" stroke="#191970" d="M1059.5289,-61.9581C1110.2207,-51.0956 1193.0391,-33.3488 1247.5349,-21.6711"/>
<polygon fill="#191970" stroke="#191970" points="1248.322,-25.082 1257.3667,-19.5643 1246.8553,-18.2373 1248.322,-25.082"/>
</g>
<!-- Node15 -->
<g id="node16" class="node">
<title>Node15</title>
<polygon fill="#ffffff" stroke="#bfbfbf" points="927.5,-.5 927.5,-19.5 1026.5,-19.5 1026.5,-.5 927.5,-.5"/>
<text text-anchor="middle" x="977" y="-7.5" font-family="Helvetica,sans-Serif" font-size="10.00" fill="#000000">AMReX_BCRec.H</text>
</g>
<!-- Node14&#45;&gt;Node15 -->
<g id="edge21" class="edge">
<title>Node14&#45;&gt;Node15</title>
<path fill="none" stroke="#191970" d="M1009.0625,-61.8906C1003.5733,-53.0068 995.2647,-39.5601 988.481,-28.5811"/>
<polygon fill="#191970" stroke="#191970" points="991.2551,-26.4122 983.0212,-19.7449 985.3002,-30.0917 991.2551,-26.4122"/>
</g>
<!-- Node16 -->
<g id="node17" class="node">
<title>Node16</title>
<polygon fill="#ffffff" stroke="#bfbfbf" points="1553.5,-.5 1553.5,-19.5 1638.5,-19.5 1638.5,-.5 1553.5,-.5"/>
<text text-anchor="middle" x="1596" y="-7.5" font-family="Helvetica,sans-Serif" font-size="10.00" fill="#000000">AMReX_Gpu.H</text>
</g>
<!-- Node14&#45;&gt;Node16 -->
<g id="edge22" class="edge">
<title>Node14&#45;&gt;Node16</title>
<path fill="none" stroke="#191970" d="M1071.5874,-62.3982C1086.9448,-60.1107 1103.5878,-57.7979 1119,-56 1304.5031,-34.3605 1355.1047,-45.9079 1543.5272,-20.0792"/>
<polygon fill="#191970" stroke="#191970" points="1544.058,-23.5392 1553.4819,-18.6977 1543.0957,-16.6057 1544.058,-23.5392"/>
</g>
<!-- Node17 -->
<g id="node18" class="node">
<title>Node17</title>
<g id="a_node18"><a xlink:href="incflo__enums_8_h.html" target="_top" xlink:title="amr&#45;wind/incflo_enums.H">
<polygon fill="#ffffff" stroke="#000000" points="656,-.5 656,-19.5 784,-19.5 784,-.5 656,-.5"/>
<text text-anchor="middle" x="720" y="-7.5" font-family="Helvetica,sans-Serif" font-size="10.00" fill="#000000">amr&#45;wind/incflo_enums.H</text>
</a>
</g>
</g>
<!-- Node14&#45;&gt;Node17 -->
<g id="edge23" class="edge">
<title>Node14&#45;&gt;Node17</title>
<path fill="none" stroke="#191970" d="M971.8401,-61.9882C962.6552,-59.9891 953.0103,-57.9086 944,-56 887.3108,-43.9918 822.4469,-30.723 777.1588,-21.5347"/>
<polygon fill="#191970" stroke="#191970" points="777.7274,-18.0789 767.2313,-19.5223 776.3366,-24.9393 777.7274,-18.0789"/>
</g>
<!-- Node18 -->
<g id="node19" class="node">
<title>Node18</title>
<g id="a_node19"><a xlink:href="_field_desc_types_8_h.html" target="_top" xlink:title="amr&#45;wind/core/FieldDescTypes.H">
<polygon fill="#ffffff" stroke="#000000" points="1372.5,-.5 1372.5,-19.5 1535.5,-19.5 1535.5,-.5 1372.5,-.5"/>
<text text-anchor="middle" x="1454" y="-7.5" font-family="Helvetica,sans-Serif" font-size="10.00" fill="#000000">amr&#45;wind/core/FieldDescTypes.H</text>
</a>
</g>
</g>
<!-- Node14&#45;&gt;Node18 -->
<g id="edge24" class="edge">
<title>Node14&#45;&gt;Node18</title>
<path fill="none" stroke="#191970" d="M1071.6572,-62.9353C1087.0144,-60.6467 1103.6399,-58.1991 1119,-56 1205.6441,-43.5951 1304.9952,-30.0365 1372.8626,-20.8757"/>
<polygon fill="#191970" stroke="#191970" points="1373.6171,-24.3058 1383.0596,-19.5005 1372.6814,-17.3686 1373.6171,-24.3058"/>
</g>
<!-- Node19&#45;&gt;Node2 -->
<g id="edge61" class="edge">
<title>Node19&#45;&gt;Node2</title>
<path fill="none" stroke="#191970" d="M878.8741,-195.2927C803.0387,-188.3241 660.987,-173.9089 541,-154 534.22,-152.875 527.1131,-151.5392 520.1154,-150.1306"/>
<polygon fill="#191970" stroke="#191970" points="520.4943,-146.6347 509.9919,-148.0308 519.0726,-153.4889 520.4943,-146.6347"/>
</g>
<!-- Node20 -->
<g id="node21" class="node">
<title>Node20</title>
<polygon fill="#ffffff" stroke="#bfbfbf" points="1776,-62 1776,-81 1882,-81 1882,-62 1776,-62"/>
<text text-anchor="middle" x="1829" y="-69" font-family="Helvetica,sans-Serif" font-size="10.00" fill="#000000">AMReX_AmrCore.H</text>
</g>
<!-- Node19&#45;&gt;Node20 -->
<g id="edge26" class="edge">
<title>Node19&#45;&gt;Node20</title>
<path fill="none" stroke="#191970" d="M987.2958,-196.6689C1077.056,-190.7527 1261.8875,-176.8393 1417,-154 1548.4029,-134.6518 1701.3002,-101.0931 1778.6469,-83.325"/>
<polygon fill="#191970" stroke="#191970" points="1779.6415,-86.6876 1788.5993,-81.03 1778.0685,-79.8666 1779.6415,-86.6876"/>
</g>
<!-- Node21 -->
<g id="node22" class="node">
<title>Node21</title>
<g id="a_node22"><a xlink:href="_sim_time_8_h.html" target="_top" xlink:title="amr&#45;wind/core/SimTime.H">
<polygon fill="#ffffff" stroke="#000000" points="814.5,-129 814.5,-148 945.5,-148 945.5,-129 814.5,-129"/>
<text text-anchor="middle" x="880" y="-136" font-family="Helvetica,sans-Serif" font-size="10.00" fill="#000000">amr&#45;wind/core/SimTime.H</text>
</a>
</g>
</g>
<!-- Node19&#45;&gt;Node21 -->
<g id="edge27" class="edge">
<title>Node19&#45;&gt;Node21</title>
<path fill="none" stroke="#191970" d="M924.7188,-190.3906C916.8307,-181.2376 904.7686,-167.2409 895.1588,-156.09"/>
<polygon fill="#191970" stroke="#191970" points="897.5775,-153.5352 888.398,-148.2449 892.2749,-158.1049 897.5775,-153.5352"/>
</g>
<!-- Node25 -->
<g id="node26" class="node">
<title>Node25</title>
<g id="a_node26"><a xlink:href="_field_repo_8_h.html" target="_top" xlink:title="amr&#45;wind/core/FieldRepo.H">
<polygon fill="#ffffff" stroke="#000000" points="1272,-129 1272,-148 1408,-148 1408,-129 1272,-129"/>
<text text-anchor="middle" x="1340" y="-136" font-family="Helvetica,sans-Serif" font-size="10.00" fill="#000000">amr&#45;wind/core/FieldRepo.H</text>
</a>
</g>
</g>
<!-- Node19&#45;&gt;Node25 -->
<g id="edge31" class="edge">
<title>Node19&#45;&gt;Node25</title>
<path fill="none" stroke="#191970" d="M987.0465,-191.8333C1059.0022,-180.9604 1186.5184,-161.6919 1266.9781,-149.534"/>
<polygon fill="#191970" stroke="#191970" points="1267.6708,-152.9692 1277.0356,-148.0143 1266.6249,-146.0477 1267.6708,-152.9692"/>
</g>
<!-- Node32 -->
<g id="node33" class="node">
<title>Node32</title>
<g id="a_node33"><a xlink:href="_p_d_e_base_8_h.html" target="_top" xlink:title="amr&#45;wind/equation_systems\l/PDEBase.H">
<polygon fill="#ffffff" stroke="#000000" points="550.5,-123.5 550.5,-153.5 689.5,-153.5 689.5,-123.5 550.5,-123.5"/>
<text text-anchor="start" x="558.5" y="-141.5" font-family="Helvetica,sans-Serif" font-size="10.00" fill="#000000">amr&#45;wind/equation_systems</text>
<text text-anchor="middle" x="620" y="-130.5" font-family="Helvetica,sans-Serif" font-size="10.00" fill="#000000">/PDEBase.H</text>
</a>
</g>
</g>
<!-- Node19&#45;&gt;Node32 -->
<g id="edge53" class="edge">
<title>Node19&#45;&gt;Node32</title>
<path fill="none" stroke="#191970" d="M884.4372,-190.4581C835.0918,-180.7624 757.8327,-165.5821 699.5401,-154.1285"/>
<polygon fill="#191970" stroke="#191970" points="700.11,-150.6736 689.6227,-152.1799 698.7603,-157.5423 700.11,-150.6736"/>
</g>
<!-- Node22 -->
<g id="node23" class="node">
<title>Node22</title>
<polygon fill="#ffffff" stroke="#bfbfbf" points="1900.5,-62 1900.5,-81 1993.5,-81 1993.5,-62 1900.5,-62"/>
<text text-anchor="middle" x="1947" y="-69" font-family="Helvetica,sans-Serif" font-size="10.00" fill="#000000">AMReX_REAL.H</text>
</g>
<!-- Node21&#45;&gt;Node22 -->
<g id="edge28" class="edge">
<title>Node21&#45;&gt;Node22</title>
<path fill="none" stroke="#191970" d="M945.5241,-135.558C1162.1764,-125.7784 1844.3473,-94.5508 1891,-87 1896.4148,-86.1236 1902.0557,-84.9202 1907.5825,-83.5683"/>
<polygon fill="#191970" stroke="#191970" points="1908.5478,-86.9336 1917.3339,-81.013 1906.7733,-80.1623 1908.5478,-86.9336"/>
</g>
<!-- Node23 -->
<g id="node24" class="node">
<title>Node23</title>
<polygon fill="#ffffff" stroke="#bfbfbf" points="776,-62 776,-81 902,-81 902,-62 776,-62"/>
<text text-anchor="middle" x="839" y="-69" font-family="Helvetica,sans-Serif" font-size="10.00" fill="#000000">AMReX_GpuQualifiers.H</text>
</g>
<!-- Node21&#45;&gt;Node23 -->
<g id="edge29" class="edge">
<title>Node21&#45;&gt;Node23</title>
<path fill="none" stroke="#191970" d="M874.1257,-128.9005C867.9148,-118.751 857.9665,-102.4941 850.2401,-89.8679"/>
<polygon fill="#191970" stroke="#191970" points="853.0685,-87.7844 844.8634,-81.0817 847.0977,-91.4382 853.0685,-87.7844"/>
</g>
<!-- Node24 -->
<g id="node25" class="node">
<title>Node24</title>
<polygon fill="#ffffff" stroke="#bfbfbf" points="648,-62 648,-81 758,-81 758,-62 648,-62"/>
<text text-anchor="middle" x="703" y="-69" font-family="Helvetica,sans-Serif" font-size="10.00" fill="#000000">AMReX_Extension.H</text>
</g>
<!-- Node21&#45;&gt;Node24 -->
<g id="edge30" class="edge">
<title>Node21&#45;&gt;Node24</title>
<path fill="none" stroke="#191970" d="M854.6402,-128.9005C824.0156,-117.3082 772.3432,-97.7486 737.9544,-84.7313"/>
<polygon fill="#191970" stroke="#191970" points="738.9042,-81.3486 728.3127,-81.0817 736.4261,-87.8952 738.9042,-81.3486"/>
</g>
<!-- Node25&#45;&gt;Node5 -->
<g id="edge33" class="edge">
<title>Node25&#45;&gt;Node5</title>
<path fill="none" stroke="#191970" d="M1271.6359,-134.0077C1175.4214,-126.9222 1005.4938,-111.3948 949,-87 928.99,-78.3594 930.9903,-64.6863 911,-56 802.3911,-8.8066 764.2114,-36.8704 647,-20 642.3005,-19.3236 637.4149,-18.6076 632.523,-17.882"/>
<polygon fill="#191970" stroke="#191970" points="632.9382,-14.4052 622.5307,-16.3886 631.9035,-21.3283 632.9382,-14.4052"/>
</g>
<!-- Node25&#45;&gt;Node10 -->
<g id="edge32" class="edge">
<title>Node25&#45;&gt;Node10</title>
<path fill="none" stroke="#191970" d="M1277.1045,-128.9831C1221.2048,-119.6108 1144.5049,-104.2278 1119,-87 1097.6232,-72.5606 1082.0644,-46.616 1073.2844,-28.8669"/>
<polygon fill="#191970" stroke="#191970" points="1076.3151,-27.0854 1068.9055,-19.5125 1069.9753,-30.0532 1076.3151,-27.0854"/>
</g>
<!-- Node25&#45;&gt;Node12 -->
<g id="edge51" class="edge">
<title>Node25&#45;&gt;Node12</title>
<path fill="none" stroke="#191970" d="M1337.2305,-128.8358C1332.8024,-113.4169 1323.8292,-82.3063 1316,-56 1313.384,-47.2102 1310.435,-37.4931 1307.9206,-29.2634"/>
<polygon fill="#191970" stroke="#191970" points="1311.2065,-28.0401 1304.9301,-19.5045 1304.5137,-30.0911 1311.2065,-28.0401"/>
</g>
<!-- Node25&#45;&gt;Node14 -->
<g id="edge39" class="edge">
<title>Node25&#45;&gt;Node14</title>
<path fill="none" stroke="#191970" d="M1291.7349,-128.9363C1240.607,-118.7533 1157.5478,-102.0623 1086,-87 1080.2263,-85.7845 1074.1927,-84.4959 1068.1868,-83.2013"/>
<polygon fill="#191970" stroke="#191970" points="1068.6705,-79.725 1058.1563,-81.0291 1067.1889,-86.5664 1068.6705,-79.725"/>
</g>
<!-- Node25&#45;&gt;Node18 -->
<g id="edge34" class="edge">
<title>Node25&#45;&gt;Node18</title>
<path fill="none" stroke="#191970" d="M1408.0359,-133.2593C1504.8616,-125.1011 1672.7798,-108.0886 1691,-87 1700.0075,-76.5744 1699.7652,-66.6301 1691,-56 1681.0339,-43.9135 1601.88,-30.2557 1537.7474,-20.9839"/>
<polygon fill="#191970" stroke="#191970" points="1537.9908,-17.4832 1527.5964,-19.5344 1537.0012,-24.413 1537.9908,-17.4832"/>
</g>
<!-- Node25&#45;&gt;Node20 -->
<g id="edge50" class="edge">
<title>Node25&#45;&gt;Node20</title>
<path fill="none" stroke="#191970" d="M1408.3014,-132.4101C1492.0272,-124.429 1638.067,-108.8345 1762,-87 1768.173,-85.9124 1774.6319,-84.6191 1780.9999,-83.25"/>
<polygon fill="#191970" stroke="#191970" points="1781.8749,-86.641 1790.8776,-81.0551 1780.3565,-79.8077 1781.8749,-86.641"/>
</g>
<!-- Node26 -->
<g id="node27" class="node">
<title>Node26</title>
<g id="a_node27"><a xlink:href="_field_utils_8_h.html" target="_top" xlink:title="amr&#45;wind/core/FieldUtils.H">
<polygon fill="#ffffff" stroke="#000000" points="1548.5,-62 1548.5,-81 1681.5,-81 1681.5,-62 1548.5,-62"/>
<text text-anchor="middle" x="1615" y="-69" font-family="Helvetica,sans-Serif" font-size="10.00" fill="#000000">amr&#45;wind/core/FieldUtils.H</text>
</a>
</g>
</g>
<!-- Node25&#45;&gt;Node26 -->
<g id="edge35" class="edge">
<title>Node25&#45;&gt;Node26</title>
<path fill="none" stroke="#191970" d="M1379.1087,-128.9717C1428.1452,-117.0246 1512.2417,-96.5357 1565.6538,-83.5225"/>
<polygon fill="#191970" stroke="#191970" points="1566.6936,-86.8716 1575.5809,-81.1039 1565.0366,-80.0706 1566.6936,-86.8716"/>
</g>
<!-- Node28 -->
<g id="node29" class="node">
<title>Node28</title>
<g id="a_node29"><a xlink:href="_int_field_8_h.html" target="_top" xlink:title="amr&#45;wind/core/IntField.H">
<polygon fill="#ffffff" stroke="#000000" points="1406,-62 1406,-81 1530,-81 1530,-62 1406,-62"/>
<text text-anchor="middle" x="1468" y="-69" font-family="Helvetica,sans-Serif" font-size="10.00" fill="#000000">amr&#45;wind/core/IntField.H</text>
</a>
</g>
</g>
<!-- Node25&#45;&gt;Node28 -->
<g id="edge40" class="edge">
<title>Node25&#45;&gt;Node28</title>
<path fill="none" stroke="#191970" d="M1358.3393,-128.9005C1379.9156,-117.6067 1415.9391,-98.7506 1440.7766,-85.7497"/>
<polygon fill="#191970" stroke="#191970" points="1442.4582,-88.8201 1449.6947,-81.0817 1439.2119,-82.6183 1442.4582,-88.8201"/>
</g>
<!-- Node25&#45;&gt;Node29 -->
<g id="edge52" class="edge">
<title>Node25&#45;&gt;Node29</title>
<path fill="none" stroke="#191970" d="M1408.0508,-132.0304C1498.6942,-122.8888 1653.906,-105.2595 1708,-87 1719.7169,-83.0449 1783.5497,-46.0728 1819.805,-24.8326"/>
<polygon fill="#191970" stroke="#191970" points="1821.9537,-27.6299 1828.807,-19.55 1818.4109,-21.5926 1821.9537,-27.6299"/>
</g>
<!-- Node30 -->
<g id="node31" class="node">
<title>Node30</title>
<g id="a_node31"><a xlink:href="_scratch_field_8_h.html" target="_top" xlink:title="amr&#45;wind/core/ScratchField.H">
<polygon fill="#ffffff" stroke="#000000" points="1128,-62 1128,-81 1274,-81 1274,-62 1128,-62"/>
<text text-anchor="middle" x="1201" y="-69" font-family="Helvetica,sans-Serif" font-size="10.00" fill="#000000">amr&#45;wind/core/ScratchField.H</text>
</a>
</g>
</g>
<!-- Node25&#45;&gt;Node30 -->
<g id="edge44" class="edge">
<title>Node25&#45;&gt;Node30</title>
<path fill="none" stroke="#191970" d="M1320.0847,-128.9005C1296.5509,-117.5569 1257.1899,-98.5844 1230.2071,-85.5783"/>
<polygon fill="#191970" stroke="#191970" points="1231.4063,-82.2709 1220.8784,-81.0817 1228.3668,-88.5766 1231.4063,-82.2709"/>
</g>
<!-- Node26&#45;&gt;Node12 -->
<g id="edge37" class="edge">
<title>Node26&#45;&gt;Node12</title>
<path fill="none" stroke="#191970" d="M1568.3908,-61.9215C1558.681,-59.9465 1548.5091,-57.8925 1539,-56 1478.747,-44.0087 1409.7971,-30.6691 1361.8613,-21.4561"/>
<polygon fill="#191970" stroke="#191970" points="1362.4427,-18.0038 1351.962,-19.5547 1361.1223,-24.8782 1362.4427,-18.0038"/>
</g>
<!-- Node26&#45;&gt;Node18 -->
<g id="edge36" class="edge">
<title>Node26&#45;&gt;Node18</title>
<path fill="none" stroke="#191970" d="M1589.8438,-61.8906C1562.551,-51.4652 1518.808,-34.7559 1488.3603,-23.1252"/>
<polygon fill="#191970" stroke="#191970" points="1489.5702,-19.8408 1478.9796,-19.5419 1487.0723,-26.3799 1489.5702,-19.8408"/>
</g>
<!-- Node27 -->
<g id="node28" class="node">
<title>Node27</title>
<polygon fill="#ffffff" stroke="#bfbfbf" points="1657,-.5 1657,-19.5 1773,-19.5 1773,-.5 1657,-.5"/>
<text text-anchor="middle" x="1715" y="-7.5" font-family="Helvetica,sans-Serif" font-size="10.00" fill="#000000">AMReX_Interpolater.H</text>
</g>
<!-- Node26&#45;&gt;Node27 -->
<g id="edge38" class="edge">
<title>Node26&#45;&gt;Node27</title>
<path fill="none" stroke="#191970" d="M1630.625,-61.8906C1646.7698,-51.9616 1672.1822,-36.333 1690.9023,-24.8201"/>
<polygon fill="#191970" stroke="#191970" points="1692.8002,-27.7619 1699.4847,-19.5419 1689.1331,-21.7992 1692.8002,-27.7619"/>
</g>
<!-- Node28&#45;&gt;Node10 -->
<g id="edge41" class="edge">
<title>Node28&#45;&gt;Node10</title>
<path fill="none" stroke="#191970" d="M1405.9789,-66.4669C1333.5467,-59.8039 1210.1367,-46.0143 1095.5119,-19.7236"/>
<polygon fill="#191970" stroke="#191970" points="1096.0468,-16.2545 1085.5133,-17.3928 1094.4576,-23.0717 1096.0468,-16.2545"/>
</g>
<!-- Node28&#45;&gt;Node18 -->
<g id="edge42" class="edge">
<title>Node28&#45;&gt;Node18</title>
<path fill="none" stroke="#191970" d="M1465.8125,-61.8906C1463.8514,-53.276 1460.9137,-40.3708 1458.4585,-29.5858"/>
<polygon fill="#191970" stroke="#191970" points="1461.8507,-28.7185 1456.2183,-19.7449 1455.0254,-30.2723 1461.8507,-28.7185"/>
</g>
<!-- Node28&#45;&gt;Node29 -->
<g id="edge43" class="edge">
<title>Node28&#45;&gt;Node29</title>
<path fill="none" stroke="#191970" d="M1510.1694,-61.9466C1519.94,-59.8653 1530.3133,-57.7613 1540,-56 1643.8507,-37.1174 1672.8419,-36.5417 1781.3437,-20.0808"/>
<polygon fill="#191970" stroke="#191970" points="1782.0326,-23.5162 1791.3893,-18.546 1780.9754,-16.5965 1782.0326,-23.5162"/>
</g>
<!-- Node30&#45;&gt;Node10 -->
<g id="edge45" class="edge">
<title>Node30&#45;&gt;Node10</title>
<path fill="none" stroke="#191970" d="M1179.75,-61.8906C1156.962,-51.5858 1120.5978,-35.1416 1094.922,-23.5309"/>
<polygon fill="#191970" stroke="#191970" points="1096.2093,-20.2718 1085.6555,-19.3405 1093.325,-26.65 1096.2093,-20.2718"/>
</g>
<!-- Node30&#45;&gt;Node11 -->
<g id="edge48" class="edge">
<title>Node30&#45;&gt;Node11</title>
<path fill="none" stroke="#191970" d="M1147.7826,-61.9581C1084.8215,-50.6692 980.3916,-31.9448 915.5834,-20.3247"/>
<polygon fill="#191970" stroke="#191970" points="915.9954,-16.8429 905.5346,-18.523 914.76,-23.733 915.9954,-16.8429"/>
</g>
<!-- Node30&#45;&gt;Node12 -->
<g id="edge47" class="edge">
<title>Node30&#45;&gt;Node12</title>
<path fill="none" stroke="#191970" d="M1216.7813,-61.8906C1233.0875,-51.9616 1258.754,-36.333 1277.6614,-24.8201"/>
<polygon fill="#191970" stroke="#191970" points="1279.6087,-27.7322 1286.3296,-19.5419 1275.9681,-21.7533 1279.6087,-27.7322"/>
</g>
<!-- Node30&#45;&gt;Node18 -->
<g id="edge46" class="edge">
<title>Node30&#45;&gt;Node18</title>
<path fill="none" stroke="#191970" d="M1240.2537,-61.9581C1284.5694,-51.1857 1356.7376,-33.6428 1404.786,-21.9631"/>
<polygon fill="#191970" stroke="#191970" points="1405.764,-25.3274 1414.6543,-19.5643 1404.1105,-18.5254 1405.764,-25.3274"/>
</g>
<!-- Node31 -->
<g id="node32" class="node">
<title>Node31</title>
<polygon fill="#ffffff" stroke="#bfbfbf" points="1104,-.5 1104,-19.5 1232,-19.5 1232,-.5 1104,-.5"/>
<text text-anchor="middle" x="1168" y="-7.5" font-family="Helvetica,sans-Serif" font-size="10.00" fill="#000000">AMReX_PhysBCFunct.H</text>
</g>
<!-- Node30&#45;&gt;Node31 -->
<g id="edge49" class="edge">
<title>Node30&#45;&gt;Node31</title>
<path fill="none" stroke="#191970" d="M1195.8438,-61.8906C1191.0768,-53.0068 1183.8615,-39.5601 1177.9703,-28.5811"/>
<polygon fill="#191970" stroke="#191970" points="1181.0412,-26.9016 1173.2289,-19.7449 1174.8731,-30.2114 1181.0412,-26.9016"/>
</g>
<!-- Node32&#45;&gt;Node3 -->
<g id="edge55" class="edge">
<title>Node32&#45;&gt;Node3</title>
<path fill="none" stroke="#191970" d="M550.2576,-124.5595C547.132,-124.0158 544.0351,-123.493 541,-123 417.5896,-102.9533 385.191,-108.3534 262,-87 255.4017,-85.8563 248.4873,-84.5205 241.6716,-83.1215"/>
<polygon fill="#191970" stroke="#191970" points="242.3117,-79.6796 231.8048,-81.0415 240.8678,-86.529 242.3117,-79.6796"/>
</g>
<!-- Node32&#45;&gt;Node9 -->
<g id="edge56" class="edge">
<title>Node32&#45;&gt;Node9</title>
<path fill="none" stroke="#191970" d="M591.0499,-123.4639C569.3078,-112.1715 539.7284,-96.8086 518.3773,-85.7192"/>
<polygon fill="#191970" stroke="#191970" points="519.9788,-82.6071 509.4911,-81.1039 516.7523,-88.8192 519.9788,-82.6071"/>
</g>
<!-- Node32&#45;&gt;Node10 -->
<g id="edge54" class="edge">
<title>Node32&#45;&gt;Node10</title>
<path fill="none" stroke="#191970" d="M618.6553,-123.3793C617.9007,-104.5177 619.8426,-72.7195 639,-56 703.3638,.173 932.5711,-35.5313 1034.183,-19.4655"/>
<polygon fill="#191970" stroke="#191970" points="1034.9889,-22.876 1044.1888,-17.6212 1033.72,-15.9919 1034.9889,-22.876"/>
</g>
<!-- Node32&#45;&gt;Node17 -->
<g id="edge60" class="edge">
<title>Node32&#45;&gt;Node17</title>
<path fill="none" stroke="#191970" d="M611.4898,-123.4429C602.7667,-105.7865 592.2663,-76.3513 606,-56 616.6773,-40.1778 633.8085,-29.7965 651.5807,-22.9855"/>
<polygon fill="#191970" stroke="#191970" points="653.1787,-26.1362 661.4833,-19.5571 650.8885,-19.5214 653.1787,-26.1362"/>
</g>
<!-- Node32&#45;&gt;Node18 -->
<g id="edge59" class="edge">
<title>Node32&#45;&gt;Node18</title>
<path fill="none" stroke="#191970" d="M689.824,-132.4556C724.4565,-129.5071 766.9221,-125.9659 805,-123 1027.1247,-105.6989 1090.5395,-147.3773 1305,-87 1352.8455,-73.53 1403.1339,-43.787 1431.3335,-25.4622"/>
<polygon fill="#191970" stroke="#191970" points="1433.6014,-28.1587 1440.0146,-19.7254 1429.7421,-22.3187 1433.6014,-28.1587"/>
</g>
<!-- Node33 -->
<g id="node34" class="node">
<title>Node33</title>
<g id="a_node34"><a xlink:href="_p_d_e_fields_8_h.html" target="_top" xlink:title="amr&#45;wind/equation_systems\l/PDEFields.H">
<polygon fill="#ffffff" stroke="#000000" points="271.5,-56.5 271.5,-86.5 410.5,-86.5 410.5,-56.5 271.5,-56.5"/>
<text text-anchor="start" x="279.5" y="-74.5" font-family="Helvetica,sans-Serif" font-size="10.00" fill="#000000">amr&#45;wind/equation_systems</text>
<text text-anchor="middle" x="341" y="-63.5" font-family="Helvetica,sans-Serif" font-size="10.00" fill="#000000">/PDEFields.H</text>
</a>
</g>
</g>
<!-- Node32&#45;&gt;Node33 -->
<g id="edge57" class="edge">
<title>Node32&#45;&gt;Node33</title>
<path fill="none" stroke="#191970" d="M557.387,-123.4639C514.818,-113.2412 458.3579,-99.6827 413.7843,-88.9787"/>
<polygon fill="#191970" stroke="#191970" points="414.427,-85.5336 403.8861,-86.6017 412.7924,-92.3401 414.427,-85.5336"/>
</g>
<!-- Node34 -->
<g id="node35" class="node">
<title>Node34</title>
<polygon fill="#ffffff" stroke="#bfbfbf" points="325.5,-.5 325.5,-19.5 370.5,-19.5 370.5,-.5 325.5,-.5"/>
<text text-anchor="middle" x="348" y="-7.5" font-family="Helvetica,sans-Serif" font-size="10.00" fill="#000000">iosfwd</text>
</g>
<!-- Node33&#45;&gt;Node34 -->
<g id="edge58" class="edge">
<title>Node33&#45;&gt;Node34</title>
<path fill="none" stroke="#191970" d="M342.7303,-56.2977C343.6413,-48.2945 344.7693,-38.3843 345.7476,-29.7889"/>
<polygon fill="#191970" stroke="#191970" points="349.2258,-30.1786 346.8792,-19.8469 342.2707,-29.3869 349.2258,-30.1786"/>
</g>
<!-- Node37&#45;&gt;Node16 -->
<g id="edge69" class="edge">
<title>Node37&#45;&gt;Node16</title>
<path fill="none" stroke="#191970" d="M2033.7574,-123.1851C2031.3236,-104.1184 2024.1429,-72.1038 2003,-56 1942.1993,-9.6904 1741.6852,-29.8906 1648.526,-19.7666"/>
<polygon fill="#191970" stroke="#191970" points="1648.8761,-16.283 1638.5148,-18.4951 1647.9941,-23.2272 1648.8761,-16.283"/>
</g>
<!-- Node37&#45;&gt;Node22 -->
<g id="edge68" class="edge">
<title>Node37&#45;&gt;Node22</title>
<path fill="none" stroke="#191970" d="M2015.0314,-123.2967C2000.9213,-112.5537 1982.0549,-98.1895 1967.7692,-87.3129"/>
<polygon fill="#191970" stroke="#191970" points="1969.6264,-84.328 1959.5498,-81.055 1965.386,-89.8975 1969.6264,-84.328"/>
</g>
<!-- Node38 -->
<g id="node39" class="node">
<title>Node38</title>
<polygon fill="#ffffff" stroke="#bfbfbf" points="2050,-62 2050,-81 2094,-81 2094,-62 2050,-62"/>
<text text-anchor="middle" x="2072" y="-69" font-family="Helvetica,sans-Serif" font-size="10.00" fill="#000000">cmath</text>
</g>
<!-- Node37&#45;&gt;Node38 -->
<g id="edge67" class="edge">
<title>Node37&#45;&gt;Node38</title>
<path fill="none" stroke="#191970" d="M2043.3959,-123.2967C2048.8808,-113.3645 2056.0751,-100.3371 2061.8763,-89.8321"/>
<polygon fill="#191970" stroke="#191970" points="2064.953,-91.5009 2066.7234,-81.055 2058.8252,-88.1169 2064.953,-91.5009"/>
</g>
</g>
</svg>
        <g id="navigator" transform="translate(0 0)" fill="#404254">
                <rect fill="#f2f5e9" fill-opacity="0.5" stroke="#606060" stroke-width=".5" x="0" y="0" width="60" height="60"/>
                <use id="zoomplus" xlink:href="#zoomPlus" x="17" y="9" onmousedown="handleZoom(evt,'in')"/>
                <use id="zoomminus" xlink:href="#zoomMin" x="42" y="9" onmousedown="handleZoom(evt,'out')"/>
                <use id="reset" xlink:href="#resetDef" x="30" y="36" onmousedown="handleReset()"/>
                <g id="arrowUp" xlink:href="#dirArrow" transform="translate(30 24)" onmousedown="handlePan(0,-1)">
                  <use xlink:href="#rim" fill="#404040">
                        <set attributeName="fill" to="#808080" begin="arrowUp.mouseover" end="arrowUp.mouseout"/>
                  </use>
                  <path fill="none" stroke="white" stroke-width="1.5" d="M0,-3.0v7 M-2.5,-0.5L0,-3.0L2.5,-0.5"/>
                </g>
                <g id="arrowRight" xlink:href="#dirArrow" transform="rotate(90) translate(36 -43)" onmousedown="handlePan(1,0)">
                  <use xlink:href="#rim" fill="#404040">
                        <set attributeName="fill" to="#808080" begin="arrowRight.mouseover" end="arrowRight.mouseout"/>
                  </use>
                  <path fill="none" stroke="white" stroke-width="1.5" d="M0,-3.0v7 M-2.5,-0.5L0,-3.0L2.5,-0.5"/>
                </g>
                <g id="arrowDown" xlink:href="#dirArrow" transform="rotate(180) translate(-30 -48)" onmousedown="handlePan(0,1)">
                  <use xlink:href="#rim" fill="#404040">
                        <set attributeName="fill" to="#808080" begin="arrowDown.mouseover" end="arrowDown.mouseout"/>
                  </use>
                  <path fill="none" stroke="white" stroke-width="1.5" d="M0,-3.0v7 M-2.5,-0.5L0,-3.0L2.5,-0.5"/>
                </g>
                <g id="arrowLeft" xlink:href="#dirArrow" transform="rotate(270) translate(-36 17)" onmousedown="handlePan(-1,0)">
                  <use xlink:href="#rim" fill="#404040">
                        <set attributeName="fill" to="#808080" begin="arrowLeft.mouseover" end="arrowLeft.mouseout"/>
                  </use>
                  <path fill="none" stroke="white" stroke-width="1.5" d="M0,-3.0v7 M-2.5,-0.5L0,-3.0L2.5,-0.5"/>
                </g>
        </g>
        <svg viewBox="0 0 15 15" width="100%" height="30px" preserveAspectRatio="xMaxYMin meet">
         <g id="arrow_out" transform="scale(0.3 0.3)">
          <a xlink:href="_ekman_spiral_8cpp__incl_org.svg" target="_base">
           <rect id="button" ry="5" rx="5" y="6" x="6" height="38" width="38"
                fill="#f2f5e9" fill-opacity="0.5" stroke="#606060" stroke-width="1.0"/>
           <path id="arrow"
             d="M 11.500037,31.436501 C 11.940474,20.09759 22.043105,11.32322 32.158766,21.979434 L 37.068811,17.246167 C 37.068811,17.246167 37.088388,32 37.088388,32 L 22.160133,31.978069 C 22.160133,31.978069 26.997745,27.140456 26.997745,27.140456 C 18.528582,18.264221 13.291696,25.230495 11.500037,31.436501 z"
             style="fill:#404040;"/>
          </a>
         </g>
        </svg>
</svg>
