<?xml version="1.0" encoding="UTF-8" standalone="no"?>
<!DOCTYPE svg PUBLIC "-//W3C//DTD SVG 1.1//EN"
 "http://www.w3.org/Graphics/SVG/1.1/DTD/svg11.dtd">
<!-- Generated by graphviz version 2.40.1 (20161225.0304)
 -->
<!-- Title: FieldFillPatchOps.H Pages: 1 -->
<!--zoomable 420 -->
<svg id="main" version="1.1" xmlns="http://www.w3.org/2000/svg" xmlns:xlink="http://www.w3.org/1999/xlink" xml:space="preserve" onload="init(evt)">
<style type="text/css"><![CDATA[
.edge:hover path { stroke: red; }
.edge:hover polygon { stroke: red; fill: red; }
]]></style>
<script type="text/javascript"><![CDATA[
var edges = document.getElementsByTagName('g');
if (edges && edges.length) {
  for (var i=0;i<edges.length;i++) {
    if (edges[i].id.substr(0,4)=='edge') {
      edges[i].setAttribute('class','edge');
    }
  }
}
]]></script>
        <defs>
                <circle id="rim" cx="0" cy="0" r="7"/>
                <circle id="rim2" cx="0" cy="0" r="3.5"/>
                <g id="zoomPlus">
                        <use xlink:href="#rim" fill="#404040">
                                <set attributeName="fill" to="#808080" begin="zoomplus.mouseover" end="zoomplus.mouseout"/>
                        </use>
                        <path d="M-4,0h8M0,-4v8" fill="none" stroke="white" stroke-width="1.5" pointer-events="none"/>
                </g>
                <g id="zoomMin">
                        <use xlink:href="#rim" fill="#404040">
                                <set attributeName="fill" to="#808080" begin="zoomminus.mouseover" end="zoomminus.mouseout"/>
                        </use>
                        <path d="M-4,0h8" fill="none" stroke="white" stroke-width="1.5" pointer-events="none"/>
                </g>
                <g id="dirArrow">
                        <path fill="none" stroke="white" stroke-width="1.5" d="M0,-3.0v7 M-2.5,-0.5L0,-3.0L2.5,-0.5"/>
                </g>
               <g id="resetDef">
                       <use xlink:href="#rim2" fill="#404040">
                               <set attributeName="fill" to="#808080" begin="reset.mouseover" end="reset.mouseout"/>
                       </use>
               </g>
        </defs>

<script type="text/javascript">
var viewWidth = 1298;
var viewHeight = 420;
var sectionId = 'dynsection-1';
</script>
<script xlink:href="svgpan.js"/>
<svg id="graph" class="graph">
<g id="viewport">
<title>FieldFillPatchOps.H</title>
<polygon fill="#ffffff" stroke="transparent" points="-4,4 -4,-416 1293.5,-416 1293.5,4 -4,4"/>
<!-- Node21 -->
<g id="node1" class="node">
<title>Node21</title>
<polygon fill="#bfbfbf" stroke="#000000" points="598.5,-392.5 598.5,-411.5 702.5,-411.5 702.5,-392.5 598.5,-392.5"/>
<text text-anchor="middle" x="650.5" y="-399.5" font-family="Helvetica,sans-Serif" font-size="10.00" fill="#000000">FieldFillPatchOps.H</text>
</g>
<!-- Node22 -->
<g id="node2" class="node">
<title>Node22</title>
<g id="a_node2"><a xlink:href="velocity__bcs_8_h.html" target="_top" xlink:title="velocity_bcs.H">
<polygon fill="#ffffff" stroke="#000000" points="152.5,-224.5 152.5,-243.5 234.5,-243.5 234.5,-224.5 152.5,-224.5"/>
<text text-anchor="middle" x="193.5" y="-231.5" font-family="Helvetica,sans-Serif" font-size="10.00" fill="#000000">velocity_bcs.H</text>
</a>
</g>
</g>
<!-- Node21&#45;&gt;Node22 -->
<g id="edge1" class="edge">
<title>Node21&#45;&gt;Node22</title>
<path fill="none" stroke="#191970" d="M588.2711,-396.7227C506.7989,-387.5012 361.8637,-362.9897 255.5,-300 230.8808,-285.4202 209.9302,-258.2125 199.8753,-243.7014"/>
<polygon fill="#191970" stroke="#191970" points="588.048,-400.219 598.3685,-397.8238 588.8069,-393.2603 588.048,-400.219"/>
</g>
<!-- Node25 -->
<g id="node5" class="node">
<title>Node25</title>
<g id="a_node5"><a xlink:href="_field_8cpp.html" target="_top" xlink:title="Field.cpp">
<polygon fill="#ffffff" stroke="#000000" points="666.5,-336.5 666.5,-355.5 722.5,-355.5 722.5,-336.5 666.5,-336.5"/>
<text text-anchor="middle" x="694.5" y="-343.5" font-family="Helvetica,sans-Serif" font-size="10.00" fill="#000000">Field.cpp</text>
</a>
</g>
</g>
<!-- Node21&#45;&gt;Node25 -->
<g id="edge4" class="edge">
<title>Node21&#45;&gt;Node25</title>
<path fill="none" stroke="#191970" d="M664.4769,-384.2112C671.9129,-374.7472 680.766,-363.4797 686.9236,-355.6427"/>
<polygon fill="#191970" stroke="#191970" points="661.5903,-382.22 658.1642,-392.2455 667.0946,-386.5447 661.5903,-382.22"/>
</g>
<!-- Node26 -->
<g id="node6" class="node">
<title>Node26</title>
<g id="a_node6"><a xlink:href="_p_d_e_helpers_8_h.html" target="_top" xlink:title="PDEHelpers.H">
<polygon fill="#ffffff" stroke="#000000" points="566.5,-336.5 566.5,-355.5 648.5,-355.5 648.5,-336.5 566.5,-336.5"/>
<text text-anchor="middle" x="607.5" y="-343.5" font-family="Helvetica,sans-Serif" font-size="10.00" fill="#000000">PDEHelpers.H</text>
</a>
</g>
</g>
<!-- Node21&#45;&gt;Node26 -->
<g id="edge5" class="edge">
<title>Node21&#45;&gt;Node26</title>
<path fill="none" stroke="#191970" d="M636.8408,-384.2112C629.5737,-374.7472 620.9219,-363.4797 614.9042,-355.6427"/>
<polygon fill="#191970" stroke="#191970" points="634.1436,-386.4456 643.01,-392.2455 639.6957,-382.1824 634.1436,-386.4456"/>
</g>
<!-- Node54 -->
<g id="node34" class="node">
<title>Node54</title>
<g id="a_node34"><a xlink:href="_a_b_l_fill_inflow_8_h.html" target="_top" xlink:title="ABLFillInflow.H">
<polygon fill="#ffffff" stroke="#000000" points="1031,-336.5 1031,-355.5 1116,-355.5 1116,-336.5 1031,-336.5"/>
<text text-anchor="middle" x="1073.5" y="-343.5" font-family="Helvetica,sans-Serif" font-size="10.00" fill="#000000">ABLFillInflow.H</text>
</a>
</g>
</g>
<!-- Node21&#45;&gt;Node54 -->
<g id="edge72" class="edge">
<title>Node21&#45;&gt;Node54</title>
<path fill="none" stroke="#191970" d="M712.8076,-393.7512C799.9268,-382.2177 955.8616,-361.5739 1030.8829,-351.642"/>
<polygon fill="#191970" stroke="#191970" points="712.2465,-390.2949 702.7924,-395.0771 713.1652,-397.2343 712.2465,-390.2949"/>
</g>
<!-- Node23 -->
<g id="node3" class="node">
<title>Node23</title>
<g id="a_node3"><a xlink:href="icns__bcop_8_h.html" target="_top" xlink:title="icns_bcop.H">
<polygon fill="#ffffff" stroke="#000000" points="144,-56.5 144,-75.5 215,-75.5 215,-56.5 144,-56.5"/>
<text text-anchor="middle" x="179.5" y="-63.5" font-family="Helvetica,sans-Serif" font-size="10.00" fill="#000000">icns_bcop.H</text>
</a>
</g>
</g>
<!-- Node22&#45;&gt;Node23 -->
<g id="edge2" class="edge">
<title>Node22&#45;&gt;Node23</title>
<path fill="none" stroke="#191970" d="M191.855,-214.2601C188.8472,-178.1669 182.5638,-102.7656 180.319,-75.8279"/>
<polygon fill="#191970" stroke="#191970" points="188.3887,-214.8115 192.7072,-224.4862 195.3646,-214.2301 188.3887,-214.8115"/>
</g>
<!-- Node24 -->
<g id="node4" class="node">
<title>Node24</title>
<g id="a_node4"><a xlink:href="icns_8cpp.html" target="_top" xlink:title="icns.cpp">
<polygon fill="#ffffff" stroke="#000000" points="121,-.5 121,-19.5 174,-19.5 174,-.5 121,-.5"/>
<text text-anchor="middle" x="147.5" y="-7.5" font-family="Helvetica,sans-Serif" font-size="10.00" fill="#000000">icns.cpp</text>
</a>
</g>
</g>
<!-- Node23&#45;&gt;Node24 -->
<g id="edge3" class="edge">
<title>Node23&#45;&gt;Node24</title>
<path fill="none" stroke="#191970" d="M168.8355,-47.3372C163.5346,-38.0605 157.3513,-27.2398 153.0101,-19.6427"/>
<polygon fill="#191970" stroke="#191970" points="165.9257,-49.2996 173.926,-56.2455 172.0034,-45.8266 165.9257,-49.2996"/>
</g>
<!-- Node27 -->
<g id="node7" class="node">
<title>Node27</title>
<g id="a_node7"><a xlink:href="_p_d_e_ops_8_h.html" target="_top" xlink:title="PDEOps.H">
<polygon fill="#ffffff" stroke="#000000" points="635.5,-280.5 635.5,-299.5 701.5,-299.5 701.5,-280.5 635.5,-280.5"/>
<text text-anchor="middle" x="668.5" y="-287.5" font-family="Helvetica,sans-Serif" font-size="10.00" fill="#000000">PDEOps.H</text>
</a>
</g>
</g>
<!-- Node26&#45;&gt;Node27 -->
<g id="edge6" class="edge">
<title>Node26&#45;&gt;Node27</title>
<path fill="none" stroke="#191970" d="M625.6249,-329.3607C636.178,-319.6727 649.1112,-307.7995 657.9964,-299.6427"/>
<polygon fill="#191970" stroke="#191970" points="623.125,-326.9045 618.1254,-336.2455 627.8589,-332.0611 623.125,-326.9045"/>
</g>
<!-- Node30 -->
<g id="node10" class="node">
<title>Node30</title>
<g id="a_node10"><a xlink:href="icns__ops_8_h.html" target="_top" xlink:title="icns_ops.H">
<polygon fill="#ffffff" stroke="#000000" points="360.5,-56.5 360.5,-75.5 426.5,-75.5 426.5,-56.5 360.5,-56.5"/>
<text text-anchor="middle" x="393.5" y="-63.5" font-family="Helvetica,sans-Serif" font-size="10.00" fill="#000000">icns_ops.H</text>
</a>
</g>
</g>
<!-- Node26&#45;&gt;Node30 -->
<g id="edge65" class="edge">
<title>Node26&#45;&gt;Node30</title>
<path fill="none" stroke="#191970" d="M556.3752,-335.0631C480.1308,-317.2571 345.5,-279.3895 345.5,-234 345.5,-234 345.5,-234 345.5,-178 345.5,-137.171 372.782,-94.2465 386.2098,-75.5923"/>
<polygon fill="#191970" stroke="#191970" points="555.7443,-338.5093 566.2743,-337.339 557.3128,-331.6873 555.7443,-338.5093"/>
</g>
<!-- Node40 -->
<g id="node20" class="node">
<title>Node40</title>
<g id="a_node20"><a xlink:href="density_8_h.html" target="_top" xlink:title="density.H">
<polygon fill="#ffffff" stroke="#000000" points="534,-112.5 534,-131.5 593,-131.5 593,-112.5 534,-112.5"/>
<text text-anchor="middle" x="563.5" y="-119.5" font-family="Helvetica,sans-Serif" font-size="10.00" fill="#000000">density.H</text>
</a>
</g>
</g>
<!-- Node26&#45;&gt;Node40 -->
<g id="edge62" class="edge">
<title>Node26&#45;&gt;Node40</title>
<path fill="none" stroke="#191970" d="M603.6523,-326.4119C594.5663,-280.1557 572.0435,-165.494 565.3836,-131.5891"/>
<polygon fill="#191970" stroke="#191970" points="600.2475,-327.2371 605.6094,-336.375 607.1162,-325.8879 600.2475,-327.2371"/>
</g>
<!-- Node42 -->
<g id="node22" class="node">
<title>Node42</title>
<g id="a_node22"><a xlink:href="icns_8_h.html" target="_top" xlink:title="icns.H">
<polygon fill="#ffffff" stroke="#000000" points="260,-112.5 260,-131.5 305,-131.5 305,-112.5 260,-112.5"/>
<text text-anchor="middle" x="282.5" y="-119.5" font-family="Helvetica,sans-Serif" font-size="10.00" fill="#000000">icns.H</text>
</a>
</g>
</g>
<!-- Node26&#45;&gt;Node42 -->
<g id="edge64" class="edge">
<title>Node26&#45;&gt;Node42</title>
<path fill="none" stroke="#191970" d="M556.3163,-343.9165C485.7945,-339.9961 363.7825,-329.1036 331.5,-300 280.7928,-254.286 280.544,-161.4178 281.8911,-131.5097"/>
<polygon fill="#191970" stroke="#191970" points="556.16,-347.4131 566.3307,-344.4457 556.5294,-340.4228 556.16,-347.4131"/>
</g>
<!-- Node43 -->
<g id="node23" class="node">
<title>Node43</title>
<g id="a_node23"><a xlink:href="icns__diffusion_8_h.html" target="_top" xlink:title="icns_diffusion.H">
<polygon fill="#ffffff" stroke="#000000" points="0,-56.5 0,-75.5 87,-75.5 87,-56.5 0,-56.5"/>
<text text-anchor="middle" x="43.5" y="-63.5" font-family="Helvetica,sans-Serif" font-size="10.00" fill="#000000">icns_diffusion.H</text>
</a>
</g>
</g>
<!-- Node26&#45;&gt;Node43 -->
<g id="edge66" class="edge">
<title>Node26&#45;&gt;Node43</title>
<path fill="none" stroke="#191970" d="M555.9893,-345.0588C430.1849,-341.3702 117.5,-323.2272 117.5,-234 117.5,-234 117.5,-234 117.5,-178 117.5,-133.7199 76.7377,-93.4737 55.7196,-75.665"/>
<polygon fill="#191970" stroke="#191970" points="556.0531,-348.5618 566.1452,-345.3369 556.2448,-341.5644 556.0531,-348.5618"/>
</g>
<!-- Node45 -->
<g id="node25" class="node">
<title>Node45</title>
<g id="a_node25"><a xlink:href="levelset_8_h.html" target="_top" xlink:title="levelset.H">
<polygon fill="#ffffff" stroke="#000000" points="1145,-112.5 1145,-131.5 1206,-131.5 1206,-112.5 1145,-112.5"/>
<text text-anchor="middle" x="1175.5" y="-119.5" font-family="Helvetica,sans-Serif" font-size="10.00" fill="#000000">levelset.H</text>
</a>
</g>
</g>
<!-- Node26&#45;&gt;Node45 -->
<g id="edge67" class="edge">
<title>Node26&#45;&gt;Node45</title>
<path fill="none" stroke="#191970" d="M658.6626,-335.866C750.3351,-319.7243 778.4349,-330.2542 862.5,-300 987.7856,-254.9109 1121.2705,-161.6278 1162.5784,-131.5626"/>
<polygon fill="#191970" stroke="#191970" points="657.8969,-332.4478 648.6858,-337.683 659.1511,-339.3346 657.8969,-332.4478"/>
</g>
<!-- Node47 -->
<g id="node27" class="node">
<title>Node47</title>
<g id="a_node27"><a xlink:href="_s_d_r_8_h.html" target="_top" xlink:title="SDR.H">
<polygon fill="#ffffff" stroke="#000000" points="1070,-112.5 1070,-131.5 1119,-131.5 1119,-112.5 1070,-112.5"/>
<text text-anchor="middle" x="1094.5" y="-119.5" font-family="Helvetica,sans-Serif" font-size="10.00" fill="#000000">SDR.H</text>
</a>
</g>
</g>
<!-- Node26&#45;&gt;Node47 -->
<g id="edge69" class="edge">
<title>Node26&#45;&gt;Node47</title>
<path fill="none" stroke="#191970" d="M658.5806,-335.7834C724.6386,-322.5456 831.5411,-301.0248 833.5,-300 908.7045,-260.6575 899.6142,-213.1218 971.5,-168 988.2996,-157.4551 1039.0852,-139.9938 1069.896,-129.8896"/>
<polygon fill="#191970" stroke="#191970" points="657.8677,-332.3566 648.75,-337.7527 659.2427,-339.2202 657.8677,-332.3566"/>
</g>
<!-- Node48 -->
<g id="node28" class="node">
<title>Node48</title>
<g id="a_node28"><a xlink:href="temperature_8_h.html" target="_top" xlink:title="temperature.H">
<polygon fill="#ffffff" stroke="#000000" points="854,-112.5 854,-131.5 933,-131.5 933,-112.5 854,-112.5"/>
<text text-anchor="middle" x="893.5" y="-119.5" font-family="Helvetica,sans-Serif" font-size="10.00" fill="#000000">temperature.H</text>
</a>
</g>
</g>
<!-- Node26&#45;&gt;Node48 -->
<g id="edge70" class="edge">
<title>Node26&#45;&gt;Node48</title>
<path fill="none" stroke="#191970" d="M658.5571,-335.1426C715.6835,-322.862 801.1324,-304.0406 807.5,-300 869.5141,-260.648 887.9444,-162.7028 892.3227,-131.6237"/>
<polygon fill="#191970" stroke="#191970" points="657.6402,-331.7596 648.5968,-337.2793 659.1085,-338.6039 657.6402,-331.7596"/>
</g>
<!-- Node49 -->
<g id="node29" class="node">
<title>Node49</title>
<g id="a_node29"><a xlink:href="_t_k_e_8_h.html" target="_top" xlink:title="TKE.H">
<polygon fill="#ffffff" stroke="#000000" points="611,-112.5 611,-131.5 658,-131.5 658,-112.5 611,-112.5"/>
<text text-anchor="middle" x="634.5" y="-119.5" font-family="Helvetica,sans-Serif" font-size="10.00" fill="#000000">TKE.H</text>
</a>
</g>
</g>
<!-- Node26&#45;&gt;Node49 -->
<g id="edge71" class="edge">
<title>Node26&#45;&gt;Node49</title>
<path fill="none" stroke="#191970" d="M609.8611,-326.4119C615.4366,-280.1557 629.2574,-165.494 633.3442,-131.5891"/>
<polygon fill="#191970" stroke="#191970" points="606.3821,-326.028 608.6602,-336.375 613.3318,-326.8657 606.3821,-326.028"/>
</g>
<!-- Node51 -->
<g id="node31" class="node">
<title>Node51</title>
<g id="a_node31"><a xlink:href="_diffusion_ops_8_h.html" target="_top" xlink:title="DiffusionOps.H">
<polygon fill="#ffffff" stroke="#000000" points="417.5,-224.5 417.5,-243.5 501.5,-243.5 501.5,-224.5 417.5,-224.5"/>
<text text-anchor="middle" x="459.5" y="-231.5" font-family="Helvetica,sans-Serif" font-size="10.00" fill="#000000">DiffusionOps.H</text>
</a>
</g>
</g>
<!-- Node26&#45;&gt;Node51 -->
<g id="edge63" class="edge">
<title>Node26&#45;&gt;Node51</title>
<path fill="none" stroke="#191970" d="M586.8595,-330.3802C555.7093,-306.807 497.6178,-262.8459 472.0865,-243.5249"/>
<polygon fill="#191970" stroke="#191970" points="584.7955,-333.2074 594.8816,-336.4509 589.0196,-327.6255 584.7955,-333.2074"/>
</g>
<!-- Node53 -->
<g id="node33" class="node">
<title>Node53</title>
<g id="a_node33"><a xlink:href="_p_d_e_base_8cpp.html" target="_top" xlink:title="PDEBase.cpp">
<polygon fill="#ffffff" stroke="#000000" points="720,-280.5 720,-299.5 799,-299.5 799,-280.5 720,-280.5"/>
<text text-anchor="middle" x="759.5" y="-287.5" font-family="Helvetica,sans-Serif" font-size="10.00" fill="#000000">PDEBase.cpp</text>
</a>
</g>
</g>
<!-- Node26&#45;&gt;Node53 -->
<g id="edge68" class="edge">
<title>Node26&#45;&gt;Node53</title>
<path fill="none" stroke="#191970" d="M643.359,-332.7888C671.1123,-322.5639 708.8819,-308.6488 733.7112,-299.5011"/>
<polygon fill="#191970" stroke="#191970" points="641.8032,-329.6319 633.6297,-336.3733 644.2232,-336.2003 641.8032,-329.6319"/>
</g>
<!-- Node28 -->
<g id="node8" class="node">
<title>Node28</title>
<g id="a_node8"><a xlink:href="_adv_op___godunov_8_h.html" target="_top" xlink:title="AdvOp_Godunov.H">
<polygon fill="#ffffff" stroke="#000000" points="951,-112.5 951,-131.5 1052,-131.5 1052,-112.5 951,-112.5"/>
<text text-anchor="middle" x="1001.5" y="-119.5" font-family="Helvetica,sans-Serif" font-size="10.00" fill="#000000">AdvOp_Godunov.H</text>
</a>
</g>
</g>
<!-- Node27&#45;&gt;Node28 -->
<g id="edge7" class="edge">
<title>Node27&#45;&gt;Node28</title>
<path fill="none" stroke="#191970" d="M711.8003,-279.6873C763.9187,-267.1897 845.2735,-247.3761 851.5,-244 895.1822,-220.3145 894.5856,-198.8999 933.5,-168 950.6896,-154.3506 971.8056,-140.4768 985.9036,-131.588"/>
<polygon fill="#191970" stroke="#191970" points="710.7076,-276.3499 701.7974,-282.0822 712.3375,-283.1575 710.7076,-276.3499"/>
</g>
<!-- Node27&#45;&gt;Node30 -->
<g id="edge60" class="edge">
<title>Node27&#45;&gt;Node30</title>
<path fill="none" stroke="#191970" d="M648.6091,-273.798C594.8708,-230.0257 447.9527,-110.3542 405.2724,-75.5891"/>
<polygon fill="#191970" stroke="#191970" points="646.7198,-276.7732 656.6836,-280.375 651.1406,-271.3458 646.7198,-276.7732"/>
</g>
<!-- Node36 -->
<g id="node16" class="node">
<title>Node36</title>
<g id="a_node16"><a xlink:href="_adv_op___m_o_l_8_h.html" target="_top" xlink:title="AdvOp_MOL.H">
<polygon fill="#ffffff" stroke="#000000" points="753,-112.5 753,-131.5 836,-131.5 836,-112.5 753,-112.5"/>
<text text-anchor="middle" x="794.5" y="-119.5" font-family="Helvetica,sans-Serif" font-size="10.00" fill="#000000">AdvOp_MOL.H</text>
</a>
</g>
</g>
<!-- Node27&#45;&gt;Node36 -->
<g id="edge16" class="edge">
<title>Node27&#45;&gt;Node36</title>
<path fill="none" stroke="#191970" d="M669.2031,-270.0449C671.1152,-243.8458 678.0102,-197.7046 702.5,-168 717.154,-150.2257 740.4003,-138.6842 759.8585,-131.6072"/>
<polygon fill="#191970" stroke="#191970" points="665.6965,-270.0704 668.6407,-280.2479 672.6859,-270.4557 665.6965,-270.0704"/>
</g>
<!-- Node37 -->
<g id="node17" class="node">
<title>Node37</title>
<g id="a_node17"><a xlink:href="_b_c_ops_8_h.html" target="_top" xlink:title="BCOps.H">
<polygon fill="#ffffff" stroke="#000000" points="676,-112.5 676,-131.5 735,-131.5 735,-112.5 676,-112.5"/>
<text text-anchor="middle" x="705.5" y="-119.5" font-family="Helvetica,sans-Serif" font-size="10.00" fill="#000000">BCOps.H</text>
</a>
</g>
</g>
<!-- Node27&#45;&gt;Node37 -->
<g id="edge23" class="edge">
<title>Node27&#45;&gt;Node37</title>
<path fill="none" stroke="#191970" d="M664.908,-270.568C661.1875,-245.9301 657.4439,-202.5071 669.5,-168 674.5172,-153.6397 686.0145,-140.315 694.6755,-131.7426"/>
<polygon fill="#191970" stroke="#191970" points="661.4615,-271.1788 666.559,-280.4668 668.3661,-270.0272 661.4615,-271.1788"/>
</g>
<!-- Node38 -->
<g id="node18" class="node">
<title>Node38</title>
<g id="a_node18"><a xlink:href="_comp_r_h_s_ops_8_h.html" target="_top" xlink:title="CompRHSOps.H">
<polygon fill="#ffffff" stroke="#000000" points="750,-224.5 750,-243.5 843,-243.5 843,-224.5 750,-224.5"/>
<text text-anchor="middle" x="796.5" y="-231.5" font-family="Helvetica,sans-Serif" font-size="10.00" fill="#000000">CompRHSOps.H</text>
</a>
</g>
</g>
<!-- Node27&#45;&gt;Node38 -->
<g id="edge30" class="edge">
<title>Node27&#45;&gt;Node38</title>
<path fill="none" stroke="#191970" d="M699.9348,-276.2473C723.1809,-266.0771 754.2411,-252.4883 774.7831,-243.5011"/>
<polygon fill="#191970" stroke="#191970" points="698.2627,-273.1585 690.504,-280.3733 701.0685,-279.5716 698.2627,-273.1585"/>
</g>
<!-- Node39 -->
<g id="node19" class="node">
<title>Node39</title>
<g id="a_node19"><a xlink:href="_p_d_e_8_h.html" target="_top" xlink:title="PDE.H">
<polygon fill="#ffffff" stroke="#000000" points="711.5,-168.5 711.5,-187.5 759.5,-187.5 759.5,-168.5 711.5,-168.5"/>
<text text-anchor="middle" x="735.5" y="-175.5" font-family="Helvetica,sans-Serif" font-size="10.00" fill="#000000">PDE.H</text>
</a>
</g>
</g>
<!-- Node27&#45;&gt;Node39 -->
<g id="edge54" class="edge">
<title>Node27&#45;&gt;Node39</title>
<path fill="none" stroke="#191970" d="M680.3335,-271.6043C685.6588,-263.2309 691.9761,-253.1643 697.5,-244 709.3765,-224.2966 722.6635,-200.8872 729.9569,-187.9121"/>
<polygon fill="#191970" stroke="#191970" points="677.2755,-269.8898 674.8378,-280.2004 683.1732,-273.6604 677.2755,-269.8898"/>
</g>
<!-- Node27&#45;&gt;Node43 -->
<g id="edge61" class="edge">
<title>Node27&#45;&gt;Node43</title>
<path fill="none" stroke="#191970" d="M625.1575,-285.8585C572.859,-280.0618 482.7054,-267.4979 408.5,-244 296.6658,-208.5866 274.5429,-184.2206 169.5,-132 152.4101,-123.504 148.4014,-120.8651 131.5,-112 107.5316,-99.4281 79.8639,-84.9752 62.0492,-75.6769"/>
<polygon fill="#191970" stroke="#191970" points="625.0929,-289.3717 635.41,-286.9616 625.8418,-282.4119 625.0929,-289.3717"/>
</g>
<!-- Node27&#45;&gt;Node51 -->
<g id="edge55" class="edge">
<title>Node27&#45;&gt;Node51</title>
<path fill="none" stroke="#191970" d="M625.513,-278.4819C587.0544,-268.1773 531.3365,-253.2481 495.2613,-243.582"/>
<polygon fill="#191970" stroke="#191970" points="624.8182,-281.9192 635.3833,-281.1266 626.6299,-275.1577 624.8182,-281.9192"/>
</g>
<!-- Node29 -->
<g id="node9" class="node">
<title>Node29</title>
<g id="a_node9"><a xlink:href="density_8cpp.html" target="_top" xlink:title="density.cpp">
<polygon fill="#ffffff" stroke="#000000" points="663,-.5 663,-19.5 730,-19.5 730,-.5 663,-.5"/>
<text text-anchor="middle" x="696.5" y="-7.5" font-family="Helvetica,sans-Serif" font-size="10.00" fill="#000000">density.cpp</text>
</a>
</g>
</g>
<!-- Node28&#45;&gt;Node29 -->
<g id="edge8" class="edge">
<title>Node28&#45;&gt;Node29</title>
<path fill="none" stroke="#191970" d="M1040.1128,-108.7587C1069.9303,-96.5059 1103.2018,-77.05 1084.5,-56 1061.1005,-29.6625 820.1542,-15.7778 730.16,-11.4795"/>
<polygon fill="#191970" stroke="#191970" points="1038.6574,-105.5697 1030.6234,-112.4766 1041.2111,-112.0873 1038.6574,-105.5697"/>
</g>
<!-- Node28&#45;&gt;Node30 -->
<g id="edge9" class="edge">
<title>Node28&#45;&gt;Node30</title>
<path fill="none" stroke="#191970" d="M940.7811,-112.0166C732.705,-87.136 677.8174,-96.6164 473.5,-76 458.0419,-74.4402 440.9485,-72.353 426.5442,-70.489"/>
<polygon fill="#191970" stroke="#191970" points="940.4589,-115.503 950.8065,-113.2276 941.2984,-108.5535 940.4589,-115.503"/>
</g>
<!-- Node32 -->
<g id="node12" class="node">
<title>Node32</title>
<g id="a_node12"><a xlink:href="levelset_8cpp.html" target="_top" xlink:title="levelset.cpp">
<polygon fill="#ffffff" stroke="#000000" points="1107,-.5 1107,-19.5 1176,-19.5 1176,-.5 1107,-.5"/>
<text text-anchor="middle" x="1141.5" y="-7.5" font-family="Helvetica,sans-Serif" font-size="10.00" fill="#000000">levelset.cpp</text>
</a>
</g>
</g>
<!-- Node28&#45;&gt;Node32 -->
<g id="edge12" class="edge">
<title>Node28&#45;&gt;Node32</title>
<path fill="none" stroke="#191970" d="M1059.774,-109.4425C1080.2486,-102.5209 1101.9905,-91.9621 1117.5,-76 1132.7936,-60.2601 1138.4458,-34.025 1140.4539,-19.8352"/>
<polygon fill="#191970" stroke="#191970" points="1058.6595,-106.1239 1050.1713,-112.4644 1060.7608,-112.8011 1058.6595,-106.1239"/>
</g>
<!-- Node33 -->
<g id="node13" class="node">
<title>Node33</title>
<g id="a_node13"><a xlink:href="_s_d_r_8cpp.html" target="_top" xlink:title="SDR.cpp">
<polygon fill="#ffffff" stroke="#000000" points="1018,-56.5 1018,-75.5 1075,-75.5 1075,-56.5 1018,-56.5"/>
<text text-anchor="middle" x="1046.5" y="-63.5" font-family="Helvetica,sans-Serif" font-size="10.00" fill="#000000">SDR.cpp</text>
</a>
</g>
</g>
<!-- Node28&#45;&gt;Node33 -->
<g id="edge13" class="edge">
<title>Node28&#45;&gt;Node33</title>
<path fill="none" stroke="#191970" d="M1015.7946,-104.2112C1023.3996,-94.7472 1032.4538,-83.4797 1038.7514,-75.6427"/>
<polygon fill="#191970" stroke="#191970" points="1012.8741,-102.2581 1009.3384,-112.2455 1018.3306,-106.6428 1012.8741,-102.2581"/>
</g>
<!-- Node34 -->
<g id="node14" class="node">
<title>Node34</title>
<g id="a_node14"><a xlink:href="temperature_8cpp.html" target="_top" xlink:title="temperature.cpp">
<polygon fill="#ffffff" stroke="#000000" points="913,-56.5 913,-75.5 1000,-75.5 1000,-56.5 913,-56.5"/>
<text text-anchor="middle" x="956.5" y="-63.5" font-family="Helvetica,sans-Serif" font-size="10.00" fill="#000000">temperature.cpp</text>
</a>
</g>
</g>
<!-- Node28&#45;&gt;Node34 -->
<g id="edge14" class="edge">
<title>Node28&#45;&gt;Node34</title>
<path fill="none" stroke="#191970" d="M987.2054,-104.2112C979.6004,-94.7472 970.5462,-83.4797 964.2486,-75.6427"/>
<polygon fill="#191970" stroke="#191970" points="984.6694,-106.6428 993.6616,-112.2455 990.1259,-102.2581 984.6694,-106.6428"/>
</g>
<!-- Node35 -->
<g id="node15" class="node">
<title>Node35</title>
<g id="a_node15"><a xlink:href="_t_k_e_8cpp.html" target="_top" xlink:title="TKE.cpp">
<polygon fill="#ffffff" stroke="#000000" points="763,-56.5 763,-75.5 818,-75.5 818,-56.5 763,-56.5"/>
<text text-anchor="middle" x="790.5" y="-63.5" font-family="Helvetica,sans-Serif" font-size="10.00" fill="#000000">TKE.cpp</text>
</a>
</g>
</g>
<!-- Node28&#45;&gt;Node35 -->
<g id="edge15" class="edge">
<title>Node28&#45;&gt;Node35</title>
<path fill="none" stroke="#191970" d="M955.5362,-109.8011C913.6526,-98.685 853.157,-82.6293 818.232,-73.3601"/>
<polygon fill="#191970" stroke="#191970" points="954.6646,-113.1908 965.2278,-112.3733 956.4603,-106.4251 954.6646,-113.1908"/>
</g>
<!-- Node30&#45;&gt;Node24 -->
<g id="edge10" class="edge">
<title>Node30&#45;&gt;Node24</title>
<path fill="none" stroke="#191970" d="M350.3411,-55.9733C280.6699,-39.995 211.1696,-24.3179 174.1122,-15.9799"/>
<polygon fill="#191970" stroke="#191970" points="349.6402,-59.4034 360.1698,-58.2292 351.2062,-52.5808 349.6402,-59.4034"/>
</g>
<!-- Node31 -->
<g id="node11" class="node">
<title>Node31</title>
<g id="a_node11"><a xlink:href="icns__ops_8cpp.html" target="_top" xlink:title="icns_ops.cpp">
<polygon fill="#ffffff" stroke="#000000" points="356.5,-.5 356.5,-19.5 430.5,-19.5 430.5,-.5 356.5,-.5"/>
<text text-anchor="middle" x="393.5" y="-7.5" font-family="Helvetica,sans-Serif" font-size="10.00" fill="#000000">icns_ops.cpp</text>
</a>
</g>
</g>
<!-- Node30&#45;&gt;Node31 -->
<g id="edge11" class="edge">
<title>Node30&#45;&gt;Node31</title>
<path fill="none" stroke="#191970" d="M393.5,-46.1575C393.5,-37.155 393.5,-26.9199 393.5,-19.6427"/>
<polygon fill="#191970" stroke="#191970" points="390.0001,-46.2455 393.5,-56.2455 397.0001,-46.2456 390.0001,-46.2455"/>
</g>
<!-- Node36&#45;&gt;Node29 -->
<g id="edge17" class="edge">
<title>Node36&#45;&gt;Node29</title>
<path fill="none" stroke="#191970" d="M812.809,-104.6423C825.1296,-90.8117 837.3147,-71.2985 826.5,-56 815.1334,-39.9207 764.6968,-25.5121 730.0946,-17.2663"/>
<polygon fill="#191970" stroke="#191970" points="810.1002,-102.4106 805.7121,-112.054 815.1561,-107.2518 810.1002,-102.4106"/>
</g>
<!-- Node36&#45;&gt;Node30 -->
<g id="edge18" class="edge">
<title>Node36&#45;&gt;Node30</title>
<path fill="none" stroke="#191970" d="M742.6853,-112.0234C685.9153,-103.5149 502.3241,-79.9211 426.5404,-70.2217"/>
<polygon fill="#191970" stroke="#191970" points="742.37,-115.5165 752.79,-113.5996 743.449,-108.6001 742.37,-115.5165"/>
</g>
<!-- Node36&#45;&gt;Node32 -->
<g id="edge19" class="edge">
<title>Node36&#45;&gt;Node32</title>
<path fill="none" stroke="#191970" d="M815.3513,-106.2712C836.4712,-91.1121 870.625,-68.6637 903.5,-56 972.8137,-29.2998 1059.6826,-17.5508 1106.9517,-12.8285"/>
<polygon fill="#191970" stroke="#191970" points="813.1487,-103.5458 807.1397,-112.2718 817.2787,-109.1976 813.1487,-103.5458"/>
</g>
<!-- Node36&#45;&gt;Node33 -->
<g id="edge20" class="edge">
<title>Node36&#45;&gt;Node33</title>
<path fill="none" stroke="#191970" d="M846.0929,-111.5975C889.5309,-102.6748 953.2381,-89.2034 1008.5,-76 1011.5521,-75.2708 1014.7343,-74.4807 1017.9013,-73.6753"/>
<polygon fill="#191970" stroke="#191970" points="845.1462,-108.2187 836.0514,-113.6533 846.5502,-115.0764 845.1462,-108.2187"/>
</g>
<!-- Node36&#45;&gt;Node34 -->
<g id="edge21" class="edge">
<title>Node36&#45;&gt;Node34</title>
<path fill="none" stroke="#191970" d="M831.9422,-109.057C861.5901,-98.8084 902.3196,-84.729 929.0146,-75.5011"/>
<polygon fill="#191970" stroke="#191970" points="830.6565,-105.7982 822.3488,-112.3733 832.9436,-112.414 830.6565,-105.7982"/>
</g>
<!-- Node36&#45;&gt;Node35 -->
<g id="edge22" class="edge">
<title>Node36&#45;&gt;Node35</title>
<path fill="none" stroke="#191970" d="M793.0827,-102.1575C792.4396,-93.155 791.7086,-82.9199 791.1888,-75.6427"/>
<polygon fill="#191970" stroke="#191970" points="789.5996,-102.5204 793.8033,-112.2455 796.5818,-102.0216 789.5996,-102.5204"/>
</g>
<!-- Node37&#45;&gt;Node23 -->
<g id="edge25" class="edge">
<title>Node37&#45;&gt;Node23</title>
<path fill="none" stroke="#191970" d="M665.7582,-112.1632C469.8824,-80.2186 415.5105,-105.4677 223.5,-76 220.8674,-75.596 218.1579,-75.1229 215.4385,-74.6062"/>
<polygon fill="#191970" stroke="#191970" points="665.3625,-115.6454 675.8008,-113.8305 666.5091,-108.7399 665.3625,-115.6454"/>
</g>
<!-- Node37&#45;&gt;Node29 -->
<g id="edge24" class="edge">
<title>Node37&#45;&gt;Node29</title>
<path fill="none" stroke="#191970" d="M703.9146,-102.2702C701.9642,-77.9985 698.7317,-37.7725 697.2654,-19.5249"/>
<polygon fill="#191970" stroke="#191970" points="700.4428,-102.7635 704.7327,-112.4509 707.4203,-102.2027 700.4428,-102.7635"/>
</g>
<!-- Node37&#45;&gt;Node32 -->
<g id="edge26" class="edge">
<title>Node37&#45;&gt;Node32</title>
<path fill="none" stroke="#191970" d="M713.7948,-103.238C721.6691,-87.8171 735.0488,-66.8109 753.5,-56 813.0508,-21.1079 1023.1026,-12.6214 1106.7522,-10.608"/>
<polygon fill="#191970" stroke="#191970" points="710.5695,-101.87 709.4172,-112.402 716.8858,-104.8873 710.5695,-101.87"/>
</g>
<!-- Node37&#45;&gt;Node33 -->
<g id="edge27" class="edge">
<title>Node37&#45;&gt;Node33</title>
<path fill="none" stroke="#191970" d="M745.3224,-111.8224C861.8845,-89.3724 895.1079,-98.5343 1008.5,-76 1011.5779,-75.3883 1014.7765,-74.6736 1017.9532,-73.9126"/>
<polygon fill="#191970" stroke="#191970" points="744.4289,-108.4309 735.2906,-113.7921 745.7776,-115.2997 744.4289,-108.4309"/>
</g>
<!-- Node37&#45;&gt;Node34 -->
<g id="edge28" class="edge">
<title>Node37&#45;&gt;Node34</title>
<path fill="none" stroke="#191970" d="M745.0829,-111.6853C808.373,-96.6533 871.677,-83.2978 912.7214,-74.8589"/>
<polygon fill="#191970" stroke="#191970" points="744.252,-108.2853 735.339,-114.0132 745.8786,-115.0937 744.252,-108.2853"/>
</g>
<!-- Node37&#45;&gt;Node35 -->
<g id="edge29" class="edge">
<title>Node37&#45;&gt;Node35</title>
<path fill="none" stroke="#191970" d="M729.0419,-106.49C744.039,-96.6096 762.9973,-84.1194 775.8638,-75.6427"/>
<polygon fill="#191970" stroke="#191970" points="726.7309,-103.8212 720.3059,-112.2455 730.5821,-109.6666 726.7309,-103.8212"/>
</g>
<!-- Node38&#45;&gt;Node39 -->
<g id="edge31" class="edge">
<title>Node38&#45;&gt;Node39</title>
<path fill="none" stroke="#191970" d="M778.3751,-217.3607C767.822,-207.6727 754.8888,-195.7995 746.0036,-187.6427"/>
<polygon fill="#191970" stroke="#191970" points="776.1411,-220.0611 785.8746,-224.2455 780.875,-214.9045 776.1411,-220.0611"/>
</g>
<!-- Node39&#45;&gt;Node40 -->
<g id="edge32" class="edge">
<title>Node39&#45;&gt;Node40</title>
<path fill="none" stroke="#191970" d="M701.4945,-166.9284C669.7766,-156.6017 622.9528,-141.3567 592.8358,-131.5512"/>
<polygon fill="#191970" stroke="#191970" points="700.6291,-170.3275 711.2214,-170.0953 702.7963,-163.6714 700.6291,-170.3275"/>
</g>
<!-- Node39&#45;&gt;Node42 -->
<g id="edge36" class="edge">
<title>Node39&#45;&gt;Node42</title>
<path fill="none" stroke="#191970" d="M701.4502,-173.7907C613.2266,-162.8845 378.9646,-133.925 305.1245,-124.7968"/>
<polygon fill="#191970" stroke="#191970" points="701.1107,-177.2753 711.4646,-175.0287 701.9696,-170.3282 701.1107,-177.2753"/>
</g>
<!-- Node39&#45;&gt;Node45 -->
<g id="edge43" class="edge">
<title>Node39&#45;&gt;Node45</title>
<path fill="none" stroke="#191970" d="M769.7244,-175.0755C838.1524,-168.9901 996.6002,-153.7028 1128.5,-132 1133.8506,-131.1196 1139.5141,-130.0416 1144.9867,-128.9231"/>
<polygon fill="#191970" stroke="#191970" points="769.1874,-171.6091 759.533,-175.9727 769.8014,-178.5822 769.1874,-171.6091"/>
</g>
<!-- Node39&#45;&gt;Node47 -->
<g id="edge47" class="edge">
<title>Node39&#45;&gt;Node47</title>
<path fill="none" stroke="#191970" d="M769.7574,-174.8074C829.332,-168.8879 955.6834,-154.7058 1060.5,-132 1063.5067,-131.3487 1066.6358,-130.5703 1069.725,-129.7394"/>
<polygon fill="#191970" stroke="#191970" points="769.3797,-171.3275 759.7679,-175.7843 770.0611,-178.2943 769.3797,-171.3275"/>
</g>
<!-- Node39&#45;&gt;Node48 -->
<g id="edge49" class="edge">
<title>Node39&#45;&gt;Node48</title>
<path fill="none" stroke="#191970" d="M769.5539,-165.9303C798.5646,-155.648 839.6938,-141.0706 866.4826,-131.5758"/>
<polygon fill="#191970" stroke="#191970" points="768.0975,-162.7331 759.8412,-169.3727 770.436,-169.3309 768.0975,-162.7331"/>
</g>
<!-- Node39&#45;&gt;Node49 -->
<g id="edge51" class="edge">
<title>Node39&#45;&gt;Node49</title>
<path fill="none" stroke="#191970" d="M709.0281,-163.3225C690.9875,-153.3198 667.6123,-140.3593 651.8913,-131.6427"/>
<polygon fill="#191970" stroke="#191970" points="707.4643,-166.4574 717.9071,-168.2455 710.8587,-160.3354 707.4643,-166.4574"/>
</g>
<!-- Node40&#45;&gt;Node29 -->
<g id="edge33" class="edge">
<title>Node40&#45;&gt;Node29</title>
<path fill="none" stroke="#191970" d="M524.2125,-110.3545C491.9439,-98.7845 454.4224,-79.4145 473.5,-56 496.9714,-27.1928 606.2345,-15.8881 662.6245,-11.915"/>
<polygon fill="#191970" stroke="#191970" points="523.3952,-113.7737 533.9897,-113.6906 525.6558,-107.1488 523.3952,-113.7737"/>
</g>
<!-- Node41 -->
<g id="node21" class="node">
<title>Node41</title>
<g id="a_node21"><a xlink:href="density__ops_8_h.html" target="_top" xlink:title="density_ops.H">
<polygon fill="#ffffff" stroke="#000000" points="482.5,-56.5 482.5,-75.5 562.5,-75.5 562.5,-56.5 482.5,-56.5"/>
<text text-anchor="middle" x="522.5" y="-63.5" font-family="Helvetica,sans-Serif" font-size="10.00" fill="#000000">density_ops.H</text>
</a>
</g>
</g>
<!-- Node40&#45;&gt;Node41 -->
<g id="edge34" class="edge">
<title>Node40&#45;&gt;Node41</title>
<path fill="none" stroke="#191970" d="M550.2636,-103.9209C543.3789,-94.5176 535.2391,-83.3997 529.5598,-75.6427"/>
<polygon fill="#191970" stroke="#191970" points="547.6269,-106.2445 556.3583,-112.2455 553.2749,-102.1093 547.6269,-106.2445"/>
</g>
<!-- Node41&#45;&gt;Node29 -->
<g id="edge35" class="edge">
<title>Node41&#45;&gt;Node29</title>
<path fill="none" stroke="#191970" d="M562.301,-53.1905C594.179,-42.9309 638.1816,-28.7691 666.9787,-19.5011"/>
<polygon fill="#191970" stroke="#191970" points="560.8585,-49.9779 552.4117,-56.3733 563.0031,-56.6413 560.8585,-49.9779"/>
</g>
<!-- Node42&#45;&gt;Node23 -->
<g id="edge41" class="edge">
<title>Node42&#45;&gt;Node23</title>
<path fill="none" stroke="#191970" d="M255.7568,-107.46C237.325,-97.4388 213.3416,-84.3993 197.2356,-75.6427"/>
<polygon fill="#191970" stroke="#191970" points="254.1015,-110.5438 264.5588,-112.2455 257.4451,-104.394 254.1015,-110.5438"/>
</g>
<!-- Node42&#45;&gt;Node24 -->
<g id="edge37" class="edge">
<title>Node42&#45;&gt;Node24</title>
<path fill="none" stroke="#191970" d="M249.9804,-116.4853C210.7319,-109.0896 148.2671,-94.6957 134.5,-76 122.0353,-59.0729 133.5261,-33.3202 141.4473,-19.5213"/>
<polygon fill="#191970" stroke="#191970" points="249.4283,-119.9423 259.8949,-118.2984 250.6876,-113.0565 249.4283,-119.9423"/>
</g>
<!-- Node42&#45;&gt;Node30 -->
<g id="edge38" class="edge">
<title>Node42&#45;&gt;Node30</title>
<path fill="none" stroke="#191970" d="M310.5734,-107.8368C330.6385,-97.7139 357.0922,-84.3679 374.6674,-75.5011"/>
<polygon fill="#191970" stroke="#191970" points="308.9332,-104.7441 301.5816,-112.3733 312.0862,-110.9938 308.9332,-104.7441"/>
</g>
<!-- Node42&#45;&gt;Node43 -->
<g id="edge39" class="edge">
<title>Node42&#45;&gt;Node43</title>
<path fill="none" stroke="#191970" d="M249.6137,-114.2944C206.4872,-104.1895 130.8409,-86.4648 84.1658,-75.5284"/>
<polygon fill="#191970" stroke="#191970" points="249.0489,-117.7568 259.5837,-116.6305 250.6459,-110.9414 249.0489,-117.7568"/>
</g>
<!-- Node44 -->
<g id="node24" class="node">
<title>Node44</title>
<g id="a_node24"><a xlink:href="_power_law_profile_8cpp.html" target="_top" xlink:title="PowerLawProfile.cpp">
<polygon fill="#ffffff" stroke="#000000" points="233,-56.5 233,-75.5 342,-75.5 342,-56.5 233,-56.5"/>
<text text-anchor="middle" x="287.5" y="-63.5" font-family="Helvetica,sans-Serif" font-size="10.00" fill="#000000">PowerLawProfile.cpp</text>
</a>
</g>
</g>
<!-- Node42&#45;&gt;Node44 -->
<g id="edge42" class="edge">
<title>Node42&#45;&gt;Node44</title>
<path fill="none" stroke="#191970" d="M284.2717,-102.1575C285.0754,-93.155 285.9893,-82.9199 286.639,-75.6427"/>
<polygon fill="#191970" stroke="#191970" points="280.7742,-101.9739 283.3709,-112.2455 287.7465,-102.5965 280.7742,-101.9739"/>
</g>
<!-- Node43&#45;&gt;Node24 -->
<g id="edge40" class="edge">
<title>Node43&#45;&gt;Node24</title>
<path fill="none" stroke="#191970" d="M70.5029,-51.46C89.1136,-41.4388 113.3299,-28.3993 129.5922,-19.6427"/>
<polygon fill="#191970" stroke="#191970" points="68.7608,-48.4228 61.6154,-56.2455 72.0795,-54.5861 68.7608,-48.4228"/>
</g>
<!-- Node45&#45;&gt;Node32 -->
<g id="edge44" class="edge">
<title>Node45&#45;&gt;Node32</title>
<path fill="none" stroke="#191970" d="M1169.5498,-102.342C1165.5755,-89.2174 1160.2294,-71.5733 1155.5,-56 1151.6673,-43.3796 1147.2327,-28.8152 1144.3991,-19.5137"/>
<polygon fill="#191970" stroke="#191970" points="1166.2743,-103.6021 1172.5219,-112.1589 1172.974,-101.5737 1166.2743,-103.6021"/>
</g>
<!-- Node46 -->
<g id="node26" class="node">
<title>Node46</title>
<g id="a_node26"><a xlink:href="levelset__ops_8_h.html" target="_top" xlink:title="levelset_ops.H">
<polygon fill="#ffffff" stroke="#000000" points="1207.5,-56.5 1207.5,-75.5 1289.5,-75.5 1289.5,-56.5 1207.5,-56.5"/>
<text text-anchor="middle" x="1248.5" y="-63.5" font-family="Helvetica,sans-Serif" font-size="10.00" fill="#000000">levelset_ops.H</text>
</a>
</g>
</g>
<!-- Node45&#45;&gt;Node46 -->
<g id="edge45" class="edge">
<title>Node45&#45;&gt;Node46</title>
<path fill="none" stroke="#191970" d="M1196.451,-105.928C1209.2107,-96.1397 1225.0885,-83.9595 1235.9301,-75.6427"/>
<polygon fill="#191970" stroke="#191970" points="1194.0196,-103.3819 1188.2156,-112.2455 1198.2803,-108.9359 1194.0196,-103.3819"/>
</g>
<!-- Node46&#45;&gt;Node32 -->
<g id="edge46" class="edge">
<title>Node46&#45;&gt;Node32</title>
<path fill="none" stroke="#191970" d="M1220.9801,-51.5971C1201.7983,-41.558 1176.7322,-28.4393 1159.9244,-19.6427"/>
<polygon fill="#191970" stroke="#191970" points="1219.3791,-54.7095 1229.862,-56.2455 1222.625,-48.5075 1219.3791,-54.7095"/>
</g>
<!-- Node47&#45;&gt;Node33 -->
<g id="edge48" class="edge">
<title>Node47&#45;&gt;Node33</title>
<path fill="none" stroke="#191970" d="M1079.5003,-104.5004C1071.3378,-94.9775 1061.5511,-83.5596 1054.7651,-75.6427"/>
<polygon fill="#191970" stroke="#191970" points="1076.9737,-106.9307 1086.139,-112.2455 1082.2885,-102.3752 1076.9737,-106.9307"/>
</g>
<!-- Node48&#45;&gt;Node34 -->
<g id="edge50" class="edge">
<title>Node48&#45;&gt;Node34</title>
<path fill="none" stroke="#191970" d="M912.2192,-105.3607C923.1182,-95.6727 936.4755,-83.7995 945.652,-75.6427"/>
<polygon fill="#191970" stroke="#191970" points="909.6226,-102.9859 904.4738,-112.2455 914.2732,-108.2178 909.6226,-102.9859"/>
</g>
<!-- Node49&#45;&gt;Node35 -->
<g id="edge52" class="edge">
<title>Node49&#45;&gt;Node35</title>
<path fill="none" stroke="#191970" d="M667.7966,-110.0474C696.5088,-99.7404 737.4211,-85.054 763.9677,-75.5244"/>
<polygon fill="#191970" stroke="#191970" points="666.4224,-106.8219 658.193,-113.4948 668.7875,-113.4103 666.4224,-106.8219"/>
</g>
<!-- Node50 -->
<g id="node30" class="node">
<title>Node50</title>
<g id="a_node30"><a xlink:href="_one_eq_ksgs_8cpp.html" target="_top" xlink:title="OneEqKsgs.cpp">
<polygon fill="#ffffff" stroke="#000000" points="580.5,-56.5 580.5,-75.5 668.5,-75.5 668.5,-56.5 580.5,-56.5"/>
<text text-anchor="middle" x="624.5" y="-63.5" font-family="Helvetica,sans-Serif" font-size="10.00" fill="#000000">OneEqKsgs.cpp</text>
</a>
</g>
</g>
<!-- Node49&#45;&gt;Node50 -->
<g id="edge53" class="edge">
<title>Node49&#45;&gt;Node50</title>
<path fill="none" stroke="#191970" d="M630.9567,-102.1575C629.3491,-93.155 627.5214,-82.9199 626.2219,-75.6427"/>
<polygon fill="#191970" stroke="#191970" points="627.5546,-103.0166 632.7581,-112.2455 634.4456,-101.786 627.5546,-103.0166"/>
</g>
<!-- Node51&#45;&gt;Node30 -->
<g id="edge58" class="edge">
<title>Node51&#45;&gt;Node30</title>
<path fill="none" stroke="#191970" d="M432.2081,-218.856C421.0231,-211.1514 409.1604,-200.7091 402.5,-188 382.7832,-150.3772 388.3807,-97.0771 391.7731,-75.5587"/>
<polygon fill="#191970" stroke="#191970" points="430.6127,-221.9906 440.9207,-224.4391 434.3894,-216.0968 430.6127,-221.9906"/>
</g>
<!-- Node51&#45;&gt;Node39 -->
<g id="edge56" class="edge">
<title>Node51&#45;&gt;Node39</title>
<path fill="none" stroke="#191970" d="M511.7225,-223.4041C571.519,-211.2715 666.9228,-191.9142 711.3147,-182.9072"/>
<polygon fill="#191970" stroke="#191970" points="510.8232,-220.0152 501.7189,-225.4338 512.2152,-226.8754 510.8232,-220.0152"/>
</g>
<!-- Node51&#45;&gt;Node43 -->
<g id="edge59" class="edge">
<title>Node51&#45;&gt;Node43</title>
<path fill="none" stroke="#191970" d="M428.3333,-220.3062C375.4334,-197.1949 264.551,-149.3191 169.5,-112 135.9017,-98.8086 96.7982,-84.7279 71.1728,-75.6707"/>
<polygon fill="#191970" stroke="#191970" points="427.2547,-223.6546 437.8191,-224.4567 430.0607,-217.2416 427.2547,-223.6546"/>
</g>
<!-- Node52 -->
<g id="node32" class="node">
<title>Node52</title>
<g id="a_node32"><a xlink:href="_diffusion_ops_8cpp.html" target="_top" xlink:title="DiffusionOps.cpp">
<polygon fill="#ffffff" stroke="#000000" points="411.5,-168.5 411.5,-187.5 503.5,-187.5 503.5,-168.5 411.5,-168.5"/>
<text text-anchor="middle" x="457.5" y="-175.5" font-family="Helvetica,sans-Serif" font-size="10.00" fill="#000000">DiffusionOps.cpp</text>
</a>
</g>
</g>
<!-- Node51&#45;&gt;Node52 -->
<g id="edge57" class="edge">
<title>Node51&#45;&gt;Node52</title>
<path fill="none" stroke="#191970" d="M458.7913,-214.1575C458.4698,-205.155 458.1043,-194.9199 457.8444,-187.6427"/>
<polygon fill="#191970" stroke="#191970" points="455.2968,-214.3769 459.1516,-224.2455 462.2924,-214.127 455.2968,-214.3769"/>
</g>
<!-- Node55 -->
<g id="node35" class="node">
<title>Node55</title>
<g id="a_node35"><a xlink:href="_a_b_l_boundary_plane_8cpp.html" target="_top" xlink:title="ABLBoundaryPlane.cpp">
<polygon fill="#ffffff" stroke="#000000" points="1013.5,-280.5 1013.5,-299.5 1133.5,-299.5 1133.5,-280.5 1013.5,-280.5"/>
<text text-anchor="middle" x="1073.5" y="-287.5" font-family="Helvetica,sans-Serif" font-size="10.00" fill="#000000">ABLBoundaryPlane.cpp</text>
</a>
</g>
</g>
<!-- Node54&#45;&gt;Node55 -->
<g id="edge73" class="edge">
<title>Node54&#45;&gt;Node55</title>
<path fill="none" stroke="#191970" d="M1073.5,-326.1575C1073.5,-317.155 1073.5,-306.9199 1073.5,-299.6427"/>
<polygon fill="#191970" stroke="#191970" points="1070.0001,-326.2455 1073.5,-336.2455 1077.0001,-326.2456 1070.0001,-326.2455"/>
</g>
<!-- Node56 -->
<g id="node36" class="node">
<title>Node56</title>
<g id="a_node36"><a xlink:href="_a_b_l_fill_inflow_8cpp.html" target="_top" xlink:title="ABLFillInflow.cpp">
<polygon fill="#ffffff" stroke="#000000" points="1152,-280.5 1152,-299.5 1245,-299.5 1245,-280.5 1152,-280.5"/>
<text text-anchor="middle" x="1198.5" y="-287.5" font-family="Helvetica,sans-Serif" font-size="10.00" fill="#000000">ABLFillInflow.cpp</text>
</a>
</g>
</g>
<!-- Node54&#45;&gt;Node56 -->
<g id="edge74" class="edge">
<title>Node54&#45;&gt;Node56</title>
<path fill="none" stroke="#191970" d="M1104.198,-332.2473C1126.8993,-322.0771 1157.2315,-308.4883 1177.2921,-299.5011"/>
<polygon fill="#191970" stroke="#191970" points="1102.6833,-329.0906 1094.9883,-336.3733 1105.5453,-335.4789 1102.6833,-329.0906"/>
</g>
</g>
</svg>
        <g id="navigator" transform="translate(0 0)" fill="#404254">
                <rect fill="#f2f5e9" fill-opacity="0.5" stroke="#606060" stroke-width=".5" x="0" y="0" width="60" height="60"/>
                <use id="zoomplus" xlink:href="#zoomPlus" x="17" y="9" onmousedown="handleZoom(evt,'in')"/>
                <use id="zoomminus" xlink:href="#zoomMin" x="42" y="9" onmousedown="handleZoom(evt,'out')"/>
                <use id="reset" xlink:href="#resetDef" x="30" y="36" onmousedown="handleReset()"/>
                <g id="arrowUp" xlink:href="#dirArrow" transform="translate(30 24)" onmousedown="handlePan(0,-1)">
                  <use xlink:href="#rim" fill="#404040">
                        <set attributeName="fill" to="#808080" begin="arrowUp.mouseover" end="arrowUp.mouseout"/>
                  </use>
                  <path fill="none" stroke="white" stroke-width="1.5" d="M0,-3.0v7 M-2.5,-0.5L0,-3.0L2.5,-0.5"/>
                </g>
                <g id="arrowRight" xlink:href="#dirArrow" transform="rotate(90) translate(36 -43)" onmousedown="handlePan(1,0)">
                  <use xlink:href="#rim" fill="#404040">
                        <set attributeName="fill" to="#808080" begin="arrowRight.mouseover" end="arrowRight.mouseout"/>
                  </use>
                  <path fill="none" stroke="white" stroke-width="1.5" d="M0,-3.0v7 M-2.5,-0.5L0,-3.0L2.5,-0.5"/>
                </g>
                <g id="arrowDown" xlink:href="#dirArrow" transform="rotate(180) translate(-30 -48)" onmousedown="handlePan(0,1)">
                  <use xlink:href="#rim" fill="#404040">
                        <set attributeName="fill" to="#808080" begin="arrowDown.mouseover" end="arrowDown.mouseout"/>
                  </use>
                  <path fill="none" stroke="white" stroke-width="1.5" d="M0,-3.0v7 M-2.5,-0.5L0,-3.0L2.5,-0.5"/>
                </g>
                <g id="arrowLeft" xlink:href="#dirArrow" transform="rotate(270) translate(-36 17)" onmousedown="handlePan(-1,0)">
                  <use xlink:href="#rim" fill="#404040">
                        <set attributeName="fill" to="#808080" begin="arrowLeft.mouseover" end="arrowLeft.mouseout"/>
                  </use>
                  <path fill="none" stroke="white" stroke-width="1.5" d="M0,-3.0v7 M-2.5,-0.5L0,-3.0L2.5,-0.5"/>
                </g>
        </g>
        <svg viewBox="0 0 15 15" width="100%" height="30px" preserveAspectRatio="xMaxYMin meet">
         <g id="arrow_out" transform="scale(0.3 0.3)">
          <a xlink:href="_field_fill_patch_ops_8_h__dep__incl_org.svg" target="_base">
           <rect id="button" ry="5" rx="5" y="6" x="6" height="38" width="38"
                fill="#f2f5e9" fill-opacity="0.5" stroke="#606060" stroke-width="1.0"/>
           <path id="arrow"
             d="M 11.500037,31.436501 C 11.940474,20.09759 22.043105,11.32322 32.158766,21.979434 L 37.068811,17.246167 C 37.068811,17.246167 37.088388,32 37.088388,32 L 22.160133,31.978069 C 22.160133,31.978069 26.997745,27.140456 26.997745,27.140456 C 18.528582,18.264221 13.291696,25.230495 11.500037,31.436501 z"
             style="fill:#404040;"/>
          </a>
         </g>
        </svg>
</svg>
