<?xml version="1.0" encoding="UTF-8" standalone="no"?>
<!DOCTYPE svg PUBLIC "-//W3C//DTD SVG 1.1//EN"
 "http://www.w3.org/Graphics/SVG/1.1/DTD/svg11.dtd">
<!-- Generated by graphviz version 2.40.1 (20161225.0304)
 -->
<!-- Title: FieldRepo.H Pages: 1 -->
<svg width="3421pt" height="252pt"
 viewBox="0.00 0.00 3421.00 252.00" xmlns="http://www.w3.org/2000/svg" xmlns:xlink="http://www.w3.org/1999/xlink">
<g id="graph0" class="graph" transform="scale(1 1) rotate(0) translate(4 248)">
<title>FieldRepo.H</title>
<polygon fill="#ffffff" stroke="transparent" points="-4,4 -4,-248 3417,-248 3417,4 -4,4"/>
<!-- Node19 -->
<g id="node1" class="node">
<title>Node19</title>
<polygon fill="#bfbfbf" stroke="#000000" points="1628.5,-224.5 1628.5,-243.5 1699.5,-243.5 1699.5,-224.5 1628.5,-224.5"/>
<text text-anchor="middle" x="1664" y="-231.5" font-family="Helvetica,sans-Serif" font-size="10.00" fill="#000000">FieldRepo.H</text>
</g>
<!-- Node20 -->
<g id="node2" class="node">
<title>Node20</title>
<g id="a_node2"><a xlink:href="_b_c_interface_8cpp.html" target="_top" xlink:title="BCInterface.cpp">
<polygon fill="#ffffff" stroke="#000000" points="0,-112.5 0,-131.5 88,-131.5 88,-112.5 0,-112.5"/>
<text text-anchor="middle" x="44" y="-119.5" font-family="Helvetica,sans-Serif" font-size="10.00" fill="#000000">BCInterface.cpp</text>
</a>
</g>
</g>
<!-- Node19&#45;&gt;Node20 -->
<g id="edge1" class="edge">
<title>Node19&#45;&gt;Node20</title>
<path fill="none" stroke="#191970" d="M1618.1284,-233.6887C1367.3765,-231.8564 171.2024,-221.3876 101,-188 75.8425,-176.0353 57.4026,-147.1742 49.0202,-131.8862"/>
<polygon fill="#191970" stroke="#191970" points="1618.3172,-237.19 1628.3422,-233.7623 1618.3677,-230.1902 1618.3172,-237.19"/>
</g>
<!-- Node21 -->
<g id="node3" class="node">
<title>Node21</title>
<g id="a_node3"><a xlink:href="_fixed_gradient_b_c_8_h.html" target="_top" xlink:title="FixedGradientBC.H">
<polygon fill="#ffffff" stroke="#000000" points="110,-168.5 110,-187.5 212,-187.5 212,-168.5 110,-168.5"/>
<text text-anchor="middle" x="161" y="-175.5" font-family="Helvetica,sans-Serif" font-size="10.00" fill="#000000">FixedGradientBC.H</text>
</a>
</g>
</g>
<!-- Node19&#45;&gt;Node21 -->
<g id="edge2" class="edge">
<title>Node19&#45;&gt;Node21</title>
<path fill="none" stroke="#191970" d="M1618.3416,-232.8948C1447.5831,-228.6639 830.3277,-212.4939 322,-188 285.2158,-186.2275 243.7403,-183.6374 212.099,-181.5373"/>
<polygon fill="#191970" stroke="#191970" points="1618.3916,-236.397 1628.4749,-233.1448 1618.5643,-229.3992 1618.3916,-236.397"/>
</g>
<!-- Node23 -->
<g id="node5" class="node">
<title>Node23</title>
<g id="a_node5"><a xlink:href="_c_f_d_sim_8_h.html" target="_top" xlink:title="CFDSim.H">
<polygon fill="#ffffff" stroke="#ff0000" points="1014.5,-168.5 1014.5,-187.5 1079.5,-187.5 1079.5,-168.5 1014.5,-168.5"/>
<text text-anchor="middle" x="1047" y="-175.5" font-family="Helvetica,sans-Serif" font-size="10.00" fill="#000000">CFDSim.H</text>
</a>
</g>
</g>
<!-- Node19&#45;&gt;Node23 -->
<g id="edge5" class="edge">
<title>Node19&#45;&gt;Node23</title>
<path fill="none" stroke="#191970" d="M1618.424,-232.321C1521.4808,-228.3116 1287.832,-216.3208 1094,-188 1089.2948,-187.3125 1084.3548,-186.4354 1079.5179,-185.4872"/>
<polygon fill="#191970" stroke="#191970" points="1618.3345,-235.8201 1628.468,-232.7279 1618.6179,-228.8259 1618.3345,-235.8201"/>
</g>
<!-- Node24 -->
<g id="node6" class="node">
<title>Node24</title>
<g id="a_node6"><a xlink:href="incflo_8_h.html" target="_top" xlink:title="incflo.H">
<polygon fill="#ffffff" stroke="#ff0000" points="784,-112.5 784,-131.5 834,-131.5 834,-112.5 784,-112.5"/>
<text text-anchor="middle" x="809" y="-119.5" font-family="Helvetica,sans-Serif" font-size="10.00" fill="#000000">incflo.H</text>
</a>
</g>
</g>
<!-- Node19&#45;&gt;Node24 -->
<g id="edge28" class="edge">
<title>Node19&#45;&gt;Node24</title>
<path fill="none" stroke="#191970" d="M1618.0799,-232.3189C1488.6625,-227.3391 1122.73,-211.5281 1005,-188 940.0394,-175.0178 866.9085,-146.467 831.1254,-131.5313"/>
<polygon fill="#191970" stroke="#191970" points="1618.297,-235.8296 1628.4231,-232.7132 1618.5637,-228.8347 1618.297,-235.8296"/>
</g>
<!-- Node56 -->
<g id="node10" class="node">
<title>Node56</title>
<g id="a_node10"><a xlink:href="_a_b_l_mean_boussinesq_8_h.html" target="_top" xlink:title="ABLMeanBoussinesq.H">
<polygon fill="#ffffff" stroke="#ff0000" points="800.5,-56.5 800.5,-75.5 921.5,-75.5 921.5,-56.5 800.5,-56.5"/>
<text text-anchor="middle" x="861" y="-63.5" font-family="Helvetica,sans-Serif" font-size="10.00" fill="#000000">ABLMeanBoussinesq.H</text>
</a>
</g>
</g>
<!-- Node19&#45;&gt;Node56 -->
<g id="edge55" class="edge">
<title>Node19&#45;&gt;Node56</title>
<path fill="none" stroke="#191970" d="M1618.1041,-232.8267C1478.8352,-228.9979 1062.5033,-215.5008 930,-188 858.2813,-173.1149 817.0838,-191.9507 775,-132 757.2121,-106.6602 797.7944,-86.6342 829.0768,-75.5558"/>
<polygon fill="#191970" stroke="#191970" points="1618.3235,-236.3339 1628.4148,-233.1063 1618.5134,-229.3364 1618.3235,-236.3339"/>
</g>
<!-- Node95 -->
<g id="node21" class="node">
<title>Node95</title>
<g id="a_node21"><a xlink:href="_p_d_e_base_8cpp.html" target="_top" xlink:title="PDEBase.cpp">
<polygon fill="#ffffff" stroke="#000000" points="1880.5,-112.5 1880.5,-131.5 1959.5,-131.5 1959.5,-112.5 1880.5,-112.5"/>
<text text-anchor="middle" x="1920" y="-119.5" font-family="Helvetica,sans-Serif" font-size="10.00" fill="#000000">PDEBase.cpp</text>
</a>
</g>
</g>
<!-- Node19&#45;&gt;Node95 -->
<g id="edge59" class="edge">
<title>Node19&#45;&gt;Node95</title>
<path fill="none" stroke="#191970" d="M1617.9078,-233.4403C1502.8176,-231.2521 1215.5032,-220.5245 1265,-168 1311.26,-118.9104 1804.12,-140.7659 1871,-132 1874.013,-131.6051 1877.1181,-131.1312 1880.2337,-130.6074"/>
<polygon fill="#191970" stroke="#191970" points="1618.1074,-236.9443 1628.1676,-233.6213 1618.231,-229.9454 1618.1074,-236.9443"/>
</g>
<!-- Node100 -->
<g id="node22" class="node">
<title>Node100</title>
<g id="a_node22"><a xlink:href="_tioga_interface_8cpp.html" target="_top" xlink:title="TiogaInterface.cpp">
<polygon fill="#ffffff" stroke="#000000" points="1680,-112.5 1680,-131.5 1778,-131.5 1778,-112.5 1680,-112.5"/>
<text text-anchor="middle" x="1729" y="-119.5" font-family="Helvetica,sans-Serif" font-size="10.00" fill="#000000">TiogaInterface.cpp</text>
</a>
</g>
</g>
<!-- Node19&#45;&gt;Node100 -->
<g id="edge64" class="edge">
<title>Node19&#45;&gt;Node100</title>
<path fill="none" stroke="#191970" d="M1617.8049,-233.5338C1493.6487,-231.8039 1159.8949,-223.8332 1127,-188 1120.9888,-181.4519 1120.9277,-174.4915 1127,-168 1168.0036,-124.1664 1606.3541,-138.7117 1666,-132 1670.512,-131.4923 1675.1948,-130.8907 1679.8778,-130.2383"/>
<polygon fill="#191970" stroke="#191970" points="1618.0687,-237.0374 1628.114,-233.6696 1618.161,-230.0381 1618.0687,-237.0374"/>
</g>
<!-- Node137 -->
<g id="node23" class="node">
<title>Node137</title>
<g id="a_node23"><a xlink:href="velocity__bcs_8_h.html" target="_top" xlink:title="velocity_bcs.H">
<polygon fill="#ffffff" stroke="#ff0000" points="1274,-168.5 1274,-187.5 1356,-187.5 1356,-168.5 1274,-168.5"/>
<text text-anchor="middle" x="1315" y="-175.5" font-family="Helvetica,sans-Serif" font-size="10.00" fill="#000000">velocity_bcs.H</text>
</a>
</g>
</g>
<!-- Node19&#45;&gt;Node137 -->
<g id="edge29" class="edge">
<title>Node19&#45;&gt;Node137</title>
<path fill="none" stroke="#191970" d="M1618.4136,-227.634C1559.6939,-219.2856 1454.5273,-203.8313 1365,-188 1362.1233,-187.4913 1359.1574,-186.9476 1356.1732,-186.3863"/>
<polygon fill="#191970" stroke="#191970" points="1618.0826,-231.122 1628.4747,-229.0594 1619.0646,-224.1912 1618.0826,-231.122"/>
</g>
<!-- Node138 -->
<g id="node24" class="node">
<title>Node138</title>
<g id="a_node24"><a xlink:href="_godunov_8_h.html" target="_top" xlink:title="Godunov.H">
<polygon fill="#ffffff" stroke="#ff0000" points="1374,-168.5 1374,-187.5 1440,-187.5 1440,-168.5 1374,-168.5"/>
<text text-anchor="middle" x="1407" y="-175.5" font-family="Helvetica,sans-Serif" font-size="10.00" fill="#000000">Godunov.H</text>
</a>
</g>
</g>
<!-- Node19&#45;&gt;Node138 -->
<g id="edge30" class="edge">
<title>Node19&#45;&gt;Node138</title>
<path fill="none" stroke="#191970" d="M1618.4124,-224.432C1575.0546,-215.2773 1508.0214,-200.9817 1450,-188 1446.8586,-187.2971 1443.5905,-186.5557 1440.322,-185.8074"/>
<polygon fill="#191970" stroke="#191970" points="1617.8599,-227.8924 1628.3669,-226.5313 1619.3044,-221.0431 1617.8599,-227.8924"/>
</g>
<!-- Node144 -->
<g id="node25" class="node">
<title>Node144</title>
<g id="a_node25"><a xlink:href="mac__projection_8_h.html" target="_top" xlink:title="mac_projection.H">
<polygon fill="#ffffff" stroke="#ff0000" points="1458.5,-168.5 1458.5,-187.5 1551.5,-187.5 1551.5,-168.5 1458.5,-168.5"/>
<text text-anchor="middle" x="1505" y="-175.5" font-family="Helvetica,sans-Serif" font-size="10.00" fill="#000000">mac_projection.H</text>
</a>
</g>
</g>
<!-- Node19&#45;&gt;Node144 -->
<g id="edge31" class="edge">
<title>Node19&#45;&gt;Node144</title>
<path fill="none" stroke="#191970" d="M1626.871,-220.9231C1597.805,-210.686 1558.0631,-196.6889 1531.9764,-187.5011"/>
<polygon fill="#191970" stroke="#191970" points="1626.0721,-224.3524 1636.6669,-224.3733 1628.3975,-217.75 1626.0721,-224.3524"/>
</g>
<!-- Node146 -->
<g id="node26" class="node">
<title>Node146</title>
<g id="a_node26"><a xlink:href="_m_o_l_8_h.html" target="_top" xlink:title="MOL.H">
<polygon fill="#ffffff" stroke="#ff0000" points="1570,-168.5 1570,-187.5 1618,-187.5 1618,-168.5 1570,-168.5"/>
<text text-anchor="middle" x="1594" y="-175.5" font-family="Helvetica,sans-Serif" font-size="10.00" fill="#000000">MOL.H</text>
</a>
</g>
</g>
<!-- Node19&#45;&gt;Node146 -->
<g id="edge32" class="edge">
<title>Node19&#45;&gt;Node146</title>
<path fill="none" stroke="#191970" d="M1643.91,-217.928C1631.6747,-208.1397 1616.4493,-195.9595 1606.0533,-187.6427"/>
<polygon fill="#191970" stroke="#191970" points="1641.8118,-220.7316 1651.8069,-224.2455 1646.1847,-215.2655 1641.8118,-220.7316"/>
</g>
<!-- Node149 -->
<g id="node27" class="node">
<title>Node149</title>
<g id="a_node27"><a xlink:href="_field_8cpp.html" target="_top" xlink:title="Field.cpp">
<polygon fill="#ffffff" stroke="#000000" points="1636,-168.5 1636,-187.5 1692,-187.5 1692,-168.5 1636,-168.5"/>
<text text-anchor="middle" x="1664" y="-175.5" font-family="Helvetica,sans-Serif" font-size="10.00" fill="#000000">Field.cpp</text>
</a>
</g>
</g>
<!-- Node19&#45;&gt;Node149 -->
<g id="edge33" class="edge">
<title>Node19&#45;&gt;Node149</title>
<path fill="none" stroke="#191970" d="M1664,-214.1575C1664,-205.155 1664,-194.9199 1664,-187.6427"/>
<polygon fill="#191970" stroke="#191970" points="1660.5001,-214.2455 1664,-224.2455 1667.5001,-214.2456 1660.5001,-214.2455"/>
</g>
<!-- Node150 -->
<g id="node28" class="node">
<title>Node150</title>
<g id="a_node28"><a xlink:href="_field_repo_8cpp.html" target="_top" xlink:title="FieldRepo.cpp">
<polygon fill="#ffffff" stroke="#000000" points="1710,-168.5 1710,-187.5 1790,-187.5 1790,-168.5 1710,-168.5"/>
<text text-anchor="middle" x="1750" y="-175.5" font-family="Helvetica,sans-Serif" font-size="10.00" fill="#000000">FieldRepo.cpp</text>
</a>
</g>
</g>
<!-- Node19&#45;&gt;Node150 -->
<g id="edge34" class="edge">
<title>Node19&#45;&gt;Node150</title>
<path fill="none" stroke="#191970" d="M1687.3905,-218.769C1702.6299,-208.8456 1722.0509,-196.1994 1735.1916,-187.6427"/>
<polygon fill="#191970" stroke="#191970" points="1685.4502,-215.8558 1678.9801,-224.2455 1689.2699,-221.7218 1685.4502,-215.8558"/>
</g>
<!-- Node151 -->
<g id="node29" class="node">
<title>Node151</title>
<g id="a_node29"><a xlink:href="_int_field_8cpp.html" target="_top" xlink:title="IntField.cpp">
<polygon fill="#ffffff" stroke="#000000" points="1808,-168.5 1808,-187.5 1876,-187.5 1876,-168.5 1808,-168.5"/>
<text text-anchor="middle" x="1842" y="-175.5" font-family="Helvetica,sans-Serif" font-size="10.00" fill="#000000">IntField.cpp</text>
</a>
</g>
</g>
<!-- Node19&#45;&gt;Node151 -->
<g id="edge35" class="edge">
<title>Node19&#45;&gt;Node151</title>
<path fill="none" stroke="#191970" d="M1704.2931,-221.3235C1736.9368,-211.0536 1782.2134,-196.8093 1811.8,-187.5011"/>
<polygon fill="#191970" stroke="#191970" points="1703.088,-218.0335 1694.5993,-224.3733 1705.1887,-224.7108 1703.088,-218.0335"/>
</g>
<!-- Node152 -->
<g id="node30" class="node">
<title>Node152</title>
<g id="a_node30"><a xlink:href="_scratch_field_8cpp.html" target="_top" xlink:title="ScratchField.cpp">
<polygon fill="#ffffff" stroke="#000000" points="1894,-168.5 1894,-187.5 1984,-187.5 1984,-168.5 1894,-168.5"/>
<text text-anchor="middle" x="1939" y="-175.5" font-family="Helvetica,sans-Serif" font-size="10.00" fill="#000000">ScratchField.cpp</text>
</a>
</g>
</g>
<!-- Node19&#45;&gt;Node152 -->
<g id="edge36" class="edge">
<title>Node19&#45;&gt;Node152</title>
<path fill="none" stroke="#191970" d="M1709.7629,-224.681C1760.8364,-214.2806 1842.9627,-197.5567 1893.8047,-187.2034"/>
<polygon fill="#191970" stroke="#191970" points="1708.77,-221.3113 1699.6695,-226.7364 1710.1668,-228.1705 1708.77,-221.3113"/>
</g>
<!-- Node153 -->
<g id="node31" class="node">
<title>Node153</title>
<g id="a_node31"><a xlink:href="_view_field_8cpp.html" target="_top" xlink:title="ViewField.cpp">
<polygon fill="#ffffff" stroke="#000000" points="2002,-168.5 2002,-187.5 2080,-187.5 2080,-168.5 2002,-168.5"/>
<text text-anchor="middle" x="2041" y="-175.5" font-family="Helvetica,sans-Serif" font-size="10.00" fill="#000000">ViewField.cpp</text>
</a>
</g>
</g>
<!-- Node19&#45;&gt;Node153 -->
<g id="edge37" class="edge">
<title>Node19&#45;&gt;Node153</title>
<path fill="none" stroke="#191970" d="M1709.7727,-228.5761C1773.4652,-220.807 1892.3479,-205.5011 1993,-188 1995.8514,-187.5042 1998.7921,-186.9637 2001.748,-186.3992"/>
<polygon fill="#191970" stroke="#191970" points="1709.1669,-225.1239 1699.6612,-229.8027 1710.0099,-232.0729 1709.1669,-225.1239"/>
</g>
<!-- Node154 -->
<g id="node32" class="node">
<title>Node154</title>
<g id="a_node32"><a xlink:href="field__algebra_8cpp.html" target="_top" xlink:title="field_algebra.cpp">
<polygon fill="#ffffff" stroke="#000000" points="2098,-168.5 2098,-187.5 2188,-187.5 2188,-168.5 2098,-168.5"/>
<text text-anchor="middle" x="2143" y="-175.5" font-family="Helvetica,sans-Serif" font-size="10.00" fill="#000000">field_algebra.cpp</text>
</a>
</g>
</g>
<!-- Node19&#45;&gt;Node154 -->
<g id="edge38" class="edge">
<title>Node19&#45;&gt;Node154</title>
<path fill="none" stroke="#191970" d="M1709.6303,-230.1971C1787.6112,-223.4444 1951.4336,-208.1532 2089,-188 2091.9244,-187.5716 2094.9325,-187.1003 2097.9609,-186.6028"/>
<polygon fill="#191970" stroke="#191970" points="1709.3194,-226.7108 1699.656,-231.0547 1709.9191,-233.6851 1709.3194,-226.7108"/>
</g>
<!-- Node155 -->
<g id="node33" class="node">
<title>Node155</title>
<g id="a_node33"><a xlink:href="diffusion_8_h.html" target="_top" xlink:title="diffusion.H">
<polygon fill="#ffffff" stroke="#ff0000" points="2206,-168.5 2206,-187.5 2270,-187.5 2270,-168.5 2206,-168.5"/>
<text text-anchor="middle" x="2238" y="-175.5" font-family="Helvetica,sans-Serif" font-size="10.00" fill="#000000">diffusion.H</text>
</a>
</g>
</g>
<!-- Node19&#45;&gt;Node155 -->
<g id="edge39" class="edge">
<title>Node19&#45;&gt;Node155</title>
<path fill="none" stroke="#191970" d="M1709.9443,-232.4044C1802.605,-228.666 2018.2907,-217.3282 2197,-188 2199.892,-187.5254 2202.8812,-186.955 2205.8667,-186.3302"/>
<polygon fill="#191970" stroke="#191970" points="1709.6432,-228.9135 1699.7883,-232.8034 1709.918,-235.9081 1709.6432,-228.9135"/>
</g>
<!-- Node156 -->
<g id="node34" class="node">
<title>Node156</title>
<g id="a_node34"><a xlink:href="_source_term_8_h.html" target="_top" xlink:title="SourceTerm.H">
<polygon fill="#ffffff" stroke="#ff0000" points="2288,-168.5 2288,-187.5 2368,-187.5 2368,-168.5 2288,-168.5"/>
<text text-anchor="middle" x="2328" y="-175.5" font-family="Helvetica,sans-Serif" font-size="10.00" fill="#000000">SourceTerm.H</text>
</a>
</g>
</g>
<!-- Node19&#45;&gt;Node156 -->
<g id="edge40" class="edge">
<title>Node19&#45;&gt;Node156</title>
<path fill="none" stroke="#191970" d="M1709.8192,-232.5573C1812.2676,-228.8982 2067.4891,-217.3725 2279,-188 2281.9239,-187.594 2284.9355,-187.1194 2287.9599,-186.6016"/>
<polygon fill="#191970" stroke="#191970" points="1709.3969,-229.0698 1699.5252,-232.9167 1709.6412,-236.0656 1709.3969,-229.0698"/>
</g>
<!-- Node158 -->
<g id="node35" class="node">
<title>Node158</title>
<g id="a_node35"><a xlink:href="_p_d_e_helpers_8_h.html" target="_top" xlink:title="PDEHelpers.H">
<polygon fill="#ffffff" stroke="#ff0000" points="1136,-168.5 1136,-187.5 1218,-187.5 1218,-168.5 1136,-168.5"/>
<text text-anchor="middle" x="1177" y="-175.5" font-family="Helvetica,sans-Serif" font-size="10.00" fill="#000000">PDEHelpers.H</text>
</a>
</g>
</g>
<!-- Node19&#45;&gt;Node158 -->
<g id="edge41" class="edge">
<title>Node19&#45;&gt;Node158</title>
<path fill="none" stroke="#191970" d="M1618.2291,-230.2442C1539.2168,-223.5114 1372.2141,-208.1838 1232,-188 1227.4851,-187.3501 1222.7742,-186.6017 1218.0913,-185.813"/>
<polygon fill="#191970" stroke="#191970" points="1618.0695,-233.7432 1628.329,-231.0988 1618.6598,-226.7681 1618.0695,-233.7432"/>
</g>
<!-- Node159 -->
<g id="node36" class="node">
<title>Node159</title>
<g id="a_node36"><a xlink:href="_density_source_8_h.html" target="_top" xlink:title="DensitySource.H">
<polygon fill="#ffffff" stroke="#ff0000" points="2386,-168.5 2386,-187.5 2478,-187.5 2478,-168.5 2386,-168.5"/>
<text text-anchor="middle" x="2432" y="-175.5" font-family="Helvetica,sans-Serif" font-size="10.00" fill="#000000">DensitySource.H</text>
</a>
</g>
</g>
<!-- Node19&#45;&gt;Node159 -->
<g id="edge44" class="edge">
<title>Node19&#45;&gt;Node159</title>
<path fill="none" stroke="#191970" d="M1709.8106,-232.8767C1823.2678,-229.697 2126.2794,-218.7763 2377,-188 2379.8899,-187.6453 2382.8577,-187.2363 2385.8456,-186.7908"/>
<polygon fill="#191970" stroke="#191970" points="1709.6468,-229.3798 1699.7463,-233.1522 1709.8384,-236.3771 1709.6468,-229.3798"/>
</g>
<!-- Node160 -->
<g id="node37" class="node">
<title>Node160</title>
<g id="a_node37"><a xlink:href="_momentum_source_8_h.html" target="_top" xlink:title="MomentumSource.H">
<polygon fill="#ffffff" stroke="#ff0000" points="477.5,-168.5 477.5,-187.5 584.5,-187.5 584.5,-168.5 477.5,-168.5"/>
<text text-anchor="middle" x="531" y="-175.5" font-family="Helvetica,sans-Serif" font-size="10.00" fill="#000000">MomentumSource.H</text>
</a>
</g>
</g>
<!-- Node19&#45;&gt;Node160 -->
<g id="edge45" class="edge">
<title>Node19&#45;&gt;Node160</title>
<path fill="none" stroke="#191970" d="M1617.9783,-233.3718C1470.789,-231.0678 998.3754,-221.3894 609,-188 601.1105,-187.3235 592.7921,-186.4402 584.6442,-185.4786"/>
<polygon fill="#191970" stroke="#191970" points="1618.3588,-236.8779 1628.4112,-233.5312 1618.4658,-229.8787 1618.3588,-236.8779"/>
</g>
<!-- Node163 -->
<g id="node38" class="node">
<title>Node163</title>
<g id="a_node38"><a xlink:href="_boussinesq_buoyancy_8_h.html" target="_top" xlink:title="BoussinesqBuoyancy.H">
<polygon fill="#ffffff" stroke="#000000" points="234,-112.5 234,-131.5 356,-131.5 356,-112.5 234,-112.5"/>
<text text-anchor="middle" x="295" y="-119.5" font-family="Helvetica,sans-Serif" font-size="10.00" fill="#000000">BoussinesqBuoyancy.H</text>
</a>
</g>
</g>
<!-- Node19&#45;&gt;Node163 -->
<g id="edge56" class="edge">
<title>Node19&#45;&gt;Node163</title>
<path fill="none" stroke="#191970" d="M1617.898,-233.3083C1409.1832,-230.0359 557.9444,-215.125 442,-188 391.6067,-176.2106 337.2794,-146.9932 311.0209,-131.6936"/>
<polygon fill="#191970" stroke="#191970" points="1618.1416,-236.8124 1628.1948,-233.4685 1618.2505,-229.8133 1618.1416,-236.8124"/>
</g>
<!-- Node164 -->
<g id="node39" class="node">
<title>Node164</title>
<g id="a_node39"><a xlink:href="_coriolis_forcing_8_h.html" target="_top" xlink:title="CoriolisForcing.H">
<polygon fill="#ffffff" stroke="#000000" points="476,-112.5 476,-131.5 568,-131.5 568,-112.5 476,-112.5"/>
<text text-anchor="middle" x="522" y="-119.5" font-family="Helvetica,sans-Serif" font-size="10.00" fill="#000000">CoriolisForcing.H</text>
</a>
</g>
</g>
<!-- Node19&#45;&gt;Node164 -->
<g id="edge57" class="edge">
<title>Node19&#45;&gt;Node164</title>
<path fill="none" stroke="#191970" d="M1618.1011,-233.7272C1450.9964,-232.4377 875.5062,-225.3258 696,-188 637.4811,-175.8318 572.6719,-146.7831 541.2243,-131.6062"/>
<polygon fill="#191970" stroke="#191970" points="1618.2554,-237.2283 1628.281,-233.8024 1618.3072,-230.2285 1618.2554,-237.2283"/>
</g>
<!-- Node165 -->
<g id="node40" class="node">
<title>Node165</title>
<g id="a_node40"><a xlink:href="_density_buoyancy_8_h.html" target="_top" xlink:title="DensityBuoyancy.H">
<polygon fill="#ffffff" stroke="#000000" points="586,-112.5 586,-131.5 690,-131.5 690,-112.5 586,-112.5"/>
<text text-anchor="middle" x="638" y="-119.5" font-family="Helvetica,sans-Serif" font-size="10.00" fill="#000000">DensityBuoyancy.H</text>
</a>
</g>
</g>
<!-- Node19&#45;&gt;Node165 -->
<g id="edge58" class="edge">
<title>Node19&#45;&gt;Node165</title>
<path fill="none" stroke="#191970" d="M1618.2649,-233.0864C1443.8179,-229.4148 825.8236,-214.6355 742,-188 704.2964,-176.0194 666.7741,-146.8872 648.8612,-131.6495"/>
<polygon fill="#191970" stroke="#191970" points="1618.3215,-236.5882 1628.3923,-233.2975 1618.4675,-229.5897 1618.3215,-236.5882"/>
</g>
<!-- Node167 -->
<g id="node41" class="node">
<title>Node167</title>
<g id="a_node41"><a xlink:href="_m_m_s_forcing_8_h.html" target="_top" xlink:title="MMSForcing.H">
<polygon fill="#ffffff" stroke="#ff0000" points="374.5,-112.5 374.5,-131.5 457.5,-131.5 457.5,-112.5 374.5,-112.5"/>
<text text-anchor="middle" x="416" y="-119.5" font-family="Helvetica,sans-Serif" font-size="10.00" fill="#000000">MMSForcing.H</text>
</a>
</g>
</g>
<!-- Node19&#45;&gt;Node167 -->
<g id="edge63" class="edge">
<title>Node19&#45;&gt;Node167</title>
<path fill="none" stroke="#191970" d="M1618.1392,-233.3097C1405.0866,-229.9665 520.0965,-214.5266 468,-188 444.0812,-175.821 427.6824,-147.0536 420.3501,-131.8353"/>
<polygon fill="#191970" stroke="#191970" points="1618.2943,-236.8124 1628.3476,-233.4686 1618.4034,-229.8133 1618.2943,-236.8124"/>
</g>
<!-- Node168 -->
<g id="node42" class="node">
<title>Node168</title>
<g id="a_node42"><a xlink:href="fvm__utils_8_h.html" target="_top" xlink:title="fvm_utils.H">
<polygon fill="#ffffff" stroke="#ff0000" points="2496.5,-168.5 2496.5,-187.5 2563.5,-187.5 2563.5,-168.5 2496.5,-168.5"/>
<text text-anchor="middle" x="2530" y="-175.5" font-family="Helvetica,sans-Serif" font-size="10.00" fill="#000000">fvm_utils.H</text>
</a>
</g>
</g>
<!-- Node19&#45;&gt;Node168 -->
<g id="edge54" class="edge">
<title>Node19&#45;&gt;Node168</title>
<path fill="none" stroke="#191970" d="M1710.1975,-232.4694C1860.5851,-227.3216 2335.1707,-209.7315 2487,-188 2490.0349,-187.5656 2493.1711,-187.0228 2496.303,-186.4161"/>
<polygon fill="#191970" stroke="#191970" points="1709.8139,-228.9803 1699.9387,-232.8184 1710.052,-235.9763 1709.8139,-228.9803"/>
</g>
<!-- Node177 -->
<g id="node43" class="node">
<title>Node177</title>
<g id="a_node43"><a xlink:href="_s_d_r_source_8_h.html" target="_top" xlink:title="SDRSource.H">
<polygon fill="#ffffff" stroke="#ff0000" points="2582,-168.5 2582,-187.5 2662,-187.5 2662,-168.5 2582,-168.5"/>
<text text-anchor="middle" x="2622" y="-175.5" font-family="Helvetica,sans-Serif" font-size="10.00" fill="#000000">SDRSource.H</text>
</a>
</g>
</g>
<!-- Node19&#45;&gt;Node177 -->
<g id="edge60" class="edge">
<title>Node19&#45;&gt;Node177</title>
<path fill="none" stroke="#191970" d="M1710.0694,-232.5888C1870.381,-227.5342 2403.2846,-209.4876 2573,-188 2575.9286,-187.6292 2578.9436,-187.1805 2581.9704,-186.6812"/>
<polygon fill="#191970" stroke="#191970" points="1709.5033,-229.1047 1699.618,-232.9165 1709.7228,-236.1013 1709.5033,-229.1047"/>
</g>
<!-- Node178 -->
<g id="node44" class="node">
<title>Node178</title>
<g id="a_node44"><a xlink:href="_temperature_source_8_h.html" target="_top" xlink:title="TemperatureSource.H">
<polygon fill="#ffffff" stroke="#ff0000" points="2680.5,-168.5 2680.5,-187.5 2793.5,-187.5 2793.5,-168.5 2680.5,-168.5"/>
<text text-anchor="middle" x="2737" y="-175.5" font-family="Helvetica,sans-Serif" font-size="10.00" fill="#000000">TemperatureSource.H</text>
</a>
</g>
</g>
<!-- Node19&#45;&gt;Node178 -->
<g id="edge61" class="edge">
<title>Node19&#45;&gt;Node178</title>
<path fill="none" stroke="#191970" d="M1709.9105,-233.6122C1852.6796,-232.0402 2301.4313,-224.3378 2671,-188 2673.9987,-187.7052 2677.0691,-187.367 2680.1657,-186.9975"/>
<polygon fill="#191970" stroke="#191970" points="1709.7355,-230.1137 1699.773,-233.719 1709.8094,-237.1133 1709.7355,-230.1137"/>
</g>
<!-- Node179 -->
<g id="node45" class="node">
<title>Node179</title>
<g id="a_node45"><a xlink:href="_t_k_e_source_8_h.html" target="_top" xlink:title="TKESource.H">
<polygon fill="#ffffff" stroke="#ff0000" points="2811.5,-168.5 2811.5,-187.5 2888.5,-187.5 2888.5,-168.5 2811.5,-168.5"/>
<text text-anchor="middle" x="2850" y="-175.5" font-family="Helvetica,sans-Serif" font-size="10.00" fill="#000000">TKESource.H</text>
</a>
</g>
</g>
<!-- Node19&#45;&gt;Node179 -->
<g id="edge62" class="edge">
<title>Node19&#45;&gt;Node179</title>
<path fill="none" stroke="#191970" d="M1709.6732,-233.1884C1894.3048,-229.7478 2585.9404,-215.2751 2803,-188 2805.7315,-187.6568 2808.5398,-187.2359 2811.3596,-186.763"/>
<polygon fill="#191970" stroke="#191970" points="1709.4346,-229.6921 1699.501,-233.3763 1709.564,-236.6909 1709.4346,-229.6921"/>
</g>
<!-- Node182 -->
<g id="node46" class="node">
<title>Node182</title>
<g id="a_node46"><a xlink:href="_linear_profile_8cpp.html" target="_top" xlink:title="LinearProfile.cpp">
<polygon fill="#ffffff" stroke="#000000" points="2906.5,-168.5 2906.5,-187.5 2995.5,-187.5 2995.5,-168.5 2906.5,-168.5"/>
<text text-anchor="middle" x="2951" y="-175.5" font-family="Helvetica,sans-Serif" font-size="10.00" fill="#000000">LinearProfile.cpp</text>
</a>
</g>
</g>
<!-- Node19&#45;&gt;Node182 -->
<g id="edge65" class="edge">
<title>Node19&#45;&gt;Node182</title>
<path fill="none" stroke="#191970" d="M1709.7874,-232.6989C1918.9306,-226.7007 2778.3841,-201.4379 2898,-188 2900.6985,-187.6968 2903.4658,-187.334 2906.2516,-186.929"/>
<polygon fill="#191970" stroke="#191970" points="1709.6536,-229.2012 1699.7579,-232.986 1709.854,-236.1983 1709.6536,-229.2012"/>
</g>
<!-- Node81 -->
<g id="node47" class="node">
<title>Node81</title>
<g id="a_node47"><a xlink:href="_power_law_profile_8cpp.html" target="_top" xlink:title="PowerLawProfile.cpp">
<polygon fill="#ffffff" stroke="#000000" points="3013.5,-168.5 3013.5,-187.5 3122.5,-187.5 3122.5,-168.5 3013.5,-168.5"/>
<text text-anchor="middle" x="3068" y="-175.5" font-family="Helvetica,sans-Serif" font-size="10.00" fill="#000000">PowerLawProfile.cpp</text>
</a>
</g>
</g>
<!-- Node19&#45;&gt;Node81 -->
<g id="edge66" class="edge">
<title>Node19&#45;&gt;Node81</title>
<path fill="none" stroke="#191970" d="M1709.8365,-233.1868C1914.4266,-229.4403 2745.4592,-212.9543 3005,-188 3007.7559,-187.735 3010.5744,-187.4264 3013.4169,-187.0853"/>
<polygon fill="#191970" stroke="#191970" points="1709.674,-229.6891 1699.7394,-233.3706 1709.8015,-236.6879 1709.674,-229.6891"/>
</g>
<!-- Node183 -->
<g id="node48" class="node">
<title>Node183</title>
<g id="a_node48"><a xlink:href="_u_d_f_8cpp.html" target="_top" xlink:title="UDF.cpp">
<polygon fill="#ffffff" stroke="#000000" points="3141,-168.5 3141,-187.5 3197,-187.5 3197,-168.5 3141,-168.5"/>
<text text-anchor="middle" x="3169" y="-175.5" font-family="Helvetica,sans-Serif" font-size="10.00" fill="#000000">UDF.cpp</text>
</a>
</g>
</g>
<!-- Node19&#45;&gt;Node183 -->
<g id="edge67" class="edge">
<title>Node19&#45;&gt;Node183</title>
<path fill="none" stroke="#191970" d="M1709.9424,-233.1965C1942.9615,-229.036 2988.7075,-209.3114 3132,-188 3134.8959,-187.5693 3137.8894,-186.9912 3140.8614,-186.3292"/>
<polygon fill="#191970" stroke="#191970" points="1709.7166,-229.6999 1699.7805,-233.3773 1709.8412,-236.6988 1709.7166,-229.6999"/>
</g>
<!-- Node184 -->
<g id="node49" class="node">
<title>Node184</title>
<g id="a_node49"><a xlink:href="_transport_model_8_h.html" target="_top" xlink:title="TransportModel.H">
<polygon fill="#ffffff" stroke="#ff0000" points="3215.5,-168.5 3215.5,-187.5 3310.5,-187.5 3310.5,-168.5 3215.5,-168.5"/>
<text text-anchor="middle" x="3263" y="-175.5" font-family="Helvetica,sans-Serif" font-size="10.00" fill="#000000">TransportModel.H</text>
</a>
</g>
</g>
<!-- Node19&#45;&gt;Node184 -->
<g id="edge68" class="edge">
<title>Node19&#45;&gt;Node184</title>
<path fill="none" stroke="#191970" d="M1709.6871,-233.5246C1932.2876,-231.0726 2904.7069,-218.7619 3206,-188 3209.0985,-187.6836 3212.2823,-187.2973 3215.4855,-186.8625"/>
<polygon fill="#191970" stroke="#191970" points="1709.6208,-230.025 1699.6596,-233.6339 1709.6972,-237.0246 1709.6208,-230.025"/>
</g>
<!-- Node118 -->
<g id="node50" class="node">
<title>Node118</title>
<g id="a_node50"><a xlink:href="_smagorinsky_8_h.html" target="_top" xlink:title="Smagorinsky.H">
<polygon fill="#ffffff" stroke="#ff0000" points="3329,-168.5 3329,-187.5 3413,-187.5 3413,-168.5 3329,-168.5"/>
<text text-anchor="middle" x="3371" y="-175.5" font-family="Helvetica,sans-Serif" font-size="10.00" fill="#000000">Smagorinsky.H</text>
</a>
</g>
</g>
<!-- Node19&#45;&gt;Node118 -->
<g id="edge69" class="edge">
<title>Node19&#45;&gt;Node118</title>
<path fill="none" stroke="#191970" d="M1709.6554,-233.7559C1942.0477,-232.3574 2995.192,-224.1026 3320,-188 3322.8696,-187.681 3325.8187,-187.2856 3328.7826,-186.8377"/>
<polygon fill="#191970" stroke="#191970" points="1709.5067,-230.2566 1699.5275,-233.8156 1709.548,-237.2565 1709.5067,-230.2566"/>
</g>
<!-- Node21&#45;&gt;Node20 -->
<g id="edge3" class="edge">
<title>Node21&#45;&gt;Node20</title>
<path fill="none" stroke="#191970" d="M131.6958,-163.9741C110.512,-153.8348 82.4597,-140.408 63.8506,-131.5011"/>
<polygon fill="#191970" stroke="#191970" points="130.3559,-167.2129 140.887,-168.3733 133.378,-160.8989 130.3559,-167.2129"/>
</g>
<!-- Node22 -->
<g id="node4" class="node">
<title>Node22</title>
<g id="a_node4"><a xlink:href="_fixed_gradient_b_c_8cpp.html" target="_top" xlink:title="FixedGradientBC.cpp">
<polygon fill="#ffffff" stroke="#000000" points="106,-112.5 106,-131.5 216,-131.5 216,-112.5 106,-112.5"/>
<text text-anchor="middle" x="161" y="-119.5" font-family="Helvetica,sans-Serif" font-size="10.00" fill="#000000">FixedGradientBC.cpp</text>
</a>
</g>
</g>
<!-- Node21&#45;&gt;Node22 -->
<g id="edge4" class="edge">
<title>Node21&#45;&gt;Node22</title>
<path fill="none" stroke="#191970" d="M161,-158.1575C161,-149.155 161,-138.9199 161,-131.6427"/>
<polygon fill="#191970" stroke="#191970" points="157.5001,-158.2455 161,-168.2455 164.5001,-158.2456 157.5001,-158.2455"/>
</g>
<!-- Node23&#45;&gt;Node24 -->
<g id="edge6" class="edge">
<title>Node23&#45;&gt;Node24</title>
<path fill="none" stroke="#191970" d="M1004.4294,-168.4682C964.0888,-159.3627 901.8323,-145.1214 848,-132 843.5179,-130.9075 838.7547,-129.7137 834.1532,-128.5433"/>
<polygon fill="#191970" stroke="#191970" points="1003.67,-171.8848 1014.1948,-170.6687 1005.2088,-165.056 1003.67,-171.8848"/>
</g>
<!-- Node43 -->
<g id="node7" class="node">
<title>Node43</title>
<g id="a_node7"><a xlink:href="_a_b_l_wall_function_8_h.html" target="_top" xlink:title="ABLWallFunction.H">
<polygon fill="#ffffff" stroke="#ff0000" points="1310.5,-56.5 1310.5,-75.5 1413.5,-75.5 1413.5,-56.5 1310.5,-56.5"/>
<text text-anchor="middle" x="1362" y="-63.5" font-family="Helvetica,sans-Serif" font-size="10.00" fill="#000000">ABLWallFunction.H</text>
</a>
</g>
</g>
<!-- Node23&#45;&gt;Node43 -->
<g id="edge7" class="edge">
<title>Node23&#45;&gt;Node43</title>
<path fill="none" stroke="#191970" d="M1089.6447,-172.0731C1177.8917,-159.7963 1372.4204,-132.6672 1373,-132 1386.7135,-116.2156 1375.7042,-89.9986 1367.9587,-75.8234"/>
<polygon fill="#191970" stroke="#191970" points="1089.1035,-168.6145 1079.6811,-173.4589 1090.0679,-175.5478 1089.1035,-168.6145"/>
</g>
<!-- Node48 -->
<g id="node8" class="node">
<title>Node48</title>
<g id="a_node8"><a xlink:href="_a_b_l_stats_8_h.html" target="_top" xlink:title="ABLStats.H">
<polygon fill="#ffffff" stroke="#ff0000" points="1247.5,-.5 1247.5,-19.5 1316.5,-19.5 1316.5,-.5 1247.5,-.5"/>
<text text-anchor="middle" x="1282" y="-7.5" font-family="Helvetica,sans-Serif" font-size="10.00" fill="#000000">ABLStats.H</text>
</a>
</g>
</g>
<!-- Node23&#45;&gt;Node48 -->
<g id="edge15" class="edge">
<title>Node23&#45;&gt;Node48</title>
<path fill="none" stroke="#191970" d="M1089.9067,-173.0523C1122.6763,-167.5053 1167.572,-155.9199 1200,-132 1241.6911,-101.2473 1268.8243,-42.5529 1278.2721,-19.5679"/>
<polygon fill="#191970" stroke="#191970" points="1089.0615,-169.642 1079.7245,-174.649 1090.1461,-176.5574 1089.0615,-169.642"/>
</g>
<!-- Node51 -->
<g id="node9" class="node">
<title>Node51</title>
<g id="a_node9"><a xlink:href="_field_plane_averaging_8_h.html" target="_top" xlink:title="FieldPlaneAveraging.H">
<polygon fill="#ffffff" stroke="#ff0000" points="1248,-112.5 1248,-131.5 1364,-131.5 1364,-112.5 1248,-112.5"/>
<text text-anchor="middle" x="1306" y="-119.5" font-family="Helvetica,sans-Serif" font-size="10.00" fill="#000000">FieldPlaneAveraging.H</text>
</a>
</g>
</g>
<!-- Node23&#45;&gt;Node51 -->
<g id="edge9" class="edge">
<title>Node23&#45;&gt;Node51</title>
<path fill="none" stroke="#191970" d="M1089.4998,-168.8109C1136.9771,-158.5455 1213.4795,-142.0044 1261.6827,-131.5821"/>
<polygon fill="#191970" stroke="#191970" points="1088.5747,-165.4299 1079.5403,-170.9643 1090.0541,-172.2718 1088.5747,-165.4299"/>
</g>
<!-- Node46 -->
<g id="node11" class="node">
<title>Node46</title>
<g id="a_node11"><a xlink:href="_a_b_l_mean_boussinesq_8cpp.html" target="_top" xlink:title="ABLMeanBoussinesq.cpp">
<polygon fill="#ffffff" stroke="#000000" points="854.5,-.5 854.5,-19.5 983.5,-19.5 983.5,-.5 854.5,-.5"/>
<text text-anchor="middle" x="919" y="-7.5" font-family="Helvetica,sans-Serif" font-size="10.00" fill="#000000">ABLMeanBoussinesq.cpp</text>
</a>
</g>
</g>
<!-- Node23&#45;&gt;Node46 -->
<g id="edge21" class="edge">
<title>Node23&#45;&gt;Node46</title>
<path fill="none" stroke="#191970" d="M1026.1551,-161.9366C1016.0976,-153.6182 1004.2408,-142.9303 995,-132 962.9393,-94.0777 934.799,-41.3926 923.8571,-19.8113"/>
<polygon fill="#191970" stroke="#191970" points="1024.0991,-164.7747 1034.0832,-168.3201 1028.4892,-159.3224 1024.0991,-164.7747"/>
</g>
<!-- Node57 -->
<g id="node12" class="node">
<title>Node57</title>
<g id="a_node12"><a xlink:href="_a_b_l_boundary_plane_8_h.html" target="_top" xlink:title="ABLBoundaryPlane.H">
<polygon fill="#ffffff" stroke="#ff0000" points="1420,-112.5 1420,-131.5 1532,-131.5 1532,-112.5 1420,-112.5"/>
<text text-anchor="middle" x="1476" y="-119.5" font-family="Helvetica,sans-Serif" font-size="10.00" fill="#000000">ABLBoundaryPlane.H</text>
</a>
</g>
</g>
<!-- Node23&#45;&gt;Node57 -->
<g id="edge14" class="edge">
<title>Node23&#45;&gt;Node57</title>
<path fill="none" stroke="#191970" d="M1089.5406,-168.7619C1091.0436,-168.4951 1092.5335,-168.2401 1094,-168 1231.7532,-145.4502 1267.5621,-149.8719 1406,-132 1410.5048,-131.4184 1415.1697,-130.7961 1419.8543,-130.1569"/>
<polygon fill="#191970" stroke="#191970" points="1088.7129,-165.3564 1079.5406,-170.6591 1090.0177,-172.2338 1088.7129,-165.3564"/>
</g>
<!-- Node61 -->
<g id="node13" class="node">
<title>Node61</title>
<g id="a_node13"><a xlink:href="_c_f_d_sim_8cpp.html" target="_top" xlink:title="CFDSim.cpp">
<polygon fill="#ffffff" stroke="#000000" points="1550,-112.5 1550,-131.5 1624,-131.5 1624,-112.5 1550,-112.5"/>
<text text-anchor="middle" x="1587" y="-119.5" font-family="Helvetica,sans-Serif" font-size="10.00" fill="#000000">CFDSim.cpp</text>
</a>
</g>
</g>
<!-- Node23&#45;&gt;Node61 -->
<g id="edge16" class="edge">
<title>Node23&#45;&gt;Node61</title>
<path fill="none" stroke="#191970" d="M1089.5304,-168.6961C1091.0363,-168.448 1092.5296,-168.2147 1094,-168 1291.2183,-139.2009 1343.8458,-161.235 1541,-132 1543.9103,-131.5684 1546.9118,-131.0605 1549.9212,-130.5062"/>
<polygon fill="#191970" stroke="#191970" points="1088.7327,-165.2836 1079.5178,-170.5121 1089.9819,-172.1713 1088.7327,-165.2836"/>
</g>
<!-- Node62 -->
<g id="node14" class="node">
<title>Node62</title>
<g id="a_node14"><a xlink:href="_p_d_e_ops_8_h.html" target="_top" xlink:title="PDEOps.H">
<polygon fill="#ffffff" stroke="#ff0000" points="1796,-112.5 1796,-131.5 1862,-131.5 1862,-112.5 1796,-112.5"/>
<text text-anchor="middle" x="1829" y="-119.5" font-family="Helvetica,sans-Serif" font-size="10.00" fill="#000000">PDEOps.H</text>
</a>
</g>
</g>
<!-- Node23&#45;&gt;Node62 -->
<g id="edge17" class="edge">
<title>Node23&#45;&gt;Node62</title>
<path fill="none" stroke="#191970" d="M1089.8599,-172.0821C1101.8599,-170.5778 1114.9236,-169.0828 1127,-168 1419.5956,-141.7652 1496.2761,-174.1909 1787,-132 1789.8188,-131.5909 1792.7261,-131.083 1795.6337,-130.5145"/>
<polygon fill="#191970" stroke="#191970" points="1089.1118,-168.6494 1079.6399,-173.3963 1090.0046,-175.5922 1089.1118,-168.6494"/>
</g>
<!-- Node76 -->
<g id="node15" class="node">
<title>Node76</title>
<g id="a_node15"><a xlink:href="_p_d_e_8_h.html" target="_top" xlink:title="PDE.H">
<polygon fill="#ffffff" stroke="#ff0000" points="1716,-56.5 1716,-75.5 1764,-75.5 1764,-56.5 1716,-56.5"/>
<text text-anchor="middle" x="1740" y="-63.5" font-family="Helvetica,sans-Serif" font-size="10.00" fill="#000000">PDE.H</text>
</a>
</g>
</g>
<!-- Node23&#45;&gt;Node76 -->
<g id="edge19" class="edge">
<title>Node23&#45;&gt;Node76</title>
<path fill="none" stroke="#191970" d="M1089.7193,-171.5783C1099.3362,-170.2689 1109.5057,-168.9906 1119,-168 1232.8838,-156.1172 1524.0018,-167.0728 1633,-132 1642.9729,-128.791 1698.174,-93.2705 1725.1512,-75.7108"/>
<polygon fill="#191970" stroke="#191970" points="1088.9778,-168.1479 1079.559,-172.9993 1089.9474,-175.0804 1088.9778,-168.1479"/>
</g>
<!-- Node45 -->
<g id="node16" class="node">
<title>Node45</title>
<g id="a_node16"><a xlink:href="_a_b_l_forcing_8cpp.html" target="_top" xlink:title="ABLForcing.cpp">
<polygon fill="#ffffff" stroke="#000000" points="1004,-112.5 1004,-131.5 1090,-131.5 1090,-112.5 1004,-112.5"/>
<text text-anchor="middle" x="1047" y="-119.5" font-family="Helvetica,sans-Serif" font-size="10.00" fill="#000000">ABLForcing.cpp</text>
</a>
</g>
</g>
<!-- Node23&#45;&gt;Node45 -->
<g id="edge20" class="edge">
<title>Node23&#45;&gt;Node45</title>
<path fill="none" stroke="#191970" d="M1047,-158.1575C1047,-149.155 1047,-138.9199 1047,-131.6427"/>
<polygon fill="#191970" stroke="#191970" points="1043.5001,-158.2455 1047,-168.2455 1050.5001,-158.2456 1043.5001,-158.2455"/>
</g>
<!-- Node90 -->
<g id="node17" class="node">
<title>Node90</title>
<g id="a_node17"><a xlink:href="_body_force_8cpp.html" target="_top" xlink:title="BodyForce.cpp">
<polygon fill="#ffffff" stroke="#000000" points="1108.5,-112.5 1108.5,-131.5 1191.5,-131.5 1191.5,-112.5 1108.5,-112.5"/>
<text text-anchor="middle" x="1150" y="-119.5" font-family="Helvetica,sans-Serif" font-size="10.00" fill="#000000">BodyForce.cpp</text>
</a>
</g>
</g>
<!-- Node23&#45;&gt;Node90 -->
<g id="edge22" class="edge">
<title>Node23&#45;&gt;Node90</title>
<path fill="none" stroke="#191970" d="M1073.7432,-163.46C1092.175,-153.4388 1116.1584,-140.3993 1132.2644,-131.6427"/>
<polygon fill="#191970" stroke="#191970" points="1072.0549,-160.394 1064.9412,-168.2455 1075.3985,-166.5438 1072.0549,-160.394"/>
</g>
<!-- Node91 -->
<g id="node18" class="node">
<title>Node91</title>
<g id="a_node18"><a xlink:href="_boussinesq_buoyancy_8cpp.html" target="_top" xlink:title="BoussinesqBuoyancy.cpp">
<polygon fill="#ffffff" stroke="#000000" points="290,-56.5 290,-75.5 420,-75.5 420,-56.5 290,-56.5"/>
<text text-anchor="middle" x="355" y="-63.5" font-family="Helvetica,sans-Serif" font-size="10.00" fill="#000000">BoussinesqBuoyancy.cpp</text>
</a>
</g>
</g>
<!-- Node23&#45;&gt;Node91 -->
<g id="edge23" class="edge">
<title>Node23&#45;&gt;Node91</title>
<path fill="none" stroke="#191970" d="M1004.2936,-170.0144C969.01,-162.5971 918.0689,-149.9764 876,-132 860.2294,-125.2611 859.2825,-117.3855 843,-112 833.0776,-108.7182 550.8697,-83.3724 420.2231,-71.7678"/>
<polygon fill="#191970" stroke="#191970" points="1003.7618,-173.4781 1014.2611,-172.0589 1005.1684,-166.6209 1003.7618,-173.4781"/>
</g>
<!-- Node92 -->
<g id="node19" class="node">
<title>Node92</title>
<g id="a_node19"><a xlink:href="_coriolis_forcing_8cpp.html" target="_top" xlink:title="CoriolisForcing.cpp">
<polygon fill="#ffffff" stroke="#000000" points="484.5,-56.5 484.5,-75.5 585.5,-75.5 585.5,-56.5 484.5,-56.5"/>
<text text-anchor="middle" x="535" y="-63.5" font-family="Helvetica,sans-Serif" font-size="10.00" fill="#000000">CoriolisForcing.cpp</text>
</a>
</g>
</g>
<!-- Node23&#45;&gt;Node92 -->
<g id="edge24" class="edge">
<title>Node23&#45;&gt;Node92</title>
<path fill="none" stroke="#191970" d="M1005.3145,-165.3773C978.7876,-156.9073 943.9194,-144.9588 914,-132 896.4869,-124.4146 894.1813,-117.804 876,-112 761.5112,-75.4518 727.0901,-92.1554 608,-76 600.7748,-75.0198 593.148,-73.9804 585.6567,-72.9567"/>
<polygon fill="#191970" stroke="#191970" points="1004.4553,-168.7762 1015.0451,-168.448 1006.562,-162.1008 1004.4553,-168.7762"/>
</g>
<!-- Node93 -->
<g id="node20" class="node">
<title>Node93</title>
<g id="a_node20"><a xlink:href="_density_buoyancy_8cpp.html" target="_top" xlink:title="DensityBuoyancy.cpp">
<polygon fill="#ffffff" stroke="#000000" points="617.5,-56.5 617.5,-75.5 730.5,-75.5 730.5,-56.5 617.5,-56.5"/>
<text text-anchor="middle" x="674" y="-63.5" font-family="Helvetica,sans-Serif" font-size="10.00" fill="#000000">DensityBuoyancy.cpp</text>
</a>
</g>
</g>
<!-- Node23&#45;&gt;Node93 -->
<g id="edge25" class="edge">
<title>Node23&#45;&gt;Node93</title>
<path fill="none" stroke="#191970" d="M1020.235,-163.6376C987.8366,-146.445 935.0101,-119.0794 914,-112 853.0907,-91.4766 780.2196,-79.1343 730.8765,-72.4777"/>
<polygon fill="#191970" stroke="#191970" points="1018.7103,-166.791 1029.1819,-168.4023 1022.0007,-160.6125 1018.7103,-166.791"/>
</g>
<!-- Node23&#45;&gt;Node95 -->
<g id="edge26" class="edge">
<title>Node23&#45;&gt;Node95</title>
<path fill="none" stroke="#191970" d="M1089.8557,-172.0334C1101.8556,-170.5287 1114.9203,-169.0457 1127,-168 1456.82,-139.4483 1542.5226,-173.2192 1871,-132 1874.0152,-131.6216 1877.1218,-131.1598 1880.2385,-130.6444"/>
<polygon fill="#191970" stroke="#191970" points="1089.1063,-168.6009 1079.6358,-173.3508 1090.0013,-175.5435 1089.1063,-168.6009"/>
</g>
<!-- Node23&#45;&gt;Node100 -->
<g id="edge27" class="edge">
<title>Node23&#45;&gt;Node100</title>
<path fill="none" stroke="#191970" d="M1089.5256,-168.6627C1091.0329,-168.424 1092.5278,-168.2018 1094,-168 1346.3646,-133.4017 1412.8181,-159.9976 1666,-132 1670.513,-131.5009 1675.1964,-130.9052 1679.8798,-130.2566"/>
<polygon fill="#191970" stroke="#191970" points="1088.7434,-165.2467 1079.5072,-170.4373 1089.9644,-172.1394 1088.7434,-165.2467"/>
</g>
<!-- Node43&#45;&gt;Node48 -->
<g id="edge8" class="edge">
<title>Node43&#45;&gt;Node48</title>
<path fill="none" stroke="#191970" d="M1339.8429,-50.49C1325.728,-40.6096 1307.8849,-28.1194 1295.7752,-19.6427"/>
<polygon fill="#191970" stroke="#191970" points="1337.8656,-53.3782 1348.0651,-56.2455 1341.8799,-47.6436 1337.8656,-53.3782"/>
</g>
<!-- Node51&#45;&gt;Node43 -->
<g id="edge10" class="edge">
<title>Node51&#45;&gt;Node43</title>
<path fill="none" stroke="#191970" d="M1322.9249,-105.0751C1332.5598,-95.4402 1344.2804,-83.7196 1352.3573,-75.6427"/>
<polygon fill="#191970" stroke="#191970" points="1320.3507,-102.6996 1315.7545,-112.2455 1325.3004,-107.6493 1320.3507,-102.6996"/>
</g>
<!-- Node51&#45;&gt;Node48 -->
<g id="edge11" class="edge">
<title>Node51&#45;&gt;Node48</title>
<path fill="none" stroke="#191970" d="M1301.8426,-102.5987C1296.6492,-78.363 1287.9689,-37.8551 1284.041,-19.5249"/>
<polygon fill="#191970" stroke="#191970" points="1298.4361,-103.4063 1303.9538,-112.4509 1305.2807,-101.9395 1298.4361,-103.4063"/>
</g>
<!-- Node51&#45;&gt;Node56 -->
<g id="edge12" class="edge">
<title>Node51&#45;&gt;Node56</title>
<path fill="none" stroke="#191970" d="M1237.8711,-113.4265C1151.5961,-102.5694 1004.2623,-84.0285 921.6845,-73.6367"/>
<polygon fill="#191970" stroke="#191970" points="1237.4652,-116.9029 1247.824,-114.679 1238.3393,-109.9577 1237.4652,-116.9029"/>
</g>
<!-- Node56&#45;&gt;Node46 -->
<g id="edge13" class="edge">
<title>Node56&#45;&gt;Node46</title>
<path fill="none" stroke="#191970" d="M878.5293,-49.0751C888.5083,-39.4402 900.6476,-27.7196 909.0129,-19.6427"/>
<polygon fill="#191970" stroke="#191970" points="875.8658,-46.7817 871.1028,-56.2455 880.728,-51.8175 875.8658,-46.7817"/>
</g>
<!-- Node62&#45;&gt;Node76 -->
<g id="edge18" class="edge">
<title>Node62&#45;&gt;Node76</title>
<path fill="none" stroke="#191970" d="M1804.7936,-106.769C1789.0225,-96.8456 1768.924,-84.1994 1755.325,-75.6427"/>
<polygon fill="#191970" stroke="#191970" points="1803.1695,-109.8823 1813.4974,-112.2455 1806.8974,-103.9575 1803.1695,-109.8823"/>
</g>
<!-- Node158&#45;&gt;Node62 -->
<g id="edge42" class="edge">
<title>Node158&#45;&gt;Node62</title>
<path fill="none" stroke="#191970" d="M1228.1396,-168.4996C1229.4382,-168.3235 1230.7267,-168.1565 1232,-168 1477.3383,-137.8412 1542.5633,-168.7577 1787,-132 1789.8166,-131.5764 1792.7225,-131.0583 1795.629,-130.483"/>
<polygon fill="#191970" stroke="#191970" points="1227.4415,-165.0648 1218.0664,-170.0003 1228.473,-171.9884 1227.4415,-165.0648"/>
</g>
<!-- Node158&#45;&gt;Node95 -->
<g id="edge43" class="edge">
<title>Node158&#45;&gt;Node95</title>
<path fill="none" stroke="#191970" d="M1228.1378,-168.485C1229.437,-168.3133 1230.726,-168.1511 1232,-168 1514.4701,-134.4941 1588.9057,-168.5354 1871,-132 1874.0136,-131.6097 1877.1191,-131.1392 1880.2351,-130.6177"/>
<polygon fill="#191970" stroke="#191970" points="1227.4485,-165.0485 1218.0618,-169.9618 1228.4637,-171.9745 1227.4485,-165.0485"/>
</g>
<!-- Node160&#45;&gt;Node56 -->
<g id="edge46" class="edge">
<title>Node160&#45;&gt;Node56</title>
<path fill="none" stroke="#191970" d="M583.4218,-166.0565C616.9233,-157.8358 661.0462,-145.9104 699,-132 718.7899,-124.7468 722.604,-120.2487 742,-112 773.5934,-98.564 810.5537,-84.5349 834.8,-75.5564"/>
<polygon fill="#191970" stroke="#191970" points="582.2798,-162.7318 573.3844,-168.4869 583.9272,-169.5352 582.2798,-162.7318"/>
</g>
<!-- Node160&#45;&gt;Node163 -->
<g id="edge47" class="edge">
<title>Node160&#45;&gt;Node163</title>
<path fill="none" stroke="#191970" d="M480.9026,-166.1125C437.4516,-155.8021 375.3802,-141.0733 335.1355,-131.5237"/>
<polygon fill="#191970" stroke="#191970" points="480.1604,-169.5335 490.6983,-168.4369 481.7766,-162.7226 480.1604,-169.5335"/>
</g>
<!-- Node160&#45;&gt;Node164 -->
<g id="edge49" class="edge">
<title>Node160&#45;&gt;Node164</title>
<path fill="none" stroke="#191970" d="M527.811,-158.1575C526.3642,-149.155 524.7193,-138.9199 523.5497,-131.6427"/>
<polygon fill="#191970" stroke="#191970" points="524.3898,-158.9276 529.4323,-168.2455 531.3011,-157.8168 524.3898,-158.9276"/>
</g>
<!-- Node160&#45;&gt;Node165 -->
<g id="edge51" class="edge">
<title>Node160&#45;&gt;Node165</title>
<path fill="none" stroke="#191970" d="M558.5199,-163.5971C577.7017,-153.558 602.7678,-140.4393 619.5756,-131.6427"/>
<polygon fill="#191970" stroke="#191970" points="556.875,-160.5075 549.638,-168.2455 560.1209,-166.7095 556.875,-160.5075"/>
</g>
<!-- Node160&#45;&gt;Node167 -->
<g id="edge53" class="edge">
<title>Node160&#45;&gt;Node167</title>
<path fill="none" stroke="#191970" d="M502.1967,-163.9741C481.375,-153.8348 453.8022,-140.408 435.5112,-131.5011"/>
<polygon fill="#191970" stroke="#191970" points="500.7078,-167.1419 511.2308,-168.3733 503.7724,-160.8484 500.7078,-167.1419"/>
</g>
<!-- Node163&#45;&gt;Node91 -->
<g id="edge48" class="edge">
<title>Node163&#45;&gt;Node91</title>
<path fill="none" stroke="#191970" d="M312.8278,-105.3607C323.2078,-95.6727 335.9291,-83.7995 344.6686,-75.6427"/>
<polygon fill="#191970" stroke="#191970" points="310.3737,-102.8636 305.4512,-112.2455 315.1499,-107.981 310.3737,-102.8636"/>
</g>
<!-- Node164&#45;&gt;Node92 -->
<g id="edge50" class="edge">
<title>Node164&#45;&gt;Node92</title>
<path fill="none" stroke="#191970" d="M526.5375,-102.4538C528.6439,-93.3803 531.0536,-82.9998 532.7615,-75.6427"/>
<polygon fill="#191970" stroke="#191970" points="523.1165,-101.7131 524.2644,-112.2455 529.9351,-103.2961 523.1165,-101.7131"/>
</g>
<!-- Node165&#45;&gt;Node93 -->
<g id="edge52" class="edge">
<title>Node165&#45;&gt;Node93</title>
<path fill="none" stroke="#191970" d="M649.8096,-103.6296C655.8144,-94.2887 662.8659,-83.3197 667.8011,-75.6427"/>
<polygon fill="#191970" stroke="#191970" points="646.7342,-101.9411 644.2707,-112.2455 652.6225,-105.7264 646.7342,-101.9411"/>
</g>
</g>
</svg>
