<?xml version="1.0" encoding="UTF-8" standalone="no"?>
<!DOCTYPE svg PUBLIC "-//W3C//DTD SVG 1.1//EN"
 "http://www.w3.org/Graphics/SVG/1.1/DTD/svg11.dtd">
<!-- Generated by graphviz version 2.40.1 (20161225.0304)
 -->
<!-- Title: Field.cpp Pages: 1 -->
<svg width="2352pt" height="263pt"
 viewBox="0.00 0.00 2351.73 263.00" xmlns="http://www.w3.org/2000/svg" xmlns:xlink="http://www.w3.org/1999/xlink">
<g id="graph0" class="graph" transform="scale(1 1) rotate(0) translate(4 259)">
<title>Field.cpp</title>
<polygon fill="#ffffff" stroke="transparent" points="-4,4 -4,-259 2347.7318,-259 2347.7318,4 -4,4"/>
<!-- Node0 -->
<g id="node1" class="node">
<title>Node0</title>
<polygon fill="#bfbfbf" stroke="#000000" points="1377.7318,-235.5 1377.7318,-254.5 1433.7318,-254.5 1433.7318,-235.5 1377.7318,-235.5"/>
<text text-anchor="middle" x="1405.7318" y="-242.5" font-family="Helvetica,sans-Serif" font-size="10.00" fill="#000000">Field.cpp</text>
</g>
<!-- Node1 -->
<g id="node2" class="node">
<title>Node1</title>
<g id="a_node2"><a xlink:href="_field_8_h.html" target="_top" xlink:title="amr&#45;wind/core/Field.H">
<polygon fill="#ffffff" stroke="#000000" points="1006.2318,-112.5 1006.2318,-131.5 1119.2318,-131.5 1119.2318,-112.5 1006.2318,-112.5"/>
<text text-anchor="middle" x="1062.7318" y="-119.5" font-family="Helvetica,sans-Serif" font-size="10.00" fill="#000000">amr&#45;wind/core/Field.H</text>
</a>
</g>
</g>
<!-- Node0&#45;&gt;Node1 -->
<g id="edge1" class="edge">
<title>Node0&#45;&gt;Node1</title>
<path fill="none" stroke="#191970" d="M1377.6679,-238.0084C1345.4702,-229.7396 1291.251,-215.0564 1245.7318,-199 1190.7642,-179.6107 1128.5662,-152.2393 1092.674,-135.8911"/>
<polygon fill="#191970" stroke="#191970" points="1093.8253,-132.5689 1083.2759,-131.5882 1090.9112,-138.9335 1093.8253,-132.5689"/>
</g>
<!-- Node12 -->
<g id="node13" class="node">
<title>Node12</title>
<g id="a_node13"><a xlink:href="_field_repo_8_h.html" target="_top" xlink:title="amr&#45;wind/core/FieldRepo.H">
<polygon fill="#ffffff" stroke="#000000" points="498.7318,-174 498.7318,-193 634.7318,-193 634.7318,-174 498.7318,-174"/>
<text text-anchor="middle" x="566.7318" y="-181" font-family="Helvetica,sans-Serif" font-size="10.00" fill="#000000">amr&#45;wind/core/FieldRepo.H</text>
</a>
</g>
</g>
<!-- Node0&#45;&gt;Node12 -->
<g id="edge15" class="edge">
<title>Node0&#45;&gt;Node12</title>
<path fill="none" stroke="#191970" d="M1377.336,-242.9185C1261.8596,-234.4539 825.1107,-202.4396 645.0589,-189.2415"/>
<polygon fill="#191970" stroke="#191970" points="645.0966,-185.735 634.8675,-188.4944 644.5848,-192.7162 645.0966,-185.735"/>
</g>
<!-- Node20 -->
<g id="node21" class="node">
<title>Node20</title>
<g id="a_node21"><a xlink:href="_field_fill_patch_ops_8_h.html" target="_top" xlink:title="amr&#45;wind/core/FieldFillPatch\lOps.H">
<polygon fill="#ffffff" stroke="#000000" points="1254.7318,-168.5 1254.7318,-198.5 1394.7318,-198.5 1394.7318,-168.5 1254.7318,-168.5"/>
<text text-anchor="start" x="1262.7318" y="-186.5" font-family="Helvetica,sans-Serif" font-size="10.00" fill="#000000">amr&#45;wind/core/FieldFillPatch</text>
<text text-anchor="middle" x="1324.7318" y="-175.5" font-family="Helvetica,sans-Serif" font-size="10.00" fill="#000000">Ops.H</text>
</a>
</g>
</g>
<!-- Node0&#45;&gt;Node20 -->
<g id="edge38" class="edge">
<title>Node0&#45;&gt;Node20</title>
<path fill="none" stroke="#191970" d="M1393.0756,-235.3906C1382.3162,-227.2215 1366.4753,-215.1941 1352.7528,-204.7752"/>
<polygon fill="#191970" stroke="#191970" points="1354.6276,-201.8042 1344.5467,-198.5446 1350.3946,-207.3793 1354.6276,-201.8042"/>
</g>
<!-- Node21 -->
<g id="node22" class="node">
<title>Node21</title>
<g id="a_node22"><a xlink:href="_sim_time_8_h.html" target="_top" xlink:title="amr&#45;wind/core/SimTime.H">
<polygon fill="#ffffff" stroke="#000000" points="1682.2318,-112.5 1682.2318,-131.5 1813.2318,-131.5 1813.2318,-112.5 1682.2318,-112.5"/>
<text text-anchor="middle" x="1747.7318" y="-119.5" font-family="Helvetica,sans-Serif" font-size="10.00" fill="#000000">amr&#45;wind/core/SimTime.H</text>
</a>
</g>
</g>
<!-- Node0&#45;&gt;Node21 -->
<g id="edge57" class="edge">
<title>Node0&#45;&gt;Node21</title>
<path fill="none" stroke="#191970" d="M1434.0182,-239.8376C1470.6172,-232.7281 1536.0509,-218.5479 1589.7318,-199 1638.3231,-181.3055 1691.8206,-153.2946 1722.4347,-136.3801"/>
<polygon fill="#191970" stroke="#191970" points="1724.1396,-139.4368 1731.1702,-131.5108 1720.7314,-133.3226 1724.1396,-139.4368"/>
</g>
<!-- Node26 -->
<g id="node27" class="node">
<title>Node26</title>
<g id="a_node27"><a xlink:href="_field_b_c_ops_8_h.html" target="_top" xlink:title="amr&#45;wind/core/FieldBCOps.H">
<polygon fill="#ffffff" stroke="#000000" points="1916.2318,-112.5 1916.2318,-131.5 2061.2318,-131.5 2061.2318,-112.5 1916.2318,-112.5"/>
<text text-anchor="middle" x="1988.7318" y="-119.5" font-family="Helvetica,sans-Serif" font-size="10.00" fill="#000000">amr&#45;wind/core/FieldBCOps.H</text>
</a>
</g>
</g>
<!-- Node0&#45;&gt;Node26 -->
<g id="edge51" class="edge">
<title>Node0&#45;&gt;Node26</title>
<path fill="none" stroke="#191970" d="M1433.7467,-239.6721C1477.5431,-231.2971 1564.8682,-214.4144 1638.7318,-199 1744.7456,-176.8763 1868.4046,-149.2397 1936.7015,-133.8153"/>
<polygon fill="#191970" stroke="#191970" points="1937.7898,-137.1576 1946.7719,-131.5388 1936.2463,-130.3299 1937.7898,-137.1576"/>
</g>
<!-- Node29 -->
<g id="node30" class="node">
<title>Node29</title>
<g id="a_node30"><a xlink:href="_b_c_interface_8_h.html" target="_top" xlink:title="amr&#45;wind/boundary_conditions\l/BCInterface.H">
<polygon fill="#ffffff" stroke="#000000" points="1432.2318,-168.5 1432.2318,-198.5 1581.2318,-198.5 1581.2318,-168.5 1432.2318,-168.5"/>
<text text-anchor="start" x="1440.2318" y="-186.5" font-family="Helvetica,sans-Serif" font-size="10.00" fill="#000000">amr&#45;wind/boundary_conditions</text>
<text text-anchor="middle" x="1506.7318" y="-175.5" font-family="Helvetica,sans-Serif" font-size="10.00" fill="#000000">/BCInterface.H</text>
</a>
</g>
</g>
<!-- Node0&#45;&gt;Node29 -->
<g id="edge58" class="edge">
<title>Node0&#45;&gt;Node29</title>
<path fill="none" stroke="#191970" d="M1421.5131,-235.3906C1435.3088,-226.9903 1455.8044,-214.5103 1473.2384,-203.8945"/>
<polygon fill="#191970" stroke="#191970" points="1475.3036,-206.7349 1482.0244,-198.5446 1471.663,-200.756 1475.3036,-206.7349"/>
</g>
<!-- Node2 -->
<g id="node3" class="node">
<title>Node2</title>
<polygon fill="#ffffff" stroke="#bfbfbf" points="242.2318,-.5 242.2318,-19.5 283.2318,-19.5 283.2318,-.5 242.2318,-.5"/>
<text text-anchor="middle" x="262.7318" y="-7.5" font-family="Helvetica,sans-Serif" font-size="10.00" fill="#000000">string</text>
</g>
<!-- Node1&#45;&gt;Node2 -->
<g id="edge2" class="edge">
<title>Node1&#45;&gt;Node2</title>
<path fill="none" stroke="#191970" d="M1029.7526,-112.4866C1002.6153,-104.1927 963.4364,-91.1387 930.7318,-76 914.822,-68.6355 913.5001,-61.1169 896.7318,-56 644.1877,21.065 564.8104,-59.4402 303.7318,-20 300.3993,-19.4966 296.9407,-18.8512 293.5088,-18.1311"/>
<polygon fill="#191970" stroke="#191970" points="293.9767,-14.6473 283.4463,-15.8141 292.4059,-21.4688 293.9767,-14.6473"/>
</g>
<!-- Node3 -->
<g id="node4" class="node">
<title>Node3</title>
<polygon fill="#ffffff" stroke="#bfbfbf" points="982.7318,-56.5 982.7318,-75.5 1034.7318,-75.5 1034.7318,-56.5 982.7318,-56.5"/>
<text text-anchor="middle" x="1008.7318" y="-63.5" font-family="Helvetica,sans-Serif" font-size="10.00" fill="#000000">memory</text>
</g>
<!-- Node1&#45;&gt;Node3 -->
<g id="edge3" class="edge">
<title>Node1&#45;&gt;Node3</title>
<path fill="none" stroke="#191970" d="M1053.3257,-112.2455C1045.5825,-104.2155 1034.4198,-92.6394 1025.2,-83.0781"/>
<polygon fill="#191970" stroke="#191970" points="1027.491,-80.4117 1018.0301,-75.6427 1022.452,-85.2706 1027.491,-80.4117"/>
</g>
<!-- Node4 -->
<g id="node5" class="node">
<title>Node4</title>
<polygon fill="#ffffff" stroke="#bfbfbf" points="805.2318,-56.5 805.2318,-75.5 888.2318,-75.5 888.2318,-56.5 805.2318,-56.5"/>
<text text-anchor="middle" x="846.7318" y="-63.5" font-family="Helvetica,sans-Serif" font-size="10.00" fill="#000000">unordered_map</text>
</g>
<!-- Node1&#45;&gt;Node4 -->
<g id="edge4" class="edge">
<title>Node1&#45;&gt;Node4</title>
<path fill="none" stroke="#191970" d="M1025.6001,-112.3733C988.9052,-102.8598 932.668,-88.2797 893.0667,-78.0127"/>
<polygon fill="#191970" stroke="#191970" points="893.9374,-74.6228 883.379,-75.5011 892.1806,-81.3988 893.9374,-74.6228"/>
</g>
<!-- Node5 -->
<g id="node6" class="node">
<title>Node5</title>
<polygon fill="#ffffff" stroke="#bfbfbf" points="438.7318,-.5 438.7318,-19.5 542.7318,-19.5 542.7318,-.5 438.7318,-.5"/>
<text text-anchor="middle" x="490.7318" y="-7.5" font-family="Helvetica,sans-Serif" font-size="10.00" fill="#000000">AMReX_MultiFab.H</text>
</g>
<!-- Node1&#45;&gt;Node5 -->
<g id="edge5" class="edge">
<title>Node1&#45;&gt;Node5</title>
<path fill="none" stroke="#191970" d="M1044.584,-112.4593C1011.2493,-95.0042 942.5848,-59.3978 930.7318,-56 771.1776,-10.2619 721.4275,-40.4964 552.8922,-20.0469"/>
<polygon fill="#191970" stroke="#191970" points="553.2991,-16.5706 542.941,-18.7977 552.4272,-23.5161 553.2991,-16.5706"/>
</g>
<!-- Node6 -->
<g id="node7" class="node">
<title>Node6</title>
<polygon fill="#ffffff" stroke="#bfbfbf" points="1091.2318,-56.5 1091.2318,-75.5 1190.2318,-75.5 1190.2318,-56.5 1091.2318,-56.5"/>
<text text-anchor="middle" x="1140.7318" y="-63.5" font-family="Helvetica,sans-Serif" font-size="10.00" fill="#000000">AMReX_BCRec.H</text>
</g>
<!-- Node1&#45;&gt;Node6 -->
<g id="edge6" class="edge">
<title>Node1&#45;&gt;Node6</title>
<path fill="none" stroke="#191970" d="M1076.3184,-112.2455C1088.0623,-103.814 1105.2517,-91.4729 1118.92,-81.6598"/>
<polygon fill="#191970" stroke="#191970" points="1121.2189,-84.3179 1127.301,-75.6427 1117.1365,-78.6316 1121.2189,-84.3179"/>
</g>
<!-- Node7 -->
<g id="node8" class="node">
<title>Node7</title>
<polygon fill="#ffffff" stroke="#bfbfbf" points="1577.2318,-56.5 1577.2318,-75.5 1662.2318,-75.5 1662.2318,-56.5 1577.2318,-56.5"/>
<text text-anchor="middle" x="1619.7318" y="-63.5" font-family="Helvetica,sans-Serif" font-size="10.00" fill="#000000">AMReX_Gpu.H</text>
</g>
<!-- Node1&#45;&gt;Node7 -->
<g id="edge7" class="edge">
<title>Node1&#45;&gt;Node7</title>
<path fill="none" stroke="#191970" d="M1119.3662,-118.6795C1211.1678,-112.8937 1398.3192,-99.4258 1567.1551,-75.9459"/>
<polygon fill="#191970" stroke="#191970" points="1567.8068,-79.3888 1577.2222,-74.5308 1566.8323,-72.4569 1567.8068,-79.3888"/>
</g>
<!-- Node8 -->
<g id="node9" class="node">
<title>Node8</title>
<g id="a_node9"><a xlink:href="incflo__enums_8_h.html" target="_top" xlink:title="amr&#45;wind/incflo_enums.H">
<polygon fill="#ffffff" stroke="#000000" points="1208.7318,-56.5 1208.7318,-75.5 1336.7318,-75.5 1336.7318,-56.5 1208.7318,-56.5"/>
<text text-anchor="middle" x="1272.7318" y="-63.5" font-family="Helvetica,sans-Serif" font-size="10.00" fill="#000000">amr&#45;wind/incflo_enums.H</text>
</a>
</g>
</g>
<!-- Node1&#45;&gt;Node8 -->
<g id="edge8" class="edge">
<title>Node1&#45;&gt;Node8</title>
<path fill="none" stroke="#191970" d="M1098.8321,-112.3733C1134.3566,-102.9001 1188.7198,-88.4032 1227.1938,-78.1435"/>
<polygon fill="#191970" stroke="#191970" points="1228.3421,-81.4596 1237.1026,-75.5011 1226.5384,-74.696 1228.3421,-81.4596"/>
</g>
<!-- Node9 -->
<g id="node10" class="node">
<title>Node9</title>
<g id="a_node10"><a xlink:href="_field_desc_types_8_h.html" target="_top" xlink:title="amr&#45;wind/core/FieldDescTypes.H">
<polygon fill="#ffffff" stroke="#000000" points="561.2318,-.5 561.2318,-19.5 724.2318,-19.5 724.2318,-.5 561.2318,-.5"/>
<text text-anchor="middle" x="642.7318" y="-7.5" font-family="Helvetica,sans-Serif" font-size="10.00" fill="#000000">amr&#45;wind/core/FieldDescTypes.H</text>
</a>
</g>
</g>
<!-- Node1&#45;&gt;Node9 -->
<g id="edge9" class="edge">
<title>Node1&#45;&gt;Node9</title>
<path fill="none" stroke="#191970" d="M1063.0393,-112.1582C1062.9116,-97.4634 1060.2968,-70.0193 1043.7318,-56 1020.6172,-36.4375 845.8977,-22.3208 734.8417,-15.2145"/>
<polygon fill="#191970" stroke="#191970" points="734.8342,-11.7071 724.6334,-14.5695 734.3928,-18.6932 734.8342,-11.7071"/>
</g>
<!-- Node10 -->
<g id="node11" class="node">
<title>Node10</title>
<g id="a_node11"><a xlink:href="_view_field_8_h.html" target="_top" xlink:title="amr&#45;wind/core/ViewField.H">
<polygon fill="#ffffff" stroke="#000000" points="328.7318,-56.5 328.7318,-75.5 462.7318,-75.5 462.7318,-56.5 328.7318,-56.5"/>
<text text-anchor="middle" x="395.7318" y="-63.5" font-family="Helvetica,sans-Serif" font-size="10.00" fill="#000000">amr&#45;wind/core/ViewField.H</text>
</a>
</g>
</g>
<!-- Node1&#45;&gt;Node10 -->
<g id="edge10" class="edge">
<title>Node1&#45;&gt;Node10</title>
<path fill="none" stroke="#191970" d="M1005.8288,-115.5593C994.2223,-114.3175 982.0885,-113.0713 970.7318,-112 792.8326,-95.219 583.5887,-79.4838 473.1169,-71.4887"/>
<polygon fill="#191970" stroke="#191970" points="473.2895,-67.9921 463.0633,-70.7627 472.7853,-74.9739 473.2895,-67.9921"/>
</g>
<!-- Node10&#45;&gt;Node2 -->
<g id="edge11" class="edge">
<title>Node10&#45;&gt;Node2</title>
<path fill="none" stroke="#191970" d="M372.8683,-56.3733C350.8047,-47.0833 317.2669,-32.9621 292.9977,-22.7435"/>
<polygon fill="#191970" stroke="#191970" points="294.1231,-19.4198 283.5485,-18.7649 291.4066,-25.8713 294.1231,-19.4198"/>
</g>
<!-- Node10&#45;&gt;Node5 -->
<g id="edge13" class="edge">
<title>Node10&#45;&gt;Node5</title>
<path fill="none" stroke="#191970" d="M412.2796,-56.2455C426.9917,-47.5731 448.7206,-34.7645 465.5823,-24.825"/>
<polygon fill="#191970" stroke="#191970" points="467.5364,-27.736 474.3737,-19.6427 463.9817,-21.7057 467.5364,-27.736"/>
</g>
<!-- Node10&#45;&gt;Node9 -->
<g id="edge12" class="edge">
<title>Node10&#45;&gt;Node9</title>
<path fill="none" stroke="#191970" d="M437.912,-56.4369C480.1841,-46.8529 545.338,-32.0812 590.7735,-21.78"/>
<polygon fill="#191970" stroke="#191970" points="591.7471,-25.1482 600.7256,-19.5237 590.1992,-18.3215 591.7471,-25.1482"/>
</g>
<!-- Node11 -->
<g id="node12" class="node">
<title>Node11</title>
<polygon fill="#ffffff" stroke="#bfbfbf" points="313.2318,-.5 313.2318,-19.5 408.2318,-19.5 408.2318,-.5 313.2318,-.5"/>
<text text-anchor="middle" x="360.7318" y="-7.5" font-family="Helvetica,sans-Serif" font-size="10.00" fill="#000000">AMReX_Vector.H</text>
</g>
<!-- Node10&#45;&gt;Node11 -->
<g id="edge14" class="edge">
<title>Node10&#45;&gt;Node11</title>
<path fill="none" stroke="#191970" d="M389.6353,-56.2455C384.8173,-48.5367 377.9567,-37.5598 372.1286,-28.2348"/>
<polygon fill="#191970" stroke="#191970" points="375.0265,-26.2677 366.7585,-19.6427 369.0905,-29.9777 375.0265,-26.2677"/>
</g>
<!-- Node12&#45;&gt;Node1 -->
<g id="edge23" class="edge">
<title>Node12&#45;&gt;Node1</title>
<path fill="none" stroke="#191970" d="M634.9179,-175.0455C730.0963,-163.2441 901.6853,-141.9685 996.0505,-130.2679"/>
<polygon fill="#191970" stroke="#191970" points="996.5574,-133.732 1006.0507,-129.028 995.696,-126.7852 996.5574,-133.732"/>
</g>
<!-- Node12&#45;&gt;Node2 -->
<g id="edge16" class="edge">
<title>Node12&#45;&gt;Node2</title>
<path fill="none" stroke="#191970" d="M498.6473,-181.9502C379.5084,-178.3515 138.6631,-166.8763 62.7318,-132 29.8784,-116.9099 18.0015,-109.218 3.7318,-76 .2234,-67.8328 -1.9776,-62.8128 3.7318,-56 32.5706,-21.588 169.9,-12.9008 232.0513,-10.7222"/>
<polygon fill="#191970" stroke="#191970" points="232.1633,-14.2205 242.0475,-10.4058 231.9417,-7.224 232.1633,-14.2205"/>
</g>
<!-- Node12&#45;&gt;Node4 -->
<g id="edge17" class="edge">
<title>Node12&#45;&gt;Node4</title>
<path fill="none" stroke="#191970" d="M608.2828,-173.9659C643.3469,-165.2063 694.4434,-150.7474 736.7318,-132 768.7988,-117.784 803.0448,-96.0785 824.6509,-81.48"/>
<polygon fill="#191970" stroke="#191970" points="826.8184,-84.2378 833.0935,-75.7012 822.8645,-78.4613 826.8184,-84.2378"/>
</g>
<!-- Node12&#45;&gt;Node5 -->
<g id="edge36" class="edge">
<title>Node12&#45;&gt;Node5</title>
<path fill="none" stroke="#191970" d="M508.1543,-173.9153C470.9335,-166.1931 422.6167,-153.0704 383.7318,-132 350.5008,-113.9932 335.3498,-110.4183 319.7318,-76 316.0588,-67.9055 314.3241,-63.0547 319.7318,-56 333.1792,-38.4571 385.4738,-26.1084 428.7306,-18.6537"/>
<polygon fill="#191970" stroke="#191970" points="429.3632,-22.0966 438.6519,-17.0006 428.2126,-15.1918 429.3632,-22.0966"/>
</g>
<!-- Node12&#45;&gt;Node9 -->
<g id="edge18" class="edge">
<title>Node12&#45;&gt;Node9</title>
<path fill="none" stroke="#191970" d="M568.5593,-173.5338C571.3183,-159.481 577.1528,-133.1917 585.7318,-112 598.161,-81.2976 617.9233,-48.2655 630.6081,-28.3657"/>
<polygon fill="#191970" stroke="#191970" points="633.7088,-30.0163 636.2034,-19.7193 627.832,-26.2132 633.7088,-30.0163"/>
</g>
<!-- Node13 -->
<g id="node14" class="node">
<title>Node13</title>
<g id="a_node14"><a xlink:href="_field_utils_8_h.html" target="_top" xlink:title="amr&#45;wind/core/FieldUtils.H">
<polygon fill="#ffffff" stroke="#000000" points="595.2318,-112.5 595.2318,-131.5 728.2318,-131.5 728.2318,-112.5 595.2318,-112.5"/>
<text text-anchor="middle" x="661.7318" y="-119.5" font-family="Helvetica,sans-Serif" font-size="10.00" fill="#000000">amr&#45;wind/core/FieldUtils.H</text>
</a>
</g>
</g>
<!-- Node12&#45;&gt;Node13 -->
<g id="edge19" class="edge">
<title>Node12&#45;&gt;Node13</title>
<path fill="none" stroke="#191970" d="M581.5756,-173.8906C596.7737,-164.0519 620.6167,-148.6167 638.3525,-137.1351"/>
<polygon fill="#191970" stroke="#191970" points="640.4998,-139.9144 646.9923,-131.5419 636.6957,-134.0382 640.4998,-139.9144"/>
</g>
<!-- Node15 -->
<g id="node16" class="node">
<title>Node15</title>
<g id="a_node16"><a xlink:href="_int_field_8_h.html" target="_top" xlink:title="amr&#45;wind/core/IntField.H">
<polygon fill="#ffffff" stroke="#000000" points="86.7318,-112.5 86.7318,-131.5 210.7318,-131.5 210.7318,-112.5 86.7318,-112.5"/>
<text text-anchor="middle" x="148.7318" y="-119.5" font-family="Helvetica,sans-Serif" font-size="10.00" fill="#000000">amr&#45;wind/core/IntField.H</text>
</a>
</g>
</g>
<!-- Node12&#45;&gt;Node15 -->
<g id="edge24" class="edge">
<title>Node12&#45;&gt;Node15</title>
<path fill="none" stroke="#191970" d="M501.878,-173.9581C425.9448,-162.7861 300.5171,-144.3321 221.3767,-132.6882"/>
<polygon fill="#191970" stroke="#191970" points="221.4085,-129.1553 211.0055,-131.1623 220.3895,-136.0807 221.4085,-129.1553"/>
</g>
<!-- Node16 -->
<g id="node17" class="node">
<title>Node16</title>
<polygon fill="#ffffff" stroke="#bfbfbf" points="13.2318,-56.5 13.2318,-75.5 120.2318,-75.5 120.2318,-56.5 13.2318,-56.5"/>
<text text-anchor="middle" x="66.7318" y="-63.5" font-family="Helvetica,sans-Serif" font-size="10.00" fill="#000000">AMReX_iMultiFab.H</text>
</g>
<!-- Node12&#45;&gt;Node16 -->
<g id="edge37" class="edge">
<title>Node12&#45;&gt;Node16</title>
<path fill="none" stroke="#191970" d="M498.4065,-180.83C371.1079,-175.2068 107.7591,-160.2714 77.7318,-132 65.4657,-120.4511 63.5673,-100.8048 64.2263,-85.9425"/>
<polygon fill="#191970" stroke="#191970" points="67.7353,-85.9848 65.0993,-75.7232 60.7607,-85.3889 67.7353,-85.9848"/>
</g>
<!-- Node17 -->
<g id="node18" class="node">
<title>Node17</title>
<g id="a_node18"><a xlink:href="_scratch_field_8_h.html" target="_top" xlink:title="amr&#45;wind/core/ScratchField.H">
<polygon fill="#ffffff" stroke="#000000" points="392.7318,-112.5 392.7318,-131.5 538.7318,-131.5 538.7318,-112.5 392.7318,-112.5"/>
<text text-anchor="middle" x="465.7318" y="-119.5" font-family="Helvetica,sans-Serif" font-size="10.00" fill="#000000">amr&#45;wind/core/ScratchField.H</text>
</a>
</g>
</g>
<!-- Node12&#45;&gt;Node17 -->
<g id="edge28" class="edge">
<title>Node12&#45;&gt;Node17</title>
<path fill="none" stroke="#191970" d="M550.9506,-173.8906C534.6444,-163.9616 508.9778,-148.333 490.0705,-136.8201"/>
<polygon fill="#191970" stroke="#191970" points="491.7637,-133.7533 481.4023,-131.5419 488.1231,-139.7322 491.7637,-133.7533"/>
</g>
<!-- Node19 -->
<g id="node20" class="node">
<title>Node19</title>
<polygon fill="#ffffff" stroke="#bfbfbf" points="855.7318,-112.5 855.7318,-131.5 961.7318,-131.5 961.7318,-112.5 855.7318,-112.5"/>
<text text-anchor="middle" x="908.7318" y="-119.5" font-family="Helvetica,sans-Serif" font-size="10.00" fill="#000000">AMReX_AmrCore.H</text>
</g>
<!-- Node12&#45;&gt;Node19 -->
<g id="edge35" class="edge">
<title>Node12&#45;&gt;Node19</title>
<path fill="none" stroke="#191970" d="M619.7941,-173.9581C680.7907,-162.9894 780.8225,-145.0012 845.7233,-133.3305"/>
<polygon fill="#191970" stroke="#191970" points="846.6038,-136.7284 855.8265,-131.5137 845.3649,-129.8389 846.6038,-136.7284"/>
</g>
<!-- Node13&#45;&gt;Node5 -->
<g id="edge21" class="edge">
<title>Node13&#45;&gt;Node5</title>
<path fill="none" stroke="#191970" d="M647.1525,-112.4509C617.4959,-93.0268 549.9258,-48.7703 514.0756,-25.2895"/>
<polygon fill="#191970" stroke="#191970" points="515.5574,-22.0761 505.2743,-19.5249 511.722,-27.9319 515.5574,-22.0761"/>
</g>
<!-- Node13&#45;&gt;Node9 -->
<g id="edge20" class="edge">
<title>Node13&#45;&gt;Node9</title>
<path fill="none" stroke="#191970" d="M660.1119,-112.4509C657.013,-94.184 650.1885,-53.9553 646.0734,-29.6976"/>
<polygon fill="#191970" stroke="#191970" points="649.471,-28.7986 644.3477,-19.5249 642.5696,-29.9694 649.471,-28.7986"/>
</g>
<!-- Node14 -->
<g id="node15" class="node">
<title>Node14</title>
<polygon fill="#ffffff" stroke="#bfbfbf" points="670.7318,-56.5 670.7318,-75.5 786.7318,-75.5 786.7318,-56.5 670.7318,-56.5"/>
<text text-anchor="middle" x="728.7318" y="-63.5" font-family="Helvetica,sans-Serif" font-size="10.00" fill="#000000">AMReX_Interpolater.H</text>
</g>
<!-- Node13&#45;&gt;Node14 -->
<g id="edge22" class="edge">
<title>Node13&#45;&gt;Node14</title>
<path fill="none" stroke="#191970" d="M673.4023,-112.2455C683.2979,-103.9746 697.6945,-91.9416 709.3219,-82.2232"/>
<polygon fill="#191970" stroke="#191970" points="711.7668,-84.7413 717.1951,-75.6427 707.2776,-79.3703 711.7668,-84.7413"/>
</g>
<!-- Node15&#45;&gt;Node2 -->
<g id="edge25" class="edge">
<title>Node15&#45;&gt;Node2</title>
<path fill="none" stroke="#191970" d="M149.98,-112.352C152.2398,-98.3955 158.2025,-72.4481 172.7318,-56 188.5603,-38.0812 213.0339,-26.2059 232.4667,-19.0169"/>
<polygon fill="#191970" stroke="#191970" points="233.7955,-22.2607 242.0969,-15.6775 231.5021,-15.647 233.7955,-22.2607"/>
</g>
<!-- Node15&#45;&gt;Node9 -->
<g id="edge26" class="edge">
<title>Node15&#45;&gt;Node9</title>
<path fill="none" stroke="#191970" d="M169.0276,-112.4239C200.5571,-97.9509 263.5332,-70.6439 319.7318,-56 362.1114,-44.957 471.1466,-30.4708 550.8479,-20.7304"/>
<polygon fill="#191970" stroke="#191970" points="551.4015,-24.189 560.9058,-19.5073 550.5564,-17.2402 551.4015,-24.189"/>
</g>
<!-- Node15&#45;&gt;Node16 -->
<g id="edge27" class="edge">
<title>Node15&#45;&gt;Node16</title>
<path fill="none" stroke="#191970" d="M134.4485,-112.2455C121.9848,-103.7337 103.6867,-91.2375 89.2527,-81.3801"/>
<polygon fill="#191970" stroke="#191970" points="91.0834,-78.392 80.8515,-75.6427 87.1356,-84.1726 91.0834,-78.392"/>
</g>
<!-- Node17&#45;&gt;Node2 -->
<g id="edge29" class="edge">
<title>Node17&#45;&gt;Node2</title>
<path fill="none" stroke="#191970" d="M401.7186,-112.4406C372.3443,-105.7609 338.2396,-94.5747 311.7318,-76 294.2831,-63.7732 280.5208,-43.3602 272.0796,-28.4676"/>
<polygon fill="#191970" stroke="#191970" points="275.1382,-26.7654 267.3157,-19.6198 268.9748,-30.084 275.1382,-26.7654"/>
</g>
<!-- Node17&#45;&gt;Node5 -->
<g id="edge32" class="edge">
<title>Node17&#45;&gt;Node5</title>
<path fill="none" stroke="#191970" d="M467.8633,-112.4509C471.9592,-94.1013 481.0017,-53.5908 486.4083,-29.3693"/>
<polygon fill="#191970" stroke="#191970" points="489.8431,-30.0472 488.6057,-19.5249 483.0112,-28.5222 489.8431,-30.0472"/>
</g>
<!-- Node17&#45;&gt;Node9 -->
<g id="edge30" class="edge">
<title>Node17&#45;&gt;Node9</title>
<path fill="none" stroke="#191970" d="M477.0808,-112.3507C493.2559,-98.8447 524.1535,-73.9469 552.7318,-56 571.7902,-44.0315 594.341,-32.5099 612.1017,-23.9913"/>
<polygon fill="#191970" stroke="#191970" points="613.879,-27.0225 621.4233,-19.5839 610.8868,-20.6942 613.879,-27.0225"/>
</g>
<!-- Node17&#45;&gt;Node10 -->
<g id="edge31" class="edge">
<title>Node17&#45;&gt;Node10</title>
<path fill="none" stroke="#191970" d="M453.5388,-112.2455C443.0997,-103.8943 427.8664,-91.7076 415.6579,-81.9408"/>
<polygon fill="#191970" stroke="#191970" points="417.7803,-79.1566 407.7852,-75.6427 413.4074,-84.6227 417.7803,-79.1566"/>
</g>
<!-- Node17&#45;&gt;Node11 -->
<g id="edge33" class="edge">
<title>Node17&#45;&gt;Node11</title>
<path fill="none" stroke="#191970" d="M414.3837,-112.4847C377.079,-104.4058 331.205,-91.6439 319.7318,-76 307.7756,-59.6973 323.8717,-39.8619 339.2717,-26.2179"/>
<polygon fill="#191970" stroke="#191970" points="341.6592,-28.7846 347.1092,-19.6989 337.1829,-23.4029 341.6592,-28.7846"/>
</g>
<!-- Node18 -->
<g id="node19" class="node">
<title>Node18</title>
<polygon fill="#ffffff" stroke="#bfbfbf" points="1430.7318,-56.5 1430.7318,-75.5 1558.7318,-75.5 1558.7318,-56.5 1430.7318,-56.5"/>
<text text-anchor="middle" x="1494.7318" y="-63.5" font-family="Helvetica,sans-Serif" font-size="10.00" fill="#000000">AMReX_PhysBCFunct.H</text>
</g>
<!-- Node17&#45;&gt;Node18 -->
<g id="edge34" class="edge">
<title>Node17&#45;&gt;Node18</title>
<path fill="none" stroke="#191970" d="M538.9973,-115.4748C554.4253,-114.2185 570.6075,-112.9881 585.7318,-112 923.169,-89.9553 1008.1278,-95.323 1345.7318,-76 1370.0789,-74.6065 1396.65,-72.8869 1420.5239,-71.2691"/>
<polygon fill="#191970" stroke="#191970" points="1420.8376,-74.7559 1430.5761,-70.5832 1420.361,-67.7722 1420.8376,-74.7559"/>
</g>
<!-- Node20&#45;&gt;Node1 -->
<g id="edge39" class="edge">
<title>Node20&#45;&gt;Node1</title>
<path fill="none" stroke="#191970" d="M1260.6394,-168.4554C1215.1984,-157.7889 1155.0753,-143.6761 1113.0691,-133.8158"/>
<polygon fill="#191970" stroke="#191970" points="1113.8678,-130.4082 1103.3325,-131.5303 1112.2681,-137.223 1113.8678,-130.4082"/>
</g>
<!-- Node20&#45;&gt;Node5 -->
<g id="edge47" class="edge">
<title>Node20&#45;&gt;Node5</title>
<path fill="none" stroke="#191970" d="M1286.8339,-168.4202C1259.4427,-155.2098 1229.8296,-134.626 1245.7318,-112 1275.0223,-70.3247 1380.9259,-92.8259 1345.7318,-56 1316.5049,-25.4179 654.868,-24.5946 552.991,-19.6458"/>
<polygon fill="#191970" stroke="#191970" points="553.1335,-16.1475 542.9211,-18.9684 552.6636,-23.1317 553.1335,-16.1475"/>
</g>
<!-- Node20&#45;&gt;Node9 -->
<g id="edge44" class="edge">
<title>Node20&#45;&gt;Node9</title>
<path fill="none" stroke="#191970" d="M1350.6631,-168.3533C1363.1472,-159.5052 1376.8685,-147.1011 1383.7318,-132 1391.4594,-114.9974 1392.9979,-69.8911 1378.7318,-56 1355.9922,-33.858 926.7538,-18.4151 734.5039,-12.5807"/>
<polygon fill="#191970" stroke="#191970" points="734.5165,-9.0796 724.4156,-12.2768 734.3056,-16.0765 734.5165,-9.0796"/>
</g>
<!-- Node20&#45;&gt;Node13 -->
<g id="edge45" class="edge">
<title>Node20&#45;&gt;Node13</title>
<path fill="none" stroke="#191970" d="M1254.7199,-177.0057C1129.6215,-165.4015 868.6744,-141.196 738.7147,-129.1409"/>
<polygon fill="#191970" stroke="#191970" points="738.7303,-125.6275 728.4498,-128.1888 738.0837,-132.5975 738.7303,-125.6275"/>
</g>
<!-- Node20&#45;&gt;Node18 -->
<g id="edge49" class="edge">
<title>Node20&#45;&gt;Node18</title>
<path fill="none" stroke="#191970" d="M1355.0208,-168.4281C1373.3979,-158.829 1397.0268,-145.6637 1416.7318,-132 1438.6251,-116.819 1461.6763,-96.7345 1476.9915,-82.725"/>
<polygon fill="#191970" stroke="#191970" points="1479.6875,-84.9987 1484.6476,-75.6366 1474.9318,-79.8621 1479.6875,-84.9987"/>
</g>
<!-- Node20&#45;&gt;Node19 -->
<g id="edge46" class="edge">
<title>Node20&#45;&gt;Node19</title>
<path fill="none" stroke="#191970" d="M1254.6335,-173.1369C1175.52,-161.441 1047.9635,-142.5835 971.8455,-131.3305"/>
<polygon fill="#191970" stroke="#191970" points="972.3174,-127.8623 961.913,-129.8621 971.2936,-134.787 972.3174,-127.8623"/>
</g>
<!-- Node20&#45;&gt;Node21 -->
<g id="edge40" class="edge">
<title>Node20&#45;&gt;Node21</title>
<path fill="none" stroke="#191970" d="M1394.7524,-172.4099C1404.4828,-170.9059 1414.3544,-169.3997 1423.7318,-168 1508.6728,-155.3215 1606.27,-141.5771 1671.9608,-132.4462"/>
<polygon fill="#191970" stroke="#191970" points="1672.7994,-135.8634 1682.223,-131.0212 1671.8366,-128.9299 1672.7994,-135.8634"/>
</g>
<!-- Node22 -->
<g id="node23" class="node">
<title>Node22</title>
<polygon fill="#ffffff" stroke="#bfbfbf" points="1680.2318,-56.5 1680.2318,-75.5 1773.2318,-75.5 1773.2318,-56.5 1680.2318,-56.5"/>
<text text-anchor="middle" x="1726.7318" y="-63.5" font-family="Helvetica,sans-Serif" font-size="10.00" fill="#000000">AMReX_REAL.H</text>
</g>
<!-- Node20&#45;&gt;Node22 -->
<g id="edge48" class="edge">
<title>Node20&#45;&gt;Node22</title>
<path fill="none" stroke="#191970" d="M1365.8284,-168.4437C1408.2929,-153.1694 1476.6553,-129.367 1536.7318,-112 1582.2247,-98.8489 1634.5702,-86.3683 1672.7837,-77.7341"/>
<polygon fill="#191970" stroke="#191970" points="1673.684,-81.1192 1682.6746,-75.5138 1672.1508,-74.2892 1673.684,-81.1192"/>
</g>
<!-- Node25 -->
<g id="node26" class="node">
<title>Node25</title>
<polygon fill="#ffffff" stroke="#bfbfbf" points="1254.7318,-112.5 1254.7318,-131.5 1374.7318,-131.5 1374.7318,-112.5 1254.7318,-112.5"/>
<text text-anchor="middle" x="1314.7318" y="-119.5" font-family="Helvetica,sans-Serif" font-size="10.00" fill="#000000">AMReX_FillPatchUtil.H</text>
</g>
<!-- Node20&#45;&gt;Node25 -->
<g id="edge50" class="edge">
<title>Node20&#45;&gt;Node25</title>
<path fill="none" stroke="#191970" d="M1322.2599,-168.2977C1320.9586,-160.2945 1319.3472,-150.3843 1317.9495,-141.7889"/>
<polygon fill="#191970" stroke="#191970" points="1321.3926,-141.1555 1316.333,-131.8469 1314.4833,-142.2791 1321.3926,-141.1555"/>
</g>
<!-- Node21&#45;&gt;Node22 -->
<g id="edge41" class="edge">
<title>Node21&#45;&gt;Node22</title>
<path fill="none" stroke="#191970" d="M1744.0739,-112.2455C1741.2734,-104.7776 1737.3228,-94.2427 1733.8995,-85.1137"/>
<polygon fill="#191970" stroke="#191970" points="1737.1363,-83.777 1730.3478,-75.6427 1730.582,-86.2349 1737.1363,-83.777"/>
</g>
<!-- Node23 -->
<g id="node24" class="node">
<title>Node23</title>
<polygon fill="#ffffff" stroke="#bfbfbf" points="1919.7318,-56.5 1919.7318,-75.5 2045.7318,-75.5 2045.7318,-56.5 1919.7318,-56.5"/>
<text text-anchor="middle" x="1982.7318" y="-63.5" font-family="Helvetica,sans-Serif" font-size="10.00" fill="#000000">AMReX_GpuQualifiers.H</text>
</g>
<!-- Node21&#45;&gt;Node23 -->
<g id="edge42" class="edge">
<title>Node21&#45;&gt;Node23</title>
<path fill="none" stroke="#191970" d="M1787.8628,-112.4369C1827.9967,-102.8731 1889.8093,-88.1432 1933.0251,-77.845"/>
<polygon fill="#191970" stroke="#191970" points="1933.8502,-81.2465 1942.7664,-75.5237 1932.2275,-74.4372 1933.8502,-81.2465"/>
</g>
<!-- Node24 -->
<g id="node25" class="node">
<title>Node24</title>
<polygon fill="#ffffff" stroke="#bfbfbf" points="1791.7318,-56.5 1791.7318,-75.5 1901.7318,-75.5 1901.7318,-56.5 1791.7318,-56.5"/>
<text text-anchor="middle" x="1846.7318" y="-63.5" font-family="Helvetica,sans-Serif" font-size="10.00" fill="#000000">AMReX_Extension.H</text>
</g>
<!-- Node21&#45;&gt;Node24 -->
<g id="edge43" class="edge">
<title>Node21&#45;&gt;Node24</title>
<path fill="none" stroke="#191970" d="M1764.9763,-112.2455C1780.3079,-103.5731 1802.9517,-90.7645 1820.5234,-80.825"/>
<polygon fill="#191970" stroke="#191970" points="1822.7042,-83.6126 1829.685,-75.6427 1819.2577,-77.5198 1822.7042,-83.6126"/>
</g>
<!-- Node26&#45;&gt;Node7 -->
<g id="edge53" class="edge">
<title>Node26&#45;&gt;Node7</title>
<path fill="none" stroke="#191970" d="M1916.5069,-112.4803C1854.4844,-104.085 1762.4387,-91.1037 1672.3875,-76.0471"/>
<polygon fill="#191970" stroke="#191970" points="1672.7123,-72.5527 1662.2702,-74.3452 1671.551,-79.4557 1672.7123,-72.5527"/>
</g>
<!-- Node26&#45;&gt;Node9 -->
<g id="edge52" class="edge">
<title>Node26&#45;&gt;Node9</title>
<path fill="none" stroke="#191970" d="M2010.2965,-112.4786C2036.3709,-99.736 2074.4548,-76.3759 2054.7318,-56 2031.7244,-32.2308 1044.1536,-15.8477 734.554,-11.2884"/>
<polygon fill="#191970" stroke="#191970" points="734.3197,-7.7847 724.2694,-11.1376 734.217,-14.7839 734.3197,-7.7847"/>
</g>
<!-- Node26&#45;&gt;Node18 -->
<g id="edge56" class="edge">
<title>Node26&#45;&gt;Node18</title>
<path fill="none" stroke="#191970" d="M1916.2034,-114.6178C1834.5601,-106.1809 1697.6764,-91.6552 1568.9384,-75.9974"/>
<polygon fill="#191970" stroke="#191970" points="1569.2448,-72.5089 1558.8944,-74.7714 1568.3966,-79.4573 1569.2448,-72.5089"/>
</g>
<!-- Node27 -->
<g id="node28" class="node">
<title>Node27</title>
<polygon fill="#ffffff" stroke="#bfbfbf" points="2102.2318,-56.5 2102.2318,-75.5 2215.2318,-75.5 2215.2318,-56.5 2102.2318,-56.5"/>
<text text-anchor="middle" x="2158.7318" y="-63.5" font-family="Helvetica,sans-Serif" font-size="10.00" fill="#000000">AMReX_FArrayBox.H</text>
</g>
<!-- Node26&#45;&gt;Node27 -->
<g id="edge54" class="edge">
<title>Node26&#45;&gt;Node27</title>
<path fill="none" stroke="#191970" d="M2017.9559,-112.3733C2046.2243,-103.0613 2089.2283,-88.8953 2120.2662,-78.671"/>
<polygon fill="#191970" stroke="#191970" points="2121.4863,-81.9542 2129.8891,-75.5011 2119.2961,-75.3056 2121.4863,-81.9542"/>
</g>
<!-- Node28 -->
<g id="node29" class="node">
<title>Node28</title>
<polygon fill="#ffffff" stroke="#bfbfbf" points="2233.7318,-56.5 2233.7318,-75.5 2343.7318,-75.5 2343.7318,-56.5 2233.7318,-56.5"/>
<text text-anchor="middle" x="2288.7318" y="-63.5" font-family="Helvetica,sans-Serif" font-size="10.00" fill="#000000">AMReX_Geometry.H</text>
</g>
<!-- Node26&#45;&gt;Node28 -->
<g id="edge55" class="edge">
<title>Node26&#45;&gt;Node28</title>
<path fill="none" stroke="#191970" d="M2039.9628,-112.4369C2091.9527,-102.7321 2172.4392,-87.708 2227.6999,-77.3926"/>
<polygon fill="#191970" stroke="#191970" points="2228.5242,-80.7993 2237.7122,-75.5237 2227.2397,-73.9182 2228.5242,-80.7993"/>
</g>
<!-- Node29&#45;&gt;Node1 -->
<g id="edge59" class="edge">
<title>Node29&#45;&gt;Node1</title>
<path fill="none" stroke="#191970" d="M1432.2096,-172.1478C1422.6299,-170.729 1412.9513,-169.3155 1403.7318,-168 1308.6676,-154.436 1198.5376,-139.7691 1129.7447,-130.7325"/>
<polygon fill="#191970" stroke="#191970" points="1129.8551,-127.217 1119.4847,-129.3862 1128.9444,-134.1575 1129.8551,-127.217"/>
</g>
<!-- Node29&#45;&gt;Node8 -->
<g id="edge60" class="edge">
<title>Node29&#45;&gt;Node8</title>
<path fill="none" stroke="#191970" d="M1482.7554,-168.2744C1458.3414,-153.0807 1419.1488,-129.5347 1383.7318,-112 1359.0903,-99.8002 1330.3966,-87.9683 1308.3563,-79.3598"/>
<polygon fill="#191970" stroke="#191970" points="1309.3258,-75.9822 1298.7364,-75.6416 1306.8021,-82.5115 1309.3258,-75.9822"/>
</g>
<!-- Node30 -->
<g id="node31" class="node">
<title>Node30</title>
<polygon fill="#ffffff" stroke="#bfbfbf" points="1545.2318,-112.5 1545.2318,-131.5 1664.2318,-131.5 1664.2318,-112.5 1545.2318,-112.5"/>
<text text-anchor="middle" x="1604.7318" y="-119.5" font-family="Helvetica,sans-Serif" font-size="10.00" fill="#000000">AMReX_BC_TYPES.H</text>
</g>
<!-- Node29&#45;&gt;Node30 -->
<g id="edge61" class="edge">
<title>Node29&#45;&gt;Node30</title>
<path fill="none" stroke="#191970" d="M1530.7053,-168.4554C1545.9094,-158.9141 1565.5078,-146.6151 1580.7193,-137.0691"/>
<polygon fill="#191970" stroke="#191970" points="1582.9355,-139.8105 1589.5453,-131.5303 1579.2146,-133.8813 1582.9355,-139.8105"/>
</g>
</g>
</svg>
