<?xml version="1.0" encoding="UTF-8" standalone="no"?>
<!DOCTYPE svg PUBLIC "-//W3C//DTD SVG 1.1//EN"
 "http://www.w3.org/Graphics/SVG/1.1/DTD/svg11.dtd">
<!-- Generated by graphviz version 2.40.1 (20161225.0304)
 -->
<!-- Title: FieldRepo.H Pages: 1 -->
<svg width="3174pt" height="252pt"
 viewBox="0.00 0.00 3174.00 252.00" xmlns="http://www.w3.org/2000/svg" xmlns:xlink="http://www.w3.org/1999/xlink">
<g id="graph0" class="graph" transform="scale(1 1) rotate(0) translate(4 248)">
<title>FieldRepo.H</title>
<polygon fill="#ffffff" stroke="transparent" points="-4,4 -4,-248 3170,-248 3170,4 -4,4"/>
<!-- Node19 -->
<g id="node1" class="node">
<title>Node19</title>
<polygon fill="#bfbfbf" stroke="#000000" points="1620.5,-224.5 1620.5,-243.5 1691.5,-243.5 1691.5,-224.5 1620.5,-224.5"/>
<text text-anchor="middle" x="1656" y="-231.5" font-family="Helvetica,sans-Serif" font-size="10.00" fill="#000000">FieldRepo.H</text>
</g>
<!-- Node20 -->
<g id="node2" class="node">
<title>Node20</title>
<g id="a_node2"><a xlink:href="_b_c_interface_8cpp.html" target="_top" xlink:title="BCInterface.cpp">
<polygon fill="#ffffff" stroke="#000000" points="0,-112.5 0,-131.5 88,-131.5 88,-112.5 0,-112.5"/>
<text text-anchor="middle" x="44" y="-119.5" font-family="Helvetica,sans-Serif" font-size="10.00" fill="#000000">BCInterface.cpp</text>
</a>
</g>
</g>
<!-- Node19&#45;&gt;Node20 -->
<g id="edge1" class="edge">
<title>Node19&#45;&gt;Node20</title>
<path fill="none" stroke="#191970" d="M1609.9597,-233.6802C1359.6142,-231.8102 170.8033,-221.2043 101,-188 75.8435,-176.0334 57.4032,-147.1731 49.0204,-131.8857"/>
<polygon fill="#191970" stroke="#191970" points="1610.1348,-237.1815 1620.1603,-233.7554 1610.1864,-230.1816 1610.1348,-237.1815"/>
</g>
<!-- Node21 -->
<g id="node3" class="node">
<title>Node21</title>
<g id="a_node3"><a xlink:href="_fixed_gradient_b_c_8_h.html" target="_top" xlink:title="FixedGradientBC.H">
<polygon fill="#ffffff" stroke="#000000" points="110,-168.5 110,-187.5 212,-187.5 212,-168.5 110,-168.5"/>
<text text-anchor="middle" x="161" y="-175.5" font-family="Helvetica,sans-Serif" font-size="10.00" fill="#000000">FixedGradientBC.H</text>
</a>
</g>
</g>
<!-- Node19&#45;&gt;Node21 -->
<g id="edge2" class="edge">
<title>Node19&#45;&gt;Node21</title>
<path fill="none" stroke="#191970" d="M1610.0613,-233.2096C1397.4269,-229.4453 507.3697,-212.4958 230,-188 224.2125,-187.4889 218.1695,-186.8179 212.1703,-186.0649"/>
<polygon fill="#191970" stroke="#191970" points="1610.1848,-236.7123 1620.2449,-233.389 1610.3081,-229.7134 1610.1848,-236.7123"/>
</g>
<!-- Node23 -->
<g id="node5" class="node">
<title>Node23</title>
<g id="a_node5"><a xlink:href="_c_f_d_sim_8_h.html" target="_top" xlink:title="CFDSim.H">
<polygon fill="#ffffff" stroke="#ff0000" points="1176.5,-168.5 1176.5,-187.5 1241.5,-187.5 1241.5,-168.5 1176.5,-168.5"/>
<text text-anchor="middle" x="1209" y="-175.5" font-family="Helvetica,sans-Serif" font-size="10.00" fill="#000000">CFDSim.H</text>
</a>
</g>
</g>
<!-- Node19&#45;&gt;Node23 -->
<g id="edge5" class="edge">
<title>Node19&#45;&gt;Node23</title>
<path fill="none" stroke="#191970" d="M1610.2191,-230.6113C1534.9043,-224.6318 1380.316,-210.6535 1251,-188 1248.0468,-187.4827 1244.991,-186.8828 1241.9369,-186.239"/>
<polygon fill="#191970" stroke="#191970" points="1610.0664,-234.11 1620.3093,-231.402 1610.6134,-227.1314 1610.0664,-234.11"/>
</g>
<!-- Node24 -->
<g id="node6" class="node">
<title>Node24</title>
<g id="a_node6"><a xlink:href="incflo_8_h.html" target="_top" xlink:title="incflo.H">
<polygon fill="#ffffff" stroke="#ff0000" points="784,-112.5 784,-131.5 834,-131.5 834,-112.5 784,-112.5"/>
<text text-anchor="middle" x="809" y="-119.5" font-family="Helvetica,sans-Serif" font-size="10.00" fill="#000000">incflo.H</text>
</a>
</g>
</g>
<!-- Node19&#45;&gt;Node24 -->
<g id="edge33" class="edge">
<title>Node19&#45;&gt;Node24</title>
<path fill="none" stroke="#191970" d="M1610.2804,-230.8542C1523.5949,-224.6339 1329.4657,-209.4795 1167,-188 1020.3886,-168.6166 982.4556,-167.9321 839,-132 837.4023,-131.5998 835.7671,-131.1561 834.1251,-130.6846"/>
<polygon fill="#191970" stroke="#191970" points="1610.0864,-234.3492 1620.3098,-231.5683 1610.5837,-227.3669 1610.0864,-234.3492"/>
</g>
<!-- Node57 -->
<g id="node10" class="node">
<title>Node57</title>
<g id="a_node10"><a xlink:href="_a_b_l_mean_boussinesq_8_h.html" target="_top" xlink:title="ABLMeanBoussinesq.H">
<polygon fill="#ffffff" stroke="#ff0000" points="333.5,-56.5 333.5,-75.5 454.5,-75.5 454.5,-56.5 333.5,-56.5"/>
<text text-anchor="middle" x="394" y="-63.5" font-family="Helvetica,sans-Serif" font-size="10.00" fill="#000000">ABLMeanBoussinesq.H</text>
</a>
</g>
</g>
<!-- Node19&#45;&gt;Node57 -->
<g id="edge59" class="edge">
<title>Node19&#45;&gt;Node57</title>
<path fill="none" stroke="#191970" d="M1610.0243,-233.5285C1395.0664,-231.1657 494.4778,-219.4543 373,-188 319.8918,-174.2487 291.6722,-178.7706 263,-132 243.3013,-99.8671 290.1632,-82.8288 333.2088,-74.1717"/>
<polygon fill="#191970" stroke="#191970" points="1610.2803,-237.0314 1620.3177,-233.6403 1610.3563,-230.0318 1610.2803,-237.0314"/>
</g>
<!-- Node95 -->
<g id="node22" class="node">
<title>Node95</title>
<g id="a_node22"><a xlink:href="_p_d_e_base_8cpp.html" target="_top" xlink:title="PDEBase.cpp">
<polygon fill="#ffffff" stroke="#000000" points="2118.5,-112.5 2118.5,-131.5 2197.5,-131.5 2197.5,-112.5 2118.5,-112.5"/>
<text text-anchor="middle" x="2158" y="-119.5" font-family="Helvetica,sans-Serif" font-size="10.00" fill="#000000">PDEBase.cpp</text>
</a>
</g>
</g>
<!-- Node19&#45;&gt;Node95 -->
<g id="edge63" class="edge">
<title>Node19&#45;&gt;Node95</title>
<path fill="none" stroke="#191970" d="M1610.0336,-232.7706C1542.3798,-229.8825 1421.0624,-220.2277 1394,-188 1388.2838,-181.1928 1387.8747,-174.4415 1394,-168 1448.8144,-110.3563 2030.0836,-141.9814 2109,-132 2112.0148,-131.6187 2115.1211,-131.1547 2118.2376,-130.6378"/>
<polygon fill="#191970" stroke="#191970" points="1610.2784,-236.2829 1620.4082,-233.1785 1610.5534,-229.2883 1610.2784,-236.2829"/>
</g>
<!-- Node100 -->
<g id="node26" class="node">
<title>Node100</title>
<g id="a_node26"><a xlink:href="_tioga_interface_8cpp.html" target="_top" xlink:title="TiogaInterface.cpp">
<polygon fill="#ffffff" stroke="#000000" points="2215,-112.5 2215,-131.5 2313,-131.5 2313,-112.5 2215,-112.5"/>
<text text-anchor="middle" x="2264" y="-119.5" font-family="Helvetica,sans-Serif" font-size="10.00" fill="#000000">TiogaInterface.cpp</text>
</a>
</g>
</g>
<!-- Node19&#45;&gt;Node100 -->
<g id="edge68" class="edge">
<title>Node19&#45;&gt;Node100</title>
<path fill="none" stroke="#191970" d="M1610.3025,-231.4767C1550.2492,-227.0959 1449.7117,-215.7275 1427,-188 1421.3674,-181.1235 1420.8612,-174.4287 1427,-168 1456.9585,-136.6269 2163.8822,-136.7576 2207,-132 2209.5965,-131.7135 2212.2535,-131.3821 2214.9319,-131.0177"/>
<polygon fill="#191970" stroke="#191970" points="1610.0776,-234.9694 1620.2956,-232.1687 1610.5613,-227.9862 1610.0776,-234.9694"/>
</g>
<!-- Node128 -->
<g id="node27" class="node">
<title>Node128</title>
<g id="a_node27"><a xlink:href="_godunov_8_h.html" target="_top" xlink:title="Godunov.H">
<polygon fill="#ffffff" stroke="#ff0000" points="1436,-168.5 1436,-187.5 1502,-187.5 1502,-168.5 1436,-168.5"/>
<text text-anchor="middle" x="1469" y="-175.5" font-family="Helvetica,sans-Serif" font-size="10.00" fill="#000000">Godunov.H</text>
</a>
</g>
</g>
<!-- Node19&#45;&gt;Node128 -->
<g id="edge34" class="edge">
<title>Node19&#45;&gt;Node128</title>
<path fill="none" stroke="#191970" d="M1614.1123,-221.4561C1579.7857,-211.1765 1531.9435,-196.8494 1500.727,-187.5011"/>
<polygon fill="#191970" stroke="#191970" points="1613.2698,-224.8573 1623.8536,-224.3733 1615.278,-218.1515 1613.2698,-224.8573"/>
</g>
<!-- Node133 -->
<g id="node28" class="node">
<title>Node133</title>
<g id="a_node28"><a xlink:href="mac__projection_8_h.html" target="_top" xlink:title="mac_projection.H">
<polygon fill="#ffffff" stroke="#ff0000" points="1520.5,-168.5 1520.5,-187.5 1613.5,-187.5 1613.5,-168.5 1520.5,-168.5"/>
<text text-anchor="middle" x="1567" y="-175.5" font-family="Helvetica,sans-Serif" font-size="10.00" fill="#000000">mac_projection.H</text>
</a>
</g>
</g>
<!-- Node19&#45;&gt;Node133 -->
<g id="edge35" class="edge">
<title>Node19&#45;&gt;Node133</title>
<path fill="none" stroke="#191970" d="M1631.7936,-218.769C1616.0225,-208.8456 1595.924,-196.1994 1582.325,-187.6427"/>
<polygon fill="#191970" stroke="#191970" points="1630.1695,-221.8823 1640.4974,-224.2455 1633.8974,-215.9575 1630.1695,-221.8823"/>
</g>
<!-- Node135 -->
<g id="node29" class="node">
<title>Node135</title>
<g id="a_node29"><a xlink:href="_m_o_l_8_h.html" target="_top" xlink:title="MOL.H">
<polygon fill="#ffffff" stroke="#ff0000" points="1632,-168.5 1632,-187.5 1680,-187.5 1680,-168.5 1632,-168.5"/>
<text text-anchor="middle" x="1656" y="-175.5" font-family="Helvetica,sans-Serif" font-size="10.00" fill="#000000">MOL.H</text>
</a>
</g>
</g>
<!-- Node19&#45;&gt;Node135 -->
<g id="edge36" class="edge">
<title>Node19&#45;&gt;Node135</title>
<path fill="none" stroke="#191970" d="M1656,-214.1575C1656,-205.155 1656,-194.9199 1656,-187.6427"/>
<polygon fill="#191970" stroke="#191970" points="1652.5001,-214.2455 1656,-224.2455 1659.5001,-214.2456 1652.5001,-214.2455"/>
</g>
<!-- Node138 -->
<g id="node30" class="node">
<title>Node138</title>
<g id="a_node30"><a xlink:href="_field_8cpp.html" target="_top" xlink:title="Field.cpp">
<polygon fill="#ffffff" stroke="#000000" points="1698,-168.5 1698,-187.5 1754,-187.5 1754,-168.5 1698,-168.5"/>
<text text-anchor="middle" x="1726" y="-175.5" font-family="Helvetica,sans-Serif" font-size="10.00" fill="#000000">Field.cpp</text>
</a>
</g>
</g>
<!-- Node19&#45;&gt;Node138 -->
<g id="edge37" class="edge">
<title>Node19&#45;&gt;Node138</title>
<path fill="none" stroke="#191970" d="M1676.09,-217.928C1688.3253,-208.1397 1703.5507,-195.9595 1713.9467,-187.6427"/>
<polygon fill="#191970" stroke="#191970" points="1673.8153,-215.2655 1668.1931,-224.2455 1678.1882,-220.7316 1673.8153,-215.2655"/>
</g>
<!-- Node139 -->
<g id="node31" class="node">
<title>Node139</title>
<g id="a_node31"><a xlink:href="_field_repo_8cpp.html" target="_top" xlink:title="FieldRepo.cpp">
<polygon fill="#ffffff" stroke="#000000" points="1772,-168.5 1772,-187.5 1852,-187.5 1852,-168.5 1772,-168.5"/>
<text text-anchor="middle" x="1812" y="-175.5" font-family="Helvetica,sans-Serif" font-size="10.00" fill="#000000">FieldRepo.cpp</text>
</a>
</g>
</g>
<!-- Node19&#45;&gt;Node139 -->
<g id="edge38" class="edge">
<title>Node19&#45;&gt;Node139</title>
<path fill="none" stroke="#191970" d="M1692.4284,-220.9231C1720.9461,-210.686 1759.9381,-196.6889 1785.5326,-187.5011"/>
<polygon fill="#191970" stroke="#191970" points="1691.0468,-217.7004 1682.8174,-224.3733 1693.4119,-224.2887 1691.0468,-217.7004"/>
</g>
<!-- Node140 -->
<g id="node32" class="node">
<title>Node140</title>
<g id="a_node32"><a xlink:href="_int_field_8cpp.html" target="_top" xlink:title="IntField.cpp">
<polygon fill="#ffffff" stroke="#000000" points="1870,-168.5 1870,-187.5 1938,-187.5 1938,-168.5 1870,-168.5"/>
<text text-anchor="middle" x="1904" y="-175.5" font-family="Helvetica,sans-Serif" font-size="10.00" fill="#000000">IntField.cpp</text>
</a>
</g>
</g>
<!-- Node19&#45;&gt;Node140 -->
<g id="edge39" class="edge">
<title>Node19&#45;&gt;Node140</title>
<path fill="none" stroke="#191970" d="M1701.3929,-223.9203C1742.9488,-214.6674 1806.1398,-200.5339 1861,-188 1863.8393,-187.3513 1866.7832,-186.6748 1869.738,-185.9932"/>
<polygon fill="#191970" stroke="#191970" points="1700.5727,-220.5171 1691.5718,-226.1059 1702.0933,-227.35 1700.5727,-220.5171"/>
</g>
<!-- Node141 -->
<g id="node33" class="node">
<title>Node141</title>
<g id="a_node33"><a xlink:href="_scratch_field_8cpp.html" target="_top" xlink:title="ScratchField.cpp">
<polygon fill="#ffffff" stroke="#000000" points="1956,-168.5 1956,-187.5 2046,-187.5 2046,-168.5 1956,-168.5"/>
<text text-anchor="middle" x="2001" y="-175.5" font-family="Helvetica,sans-Serif" font-size="10.00" fill="#000000">ScratchField.cpp</text>
</a>
</g>
</g>
<!-- Node19&#45;&gt;Node141 -->
<g id="edge40" class="edge">
<title>Node19&#45;&gt;Node141</title>
<path fill="none" stroke="#191970" d="M1702.091,-227.0974C1759.5201,-218.4086 1860.6273,-202.8215 1947,-188 1949.9131,-187.5001 1952.9125,-186.9747 1955.9346,-186.4372"/>
<polygon fill="#191970" stroke="#191970" points="1701.2548,-223.6839 1691.8894,-228.6378 1702.2999,-230.6055 1701.2548,-223.6839"/>
</g>
<!-- Node142 -->
<g id="node34" class="node">
<title>Node142</title>
<g id="a_node34"><a xlink:href="_view_field_8cpp.html" target="_top" xlink:title="ViewField.cpp">
<polygon fill="#ffffff" stroke="#000000" points="2064,-168.5 2064,-187.5 2142,-187.5 2142,-168.5 2064,-168.5"/>
<text text-anchor="middle" x="2103" y="-175.5" font-family="Helvetica,sans-Serif" font-size="10.00" fill="#000000">ViewField.cpp</text>
</a>
</g>
</g>
<!-- Node19&#45;&gt;Node142 -->
<g id="edge41" class="edge">
<title>Node19&#45;&gt;Node142</title>
<path fill="none" stroke="#191970" d="M1701.6057,-230.0979C1775.9137,-223.4363 1927.6177,-208.5684 2055,-188 2057.8572,-187.5387 2060.8021,-187.0235 2063.761,-186.4769"/>
<polygon fill="#191970" stroke="#191970" points="1701.2957,-226.6116 1691.6448,-230.9832 1701.9154,-233.5841 1701.2957,-226.6116"/>
</g>
<!-- Node143 -->
<g id="node35" class="node">
<title>Node143</title>
<g id="a_node35"><a xlink:href="field__algebra_8cpp.html" target="_top" xlink:title="field_algebra.cpp">
<polygon fill="#ffffff" stroke="#000000" points="2160,-168.5 2160,-187.5 2250,-187.5 2250,-168.5 2160,-168.5"/>
<text text-anchor="middle" x="2205" y="-175.5" font-family="Helvetica,sans-Serif" font-size="10.00" fill="#000000">field_algebra.cpp</text>
</a>
</g>
</g>
<!-- Node19&#45;&gt;Node143 -->
<g id="edge42" class="edge">
<title>Node19&#45;&gt;Node143</title>
<path fill="none" stroke="#191970" d="M1701.6541,-231.1436C1789.1267,-225.3642 1986.2909,-210.8563 2151,-188 2153.9276,-187.5937 2156.938,-187.1392 2159.9683,-186.6541"/>
<polygon fill="#191970" stroke="#191970" points="1701.2903,-227.6598 1691.5401,-231.8051 1701.7472,-234.6449 1701.2903,-227.6598"/>
</g>
<!-- Node144 -->
<g id="node36" class="node">
<title>Node144</title>
<g id="a_node36"><a xlink:href="diffusion_8_h.html" target="_top" xlink:title="diffusion.H">
<polygon fill="#ffffff" stroke="#ff0000" points="2268,-168.5 2268,-187.5 2332,-187.5 2332,-168.5 2268,-168.5"/>
<text text-anchor="middle" x="2300" y="-175.5" font-family="Helvetica,sans-Serif" font-size="10.00" fill="#000000">diffusion.H</text>
</a>
</g>
</g>
<!-- Node19&#45;&gt;Node144 -->
<g id="edge43" class="edge">
<title>Node19&#45;&gt;Node144</title>
<path fill="none" stroke="#191970" d="M1701.7443,-233.0521C1802.8459,-230.4025 2052.7012,-220.8025 2259,-188 2261.8943,-187.5398 2264.8852,-186.9793 2267.8717,-186.361"/>
<polygon fill="#191970" stroke="#191970" points="1701.4867,-229.5573 1691.5779,-233.308 1701.6629,-236.5551 1701.4867,-229.5573"/>
</g>
<!-- Node145 -->
<g id="node37" class="node">
<title>Node145</title>
<g id="a_node37"><a xlink:href="_source_term_8_h.html" target="_top" xlink:title="SourceTerm.H">
<polygon fill="#ffffff" stroke="#ff0000" points="2350,-168.5 2350,-187.5 2430,-187.5 2430,-168.5 2350,-168.5"/>
<text text-anchor="middle" x="2390" y="-175.5" font-family="Helvetica,sans-Serif" font-size="10.00" fill="#000000">SourceTerm.H</text>
</a>
</g>
</g>
<!-- Node19&#45;&gt;Node145 -->
<g id="edge44" class="edge">
<title>Node19&#45;&gt;Node145</title>
<path fill="none" stroke="#191970" d="M1701.9579,-233.0421C1812.5057,-230.2756 2101.8439,-220.2851 2341,-188 2343.9254,-187.6051 2346.9381,-187.1387 2349.9633,-186.6267"/>
<polygon fill="#191970" stroke="#191970" points="1701.7378,-229.5463 1691.8256,-233.2878 1701.9075,-236.5443 1701.7378,-229.5463"/>
</g>
<!-- Node147 -->
<g id="node38" class="node">
<title>Node147</title>
<g id="a_node38"><a xlink:href="_p_d_e_helpers_8_h.html" target="_top" xlink:title="PDEHelpers.H">
<polygon fill="#ffffff" stroke="#ff0000" points="1260,-168.5 1260,-187.5 1342,-187.5 1342,-168.5 1260,-168.5"/>
<text text-anchor="middle" x="1301" y="-175.5" font-family="Helvetica,sans-Serif" font-size="10.00" fill="#000000">PDEHelpers.H</text>
</a>
</g>
</g>
<!-- Node19&#45;&gt;Node147 -->
<g id="edge45" class="edge">
<title>Node19&#45;&gt;Node147</title>
<path fill="none" stroke="#191970" d="M1610.3029,-227.3952C1551.431,-218.7939 1445.9595,-203.0721 1356,-188 1351.5013,-187.2463 1346.8006,-186.4322 1342.1237,-185.6054"/>
<polygon fill="#191970" stroke="#191970" points="1609.9894,-230.8864 1620.3898,-228.8658 1610.9993,-223.9596 1609.9894,-230.8864"/>
</g>
<!-- Node148 -->
<g id="node39" class="node">
<title>Node148</title>
<g id="a_node39"><a xlink:href="_density_source_8_h.html" target="_top" xlink:title="DensitySource.H">
<polygon fill="#ffffff" stroke="#ff0000" points="2448,-168.5 2448,-187.5 2540,-187.5 2540,-168.5 2448,-168.5"/>
<text text-anchor="middle" x="2494" y="-175.5" font-family="Helvetica,sans-Serif" font-size="10.00" fill="#000000">DensitySource.H</text>
</a>
</g>
</g>
<!-- Node19&#45;&gt;Node148 -->
<g id="edge48" class="edge">
<title>Node19&#45;&gt;Node148</title>
<path fill="none" stroke="#191970" d="M1701.6446,-233.2492C1822.4101,-230.8457 2160.1555,-221.4156 2439,-188 2441.8909,-187.6536 2444.8595,-187.251 2447.848,-186.8102"/>
<polygon fill="#191970" stroke="#191970" points="1701.5757,-229.7498 1691.645,-233.4419 1701.7106,-236.7485 1701.5757,-229.7498"/>
</g>
<!-- Node149 -->
<g id="node40" class="node">
<title>Node149</title>
<g id="a_node40"><a xlink:href="_momentum_source_8_h.html" target="_top" xlink:title="MomentumSource.H">
<polygon fill="#ffffff" stroke="#ff0000" points="429.5,-168.5 429.5,-187.5 536.5,-187.5 536.5,-168.5 429.5,-168.5"/>
<text text-anchor="middle" x="483" y="-175.5" font-family="Helvetica,sans-Serif" font-size="10.00" fill="#000000">MomentumSource.H</text>
</a>
</g>
</g>
<!-- Node19&#45;&gt;Node149 -->
<g id="edge49" class="edge">
<title>Node19&#45;&gt;Node149</title>
<path fill="none" stroke="#191970" d="M1610.0081,-231.9282C1469.7651,-225.5924 1035.1494,-205.8226 675,-188 628.3272,-185.6903 575.2809,-182.9161 536.7907,-180.8762"/>
<polygon fill="#191970" stroke="#191970" points="1610.2153,-235.441 1620.363,-232.3957 1610.5311,-228.4481 1610.2153,-235.441"/>
</g>
<!-- Node152 -->
<g id="node41" class="node">
<title>Node152</title>
<g id="a_node41"><a xlink:href="_boussinesq_buoyancy_8_h.html" target="_top" xlink:title="BoussinesqBuoyancy.H">
<polygon fill="#ffffff" stroke="#000000" points="412,-112.5 412,-131.5 534,-131.5 534,-112.5 412,-112.5"/>
<text text-anchor="middle" x="473" y="-119.5" font-family="Helvetica,sans-Serif" font-size="10.00" fill="#000000">BoussinesqBuoyancy.H</text>
</a>
</g>
</g>
<!-- Node19&#45;&gt;Node152 -->
<g id="edge60" class="edge">
<title>Node19&#45;&gt;Node152</title>
<path fill="none" stroke="#191970" d="M1610.0163,-232.4829C1454.7902,-227.2164 950.9114,-208.9011 790,-188 687.4263,-174.6765 568.5396,-146.4098 509.7796,-131.5637"/>
<polygon fill="#191970" stroke="#191970" points="1610.0432,-235.9857 1620.1556,-232.8251 1610.2794,-228.9897 1610.0432,-235.9857"/>
</g>
<!-- Node153 -->
<g id="node42" class="node">
<title>Node153</title>
<g id="a_node42"><a xlink:href="_coriolis_forcing_8_h.html" target="_top" xlink:title="CoriolisForcing.H">
<polygon fill="#ffffff" stroke="#000000" points="552,-112.5 552,-131.5 644,-131.5 644,-112.5 552,-112.5"/>
<text text-anchor="middle" x="598" y="-119.5" font-family="Helvetica,sans-Serif" font-size="10.00" fill="#000000">CoriolisForcing.H</text>
</a>
</g>
</g>
<!-- Node19&#45;&gt;Node153 -->
<g id="edge61" class="edge">
<title>Node19&#45;&gt;Node153</title>
<path fill="none" stroke="#191970" d="M1610.0256,-233.6196C1492.0289,-232.1186 1169.0556,-224.6958 903,-188 804.5176,-174.4168 690.5106,-146.3957 633.8351,-131.6139"/>
<polygon fill="#191970" stroke="#191970" points="1610.1011,-237.1207 1620.1421,-233.74 1610.1845,-230.1212 1610.1011,-237.1207"/>
</g>
<!-- Node154 -->
<g id="node43" class="node">
<title>Node154</title>
<g id="a_node43"><a xlink:href="_density_buoyancy_8_h.html" target="_top" xlink:title="DensityBuoyancy.H">
<polygon fill="#ffffff" stroke="#000000" points="662,-112.5 662,-131.5 766,-131.5 766,-112.5 662,-112.5"/>
<text text-anchor="middle" x="714" y="-119.5" font-family="Helvetica,sans-Serif" font-size="10.00" fill="#000000">DensityBuoyancy.H</text>
</a>
</g>
</g>
<!-- Node19&#45;&gt;Node154 -->
<g id="edge62" class="edge">
<title>Node19&#45;&gt;Node154</title>
<path fill="none" stroke="#191970" d="M1610.0717,-232.9745C1504.4832,-230.1225 1236.5143,-220.0631 1015,-188 918.1076,-173.9753 805.9296,-146.2754 749.8318,-131.6183"/>
<polygon fill="#191970" stroke="#191970" points="1610.2795,-236.4811 1620.3675,-233.2435 1610.4624,-229.4834 1610.2795,-236.4811"/>
</g>
<!-- Node156 -->
<g id="node44" class="node">
<title>Node156</title>
<g id="a_node44"><a xlink:href="_m_m_s_forcing_8_h.html" target="_top" xlink:title="MMSForcing.H">
<polygon fill="#ffffff" stroke="#ff0000" points="272.5,-112.5 272.5,-131.5 355.5,-131.5 355.5,-112.5 272.5,-112.5"/>
<text text-anchor="middle" x="314" y="-119.5" font-family="Helvetica,sans-Serif" font-size="10.00" fill="#000000">MMSForcing.H</text>
</a>
</g>
</g>
<!-- Node19&#45;&gt;Node156 -->
<g id="edge67" class="edge">
<title>Node19&#45;&gt;Node156</title>
<path fill="none" stroke="#191970" d="M1610.2788,-233.6888C1400.4915,-232.0735 535.3461,-223.3083 420,-188 381.6513,-176.2612 343.3719,-147.0213 325.0885,-131.7053"/>
<polygon fill="#191970" stroke="#191970" points="1610.3103,-237.189 1620.3365,-233.7645 1610.3631,-230.1892 1610.3103,-237.189"/>
</g>
<!-- Node157 -->
<g id="node45" class="node">
<title>Node157</title>
<g id="a_node45"><a xlink:href="fvm__utils_8_h.html" target="_top" xlink:title="fvm_utils.H">
<polygon fill="#ffffff" stroke="#ff0000" points="2558.5,-168.5 2558.5,-187.5 2625.5,-187.5 2625.5,-168.5 2558.5,-168.5"/>
<text text-anchor="middle" x="2592" y="-175.5" font-family="Helvetica,sans-Serif" font-size="10.00" fill="#000000">fvm_utils.H</text>
</a>
</g>
</g>
<!-- Node19&#45;&gt;Node157 -->
<g id="edge58" class="edge">
<title>Node19&#45;&gt;Node157</title>
<path fill="none" stroke="#191970" d="M1702.3529,-232.6975C1861.2051,-228.0638 2382.9527,-211.3966 2549,-188 2552.0358,-187.5722 2555.1727,-187.034 2558.3051,-186.4303"/>
<polygon fill="#191970" stroke="#191970" points="1701.8809,-229.2096 1691.9865,-232.9977 1702.0837,-236.2066 1701.8809,-229.2096"/>
</g>
<!-- Node165 -->
<g id="node46" class="node">
<title>Node165</title>
<g id="a_node46"><a xlink:href="_s_d_r_source_8_h.html" target="_top" xlink:title="SDRSource.H">
<polygon fill="#ffffff" stroke="#ff0000" points="2644,-168.5 2644,-187.5 2724,-187.5 2724,-168.5 2644,-168.5"/>
<text text-anchor="middle" x="2684" y="-175.5" font-family="Helvetica,sans-Serif" font-size="10.00" fill="#000000">SDRSource.H</text>
</a>
</g>
</g>
<!-- Node19&#45;&gt;Node165 -->
<g id="edge64" class="edge">
<title>Node19&#45;&gt;Node165</title>
<path fill="none" stroke="#191970" d="M1701.9747,-232.7828C1870.0435,-228.1862 2450.8989,-210.9714 2635,-188 2637.9293,-187.6345 2640.9448,-187.1897 2643.9719,-186.6931"/>
<polygon fill="#191970" stroke="#191970" points="1701.64,-229.2905 1691.7388,-233.0611 1701.8303,-236.2879 1701.64,-229.2905"/>
</g>
<!-- Node166 -->
<g id="node47" class="node">
<title>Node166</title>
<g id="a_node47"><a xlink:href="_temperature_source_8_h.html" target="_top" xlink:title="TemperatureSource.H">
<polygon fill="#ffffff" stroke="#ff0000" points="2742.5,-168.5 2742.5,-187.5 2855.5,-187.5 2855.5,-168.5 2742.5,-168.5"/>
<text text-anchor="middle" x="2799" y="-175.5" font-family="Helvetica,sans-Serif" font-size="10.00" fill="#000000">TemperatureSource.H</text>
</a>
</g>
</g>
<!-- Node19&#45;&gt;Node166 -->
<g id="edge65" class="edge">
<title>Node19&#45;&gt;Node166</title>
<path fill="none" stroke="#191970" d="M1701.7657,-232.7034C1880.0214,-227.5511 2528.1006,-207.8403 2733,-188 2735.9991,-187.7096 2739.0699,-187.375 2742.1667,-187.0083"/>
<polygon fill="#191970" stroke="#191970" points="1701.5746,-229.2074 1691.6795,-232.9939 1701.7761,-236.2045 1701.5746,-229.2074"/>
</g>
<!-- Node167 -->
<g id="node48" class="node">
<title>Node167</title>
<g id="a_node48"><a xlink:href="_t_k_e_source_8_h.html" target="_top" xlink:title="TKESource.H">
<polygon fill="#ffffff" stroke="#ff0000" points="2873.5,-168.5 2873.5,-187.5 2950.5,-187.5 2950.5,-168.5 2873.5,-168.5"/>
<text text-anchor="middle" x="2912" y="-175.5" font-family="Helvetica,sans-Serif" font-size="10.00" fill="#000000">TKESource.H</text>
</a>
</g>
</g>
<!-- Node19&#45;&gt;Node167 -->
<g id="edge66" class="edge">
<title>Node19&#45;&gt;Node167</title>
<path fill="none" stroke="#191970" d="M1701.6479,-233.312C1893.2755,-230.262 2633.4631,-216.8198 2865,-188 2867.7319,-187.66 2870.5405,-187.2414 2873.3606,-186.7703"/>
<polygon fill="#191970" stroke="#191970" points="1701.578,-229.8126 1691.6344,-233.4698 1701.6883,-236.8117 1701.578,-229.8126"/>
</g>
<!-- Node170 -->
<g id="node49" class="node">
<title>Node170</title>
<g id="a_node49"><a xlink:href="_transport_model_8_h.html" target="_top" xlink:title="TransportModel.H">
<polygon fill="#ffffff" stroke="#ff0000" points="2968.5,-168.5 2968.5,-187.5 3063.5,-187.5 3063.5,-168.5 2968.5,-168.5"/>
<text text-anchor="middle" x="3016" y="-175.5" font-family="Helvetica,sans-Serif" font-size="10.00" fill="#000000">TransportModel.H</text>
</a>
</g>
</g>
<!-- Node19&#45;&gt;Node170 -->
<g id="edge69" class="edge">
<title>Node19&#45;&gt;Node170</title>
<path fill="none" stroke="#191970" d="M1701.5496,-232.7764C1917.4951,-226.9237 2832.9789,-201.513 2960,-188 2962.7498,-187.7075 2965.5679,-187.3593 2968.4067,-186.9712"/>
<polygon fill="#191970" stroke="#191970" points="1701.4109,-229.2788 1691.5093,-233.0481 1701.6004,-236.2762 1701.4109,-229.2788"/>
</g>
<!-- Node117 -->
<g id="node50" class="node">
<title>Node117</title>
<g id="a_node50"><a xlink:href="_smagorinsky_8_h.html" target="_top" xlink:title="Smagorinsky.H">
<polygon fill="#ffffff" stroke="#ff0000" points="3082,-168.5 3082,-187.5 3166,-187.5 3166,-168.5 3082,-168.5"/>
<text text-anchor="middle" x="3124" y="-175.5" font-family="Helvetica,sans-Serif" font-size="10.00" fill="#000000">Smagorinsky.H</text>
</a>
</g>
</g>
<!-- Node19&#45;&gt;Node117 -->
<g id="edge70" class="edge">
<title>Node19&#45;&gt;Node117</title>
<path fill="none" stroke="#191970" d="M1701.6795,-233.5083C1913.1095,-231.0803 2798.0721,-219.21 3073,-188 3075.8689,-187.6743 3078.8174,-187.2738 3081.7808,-186.8223"/>
<polygon fill="#191970" stroke="#191970" points="1701.5131,-230.0098 1691.5535,-233.6232 1701.5927,-237.0094 1701.5131,-230.0098"/>
</g>
<!-- Node21&#45;&gt;Node20 -->
<g id="edge3" class="edge">
<title>Node21&#45;&gt;Node20</title>
<path fill="none" stroke="#191970" d="M131.6958,-163.9741C110.512,-153.8348 82.4597,-140.408 63.8506,-131.5011"/>
<polygon fill="#191970" stroke="#191970" points="130.3559,-167.2129 140.887,-168.3733 133.378,-160.8989 130.3559,-167.2129"/>
</g>
<!-- Node22 -->
<g id="node4" class="node">
<title>Node22</title>
<g id="a_node4"><a xlink:href="_fixed_gradient_b_c_8cpp.html" target="_top" xlink:title="FixedGradientBC.cpp">
<polygon fill="#ffffff" stroke="#000000" points="106,-112.5 106,-131.5 216,-131.5 216,-112.5 106,-112.5"/>
<text text-anchor="middle" x="161" y="-119.5" font-family="Helvetica,sans-Serif" font-size="10.00" fill="#000000">FixedGradientBC.cpp</text>
</a>
</g>
</g>
<!-- Node21&#45;&gt;Node22 -->
<g id="edge4" class="edge">
<title>Node21&#45;&gt;Node22</title>
<path fill="none" stroke="#191970" d="M161,-158.1575C161,-149.155 161,-138.9199 161,-131.6427"/>
<polygon fill="#191970" stroke="#191970" points="157.5001,-158.2455 161,-168.2455 164.5001,-158.2456 157.5001,-158.2455"/>
</g>
<!-- Node23&#45;&gt;Node24 -->
<g id="edge6" class="edge">
<title>Node23&#45;&gt;Node24</title>
<path fill="none" stroke="#191970" d="M1166.131,-174.2768C1098.238,-167.9906 961.9821,-153.7877 848,-132 843.4687,-131.1338 838.6817,-130.0496 834.0719,-128.9174"/>
<polygon fill="#191970" stroke="#191970" points="1166.1496,-177.793 1176.4266,-175.2177 1166.7867,-170.8221 1166.1496,-177.793"/>
</g>
<!-- Node44 -->
<g id="node7" class="node">
<title>Node44</title>
<g id="a_node7"><a xlink:href="_a_b_l_wall_function_8_h.html" target="_top" xlink:title="ABLWallFunction.H">
<polygon fill="#ffffff" stroke="#ff0000" points="1436.5,-56.5 1436.5,-75.5 1539.5,-75.5 1539.5,-56.5 1436.5,-56.5"/>
<text text-anchor="middle" x="1488" y="-63.5" font-family="Helvetica,sans-Serif" font-size="10.00" fill="#000000">ABLWallFunction.H</text>
</a>
</g>
</g>
<!-- Node23&#45;&gt;Node44 -->
<g id="edge7" class="edge">
<title>Node23&#45;&gt;Node44</title>
<path fill="none" stroke="#191970" d="M1185.5389,-162.1385C1167.9339,-148.3203 1149.07,-128.0405 1163,-112 1180.655,-91.6701 1349.3855,-76.2859 1436.4961,-69.6257"/>
<polygon fill="#191970" stroke="#191970" points="1183.8124,-165.2153 1193.931,-168.3561 1187.9795,-159.5908 1183.8124,-165.2153"/>
</g>
<!-- Node49 -->
<g id="node8" class="node">
<title>Node49</title>
<g id="a_node8"><a xlink:href="_a_b_l_stats_8_h.html" target="_top" xlink:title="ABLStats.H">
<polygon fill="#ffffff" stroke="#ff0000" points="1533.5,-.5 1533.5,-19.5 1602.5,-19.5 1602.5,-.5 1533.5,-.5"/>
<text text-anchor="middle" x="1568" y="-7.5" font-family="Helvetica,sans-Serif" font-size="10.00" fill="#000000">ABLStats.H</text>
</a>
</g>
</g>
<!-- Node23&#45;&gt;Node49 -->
<g id="edge15" class="edge">
<title>Node23&#45;&gt;Node49</title>
<path fill="none" stroke="#191970" d="M1252.1229,-168.4462C1352.2415,-159.8808 1799.5585,-178.1634 1843,-132 1917.0937,-53.2637 1691.5624,-22.0923 1602.5117,-13.044"/>
<polygon fill="#191970" stroke="#191970" points="1251.456,-164.9991 1241.9102,-169.5956 1252.2389,-171.9552 1251.456,-164.9991"/>
</g>
<!-- Node52 -->
<g id="node9" class="node">
<title>Node52</title>
<g id="a_node9"><a xlink:href="_field_plane_averaging_8_h.html" target="_top" xlink:title="FieldPlaneAveraging.H">
<polygon fill="#ffffff" stroke="#ff0000" points="1470,-112.5 1470,-131.5 1586,-131.5 1586,-112.5 1470,-112.5"/>
<text text-anchor="middle" x="1528" y="-119.5" font-family="Helvetica,sans-Serif" font-size="10.00" fill="#000000">FieldPlaneAveraging.H</text>
</a>
</g>
</g>
<!-- Node23&#45;&gt;Node52 -->
<g id="edge9" class="edge">
<title>Node23&#45;&gt;Node52</title>
<path fill="none" stroke="#191970" d="M1251.6096,-168.0174C1305.3368,-157.5784 1405.6823,-141.3713 1469.8777,-131.1667"/>
<polygon fill="#191970" stroke="#191970" points="1250.6361,-164.6424 1241.5103,-170.0248 1252.0008,-171.5081 1250.6361,-164.6424"/>
</g>
<!-- Node47 -->
<g id="node11" class="node">
<title>Node47</title>
<g id="a_node11"><a xlink:href="_a_b_l_mean_boussinesq_8cpp.html" target="_top" xlink:title="ABLMeanBoussinesq.cpp">
<polygon fill="#ffffff" stroke="#000000" points="685.5,-.5 685.5,-19.5 814.5,-19.5 814.5,-.5 685.5,-.5"/>
<text text-anchor="middle" x="750" y="-7.5" font-family="Helvetica,sans-Serif" font-size="10.00" fill="#000000">ABLMeanBoussinesq.cpp</text>
</a>
</g>
</g>
<!-- Node23&#45;&gt;Node47 -->
<g id="edge21" class="edge">
<title>Node23&#45;&gt;Node47</title>
<path fill="none" stroke="#191970" d="M1184.3557,-163.1745C1160.1151,-148.9527 1121.7891,-127.4219 1087,-112 985.7114,-67.0992 858.9193,-34.6486 793.5106,-19.5261"/>
<polygon fill="#191970" stroke="#191970" points="1182.8344,-166.341 1193.2232,-168.4202 1186.3985,-160.3163 1182.8344,-166.341"/>
</g>
<!-- Node58 -->
<g id="node12" class="node">
<title>Node58</title>
<g id="a_node12"><a xlink:href="_a_b_l_boundary_plane_8_h.html" target="_top" xlink:title="ABLBoundaryPlane.H">
<polygon fill="#ffffff" stroke="#ff0000" points="966,-112.5 966,-131.5 1078,-131.5 1078,-112.5 966,-112.5"/>
<text text-anchor="middle" x="1022" y="-119.5" font-family="Helvetica,sans-Serif" font-size="10.00" fill="#000000">ABLBoundaryPlane.H</text>
</a>
</g>
</g>
<!-- Node23&#45;&gt;Node58 -->
<g id="edge14" class="edge">
<title>Node23&#45;&gt;Node58</title>
<path fill="none" stroke="#191970" d="M1167.1123,-165.4561C1132.7857,-155.1765 1084.9435,-140.8494 1053.727,-131.5011"/>
<polygon fill="#191970" stroke="#191970" points="1166.2698,-168.8573 1176.8536,-168.3733 1168.278,-162.1515 1166.2698,-168.8573"/>
</g>
<!-- Node62 -->
<g id="node13" class="node">
<title>Node62</title>
<g id="a_node13"><a xlink:href="_c_f_d_sim_8cpp.html" target="_top" xlink:title="CFDSim.cpp">
<polygon fill="#ffffff" stroke="#000000" points="1172,-112.5 1172,-131.5 1246,-131.5 1246,-112.5 1172,-112.5"/>
<text text-anchor="middle" x="1209" y="-119.5" font-family="Helvetica,sans-Serif" font-size="10.00" fill="#000000">CFDSim.cpp</text>
</a>
</g>
</g>
<!-- Node23&#45;&gt;Node62 -->
<g id="edge16" class="edge">
<title>Node23&#45;&gt;Node62</title>
<path fill="none" stroke="#191970" d="M1209,-158.1575C1209,-149.155 1209,-138.9199 1209,-131.6427"/>
<polygon fill="#191970" stroke="#191970" points="1205.5001,-158.2455 1209,-168.2455 1212.5001,-158.2456 1205.5001,-158.2455"/>
</g>
<!-- Node63 -->
<g id="node14" class="node">
<title>Node63</title>
<g id="a_node14"><a xlink:href="_p_d_e_ops_8_h.html" target="_top" xlink:title="PDEOps.H">
<polygon fill="#ffffff" stroke="#ff0000" points="2034,-112.5 2034,-131.5 2100,-131.5 2100,-112.5 2034,-112.5"/>
<text text-anchor="middle" x="2067" y="-119.5" font-family="Helvetica,sans-Serif" font-size="10.00" fill="#000000">PDEOps.H</text>
</a>
</g>
</g>
<!-- Node23&#45;&gt;Node63 -->
<g id="edge17" class="edge">
<title>Node23&#45;&gt;Node63</title>
<path fill="none" stroke="#191970" d="M1252.0227,-168.1344C1591.5904,-121.2425 1683.9701,-175.32 2020,-132 2024.5506,-131.4133 2029.3154,-130.6172 2033.9921,-129.7286"/>
<polygon fill="#191970" stroke="#191970" points="1251.3217,-164.6983 1241.9038,-169.5513 1252.2925,-171.6306 1251.3217,-164.6983"/>
</g>
<!-- Node77 -->
<g id="node15" class="node">
<title>Node77</title>
<g id="a_node15"><a xlink:href="_p_d_e_8_h.html" target="_top" xlink:title="PDE.H">
<polygon fill="#ffffff" stroke="#ff0000" points="1995,-56.5 1995,-75.5 2043,-75.5 2043,-56.5 1995,-56.5"/>
<text text-anchor="middle" x="2019" y="-63.5" font-family="Helvetica,sans-Serif" font-size="10.00" fill="#000000">PDE.H</text>
</a>
</g>
</g>
<!-- Node23&#45;&gt;Node77 -->
<g id="edge19" class="edge">
<title>Node23&#45;&gt;Node77</title>
<path fill="none" stroke="#191970" d="M1252.1338,-168.3944C1369.3319,-157.7334 1920.9002,-175.6957 1987,-132 2006.546,-119.079 2014.5259,-90.6362 2017.4684,-75.6592"/>
<polygon fill="#191970" stroke="#191970" points="1251.445,-164.9501 1241.9047,-169.558 1252.2362,-171.9052 1251.445,-164.9501"/>
</g>
<!-- Node46 -->
<g id="node16" class="node">
<title>Node46</title>
<g id="a_node16"><a xlink:href="_a_b_l_forcing_8cpp.html" target="_top" xlink:title="ABLForcing.cpp">
<polygon fill="#ffffff" stroke="#000000" points="1264,-112.5 1264,-131.5 1350,-131.5 1350,-112.5 1264,-112.5"/>
<text text-anchor="middle" x="1307" y="-119.5" font-family="Helvetica,sans-Serif" font-size="10.00" fill="#000000">ABLForcing.cpp</text>
</a>
</g>
</g>
<!-- Node23&#45;&gt;Node46 -->
<g id="edge20" class="edge">
<title>Node23&#45;&gt;Node46</title>
<path fill="none" stroke="#191970" d="M1235.1686,-163.0465C1252.6058,-153.0824 1275.0111,-140.2794 1290.1253,-131.6427"/>
<polygon fill="#191970" stroke="#191970" points="1233.0162,-160.2453 1226.0703,-168.2455 1236.4892,-166.323 1233.0162,-160.2453"/>
</g>
<!-- Node90 -->
<g id="node17" class="node">
<title>Node90</title>
<g id="a_node17"><a xlink:href="_body_force_8cpp.html" target="_top" xlink:title="BodyForce.cpp">
<polygon fill="#ffffff" stroke="#000000" points="1368.5,-112.5 1368.5,-131.5 1451.5,-131.5 1451.5,-112.5 1368.5,-112.5"/>
<text text-anchor="middle" x="1410" y="-119.5" font-family="Helvetica,sans-Serif" font-size="10.00" fill="#000000">BodyForce.cpp</text>
</a>
</g>
</g>
<!-- Node23&#45;&gt;Node90 -->
<g id="edge22" class="edge">
<title>Node23&#45;&gt;Node90</title>
<path fill="none" stroke="#191970" d="M1251.7092,-166.1009C1288.6322,-155.8139 1341.3193,-141.1349 1375.5888,-131.5872"/>
<polygon fill="#191970" stroke="#191970" points="1250.4352,-162.8225 1241.7415,-168.878 1252.314,-169.5657 1250.4352,-162.8225"/>
</g>
<!-- Node91 -->
<g id="node18" class="node">
<title>Node91</title>
<g id="a_node18"><a xlink:href="_boussinesq_buoyancy_8cpp.html" target="_top" xlink:title="BoussinesqBuoyancy.cpp">
<polygon fill="#ffffff" stroke="#000000" points="511,-56.5 511,-75.5 641,-75.5 641,-56.5 511,-56.5"/>
<text text-anchor="middle" x="576" y="-63.5" font-family="Helvetica,sans-Serif" font-size="10.00" fill="#000000">BoussinesqBuoyancy.cpp</text>
</a>
</g>
</g>
<!-- Node23&#45;&gt;Node91 -->
<g id="edge23" class="edge">
<title>Node23&#45;&gt;Node91</title>
<path fill="none" stroke="#191970" d="M1165.9661,-174.2434C1088.4643,-167.1171 928.5947,-150.6678 876,-132 859.8378,-126.2634 859.0643,-118.0052 843,-112 806.9816,-98.5355 708.0613,-83.5063 641.2784,-74.4033"/>
<polygon fill="#191970" stroke="#191970" points="1166.0596,-177.7663 1176.3355,-175.1864 1166.6936,-170.7951 1166.0596,-177.7663"/>
</g>
<!-- Node92 -->
<g id="node19" class="node">
<title>Node92</title>
<g id="a_node19"><a xlink:href="_coriolis_forcing_8cpp.html" target="_top" xlink:title="CoriolisForcing.cpp">
<polygon fill="#ffffff" stroke="#000000" points="678.5,-56.5 678.5,-75.5 779.5,-75.5 779.5,-56.5 678.5,-56.5"/>
<text text-anchor="middle" x="729" y="-63.5" font-family="Helvetica,sans-Serif" font-size="10.00" fill="#000000">CoriolisForcing.cpp</text>
</a>
</g>
</g>
<!-- Node23&#45;&gt;Node92 -->
<g id="edge24" class="edge">
<title>Node23&#45;&gt;Node92</title>
<path fill="none" stroke="#191970" d="M1166.2785,-175.1053C1108.7714,-170.344 1003.7752,-158.5897 918,-132 898.2521,-125.8783 895.247,-119.5505 876,-112 838.5343,-97.3024 794.3146,-83.9877 764.2309,-75.5096"/>
<polygon fill="#191970" stroke="#191970" points="1166.2021,-178.6102 1176.4484,-175.915 1166.7577,-171.6323 1166.2021,-178.6102"/>
</g>
<!-- Node93 -->
<g id="node20" class="node">
<title>Node93</title>
<g id="a_node20"><a xlink:href="_density_buoyancy_8cpp.html" target="_top" xlink:title="DensityBuoyancy.cpp">
<polygon fill="#ffffff" stroke="#000000" points="806.5,-56.5 806.5,-75.5 919.5,-75.5 919.5,-56.5 806.5,-56.5"/>
<text text-anchor="middle" x="863" y="-63.5" font-family="Helvetica,sans-Serif" font-size="10.00" fill="#000000">DensityBuoyancy.cpp</text>
</a>
</g>
</g>
<!-- Node23&#45;&gt;Node93 -->
<g id="edge25" class="edge">
<title>Node23&#45;&gt;Node93</title>
<path fill="none" stroke="#191970" d="M1166.2222,-175.7821C1114.7794,-171.8703 1026.6615,-161.1533 957,-132 923.3381,-117.9125 889.768,-90.2396 873.3598,-75.6029"/>
<polygon fill="#191970" stroke="#191970" points="1166.0917,-179.2815 1176.3142,-176.4975 1166.5867,-172.2991 1166.0917,-179.2815"/>
</g>
<!-- Node94 -->
<g id="node21" class="node">
<title>Node94</title>
<g id="a_node21"><a xlink:href="_geostrophic_forcing_8cpp.html" target="_top" xlink:title="GeostrophicForcing.cpp">
<polygon fill="#ffffff" stroke="#000000" points="1604,-112.5 1604,-131.5 1724,-131.5 1724,-112.5 1604,-112.5"/>
<text text-anchor="middle" x="1664" y="-119.5" font-family="Helvetica,sans-Serif" font-size="10.00" fill="#000000">GeostrophicForcing.cpp</text>
</a>
</g>
</g>
<!-- Node23&#45;&gt;Node94 -->
<g id="edge26" class="edge">
<title>Node23&#45;&gt;Node94</title>
<path fill="none" stroke="#191970" d="M1252.1186,-168.0048C1404.3011,-142.5119 1445.7356,-150.6192 1595,-132 1597.8827,-131.6404 1600.8313,-131.2604 1603.8082,-130.8668"/>
<polygon fill="#191970" stroke="#191970" points="1251.2057,-164.6096 1241.9321,-169.7332 1252.3767,-171.5109 1251.2057,-164.6096"/>
</g>
<!-- Node23&#45;&gt;Node95 -->
<g id="edge27" class="edge">
<title>Node23&#45;&gt;Node95</title>
<path fill="none" stroke="#191970" d="M1252.0437,-168.1396C1630.8475,-116.6524 1733.4804,-177.8992 2109,-132 2112.0164,-131.6313 2115.1238,-131.1765 2118.2411,-130.6661"/>
<polygon fill="#191970" stroke="#191970" points="1251.3308,-164.7047 1241.9016,-169.536 1252.2856,-171.6392 1251.3308,-164.7047"/>
</g>
<!-- Node96 -->
<g id="node23" class="node">
<title>Node96</title>
<g id="a_node23"><a xlink:href="_ksgs_m84_src_8cpp.html" target="_top" xlink:title="KsgsM84Src.cpp">
<polygon fill="#ffffff" stroke="#000000" points="1742,-112.5 1742,-131.5 1834,-131.5 1834,-112.5 1742,-112.5"/>
<text text-anchor="middle" x="1788" y="-119.5" font-family="Helvetica,sans-Serif" font-size="10.00" fill="#000000">KsgsM84Src.cpp</text>
</a>
</g>
</g>
<!-- Node23&#45;&gt;Node96 -->
<g id="edge28" class="edge">
<title>Node23&#45;&gt;Node96</title>
<path fill="none" stroke="#191970" d="M1251.8565,-168.1072C1465.0224,-135.7392 1523.1421,-158.8392 1733,-132 1735.888,-131.6306 1738.8545,-131.2105 1741.8413,-130.7566"/>
<polygon fill="#191970" stroke="#191970" points="1251.2669,-164.6566 1241.9168,-169.6393 1252.3333,-171.5749 1251.2669,-164.6566"/>
</g>
<!-- Node97 -->
<g id="node24" class="node">
<title>Node97</title>
<g id="a_node24"><a xlink:href="_m_m_s_8_h.html" target="_top" xlink:title="MMS.H">
<polygon fill="#ffffff" stroke="#000000" points="1928,-112.5 1928,-131.5 1978,-131.5 1978,-112.5 1928,-112.5"/>
<text text-anchor="middle" x="1953" y="-119.5" font-family="Helvetica,sans-Serif" font-size="10.00" fill="#000000">MMS.H</text>
</a>
</g>
</g>
<!-- Node23&#45;&gt;Node97 -->
<g id="edge29" class="edge">
<title>Node23&#45;&gt;Node97</title>
<path fill="none" stroke="#191970" d="M1251.9696,-168.131C1544.8542,-126.792 1625.6052,-176.361 1914,-132 1918.5597,-131.2986 1923.3605,-130.2942 1927.9751,-129.1897"/>
<polygon fill="#191970" stroke="#191970" points="1251.3085,-164.6899 1241.9072,-169.575 1252.303,-171.6189 1251.3085,-164.6899"/>
</g>
<!-- Node98 -->
<g id="node25" class="node">
<title>Node98</title>
<g id="a_node25"><a xlink:href="_m_m_s_8cpp.html" target="_top" xlink:title="MMS.cpp">
<polygon fill="#ffffff" stroke="#000000" points="1910.5,-56.5 1910.5,-75.5 1969.5,-75.5 1969.5,-56.5 1910.5,-56.5"/>
<text text-anchor="middle" x="1940" y="-63.5" font-family="Helvetica,sans-Serif" font-size="10.00" fill="#000000">MMS.cpp</text>
</a>
</g>
</g>
<!-- Node23&#45;&gt;Node98 -->
<g id="edge31" class="edge">
<title>Node23&#45;&gt;Node98</title>
<path fill="none" stroke="#191970" d="M1252.1152,-168.2129C1404.7381,-149.6501 1752.3382,-188.5881 1876,-132 1902.7048,-119.7798 1924.084,-91.0304 1933.9973,-75.8255"/>
<polygon fill="#191970" stroke="#191970" points="1251.353,-164.7838 1241.9087,-169.5854 1252.2859,-171.7214 1251.353,-164.7838"/>
</g>
<!-- Node23&#45;&gt;Node100 -->
<g id="edge32" class="edge">
<title>Node23&#45;&gt;Node100</title>
<path fill="none" stroke="#191970" d="M1251.9288,-168.1614C1674.0491,-111.5124 1787.4842,-176.4897 2207,-132 2209.5976,-131.7245 2212.2556,-131.4018 2214.9348,-131.0444"/>
<polygon fill="#191970" stroke="#191970" points="1251.3383,-164.7094 1241.8997,-169.5223 1252.2796,-171.6458 1251.3383,-164.7094"/>
</g>
<!-- Node44&#45;&gt;Node49 -->
<g id="edge8" class="edge">
<title>Node44&#45;&gt;Node49</title>
<path fill="none" stroke="#191970" d="M1510.1571,-50.49C1524.272,-40.6096 1542.1151,-28.1194 1554.2248,-19.6427"/>
<polygon fill="#191970" stroke="#191970" points="1508.1201,-47.6436 1501.9349,-56.2455 1512.1344,-53.3782 1508.1201,-47.6436"/>
</g>
<!-- Node52&#45;&gt;Node44 -->
<g id="edge10" class="edge">
<title>Node52&#45;&gt;Node44</title>
<path fill="none" stroke="#191970" d="M1515.0864,-103.9209C1508.3697,-94.5176 1500.4283,-83.3997 1494.8876,-75.6427"/>
<polygon fill="#191970" stroke="#191970" points="1512.372,-106.1425 1521.0325,-112.2455 1518.0682,-102.0738 1512.372,-106.1425"/>
</g>
<!-- Node52&#45;&gt;Node49 -->
<g id="edge11" class="edge">
<title>Node52&#45;&gt;Node49</title>
<path fill="none" stroke="#191970" d="M1536.7807,-103.1562C1540.4699,-94.9094 1544.6685,-85.0653 1548,-76 1555.2688,-56.2211 1561.9961,-32.4429 1565.4909,-19.513"/>
<polygon fill="#191970" stroke="#191970" points="1533.5922,-101.7128 1532.626,-112.2635 1539.9608,-104.6182 1533.5922,-101.7128"/>
</g>
<!-- Node52&#45;&gt;Node57 -->
<g id="edge12" class="edge">
<title>Node52&#45;&gt;Node57</title>
<path fill="none" stroke="#191970" d="M1459.6964,-112.0928C1034.0001,-73.4229 923.8583,-103.4362 502,-76 486.5918,-74.9979 469.9736,-73.6118 454.5016,-72.1904"/>
<polygon fill="#191970" stroke="#191970" points="1459.5336,-115.5925 1469.8112,-113.0191 1460.1721,-108.6217 1459.5336,-115.5925"/>
</g>
<!-- Node57&#45;&gt;Node47 -->
<g id="edge13" class="edge">
<title>Node57&#45;&gt;Node47</title>
<path fill="none" stroke="#191970" d="M465.063,-54.8215C530.7611,-44.487 627.3426,-29.2944 689.4567,-19.5237"/>
<polygon fill="#191970" stroke="#191970" points="464.1287,-51.4254 454.7941,-56.4369 465.2165,-58.3404 464.1287,-51.4254"/>
</g>
<!-- Node63&#45;&gt;Node77 -->
<g id="edge18" class="edge">
<title>Node63&#45;&gt;Node77</title>
<path fill="none" stroke="#191970" d="M2052.0003,-104.5004C2043.8378,-94.9775 2034.0511,-83.5596 2027.2651,-75.6427"/>
<polygon fill="#191970" stroke="#191970" points="2049.4737,-106.9307 2058.639,-112.2455 2054.7885,-102.3752 2049.4737,-106.9307"/>
</g>
<!-- Node97&#45;&gt;Node98 -->
<g id="edge30" class="edge">
<title>Node97&#45;&gt;Node98</title>
<path fill="none" stroke="#191970" d="M1948.4625,-102.4538C1946.3561,-93.3803 1943.9464,-82.9998 1942.2385,-75.6427"/>
<polygon fill="#191970" stroke="#191970" points="1945.0649,-103.2961 1950.7356,-112.2455 1951.8835,-101.7131 1945.0649,-103.2961"/>
</g>
<!-- Node147&#45;&gt;Node63 -->
<g id="edge46" class="edge">
<title>Node147&#45;&gt;Node63</title>
<path fill="none" stroke="#191970" d="M1352.1374,-168.4813C1353.4367,-168.3107 1354.7259,-168.1498 1356,-168 1649.5237,-133.4976 1727.0227,-170.8699 2020,-132 2024.5484,-131.3965 2029.3119,-130.5908 2033.988,-129.6976"/>
<polygon fill="#191970" stroke="#191970" points="1351.4502,-165.0445 1342.0607,-169.9522 1352.4614,-171.9711 1351.4502,-165.0445"/>
</g>
<!-- Node147&#45;&gt;Node95 -->
<g id="edge47" class="edge">
<title>Node147&#45;&gt;Node95</title>
<path fill="none" stroke="#191970" d="M1352.1361,-168.4703C1353.4358,-168.303 1354.7254,-168.1457 1356,-168 1688.8813,-129.9494 1776.5463,-173.6208 2109,-132 2112.0153,-131.6225 2115.122,-131.1613 2118.2387,-130.6464"/>
<polygon fill="#191970" stroke="#191970" points="1351.4556,-165.0322 1342.0573,-169.9233 1352.4544,-171.9606 1351.4556,-165.0322"/>
</g>
<!-- Node149&#45;&gt;Node57 -->
<g id="edge50" class="edge">
<title>Node149&#45;&gt;Node57</title>
<path fill="none" stroke="#191970" d="M443.9319,-164.3112C428.7901,-157.0391 412.7763,-146.5305 403,-132 391.5092,-114.9212 391.6466,-89.6843 392.7972,-75.891"/>
<polygon fill="#191970" stroke="#191970" points="442.6244,-167.5602 453.1837,-168.4278 445.4702,-161.1647 442.6244,-167.5602"/>
</g>
<!-- Node149&#45;&gt;Node152 -->
<g id="edge51" class="edge">
<title>Node149&#45;&gt;Node152</title>
<path fill="none" stroke="#191970" d="M479.4567,-158.1575C477.8491,-149.155 476.0214,-138.9199 474.7219,-131.6427"/>
<polygon fill="#191970" stroke="#191970" points="476.0546,-159.0166 481.2581,-168.2455 482.9456,-157.786 476.0546,-159.0166"/>
</g>
<!-- Node149&#45;&gt;Node153 -->
<g id="edge53" class="edge">
<title>Node149&#45;&gt;Node153</title>
<path fill="none" stroke="#191970" d="M511.8033,-163.9741C532.625,-153.8348 560.1978,-140.408 578.4888,-131.5011"/>
<polygon fill="#191970" stroke="#191970" points="510.2276,-160.8484 502.7692,-168.3733 513.2922,-167.1419 510.2276,-160.8484"/>
</g>
<!-- Node149&#45;&gt;Node154 -->
<g id="edge55" class="edge">
<title>Node149&#45;&gt;Node154</title>
<path fill="none" stroke="#191970" d="M532.3049,-166.0473C574.8222,-155.7401 635.4057,-141.0532 674.7149,-131.5237"/>
<polygon fill="#191970" stroke="#191970" points="531.3417,-162.6793 522.4478,-168.4369 532.991,-169.4823 531.3417,-162.6793"/>
</g>
<!-- Node149&#45;&gt;Node156 -->
<g id="edge57" class="edge">
<title>Node149&#45;&gt;Node156</title>
<path fill="none" stroke="#191970" d="M444.3427,-165.1905C413.3807,-154.9309 370.6426,-140.7691 342.673,-131.5011"/>
<polygon fill="#191970" stroke="#191970" points="443.3545,-168.5501 453.9479,-168.3733 445.5563,-161.9054 443.3545,-168.5501"/>
</g>
<!-- Node152&#45;&gt;Node91 -->
<g id="edge52" class="edge">
<title>Node152&#45;&gt;Node91</title>
<path fill="none" stroke="#191970" d="M499.7432,-107.46C518.175,-97.4388 542.1584,-84.3993 558.2644,-75.6427"/>
<polygon fill="#191970" stroke="#191970" points="498.0549,-104.394 490.9412,-112.2455 501.3985,-110.5438 498.0549,-104.394"/>
</g>
<!-- Node153&#45;&gt;Node92 -->
<g id="edge54" class="edge">
<title>Node153&#45;&gt;Node92</title>
<path fill="none" stroke="#191970" d="M629.8534,-108.3833C653.6785,-98.1985 685.6568,-84.5284 706.7742,-75.5011"/>
<polygon fill="#191970" stroke="#191970" points="628.339,-105.2242 620.5197,-112.3733 631.0906,-111.6608 628.339,-105.2242"/>
</g>
<!-- Node154&#45;&gt;Node93 -->
<g id="edge56" class="edge">
<title>Node154&#45;&gt;Node93</title>
<path fill="none" stroke="#191970" d="M749.1512,-108.7888C776.3568,-98.5639 813.3809,-84.6488 837.7202,-75.5011"/>
<polygon fill="#191970" stroke="#191970" points="747.7434,-105.5788 739.614,-112.3733 750.2061,-112.1313 747.7434,-105.5788"/>
</g>
</g>
</svg>
