<?xml version="1.0" encoding="UTF-8" standalone="no"?>
<!DOCTYPE svg PUBLIC "-//W3C//DTD SVG 1.1//EN"
 "http://www.w3.org/Graphics/SVG/1.1/DTD/svg11.dtd">
<!-- Generated by graphviz version 2.40.1 (20161225.0304)
 -->
<!-- Title: FixedGradientBC.cpp Pages: 1 -->
<!--zoomable 319 -->
<svg id="main" version="1.1" xmlns="http://www.w3.org/2000/svg" xmlns:xlink="http://www.w3.org/1999/xlink" xml:space="preserve" onload="init(evt)">
<style type="text/css"><![CDATA[
.edge:hover path { stroke: red; }
.edge:hover polygon { stroke: red; fill: red; }
]]></style>
<script type="text/javascript"><![CDATA[
var edges = document.getElementsByTagName('g');
if (edges && edges.length) {
  for (var i=0;i<edges.length;i++) {
    if (edges[i].id.substr(0,4)=='edge') {
      edges[i].setAttribute('class','edge');
    }
  }
}
]]></script>
        <defs>
                <circle id="rim" cx="0" cy="0" r="7"/>
                <circle id="rim2" cx="0" cy="0" r="3.5"/>
                <g id="zoomPlus">
                        <use xlink:href="#rim" fill="#404040">
                                <set attributeName="fill" to="#808080" begin="zoomplus.mouseover" end="zoomplus.mouseout"/>
                        </use>
                        <path d="M-4,0h8M0,-4v8" fill="none" stroke="white" stroke-width="1.5" pointer-events="none"/>
                </g>
                <g id="zoomMin">
                        <use xlink:href="#rim" fill="#404040">
                                <set attributeName="fill" to="#808080" begin="zoomminus.mouseover" end="zoomminus.mouseout"/>
                        </use>
                        <path d="M-4,0h8" fill="none" stroke="white" stroke-width="1.5" pointer-events="none"/>
                </g>
                <g id="dirArrow">
                        <path fill="none" stroke="white" stroke-width="1.5" d="M0,-3.0v7 M-2.5,-0.5L0,-3.0L2.5,-0.5"/>
                </g>
               <g id="resetDef">
                       <use xlink:href="#rim2" fill="#404040">
                               <set attributeName="fill" to="#808080" begin="reset.mouseover" end="reset.mouseout"/>
                       </use>
               </g>
        </defs>

<script type="text/javascript">
var viewWidth = 1898;
var viewHeight = 319;
var sectionId = 'dynsection-0';
</script>
<script xlink:href="svgpan.js"/>
<svg id="graph" class="graph">
<g id="viewport">
<title>FixedGradientBC.cpp</title>
<polygon fill="#ffffff" stroke="transparent" points="-4,4 -4,-315 1893.5,-315 1893.5,4 -4,4"/>
<!-- Node0 -->
<g id="node1" class="node">
<title>Node0</title>
<polygon fill="#bfbfbf" stroke="#000000" points="1333.5,-291.5 1333.5,-310.5 1443.5,-310.5 1443.5,-291.5 1333.5,-291.5"/>
<text text-anchor="middle" x="1388.5" y="-298.5" font-family="Helvetica,sans-Serif" font-size="10.00" fill="#000000">FixedGradientBC.cpp</text>
</g>
<!-- Node1 -->
<g id="node2" class="node">
<title>Node1</title>
<g id="a_node2"><a xlink:href="_fixed_gradient_b_c_8_h.html" target="_top" xlink:title="amr&#45;wind/boundary_conditions\l/FixedGradientBC.H">
<polygon fill="#ffffff" stroke="#000000" points="1314,-224.5 1314,-254.5 1463,-254.5 1463,-224.5 1314,-224.5"/>
<text text-anchor="start" x="1322" y="-242.5" font-family="Helvetica,sans-Serif" font-size="10.00" fill="#000000">amr&#45;wind/boundary_conditions</text>
<text text-anchor="middle" x="1388.5" y="-231.5" font-family="Helvetica,sans-Serif" font-size="10.00" fill="#000000">/FixedGradientBC.H</text>
</a>
</g>
</g>
<!-- Node0&#45;&gt;Node1 -->
<g id="edge1" class="edge">
<title>Node0&#45;&gt;Node1</title>
<path fill="none" stroke="#191970" d="M1388.5,-291.3906C1388.5,-284.2234 1388.5,-274.0862 1388.5,-264.671"/>
<polygon fill="#191970" stroke="#191970" points="1392.0001,-264.5446 1388.5,-254.5446 1385.0001,-264.5446 1392.0001,-264.5446"/>
</g>
<!-- Node2 -->
<g id="node3" class="node">
<title>Node2</title>
<g id="a_node3"><a xlink:href="_field_b_c_ops_8_h.html" target="_top" xlink:title="amr&#45;wind/core/FieldBCOps.H">
<polygon fill="#ffffff" stroke="#000000" points="423,-112.5 423,-131.5 568,-131.5 568,-112.5 423,-112.5"/>
<text text-anchor="middle" x="495.5" y="-119.5" font-family="Helvetica,sans-Serif" font-size="10.00" fill="#000000">amr&#45;wind/core/FieldBCOps.H</text>
</a>
</g>
</g>
<!-- Node1&#45;&gt;Node2 -->
<g id="edge2" class="edge">
<title>Node1&#45;&gt;Node2</title>
<path fill="none" stroke="#191970" d="M1313.8993,-229.6841C1148.1639,-207.8768 750.3707,-155.5356 577.7474,-132.822"/>
<polygon fill="#191970" stroke="#191970" points="578.074,-129.3349 567.7029,-131.5004 577.1608,-136.2751 578.074,-129.3349"/>
</g>
<!-- Node8 -->
<g id="node9" class="node">
<title>Node8</title>
<g id="a_node9"><a xlink:href="_field_repo_8_h.html" target="_top" xlink:title="amr&#45;wind/core/FieldRepo.H">
<polygon fill="#ffffff" stroke="#000000" points="1320.5,-168.5 1320.5,-187.5 1456.5,-187.5 1456.5,-168.5 1320.5,-168.5"/>
<text text-anchor="middle" x="1388.5" y="-175.5" font-family="Helvetica,sans-Serif" font-size="10.00" fill="#000000">amr&#45;wind/core/FieldRepo.H</text>
</a>
</g>
</g>
<!-- Node1&#45;&gt;Node8 -->
<g id="edge8" class="edge">
<title>Node1&#45;&gt;Node8</title>
<path fill="none" stroke="#191970" d="M1388.5,-224.2977C1388.5,-216.3834 1388.5,-206.6043 1388.5,-198.0759"/>
<polygon fill="#191970" stroke="#191970" points="1392.0001,-197.8469 1388.5,-187.8469 1385.0001,-197.847 1392.0001,-197.8469"/>
</g>
<!-- Node24 -->
<g id="node25" class="node">
<title>Node24</title>
<polygon fill="#ffffff" stroke="#bfbfbf" points="1474.5,-168.5 1474.5,-187.5 1588.5,-187.5 1588.5,-168.5 1474.5,-168.5"/>
<text text-anchor="middle" x="1531.5" y="-175.5" font-family="Helvetica,sans-Serif" font-size="10.00" fill="#000000">AMReX_Orientation.H</text>
</g>
<!-- Node1&#45;&gt;Node24 -->
<g id="edge44" class="edge">
<title>Node1&#45;&gt;Node24</title>
<path fill="none" stroke="#191970" d="M1423.4817,-224.4554C1446.8184,-214.419 1477.2498,-201.3314 1499.863,-191.6061"/>
<polygon fill="#191970" stroke="#191970" points="1501.5364,-194.6965 1509.3401,-187.5303 1498.7708,-188.2659 1501.5364,-194.6965"/>
</g>
<!-- Node3 -->
<g id="node4" class="node">
<title>Node3</title>
<g id="a_node4"><a xlink:href="_field_desc_types_8_h.html" target="_top" xlink:title="amr&#45;wind/core/FieldDescTypes.H">
<polygon fill="#ffffff" stroke="#000000" points="1258,-.5 1258,-19.5 1421,-19.5 1421,-.5 1258,-.5"/>
<text text-anchor="middle" x="1339.5" y="-7.5" font-family="Helvetica,sans-Serif" font-size="10.00" fill="#000000">amr&#45;wind/core/FieldDescTypes.H</text>
</a>
</g>
</g>
<!-- Node2&#45;&gt;Node3 -->
<g id="edge3" class="edge">
<title>Node2&#45;&gt;Node3</title>
<path fill="none" stroke="#191970" d="M488.0205,-112.0899C478.2044,-97.8068 463.8471,-71.4566 478.5,-56 504.6521,-28.4134 1031.4967,-15.6422 1247.9097,-11.5448"/>
<polygon fill="#191970" stroke="#191970" points="1248.0445,-15.043 1257.9772,-11.3562 1247.9133,-8.0442 1248.0445,-15.043"/>
</g>
<!-- Node4 -->
<g id="node5" class="node">
<title>Node4</title>
<polygon fill="#ffffff" stroke="#bfbfbf" points="488,-56.5 488,-75.5 573,-75.5 573,-56.5 488,-56.5"/>
<text text-anchor="middle" x="530.5" y="-63.5" font-family="Helvetica,sans-Serif" font-size="10.00" fill="#000000">AMReX_Gpu.H</text>
</g>
<!-- Node2&#45;&gt;Node4 -->
<g id="edge4" class="edge">
<title>Node2&#45;&gt;Node4</title>
<path fill="none" stroke="#191970" d="M501.5965,-112.2455C506.4145,-104.5367 513.2751,-93.5598 519.1032,-84.2348"/>
<polygon fill="#191970" stroke="#191970" points="522.1413,-85.9777 524.4733,-75.6427 516.2053,-82.2677 522.1413,-85.9777"/>
</g>
<!-- Node5 -->
<g id="node6" class="node">
<title>Node5</title>
<polygon fill="#ffffff" stroke="#bfbfbf" points="190,-56.5 190,-75.5 303,-75.5 303,-56.5 190,-56.5"/>
<text text-anchor="middle" x="246.5" y="-63.5" font-family="Helvetica,sans-Serif" font-size="10.00" fill="#000000">AMReX_FArrayBox.H</text>
</g>
<!-- Node2&#45;&gt;Node5 -->
<g id="edge5" class="edge">
<title>Node2&#45;&gt;Node5</title>
<path fill="none" stroke="#191970" d="M452.9783,-112.4369C410.3639,-102.8529 344.6824,-88.0812 298.879,-77.78"/>
<polygon fill="#191970" stroke="#191970" points="299.3706,-74.3032 288.8463,-75.5237 297.8346,-81.1326 299.3706,-74.3032"/>
</g>
<!-- Node6 -->
<g id="node7" class="node">
<title>Node6</title>
<polygon fill="#ffffff" stroke="#bfbfbf" points="321.5,-56.5 321.5,-75.5 431.5,-75.5 431.5,-56.5 321.5,-56.5"/>
<text text-anchor="middle" x="376.5" y="-63.5" font-family="Helvetica,sans-Serif" font-size="10.00" fill="#000000">AMReX_Geometry.H</text>
</g>
<!-- Node2&#45;&gt;Node6 -->
<g id="edge6" class="edge">
<title>Node2&#45;&gt;Node6</title>
<path fill="none" stroke="#191970" d="M475.0432,-112.3733C456.0262,-103.4241 427.4825,-89.9917 406.0024,-79.8835"/>
<polygon fill="#191970" stroke="#191970" points="407.2284,-76.5923 396.6899,-75.5011 404.2478,-82.926 407.2284,-76.5923"/>
</g>
<!-- Node7 -->
<g id="node8" class="node">
<title>Node7</title>
<polygon fill="#ffffff" stroke="#bfbfbf" points="876.5,-56.5 876.5,-75.5 1004.5,-75.5 1004.5,-56.5 876.5,-56.5"/>
<text text-anchor="middle" x="940.5" y="-63.5" font-family="Helvetica,sans-Serif" font-size="10.00" fill="#000000">AMReX_PhysBCFunct.H</text>
</g>
<!-- Node2&#45;&gt;Node7 -->
<g id="edge7" class="edge">
<title>Node2&#45;&gt;Node7</title>
<path fill="none" stroke="#191970" d="M568.2426,-113.2908C641.0599,-104.5075 756.5945,-90.3955 866.4797,-76.1203"/>
<polygon fill="#191970" stroke="#191970" points="866.9477,-79.589 876.4123,-74.8275 866.0441,-72.6476 866.9477,-79.589"/>
</g>
<!-- Node8&#45;&gt;Node3 -->
<g id="edge11" class="edge">
<title>Node8&#45;&gt;Node3</title>
<path fill="none" stroke="#191970" d="M1422.0002,-168.3574C1439.7612,-161.3494 1460.024,-149.8886 1470.5,-132 1474.992,-124.3296 1472.4167,-120.6798 1470.5,-112 1464.583,-85.2049 1464.1134,-75.1912 1444.5,-56 1428.8628,-40.6995 1407.2942,-30.0573 1387.7714,-22.8941"/>
<polygon fill="#191970" stroke="#191970" points="1388.6847,-19.5068 1378.09,-19.5556 1386.4027,-26.1244 1388.6847,-19.5068"/>
</g>
<!-- Node9 -->
<g id="node10" class="node">
<title>Node9</title>
<polygon fill="#ffffff" stroke="#bfbfbf" points="1580,-.5 1580,-19.5 1621,-19.5 1621,-.5 1580,-.5"/>
<text text-anchor="middle" x="1600.5" y="-7.5" font-family="Helvetica,sans-Serif" font-size="10.00" fill="#000000">string</text>
</g>
<!-- Node8&#45;&gt;Node9 -->
<g id="edge9" class="edge">
<title>Node8&#45;&gt;Node9</title>
<path fill="none" stroke="#191970" d="M1439.3884,-168.4045C1488.7182,-156.1601 1561.1243,-129.7551 1596.5,-76 1605.3634,-62.5317 1605.7051,-43.9753 1604.2079,-29.968"/>
<polygon fill="#191970" stroke="#191970" points="1607.6455,-29.2849 1602.7406,-19.8938 1600.7185,-30.2939 1607.6455,-29.2849"/>
</g>
<!-- Node10 -->
<g id="node11" class="node">
<title>Node10</title>
<polygon fill="#ffffff" stroke="#bfbfbf" points="591,-56.5 591,-75.5 674,-75.5 674,-56.5 591,-56.5"/>
<text text-anchor="middle" x="632.5" y="-63.5" font-family="Helvetica,sans-Serif" font-size="10.00" fill="#000000">unordered_map</text>
</g>
<!-- Node8&#45;&gt;Node10 -->
<g id="edge10" class="edge">
<title>Node8&#45;&gt;Node10</title>
<path fill="none" stroke="#191970" d="M1320.2413,-170.022C1247.9434,-161.3923 1130.5207,-146.864 1029.5,-132 905.3823,-113.7376 760.0725,-88.625 684.3569,-75.2555"/>
<polygon fill="#191970" stroke="#191970" points="684.6013,-71.7445 674.1444,-73.4489 683.3818,-78.6375 684.6013,-71.7445"/>
</g>
<!-- Node11 -->
<g id="node12" class="node">
<title>Node11</title>
<g id="a_node12"><a xlink:href="_field_utils_8_h.html" target="_top" xlink:title="amr&#45;wind/core/FieldUtils.H">
<polygon fill="#ffffff" stroke="#000000" points="0,-56.5 0,-75.5 133,-75.5 133,-56.5 0,-56.5"/>
<text text-anchor="middle" x="66.5" y="-63.5" font-family="Helvetica,sans-Serif" font-size="10.00" fill="#000000">amr&#45;wind/core/FieldUtils.H</text>
</a>
</g>
</g>
<!-- Node8&#45;&gt;Node11 -->
<g id="edge12" class="edge">
<title>Node8&#45;&gt;Node11</title>
<path fill="none" stroke="#191970" d="M1320.394,-176.6734C1068.6883,-171.6155 202.6345,-152.7767 147.5,-132 120.9032,-121.9774 96.52,-99.4988 81.6044,-83.5666"/>
<polygon fill="#191970" stroke="#191970" points="84.0073,-81.0054 74.7059,-75.9325 78.8136,-85.6986 84.0073,-81.0054"/>
</g>
<!-- Node12 -->
<g id="node13" class="node">
<title>Node12</title>
<polygon fill="#ffffff" stroke="#bfbfbf" points="650.5,-.5 650.5,-19.5 754.5,-19.5 754.5,-.5 650.5,-.5"/>
<text text-anchor="middle" x="702.5" y="-7.5" font-family="Helvetica,sans-Serif" font-size="10.00" fill="#000000">AMReX_MultiFab.H</text>
</g>
<!-- Node8&#45;&gt;Node12 -->
<g id="edge42" class="edge">
<title>Node8&#45;&gt;Node12</title>
<path fill="none" stroke="#191970" d="M1320.3905,-176.4598C1129.0194,-171.866 589.0244,-157.0051 413.5,-132 308.0601,-116.9791 246.4258,-159.648 180.5,-76 174.9978,-69.0187 174.4968,-62.5555 180.5,-56 210.9716,-22.7251 507.6732,-13.398 639.6969,-10.885"/>
<polygon fill="#191970" stroke="#191970" points="640.1179,-14.3779 650.0521,-10.6955 639.9897,-7.3791 640.1179,-14.3779"/>
</g>
<!-- Node14 -->
<g id="node15" class="node">
<title>Node14</title>
<g id="a_node15"><a xlink:href="_field_8_h.html" target="_top" xlink:title="amr&#45;wind/core/Field.H">
<polygon fill="#ffffff" stroke="#000000" points="1039,-112.5 1039,-131.5 1152,-131.5 1152,-112.5 1039,-112.5"/>
<text text-anchor="middle" x="1095.5" y="-119.5" font-family="Helvetica,sans-Serif" font-size="10.00" fill="#000000">amr&#45;wind/core/Field.H</text>
</a>
</g>
</g>
<!-- Node8&#45;&gt;Node14 -->
<g id="edge16" class="edge">
<title>Node8&#45;&gt;Node14</title>
<path fill="none" stroke="#191970" d="M1338.4644,-168.4369C1287.793,-158.7522 1209.4052,-143.7703 1155.4441,-133.4569"/>
<polygon fill="#191970" stroke="#191970" points="1155.8085,-129.9633 1145.3292,-131.5237 1154.4943,-136.8388 1155.8085,-129.9633"/>
</g>
<!-- Node20 -->
<g id="node21" class="node">
<title>Node20</title>
<g id="a_node21"><a xlink:href="_int_field_8_h.html" target="_top" xlink:title="amr&#45;wind/core/IntField.H">
<polygon fill="#ffffff" stroke="#000000" points="1765.5,-112.5 1765.5,-131.5 1889.5,-131.5 1889.5,-112.5 1765.5,-112.5"/>
<text text-anchor="middle" x="1827.5" y="-119.5" font-family="Helvetica,sans-Serif" font-size="10.00" fill="#000000">amr&#45;wind/core/IntField.H</text>
</a>
</g>
</g>
<!-- Node8&#45;&gt;Node20 -->
<g id="edge30" class="edge">
<title>Node8&#45;&gt;Node20</title>
<path fill="none" stroke="#191970" d="M1456.5172,-169.1439C1459.5528,-168.7558 1462.5579,-168.373 1465.5,-168 1591.5016,-152.0243 1625.5921,-149.2252 1754.8691,-132.1995"/>
<polygon fill="#191970" stroke="#191970" points="1755.7143,-135.6184 1765.17,-130.8394 1754.7979,-128.6786 1755.7143,-135.6184"/>
</g>
<!-- Node21 -->
<g id="node22" class="node">
<title>Node21</title>
<polygon fill="#ffffff" stroke="#bfbfbf" points="1667,-56.5 1667,-75.5 1774,-75.5 1774,-56.5 1667,-56.5"/>
<text text-anchor="middle" x="1720.5" y="-63.5" font-family="Helvetica,sans-Serif" font-size="10.00" fill="#000000">AMReX_iMultiFab.H</text>
</g>
<!-- Node8&#45;&gt;Node21 -->
<g id="edge43" class="edge">
<title>Node8&#45;&gt;Node21</title>
<path fill="none" stroke="#191970" d="M1447.1821,-168.4458C1487.8494,-160.8924 1542.8553,-148.807 1589.5,-132 1600.0118,-128.2124 1657.6776,-98.5996 1692.9046,-80.3505"/>
<polygon fill="#191970" stroke="#191970" points="1694.9221,-83.2469 1702.1875,-75.5356 1691.699,-77.033 1694.9221,-83.2469"/>
</g>
<!-- Node22 -->
<g id="node23" class="node">
<title>Node22</title>
<g id="a_node23"><a xlink:href="_scratch_field_8_h.html" target="_top" xlink:title="amr&#45;wind/core/ScratchField.H">
<polygon fill="#ffffff" stroke="#000000" points="1315.5,-112.5 1315.5,-131.5 1461.5,-131.5 1461.5,-112.5 1315.5,-112.5"/>
<text text-anchor="middle" x="1388.5" y="-119.5" font-family="Helvetica,sans-Serif" font-size="10.00" fill="#000000">amr&#45;wind/core/ScratchField.H</text>
</a>
</g>
</g>
<!-- Node8&#45;&gt;Node22 -->
<g id="edge34" class="edge">
<title>Node8&#45;&gt;Node22</title>
<path fill="none" stroke="#191970" d="M1388.5,-168.2455C1388.5,-160.9382 1388.5,-150.6944 1388.5,-141.7046"/>
<polygon fill="#191970" stroke="#191970" points="1392.0001,-141.6426 1388.5,-131.6427 1385.0001,-141.6427 1392.0001,-141.6426"/>
</g>
<!-- Node23 -->
<g id="node24" class="node">
<title>Node23</title>
<polygon fill="#ffffff" stroke="#bfbfbf" points="1641.5,-112.5 1641.5,-131.5 1747.5,-131.5 1747.5,-112.5 1641.5,-112.5"/>
<text text-anchor="middle" x="1694.5" y="-119.5" font-family="Helvetica,sans-Serif" font-size="10.00" fill="#000000">AMReX_AmrCore.H</text>
</g>
<!-- Node8&#45;&gt;Node23 -->
<g id="edge41" class="edge">
<title>Node8&#45;&gt;Node23</title>
<path fill="none" stroke="#191970" d="M1440.7556,-168.4369C1493.8953,-158.712 1576.2222,-143.6456 1632.5979,-133.3285"/>
<polygon fill="#191970" stroke="#191970" points="1633.2534,-136.7667 1642.4599,-131.5237 1631.9932,-129.8811 1633.2534,-136.7667"/>
</g>
<!-- Node11&#45;&gt;Node3 -->
<g id="edge13" class="edge">
<title>Node11&#45;&gt;Node3</title>
<path fill="none" stroke="#191970" d="M133.0698,-59.6215C148.6233,-58.2808 165.1337,-56.9783 180.5,-56 577.3427,-30.7339 1051.5636,-17.0766 1247.674,-12.1521"/>
<polygon fill="#191970" stroke="#191970" points="1248.0221,-15.6446 1257.9316,-11.8962 1247.8474,-8.6468 1248.0221,-15.6446"/>
</g>
<!-- Node11&#45;&gt;Node12 -->
<g id="edge14" class="edge">
<title>Node11&#45;&gt;Node12</title>
<path fill="none" stroke="#191970" d="M133.2211,-57.5476C138.0508,-57.0018 142.8488,-56.4797 147.5,-56 326.0239,-37.5892 537.4537,-21.6924 640.2076,-14.3436"/>
<polygon fill="#191970" stroke="#191970" points="640.6782,-17.819 650.4041,-13.6169 640.1805,-10.8367 640.6782,-17.819"/>
</g>
<!-- Node13 -->
<g id="node14" class="node">
<title>Node13</title>
<polygon fill="#ffffff" stroke="#bfbfbf" points="8.5,-.5 8.5,-19.5 124.5,-19.5 124.5,-.5 8.5,-.5"/>
<text text-anchor="middle" x="66.5" y="-7.5" font-family="Helvetica,sans-Serif" font-size="10.00" fill="#000000">AMReX_Interpolater.H</text>
</g>
<!-- Node11&#45;&gt;Node13 -->
<g id="edge15" class="edge">
<title>Node11&#45;&gt;Node13</title>
<path fill="none" stroke="#191970" d="M66.5,-56.2455C66.5,-48.9382 66.5,-38.6944 66.5,-29.7046"/>
<polygon fill="#191970" stroke="#191970" points="70.0001,-29.6426 66.5,-19.6427 63.0001,-29.6427 70.0001,-29.6426"/>
</g>
<!-- Node14&#45;&gt;Node3 -->
<g id="edge24" class="edge">
<title>Node14&#45;&gt;Node3</title>
<path fill="none" stroke="#191970" d="M1118.1187,-112.3266C1139.4432,-103.1511 1172.2551,-88.889 1200.5,-76 1238.7625,-58.5397 1282.5344,-37.5932 1310.568,-24.0521"/>
<polygon fill="#191970" stroke="#191970" points="1312.3151,-27.095 1319.7926,-19.5892 1309.2665,-20.7937 1312.3151,-27.095"/>
</g>
<!-- Node14&#45;&gt;Node4 -->
<g id="edge22" class="edge">
<title>Node14&#45;&gt;Node4</title>
<path fill="none" stroke="#191970" d="M1038.9951,-118.8779C945.9235,-113.3112 754.3952,-100.0714 582.9796,-76.0906"/>
<polygon fill="#191970" stroke="#191970" points="583.412,-72.617 573.0203,-74.6819 582.4315,-79.548 583.412,-72.617"/>
</g>
<!-- Node14&#45;&gt;Node9 -->
<g id="edge17" class="edge">
<title>Node14&#45;&gt;Node9</title>
<path fill="none" stroke="#191970" d="M1152.1169,-118.2151C1219.1786,-112.8153 1333.8595,-100.6867 1429.5,-76 1480.68,-62.7894 1537.4348,-38.9363 1570.9836,-23.8128"/>
<polygon fill="#191970" stroke="#191970" points="1572.5636,-26.9392 1580.2125,-19.6081 1569.6614,-20.5691 1572.5636,-26.9392"/>
</g>
<!-- Node14&#45;&gt;Node10 -->
<g id="edge19" class="edge">
<title>Node14&#45;&gt;Node10</title>
<path fill="none" stroke="#191970" d="M1038.7281,-116.7443C959.934,-109.1857 813.0499,-94.1399 688.5,-76 687.0341,-75.7865 685.5477,-75.5637 684.0482,-75.3334"/>
<polygon fill="#191970" stroke="#191970" points="684.4706,-71.8564 674.0417,-73.7241 683.359,-78.7676 684.4706,-71.8564"/>
</g>
<!-- Node14&#45;&gt;Node12 -->
<g id="edge20" class="edge">
<title>Node14&#45;&gt;Node12</title>
<path fill="none" stroke="#191970" d="M1038.8442,-118.4526C940.2155,-111.7805 745.1688,-96.1978 721.5,-76 708.3455,-64.7746 703.9977,-45.0852 702.7,-30.1249"/>
<polygon fill="#191970" stroke="#191970" points="706.1812,-29.6461 702.207,-19.8249 699.1892,-29.9809 706.1812,-29.6461"/>
</g>
<!-- Node15 -->
<g id="node16" class="node">
<title>Node15</title>
<polygon fill="#ffffff" stroke="#bfbfbf" points="1022.5,-56.5 1022.5,-75.5 1074.5,-75.5 1074.5,-56.5 1022.5,-56.5"/>
<text text-anchor="middle" x="1048.5" y="-63.5" font-family="Helvetica,sans-Serif" font-size="10.00" fill="#000000">memory</text>
</g>
<!-- Node14&#45;&gt;Node15 -->
<g id="edge18" class="edge">
<title>Node14&#45;&gt;Node15</title>
<path fill="none" stroke="#191970" d="M1087.3132,-112.2455C1080.6411,-104.2958 1071.0521,-92.8706 1063.0747,-83.3656"/>
<polygon fill="#191970" stroke="#191970" points="1065.7026,-81.0524 1056.593,-75.6427 1060.3408,-85.5525 1065.7026,-81.0524"/>
</g>
<!-- Node16 -->
<g id="node17" class="node">
<title>Node16</title>
<polygon fill="#ffffff" stroke="#bfbfbf" points="1093,-56.5 1093,-75.5 1192,-75.5 1192,-56.5 1093,-56.5"/>
<text text-anchor="middle" x="1142.5" y="-63.5" font-family="Helvetica,sans-Serif" font-size="10.00" fill="#000000">AMReX_BCRec.H</text>
</g>
<!-- Node14&#45;&gt;Node16 -->
<g id="edge21" class="edge">
<title>Node14&#45;&gt;Node16</title>
<path fill="none" stroke="#191970" d="M1103.6868,-112.2455C1110.3589,-104.2958 1119.9479,-92.8706 1127.9253,-83.3656"/>
<polygon fill="#191970" stroke="#191970" points="1130.6592,-85.5525 1134.407,-75.6427 1125.2974,-81.0524 1130.6592,-85.5525"/>
</g>
<!-- Node17 -->
<g id="node18" class="node">
<title>Node17</title>
<g id="a_node18"><a xlink:href="incflo__enums_8_h.html" target="_top" xlink:title="amr&#45;wind/incflo_enums.H">
<polygon fill="#ffffff" stroke="#000000" points="730.5,-56.5 730.5,-75.5 858.5,-75.5 858.5,-56.5 730.5,-56.5"/>
<text text-anchor="middle" x="794.5" y="-63.5" font-family="Helvetica,sans-Serif" font-size="10.00" fill="#000000">amr&#45;wind/incflo_enums.H</text>
</a>
</g>
</g>
<!-- Node14&#45;&gt;Node17 -->
<g id="edge23" class="edge">
<title>Node14&#45;&gt;Node17</title>
<path fill="none" stroke="#191970" d="M1044.0983,-112.4369C991.9351,-102.7321 911.1803,-87.708 855.7354,-77.3926"/>
<polygon fill="#191970" stroke="#191970" points="856.1612,-73.9119 845.6897,-75.5237 854.8808,-80.7938 856.1612,-73.9119"/>
</g>
<!-- Node18 -->
<g id="node19" class="node">
<title>Node18</title>
<g id="a_node19"><a xlink:href="_view_field_8_h.html" target="_top" xlink:title="amr&#45;wind/core/ViewField.H">
<polygon fill="#ffffff" stroke="#000000" points="1286.5,-56.5 1286.5,-75.5 1420.5,-75.5 1420.5,-56.5 1286.5,-56.5"/>
<text text-anchor="middle" x="1353.5" y="-63.5" font-family="Helvetica,sans-Serif" font-size="10.00" fill="#000000">amr&#45;wind/core/ViewField.H</text>
</a>
</g>
</g>
<!-- Node14&#45;&gt;Node18 -->
<g id="edge25" class="edge">
<title>Node14&#45;&gt;Node18</title>
<path fill="none" stroke="#191970" d="M1139.5586,-112.4369C1183.8989,-102.8127 1252.3411,-87.957 1299.8249,-77.6504"/>
<polygon fill="#191970" stroke="#191970" points="1300.5931,-81.0653 1309.6231,-75.5237 1299.1082,-74.2245 1300.5931,-81.0653"/>
</g>
<!-- Node18&#45;&gt;Node3 -->
<g id="edge27" class="edge">
<title>Node18&#45;&gt;Node3</title>
<path fill="none" stroke="#191970" d="M1351.0614,-56.2455C1349.2145,-48.8579 1346.6172,-38.4689 1344.3522,-29.4087"/>
<polygon fill="#191970" stroke="#191970" points="1347.7316,-28.4952 1341.9107,-19.6427 1340.9406,-30.193 1347.7316,-28.4952"/>
</g>
<!-- Node18&#45;&gt;Node9 -->
<g id="edge26" class="edge">
<title>Node18&#45;&gt;Node9</title>
<path fill="none" stroke="#191970" d="M1395.6802,-56.4369C1445.3007,-45.1869 1526.4497,-26.7887 1570.2252,-16.8639"/>
<polygon fill="#191970" stroke="#191970" points="1571.0188,-20.2729 1579.9974,-14.6484 1569.471,-13.4462 1571.0188,-20.2729"/>
</g>
<!-- Node18&#45;&gt;Node12 -->
<g id="edge28" class="edge">
<title>Node18&#45;&gt;Node12</title>
<path fill="none" stroke="#191970" d="M1286.3411,-57.4868C1281.6594,-56.9617 1277.0107,-56.4602 1272.5,-56 1088.2612,-37.2015 869.8759,-21.3748 764.9291,-14.1701"/>
<polygon fill="#191970" stroke="#191970" points="765.0433,-10.6698 754.8278,-13.4793 764.5656,-17.6535 765.0433,-10.6698"/>
</g>
<!-- Node19 -->
<g id="node20" class="node">
<title>Node19</title>
<polygon fill="#ffffff" stroke="#bfbfbf" points="1439,-.5 1439,-19.5 1534,-19.5 1534,-.5 1439,-.5"/>
<text text-anchor="middle" x="1486.5" y="-7.5" font-family="Helvetica,sans-Serif" font-size="10.00" fill="#000000">AMReX_Vector.H</text>
</g>
<!-- Node18&#45;&gt;Node19 -->
<g id="edge29" class="edge">
<title>Node18&#45;&gt;Node19</title>
<path fill="none" stroke="#191970" d="M1376.3635,-56.3733C1397.905,-47.3032 1430.3838,-33.6279 1454.4956,-23.4755"/>
<polygon fill="#191970" stroke="#191970" points="1456.0767,-26.6075 1463.9348,-19.5011 1453.3603,-20.156 1456.0767,-26.6075"/>
</g>
<!-- Node20&#45;&gt;Node3 -->
<g id="edge32" class="edge">
<title>Node20&#45;&gt;Node3</title>
<path fill="none" stroke="#191970" d="M1824.167,-112.3775C1818.4393,-97.4508 1805.2046,-69.0758 1783.5,-56 1718.4648,-16.8201 1524.0871,-27.416 1431.5779,-19.9701"/>
<polygon fill="#191970" stroke="#191970" points="1431.6289,-16.46 1421.3492,-19.025 1430.9848,-23.4303 1431.6289,-16.46"/>
</g>
<!-- Node20&#45;&gt;Node9 -->
<g id="edge31" class="edge">
<title>Node20&#45;&gt;Node9</title>
<path fill="none" stroke="#191970" d="M1828.9368,-112.4741C1830.5072,-98.1921 1831.1119,-71.2797 1816.5,-56 1791.3993,-29.752 1685.1573,-17.1609 1631.6148,-12.3883"/>
<polygon fill="#191970" stroke="#191970" points="1631.6042,-8.8748 1621.3427,-11.5113 1631.0087,-15.8494 1631.6042,-8.8748"/>
</g>
<!-- Node20&#45;&gt;Node21 -->
<g id="edge33" class="edge">
<title>Node20&#45;&gt;Node21</title>
<path fill="none" stroke="#191970" d="M1808.862,-112.2455C1792.0614,-103.4527 1767.1366,-90.4079 1748.0382,-80.4125"/>
<polygon fill="#191970" stroke="#191970" points="1749.4073,-77.1787 1738.9244,-75.6427 1746.1614,-83.3807 1749.4073,-77.1787"/>
</g>
<!-- Node22&#45;&gt;Node3 -->
<g id="edge36" class="edge">
<title>Node22&#45;&gt;Node3</title>
<path fill="none" stroke="#191970" d="M1401.9171,-112.4063C1418.1379,-99.5837 1441.8215,-76.1354 1429.5,-56 1420.1591,-40.7354 1403.9772,-30.3326 1387.8874,-23.3404"/>
<polygon fill="#191970" stroke="#191970" points="1389.0629,-20.0414 1378.477,-19.6067 1386.4813,-26.548 1389.0629,-20.0414"/>
</g>
<!-- Node22&#45;&gt;Node7 -->
<g id="edge40" class="edge">
<title>Node22&#45;&gt;Node7</title>
<path fill="none" stroke="#191970" d="M1315.1683,-113.3141C1241.7619,-104.5489 1125.2941,-90.4512 1014.5934,-76.1284"/>
<polygon fill="#191970" stroke="#191970" points="1014.9543,-72.6459 1004.5873,-74.831 1014.0542,-79.5878 1014.9543,-72.6459"/>
</g>
<!-- Node22&#45;&gt;Node9 -->
<g id="edge35" class="edge">
<title>Node22&#45;&gt;Node9</title>
<path fill="none" stroke="#191970" d="M1455.11,-112.4824C1501.652,-104.6003 1558.5504,-92.0956 1576.5,-76 1589.665,-64.1948 1595.6162,-44.5826 1598.3019,-29.798"/>
<polygon fill="#191970" stroke="#191970" points="1601.8031,-30.0433 1599.7845,-19.6425 1594.8766,-29.032 1601.8031,-30.0433"/>
</g>
<!-- Node22&#45;&gt;Node12 -->
<g id="edge38" class="edge">
<title>Node22&#45;&gt;Node12</title>
<path fill="none" stroke="#191970" d="M1367.0086,-112.495C1332.6003,-97.7294 1262.6853,-69.5709 1200.5,-56 1118.9789,-38.2093 879.1597,-21.2036 764.6868,-13.8323"/>
<polygon fill="#191970" stroke="#191970" points="764.8755,-10.3373 754.6723,-13.1914 764.4284,-17.323 764.8755,-10.3373"/>
</g>
<!-- Node22&#45;&gt;Node18 -->
<g id="edge37" class="edge">
<title>Node22&#45;&gt;Node18</title>
<path fill="none" stroke="#191970" d="M1382.4035,-112.2455C1377.5855,-104.5367 1370.7249,-93.5598 1364.8968,-84.2348"/>
<polygon fill="#191970" stroke="#191970" points="1367.7947,-82.2677 1359.5267,-75.6427 1361.8587,-85.9777 1367.7947,-82.2677"/>
</g>
<!-- Node22&#45;&gt;Node19 -->
<g id="edge39" class="edge">
<title>Node22&#45;&gt;Node19</title>
<path fill="none" stroke="#191970" d="M1402.4388,-112.4807C1414.4546,-103.848 1431.8191,-90.3154 1444.5,-76 1457.3993,-61.438 1469.0122,-42.5098 1476.74,-28.6599"/>
<polygon fill="#191970" stroke="#191970" points="1479.958,-30.0676 1481.6433,-19.6076 1473.8029,-26.7336 1479.958,-30.0676"/>
</g>
</g>
</svg>
        <g id="navigator" transform="translate(0 0)" fill="#404254">
                <rect fill="#f2f5e9" fill-opacity="0.5" stroke="#606060" stroke-width=".5" x="0" y="0" width="60" height="60"/>
                <use id="zoomplus" xlink:href="#zoomPlus" x="17" y="9" onmousedown="handleZoom(evt,'in')"/>
                <use id="zoomminus" xlink:href="#zoomMin" x="42" y="9" onmousedown="handleZoom(evt,'out')"/>
                <use id="reset" xlink:href="#resetDef" x="30" y="36" onmousedown="handleReset()"/>
                <g id="arrowUp" xlink:href="#dirArrow" transform="translate(30 24)" onmousedown="handlePan(0,-1)">
                  <use xlink:href="#rim" fill="#404040">
                        <set attributeName="fill" to="#808080" begin="arrowUp.mouseover" end="arrowUp.mouseout"/>
                  </use>
                  <path fill="none" stroke="white" stroke-width="1.5" d="M0,-3.0v7 M-2.5,-0.5L0,-3.0L2.5,-0.5"/>
                </g>
                <g id="arrowRight" xlink:href="#dirArrow" transform="rotate(90) translate(36 -43)" onmousedown="handlePan(1,0)">
                  <use xlink:href="#rim" fill="#404040">
                        <set attributeName="fill" to="#808080" begin="arrowRight.mouseover" end="arrowRight.mouseout"/>
                  </use>
                  <path fill="none" stroke="white" stroke-width="1.5" d="M0,-3.0v7 M-2.5,-0.5L0,-3.0L2.5,-0.5"/>
                </g>
                <g id="arrowDown" xlink:href="#dirArrow" transform="rotate(180) translate(-30 -48)" onmousedown="handlePan(0,1)">
                  <use xlink:href="#rim" fill="#404040">
                        <set attributeName="fill" to="#808080" begin="arrowDown.mouseover" end="arrowDown.mouseout"/>
                  </use>
                  <path fill="none" stroke="white" stroke-width="1.5" d="M0,-3.0v7 M-2.5,-0.5L0,-3.0L2.5,-0.5"/>
                </g>
                <g id="arrowLeft" xlink:href="#dirArrow" transform="rotate(270) translate(-36 17)" onmousedown="handlePan(-1,0)">
                  <use xlink:href="#rim" fill="#404040">
                        <set attributeName="fill" to="#808080" begin="arrowLeft.mouseover" end="arrowLeft.mouseout"/>
                  </use>
                  <path fill="none" stroke="white" stroke-width="1.5" d="M0,-3.0v7 M-2.5,-0.5L0,-3.0L2.5,-0.5"/>
                </g>
        </g>
        <svg viewBox="0 0 15 15" width="100%" height="30px" preserveAspectRatio="xMaxYMin meet">
         <g id="arrow_out" transform="scale(0.3 0.3)">
          <a xlink:href="_fixed_gradient_b_c_8cpp__incl_org.svg" target="_base">
           <rect id="button" ry="5" rx="5" y="6" x="6" height="38" width="38"
                fill="#f2f5e9" fill-opacity="0.5" stroke="#606060" stroke-width="1.0"/>
           <path id="arrow"
             d="M 11.500037,31.436501 C 11.940474,20.09759 22.043105,11.32322 32.158766,21.979434 L 37.068811,17.246167 C 37.068811,17.246167 37.088388,32 37.088388,32 L 22.160133,31.978069 C 22.160133,31.978069 26.997745,27.140456 26.997745,27.140456 C 18.528582,18.264221 13.291696,25.230495 11.500037,31.436501 z"
             style="fill:#404040;"/>
          </a>
         </g>
        </svg>
</svg>
