<?xml version="1.0" encoding="UTF-8" standalone="no"?>
<!DOCTYPE svg PUBLIC "-//W3C//DTD SVG 1.1//EN"
 "http://www.w3.org/Graphics/SVG/1.1/DTD/svg11.dtd">
<!-- Generated by graphviz version 2.40.1 (20161225.0304)
 -->
<!-- Title: IOManager.H Pages: 1 -->
<!--zoomable 364 -->
<svg id="main" version="1.1" xmlns="http://www.w3.org/2000/svg" xmlns:xlink="http://www.w3.org/1999/xlink" xml:space="preserve" onload="init(evt)">
<style type="text/css"><![CDATA[
.edge:hover path { stroke: red; }
.edge:hover polygon { stroke: red; fill: red; }
]]></style>
<script type="text/javascript"><![CDATA[
var edges = document.getElementsByTagName('g');
if (edges && edges.length) {
  for (var i=0;i<edges.length;i++) {
    if (edges[i].id.substr(0,4)=='edge') {
      edges[i].setAttribute('class','edge');
    }
  }
}
]]></script>
        <defs>
                <circle id="rim" cx="0" cy="0" r="7"/>
                <circle id="rim2" cx="0" cy="0" r="3.5"/>
                <g id="zoomPlus">
                        <use xlink:href="#rim" fill="#404040">
                                <set attributeName="fill" to="#808080" begin="zoomplus.mouseover" end="zoomplus.mouseout"/>
                        </use>
                        <path d="M-4,0h8M0,-4v8" fill="none" stroke="white" stroke-width="1.5" pointer-events="none"/>
                </g>
                <g id="zoomMin">
                        <use xlink:href="#rim" fill="#404040">
                                <set attributeName="fill" to="#808080" begin="zoomminus.mouseover" end="zoomminus.mouseout"/>
                        </use>
                        <path d="M-4,0h8" fill="none" stroke="white" stroke-width="1.5" pointer-events="none"/>
                </g>
                <g id="dirArrow">
                        <path fill="none" stroke="white" stroke-width="1.5" d="M0,-3.0v7 M-2.5,-0.5L0,-3.0L2.5,-0.5"/>
                </g>
               <g id="resetDef">
                       <use xlink:href="#rim2" fill="#404040">
                               <set attributeName="fill" to="#808080" begin="reset.mouseover" end="reset.mouseout"/>
                       </use>
               </g>
        </defs>

<script type="text/javascript">
var viewWidth = 1435;
var viewHeight = 364;
var sectionId = 'dynsection-1';
</script>
<script xlink:href="svgpan.js"/>
<svg id="graph" class="graph">
<g id="viewport">
<title>IOManager.H</title>
<polygon fill="#ffffff" stroke="transparent" points="-4,4 -4,-360 1430.6236,-360 1430.6236,4 -4,4"/>
<!-- Node5 -->
<g id="node1" class="node">
<title>Node5</title>
<polygon fill="#bfbfbf" stroke="#000000" points="1080.6236,-336.5 1080.6236,-355.5 1155.6236,-355.5 1155.6236,-336.5 1080.6236,-336.5"/>
<text text-anchor="middle" x="1118.1236" y="-343.5" font-family="Helvetica,sans-Serif" font-size="10.00" fill="#000000">IOManager.H</text>
</g>
<!-- Node6 -->
<g id="node2" class="node">
<title>Node6</title>
<g id="a_node2"><a xlink:href="_c_f_d_sim_8cpp.html" target="_top" xlink:title="CFDSim.cpp">
<polygon fill="#ffffff" stroke="#000000" points="703.1236,-280.5 703.1236,-299.5 777.1236,-299.5 777.1236,-280.5 703.1236,-280.5"/>
<text text-anchor="middle" x="740.1236" y="-287.5" font-family="Helvetica,sans-Serif" font-size="10.00" fill="#000000">CFDSim.cpp</text>
</a>
</g>
</g>
<!-- Node5&#45;&gt;Node6 -->
<g id="edge1" class="edge">
<title>Node5&#45;&gt;Node6</title>
<path fill="none" stroke="#191970" d="M1069.8275,-340.4818C1005.0438,-332.8123 886.5243,-317.8417 786.1236,-300 783.2268,-299.4852 780.2351,-298.9175 777.2324,-298.3218"/>
<polygon fill="#191970" stroke="#191970" points="1069.7946,-344.002 1080.135,-341.6941 1070.6123,-337.0499 1069.7946,-344.002"/>
</g>
<!-- Node7 -->
<g id="node3" class="node">
<title>Node7</title>
<g id="a_node3"><a xlink:href="_p_d_e_ops_8_h.html" target="_top" xlink:title="PDEOps.H">
<polygon fill="#ffffff" stroke="#000000" points="795.1236,-280.5 795.1236,-299.5 861.1236,-299.5 861.1236,-280.5 795.1236,-280.5"/>
<text text-anchor="middle" x="828.1236" y="-287.5" font-family="Helvetica,sans-Serif" font-size="10.00" fill="#000000">PDEOps.H</text>
</a>
</g>
</g>
<!-- Node5&#45;&gt;Node7 -->
<g id="edge2" class="edge">
<title>Node5&#45;&gt;Node7</title>
<path fill="none" stroke="#191970" d="M1070.3263,-336.7702C1011.3013,-325.3723 912.4431,-306.2824 861.1889,-296.385"/>
<polygon fill="#191970" stroke="#191970" points="1070.0262,-340.2768 1080.5084,-338.7364 1071.3534,-333.4038 1070.0262,-340.2768"/>
</g>
<!-- Node35 -->
<g id="node31" class="node">
<title>Node35</title>
<g id="a_node31"><a xlink:href="incflo_8cpp.html" target="_top" xlink:title="incflo.cpp">
<polygon fill="#ffffff" stroke="#000000" points="1088.6236,-280.5 1088.6236,-299.5 1147.6236,-299.5 1147.6236,-280.5 1088.6236,-280.5"/>
<text text-anchor="middle" x="1118.1236" y="-287.5" font-family="Helvetica,sans-Serif" font-size="10.00" fill="#000000">incflo.cpp</text>
</a>
</g>
</g>
<!-- Node5&#45;&gt;Node35 -->
<g id="edge59" class="edge">
<title>Node5&#45;&gt;Node35</title>
<path fill="none" stroke="#191970" d="M1118.1236,-326.1575C1118.1236,-317.155 1118.1236,-306.9199 1118.1236,-299.6427"/>
<polygon fill="#191970" stroke="#191970" points="1114.6237,-326.2455 1118.1236,-336.2455 1121.6237,-326.2456 1114.6237,-326.2455"/>
</g>
<!-- Node36 -->
<g id="node32" class="node">
<title>Node36</title>
<g id="a_node32"><a xlink:href="_tioga_interface_8cpp.html" target="_top" xlink:title="TiogaInterface.cpp">
<polygon fill="#ffffff" stroke="#000000" points="1166.1236,-280.5 1166.1236,-299.5 1264.1236,-299.5 1264.1236,-280.5 1166.1236,-280.5"/>
<text text-anchor="middle" x="1215.1236" y="-287.5" font-family="Helvetica,sans-Serif" font-size="10.00" fill="#000000">TiogaInterface.cpp</text>
</a>
</g>
</g>
<!-- Node5&#45;&gt;Node36 -->
<g id="edge60" class="edge">
<title>Node5&#45;&gt;Node36</title>
<path fill="none" stroke="#191970" d="M1144.0252,-331.0465C1161.2844,-321.0824 1183.4611,-308.2794 1198.4211,-299.6427"/>
<polygon fill="#191970" stroke="#191970" points="1141.9301,-328.2146 1135.0197,-336.2455 1145.43,-334.2768 1141.9301,-328.2146"/>
</g>
<!-- Node37 -->
<g id="node33" class="node">
<title>Node37</title>
<g id="a_node33"><a xlink:href="_turb_model_base_8_h.html" target="_top" xlink:title="TurbModelBase.H">
<polygon fill="#ffffff" stroke="#000000" points="975.6236,-280.5 975.6236,-299.5 1070.6236,-299.5 1070.6236,-280.5 975.6236,-280.5"/>
<text text-anchor="middle" x="1023.1236" y="-287.5" font-family="Helvetica,sans-Serif" font-size="10.00" fill="#000000">TurbModelBase.H</text>
</a>
</g>
</g>
<!-- Node5&#45;&gt;Node37 -->
<g id="edge61" class="edge">
<title>Node5&#45;&gt;Node37</title>
<path fill="none" stroke="#191970" d="M1092.756,-331.0465C1075.8526,-321.0824 1054.1332,-308.2794 1039.4817,-299.6427"/>
<polygon fill="#191970" stroke="#191970" points="1091.1838,-334.1825 1101.5758,-336.2455 1094.7385,-328.1522 1091.1838,-334.1825"/>
</g>
<!-- Node42 -->
<g id="node38" class="node">
<title>Node42</title>
<g id="a_node38"><a xlink:href="io_8cpp.html" target="_top" xlink:title="io.cpp">
<polygon fill="#ffffff" stroke="#000000" points="1282.6236,-280.5 1282.6236,-299.5 1325.6236,-299.5 1325.6236,-280.5 1282.6236,-280.5"/>
<text text-anchor="middle" x="1304.1236" y="-287.5" font-family="Helvetica,sans-Serif" font-size="10.00" fill="#000000">io.cpp</text>
</a>
</g>
</g>
<!-- Node5&#45;&gt;Node42 -->
<g id="edge67" class="edge">
<title>Node5&#45;&gt;Node42</title>
<path fill="none" stroke="#191970" d="M1160.8255,-333.6208C1192.0023,-324.5112 1235.2579,-311.7244 1273.1236,-300 1276.1487,-299.0633 1279.3337,-298.0579 1282.4639,-297.0587"/>
<polygon fill="#191970" stroke="#191970" points="1159.7695,-330.2829 1151.1497,-336.4432 1161.7297,-337.0028 1159.7695,-330.2829"/>
</g>
<!-- Node43 -->
<g id="node39" class="node">
<title>Node43</title>
<g id="a_node39"><a xlink:href="_i_o_manager_8cpp.html" target="_top" xlink:title="IOManager.cpp">
<polygon fill="#ffffff" stroke="#000000" points="1343.6236,-280.5 1343.6236,-299.5 1426.6236,-299.5 1426.6236,-280.5 1343.6236,-280.5"/>
<text text-anchor="middle" x="1385.1236" y="-287.5" font-family="Helvetica,sans-Serif" font-size="10.00" fill="#000000">IOManager.cpp</text>
</a>
</g>
</g>
<!-- Node5&#45;&gt;Node43 -->
<g id="edge68" class="edge">
<title>Node5&#45;&gt;Node43</title>
<path fill="none" stroke="#191970" d="M1165.8159,-335.9971C1216.2679,-325.4154 1295.0941,-308.8826 1343.2305,-298.7866"/>
<polygon fill="#191970" stroke="#191970" points="1164.8804,-332.6171 1155.8118,-338.0953 1166.3174,-339.468 1164.8804,-332.6171"/>
</g>
<!-- Node8 -->
<g id="node4" class="node">
<title>Node8</title>
<g id="a_node4"><a xlink:href="_adv_op___godunov_8_h.html" target="_top" xlink:title="AdvOp_Godunov.H">
<polygon fill="#ffffff" stroke="#000000" points="530.6236,-112.5 530.6236,-131.5 631.6236,-131.5 631.6236,-112.5 530.6236,-112.5"/>
<text text-anchor="middle" x="581.1236" y="-119.5" font-family="Helvetica,sans-Serif" font-size="10.00" fill="#000000">AdvOp_Godunov.H</text>
</a>
</g>
</g>
<!-- Node7&#45;&gt;Node8 -->
<g id="edge3" class="edge">
<title>Node7&#45;&gt;Node8</title>
<path fill="none" stroke="#191970" d="M815.5447,-272.0339C794.025,-241.7473 750.4108,-182.4145 729.1236,-168 699.9373,-148.2367 661.8666,-136.6545 631.6468,-130.0557"/>
<polygon fill="#191970" stroke="#191970" points="812.8378,-274.2683 821.4647,-280.4188 818.5562,-270.231 812.8378,-274.2683"/>
</g>
<!-- Node10 -->
<g id="node6" class="node">
<title>Node10</title>
<g id="a_node6"><a xlink:href="icns__ops_8_h.html" target="_top" xlink:title="icns_ops.H">
<polygon fill="#ffffff" stroke="#000000" points="987.1236,-56.5 987.1236,-75.5 1053.1236,-75.5 1053.1236,-56.5 987.1236,-56.5"/>
<text text-anchor="middle" x="1020.1236" y="-63.5" font-family="Helvetica,sans-Serif" font-size="10.00" fill="#000000">icns_ops.H</text>
</a>
</g>
</g>
<!-- Node7&#45;&gt;Node10 -->
<g id="edge57" class="edge">
<title>Node7&#45;&gt;Node10</title>
<path fill="none" stroke="#191970" d="M863.2502,-276.4661C880.4448,-268.7002 900.7065,-257.7452 916.1236,-244 972.4922,-193.7442 1006.5917,-105.41 1016.838,-75.9079"/>
<polygon fill="#191970" stroke="#191970" points="861.8455,-273.2602 854.0634,-280.4498 864.6304,-279.6824 861.8455,-273.2602"/>
</g>
<!-- Node17 -->
<g id="node13" class="node">
<title>Node17</title>
<g id="a_node13"><a xlink:href="_adv_op___m_o_l_8_h.html" target="_top" xlink:title="AdvOp_MOL.H">
<polygon fill="#ffffff" stroke="#000000" points="649.6236,-112.5 649.6236,-131.5 732.6236,-131.5 732.6236,-112.5 649.6236,-112.5"/>
<text text-anchor="middle" x="691.1236" y="-119.5" font-family="Helvetica,sans-Serif" font-size="10.00" fill="#000000">AdvOp_MOL.H</text>
</a>
</g>
</g>
<!-- Node7&#45;&gt;Node17 -->
<g id="edge12" class="edge">
<title>Node7&#45;&gt;Node17</title>
<path fill="none" stroke="#191970" d="M822.2362,-270.6239C813.5915,-244.7451 795.3624,-198.6128 767.1236,-168 752.2741,-151.9022 730.5147,-139.5097 714.08,-131.6649"/>
<polygon fill="#191970" stroke="#191970" points="818.9739,-271.9133 825.3555,-280.3706 825.6408,-269.7796 818.9739,-271.9133"/>
</g>
<!-- Node18 -->
<g id="node14" class="node">
<title>Node18</title>
<g id="a_node14"><a xlink:href="_b_c_ops_8_h.html" target="_top" xlink:title="BCOps.H">
<polygon fill="#ffffff" stroke="#000000" points="453.6236,-112.5 453.6236,-131.5 512.6236,-131.5 512.6236,-112.5 453.6236,-112.5"/>
<text text-anchor="middle" x="483.1236" y="-119.5" font-family="Helvetica,sans-Serif" font-size="10.00" fill="#000000">BCOps.H</text>
</a>
</g>
</g>
<!-- Node7&#45;&gt;Node18 -->
<g id="edge19" class="edge">
<title>Node7&#45;&gt;Node18</title>
<path fill="none" stroke="#191970" d="M807.4506,-274.2656C773.2396,-248.8577 701.9736,-198.5608 635.1236,-168 613.2457,-157.9985 550.5692,-140.2587 512.8792,-129.9771"/>
<polygon fill="#191970" stroke="#191970" points="805.603,-277.2546 815.7048,-280.449 809.7999,-271.6522 805.603,-277.2546"/>
</g>
<!-- Node20 -->
<g id="node16" class="node">
<title>Node20</title>
<g id="a_node16"><a xlink:href="_comp_r_h_s_ops_8_h.html" target="_top" xlink:title="CompRHSOps.H">
<polygon fill="#ffffff" stroke="#000000" points="555.6236,-224.5 555.6236,-243.5 648.6236,-243.5 648.6236,-224.5 555.6236,-224.5"/>
<text text-anchor="middle" x="602.1236" y="-231.5" font-family="Helvetica,sans-Serif" font-size="10.00" fill="#000000">CompRHSOps.H</text>
</a>
</g>
</g>
<!-- Node7&#45;&gt;Node20 -->
<g id="edge27" class="edge">
<title>Node7&#45;&gt;Node20</title>
<path fill="none" stroke="#191970" d="M784.9027,-279.2904C743.1662,-268.9486 680.5607,-253.4358 640.5294,-243.5165"/>
<polygon fill="#191970" stroke="#191970" points="784.2282,-282.7291 794.7765,-281.737 785.9118,-275.9345 784.2282,-282.7291"/>
</g>
<!-- Node21 -->
<g id="node17" class="node">
<title>Node21</title>
<g id="a_node17"><a xlink:href="_p_d_e_8_h.html" target="_top" xlink:title="PDE.H">
<polygon fill="#ffffff" stroke="#000000" points="578.1236,-168.5 578.1236,-187.5 626.1236,-187.5 626.1236,-168.5 578.1236,-168.5"/>
<text text-anchor="middle" x="602.1236" y="-175.5" font-family="Helvetica,sans-Serif" font-size="10.00" fill="#000000">PDE.H</text>
</a>
</g>
</g>
<!-- Node7&#45;&gt;Node21 -->
<g id="edge51" class="edge">
<title>Node7&#45;&gt;Node21</title>
<path fill="none" stroke="#191970" d="M785.4976,-277.4027C760.3271,-269.273 728.1946,-257.6747 701.1236,-244 667.9353,-227.2352 632.4739,-201.4165 614.3438,-187.5642"/>
<polygon fill="#191970" stroke="#191970" points="784.535,-280.7691 795.1251,-280.4536 786.6496,-274.0962 784.535,-280.7691"/>
</g>
<!-- Node25 -->
<g id="node21" class="node">
<title>Node25</title>
<g id="a_node21"><a xlink:href="icns__diffusion_8_h.html" target="_top" xlink:title="icns_diffusion.H">
<polygon fill="#ffffff" stroke="#000000" points="1177.6236,-56.5 1177.6236,-75.5 1264.6236,-75.5 1264.6236,-56.5 1177.6236,-56.5"/>
<text text-anchor="middle" x="1221.1236" y="-63.5" font-family="Helvetica,sans-Serif" font-size="10.00" fill="#000000">icns_diffusion.H</text>
</a>
</g>
</g>
<!-- Node7&#45;&gt;Node25 -->
<g id="edge58" class="edge">
<title>Node7&#45;&gt;Node25</title>
<path fill="none" stroke="#191970" d="M871.2903,-285.6842C950.1536,-277.478 1111.3611,-259.0957 1132.1236,-244 1132.1236,-244 1197.8523,-112.5425 1216.3385,-75.5701"/>
<polygon fill="#191970" stroke="#191970" points="870.7739,-282.2188 861.186,-286.7268 871.4925,-289.1818 870.7739,-282.2188"/>
</g>
<!-- Node33 -->
<g id="node29" class="node">
<title>Node33</title>
<g id="a_node29"><a xlink:href="_diffusion_ops_8_h.html" target="_top" xlink:title="DiffusionOps.H">
<polygon fill="#ffffff" stroke="#000000" points="823.1236,-224.5 823.1236,-243.5 907.1236,-243.5 907.1236,-224.5 823.1236,-224.5"/>
<text text-anchor="middle" x="865.1236" y="-231.5" font-family="Helvetica,sans-Serif" font-size="10.00" fill="#000000">DiffusionOps.H</text>
</a>
</g>
</g>
<!-- Node7&#45;&gt;Node33 -->
<g id="edge52" class="edge">
<title>Node7&#45;&gt;Node33</title>
<path fill="none" stroke="#191970" d="M840.2612,-271.6296C846.4328,-262.2887 853.6802,-251.3197 858.7525,-243.6427"/>
<polygon fill="#191970" stroke="#191970" points="837.1609,-269.9728 834.5685,-280.2455 843.0013,-273.8316 837.1609,-269.9728"/>
</g>
<!-- Node9 -->
<g id="node5" class="node">
<title>Node9</title>
<g id="a_node5"><a xlink:href="density_8cpp.html" target="_top" xlink:title="density.cpp">
<polygon fill="#ffffff" stroke="#000000" points="263.6236,-.5 263.6236,-19.5 330.6236,-19.5 330.6236,-.5 263.6236,-.5"/>
<text text-anchor="middle" x="297.1236" y="-7.5" font-family="Helvetica,sans-Serif" font-size="10.00" fill="#000000">density.cpp</text>
</a>
</g>
</g>
<!-- Node8&#45;&gt;Node9 -->
<g id="edge4" class="edge">
<title>Node8&#45;&gt;Node9</title>
<path fill="none" stroke="#191970" d="M571.5118,-103.0869C562.7966,-87.9274 548.5101,-67.3721 530.1236,-56 497.1607,-35.6124 386.9536,-20.361 330.7318,-13.6972"/>
<polygon fill="#191970" stroke="#191970" points="568.5705,-105.0047 576.4215,-112.119 574.7206,-101.6616 568.5705,-105.0047"/>
</g>
<!-- Node8&#45;&gt;Node10 -->
<g id="edge5" class="edge">
<title>Node8&#45;&gt;Node10</title>
<path fill="none" stroke="#191970" d="M641.7959,-111.8081C774.7397,-92.7427 810.0843,-91.9297 940.1236,-76 955.5449,-74.1109 972.6334,-71.98 987.0439,-70.1721"/>
<polygon fill="#191970" stroke="#191970" points="641.0268,-108.3828 631.6287,-113.2743 642.0259,-115.3111 641.0268,-108.3828"/>
</g>
<!-- Node13 -->
<g id="node9" class="node">
<title>Node13</title>
<g id="a_node9"><a xlink:href="levelset_8cpp.html" target="_top" xlink:title="levelset.cpp">
<polygon fill="#ffffff" stroke="#000000" points="88.6236,-.5 88.6236,-19.5 157.6236,-19.5 157.6236,-.5 88.6236,-.5"/>
<text text-anchor="middle" x="123.1236" y="-7.5" font-family="Helvetica,sans-Serif" font-size="10.00" fill="#000000">levelset.cpp</text>
</a>
</g>
</g>
<!-- Node8&#45;&gt;Node13 -->
<g id="edge8" class="edge">
<title>Node8&#45;&gt;Node13</title>
<path fill="none" stroke="#191970" d="M562.6722,-105.7711C542.3191,-88.2227 510.5432,-61.952 496.1236,-56 465.1762,-43.2258 244.0832,-21.3657 157.6395,-13.2006"/>
<polygon fill="#191970" stroke="#191970" points="560.5153,-108.5337 570.359,-112.4518 565.1072,-103.2502 560.5153,-108.5337"/>
</g>
<!-- Node14 -->
<g id="node10" class="node">
<title>Node14</title>
<g id="a_node10"><a xlink:href="_s_d_r_8cpp.html" target="_top" xlink:title="SDR.cpp">
<polygon fill="#ffffff" stroke="#000000" points="430.6236,-56.5 430.6236,-75.5 487.6236,-75.5 487.6236,-56.5 430.6236,-56.5"/>
<text text-anchor="middle" x="459.1236" y="-63.5" font-family="Helvetica,sans-Serif" font-size="10.00" fill="#000000">SDR.cpp</text>
</a>
</g>
</g>
<!-- Node8&#45;&gt;Node14 -->
<g id="edge9" class="edge">
<title>Node8&#45;&gt;Node14</title>
<path fill="none" stroke="#191970" d="M550.8651,-108.1109C528.7417,-97.9559 499.3142,-84.4482 479.8224,-75.5011"/>
<polygon fill="#191970" stroke="#191970" points="549.6026,-111.3824 560.151,-112.3733 552.5228,-105.0206 549.6026,-111.3824"/>
</g>
<!-- Node15 -->
<g id="node11" class="node">
<title>Node15</title>
<g id="a_node11"><a xlink:href="temperature_8cpp.html" target="_top" xlink:title="temperature.cpp">
<polygon fill="#ffffff" stroke="#000000" points="325.6236,-56.5 325.6236,-75.5 412.6236,-75.5 412.6236,-56.5 325.6236,-56.5"/>
<text text-anchor="middle" x="369.1236" y="-63.5" font-family="Helvetica,sans-Serif" font-size="10.00" fill="#000000">temperature.cpp</text>
</a>
</g>
</g>
<!-- Node8&#45;&gt;Node15 -->
<g id="edge10" class="edge">
<title>Node8&#45;&gt;Node15</title>
<path fill="none" stroke="#191970" d="M534.6346,-109.7199C495.6527,-99.4228 440.7857,-84.9296 405.0921,-75.5011"/>
<polygon fill="#191970" stroke="#191970" points="534.1172,-113.2032 544.6795,-112.3733 535.905,-106.4353 534.1172,-113.2032"/>
</g>
<!-- Node16 -->
<g id="node12" class="node">
<title>Node16</title>
<g id="a_node12"><a xlink:href="_t_k_e_8cpp.html" target="_top" xlink:title="TKE.cpp">
<polygon fill="#ffffff" stroke="#000000" points="582.6236,-56.5 582.6236,-75.5 637.6236,-75.5 637.6236,-56.5 582.6236,-56.5"/>
<text text-anchor="middle" x="610.1236" y="-63.5" font-family="Helvetica,sans-Serif" font-size="10.00" fill="#000000">TKE.cpp</text>
</a>
</g>
</g>
<!-- Node8&#45;&gt;Node16 -->
<g id="edge11" class="edge">
<title>Node8&#45;&gt;Node16</title>
<path fill="none" stroke="#191970" d="M590.7882,-103.3372C595.5922,-94.0605 601.1958,-83.2398 605.13,-75.6427"/>
<polygon fill="#191970" stroke="#191970" points="587.6656,-101.7561 586.175,-112.2455 593.8816,-104.9751 587.6656,-101.7561"/>
</g>
<!-- Node11 -->
<g id="node7" class="node">
<title>Node11</title>
<g id="a_node7"><a xlink:href="icns_8cpp.html" target="_top" xlink:title="icns.cpp">
<polygon fill="#ffffff" stroke="#000000" points="932.6236,-.5 932.6236,-19.5 985.6236,-19.5 985.6236,-.5 932.6236,-.5"/>
<text text-anchor="middle" x="959.1236" y="-7.5" font-family="Helvetica,sans-Serif" font-size="10.00" fill="#000000">icns.cpp</text>
</a>
</g>
</g>
<!-- Node10&#45;&gt;Node11 -->
<g id="edge6" class="edge">
<title>Node10&#45;&gt;Node11</title>
<path fill="none" stroke="#191970" d="M1001.9986,-49.3607C991.4456,-39.6727 978.5123,-27.7995 969.6272,-19.6427"/>
<polygon fill="#191970" stroke="#191970" points="999.7647,-52.0611 1009.4982,-56.2455 1004.4986,-46.9045 999.7647,-52.0611"/>
</g>
<!-- Node12 -->
<g id="node8" class="node">
<title>Node12</title>
<g id="a_node8"><a xlink:href="icns__ops_8cpp.html" target="_top" xlink:title="icns_ops.cpp">
<polygon fill="#ffffff" stroke="#000000" points="1004.1236,-.5 1004.1236,-19.5 1078.1236,-19.5 1078.1236,-.5 1004.1236,-.5"/>
<text text-anchor="middle" x="1041.1236" y="-7.5" font-family="Helvetica,sans-Serif" font-size="10.00" fill="#000000">icns_ops.cpp</text>
</a>
</g>
</g>
<!-- Node10&#45;&gt;Node12 -->
<g id="edge7" class="edge">
<title>Node10&#45;&gt;Node12</title>
<path fill="none" stroke="#191970" d="M1027.3426,-46.7493C1030.7712,-37.6064 1034.7186,-27.0798 1037.5076,-19.6427"/>
<polygon fill="#191970" stroke="#191970" points="1024.0156,-45.6533 1023.7815,-56.2455 1030.5699,-48.1112 1024.0156,-45.6533"/>
</g>
<!-- Node17&#45;&gt;Node9 -->
<g id="edge13" class="edge">
<title>Node17&#45;&gt;Node9</title>
<path fill="none" stroke="#191970" d="M693.5814,-102.1078C694.2147,-87.2726 692.3051,-67.6381 680.1236,-56 655.0342,-32.0298 419.5483,-16.7222 330.7711,-11.7613"/>
<polygon fill="#191970" stroke="#191970" points="690.0743,-102.0482 692.7295,-112.3049 697.05,-102.6311 690.0743,-102.0482"/>
</g>
<!-- Node17&#45;&gt;Node10 -->
<g id="edge14" class="edge">
<title>Node17&#45;&gt;Node10</title>
<path fill="none" stroke="#191970" d="M742.8068,-111.7337C836.8556,-94.7104 936.4569,-78.9329 986.9905,-71.0895"/>
<polygon fill="#191970" stroke="#191970" points="742.0575,-108.3125 732.8451,-113.5455 743.31,-115.1996 742.0575,-108.3125"/>
</g>
<!-- Node17&#45;&gt;Node13 -->
<g id="edge15" class="edge">
<title>Node17&#45;&gt;Node13</title>
<path fill="none" stroke="#191970" d="M683.7323,-103.1228C676.5905,-87.6299 664.1836,-66.583 646.1236,-56 635.5438,-49.8004 273.0055,-21.5053 157.8561,-12.6543"/>
<polygon fill="#191970" stroke="#191970" points="680.5219,-104.5173 687.6716,-112.336 686.9583,-101.7652 680.5219,-104.5173"/>
</g>
<!-- Node17&#45;&gt;Node14 -->
<g id="edge16" class="edge">
<title>Node17&#45;&gt;Node14</title>
<path fill="none" stroke="#191970" d="M641.5847,-110.0424C594.8305,-98.7568 526.3376,-82.2241 487.9475,-72.9575"/>
<polygon fill="#191970" stroke="#191970" points="640.9628,-113.4927 651.5049,-112.4369 642.6054,-106.6881 640.9628,-113.4927"/>
</g>
<!-- Node17&#45;&gt;Node15 -->
<g id="edge17" class="edge">
<title>Node17&#45;&gt;Node15</title>
<path fill="none" stroke="#191970" d="M639.3619,-111.9082C541.3727,-94.4145 515.102,-92.7575 421.1236,-76 418.4084,-75.5159 415.6155,-75.0079 412.8004,-74.4882"/>
<polygon fill="#191970" stroke="#191970" points="638.9335,-115.3872 649.3947,-113.7096 640.1706,-108.4973 638.9335,-115.3872"/>
</g>
<!-- Node17&#45;&gt;Node16 -->
<g id="edge18" class="edge">
<title>Node17&#45;&gt;Node16</title>
<path fill="none" stroke="#191970" d="M668.6895,-106.49C654.3982,-96.6096 636.332,-84.1194 624.071,-75.6427"/>
<polygon fill="#191970" stroke="#191970" points="666.7984,-109.4376 677.0144,-112.2455 670.7792,-103.6797 666.7984,-109.4376"/>
</g>
<!-- Node18&#45;&gt;Node9 -->
<g id="edge20" class="edge">
<title>Node18&#45;&gt;Node9</title>
<path fill="none" stroke="#191970" d="M443.51,-111.5979C394.8645,-98.7508 318.4509,-78.3007 316.1236,-76 300.6905,-60.7436 297.5981,-33.8214 297.0999,-19.5317"/>
<polygon fill="#191970" stroke="#191970" points="442.8704,-115.0488 453.4323,-114.2146 444.6555,-108.2802 442.8704,-115.0488"/>
</g>
<!-- Node18&#45;&gt;Node13 -->
<g id="edge23" class="edge">
<title>Node18&#45;&gt;Node13</title>
<path fill="none" stroke="#191970" d="M443.2805,-112.1192C325.4745,-91.5441 281.3707,-130.9156 180.1236,-76 155.636,-62.7181 136.903,-34.4332 128.3027,-19.5736"/>
<polygon fill="#191970" stroke="#191970" points="442.9222,-115.6125 453.3936,-114 444.2021,-108.7305 442.9222,-115.6125"/>
</g>
<!-- Node18&#45;&gt;Node14 -->
<g id="edge24" class="edge">
<title>Node18&#45;&gt;Node14</title>
<path fill="none" stroke="#191970" d="M474.9994,-103.0437C471.052,-93.8331 466.4777,-83.1598 463.2561,-75.6427"/>
<polygon fill="#191970" stroke="#191970" points="471.7868,-104.4328 478.9431,-112.2455 478.2208,-101.6753 471.7868,-104.4328"/>
</g>
<!-- Node18&#45;&gt;Node15 -->
<g id="edge25" class="edge">
<title>Node18&#45;&gt;Node15</title>
<path fill="none" stroke="#191970" d="M454.2914,-107.8368C433.6841,-97.7139 406.5154,-84.3679 388.4651,-75.5011"/>
<polygon fill="#191970" stroke="#191970" points="453.0075,-111.1056 463.5263,-112.3733 456.0939,-104.8227 453.0075,-111.1056"/>
</g>
<!-- Node18&#45;&gt;Node16 -->
<g id="edge26" class="edge">
<title>Node18&#45;&gt;Node16</title>
<path fill="none" stroke="#191970" d="M514.3127,-108.2473C537.3773,-98.0771 568.1948,-84.4883 588.5764,-75.5011"/>
<polygon fill="#191970" stroke="#191970" points="512.6935,-105.1361 504.9556,-112.3733 515.5177,-111.5411 512.6935,-105.1361"/>
</g>
<!-- Node19 -->
<g id="node15" class="node">
<title>Node19</title>
<g id="a_node15"><a xlink:href="icns__bcop_8_h.html" target="_top" xlink:title="icns_bcop.H">
<polygon fill="#ffffff" stroke="#000000" points="732.6236,-56.5 732.6236,-75.5 803.6236,-75.5 803.6236,-56.5 732.6236,-56.5"/>
<text text-anchor="middle" x="768.1236" y="-63.5" font-family="Helvetica,sans-Serif" font-size="10.00" fill="#000000">icns_bcop.H</text>
</a>
</g>
</g>
<!-- Node18&#45;&gt;Node19 -->
<g id="edge21" class="edge">
<title>Node18&#45;&gt;Node19</title>
<path fill="none" stroke="#191970" d="M523.1658,-111.649C602.9992,-93.9892 686.1596,-79.5115 732.3706,-71.8132"/>
<polygon fill="#191970" stroke="#191970" points="521.9404,-108.3363 512.9438,-113.9321 523.4663,-115.168 521.9404,-108.3363"/>
</g>
<!-- Node19&#45;&gt;Node11 -->
<g id="edge22" class="edge">
<title>Node19&#45;&gt;Node11</title>
<path fill="none" stroke="#191970" d="M811.0277,-53.4208C848.2998,-42.4928 901.1053,-27.0106 932.5572,-17.7891"/>
<polygon fill="#191970" stroke="#191970" points="809.5689,-50.2011 800.9576,-56.3733 811.5384,-56.9183 809.5689,-50.2011"/>
</g>
<!-- Node20&#45;&gt;Node21 -->
<g id="edge28" class="edge">
<title>Node20&#45;&gt;Node21</title>
<path fill="none" stroke="#191970" d="M602.1236,-214.1575C602.1236,-205.155 602.1236,-194.9199 602.1236,-187.6427"/>
<polygon fill="#191970" stroke="#191970" points="598.6237,-214.2455 602.1236,-224.2455 605.6237,-214.2456 598.6237,-214.2455"/>
</g>
<!-- Node22 -->
<g id="node18" class="node">
<title>Node22</title>
<g id="a_node18"><a xlink:href="density_8_h.html" target="_top" xlink:title="density.H">
<polygon fill="#ffffff" stroke="#000000" points="199.6236,-112.5 199.6236,-131.5 258.6236,-131.5 258.6236,-112.5 199.6236,-112.5"/>
<text text-anchor="middle" x="229.1236" y="-119.5" font-family="Helvetica,sans-Serif" font-size="10.00" fill="#000000">density.H</text>
</a>
</g>
</g>
<!-- Node21&#45;&gt;Node22 -->
<g id="edge29" class="edge">
<title>Node21&#45;&gt;Node22</title>
<path fill="none" stroke="#191970" d="M567.5698,-173.6601C508.5135,-166.1095 384.4298,-149.6644 280.1236,-132 273.1846,-130.8249 265.7395,-129.4375 258.7409,-128.0763"/>
<polygon fill="#191970" stroke="#191970" points="567.4589,-177.1741 577.8208,-174.9648 568.3427,-170.2302 567.4589,-177.1741"/>
</g>
<!-- Node24 -->
<g id="node20" class="node">
<title>Node24</title>
<g id="a_node20"><a xlink:href="icns_8_h.html" target="_top" xlink:title="icns.H">
<polygon fill="#ffffff" stroke="#000000" points="858.6236,-112.5 858.6236,-131.5 903.6236,-131.5 903.6236,-112.5 858.6236,-112.5"/>
<text text-anchor="middle" x="881.1236" y="-119.5" font-family="Helvetica,sans-Serif" font-size="10.00" fill="#000000">icns.H</text>
</a>
</g>
</g>
<!-- Node21&#45;&gt;Node24 -->
<g id="edge33" class="edge">
<title>Node21&#45;&gt;Node24</title>
<path fill="none" stroke="#191970" d="M636.4889,-171.1023C694.2744,-159.5038 809.3722,-136.4017 858.2826,-126.5846"/>
<polygon fill="#191970" stroke="#191970" points="635.5106,-167.7288 626.3949,-173.1283 636.8882,-174.5919 635.5106,-167.7288"/>
</g>
<!-- Node27 -->
<g id="node23" class="node">
<title>Node27</title>
<g id="a_node23"><a xlink:href="levelset_8_h.html" target="_top" xlink:title="levelset.H">
<polygon fill="#ffffff" stroke="#000000" points="23.6236,-112.5 23.6236,-131.5 84.6236,-131.5 84.6236,-112.5 23.6236,-112.5"/>
<text text-anchor="middle" x="54.1236" y="-119.5" font-family="Helvetica,sans-Serif" font-size="10.00" fill="#000000">levelset.H</text>
</a>
</g>
</g>
<!-- Node21&#45;&gt;Node27 -->
<g id="edge40" class="edge">
<title>Node21&#45;&gt;Node27</title>
<path fill="none" stroke="#191970" d="M567.7303,-174.4854C467.9266,-164.2864 179.3395,-134.7958 84.6312,-125.1176"/>
<polygon fill="#191970" stroke="#191970" points="567.5656,-177.9867 577.8696,-175.5215 568.2772,-171.0229 567.5656,-177.9867"/>
</g>
<!-- Node29 -->
<g id="node25" class="node">
<title>Node29</title>
<g id="a_node25"><a xlink:href="_s_d_r_8_h.html" target="_top" xlink:title="SDR.H">
<polygon fill="#ffffff" stroke="#000000" points="386.6236,-112.5 386.6236,-131.5 435.6236,-131.5 435.6236,-112.5 386.6236,-112.5"/>
<text text-anchor="middle" x="411.1236" y="-119.5" font-family="Helvetica,sans-Serif" font-size="10.00" fill="#000000">SDR.H</text>
</a>
</g>
</g>
<!-- Node21&#45;&gt;Node29 -->
<g id="edge44" class="edge">
<title>Node21&#45;&gt;Node29</title>
<path fill="none" stroke="#191970" d="M568.2539,-168.2551C536.239,-159.0165 486.8754,-144.7005 444.1236,-132 441.4838,-131.2158 438.7272,-130.3905 435.9811,-129.5643"/>
<polygon fill="#191970" stroke="#191970" points="567.4301,-171.6601 578.0084,-171.0678 569.3696,-164.9342 567.4301,-171.6601"/>
</g>
<!-- Node30 -->
<g id="node26" class="node">
<title>Node30</title>
<g id="a_node26"><a xlink:href="temperature_8_h.html" target="_top" xlink:title="temperature.H">
<polygon fill="#ffffff" stroke="#000000" points="289.6236,-112.5 289.6236,-131.5 368.6236,-131.5 368.6236,-112.5 289.6236,-112.5"/>
<text text-anchor="middle" x="329.1236" y="-119.5" font-family="Helvetica,sans-Serif" font-size="10.00" fill="#000000">temperature.H</text>
</a>
</g>
</g>
<!-- Node21&#45;&gt;Node30 -->
<g id="edge46" class="edge">
<title>Node21&#45;&gt;Node30</title>
<path fill="none" stroke="#191970" d="M567.901,-171.0447C523.7906,-162.0703 444.7231,-145.9517 377.1236,-132 374.3725,-131.4322 371.5331,-130.8446 368.6738,-130.2518"/>
<polygon fill="#191970" stroke="#191970" points="567.3149,-174.4971 577.8119,-173.0605 568.7102,-167.6375 567.3149,-174.4971"/>
</g>
<!-- Node31 -->
<g id="node27" class="node">
<title>Node31</title>
<g id="a_node27"><a xlink:href="_t_k_e_8_h.html" target="_top" xlink:title="TKE.H">
<polygon fill="#ffffff" stroke="#000000" points="750.6236,-112.5 750.6236,-131.5 797.6236,-131.5 797.6236,-112.5 750.6236,-112.5"/>
<text text-anchor="middle" x="774.1236" y="-119.5" font-family="Helvetica,sans-Serif" font-size="10.00" fill="#000000">TKE.H</text>
</a>
</g>
</g>
<!-- Node21&#45;&gt;Node31 -->
<g id="edge48" class="edge">
<title>Node21&#45;&gt;Node31</title>
<path fill="none" stroke="#191970" d="M636.3057,-166.8709C670.1166,-155.8627 720.9656,-139.3072 750.5206,-129.6847"/>
<polygon fill="#191970" stroke="#191970" points="634.8273,-163.6714 626.4022,-170.0953 636.9944,-170.3275 634.8273,-163.6714"/>
</g>
<!-- Node22&#45;&gt;Node9 -->
<g id="edge30" class="edge">
<title>Node22&#45;&gt;Node9</title>
<path fill="none" stroke="#191970" d="M204.5121,-106.399C186.8468,-93.1866 168.1078,-73.6352 180.1236,-56 189.8631,-41.7055 232.3926,-27.4782 263.3753,-18.7145"/>
<polygon fill="#191970" stroke="#191970" points="202.7654,-109.4494 212.9584,-112.3396 206.7925,-103.7238 202.7654,-109.4494"/>
</g>
<!-- Node23 -->
<g id="node19" class="node">
<title>Node23</title>
<g id="a_node19"><a xlink:href="density__ops_8_h.html" target="_top" xlink:title="density_ops.H">
<polygon fill="#ffffff" stroke="#000000" points="189.1236,-56.5 189.1236,-75.5 269.1236,-75.5 269.1236,-56.5 189.1236,-56.5"/>
<text text-anchor="middle" x="229.1236" y="-63.5" font-family="Helvetica,sans-Serif" font-size="10.00" fill="#000000">density_ops.H</text>
</a>
</g>
</g>
<!-- Node22&#45;&gt;Node23 -->
<g id="edge31" class="edge">
<title>Node22&#45;&gt;Node23</title>
<path fill="none" stroke="#191970" d="M229.1236,-102.1575C229.1236,-93.155 229.1236,-82.9199 229.1236,-75.6427"/>
<polygon fill="#191970" stroke="#191970" points="225.6237,-102.2455 229.1236,-112.2455 232.6237,-102.2456 225.6237,-102.2455"/>
</g>
<!-- Node23&#45;&gt;Node9 -->
<g id="edge32" class="edge">
<title>Node23&#45;&gt;Node9</title>
<path fill="none" stroke="#191970" d="M248.9832,-49.645C260.8093,-39.9058 275.4127,-27.8795 285.4146,-19.6427"/>
<polygon fill="#191970" stroke="#191970" points="246.4626,-47.1867 240.9683,-56.2455 250.9126,-52.5902 246.4626,-47.1867"/>
</g>
<!-- Node24&#45;&gt;Node10 -->
<g id="edge35" class="edge">
<title>Node24&#45;&gt;Node10</title>
<path fill="none" stroke="#191970" d="M913.2844,-109.0431C938.5544,-98.8624 973.1911,-84.908 996.0913,-75.682"/>
<polygon fill="#191970" stroke="#191970" points="911.7333,-105.8946 903.7657,-112.878 914.3491,-112.3875 911.7333,-105.8946"/>
</g>
<!-- Node24&#45;&gt;Node11 -->
<g id="edge34" class="edge">
<title>Node24&#45;&gt;Node11</title>
<path fill="none" stroke="#191970" d="M907.3251,-106.8818C918.8813,-99.0141 931.7186,-88.4333 940.1236,-76 952.01,-58.4166 956.5526,-33.3768 958.2173,-19.7505"/>
<polygon fill="#191970" stroke="#191970" points="905.3419,-103.9959 898.8323,-112.3551 909.134,-109.8799 905.3419,-103.9959"/>
</g>
<!-- Node24&#45;&gt;Node19 -->
<g id="edge38" class="edge">
<title>Node24&#45;&gt;Node19</title>
<path fill="none" stroke="#191970" d="M852.5443,-107.8368C832.1177,-97.7139 805.1874,-84.3679 787.2955,-75.5011"/>
<polygon fill="#191970" stroke="#191970" points="851.1839,-111.0688 861.6982,-112.3733 854.2922,-104.7968 851.1839,-111.0688"/>
</g>
<!-- Node24&#45;&gt;Node25 -->
<g id="edge36" class="edge">
<title>Node24&#45;&gt;Node25</title>
<path fill="none" stroke="#191970" d="M913.7489,-117.0704C967.0463,-108.9501 1076.0794,-92.0566 1168.1236,-76 1171.1676,-75.469 1174.3076,-74.9087 1177.4681,-74.3355"/>
<polygon fill="#191970" stroke="#191970" points="913.2145,-113.6114 903.8542,-118.5747 914.2667,-120.5318 913.2145,-113.6114"/>
</g>
<!-- Node26 -->
<g id="node22" class="node">
<title>Node26</title>
<g id="a_node22"><a xlink:href="_power_law_profile_8cpp.html" target="_top" xlink:title="PowerLawProfile.cpp">
<polygon fill="#ffffff" stroke="#000000" points="821.6236,-56.5 821.6236,-75.5 930.6236,-75.5 930.6236,-56.5 821.6236,-56.5"/>
<text text-anchor="middle" x="876.1236" y="-63.5" font-family="Helvetica,sans-Serif" font-size="10.00" fill="#000000">PowerLawProfile.cpp</text>
</a>
</g>
</g>
<!-- Node24&#45;&gt;Node26 -->
<g id="edge39" class="edge">
<title>Node24&#45;&gt;Node26</title>
<path fill="none" stroke="#191970" d="M879.3519,-102.1575C878.5481,-93.155 877.6343,-82.9199 876.9845,-75.6427"/>
<polygon fill="#191970" stroke="#191970" points="875.8771,-102.5965 880.2526,-112.2455 882.8493,-101.9739 875.8771,-102.5965"/>
</g>
<!-- Node25&#45;&gt;Node11 -->
<g id="edge37" class="edge">
<title>Node25&#45;&gt;Node11</title>
<path fill="none" stroke="#191970" d="M1167.1898,-55.4756C1111.101,-44.4495 1027.1013,-27.6857 995.1236,-20 992.0962,-19.2724 988.9384,-18.4661 985.8057,-17.6361"/>
<polygon fill="#191970" stroke="#191970" points="1166.8322,-58.9722 1177.3192,-57.4642 1168.1808,-52.1033 1166.8322,-58.9722"/>
</g>
<!-- Node27&#45;&gt;Node13 -->
<g id="edge41" class="edge">
<title>Node27&#45;&gt;Node13</title>
<path fill="none" stroke="#191970" d="M29.0651,-106.4477C11.0727,-93.2648 -8.0308,-73.7291 4.1236,-56 14.0177,-41.5677 57.0283,-27.428 88.5083,-18.7172"/>
<polygon fill="#191970" stroke="#191970" points="27.446,-109.5824 37.6667,-112.3732 31.4172,-103.8178 27.446,-109.5824"/>
</g>
<!-- Node28 -->
<g id="node24" class="node">
<title>Node28</title>
<g id="a_node24"><a xlink:href="levelset__ops_8_h.html" target="_top" xlink:title="levelset_ops.H">
<polygon fill="#ffffff" stroke="#000000" points="13.1236,-56.5 13.1236,-75.5 95.1236,-75.5 95.1236,-56.5 13.1236,-56.5"/>
<text text-anchor="middle" x="54.1236" y="-63.5" font-family="Helvetica,sans-Serif" font-size="10.00" fill="#000000">levelset_ops.H</text>
</a>
</g>
</g>
<!-- Node27&#45;&gt;Node28 -->
<g id="edge42" class="edge">
<title>Node27&#45;&gt;Node28</title>
<path fill="none" stroke="#191970" d="M54.1236,-102.1575C54.1236,-93.155 54.1236,-82.9199 54.1236,-75.6427"/>
<polygon fill="#191970" stroke="#191970" points="50.6237,-102.2455 54.1236,-112.2455 57.6237,-102.2456 50.6237,-102.2455"/>
</g>
<!-- Node28&#45;&gt;Node13 -->
<g id="edge43" class="edge">
<title>Node28&#45;&gt;Node13</title>
<path fill="none" stroke="#191970" d="M73.9265,-49.928C85.9871,-40.1397 100.9949,-27.9595 111.2424,-19.6427"/>
<polygon fill="#191970" stroke="#191970" points="71.7014,-47.2262 66.1424,-56.2455 76.1126,-52.6614 71.7014,-47.2262"/>
</g>
<!-- Node29&#45;&gt;Node14 -->
<g id="edge45" class="edge">
<title>Node29&#45;&gt;Node14</title>
<path fill="none" stroke="#191970" d="M426.1232,-104.5004C434.2857,-94.9775 444.0724,-83.5596 450.8584,-75.6427"/>
<polygon fill="#191970" stroke="#191970" points="423.3351,-102.3752 419.4845,-112.2455 428.6499,-106.9307 423.3351,-102.3752"/>
</g>
<!-- Node30&#45;&gt;Node15 -->
<g id="edge47" class="edge">
<title>Node30&#45;&gt;Node15</title>
<path fill="none" stroke="#191970" d="M342.0372,-103.9209C348.7539,-94.5176 356.6952,-83.3997 362.2359,-75.6427"/>
<polygon fill="#191970" stroke="#191970" points="339.0554,-102.0738 336.091,-112.2455 344.7515,-106.1425 339.0554,-102.0738"/>
</g>
<!-- Node31&#45;&gt;Node16 -->
<g id="edge49" class="edge">
<title>Node31&#45;&gt;Node16</title>
<path fill="none" stroke="#191970" d="M740.5689,-110.5423C710.2622,-100.1937 666.1912,-85.145 637.8396,-75.464"/>
<polygon fill="#191970" stroke="#191970" points="739.682,-113.9378 750.2765,-113.8571 741.9441,-107.3134 739.682,-113.9378"/>
</g>
<!-- Node32 -->
<g id="node28" class="node">
<title>Node32</title>
<g id="a_node28"><a xlink:href="_one_eq_ksgs_8cpp.html" target="_top" xlink:title="OneEqKsgs.cpp">
<polygon fill="#ffffff" stroke="#000000" points="1071.1236,-56.5 1071.1236,-75.5 1159.1236,-75.5 1159.1236,-56.5 1071.1236,-56.5"/>
<text text-anchor="middle" x="1115.1236" y="-63.5" font-family="Helvetica,sans-Serif" font-size="10.00" fill="#000000">OneEqKsgs.cpp</text>
</a>
</g>
</g>
<!-- Node31&#45;&gt;Node32 -->
<g id="edge50" class="edge">
<title>Node31&#45;&gt;Node32</title>
<path fill="none" stroke="#191970" d="M807.6802,-116.9533C861.4552,-108.7955 970.23,-92.0047 1062.1236,-76 1064.9833,-75.5019 1067.9276,-74.9779 1070.894,-74.4414"/>
<polygon fill="#191970" stroke="#191970" points="807.0433,-113.5097 797.6798,-118.467 808.091,-120.4309 807.0433,-113.5097"/>
</g>
<!-- Node33&#45;&gt;Node10 -->
<g id="edge55" class="edge">
<title>Node33&#45;&gt;Node10</title>
<path fill="none" stroke="#191970" d="M885.9001,-218.1528C896.5494,-209.6576 909.4807,-198.7488 920.1236,-188 958.4691,-149.2729 997.6256,-97.0342 1013.1615,-75.6916"/>
<polygon fill="#191970" stroke="#191970" points="883.6447,-215.4736 877.9362,-224.3991 887.9647,-220.9816 883.6447,-215.4736"/>
</g>
<!-- Node33&#45;&gt;Node21 -->
<g id="edge53" class="edge">
<title>Node33&#45;&gt;Node21</title>
<path fill="none" stroke="#191970" d="M813.0202,-222.9057C756.3679,-210.8429 668.2907,-192.0888 626.1603,-183.1181"/>
<polygon fill="#191970" stroke="#191970" points="812.3584,-226.3432 822.8681,-225.0026 813.8163,-219.4967 812.3584,-226.3432"/>
</g>
<!-- Node33&#45;&gt;Node25 -->
<g id="edge56" class="edge">
<title>Node33&#45;&gt;Node25</title>
<path fill="none" stroke="#191970" d="M894.4578,-220.1569C964.622,-187.0457 1140.7535,-103.9274 1200.7433,-75.6177"/>
<polygon fill="#191970" stroke="#191970" points="892.8335,-217.0532 885.2837,-224.4862 895.821,-223.3837 892.8335,-217.0532"/>
</g>
<!-- Node34 -->
<g id="node30" class="node">
<title>Node34</title>
<g id="a_node30"><a xlink:href="_diffusion_ops_8cpp.html" target="_top" xlink:title="DiffusionOps.cpp">
<polygon fill="#ffffff" stroke="#000000" points="819.1236,-168.5 819.1236,-187.5 911.1236,-187.5 911.1236,-168.5 819.1236,-168.5"/>
<text text-anchor="middle" x="865.1236" y="-175.5" font-family="Helvetica,sans-Serif" font-size="10.00" fill="#000000">DiffusionOps.cpp</text>
</a>
</g>
</g>
<!-- Node33&#45;&gt;Node34 -->
<g id="edge54" class="edge">
<title>Node33&#45;&gt;Node34</title>
<path fill="none" stroke="#191970" d="M865.1236,-214.1575C865.1236,-205.155 865.1236,-194.9199 865.1236,-187.6427"/>
<polygon fill="#191970" stroke="#191970" points="861.6237,-214.2455 865.1236,-224.2455 868.6237,-214.2456 861.6237,-214.2455"/>
</g>
<!-- Node38 -->
<g id="node34" class="node">
<title>Node38</title>
<g id="a_node34"><a xlink:href="_one_eq_ksgs_8_h.html" target="_top" xlink:title="OneEqKsgs.H">
<polygon fill="#ffffff" stroke="#000000" points="1043.1236,-224.5 1043.1236,-243.5 1123.1236,-243.5 1123.1236,-224.5 1043.1236,-224.5"/>
<text text-anchor="middle" x="1083.1236" y="-231.5" font-family="Helvetica,sans-Serif" font-size="10.00" fill="#000000">OneEqKsgs.H</text>
</a>
</g>
</g>
<!-- Node37&#45;&gt;Node38 -->
<g id="edge62" class="edge">
<title>Node37&#45;&gt;Node38</title>
<path fill="none" stroke="#191970" d="M1040.9514,-273.3607C1051.3314,-263.6727 1064.0526,-251.7995 1072.7921,-243.6427"/>
<polygon fill="#191970" stroke="#191970" points="1038.4972,-270.8636 1033.5748,-280.2455 1043.2735,-275.981 1038.4972,-270.8636"/>
</g>
<!-- Node39 -->
<g id="node35" class="node">
<title>Node39</title>
<g id="a_node35"><a xlink:href="_smagorinsky_8_h.html" target="_top" xlink:title="Smagorinsky.H">
<polygon fill="#ffffff" stroke="#000000" points="1183.1236,-224.5 1183.1236,-243.5 1267.1236,-243.5 1267.1236,-224.5 1183.1236,-224.5"/>
<text text-anchor="middle" x="1225.1236" y="-231.5" font-family="Helvetica,sans-Serif" font-size="10.00" fill="#000000">Smagorinsky.H</text>
</a>
</g>
</g>
<!-- Node37&#45;&gt;Node39 -->
<g id="edge64" class="edge">
<title>Node37&#45;&gt;Node39</title>
<path fill="none" stroke="#191970" d="M1067.8946,-277.5882C1105.0073,-267.2996 1156.9864,-252.8895 1190.8517,-243.5011"/>
<polygon fill="#191970" stroke="#191970" points="1066.5501,-274.3289 1057.8486,-280.3733 1068.4202,-281.0745 1066.5501,-274.3289"/>
</g>
<!-- Node38&#45;&gt;Node32 -->
<g id="edge63" class="edge">
<title>Node38&#45;&gt;Node32</title>
<path fill="none" stroke="#191970" d="M1086.8835,-214.2601C1093.7584,-178.1669 1108.1206,-102.7656 1113.2516,-75.8279"/>
<polygon fill="#191970" stroke="#191970" points="1083.3687,-214.0079 1084.9357,-224.4862 1090.2451,-215.3178 1083.3687,-214.0079"/>
</g>
<!-- Node40 -->
<g id="node36" class="node">
<title>Node40</title>
<g id="a_node36"><a xlink:href="_smagorinsky_8cpp.html" target="_top" xlink:title="Smagorinsky.cpp">
<polygon fill="#ffffff" stroke="#000000" points="1179.1236,-168.5 1179.1236,-187.5 1271.1236,-187.5 1271.1236,-168.5 1179.1236,-168.5"/>
<text text-anchor="middle" x="1225.1236" y="-175.5" font-family="Helvetica,sans-Serif" font-size="10.00" fill="#000000">Smagorinsky.cpp</text>
</a>
</g>
</g>
<!-- Node39&#45;&gt;Node40 -->
<g id="edge65" class="edge">
<title>Node39&#45;&gt;Node40</title>
<path fill="none" stroke="#191970" d="M1225.1236,-214.1575C1225.1236,-205.155 1225.1236,-194.9199 1225.1236,-187.6427"/>
<polygon fill="#191970" stroke="#191970" points="1221.6237,-214.2455 1225.1236,-224.2455 1228.6237,-214.2456 1221.6237,-214.2455"/>
</g>
<!-- Node41 -->
<g id="node37" class="node">
<title>Node41</title>
<g id="a_node37"><a xlink:href="turbulence__utils_8_h.html" target="_top" xlink:title="turbulence_utils.H">
<polygon fill="#ffffff" stroke="#000000" points="1289.6236,-168.5 1289.6236,-187.5 1384.6236,-187.5 1384.6236,-168.5 1289.6236,-168.5"/>
<text text-anchor="middle" x="1337.1236" y="-175.5" font-family="Helvetica,sans-Serif" font-size="10.00" fill="#000000">turbulence_utils.H</text>
</a>
</g>
</g>
<!-- Node39&#45;&gt;Node41 -->
<g id="edge66" class="edge">
<title>Node39&#45;&gt;Node41</title>
<path fill="none" stroke="#191970" d="M1253.4499,-219.8368C1273.6957,-209.7139 1300.3877,-196.3679 1318.1213,-187.5011"/>
<polygon fill="#191970" stroke="#191970" points="1251.7561,-216.7706 1244.377,-224.3733 1254.8866,-223.0316 1251.7561,-216.7706"/>
</g>
</g>
</svg>
        <g id="navigator" transform="translate(0 0)" fill="#404254">
                <rect fill="#f2f5e9" fill-opacity="0.5" stroke="#606060" stroke-width=".5" x="0" y="0" width="60" height="60"/>
                <use id="zoomplus" xlink:href="#zoomPlus" x="17" y="9" onmousedown="handleZoom(evt,'in')"/>
                <use id="zoomminus" xlink:href="#zoomMin" x="42" y="9" onmousedown="handleZoom(evt,'out')"/>
                <use id="reset" xlink:href="#resetDef" x="30" y="36" onmousedown="handleReset()"/>
                <g id="arrowUp" xlink:href="#dirArrow" transform="translate(30 24)" onmousedown="handlePan(0,-1)">
                  <use xlink:href="#rim" fill="#404040">
                        <set attributeName="fill" to="#808080" begin="arrowUp.mouseover" end="arrowUp.mouseout"/>
                  </use>
                  <path fill="none" stroke="white" stroke-width="1.5" d="M0,-3.0v7 M-2.5,-0.5L0,-3.0L2.5,-0.5"/>
                </g>
                <g id="arrowRight" xlink:href="#dirArrow" transform="rotate(90) translate(36 -43)" onmousedown="handlePan(1,0)">
                  <use xlink:href="#rim" fill="#404040">
                        <set attributeName="fill" to="#808080" begin="arrowRight.mouseover" end="arrowRight.mouseout"/>
                  </use>
                  <path fill="none" stroke="white" stroke-width="1.5" d="M0,-3.0v7 M-2.5,-0.5L0,-3.0L2.5,-0.5"/>
                </g>
                <g id="arrowDown" xlink:href="#dirArrow" transform="rotate(180) translate(-30 -48)" onmousedown="handlePan(0,1)">
                  <use xlink:href="#rim" fill="#404040">
                        <set attributeName="fill" to="#808080" begin="arrowDown.mouseover" end="arrowDown.mouseout"/>
                  </use>
                  <path fill="none" stroke="white" stroke-width="1.5" d="M0,-3.0v7 M-2.5,-0.5L0,-3.0L2.5,-0.5"/>
                </g>
                <g id="arrowLeft" xlink:href="#dirArrow" transform="rotate(270) translate(-36 17)" onmousedown="handlePan(-1,0)">
                  <use xlink:href="#rim" fill="#404040">
                        <set attributeName="fill" to="#808080" begin="arrowLeft.mouseover" end="arrowLeft.mouseout"/>
                  </use>
                  <path fill="none" stroke="white" stroke-width="1.5" d="M0,-3.0v7 M-2.5,-0.5L0,-3.0L2.5,-0.5"/>
                </g>
        </g>
        <svg viewBox="0 0 15 15" width="100%" height="30px" preserveAspectRatio="xMaxYMin meet">
         <g id="arrow_out" transform="scale(0.3 0.3)">
          <a xlink:href="_i_o_manager_8_h__dep__incl_org.svg" target="_base">
           <rect id="button" ry="5" rx="5" y="6" x="6" height="38" width="38"
                fill="#f2f5e9" fill-opacity="0.5" stroke="#606060" stroke-width="1.0"/>
           <path id="arrow"
             d="M 11.500037,31.436501 C 11.940474,20.09759 22.043105,11.32322 32.158766,21.979434 L 37.068811,17.246167 C 37.068811,17.246167 37.088388,32 37.088388,32 L 22.160133,31.978069 C 22.160133,31.978069 26.997745,27.140456 26.997745,27.140456 C 18.528582,18.264221 13.291696,25.230495 11.500037,31.436501 z"
             style="fill:#404040;"/>
          </a>
         </g>
        </svg>
</svg>
