<?xml version="1.0" encoding="UTF-8" standalone="no"?>
<!DOCTYPE svg PUBLIC "-//W3C//DTD SVG 1.1//EN"
 "http://www.w3.org/Graphics/SVG/1.1/DTD/svg11.dtd">
<!-- Generated by graphviz version 2.40.1 (20161225.0304)
 -->
<!-- Title: IntField.H Pages: 1 -->
<svg width="3446pt" height="308pt"
 viewBox="0.00 0.00 3446.00 308.00" xmlns="http://www.w3.org/2000/svg" xmlns:xlink="http://www.w3.org/1999/xlink">
<g id="graph0" class="graph" transform="scale(1 1) rotate(0) translate(4 304)">
<title>IntField.H</title>
<polygon fill="#ffffff" stroke="transparent" points="-4,4 -4,-304 3442,-304 3442,4 -4,4"/>
<!-- Node4 -->
<g id="node1" class="node">
<title>Node4</title>
<polygon fill="#bfbfbf" stroke="#000000" points="1790.5,-280.5 1790.5,-299.5 1849.5,-299.5 1849.5,-280.5 1790.5,-280.5"/>
<text text-anchor="middle" x="1820" y="-287.5" font-family="Helvetica,sans-Serif" font-size="10.00" fill="#000000">IntField.H</text>
</g>
<!-- Node5 -->
<g id="node2" class="node">
<title>Node5</title>
<g id="a_node2"><a xlink:href="_field_repo_8_h.html" target="_top" xlink:title="FieldRepo.H">
<polygon fill="#ffffff" stroke="#000000" points="1752.5,-224.5 1752.5,-243.5 1823.5,-243.5 1823.5,-224.5 1752.5,-224.5"/>
<text text-anchor="middle" x="1788" y="-231.5" font-family="Helvetica,sans-Serif" font-size="10.00" fill="#000000">FieldRepo.H</text>
</a>
</g>
</g>
<!-- Node4&#45;&gt;Node5 -->
<g id="edge1" class="edge">
<title>Node4&#45;&gt;Node5</title>
<path fill="none" stroke="#191970" d="M1809.3355,-271.3372C1804.0346,-262.0605 1797.8513,-251.2398 1793.5101,-243.6427"/>
<polygon fill="#191970" stroke="#191970" points="1806.4257,-273.2996 1814.426,-280.2455 1812.5034,-269.8266 1806.4257,-273.2996"/>
</g>
<!-- Node137 -->
<g id="node29" class="node">
<title>Node137</title>
<g id="a_node29"><a xlink:href="_int_field_8cpp.html" target="_top" xlink:title="IntField.cpp">
<polygon fill="#ffffff" stroke="#000000" points="3370,-168.5 3370,-187.5 3438,-187.5 3438,-168.5 3370,-168.5"/>
<text text-anchor="middle" x="3404" y="-175.5" font-family="Helvetica,sans-Serif" font-size="10.00" fill="#000000">IntField.cpp</text>
</a>
</g>
</g>
<!-- Node4&#45;&gt;Node137 -->
<g id="edge69" class="edge">
<title>Node4&#45;&gt;Node137</title>
<path fill="none" stroke="#191970" d="M1859.5619,-288.59C2034.1082,-282.1071 2752.6425,-252.6711 3339,-188 3348.9868,-186.8985 3359.7884,-185.3727 3369.6644,-183.8444"/>
<polygon fill="#191970" stroke="#191970" points="1859.416,-285.0929 1849.5516,-288.9587 1859.6737,-292.0882 1859.416,-285.0929"/>
</g>
<!-- Node6 -->
<g id="node3" class="node">
<title>Node6</title>
<g id="a_node3"><a xlink:href="_b_c_interface_8cpp.html" target="_top" xlink:title="BCInterface.cpp">
<polygon fill="#ffffff" stroke="#000000" points="2565,-112.5 2565,-131.5 2653,-131.5 2653,-112.5 2565,-112.5"/>
<text text-anchor="middle" x="2609" y="-119.5" font-family="Helvetica,sans-Serif" font-size="10.00" fill="#000000">BCInterface.cpp</text>
</a>
</g>
</g>
<!-- Node5&#45;&gt;Node6 -->
<g id="edge2" class="edge">
<title>Node5&#45;&gt;Node6</title>
<path fill="none" stroke="#191970" d="M1834.0459,-233.4946C2086.9168,-230.6124 3296.4006,-215.4084 3323,-188 3329.1905,-181.6212 3329.08,-174.4843 3323,-168 3300.0069,-143.4778 2805.2418,-127.5328 2653.1078,-123.196"/>
<polygon fill="#191970" stroke="#191970" points="1833.7076,-229.9981 1823.7479,-233.6111 1833.7869,-236.9976 1833.7076,-229.9981"/>
</g>
<!-- Node7 -->
<g id="node4" class="node">
<title>Node7</title>
<g id="a_node4"><a xlink:href="_fixed_gradient_b_c_8_h.html" target="_top" xlink:title="FixedGradientBC.H">
<polygon fill="#ffffff" stroke="#000000" points="1141,-168.5 1141,-187.5 1243,-187.5 1243,-168.5 1141,-168.5"/>
<text text-anchor="middle" x="1192" y="-175.5" font-family="Helvetica,sans-Serif" font-size="10.00" fill="#000000">FixedGradientBC.H</text>
</a>
</g>
</g>
<!-- Node5&#45;&gt;Node7 -->
<g id="edge3" class="edge">
<title>Node5&#45;&gt;Node7</title>
<path fill="none" stroke="#191970" d="M1742.3054,-231.3086C1649.6101,-225.5779 1432.9052,-210.8015 1252,-188 1249.0663,-187.6302 1246.0566,-187.2217 1243.0226,-186.7874"/>
<polygon fill="#191970" stroke="#191970" points="1742.2656,-234.8127 1752.461,-231.9308 1742.6938,-227.8258 1742.2656,-234.8127"/>
</g>
<!-- Node9 -->
<g id="node6" class="node">
<title>Node9</title>
<g id="a_node6"><a xlink:href="_c_f_d_sim_8_h.html" target="_top" xlink:title="CFDSim.H">
<polygon fill="#ffffff" stroke="#ff0000" points="881.5,-168.5 881.5,-187.5 946.5,-187.5 946.5,-168.5 881.5,-168.5"/>
<text text-anchor="middle" x="914" y="-175.5" font-family="Helvetica,sans-Serif" font-size="10.00" fill="#000000">CFDSim.H</text>
</a>
</g>
</g>
<!-- Node5&#45;&gt;Node9 -->
<g id="edge6" class="edge">
<title>Node5&#45;&gt;Node9</title>
<path fill="none" stroke="#191970" d="M1741.8111,-232.5335C1590.3401,-227.5538 1109.6078,-210.3502 956,-188 953.033,-187.5683 949.9679,-187.0274 946.9076,-186.4219"/>
<polygon fill="#191970" stroke="#191970" points="1742.03,-236.0425 1752.1389,-232.8709 1742.2586,-229.0462 1742.03,-236.0425"/>
</g>
<!-- Node10 -->
<g id="node7" class="node">
<title>Node10</title>
<g id="a_node7"><a xlink:href="incflo_8_h.html" target="_top" xlink:title="incflo.H">
<polygon fill="#ffffff" stroke="#ff0000" points="550,-112.5 550,-131.5 600,-131.5 600,-112.5 550,-112.5"/>
<text text-anchor="middle" x="575" y="-119.5" font-family="Helvetica,sans-Serif" font-size="10.00" fill="#000000">incflo.H</text>
</a>
</g>
</g>
<!-- Node5&#45;&gt;Node10 -->
<g id="edge28" class="edge">
<title>Node5&#45;&gt;Node10</title>
<path fill="none" stroke="#191970" d="M1742.0547,-232.646C1581.0851,-227.7531 1043.1348,-210.1055 872,-188 751.7504,-172.4674 722.0401,-163.6679 605,-132 603.4101,-131.5698 601.7809,-131.1032 600.1434,-130.6144"/>
<polygon fill="#191970" stroke="#191970" points="1742.0033,-236.1459 1752.1045,-232.9497 1742.2148,-229.1491 1742.0033,-236.1459"/>
</g>
<!-- Node42 -->
<g id="node11" class="node">
<title>Node42</title>
<g id="a_node11"><a xlink:href="_a_b_l_mean_boussinesq_8_h.html" target="_top" xlink:title="ABLMeanBoussinesq.H">
<polygon fill="#ffffff" stroke="#ff0000" points="535.5,-56.5 535.5,-75.5 656.5,-75.5 656.5,-56.5 535.5,-56.5"/>
<text text-anchor="middle" x="596" y="-63.5" font-family="Helvetica,sans-Serif" font-size="10.00" fill="#000000">ABLMeanBoussinesq.H</text>
</a>
</g>
</g>
<!-- Node5&#45;&gt;Node42 -->
<g id="edge54" class="edge">
<title>Node5&#45;&gt;Node42</title>
<path fill="none" stroke="#191970" d="M1742.2572,-233.3241C1567.6448,-230.5352 943.0743,-218.5961 747,-188 653.2562,-173.3719 598.6215,-207.3767 541,-132 525.2383,-111.3816 556.3113,-88.301 577.8346,-75.6304"/>
<polygon fill="#191970" stroke="#191970" points="1742.3336,-236.8256 1752.3876,-233.4836 1742.4439,-229.8265 1742.3336,-236.8256"/>
</g>
<!-- Node81 -->
<g id="node21" class="node">
<title>Node81</title>
<g id="a_node21"><a xlink:href="_p_d_e_base_8cpp.html" target="_top" xlink:title="PDEBase.cpp">
<polygon fill="#ffffff" stroke="#000000" points="1492.5,-112.5 1492.5,-131.5 1571.5,-131.5 1571.5,-112.5 1492.5,-112.5"/>
<text text-anchor="middle" x="1532" y="-119.5" font-family="Helvetica,sans-Serif" font-size="10.00" fill="#000000">PDEBase.cpp</text>
</a>
</g>
</g>
<!-- Node5&#45;&gt;Node81 -->
<g id="edge58" class="edge">
<title>Node5&#45;&gt;Node81</title>
<path fill="none" stroke="#191970" d="M1741.9721,-232.5323C1594.5161,-227.6098 1142.1977,-210.71 1121,-188 1065.456,-128.4934 1402.5154,-144.1821 1483,-132 1486.0904,-131.5322 1489.2807,-130.9983 1492.4815,-130.426"/>
<polygon fill="#191970" stroke="#191970" points="1741.9416,-236.0332 1752.0519,-232.866 1742.1732,-229.037 1741.9416,-236.0332"/>
</g>
<!-- Node86 -->
<g id="node22" class="node">
<title>Node86</title>
<g id="a_node22"><a xlink:href="_tioga_interface_8cpp.html" target="_top" xlink:title="TiogaInterface.cpp">
<polygon fill="#ffffff" stroke="#000000" points="1589,-112.5 1589,-131.5 1687,-131.5 1687,-112.5 1589,-112.5"/>
<text text-anchor="middle" x="1638" y="-119.5" font-family="Helvetica,sans-Serif" font-size="10.00" fill="#000000">TiogaInterface.cpp</text>
</a>
</g>
</g>
<!-- Node5&#45;&gt;Node86 -->
<g id="edge63" class="edge">
<title>Node5&#45;&gt;Node86</title>
<path fill="none" stroke="#191970" d="M1741.7955,-232.471C1595.802,-227.4184 1152.7924,-210.3014 1132,-188 1063.582,-114.6164 1480.4583,-144.5544 1580,-132 1582.9399,-131.6292 1585.9581,-131.2141 1588.999,-130.7695"/>
<polygon fill="#191970" stroke="#191970" points="1742.0725,-235.9825 1752.1866,-232.8276 1742.3126,-228.9866 1742.0725,-235.9825"/>
</g>
<!-- Node123 -->
<g id="node23" class="node">
<title>Node123</title>
<g id="a_node23"><a xlink:href="velocity__bcs_8_h.html" target="_top" xlink:title="velocity_bcs.H">
<polygon fill="#ffffff" stroke="#ff0000" points="1261,-168.5 1261,-187.5 1343,-187.5 1343,-168.5 1261,-168.5"/>
<text text-anchor="middle" x="1302" y="-175.5" font-family="Helvetica,sans-Serif" font-size="10.00" fill="#000000">velocity_bcs.H</text>
</a>
</g>
</g>
<!-- Node5&#45;&gt;Node123 -->
<g id="edge29" class="edge">
<title>Node5&#45;&gt;Node123</title>
<path fill="none" stroke="#191970" d="M1742.0698,-230.557C1662.3909,-224.2715 1493.5042,-209.568 1352,-188 1349.112,-187.5598 1346.1378,-187.067 1343.1475,-186.5423"/>
<polygon fill="#191970" stroke="#191970" points="1742.0097,-234.0629 1752.252,-231.3526 1742.5551,-227.0842 1742.0097,-234.0629"/>
</g>
<!-- Node124 -->
<g id="node24" class="node">
<title>Node124</title>
<g id="a_node24"><a xlink:href="_godunov_8_h.html" target="_top" xlink:title="Godunov.H">
<polygon fill="#ffffff" stroke="#ff0000" points="1361,-168.5 1361,-187.5 1427,-187.5 1427,-168.5 1361,-168.5"/>
<text text-anchor="middle" x="1394" y="-175.5" font-family="Helvetica,sans-Serif" font-size="10.00" fill="#000000">Godunov.H</text>
</a>
</g>
</g>
<!-- Node5&#45;&gt;Node124 -->
<g id="edge30" class="edge">
<title>Node5&#45;&gt;Node124</title>
<path fill="none" stroke="#191970" d="M1742.0597,-229.5349C1674.6279,-222.6335 1545.0316,-208.0482 1436,-188 1433.1987,-187.4849 1430.3036,-186.9024 1427.4043,-186.2838"/>
<polygon fill="#191970" stroke="#191970" points="1742.0337,-233.0501 1752.3357,-230.5762 1742.7395,-226.0858 1742.0337,-233.0501"/>
</g>
<!-- Node130 -->
<g id="node25" class="node">
<title>Node130</title>
<g id="a_node25"><a xlink:href="mac__projection_8_h.html" target="_top" xlink:title="mac_projection.H">
<polygon fill="#ffffff" stroke="#ff0000" points="1445.5,-168.5 1445.5,-187.5 1538.5,-187.5 1538.5,-168.5 1445.5,-168.5"/>
<text text-anchor="middle" x="1492" y="-175.5" font-family="Helvetica,sans-Serif" font-size="10.00" fill="#000000">mac_projection.H</text>
</a>
</g>
</g>
<!-- Node5&#45;&gt;Node130 -->
<g id="edge31" class="edge">
<title>Node5&#45;&gt;Node130</title>
<path fill="none" stroke="#191970" d="M1742.4181,-225.3764C1687.091,-214.9091 1594.2955,-197.3532 1538.54,-186.8049"/>
<polygon fill="#191970" stroke="#191970" points="1741.8191,-228.8251 1752.2955,-227.2451 1743.1204,-221.9471 1741.8191,-228.8251"/>
</g>
<!-- Node132 -->
<g id="node26" class="node">
<title>Node132</title>
<g id="a_node26"><a xlink:href="_m_o_l_8_h.html" target="_top" xlink:title="MOL.H">
<polygon fill="#ffffff" stroke="#ff0000" points="1557,-168.5 1557,-187.5 1605,-187.5 1605,-168.5 1557,-168.5"/>
<text text-anchor="middle" x="1581" y="-175.5" font-family="Helvetica,sans-Serif" font-size="10.00" fill="#000000">MOL.H</text>
</a>
</g>
</g>
<!-- Node5&#45;&gt;Node132 -->
<g id="edge32" class="edge">
<title>Node5&#45;&gt;Node132</title>
<path fill="none" stroke="#191970" d="M1742.274,-222.3882C1707.1102,-213.3434 1657.3654,-200.2985 1614,-188 1611.1203,-187.1833 1608.1067,-186.3042 1605.1213,-185.4182"/>
<polygon fill="#191970" stroke="#191970" points="1741.6848,-225.8504 1752.2409,-224.9452 1743.4244,-219.0699 1741.6848,-225.8504"/>
</g>
<!-- Node135 -->
<g id="node27" class="node">
<title>Node135</title>
<g id="a_node27"><a xlink:href="_field_8cpp.html" target="_top" xlink:title="Field.cpp">
<polygon fill="#ffffff" stroke="#000000" points="1623,-168.5 1623,-187.5 1679,-187.5 1679,-168.5 1623,-168.5"/>
<text text-anchor="middle" x="1651" y="-175.5" font-family="Helvetica,sans-Serif" font-size="10.00" fill="#000000">Field.cpp</text>
</a>
</g>
</g>
<!-- Node5&#45;&gt;Node135 -->
<g id="edge33" class="edge">
<title>Node5&#45;&gt;Node135</title>
<path fill="none" stroke="#191970" d="M1755.0194,-220.5189C1730.0689,-210.3201 1696.4266,-196.5685 1674.2438,-187.5011"/>
<polygon fill="#191970" stroke="#191970" points="1753.868,-223.8293 1764.4489,-224.3733 1756.5166,-217.3497 1753.868,-223.8293"/>
</g>
<!-- Node136 -->
<g id="node28" class="node">
<title>Node136</title>
<g id="a_node28"><a xlink:href="_field_repo_8cpp.html" target="_top" xlink:title="FieldRepo.cpp">
<polygon fill="#ffffff" stroke="#000000" points="1697,-168.5 1697,-187.5 1777,-187.5 1777,-168.5 1697,-168.5"/>
<text text-anchor="middle" x="1737" y="-175.5" font-family="Helvetica,sans-Serif" font-size="10.00" fill="#000000">FieldRepo.cpp</text>
</a>
</g>
</g>
<!-- Node5&#45;&gt;Node136 -->
<g id="edge34" class="edge">
<title>Node5&#45;&gt;Node136</title>
<path fill="none" stroke="#191970" d="M1772.3251,-216.7884C1763.6006,-207.2085 1753.0646,-195.6396 1745.7817,-187.6427"/>
<polygon fill="#191970" stroke="#191970" points="1769.7954,-219.2088 1779.1165,-224.2455 1774.9709,-214.4954 1769.7954,-219.2088"/>
</g>
<!-- Node5&#45;&gt;Node137 -->
<g id="edge35" class="edge">
<title>Node5&#45;&gt;Node137</title>
<path fill="none" stroke="#191970" d="M1833.7426,-233.7452C2058.7813,-232.3257 3049.8241,-224.0993 3356,-188 3360.4805,-187.4717 3365.1631,-186.7336 3369.7722,-185.8951"/>
<polygon fill="#191970" stroke="#191970" points="1833.5894,-230.246 1823.6112,-233.8077 1833.6327,-237.2458 1833.5894,-230.246"/>
</g>
<!-- Node138 -->
<g id="node30" class="node">
<title>Node138</title>
<g id="a_node30"><a xlink:href="_scratch_field_8cpp.html" target="_top" xlink:title="ScratchField.cpp">
<polygon fill="#ffffff" stroke="#000000" points="1795,-168.5 1795,-187.5 1885,-187.5 1885,-168.5 1795,-168.5"/>
<text text-anchor="middle" x="1840" y="-175.5" font-family="Helvetica,sans-Serif" font-size="10.00" fill="#000000">ScratchField.cpp</text>
</a>
</g>
</g>
<!-- Node5&#45;&gt;Node138 -->
<g id="edge36" class="edge">
<title>Node5&#45;&gt;Node138</title>
<path fill="none" stroke="#191970" d="M1803.9822,-216.7884C1812.8778,-207.2085 1823.6204,-195.6396 1831.0461,-187.6427"/>
<polygon fill="#191970" stroke="#191970" points="1801.2975,-214.536 1797.0577,-224.2455 1806.427,-219.2992 1801.2975,-214.536"/>
</g>
<!-- Node139 -->
<g id="node31" class="node">
<title>Node139</title>
<g id="a_node31"><a xlink:href="_view_field_8cpp.html" target="_top" xlink:title="ViewField.cpp">
<polygon fill="#ffffff" stroke="#000000" points="1903,-168.5 1903,-187.5 1981,-187.5 1981,-168.5 1903,-168.5"/>
<text text-anchor="middle" x="1942" y="-175.5" font-family="Helvetica,sans-Serif" font-size="10.00" fill="#000000">ViewField.cpp</text>
</a>
</g>
</g>
<!-- Node5&#45;&gt;Node139 -->
<g id="edge37" class="edge">
<title>Node5&#45;&gt;Node139</title>
<path fill="none" stroke="#191970" d="M1823.9614,-220.9231C1852.1134,-210.686 1890.6055,-196.6889 1915.8719,-187.5011"/>
<polygon fill="#191970" stroke="#191970" points="1822.6754,-217.6665 1814.4735,-224.3733 1825.0676,-224.245 1822.6754,-217.6665"/>
</g>
<!-- Node140 -->
<g id="node32" class="node">
<title>Node140</title>
<g id="a_node32"><a xlink:href="field__algebra_8cpp.html" target="_top" xlink:title="field_algebra.cpp">
<polygon fill="#ffffff" stroke="#000000" points="1999,-168.5 1999,-187.5 2089,-187.5 2089,-168.5 1999,-168.5"/>
<text text-anchor="middle" x="2044" y="-175.5" font-family="Helvetica,sans-Serif" font-size="10.00" fill="#000000">field_algebra.cpp</text>
</a>
</g>
</g>
<!-- Node5&#45;&gt;Node140 -->
<g id="edge38" class="edge">
<title>Node5&#45;&gt;Node140</title>
<path fill="none" stroke="#191970" d="M1833.523,-224.0418C1880.6196,-213.7395 1953.6623,-197.7614 2000.1376,-187.5949"/>
<polygon fill="#191970" stroke="#191970" points="1832.6167,-220.6572 1823.5957,-226.2134 1834.1127,-227.4955 1832.6167,-220.6572"/>
</g>
<!-- Node141 -->
<g id="node33" class="node">
<title>Node141</title>
<g id="a_node33"><a xlink:href="diffusion_8_h.html" target="_top" xlink:title="diffusion.H">
<polygon fill="#ffffff" stroke="#ff0000" points="2107,-168.5 2107,-187.5 2171,-187.5 2171,-168.5 2107,-168.5"/>
<text text-anchor="middle" x="2139" y="-175.5" font-family="Helvetica,sans-Serif" font-size="10.00" fill="#000000">diffusion.H</text>
</a>
</g>
</g>
<!-- Node5&#45;&gt;Node141 -->
<g id="edge39" class="edge">
<title>Node5&#45;&gt;Node141</title>
<path fill="none" stroke="#191970" d="M1833.5231,-228.5761C1894.1534,-221.049 2004.6201,-206.2758 2098,-188 2100.8761,-187.4371 2103.8544,-186.806 2106.8328,-186.1417"/>
<polygon fill="#191970" stroke="#191970" points="1833.0109,-225.1127 1823.5138,-229.809 1833.8667,-232.0602 1833.0109,-225.1127"/>
</g>
<!-- Node142 -->
<g id="node34" class="node">
<title>Node142</title>
<g id="a_node34"><a xlink:href="_source_term_8_h.html" target="_top" xlink:title="SourceTerm.H">
<polygon fill="#ffffff" stroke="#ff0000" points="2189,-168.5 2189,-187.5 2269,-187.5 2269,-168.5 2189,-168.5"/>
<text text-anchor="middle" x="2229" y="-175.5" font-family="Helvetica,sans-Serif" font-size="10.00" fill="#000000">SourceTerm.H</text>
</a>
</g>
</g>
<!-- Node5&#45;&gt;Node142 -->
<g id="edge40" class="edge">
<title>Node5&#45;&gt;Node142</title>
<path fill="none" stroke="#191970" d="M1833.8106,-229.8913C1907.1587,-223.0284 2055.3807,-207.9914 2180,-188 2182.9147,-187.5324 2185.9195,-187.0127 2188.9391,-186.4628"/>
<polygon fill="#191970" stroke="#191970" points="1833.1775,-226.4349 1823.5438,-230.8442 1833.8245,-233.405 1833.1775,-226.4349"/>
</g>
<!-- Node144 -->
<g id="node35" class="node">
<title>Node144</title>
<g id="a_node35"><a xlink:href="_p_d_e_helpers_8_h.html" target="_top" xlink:title="PDEHelpers.H">
<polygon fill="#ffffff" stroke="#ff0000" points="965,-168.5 965,-187.5 1047,-187.5 1047,-168.5 965,-168.5"/>
<text text-anchor="middle" x="1006" y="-175.5" font-family="Helvetica,sans-Serif" font-size="10.00" fill="#000000">PDEHelpers.H</text>
</a>
</g>
</g>
<!-- Node5&#45;&gt;Node144 -->
<g id="edge41" class="edge">
<title>Node5&#45;&gt;Node144</title>
<path fill="none" stroke="#191970" d="M1742.1128,-232.954C1627.0761,-229.9291 1317.2514,-219.2943 1061,-188 1056.4722,-187.4471 1051.7531,-186.7601 1047.0656,-186.0069"/>
<polygon fill="#191970" stroke="#191970" points="1742.2231,-236.4579 1752.3095,-233.2155 1742.4026,-229.4602 1742.2231,-236.4579"/>
</g>
<!-- Node145 -->
<g id="node36" class="node">
<title>Node145</title>
<g id="a_node36"><a xlink:href="_density_source_8_h.html" target="_top" xlink:title="DensitySource.H">
<polygon fill="#ffffff" stroke="#ff0000" points="2287,-168.5 2287,-187.5 2379,-187.5 2379,-168.5 2287,-168.5"/>
<text text-anchor="middle" x="2333" y="-175.5" font-family="Helvetica,sans-Serif" font-size="10.00" fill="#000000">DensitySource.H</text>
</a>
</g>
</g>
<!-- Node5&#45;&gt;Node145 -->
<g id="edge44" class="edge">
<title>Node5&#45;&gt;Node145</title>
<path fill="none" stroke="#191970" d="M1833.8353,-231.0225C1920.7351,-225.084 2115.3209,-210.3825 2278,-188 2280.8844,-187.6031 2283.848,-187.162 2286.8328,-186.6923"/>
<polygon fill="#191970" stroke="#191970" points="1833.5217,-227.5357 1823.7809,-231.7032 1833.9945,-234.5197 1833.5217,-227.5357"/>
</g>
<!-- Node146 -->
<g id="node37" class="node">
<title>Node146</title>
<g id="a_node37"><a xlink:href="_momentum_source_8_h.html" target="_top" xlink:title="MomentumSource.H">
<polygon fill="#ffffff" stroke="#ff0000" points="252.5,-168.5 252.5,-187.5 359.5,-187.5 359.5,-168.5 252.5,-168.5"/>
<text text-anchor="middle" x="306" y="-175.5" font-family="Helvetica,sans-Serif" font-size="10.00" fill="#000000">MomentumSource.H</text>
</a>
</g>
</g>
<!-- Node5&#45;&gt;Node146 -->
<g id="edge45" class="edge">
<title>Node5&#45;&gt;Node146</title>
<path fill="none" stroke="#191970" d="M1742.2106,-233.6733C1567.6344,-232.175 927.15,-224.37 401,-188 387.5988,-187.0736 373.1673,-185.7324 359.6992,-184.3315"/>
<polygon fill="#191970" stroke="#191970" points="1742.2926,-237.174 1752.3214,-233.7574 1742.3509,-230.1742 1742.2926,-237.174"/>
</g>
<!-- Node149 -->
<g id="node38" class="node">
<title>Node149</title>
<g id="a_node38"><a xlink:href="_boussinesq_buoyancy_8_h.html" target="_top" xlink:title="BoussinesqBuoyancy.H">
<polygon fill="#ffffff" stroke="#000000" points="0,-112.5 0,-131.5 122,-131.5 122,-112.5 0,-112.5"/>
<text text-anchor="middle" x="61" y="-119.5" font-family="Helvetica,sans-Serif" font-size="10.00" fill="#000000">BoussinesqBuoyancy.H</text>
</a>
</g>
</g>
<!-- Node5&#45;&gt;Node149 -->
<g id="edge55" class="edge">
<title>Node5&#45;&gt;Node149</title>
<path fill="none" stroke="#191970" d="M1742.2605,-233.6817C1499.5101,-231.8562 367.3106,-221.5903 215,-188 162.4499,-176.4107 105.4274,-147.1042 77.8398,-131.7398"/>
<polygon fill="#191970" stroke="#191970" points="1742.4653,-237.1832 1752.491,-233.7576 1742.5172,-230.1834 1742.4653,-237.1832"/>
</g>
<!-- Node150 -->
<g id="node39" class="node">
<title>Node150</title>
<g id="a_node39"><a xlink:href="_coriolis_forcing_8_h.html" target="_top" xlink:title="CoriolisForcing.H">
<polygon fill="#ffffff" stroke="#000000" points="402,-112.5 402,-131.5 494,-131.5 494,-112.5 402,-112.5"/>
<text text-anchor="middle" x="448" y="-119.5" font-family="Helvetica,sans-Serif" font-size="10.00" fill="#000000">CoriolisForcing.H</text>
</a>
</g>
</g>
<!-- Node5&#45;&gt;Node150 -->
<g id="edge56" class="edge">
<title>Node5&#45;&gt;Node150</title>
<path fill="none" stroke="#191970" d="M1742.2057,-233.3492C1520.2859,-230.0697 565.0229,-214.4598 508,-188 482.1537,-176.0068 462.4654,-147.1581 453.4352,-131.8794"/>
<polygon fill="#191970" stroke="#191970" points="1742.1621,-236.8489 1752.2124,-233.4961 1742.2649,-229.8496 1742.1621,-236.8489"/>
</g>
<!-- Node151 -->
<g id="node40" class="node">
<title>Node151</title>
<g id="a_node40"><a xlink:href="_density_buoyancy_8_h.html" target="_top" xlink:title="DensityBuoyancy.H">
<polygon fill="#ffffff" stroke="#ff0000" points="140,-112.5 140,-131.5 244,-131.5 244,-112.5 140,-112.5"/>
<text text-anchor="middle" x="192" y="-119.5" font-family="Helvetica,sans-Serif" font-size="10.00" fill="#000000">DensityBuoyancy.H</text>
</a>
</g>
</g>
<!-- Node5&#45;&gt;Node151 -->
<g id="edge57" class="edge">
<title>Node5&#45;&gt;Node151</title>
<path fill="none" stroke="#191970" d="M1742.2248,-233.736C1493.3244,-232.1629 311.4274,-222.8739 243,-188 219.2608,-175.9014 203.3,-147.0988 196.1999,-131.8544"/>
<polygon fill="#191970" stroke="#191970" points="1742.3449,-237.2368 1752.3665,-233.7991 1742.3885,-230.2369 1742.3449,-237.2368"/>
</g>
<!-- Node153 -->
<g id="node41" class="node">
<title>Node153</title>
<g id="a_node41"><a xlink:href="_m_m_s_forcing_8_h.html" target="_top" xlink:title="MMSForcing.H">
<polygon fill="#ffffff" stroke="#ff0000" points="300.5,-112.5 300.5,-131.5 383.5,-131.5 383.5,-112.5 300.5,-112.5"/>
<text text-anchor="middle" x="342" y="-119.5" font-family="Helvetica,sans-Serif" font-size="10.00" fill="#000000">MMSForcing.H</text>
</a>
</g>
</g>
<!-- Node5&#45;&gt;Node153 -->
<g id="edge62" class="edge">
<title>Node5&#45;&gt;Node153</title>
<path fill="none" stroke="#191970" d="M1742.0738,-233.5241C1524.361,-231.1154 601.5909,-219.1368 477,-188 430.1763,-176.2982 380.5262,-147.0418 356.5875,-131.7138"/>
<polygon fill="#191970" stroke="#191970" points="1742.1588,-237.0252 1752.1965,-233.6348 1742.2354,-230.0256 1742.1588,-237.0252"/>
</g>
<!-- Node154 -->
<g id="node42" class="node">
<title>Node154</title>
<g id="a_node42"><a xlink:href="fvm__utils_8_h.html" target="_top" xlink:title="fvm_utils.H">
<polygon fill="#ffffff" stroke="#ff0000" points="2397.5,-168.5 2397.5,-187.5 2464.5,-187.5 2464.5,-168.5 2397.5,-168.5"/>
<text text-anchor="middle" x="2431" y="-175.5" font-family="Helvetica,sans-Serif" font-size="10.00" fill="#000000">fvm_utils.H</text>
</a>
</g>
</g>
<!-- Node5&#45;&gt;Node154 -->
<g id="edge53" class="edge">
<title>Node5&#45;&gt;Node154</title>
<path fill="none" stroke="#191970" d="M1833.8578,-232.8585C1934.6417,-229.8314 2182.8047,-219.5386 2388,-188 2391.0302,-187.5343 2394.1633,-186.9699 2397.2931,-186.3492"/>
<polygon fill="#191970" stroke="#191970" points="1833.614,-229.364 1823.7199,-233.1532 1833.8174,-236.3611 1833.614,-229.364"/>
</g>
<!-- Node163 -->
<g id="node43" class="node">
<title>Node163</title>
<g id="a_node43"><a xlink:href="_s_d_r_source_8_h.html" target="_top" xlink:title="SDRSource.H">
<polygon fill="#ffffff" stroke="#ff0000" points="2483,-168.5 2483,-187.5 2563,-187.5 2563,-168.5 2483,-168.5"/>
<text text-anchor="middle" x="2523" y="-175.5" font-family="Helvetica,sans-Serif" font-size="10.00" fill="#000000">SDRSource.H</text>
</a>
</g>
</g>
<!-- Node5&#45;&gt;Node163 -->
<g id="edge59" class="edge">
<title>Node5&#45;&gt;Node163</title>
<path fill="none" stroke="#191970" d="M1833.9497,-232.9806C1944.4794,-230.0795 2233.781,-219.8161 2473,-188 2476.2468,-187.5682 2479.5996,-187.0523 2482.9598,-186.4856"/>
<polygon fill="#191970" stroke="#191970" points="1833.7266,-229.485 1823.819,-233.2388 1833.905,-236.4828 1833.7266,-229.485"/>
</g>
<!-- Node164 -->
<g id="node44" class="node">
<title>Node164</title>
<g id="a_node44"><a xlink:href="_temperature_source_8_h.html" target="_top" xlink:title="TemperatureSource.H">
<polygon fill="#ffffff" stroke="#ff0000" points="2581.5,-168.5 2581.5,-187.5 2694.5,-187.5 2694.5,-168.5 2581.5,-168.5"/>
<text text-anchor="middle" x="2638" y="-175.5" font-family="Helvetica,sans-Serif" font-size="10.00" fill="#000000">TemperatureSource.H</text>
</a>
</g>
</g>
<!-- Node5&#45;&gt;Node164 -->
<g id="edge60" class="edge">
<title>Node5&#45;&gt;Node164</title>
<path fill="none" stroke="#191970" d="M1833.6505,-232.786C1954.4428,-229.2569 2292.3367,-217.3285 2572,-188 2574.9967,-187.6857 2578.0655,-187.3321 2581.1609,-186.9505"/>
<polygon fill="#191970" stroke="#191970" points="1833.5441,-229.2875 1823.6488,-233.0734 1833.7453,-236.2846 1833.5441,-229.2875"/>
</g>
<!-- Node165 -->
<g id="node45" class="node">
<title>Node165</title>
<g id="a_node45"><a xlink:href="_t_k_e_source_8_h.html" target="_top" xlink:title="TKESource.H">
<polygon fill="#ffffff" stroke="#ff0000" points="2712.5,-168.5 2712.5,-187.5 2789.5,-187.5 2789.5,-168.5 2712.5,-168.5"/>
<text text-anchor="middle" x="2751" y="-175.5" font-family="Helvetica,sans-Serif" font-size="10.00" fill="#000000">TKESource.H</text>
</a>
</g>
</g>
<!-- Node5&#45;&gt;Node165 -->
<g id="edge61" class="edge">
<title>Node5&#45;&gt;Node165</title>
<path fill="none" stroke="#191970" d="M1833.8941,-232.6365C1994.6845,-227.7119 2532.0374,-209.971 2703,-188 2706.0394,-187.6094 2709.1732,-187.1309 2712.3147,-186.5969"/>
<polygon fill="#191970" stroke="#191970" points="1833.7443,-229.1393 1823.8555,-232.9422 1833.9575,-236.1361 1833.7443,-229.1393"/>
</g>
<!-- Node168 -->
<g id="node46" class="node">
<title>Node168</title>
<g id="a_node46"><a xlink:href="_linear_profile_8cpp.html" target="_top" xlink:title="LinearProfile.cpp">
<polygon fill="#ffffff" stroke="#000000" points="2807.5,-168.5 2807.5,-187.5 2896.5,-187.5 2896.5,-168.5 2807.5,-168.5"/>
<text text-anchor="middle" x="2852" y="-175.5" font-family="Helvetica,sans-Serif" font-size="10.00" fill="#000000">LinearProfile.cpp</text>
</a>
</g>
</g>
<!-- Node5&#45;&gt;Node168 -->
<g id="edge64" class="edge">
<title>Node5&#45;&gt;Node168</title>
<path fill="none" stroke="#191970" d="M1833.7113,-232.7555C2004.7929,-227.9673 2607.2297,-209.9028 2798,-188 2801.0311,-187.652 2804.1482,-187.2347 2807.2824,-186.771"/>
<polygon fill="#191970" stroke="#191970" points="1833.4391,-229.2616 1823.5405,-233.0387 1833.634,-236.2589 1833.4391,-229.2616"/>
</g>
<!-- Node67 -->
<g id="node47" class="node">
<title>Node67</title>
<g id="a_node47"><a xlink:href="_power_law_profile_8cpp.html" target="_top" xlink:title="PowerLawProfile.cpp">
<polygon fill="#ffffff" stroke="#000000" points="2914.5,-168.5 2914.5,-187.5 3023.5,-187.5 3023.5,-168.5 2914.5,-168.5"/>
<text text-anchor="middle" x="2969" y="-175.5" font-family="Helvetica,sans-Serif" font-size="10.00" fill="#000000">PowerLawProfile.cpp</text>
</a>
</g>
</g>
<!-- Node5&#45;&gt;Node67 -->
<g id="edge65" class="edge">
<title>Node5&#45;&gt;Node67</title>
<path fill="none" stroke="#191970" d="M1833.662,-232.8146C2015.9334,-227.9751 2691.8384,-208.9737 2905,-188 2908.0218,-187.7027 2911.1181,-187.3568 2914.2396,-186.976"/>
<polygon fill="#191970" stroke="#191970" points="1833.5159,-229.3171 1823.6119,-233.0803 1833.701,-236.3147 1833.5159,-229.3171"/>
</g>
<!-- Node169 -->
<g id="node48" class="node">
<title>Node169</title>
<g id="a_node48"><a xlink:href="_u_d_f_8cpp.html" target="_top" xlink:title="UDF.cpp">
<polygon fill="#ffffff" stroke="#000000" points="3042,-168.5 3042,-187.5 3098,-187.5 3098,-168.5 3042,-168.5"/>
<text text-anchor="middle" x="3070" y="-175.5" font-family="Helvetica,sans-Serif" font-size="10.00" fill="#000000">UDF.cpp</text>
</a>
</g>
</g>
<!-- Node5&#45;&gt;Node169 -->
<g id="edge66" class="edge">
<title>Node5&#45;&gt;Node169</title>
<path fill="none" stroke="#191970" d="M1833.7095,-233.6574C2028.9755,-231.9863 2794.0008,-223.2747 3032,-188 3035.2391,-187.5199 3038.5995,-186.8683 3041.9218,-186.1264"/>
<polygon fill="#191970" stroke="#191970" points="1833.4873,-230.159 1823.5169,-233.7426 1833.5459,-237.1588 1833.4873,-230.159"/>
</g>
<!-- Node170 -->
<g id="node49" class="node">
<title>Node170</title>
<g id="a_node49"><a xlink:href="_transport_model_8_h.html" target="_top" xlink:title="TransportModel.H">
<polygon fill="#ffffff" stroke="#ff0000" points="3116.5,-168.5 3116.5,-187.5 3211.5,-187.5 3211.5,-168.5 3116.5,-168.5"/>
<text text-anchor="middle" x="3164" y="-175.5" font-family="Helvetica,sans-Serif" font-size="10.00" fill="#000000">TransportModel.H</text>
</a>
</g>
</g>
<!-- Node5&#45;&gt;Node170 -->
<g id="edge67" class="edge">
<title>Node5&#45;&gt;Node170</title>
<path fill="none" stroke="#191970" d="M1834.0617,-233.2527C2036.9758,-229.8283 2852.3342,-214.6496 3107,-188 3110.0976,-187.6758 3113.2809,-187.2836 3116.4836,-186.8444"/>
<polygon fill="#191970" stroke="#191970" points="1833.7045,-229.7581 1823.7646,-233.4252 1833.8219,-236.7571 1833.7045,-229.7581"/>
</g>
<!-- Node104 -->
<g id="node50" class="node">
<title>Node104</title>
<g id="a_node50"><a xlink:href="_smagorinsky_8_h.html" target="_top" xlink:title="Smagorinsky.H">
<polygon fill="#ffffff" stroke="#ff0000" points="3230,-168.5 3230,-187.5 3314,-187.5 3314,-168.5 3230,-168.5"/>
<text text-anchor="middle" x="3272" y="-175.5" font-family="Helvetica,sans-Serif" font-size="10.00" fill="#000000">Smagorinsky.H</text>
</a>
</g>
</g>
<!-- Node5&#45;&gt;Node104 -->
<g id="edge68" class="edge">
<title>Node5&#45;&gt;Node104</title>
<path fill="none" stroke="#191970" d="M1833.8451,-233.5256C2047.0332,-231.1665 2942.8133,-219.5289 3221,-188 3223.8689,-187.6748 3226.8175,-187.2747 3229.781,-186.8235"/>
<polygon fill="#191970" stroke="#191970" points="1833.599,-230.0279 1823.6379,-233.6372 1833.6756,-237.0275 1833.599,-230.0279"/>
</g>
<!-- Node7&#45;&gt;Node6 -->
<g id="edge4" class="edge">
<title>Node7&#45;&gt;Node6</title>
<path fill="none" stroke="#191970" d="M1253.2332,-168.036C1535.9953,-141.3183 2363.8152,-126.0952 2564.7184,-122.7182"/>
<polygon fill="#191970" stroke="#191970" points="1252.616,-164.5795 1243.0022,-169.0318 1253.2942,-171.5465 1252.616,-164.5795"/>
</g>
<!-- Node8 -->
<g id="node5" class="node">
<title>Node8</title>
<g id="a_node5"><a xlink:href="_fixed_gradient_b_c_8cpp.html" target="_top" xlink:title="FixedGradientBC.cpp">
<polygon fill="#ffffff" stroke="#000000" points="1705,-112.5 1705,-131.5 1815,-131.5 1815,-112.5 1705,-112.5"/>
<text text-anchor="middle" x="1760" y="-119.5" font-family="Helvetica,sans-Serif" font-size="10.00" fill="#000000">FixedGradientBC.cpp</text>
</a>
</g>
</g>
<!-- Node7&#45;&gt;Node8 -->
<g id="edge5" class="edge">
<title>Node7&#45;&gt;Node8</title>
<path fill="none" stroke="#191970" d="M1253.1272,-167.9569C1450.2151,-144.0798 1502.6586,-154.911 1696,-132 1698.9036,-131.6559 1701.8776,-131.2786 1704.8777,-130.8783"/>
<polygon fill="#191970" stroke="#191970" points="1252.5202,-164.505 1243.0205,-169.1962 1253.3722,-171.453 1252.5202,-164.505"/>
</g>
<!-- Node9&#45;&gt;Node10 -->
<g id="edge7" class="edge">
<title>Node9&#45;&gt;Node10</title>
<path fill="none" stroke="#191970" d="M871.4451,-172.8223C813.0843,-165.4153 705.071,-150.6104 614,-132 609.4801,-131.0764 604.6985,-129.9643 600.0907,-128.8224"/>
<polygon fill="#191970" stroke="#191970" points="871.0471,-176.2997 881.4059,-174.0756 871.9211,-169.3545 871.0471,-176.2997"/>
</g>
<!-- Node29 -->
<g id="node8" class="node">
<title>Node29</title>
<g id="a_node8"><a xlink:href="_a_b_l_wall_function_8_h.html" target="_top" xlink:title="ABLWallFunction.H">
<polygon fill="#ffffff" stroke="#ff0000" points="782.5,-56.5 782.5,-75.5 885.5,-75.5 885.5,-56.5 782.5,-56.5"/>
<text text-anchor="middle" x="834" y="-63.5" font-family="Helvetica,sans-Serif" font-size="10.00" fill="#000000">ABLWallFunction.H</text>
</a>
</g>
</g>
<!-- Node9&#45;&gt;Node29 -->
<g id="edge8" class="edge">
<title>Node9&#45;&gt;Node29</title>
<path fill="none" stroke="#191970" d="M901.2936,-160.2111C884.1421,-136.1989 854.1914,-94.2679 840.8035,-75.5249"/>
<polygon fill="#191970" stroke="#191970" points="898.5187,-162.3479 907.1792,-168.4509 904.2149,-158.2792 898.5187,-162.3479"/>
</g>
<!-- Node34 -->
<g id="node9" class="node">
<title>Node34</title>
<g id="a_node9"><a xlink:href="_a_b_l_stats_8_h.html" target="_top" xlink:title="ABLStats.H">
<polygon fill="#ffffff" stroke="#ff0000" points="799.5,-.5 799.5,-19.5 868.5,-19.5 868.5,-.5 799.5,-.5"/>
<text text-anchor="middle" x="834" y="-7.5" font-family="Helvetica,sans-Serif" font-size="10.00" fill="#000000">ABLStats.H</text>
</a>
</g>
</g>
<!-- Node9&#45;&gt;Node34 -->
<g id="edge16" class="edge">
<title>Node9&#45;&gt;Node34</title>
<path fill="none" stroke="#191970" d="M915.0691,-158.0817C915.5166,-132.5966 913.1262,-87.9362 894,-56 884.3562,-39.8971 866.7647,-27.4309 853.1137,-19.5631"/>
<polygon fill="#191970" stroke="#191970" points="911.5626,-158.2118 914.7138,-168.3271 918.5584,-158.4545 911.5626,-158.2118"/>
</g>
<!-- Node37 -->
<g id="node10" class="node">
<title>Node37</title>
<g id="a_node10"><a xlink:href="_field_plane_averaging_8_h.html" target="_top" xlink:title="FieldPlaneAveraging.H">
<polygon fill="#ffffff" stroke="#ff0000" points="732,-112.5 732,-131.5 848,-131.5 848,-112.5 732,-112.5"/>
<text text-anchor="middle" x="790" y="-119.5" font-family="Helvetica,sans-Serif" font-size="10.00" fill="#000000">FieldPlaneAveraging.H</text>
</a>
</g>
</g>
<!-- Node9&#45;&gt;Node37 -->
<g id="edge10" class="edge">
<title>Node9&#45;&gt;Node37</title>
<path fill="none" stroke="#191970" d="M883.5476,-164.2473C861.0278,-154.0771 830.9383,-140.4883 811.0382,-131.5011"/>
<polygon fill="#191970" stroke="#191970" points="882.1294,-167.4471 892.6836,-168.3733 885.0105,-161.0675 882.1294,-167.4471"/>
</g>
<!-- Node32 -->
<g id="node12" class="node">
<title>Node32</title>
<g id="a_node12"><a xlink:href="_a_b_l_mean_boussinesq_8cpp.html" target="_top" xlink:title="ABLMeanBoussinesq.cpp">
<polygon fill="#ffffff" stroke="#000000" points="585.5,-.5 585.5,-19.5 714.5,-19.5 714.5,-.5 585.5,-.5"/>
<text text-anchor="middle" x="650" y="-7.5" font-family="Helvetica,sans-Serif" font-size="10.00" fill="#000000">ABLMeanBoussinesq.cpp</text>
</a>
</g>
</g>
<!-- Node9&#45;&gt;Node32 -->
<g id="edge22" class="edge">
<title>Node9&#45;&gt;Node32</title>
<path fill="none" stroke="#191970" d="M871.2483,-171.6508C822.4235,-163.7278 746.2823,-149.1171 723,-132 682.6303,-102.3203 660.382,-42.9972 652.9002,-19.7059"/>
<polygon fill="#191970" stroke="#191970" points="870.7976,-175.1231 881.2235,-173.2385 871.898,-168.2101 870.7976,-175.1231"/>
</g>
<!-- Node43 -->
<g id="node13" class="node">
<title>Node43</title>
<g id="a_node13"><a xlink:href="_a_b_l_boundary_plane_8_h.html" target="_top" xlink:title="ABLBoundaryPlane.H">
<polygon fill="#ffffff" stroke="#ff0000" points="942,-112.5 942,-131.5 1054,-131.5 1054,-112.5 942,-112.5"/>
<text text-anchor="middle" x="998" y="-119.5" font-family="Helvetica,sans-Serif" font-size="10.00" fill="#000000">ABLBoundaryPlane.H</text>
</a>
</g>
</g>
<!-- Node9&#45;&gt;Node43 -->
<g id="edge15" class="edge">
<title>Node9&#45;&gt;Node43</title>
<path fill="none" stroke="#191970" d="M937.2649,-162.49C952.0856,-152.6096 970.8209,-140.1194 983.536,-131.6427"/>
<polygon fill="#191970" stroke="#191970" points="935.0107,-159.7863 928.6317,-168.2455 938.8937,-165.6107 935.0107,-159.7863"/>
</g>
<!-- Node47 -->
<g id="node14" class="node">
<title>Node47</title>
<g id="a_node14"><a xlink:href="_c_f_d_sim_8cpp.html" target="_top" xlink:title="CFDSim.cpp">
<polygon fill="#ffffff" stroke="#000000" points="1072,-112.5 1072,-131.5 1146,-131.5 1146,-112.5 1072,-112.5"/>
<text text-anchor="middle" x="1109" y="-119.5" font-family="Helvetica,sans-Serif" font-size="10.00" fill="#000000">CFDSim.cpp</text>
</a>
</g>
</g>
<!-- Node9&#45;&gt;Node47 -->
<g id="edge17" class="edge">
<title>Node9&#45;&gt;Node47</title>
<path fill="none" stroke="#191970" d="M956.3085,-165.8499C992.0774,-155.5778 1042.624,-141.0618 1075.6013,-131.5914"/>
<polygon fill="#191970" stroke="#191970" points="955.284,-162.5025 946.6386,-168.6269 957.2162,-169.2306 955.284,-162.5025"/>
</g>
<!-- Node48 -->
<g id="node15" class="node">
<title>Node48</title>
<g id="a_node15"><a xlink:href="_p_d_e_ops_8_h.html" target="_top" xlink:title="PDEOps.H">
<polygon fill="#ffffff" stroke="#ff0000" points="1408,-112.5 1408,-131.5 1474,-131.5 1474,-112.5 1408,-112.5"/>
<text text-anchor="middle" x="1441" y="-119.5" font-family="Helvetica,sans-Serif" font-size="10.00" fill="#000000">PDEOps.H</text>
</a>
</g>
</g>
<!-- Node9&#45;&gt;Node48 -->
<g id="edge18" class="edge">
<title>Node9&#45;&gt;Node48</title>
<path fill="none" stroke="#191970" d="M956.857,-168.096C1150.6547,-138.0437 1203.9582,-159.9107 1394,-132 1398.5396,-131.3333 1403.298,-130.4915 1407.9717,-129.5806"/>
<polygon fill="#191970" stroke="#191970" points="956.2532,-164.6478 946.9205,-169.6629 957.3437,-171.5624 956.2532,-164.6478"/>
</g>
<!-- Node62 -->
<g id="node16" class="node">
<title>Node62</title>
<g id="a_node16"><a xlink:href="_p_d_e_8_h.html" target="_top" xlink:title="PDE.H">
<polygon fill="#ffffff" stroke="#ff0000" points="1386,-56.5 1386,-75.5 1434,-75.5 1434,-56.5 1386,-56.5"/>
<text text-anchor="middle" x="1410" y="-63.5" font-family="Helvetica,sans-Serif" font-size="10.00" fill="#000000">PDE.H</text>
</a>
</g>
</g>
<!-- Node9&#45;&gt;Node62 -->
<g id="edge20" class="edge">
<title>Node9&#45;&gt;Node62</title>
<path fill="none" stroke="#191970" d="M956.8229,-168.238C1060.0227,-154.8821 1283.6878,-174.253 1360,-132 1383.1401,-119.1877 1398.8464,-90.6974 1405.8507,-75.685"/>
<polygon fill="#191970" stroke="#191970" points="956.3128,-164.7753 946.924,-169.6846 957.325,-171.7017 956.3128,-164.7753"/>
</g>
<!-- Node31 -->
<g id="node17" class="node">
<title>Node31</title>
<g id="a_node17"><a xlink:href="_a_b_l_forcing_8cpp.html" target="_top" xlink:title="ABLForcing.cpp">
<polygon fill="#ffffff" stroke="#000000" points="1164,-112.5 1164,-131.5 1250,-131.5 1250,-112.5 1164,-112.5"/>
<text text-anchor="middle" x="1207" y="-119.5" font-family="Helvetica,sans-Serif" font-size="10.00" fill="#000000">ABLForcing.cpp</text>
</a>
</g>
</g>
<!-- Node9&#45;&gt;Node31 -->
<g id="edge21" class="edge">
<title>Node9&#45;&gt;Node31</title>
<path fill="none" stroke="#191970" d="M956.527,-167.981C1045.6484,-149.4879 1069.7513,-147.9074 1155,-132 1157.8919,-131.4604 1160.8733,-130.8994 1163.8767,-130.3308"/>
<polygon fill="#191970" stroke="#191970" points="955.5929,-164.6005 946.5199,-170.0714 957.0243,-171.4526 955.5929,-164.6005"/>
</g>
<!-- Node76 -->
<g id="node18" class="node">
<title>Node76</title>
<g id="a_node18"><a xlink:href="_body_force_8cpp.html" target="_top" xlink:title="BodyForce.cpp">
<polygon fill="#ffffff" stroke="#000000" points="1268.5,-112.5 1268.5,-131.5 1351.5,-131.5 1351.5,-112.5 1268.5,-112.5"/>
<text text-anchor="middle" x="1310" y="-119.5" font-family="Helvetica,sans-Serif" font-size="10.00" fill="#000000">BodyForce.cpp</text>
</a>
</g>
</g>
<!-- Node9&#45;&gt;Node76 -->
<g id="edge23" class="edge">
<title>Node9&#45;&gt;Node76</title>
<path fill="none" stroke="#191970" d="M956.7911,-168.0385C1091.2376,-144.6514 1128.1716,-152.5683 1259,-132 1262.0305,-131.5236 1265.1557,-130.9973 1268.2968,-130.4428"/>
<polygon fill="#191970" stroke="#191970" points="956.1792,-164.5923 946.9398,-169.7773 957.396,-171.4858 956.1792,-164.5923"/>
</g>
<!-- Node77 -->
<g id="node19" class="node">
<title>Node77</title>
<g id="a_node19"><a xlink:href="_boussinesq_buoyancy_8cpp.html" target="_top" xlink:title="BoussinesqBuoyancy.cpp">
<polygon fill="#ffffff" stroke="#000000" points="132,-56.5 132,-75.5 262,-75.5 262,-56.5 132,-56.5"/>
<text text-anchor="middle" x="197" y="-63.5" font-family="Helvetica,sans-Serif" font-size="10.00" fill="#000000">BoussinesqBuoyancy.cpp</text>
</a>
</g>
</g>
<!-- Node9&#45;&gt;Node77 -->
<g id="edge24" class="edge">
<title>Node9&#45;&gt;Node77</title>
<path fill="none" stroke="#191970" d="M871.1189,-175.7308C816.413,-171.7246 719.5905,-160.869 642,-132 625.9265,-126.0196 625.2356,-117.5253 609,-112 546.4865,-90.7253 361.9073,-76.3152 262.3743,-69.8595"/>
<polygon fill="#191970" stroke="#191970" points="870.9378,-179.2265 881.1549,-176.423 871.4195,-172.2431 870.9378,-179.2265"/>
</g>
<!-- Node78 -->
<g id="node20" class="node">
<title>Node78</title>
<g id="a_node20"><a xlink:href="_coriolis_forcing_8cpp.html" target="_top" xlink:title="CoriolisForcing.cpp">
<polygon fill="#ffffff" stroke="#000000" points="406.5,-56.5 406.5,-75.5 507.5,-75.5 507.5,-56.5 406.5,-56.5"/>
<text text-anchor="middle" x="457" y="-63.5" font-family="Helvetica,sans-Serif" font-size="10.00" fill="#000000">CoriolisForcing.cpp</text>
</a>
</g>
</g>
<!-- Node9&#45;&gt;Node78 -->
<g id="edge25" class="edge">
<title>Node9&#45;&gt;Node78</title>
<path fill="none" stroke="#191970" d="M871.1259,-171.7128C825.5821,-164.4533 751.7776,-151.0198 690,-132 667.912,-125.1997 663.9433,-119.2535 642,-112 595.65,-96.6787 541.2959,-83.742 503.5482,-75.5283"/>
<polygon fill="#191970" stroke="#191970" points="870.814,-175.2066 881.2353,-173.2966 871.8975,-168.291 870.814,-175.2066"/>
</g>
<!-- Node9&#45;&gt;Node81 -->
<g id="edge26" class="edge">
<title>Node9&#45;&gt;Node81</title>
<path fill="none" stroke="#191970" d="M957.0527,-168.0909C1189.8951,-133.5518 1253.6547,-163.0953 1483,-132 1486.0973,-131.5801 1489.2925,-131.0805 1492.4967,-130.5319"/>
<polygon fill="#191970" stroke="#191970" points="956.2803,-164.6677 946.9137,-169.6192 957.3237,-171.5895 956.2803,-164.6677"/>
</g>
<!-- Node9&#45;&gt;Node86 -->
<g id="edge27" class="edge">
<title>Node9&#45;&gt;Node86</title>
<path fill="none" stroke="#191970" d="M956.8049,-168.1441C1232.5943,-128.5062 1307.2486,-163.2793 1580,-132 1582.8424,-131.674 1585.7569,-131.2997 1588.6937,-130.8916"/>
<polygon fill="#191970" stroke="#191970" points="956.2997,-164.6806 946.9087,-169.5857 957.3088,-171.6075 956.2997,-164.6806"/>
</g>
<!-- Node29&#45;&gt;Node34 -->
<g id="edge9" class="edge">
<title>Node29&#45;&gt;Node34</title>
<path fill="none" stroke="#191970" d="M834,-46.1575C834,-37.155 834,-26.9199 834,-19.6427"/>
<polygon fill="#191970" stroke="#191970" points="830.5001,-46.2455 834,-56.2455 837.5001,-46.2456 830.5001,-46.2455"/>
</g>
<!-- Node37&#45;&gt;Node29 -->
<g id="edge11" class="edge">
<title>Node37&#45;&gt;Node29</title>
<path fill="none" stroke="#191970" d="M803.9769,-104.2112C811.4129,-94.7472 820.266,-83.4797 826.4236,-75.6427"/>
<polygon fill="#191970" stroke="#191970" points="801.0903,-102.22 797.6642,-112.2455 806.5946,-106.5447 801.0903,-102.22"/>
</g>
<!-- Node37&#45;&gt;Node34 -->
<g id="edge12" class="edge">
<title>Node37&#45;&gt;Node34</title>
<path fill="none" stroke="#191970" d="M778.3761,-103.2305C771.524,-89.6014 765.5254,-70.9982 773,-56 781.2828,-39.3801 798.7497,-27.1809 812.8784,-19.5378"/>
<polygon fill="#191970" stroke="#191970" points="775.418,-105.113 783.3358,-112.1529 781.5363,-101.712 775.418,-105.113"/>
</g>
<!-- Node37&#45;&gt;Node42 -->
<g id="edge13" class="edge">
<title>Node37&#45;&gt;Node42</title>
<path fill="none" stroke="#191970" d="M747.002,-109.5882C711.3592,-99.2996 661.4386,-84.8895 628.9146,-75.5011"/>
<polygon fill="#191970" stroke="#191970" points="746.0718,-112.9625 756.6502,-112.3733 748.0132,-106.2371 746.0718,-112.9625"/>
</g>
<!-- Node42&#45;&gt;Node32 -->
<g id="edge14" class="edge">
<title>Node42&#45;&gt;Node32</title>
<path fill="none" stroke="#191970" d="M612.5969,-48.7884C621.8347,-39.2085 632.9904,-27.6396 640.7017,-19.6427"/>
<polygon fill="#191970" stroke="#191970" points="609.828,-46.6176 605.4061,-56.2455 614.8669,-51.4766 609.828,-46.6176"/>
</g>
<!-- Node48&#45;&gt;Node62 -->
<g id="edge19" class="edge">
<title>Node48&#45;&gt;Node62</title>
<path fill="none" stroke="#191970" d="M1430.6688,-103.3372C1425.5335,-94.0605 1419.5434,-83.2398 1415.3379,-75.6427"/>
<polygon fill="#191970" stroke="#191970" points="1427.6949,-105.1917 1435.6002,-112.2455 1433.8191,-101.8015 1427.6949,-105.1917"/>
</g>
<!-- Node144&#45;&gt;Node48 -->
<g id="edge42" class="edge">
<title>Node144&#45;&gt;Node48</title>
<path fill="none" stroke="#191970" d="M1057.1494,-168.5732C1058.4451,-168.3753 1059.7303,-168.1838 1061,-168 1208.3265,-146.6715 1247.0075,-155.5202 1394,-132 1398.5307,-131.275 1403.284,-130.4 1407.9552,-129.4729"/>
<polygon fill="#191970" stroke="#191970" points="1056.408,-165.1474 1047.0924,-170.1942 1057.522,-172.0582 1056.408,-165.1474"/>
</g>
<!-- Node144&#45;&gt;Node81 -->
<g id="edge43" class="edge">
<title>Node144&#45;&gt;Node81</title>
<path fill="none" stroke="#191970" d="M1057.144,-168.5345C1058.4414,-168.3481 1059.7283,-168.1695 1061,-168 1247.5874,-143.1357 1296.6902,-158.8653 1483,-132 1486.0936,-131.5539 1489.2862,-131.0355 1492.4886,-130.474"/>
<polygon fill="#191970" stroke="#191970" points="1056.4253,-165.1039 1047.0782,-170.0922 1057.4959,-172.0216 1056.4253,-165.1039"/>
</g>
<!-- Node146&#45;&gt;Node42 -->
<g id="edge46" class="edge">
<title>Node146&#45;&gt;Node42</title>
<path fill="none" stroke="#191970" d="M293.9127,-159.1923C286.2847,-144.7096 279.7909,-125.0264 291,-112 294.9731,-107.3828 447.4537,-86.0808 535.2746,-74.1514"/>
<polygon fill="#191970" stroke="#191970" points="291.1209,-161.3542 299.1712,-168.2422 297.1734,-157.8374 291.1209,-161.3542"/>
</g>
<!-- Node146&#45;&gt;Node149 -->
<g id="edge47" class="edge">
<title>Node146&#45;&gt;Node149</title>
<path fill="none" stroke="#191970" d="M254.2767,-166.1775C209.1555,-155.8641 144.5335,-141.0934 102.6661,-131.5237"/>
<polygon fill="#191970" stroke="#191970" points="253.6329,-169.6206 264.1614,-168.4369 255.1927,-162.7966 253.6329,-169.6206"/>
</g>
<!-- Node146&#45;&gt;Node150 -->
<g id="edge49" class="edge">
<title>Node146&#45;&gt;Node150</title>
<path fill="none" stroke="#191970" d="M339.8415,-164.6541C365.7366,-154.4419 400.8138,-140.6086 423.9079,-131.5011"/>
<polygon fill="#191970" stroke="#191970" points="338.4293,-161.4486 330.4107,-168.3733 340.9975,-167.9605 338.4293,-161.4486"/>
</g>
<!-- Node146&#45;&gt;Node151 -->
<g id="edge51" class="edge">
<title>Node146&#45;&gt;Node151</title>
<path fill="none" stroke="#191970" d="M277.1679,-163.8368C256.5605,-153.7139 229.3918,-140.3679 211.3416,-131.5011"/>
<polygon fill="#191970" stroke="#191970" points="275.884,-167.1056 286.4027,-168.3733 278.9703,-160.8227 275.884,-167.1056"/>
</g>
<!-- Node146&#45;&gt;Node153 -->
<g id="edge52" class="edge">
<title>Node146&#45;&gt;Node153</title>
<path fill="none" stroke="#191970" d="M317.8096,-159.6296C323.8144,-150.2887 330.8659,-139.3197 335.8011,-131.6427"/>
<polygon fill="#191970" stroke="#191970" points="314.7342,-157.9411 312.2707,-168.2455 320.6225,-161.7264 314.7342,-157.9411"/>
</g>
<!-- Node149&#45;&gt;Node77 -->
<g id="edge48" class="edge">
<title>Node149&#45;&gt;Node77</title>
<path fill="none" stroke="#191970" d="M93.7399,-108.5189C118.5083,-98.3201 151.905,-84.5685 173.9258,-75.5011"/>
<polygon fill="#191970" stroke="#191970" points="92.2934,-105.3293 84.3792,-112.3733 94.9587,-111.8021 92.2934,-105.3293"/>
</g>
<!-- Node150&#45;&gt;Node78 -->
<g id="edge50" class="edge">
<title>Node150&#45;&gt;Node78</title>
<path fill="none" stroke="#191970" d="M451.189,-102.1575C452.6358,-93.155 454.2807,-82.9199 455.4503,-75.6427"/>
<polygon fill="#191970" stroke="#191970" points="447.6989,-101.8168 449.5677,-112.2455 454.6102,-102.9276 447.6989,-101.8168"/>
</g>
</g>
</svg>
