<?xml version="1.0" encoding="UTF-8" standalone="no"?>
<!DOCTYPE svg PUBLIC "-//W3C//DTD SVG 1.1//EN"
 "http://www.w3.org/Graphics/SVG/1.1/DTD/svg11.dtd">
<!-- Generated by graphviz version 2.40.1 (20161225.0304)
 -->
<!-- Title: MLMGOptions.H Pages: 1 -->
<svg width="1238pt" height="319pt"
 viewBox="0.00 0.00 1238.00 319.00" xmlns="http://www.w3.org/2000/svg" xmlns:xlink="http://www.w3.org/1999/xlink">
<g id="graph0" class="graph" transform="scale(1 1) rotate(0) translate(4 315)">
<title>MLMGOptions.H</title>
<polygon fill="#ffffff" stroke="transparent" points="-4,4 -4,-315 1234,-315 1234,4 -4,4"/>
<!-- Node5 -->
<g id="node1" class="node">
<title>Node5</title>
<polygon fill="#bfbfbf" stroke="#000000" points="948.5,-291.5 948.5,-310.5 1038.5,-310.5 1038.5,-291.5 948.5,-291.5"/>
<text text-anchor="middle" x="993.5" y="-298.5" font-family="Helvetica,sans-Serif" font-size="10.00" fill="#000000">MLMGOptions.H</text>
</g>
<!-- Node6 -->
<g id="node2" class="node">
<title>Node6</title>
<g id="a_node2"><a xlink:href="incflo___m_a_c__projection_8cpp.html" target="_top" xlink:title="incflo_MAC_projection.cpp">
<polygon fill="#ffffff" stroke="#000000" points="683.5,-230 683.5,-249 817.5,-249 817.5,-230 683.5,-230"/>
<text text-anchor="middle" x="750.5" y="-237" font-family="Helvetica,sans-Serif" font-size="10.00" fill="#000000">incflo_MAC_projection.cpp</text>
</a>
</g>
</g>
<!-- Node5&#45;&gt;Node6 -->
<g id="edge1" class="edge">
<title>Node5&#45;&gt;Node6</title>
<path fill="none" stroke="#191970" d="M946.0373,-288.9878C899.92,-277.3162 830.8026,-259.8235 788.2906,-249.0643"/>
<polygon fill="#191970" stroke="#191970" points="945.2448,-292.3975 955.7979,-291.4581 946.9623,-285.6115 945.2448,-292.3975"/>
</g>
<!-- Node7 -->
<g id="node3" class="node">
<title>Node7</title>
<g id="a_node3"><a xlink:href="_m_l_m_g_options_8cpp.html" target="_top" xlink:title="MLMGOptions.cpp">
<polygon fill="#ffffff" stroke="#000000" points="835.5,-230 835.5,-249 933.5,-249 933.5,-230 835.5,-230"/>
<text text-anchor="middle" x="884.5" y="-237" font-family="Helvetica,sans-Serif" font-size="10.00" fill="#000000">MLMGOptions.cpp</text>
</a>
</g>
</g>
<!-- Node5&#45;&gt;Node7 -->
<g id="edge2" class="edge">
<title>Node5&#45;&gt;Node7</title>
<path fill="none" stroke="#191970" d="M967.6502,-286.415C947.1609,-274.8546 919.1231,-259.035 901.4117,-249.0419"/>
<polygon fill="#191970" stroke="#191970" points="966.0395,-289.5249 976.4688,-291.3906 969.4793,-283.4283 966.0395,-289.5249"/>
</g>
<!-- Node8 -->
<g id="node4" class="node">
<title>Node8</title>
<g id="a_node4"><a xlink:href="_diffusion_ops_8_h.html" target="_top" xlink:title="DiffusionOps.H">
<polygon fill="#ffffff" stroke="#000000" points="951.5,-230 951.5,-249 1035.5,-249 1035.5,-230 951.5,-230"/>
<text text-anchor="middle" x="993.5" y="-237" font-family="Helvetica,sans-Serif" font-size="10.00" fill="#000000">DiffusionOps.H</text>
</a>
</g>
</g>
<!-- Node5&#45;&gt;Node8 -->
<g id="edge3" class="edge">
<title>Node5&#45;&gt;Node8</title>
<path fill="none" stroke="#191970" d="M993.5,-281.2462C993.5,-270.5519 993.5,-257.814 993.5,-249.2449"/>
<polygon fill="#191970" stroke="#191970" points="990.0001,-281.3906 993.5,-291.3906 997.0001,-281.3907 990.0001,-281.3906"/>
</g>
<!-- Node16 -->
<g id="node12" class="node">
<title>Node16</title>
<g id="a_node12"><a xlink:href="icns__ops_8cpp.html" target="_top" xlink:title="icns_ops.cpp">
<polygon fill="#ffffff" stroke="#000000" points="1029.5,-.5 1029.5,-19.5 1103.5,-19.5 1103.5,-.5 1029.5,-.5"/>
<text text-anchor="middle" x="1066.5" y="-7.5" font-family="Helvetica,sans-Serif" font-size="10.00" fill="#000000">icns_ops.cpp</text>
</a>
</g>
</g>
<!-- Node5&#45;&gt;Node16 -->
<g id="edge33" class="edge">
<title>Node5&#45;&gt;Node16</title>
<path fill="none" stroke="#191970" d="M1020.8158,-286.3619C1053.6825,-266.535 1104.5,-227.8235 1104.5,-178 1104.5,-178 1104.5,-178 1104.5,-122 1104.5,-82.1657 1082.6774,-38.3859 1072.107,-19.5166"/>
<polygon fill="#191970" stroke="#191970" points="1018.9611,-283.3916 1012.0789,-291.4468 1022.4823,-289.4416 1018.9611,-283.3916"/>
</g>
<!-- Node31 -->
<g id="node27" class="node">
<title>Node31</title>
<g id="a_node27"><a xlink:href="incflo__apply__nodal__projection_8cpp.html" target="_top" xlink:title="incflo_apply_nodal\l_projection.cpp">
<polygon fill="#ffffff" stroke="#000000" points="1133,-224.5 1133,-254.5 1230,-254.5 1230,-224.5 1133,-224.5"/>
<text text-anchor="start" x="1141" y="-242.5" font-family="Helvetica,sans-Serif" font-size="10.00" fill="#000000">incflo_apply_nodal</text>
<text text-anchor="middle" x="1181.5" y="-231.5" font-family="Helvetica,sans-Serif" font-size="10.00" fill="#000000">_projection.cpp</text>
</a>
</g>
</g>
<!-- Node5&#45;&gt;Node31 -->
<g id="edge34" class="edge">
<title>Node5&#45;&gt;Node31</title>
<path fill="none" stroke="#191970" d="M1032.5643,-288.221C1062.5228,-278.4207 1103.951,-264.8684 1135.51,-254.5446"/>
<polygon fill="#191970" stroke="#191970" points="1031.2912,-284.9549 1022.875,-291.3906 1033.4676,-291.6079 1031.2912,-284.9549"/>
</g>
<!-- Node9 -->
<g id="node5" class="node">
<title>Node9</title>
<g id="a_node5"><a xlink:href="_p_d_e_8_h.html" target="_top" xlink:title="PDE.H">
<polygon fill="#ffffff" stroke="#000000" points="365.5,-168.5 365.5,-187.5 413.5,-187.5 413.5,-168.5 365.5,-168.5"/>
<text text-anchor="middle" x="389.5" y="-175.5" font-family="Helvetica,sans-Serif" font-size="10.00" fill="#000000">PDE.H</text>
</a>
</g>
</g>
<!-- Node8&#45;&gt;Node9 -->
<g id="edge4" class="edge">
<title>Node8&#45;&gt;Node9</title>
<path fill="none" stroke="#191970" d="M956.1652,-227.1679C951.5975,-225.952 946.9665,-224.8545 942.5,-224 838.6517,-204.1333 506.3367,-184.517 413.6861,-179.3271"/>
<polygon fill="#191970" stroke="#191970" points="955.3984,-230.5888 965.9752,-229.97 957.3211,-223.858 955.3984,-230.5888"/>
</g>
<!-- Node15 -->
<g id="node11" class="node">
<title>Node15</title>
<g id="a_node11"><a xlink:href="icns__ops_8_h.html" target="_top" xlink:title="icns_ops.H">
<polygon fill="#ffffff" stroke="#000000" points="995.5,-56.5 995.5,-75.5 1061.5,-75.5 1061.5,-56.5 995.5,-56.5"/>
<text text-anchor="middle" x="1028.5" y="-63.5" font-family="Helvetica,sans-Serif" font-size="10.00" fill="#000000">icns_ops.H</text>
</a>
</g>
</g>
<!-- Node8&#45;&gt;Node15 -->
<g id="edge31" class="edge">
<title>Node8&#45;&gt;Node15</title>
<path fill="none" stroke="#191970" d="M983.5664,-220.4699C977.3016,-206.0742 971.1488,-185.8109 975.5,-168 984.451,-131.3603 1009.0734,-93.2254 1021.3486,-75.7738"/>
<polygon fill="#191970" stroke="#191970" points="980.5452,-222.2671 987.9993,-229.7962 986.8674,-219.262 980.5452,-222.2671"/>
</g>
<!-- Node17 -->
<g id="node13" class="node">
<title>Node17</title>
<g id="a_node13"><a xlink:href="icns__diffusion_8_h.html" target="_top" xlink:title="icns_diffusion.H">
<polygon fill="#ffffff" stroke="#000000" points="890,-56.5 890,-75.5 977,-75.5 977,-56.5 890,-56.5"/>
<text text-anchor="middle" x="933.5" y="-63.5" font-family="Helvetica,sans-Serif" font-size="10.00" fill="#000000">icns_diffusion.H</text>
</a>
</g>
</g>
<!-- Node8&#45;&gt;Node17 -->
<g id="edge32" class="edge">
<title>Node8&#45;&gt;Node17</title>
<path fill="none" stroke="#191970" d="M983.9488,-220.7698C979.2434,-211.1267 973.6949,-199.0935 969.5,-188 954.0347,-147.1011 940.9569,-96.4866 935.8248,-75.6513"/>
<polygon fill="#191970" stroke="#191970" points="980.8627,-222.4244 988.4549,-229.8143 987.1282,-219.3028 980.8627,-222.4244"/>
</g>
<!-- Node30 -->
<g id="node26" class="node">
<title>Node30</title>
<g id="a_node26"><a xlink:href="_diffusion_ops_8cpp.html" target="_top" xlink:title="DiffusionOps.cpp">
<polygon fill="#ffffff" stroke="#000000" points="984.5,-168.5 984.5,-187.5 1076.5,-187.5 1076.5,-168.5 984.5,-168.5"/>
<text text-anchor="middle" x="1030.5" y="-175.5" font-family="Helvetica,sans-Serif" font-size="10.00" fill="#000000">DiffusionOps.cpp</text>
</a>
</g>
</g>
<!-- Node8&#45;&gt;Node30 -->
<g id="edge30" class="edge">
<title>Node8&#45;&gt;Node30</title>
<path fill="none" stroke="#191970" d="M1004.5785,-221.0857C1011.1686,-210.132 1019.2647,-196.6748 1024.6372,-187.7449"/>
<polygon fill="#191970" stroke="#191970" points="1001.4374,-219.5175 999.2813,-229.8906 1007.4356,-223.1262 1001.4374,-219.5175"/>
</g>
<!-- Node10 -->
<g id="node6" class="node">
<title>Node10</title>
<g id="a_node6"><a xlink:href="density_8_h.html" target="_top" xlink:title="density.H">
<polygon fill="#ffffff" stroke="#000000" points="229,-112.5 229,-131.5 288,-131.5 288,-112.5 229,-112.5"/>
<text text-anchor="middle" x="258.5" y="-119.5" font-family="Helvetica,sans-Serif" font-size="10.00" fill="#000000">density.H</text>
</a>
</g>
</g>
<!-- Node9&#45;&gt;Node10 -->
<g id="edge5" class="edge">
<title>Node9&#45;&gt;Node10</title>
<path fill="none" stroke="#191970" d="M357.6466,-164.3833C333.8215,-154.1985 301.8432,-140.5284 280.7258,-131.5011"/>
<polygon fill="#191970" stroke="#191970" points="356.4094,-167.6608 366.9803,-168.3733 359.161,-161.2242 356.4094,-167.6608"/>
</g>
<!-- Node13 -->
<g id="node9" class="node">
<title>Node13</title>
<g id="a_node9"><a xlink:href="icns_8_h.html" target="_top" xlink:title="icns.H">
<polygon fill="#ffffff" stroke="#000000" points="797,-112.5 797,-131.5 842,-131.5 842,-112.5 797,-112.5"/>
<text text-anchor="middle" x="819.5" y="-119.5" font-family="Helvetica,sans-Serif" font-size="10.00" fill="#000000">icns.H</text>
</a>
</g>
</g>
<!-- Node9&#45;&gt;Node13 -->
<g id="edge9" class="edge">
<title>Node9&#45;&gt;Node13</title>
<path fill="none" stroke="#191970" d="M423.6511,-173.5524C508.3201,-162.5258 726.1753,-134.1539 796.9356,-124.9386"/>
<polygon fill="#191970" stroke="#191970" points="423.0043,-170.107 413.5401,-174.8692 423.9083,-177.0484 423.0043,-170.107"/>
</g>
<!-- Node20 -->
<g id="node16" class="node">
<title>Node20</title>
<g id="a_node16"><a xlink:href="levelset_8_h.html" target="_top" xlink:title="levelset.H">
<polygon fill="#ffffff" stroke="#000000" points="476,-112.5 476,-131.5 537,-131.5 537,-112.5 476,-112.5"/>
<text text-anchor="middle" x="506.5" y="-119.5" font-family="Helvetica,sans-Serif" font-size="10.00" fill="#000000">levelset.H</text>
</a>
</g>
</g>
<!-- Node9&#45;&gt;Node20 -->
<g id="edge19" class="edge">
<title>Node9&#45;&gt;Node20</title>
<path fill="none" stroke="#191970" d="M418.8042,-163.9741C439.988,-153.8348 468.0403,-140.408 486.6494,-131.5011"/>
<polygon fill="#191970" stroke="#191970" points="417.122,-160.8989 409.613,-168.3733 420.1441,-167.2129 417.122,-160.8989"/>
</g>
<!-- Node23 -->
<g id="node19" class="node">
<title>Node23</title>
<g id="a_node19"><a xlink:href="_s_d_r_8_h.html" target="_top" xlink:title="SDR.H">
<polygon fill="#ffffff" stroke="#000000" points="34,-112.5 34,-131.5 83,-131.5 83,-112.5 34,-112.5"/>
<text text-anchor="middle" x="58.5" y="-119.5" font-family="Helvetica,sans-Serif" font-size="10.00" fill="#000000">SDR.H</text>
</a>
</g>
</g>
<!-- Node9&#45;&gt;Node23 -->
<g id="edge23" class="edge">
<title>Node9&#45;&gt;Node23</title>
<path fill="none" stroke="#191970" d="M355.0749,-173.8487C299.9461,-166.9244 188.5897,-151.8009 95.5,-132 91.4647,-131.1417 87.2138,-130.1125 83.0884,-129.0457"/>
<polygon fill="#191970" stroke="#191970" points="354.9735,-177.363 365.3288,-175.1232 355.8369,-170.4164 354.9735,-177.363"/>
</g>
<!-- Node25 -->
<g id="node21" class="node">
<title>Node25</title>
<g id="a_node21"><a xlink:href="temperature_8_h.html" target="_top" xlink:title="temperature.H">
<polygon fill="#ffffff" stroke="#000000" points="105,-112.5 105,-131.5 184,-131.5 184,-112.5 105,-112.5"/>
<text text-anchor="middle" x="144.5" y="-119.5" font-family="Helvetica,sans-Serif" font-size="10.00" fill="#000000">temperature.H</text>
</a>
</g>
</g>
<!-- Node9&#45;&gt;Node25 -->
<g id="edge25" class="edge">
<title>Node9&#45;&gt;Node25</title>
<path fill="none" stroke="#191970" d="M355.2518,-170.1718C310.2886,-159.8945 231.5163,-141.8894 184.0591,-131.0421"/>
<polygon fill="#191970" stroke="#191970" points="354.5843,-173.6095 365.1128,-172.4258 356.1441,-166.7854 354.5843,-173.6095"/>
</g>
<!-- Node27 -->
<g id="node23" class="node">
<title>Node27</title>
<g id="a_node23"><a xlink:href="_t_k_e_8_h.html" target="_top" xlink:title="TKE.H">
<polygon fill="#ffffff" stroke="#000000" points="366,-112.5 366,-131.5 413,-131.5 413,-112.5 366,-112.5"/>
<text text-anchor="middle" x="389.5" y="-119.5" font-family="Helvetica,sans-Serif" font-size="10.00" fill="#000000">TKE.H</text>
</a>
</g>
</g>
<!-- Node9&#45;&gt;Node27 -->
<g id="edge27" class="edge">
<title>Node9&#45;&gt;Node27</title>
<path fill="none" stroke="#191970" d="M389.5,-158.1575C389.5,-149.155 389.5,-138.9199 389.5,-131.6427"/>
<polygon fill="#191970" stroke="#191970" points="386.0001,-158.2455 389.5,-168.2455 393.0001,-158.2456 386.0001,-158.2455"/>
</g>
<!-- Node11 -->
<g id="node7" class="node">
<title>Node11</title>
<g id="a_node7"><a xlink:href="density_8cpp.html" target="_top" xlink:title="density.cpp">
<polygon fill="#ffffff" stroke="#000000" points="191,-.5 191,-19.5 258,-19.5 258,-.5 191,-.5"/>
<text text-anchor="middle" x="224.5" y="-7.5" font-family="Helvetica,sans-Serif" font-size="10.00" fill="#000000">density.cpp</text>
</a>
</g>
</g>
<!-- Node10&#45;&gt;Node11 -->
<g id="edge6" class="edge">
<title>Node10&#45;&gt;Node11</title>
<path fill="none" stroke="#191970" d="M234.5955,-106.2861C224.8842,-98.4665 214.7337,-88.0919 209.5,-76 201.2852,-57.0206 211.4556,-32.9426 218.6143,-19.7472"/>
<polygon fill="#191970" stroke="#191970" points="232.7766,-109.2962 242.882,-112.4791 236.9671,-103.6891 232.7766,-109.2962"/>
</g>
<!-- Node12 -->
<g id="node8" class="node">
<title>Node12</title>
<g id="a_node8"><a xlink:href="density__ops_8_h.html" target="_top" xlink:title="density_ops.H">
<polygon fill="#ffffff" stroke="#000000" points="218.5,-56.5 218.5,-75.5 298.5,-75.5 298.5,-56.5 218.5,-56.5"/>
<text text-anchor="middle" x="258.5" y="-63.5" font-family="Helvetica,sans-Serif" font-size="10.00" fill="#000000">density_ops.H</text>
</a>
</g>
</g>
<!-- Node10&#45;&gt;Node12 -->
<g id="edge7" class="edge">
<title>Node10&#45;&gt;Node12</title>
<path fill="none" stroke="#191970" d="M258.5,-102.1575C258.5,-93.155 258.5,-82.9199 258.5,-75.6427"/>
<polygon fill="#191970" stroke="#191970" points="255.0001,-102.2455 258.5,-112.2455 262.0001,-102.2456 255.0001,-102.2455"/>
</g>
<!-- Node12&#45;&gt;Node11 -->
<g id="edge8" class="edge">
<title>Node12&#45;&gt;Node11</title>
<path fill="none" stroke="#191970" d="M247.3465,-47.6296C241.6753,-38.2887 235.0155,-27.3197 230.3545,-19.6427"/>
<polygon fill="#191970" stroke="#191970" points="244.3961,-49.5141 252.5777,-56.2455 250.3796,-45.8812 244.3961,-49.5141"/>
</g>
<!-- Node14 -->
<g id="node10" class="node">
<title>Node14</title>
<g id="a_node10"><a xlink:href="icns_8cpp.html" target="_top" xlink:title="icns.cpp">
<polygon fill="#ffffff" stroke="#000000" points="871,-.5 871,-19.5 924,-19.5 924,-.5 871,-.5"/>
<text text-anchor="middle" x="897.5" y="-7.5" font-family="Helvetica,sans-Serif" font-size="10.00" fill="#000000">icns.cpp</text>
</a>
</g>
</g>
<!-- Node13&#45;&gt;Node14 -->
<g id="edge10" class="edge">
<title>Node13&#45;&gt;Node14</title>
<path fill="none" stroke="#191970" d="M831.8887,-104.2111C848.6115,-80.1989 877.8134,-38.2679 890.8666,-19.5249"/>
<polygon fill="#191970" stroke="#191970" points="828.9931,-102.2446 826.1502,-112.4509 834.7373,-106.2451 828.9931,-102.2446"/>
</g>
<!-- Node13&#45;&gt;Node15 -->
<g id="edge11" class="edge">
<title>Node13&#45;&gt;Node15</title>
<path fill="none" stroke="#191970" d="M852.075,-113.2718C891.1345,-102.8061 956.2326,-85.3635 995.4861,-74.8458"/>
<polygon fill="#191970" stroke="#191970" points="851.0179,-109.9315 842.2645,-115.9004 852.8297,-116.693 851.0179,-109.9315"/>
</g>
<!-- Node13&#45;&gt;Node17 -->
<g id="edge14" class="edge">
<title>Node13&#45;&gt;Node17</title>
<path fill="none" stroke="#191970" d="M848.3321,-107.8368C868.9395,-97.7139 896.1082,-84.3679 914.1584,-75.5011"/>
<polygon fill="#191970" stroke="#191970" points="846.5297,-104.8227 839.0973,-112.3733 849.616,-111.1056 846.5297,-104.8227"/>
</g>
<!-- Node18 -->
<g id="node14" class="node">
<title>Node18</title>
<g id="a_node14"><a xlink:href="icns__bcop_8_h.html" target="_top" xlink:title="icns_bcop.H">
<polygon fill="#ffffff" stroke="#000000" points="635,-56.5 635,-75.5 706,-75.5 706,-56.5 635,-56.5"/>
<text text-anchor="middle" x="670.5" y="-63.5" font-family="Helvetica,sans-Serif" font-size="10.00" fill="#000000">icns_bcop.H</text>
</a>
</g>
</g>
<!-- Node13&#45;&gt;Node18 -->
<g id="edge16" class="edge">
<title>Node13&#45;&gt;Node18</title>
<path fill="none" stroke="#191970" d="M787.3376,-109.9121C759.9326,-99.6123 721.0864,-85.0123 695.8417,-75.5244"/>
<polygon fill="#191970" stroke="#191970" points="786.278,-113.2529 796.8701,-113.4948 788.7408,-106.7004 786.278,-113.2529"/>
</g>
<!-- Node19 -->
<g id="node15" class="node">
<title>Node19</title>
<g id="a_node15"><a xlink:href="_power_law_profile_8cpp.html" target="_top" xlink:title="PowerLawProfile.cpp">
<polygon fill="#ffffff" stroke="#000000" points="724,-56.5 724,-75.5 833,-75.5 833,-56.5 724,-56.5"/>
<text text-anchor="middle" x="778.5" y="-63.5" font-family="Helvetica,sans-Serif" font-size="10.00" fill="#000000">PowerLawProfile.cpp</text>
</a>
</g>
</g>
<!-- Node13&#45;&gt;Node19 -->
<g id="edge18" class="edge">
<title>Node13&#45;&gt;Node19</title>
<path fill="none" stroke="#191970" d="M806.2636,-103.9209C799.3789,-94.5176 791.2391,-83.3997 785.5598,-75.6427"/>
<polygon fill="#191970" stroke="#191970" points="803.6269,-106.2445 812.3583,-112.2455 809.2749,-102.1093 803.6269,-106.2445"/>
</g>
<!-- Node15&#45;&gt;Node14 -->
<g id="edge12" class="edge">
<title>Node15&#45;&gt;Node14</title>
<path fill="none" stroke="#191970" d="M996.6466,-52.3833C972.8215,-42.1985 940.8432,-28.5284 919.7258,-19.5011"/>
<polygon fill="#191970" stroke="#191970" points="995.4094,-55.6608 1005.9803,-56.3733 998.161,-49.2242 995.4094,-55.6608"/>
</g>
<!-- Node15&#45;&gt;Node16 -->
<g id="edge13" class="edge">
<title>Node15&#45;&gt;Node16</title>
<path fill="none" stroke="#191970" d="M1040.7679,-47.9209C1047.1488,-38.5176 1054.6931,-27.3997 1059.9568,-19.6427"/>
<polygon fill="#191970" stroke="#191970" points="1037.838,-46.0055 1035.1191,-56.2455 1043.6303,-49.936 1037.838,-46.0055"/>
</g>
<!-- Node17&#45;&gt;Node14 -->
<g id="edge15" class="edge">
<title>Node17&#45;&gt;Node14</title>
<path fill="none" stroke="#191970" d="M921.6904,-47.6296C915.6856,-38.2887 908.6341,-27.3197 903.6989,-19.6427"/>
<polygon fill="#191970" stroke="#191970" points="918.8775,-49.7264 927.2293,-56.2455 924.7658,-45.9411 918.8775,-49.7264"/>
</g>
<!-- Node18&#45;&gt;Node14 -->
<g id="edge17" class="edge">
<title>Node18&#45;&gt;Node14</title>
<path fill="none" stroke="#191970" d="M716.0221,-54.7699C762.4207,-43.3235 832.8166,-25.9571 870.8564,-16.5729"/>
<polygon fill="#191970" stroke="#191970" points="715.0891,-51.395 706.2185,-57.1884 716.7657,-58.1913 715.0891,-51.395"/>
</g>
<!-- Node21 -->
<g id="node17" class="node">
<title>Node21</title>
<g id="a_node17"><a xlink:href="levelset_8cpp.html" target="_top" xlink:title="levelset.cpp">
<polygon fill="#ffffff" stroke="#000000" points="506,-.5 506,-19.5 575,-19.5 575,-.5 506,-.5"/>
<text text-anchor="middle" x="540.5" y="-7.5" font-family="Helvetica,sans-Serif" font-size="10.00" fill="#000000">levelset.cpp</text>
</a>
</g>
</g>
<!-- Node20&#45;&gt;Node21 -->
<g id="edge20" class="edge">
<title>Node20&#45;&gt;Node21</title>
<path fill="none" stroke="#191970" d="M511.9796,-102.2906C515.6822,-89.1445 520.7447,-71.4955 525.5,-56 529.3444,-43.4726 534.0735,-29.1315 537.1815,-19.8389"/>
<polygon fill="#191970" stroke="#191970" points="508.5511,-101.5549 509.2259,-112.1282 515.292,-103.4419 508.5511,-101.5549"/>
</g>
<!-- Node22 -->
<g id="node18" class="node">
<title>Node22</title>
<g id="a_node18"><a xlink:href="levelset__ops_8_h.html" target="_top" xlink:title="levelset_ops.H">
<polygon fill="#ffffff" stroke="#000000" points="534.5,-56.5 534.5,-75.5 616.5,-75.5 616.5,-56.5 534.5,-56.5"/>
<text text-anchor="middle" x="575.5" y="-63.5" font-family="Helvetica,sans-Serif" font-size="10.00" fill="#000000">levelset_ops.H</text>
</a>
</g>
</g>
<!-- Node20&#45;&gt;Node22 -->
<g id="edge21" class="edge">
<title>Node20&#45;&gt;Node22</title>
<path fill="none" stroke="#191970" d="M526.303,-105.928C538.3636,-96.1397 553.3714,-83.9595 563.6188,-75.6427"/>
<polygon fill="#191970" stroke="#191970" points="524.0779,-103.2262 518.5189,-112.2455 528.4891,-108.6614 524.0779,-103.2262"/>
</g>
<!-- Node22&#45;&gt;Node21 -->
<g id="edge22" class="edge">
<title>Node22&#45;&gt;Node21</title>
<path fill="none" stroke="#191970" d="M564.0185,-47.6296C558.1804,-38.2887 551.3248,-27.3197 546.5267,-19.6427"/>
<polygon fill="#191970" stroke="#191970" points="561.1354,-49.6206 569.4035,-56.2455 567.0714,-45.9105 561.1354,-49.6206"/>
</g>
<!-- Node24 -->
<g id="node20" class="node">
<title>Node24</title>
<g id="a_node20"><a xlink:href="_s_d_r_8cpp.html" target="_top" xlink:title="SDR.cpp">
<polygon fill="#ffffff" stroke="#000000" points="0,-56.5 0,-75.5 57,-75.5 57,-56.5 0,-56.5"/>
<text text-anchor="middle" x="28.5" y="-63.5" font-family="Helvetica,sans-Serif" font-size="10.00" fill="#000000">SDR.cpp</text>
</a>
</g>
</g>
<!-- Node23&#45;&gt;Node24 -->
<g id="edge24" class="edge">
<title>Node23&#45;&gt;Node24</title>
<path fill="none" stroke="#191970" d="M48.502,-103.3372C43.5324,-94.0605 37.7356,-83.2398 33.6657,-75.6427"/>
<polygon fill="#191970" stroke="#191970" points="45.4669,-105.0835 53.2744,-112.2455 51.6373,-101.7779 45.4669,-105.0835"/>
</g>
<!-- Node26 -->
<g id="node22" class="node">
<title>Node26</title>
<g id="a_node22"><a xlink:href="temperature_8cpp.html" target="_top" xlink:title="temperature.cpp">
<polygon fill="#ffffff" stroke="#000000" points="75,-56.5 75,-75.5 162,-75.5 162,-56.5 75,-56.5"/>
<text text-anchor="middle" x="118.5" y="-63.5" font-family="Helvetica,sans-Serif" font-size="10.00" fill="#000000">temperature.cpp</text>
</a>
</g>
</g>
<!-- Node25&#45;&gt;Node26 -->
<g id="edge26" class="edge">
<title>Node25&#45;&gt;Node26</title>
<path fill="none" stroke="#191970" d="M135.6989,-103.0437C131.4225,-93.8331 126.467,-83.1598 122.977,-75.6427"/>
<polygon fill="#191970" stroke="#191970" points="132.5854,-104.6494 139.9711,-112.2455 138.9345,-101.7015 132.5854,-104.6494"/>
</g>
<!-- Node28 -->
<g id="node24" class="node">
<title>Node28</title>
<g id="a_node24"><a xlink:href="_t_k_e_8cpp.html" target="_top" xlink:title="TKE.cpp">
<polygon fill="#ffffff" stroke="#000000" points="317,-56.5 317,-75.5 372,-75.5 372,-56.5 317,-56.5"/>
<text text-anchor="middle" x="344.5" y="-63.5" font-family="Helvetica,sans-Serif" font-size="10.00" fill="#000000">TKE.cpp</text>
</a>
</g>
</g>
<!-- Node27&#45;&gt;Node28 -->
<g id="edge28" class="edge">
<title>Node27&#45;&gt;Node28</title>
<path fill="none" stroke="#191970" d="M375.2054,-104.2112C367.6004,-94.7472 358.5462,-83.4797 352.2486,-75.6427"/>
<polygon fill="#191970" stroke="#191970" points="372.6694,-106.6428 381.6616,-112.2455 378.1259,-102.2581 372.6694,-106.6428"/>
</g>
<!-- Node29 -->
<g id="node25" class="node">
<title>Node29</title>
<g id="a_node25"><a xlink:href="_one_eq_ksgs_8cpp.html" target="_top" xlink:title="OneEqKsgs.cpp">
<polygon fill="#ffffff" stroke="#000000" points="390.5,-56.5 390.5,-75.5 478.5,-75.5 478.5,-56.5 390.5,-56.5"/>
<text text-anchor="middle" x="434.5" y="-63.5" font-family="Helvetica,sans-Serif" font-size="10.00" fill="#000000">OneEqKsgs.cpp</text>
</a>
</g>
</g>
<!-- Node27&#45;&gt;Node29 -->
<g id="edge29" class="edge">
<title>Node27&#45;&gt;Node29</title>
<path fill="none" stroke="#191970" d="M403.7946,-104.2112C411.3996,-94.7472 420.4538,-83.4797 426.7514,-75.6427"/>
<polygon fill="#191970" stroke="#191970" points="400.8741,-102.2581 397.3384,-112.2455 406.3306,-106.6428 400.8741,-102.2581"/>
</g>
</g>
</svg>
