<?xml version="1.0" encoding="UTF-8" standalone="no"?>
<!DOCTYPE svg PUBLIC "-//W3C//DTD SVG 1.1//EN"
 "http://www.w3.org/Graphics/SVG/1.1/DTD/svg11.dtd">
<!-- Generated by graphviz version 2.40.1 (20161225.0304)
 -->
<!-- Title: MomentumSource.H Pages: 1 -->
<svg width="1451pt" height="196pt"
 viewBox="0.00 0.00 1450.77 196.00" xmlns="http://www.w3.org/2000/svg" xmlns:xlink="http://www.w3.org/1999/xlink">
<g id="graph0" class="graph" transform="scale(1 1) rotate(0) translate(4 192)">
<title>MomentumSource.H</title>
<polygon fill="#ffffff" stroke="transparent" points="-4,4 -4,-192 1446.7704,-192 1446.7704,4 -4,4"/>
<!-- Node24 -->
<g id="node1" class="node">
<title>Node24</title>
<polygon fill="#bfbfbf" stroke="#000000" points="825.7704,-168.5 825.7704,-187.5 932.7704,-187.5 932.7704,-168.5 825.7704,-168.5"/>
<text text-anchor="middle" x="879.2704" y="-175.5" font-family="Helvetica,sans-Serif" font-size="10.00" fill="#000000">MomentumSource.H</text>
</g>
<!-- Node25 -->
<g id="node2" class="node">
<title>Node25</title>
<g id="a_node2"><a xlink:href="icns_8_h.html" target="_top" xlink:title="icns.H">
<polygon fill="#ffffff" stroke="#000000" points="132.7704,-112.5 132.7704,-131.5 177.7704,-131.5 177.7704,-112.5 132.7704,-112.5"/>
<text text-anchor="middle" x="155.2704" y="-119.5" font-family="Helvetica,sans-Serif" font-size="10.00" fill="#000000">icns.H</text>
</a>
</g>
</g>
<!-- Node24&#45;&gt;Node25 -->
<g id="edge1" class="edge">
<title>Node24&#45;&gt;Node25</title>
<path fill="none" stroke="#191970" d="M815.5048,-173.0679C661.6052,-161.164 275.3324,-131.2866 177.8742,-123.7484"/>
<polygon fill="#191970" stroke="#191970" points="815.4987,-176.5778 825.7389,-173.8594 816.0386,-169.5986 815.4987,-176.5778"/>
</g>
<!-- Node31 -->
<g id="node8" class="node">
<title>Node31</title>
<g id="a_node8"><a xlink:href="_a_b_l_forcing_8_h.html" target="_top" xlink:title="ABLForcing.H">
<polygon fill="#ffffff" stroke="#000000" points="435.2704,-112.5 435.2704,-131.5 513.2704,-131.5 513.2704,-112.5 435.2704,-112.5"/>
<text text-anchor="middle" x="474.2704" y="-119.5" font-family="Helvetica,sans-Serif" font-size="10.00" fill="#000000">ABLForcing.H</text>
</a>
</g>
</g>
<!-- Node24&#45;&gt;Node31 -->
<g id="edge10" class="edge">
<title>Node24&#45;&gt;Node31</title>
<path fill="none" stroke="#191970" d="M815.4657,-169.1776C730.6534,-157.4505 583.3635,-137.0845 513.3714,-127.4066"/>
<polygon fill="#191970" stroke="#191970" points="815.1043,-172.6609 825.4895,-170.5636 816.0632,-165.7268 815.1043,-172.6609"/>
</g>
<!-- Node35 -->
<g id="node12" class="node">
<title>Node35</title>
<g id="a_node12"><a xlink:href="_a_b_l_mean_boussinesq_8_h.html" target="_top" xlink:title="ABLMeanBoussinesq.H">
<polygon fill="#ffffff" stroke="#000000" points="569.7704,-112.5 569.7704,-131.5 690.7704,-131.5 690.7704,-112.5 569.7704,-112.5"/>
<text text-anchor="middle" x="630.2704" y="-119.5" font-family="Helvetica,sans-Serif" font-size="10.00" fill="#000000">ABLMeanBoussinesq.H</text>
</a>
</g>
</g>
<!-- Node24&#45;&gt;Node35 -->
<g id="edge14" class="edge">
<title>Node24&#45;&gt;Node35</title>
<path fill="none" stroke="#191970" d="M826.9914,-166.2425C781.1207,-155.9262 715.2571,-141.1135 672.6167,-131.5237"/>
<polygon fill="#191970" stroke="#191970" points="826.2244,-169.6573 836.7487,-168.4369 827.7604,-162.8279 826.2244,-169.6573"/>
</g>
<!-- Node37 -->
<g id="node14" class="node">
<title>Node37</title>
<g id="a_node14"><a xlink:href="_body_force_8_h.html" target="_top" xlink:title="BodyForce.H">
<polygon fill="#ffffff" stroke="#000000" points="721.2704,-112.5 721.2704,-131.5 795.2704,-131.5 795.2704,-112.5 721.2704,-112.5"/>
<text text-anchor="middle" x="758.2704" y="-119.5" font-family="Helvetica,sans-Serif" font-size="10.00" fill="#000000">BodyForce.H</text>
</a>
</g>
</g>
<!-- Node24&#45;&gt;Node37 -->
<g id="edge17" class="edge">
<title>Node24&#45;&gt;Node37</title>
<path fill="none" stroke="#191970" d="M849.2599,-164.1109C827.3178,-153.9559 798.1316,-140.4482 778.7996,-131.5011"/>
<polygon fill="#191970" stroke="#191970" points="847.9245,-167.3494 858.4697,-168.3733 850.8646,-160.9968 847.9245,-167.3494"/>
</g>
<!-- Node39 -->
<g id="node16" class="node">
<title>Node39</title>
<g id="a_node16"><a xlink:href="_boussinesq_buoyancy_8_h.html" target="_top" xlink:title="BoussinesqBuoyancy.H">
<polygon fill="#ffffff" stroke="#000000" points="818.2704,-112.5 818.2704,-131.5 940.2704,-131.5 940.2704,-112.5 818.2704,-112.5"/>
<text text-anchor="middle" x="879.2704" y="-119.5" font-family="Helvetica,sans-Serif" font-size="10.00" fill="#000000">BoussinesqBuoyancy.H</text>
</a>
</g>
</g>
<!-- Node24&#45;&gt;Node39 -->
<g id="edge19" class="edge">
<title>Node24&#45;&gt;Node39</title>
<path fill="none" stroke="#191970" d="M879.2704,-158.1575C879.2704,-149.155 879.2704,-138.9199 879.2704,-131.6427"/>
<polygon fill="#191970" stroke="#191970" points="875.7705,-158.2455 879.2704,-168.2455 882.7705,-158.2456 875.7705,-158.2455"/>
</g>
<!-- Node41 -->
<g id="node18" class="node">
<title>Node41</title>
<g id="a_node18"><a xlink:href="_coriolis_forcing_8_h.html" target="_top" xlink:title="CoriolisForcing.H">
<polygon fill="#ffffff" stroke="#000000" points="962.2704,-112.5 962.2704,-131.5 1054.2704,-131.5 1054.2704,-112.5 962.2704,-112.5"/>
<text text-anchor="middle" x="1008.2704" y="-119.5" font-family="Helvetica,sans-Serif" font-size="10.00" fill="#000000">CoriolisForcing.H</text>
</a>
</g>
</g>
<!-- Node24&#45;&gt;Node41 -->
<g id="edge21" class="edge">
<title>Node24&#45;&gt;Node41</title>
<path fill="none" stroke="#191970" d="M910.6374,-164.3833C934.0988,-154.1985 965.5889,-140.5284 986.3839,-131.5011"/>
<polygon fill="#191970" stroke="#191970" points="909.2255,-161.1806 901.4463,-168.3733 912.013,-167.6017 909.2255,-161.1806"/>
</g>
<!-- Node43 -->
<g id="node20" class="node">
<title>Node43</title>
<g id="a_node20"><a xlink:href="_density_buoyancy_8_h.html" target="_top" xlink:title="DensityBuoyancy.H">
<polygon fill="#ffffff" stroke="#000000" points="1079.2704,-112.5 1079.2704,-131.5 1183.2704,-131.5 1183.2704,-112.5 1079.2704,-112.5"/>
<text text-anchor="middle" x="1131.2704" y="-119.5" font-family="Helvetica,sans-Serif" font-size="10.00" fill="#000000">DensityBuoyancy.H</text>
</a>
</g>
</g>
<!-- Node24&#45;&gt;Node43 -->
<g id="edge23" class="edge">
<title>Node24&#45;&gt;Node43</title>
<path fill="none" stroke="#191970" d="M932.1792,-166.2425C978.6025,-155.9262 1045.2597,-141.1135 1088.4139,-131.5237"/>
<polygon fill="#191970" stroke="#191970" points="931.307,-162.8508 922.3044,-168.4369 932.8255,-169.6842 931.307,-162.8508"/>
</g>
<!-- Node45 -->
<g id="node22" class="node">
<title>Node45</title>
<g id="a_node22"><a xlink:href="_geostrophic_forcing_8_h.html" target="_top" xlink:title="GeostrophicForcing.H">
<polygon fill="#ffffff" stroke="#000000" points="1209.2704,-112.5 1209.2704,-131.5 1321.2704,-131.5 1321.2704,-112.5 1209.2704,-112.5"/>
<text text-anchor="middle" x="1265.2704" y="-119.5" font-family="Helvetica,sans-Serif" font-size="10.00" fill="#000000">GeostrophicForcing.H</text>
</a>
</g>
</g>
<!-- Node24&#45;&gt;Node45 -->
<g id="edge25" class="edge">
<title>Node24&#45;&gt;Node45</title>
<path fill="none" stroke="#191970" d="M943.0877,-168.7415C1017.2762,-157.9784 1138.5492,-140.3844 1209.2394,-130.1288"/>
<polygon fill="#191970" stroke="#191970" points="942.3359,-165.3139 932.942,-170.2134 943.341,-172.2413 942.3359,-165.3139"/>
</g>
<!-- Node47 -->
<g id="node24" class="node">
<title>Node47</title>
<g id="a_node24"><a xlink:href="_m_m_s_forcing_8_h.html" target="_top" xlink:title="MMSForcing.H">
<polygon fill="#ffffff" stroke="#000000" points="1347.7704,-112.5 1347.7704,-131.5 1430.7704,-131.5 1430.7704,-112.5 1347.7704,-112.5"/>
<text text-anchor="middle" x="1389.2704" y="-119.5" font-family="Helvetica,sans-Serif" font-size="10.00" fill="#000000">MMSForcing.H</text>
</a>
</g>
</g>
<!-- Node24&#45;&gt;Node47 -->
<g id="edge27" class="edge">
<title>Node24&#45;&gt;Node47</title>
<path fill="none" stroke="#191970" d="M942.8963,-172.8482C1030.3726,-165.4604 1192.6072,-150.666 1330.2704,-132 1335.9326,-131.2322 1341.8851,-130.3328 1347.7419,-129.3937"/>
<polygon fill="#191970" stroke="#191970" points="942.5355,-169.366 932.8634,-173.6906 943.1213,-176.3415 942.5355,-169.366"/>
</g>
<!-- Node26 -->
<g id="node3" class="node">
<title>Node26</title>
<g id="a_node3"><a xlink:href="icns_8cpp.html" target="_top" xlink:title="icns.cpp">
<polygon fill="#ffffff" stroke="#000000" points="80.7704,-.5 80.7704,-19.5 133.7704,-19.5 133.7704,-.5 80.7704,-.5"/>
<text text-anchor="middle" x="107.2704" y="-7.5" font-family="Helvetica,sans-Serif" font-size="10.00" fill="#000000">icns.cpp</text>
</a>
</g>
</g>
<!-- Node25&#45;&gt;Node26 -->
<g id="edge2" class="edge">
<title>Node25&#45;&gt;Node26</title>
<path fill="none" stroke="#191970" d="M122.6344,-116.6086C82.8822,-109.2988 19.2802,-94.9501 5.2704,-76 -17.4876,-45.2168 43.2957,-24.9077 80.6009,-15.6943"/>
<polygon fill="#191970" stroke="#191970" points="122.2084,-120.0878 132.6676,-118.3979 123.4374,-113.1965 122.2084,-120.0878"/>
</g>
<!-- Node27 -->
<g id="node4" class="node">
<title>Node27</title>
<g id="a_node4"><a xlink:href="icns__ops_8_h.html" target="_top" xlink:title="icns_ops.H">
<polygon fill="#ffffff" stroke="#000000" points="209.2704,-56.5 209.2704,-75.5 275.2704,-75.5 275.2704,-56.5 209.2704,-56.5"/>
<text text-anchor="middle" x="242.2704" y="-63.5" font-family="Helvetica,sans-Serif" font-size="10.00" fill="#000000">icns_ops.H</text>
</a>
</g>
</g>
<!-- Node25&#45;&gt;Node27 -->
<g id="edge3" class="edge">
<title>Node25&#45;&gt;Node27</title>
<path fill="none" stroke="#191970" d="M178.9328,-106.769C194.3495,-96.8456 213.9963,-84.1994 227.2898,-75.6427"/>
<polygon fill="#191970" stroke="#191970" points="176.9389,-103.89 170.4246,-112.2455 180.7276,-109.7761 176.9389,-103.89"/>
</g>
<!-- Node29 -->
<g id="node6" class="node">
<title>Node29</title>
<g id="a_node6"><a xlink:href="icns__diffusion_8_h.html" target="_top" xlink:title="icns_diffusion.H">
<polygon fill="#ffffff" stroke="#000000" points="14.7704,-56.5 14.7704,-75.5 101.7704,-75.5 101.7704,-56.5 14.7704,-56.5"/>
<text text-anchor="middle" x="58.2704" y="-63.5" font-family="Helvetica,sans-Serif" font-size="10.00" fill="#000000">icns_diffusion.H</text>
</a>
</g>
</g>
<!-- Node25&#45;&gt;Node29 -->
<g id="edge6" class="edge">
<title>Node25&#45;&gt;Node29</title>
<path fill="none" stroke="#191970" d="M129.3687,-107.0465C112.1095,-97.0824 89.9328,-84.2794 74.9729,-75.6427"/>
<polygon fill="#191970" stroke="#191970" points="127.9639,-110.2768 138.3743,-112.2455 131.4638,-104.2146 127.9639,-110.2768"/>
</g>
<!-- Node30 -->
<g id="node7" class="node">
<title>Node30</title>
<g id="a_node7"><a xlink:href="icns__bcop_8_h.html" target="_top" xlink:title="icns_bcop.H">
<polygon fill="#ffffff" stroke="#000000" points="119.7704,-56.5 119.7704,-75.5 190.7704,-75.5 190.7704,-56.5 119.7704,-56.5"/>
<text text-anchor="middle" x="155.2704" y="-63.5" font-family="Helvetica,sans-Serif" font-size="10.00" fill="#000000">icns_bcop.H</text>
</a>
</g>
</g>
<!-- Node25&#45;&gt;Node30 -->
<g id="edge8" class="edge">
<title>Node25&#45;&gt;Node30</title>
<path fill="none" stroke="#191970" d="M155.2704,-102.1575C155.2704,-93.155 155.2704,-82.9199 155.2704,-75.6427"/>
<polygon fill="#191970" stroke="#191970" points="151.7705,-102.2455 155.2704,-112.2455 158.7705,-102.2456 151.7705,-102.2455"/>
</g>
<!-- Node27&#45;&gt;Node26 -->
<g id="edge4" class="edge">
<title>Node27&#45;&gt;Node26</title>
<path fill="none" stroke="#191970" d="M209.7712,-52.5189C185.1849,-42.3201 152.0338,-28.5685 130.1749,-19.5011"/>
<polygon fill="#191970" stroke="#191970" points="208.4851,-55.7745 219.063,-56.3733 211.1673,-49.3087 208.4851,-55.7745"/>
</g>
<!-- Node28 -->
<g id="node5" class="node">
<title>Node28</title>
<g id="a_node5"><a xlink:href="icns__ops_8cpp.html" target="_top" xlink:title="icns_ops.cpp">
<polygon fill="#ffffff" stroke="#000000" points="205.2704,-.5 205.2704,-19.5 279.2704,-19.5 279.2704,-.5 205.2704,-.5"/>
<text text-anchor="middle" x="242.2704" y="-7.5" font-family="Helvetica,sans-Serif" font-size="10.00" fill="#000000">icns_ops.cpp</text>
</a>
</g>
</g>
<!-- Node27&#45;&gt;Node28 -->
<g id="edge5" class="edge">
<title>Node27&#45;&gt;Node28</title>
<path fill="none" stroke="#191970" d="M242.2704,-46.1575C242.2704,-37.155 242.2704,-26.9199 242.2704,-19.6427"/>
<polygon fill="#191970" stroke="#191970" points="238.7705,-46.2455 242.2704,-56.2455 245.7705,-46.2456 238.7705,-46.2455"/>
</g>
<!-- Node29&#45;&gt;Node26 -->
<g id="edge7" class="edge">
<title>Node29&#45;&gt;Node26</title>
<path fill="none" stroke="#191970" d="M73.5825,-48.5004C81.9151,-38.9775 91.9057,-27.5596 98.833,-19.6427"/>
<polygon fill="#191970" stroke="#191970" points="70.7566,-46.415 66.8055,-56.2455 76.0246,-51.0245 70.7566,-46.415"/>
</g>
<!-- Node30&#45;&gt;Node26 -->
<g id="edge9" class="edge">
<title>Node30&#45;&gt;Node26</title>
<path fill="none" stroke="#191970" d="M140.2707,-48.5004C132.1082,-38.9775 122.3215,-27.5596 115.5355,-19.6427"/>
<polygon fill="#191970" stroke="#191970" points="137.7441,-50.9307 146.9094,-56.2455 143.0589,-46.3752 137.7441,-50.9307"/>
</g>
<!-- Node32 -->
<g id="node9" class="node">
<title>Node32</title>
<g id="a_node9"><a xlink:href="_a_b_l_forcing_8cpp.html" target="_top" xlink:title="ABLForcing.cpp">
<polygon fill="#ffffff" stroke="#000000" points="293.2704,-56.5 293.2704,-75.5 379.2704,-75.5 379.2704,-56.5 293.2704,-56.5"/>
<text text-anchor="middle" x="336.2704" y="-63.5" font-family="Helvetica,sans-Serif" font-size="10.00" fill="#000000">ABLForcing.cpp</text>
</a>
</g>
</g>
<!-- Node31&#45;&gt;Node32 -->
<g id="edge11" class="edge">
<title>Node31&#45;&gt;Node32</title>
<path fill="none" stroke="#191970" d="M441.049,-108.5189C415.9164,-98.3201 382.0285,-84.5685 359.6839,-75.5011"/>
<polygon fill="#191970" stroke="#191970" points="439.9651,-111.8562 450.5473,-112.3733 442.5973,-105.3699 439.9651,-111.8562"/>
</g>
<!-- Node33 -->
<g id="node10" class="node">
<title>Node33</title>
<g id="a_node10"><a xlink:href="_a_b_l_8cpp.html" target="_top" xlink:title="ABL.cpp">
<polygon fill="#ffffff" stroke="#000000" points="493.2704,-56.5 493.2704,-75.5 547.2704,-75.5 547.2704,-56.5 493.2704,-56.5"/>
<text text-anchor="middle" x="520.2704" y="-63.5" font-family="Helvetica,sans-Serif" font-size="10.00" fill="#000000">ABL.cpp</text>
</a>
</g>
</g>
<!-- Node31&#45;&gt;Node33 -->
<g id="edge12" class="edge">
<title>Node31&#45;&gt;Node33</title>
<path fill="none" stroke="#191970" d="M488.6451,-104.5004C496.4674,-94.9775 505.8464,-83.5596 512.3496,-75.6427"/>
<polygon fill="#191970" stroke="#191970" points="485.9258,-102.2967 482.283,-112.2455 491.3349,-106.7399 485.9258,-102.2967"/>
</g>
<!-- Node34 -->
<g id="node11" class="node">
<title>Node34</title>
<g id="a_node11"><a xlink:href="_a_b_l_stats_8cpp.html" target="_top" xlink:title="ABLStats.cpp">
<polygon fill="#ffffff" stroke="#000000" points="397.7704,-56.5 397.7704,-75.5 474.7704,-75.5 474.7704,-56.5 397.7704,-56.5"/>
<text text-anchor="middle" x="436.2704" y="-63.5" font-family="Helvetica,sans-Serif" font-size="10.00" fill="#000000">ABLStats.cpp</text>
</a>
</g>
</g>
<!-- Node31&#45;&gt;Node34 -->
<g id="edge13" class="edge">
<title>Node31&#45;&gt;Node34</title>
<path fill="none" stroke="#191970" d="M462.0024,-103.9209C455.6216,-94.5176 448.0773,-83.3997 442.8136,-75.6427"/>
<polygon fill="#191970" stroke="#191970" points="459.14,-105.936 467.6513,-112.2455 464.9324,-102.0055 459.14,-105.936"/>
</g>
<!-- Node35&#45;&gt;Node33 -->
<g id="edge16" class="edge">
<title>Node35&#45;&gt;Node33</title>
<path fill="none" stroke="#191970" d="M601.9789,-107.5971C582.2593,-97.558 556.4904,-84.4393 539.2113,-75.6427"/>
<polygon fill="#191970" stroke="#191970" points="600.6103,-110.8277 611.1098,-112.2455 603.7861,-104.5896 600.6103,-110.8277"/>
</g>
<!-- Node36 -->
<g id="node13" class="node">
<title>Node36</title>
<g id="a_node13"><a xlink:href="_a_b_l_mean_boussinesq_8cpp.html" target="_top" xlink:title="ABLMeanBoussinesq.cpp">
<polygon fill="#ffffff" stroke="#000000" points="565.7704,-56.5 565.7704,-75.5 694.7704,-75.5 694.7704,-56.5 565.7704,-56.5"/>
<text text-anchor="middle" x="630.2704" y="-63.5" font-family="Helvetica,sans-Serif" font-size="10.00" fill="#000000">ABLMeanBoussinesq.cpp</text>
</a>
</g>
</g>
<!-- Node35&#45;&gt;Node36 -->
<g id="edge15" class="edge">
<title>Node35&#45;&gt;Node36</title>
<path fill="none" stroke="#191970" d="M630.2704,-102.1575C630.2704,-93.155 630.2704,-82.9199 630.2704,-75.6427"/>
<polygon fill="#191970" stroke="#191970" points="626.7705,-102.2455 630.2704,-112.2455 633.7705,-102.2456 626.7705,-102.2455"/>
</g>
<!-- Node38 -->
<g id="node15" class="node">
<title>Node38</title>
<g id="a_node15"><a xlink:href="_body_force_8cpp.html" target="_top" xlink:title="BodyForce.cpp">
<polygon fill="#ffffff" stroke="#000000" points="712.7704,-56.5 712.7704,-75.5 795.7704,-75.5 795.7704,-56.5 712.7704,-56.5"/>
<text text-anchor="middle" x="754.2704" y="-63.5" font-family="Helvetica,sans-Serif" font-size="10.00" fill="#000000">BodyForce.cpp</text>
</a>
</g>
</g>
<!-- Node37&#45;&gt;Node38 -->
<g id="edge18" class="edge">
<title>Node37&#45;&gt;Node38</title>
<path fill="none" stroke="#191970" d="M756.853,-102.1575C756.21,-93.155 755.4789,-82.9199 754.9591,-75.6427"/>
<polygon fill="#191970" stroke="#191970" points="753.37,-102.5204 757.5736,-112.2455 760.3522,-102.0216 753.37,-102.5204"/>
</g>
<!-- Node40 -->
<g id="node17" class="node">
<title>Node40</title>
<g id="a_node17"><a xlink:href="_boussinesq_buoyancy_8cpp.html" target="_top" xlink:title="BoussinesqBuoyancy.cpp">
<polygon fill="#ffffff" stroke="#000000" points="814.2704,-56.5 814.2704,-75.5 944.2704,-75.5 944.2704,-56.5 814.2704,-56.5"/>
<text text-anchor="middle" x="879.2704" y="-63.5" font-family="Helvetica,sans-Serif" font-size="10.00" fill="#000000">BoussinesqBuoyancy.cpp</text>
</a>
</g>
</g>
<!-- Node39&#45;&gt;Node40 -->
<g id="edge20" class="edge">
<title>Node39&#45;&gt;Node40</title>
<path fill="none" stroke="#191970" d="M879.2704,-102.1575C879.2704,-93.155 879.2704,-82.9199 879.2704,-75.6427"/>
<polygon fill="#191970" stroke="#191970" points="875.7705,-102.2455 879.2704,-112.2455 882.7705,-102.2456 875.7705,-102.2455"/>
</g>
<!-- Node42 -->
<g id="node19" class="node">
<title>Node42</title>
<g id="a_node19"><a xlink:href="_coriolis_forcing_8cpp.html" target="_top" xlink:title="CoriolisForcing.cpp">
<polygon fill="#ffffff" stroke="#000000" points="962.7704,-56.5 962.7704,-75.5 1063.7704,-75.5 1063.7704,-56.5 962.7704,-56.5"/>
<text text-anchor="middle" x="1013.2704" y="-63.5" font-family="Helvetica,sans-Serif" font-size="10.00" fill="#000000">CoriolisForcing.cpp</text>
</a>
</g>
</g>
<!-- Node41&#45;&gt;Node42 -->
<g id="edge22" class="edge">
<title>Node41&#45;&gt;Node42</title>
<path fill="none" stroke="#191970" d="M1010.042,-102.1575C1010.8458,-93.155 1011.7597,-82.9199 1012.4094,-75.6427"/>
<polygon fill="#191970" stroke="#191970" points="1006.5446,-101.9739 1009.1413,-112.2455 1013.5168,-102.5965 1006.5446,-101.9739"/>
</g>
<!-- Node44 -->
<g id="node21" class="node">
<title>Node44</title>
<g id="a_node21"><a xlink:href="_density_buoyancy_8cpp.html" target="_top" xlink:title="DensityBuoyancy.cpp">
<polygon fill="#ffffff" stroke="#000000" points="1081.7704,-56.5 1081.7704,-75.5 1194.7704,-75.5 1194.7704,-56.5 1081.7704,-56.5"/>
<text text-anchor="middle" x="1138.2704" y="-63.5" font-family="Helvetica,sans-Serif" font-size="10.00" fill="#000000">DensityBuoyancy.cpp</text>
</a>
</g>
</g>
<!-- Node43&#45;&gt;Node44 -->
<g id="edge24" class="edge">
<title>Node43&#45;&gt;Node44</title>
<path fill="none" stroke="#191970" d="M1133.7507,-102.1575C1134.876,-93.155 1136.1554,-82.9199 1137.065,-75.6427"/>
<polygon fill="#191970" stroke="#191970" points="1130.2571,-101.8886 1132.4897,-112.2455 1137.2031,-102.7569 1130.2571,-101.8886"/>
</g>
<!-- Node46 -->
<g id="node23" class="node">
<title>Node46</title>
<g id="a_node23"><a xlink:href="_geostrophic_forcing_8cpp.html" target="_top" xlink:title="GeostrophicForcing.cpp">
<polygon fill="#ffffff" stroke="#000000" points="1213.2704,-56.5 1213.2704,-75.5 1333.2704,-75.5 1333.2704,-56.5 1213.2704,-56.5"/>
<text text-anchor="middle" x="1273.2704" y="-63.5" font-family="Helvetica,sans-Serif" font-size="10.00" fill="#000000">GeostrophicForcing.cpp</text>
</a>
</g>
</g>
<!-- Node45&#45;&gt;Node46 -->
<g id="edge26" class="edge">
<title>Node45&#45;&gt;Node46</title>
<path fill="none" stroke="#191970" d="M1268.105,-102.1575C1269.3911,-93.155 1270.8532,-82.9199 1271.8928,-75.6427"/>
<polygon fill="#191970" stroke="#191970" points="1264.6133,-101.851 1266.6639,-112.2455 1271.543,-102.8411 1264.6133,-101.851"/>
</g>
<!-- Node48 -->
<g id="node25" class="node">
<title>Node48</title>
<g id="a_node25"><a xlink:href="_m_m_s_forcing_8cpp.html" target="_top" xlink:title="MMSForcing.cpp">
<polygon fill="#ffffff" stroke="#000000" points="1351.7704,-56.5 1351.7704,-75.5 1442.7704,-75.5 1442.7704,-56.5 1351.7704,-56.5"/>
<text text-anchor="middle" x="1397.2704" y="-63.5" font-family="Helvetica,sans-Serif" font-size="10.00" fill="#000000">MMSForcing.cpp</text>
</a>
</g>
</g>
<!-- Node47&#45;&gt;Node48 -->
<g id="edge28" class="edge">
<title>Node47&#45;&gt;Node48</title>
<path fill="none" stroke="#191970" d="M1392.105,-102.1575C1393.3911,-93.155 1394.8532,-82.9199 1395.8928,-75.6427"/>
<polygon fill="#191970" stroke="#191970" points="1388.6133,-101.851 1390.6639,-112.2455 1395.543,-102.8411 1388.6133,-101.851"/>
</g>
</g>
</svg>
