<?xml version="1.0" encoding="UTF-8" standalone="no"?>
<!DOCTYPE svg PUBLIC "-//W3C//DTD SVG 1.1//EN"
 "http://www.w3.org/Graphics/SVG/1.1/DTD/svg11.dtd">
<!-- Generated by graphviz version 2.40.1 (20161225.0304)
 -->
<!-- Title: MomentumSource.H Pages: 1 -->
<svg width="1579pt" height="196pt"
 viewBox="0.00 0.00 1579.16 196.00" xmlns="http://www.w3.org/2000/svg" xmlns:xlink="http://www.w3.org/1999/xlink">
<g id="graph0" class="graph" transform="scale(1 1) rotate(0) translate(4 192)">
<title>MomentumSource.H</title>
<polygon fill="#ffffff" stroke="transparent" points="-4,4 -4,-192 1575.159,-192 1575.159,4 -4,4"/>
<!-- Node24 -->
<g id="node1" class="node">
<title>Node24</title>
<polygon fill="#bfbfbf" stroke="#000000" points="954.159,-168.5 954.159,-187.5 1061.159,-187.5 1061.159,-168.5 954.159,-168.5"/>
<text text-anchor="middle" x="1007.659" y="-175.5" font-family="Helvetica,sans-Serif" font-size="10.00" fill="#000000">MomentumSource.H</text>
</g>
<!-- Node25 -->
<g id="node2" class="node">
<title>Node25</title>
<g id="a_node2"><a xlink:href="icns_8_h.html" target="_top" xlink:title="icns.H">
<polygon fill="#ffffff" stroke="#000000" points="177.159,-112.5 177.159,-131.5 222.159,-131.5 222.159,-112.5 177.159,-112.5"/>
<text text-anchor="middle" x="199.659" y="-119.5" font-family="Helvetica,sans-Serif" font-size="10.00" fill="#000000">icns.H</text>
</a>
</g>
</g>
<!-- Node24&#45;&gt;Node25 -->
<g id="edge1" class="edge">
<title>Node24&#45;&gt;Node25</title>
<path fill="none" stroke="#191970" d="M943.8587,-173.5782C776.1641,-161.9558 328.6007,-130.9366 222.4615,-123.5804"/>
<polygon fill="#191970" stroke="#191970" points="943.8,-177.0824 954.0181,-174.2823 944.284,-170.0992 943.8,-177.0824"/>
</g>
<!-- Node32 -->
<g id="node9" class="node">
<title>Node32</title>
<g id="a_node9"><a xlink:href="_a_b_l_forcing_8_h.html" target="_top" xlink:title="ABLForcing.H">
<polygon fill="#ffffff" stroke="#000000" points="563.659,-112.5 563.659,-131.5 641.659,-131.5 641.659,-112.5 563.659,-112.5"/>
<text text-anchor="middle" x="602.659" y="-119.5" font-family="Helvetica,sans-Serif" font-size="10.00" fill="#000000">ABLForcing.H</text>
</a>
</g>
</g>
<!-- Node24&#45;&gt;Node32 -->
<g id="edge11" class="edge">
<title>Node24&#45;&gt;Node32</title>
<path fill="none" stroke="#191970" d="M943.8542,-169.1776C859.042,-157.4505 711.7521,-137.0845 641.76,-127.4066"/>
<polygon fill="#191970" stroke="#191970" points="943.4929,-172.6609 953.8781,-170.5636 944.4517,-165.7268 943.4929,-172.6609"/>
</g>
<!-- Node36 -->
<g id="node13" class="node">
<title>Node36</title>
<g id="a_node13"><a xlink:href="_a_b_l_mean_boussinesq_8_h.html" target="_top" xlink:title="ABLMeanBoussinesq.H">
<polygon fill="#ffffff" stroke="#000000" points="698.159,-112.5 698.159,-131.5 819.159,-131.5 819.159,-112.5 698.159,-112.5"/>
<text text-anchor="middle" x="758.659" y="-119.5" font-family="Helvetica,sans-Serif" font-size="10.00" fill="#000000">ABLMeanBoussinesq.H</text>
</a>
</g>
</g>
<!-- Node24&#45;&gt;Node36 -->
<g id="edge15" class="edge">
<title>Node24&#45;&gt;Node36</title>
<path fill="none" stroke="#191970" d="M955.3799,-166.2425C909.5093,-155.9262 843.6457,-141.1135 801.0053,-131.5237"/>
<polygon fill="#191970" stroke="#191970" points="954.6129,-169.6573 965.1372,-168.4369 956.1489,-162.8279 954.6129,-169.6573"/>
</g>
<!-- Node38 -->
<g id="node15" class="node">
<title>Node38</title>
<g id="a_node15"><a xlink:href="_body_force_8_h.html" target="_top" xlink:title="BodyForce.H">
<polygon fill="#ffffff" stroke="#000000" points="849.659,-112.5 849.659,-131.5 923.659,-131.5 923.659,-112.5 849.659,-112.5"/>
<text text-anchor="middle" x="886.659" y="-119.5" font-family="Helvetica,sans-Serif" font-size="10.00" fill="#000000">BodyForce.H</text>
</a>
</g>
</g>
<!-- Node24&#45;&gt;Node38 -->
<g id="edge18" class="edge">
<title>Node24&#45;&gt;Node38</title>
<path fill="none" stroke="#191970" d="M977.6485,-164.1109C955.7064,-153.9559 926.5202,-140.4482 907.1882,-131.5011"/>
<polygon fill="#191970" stroke="#191970" points="976.3131,-167.3494 986.8583,-168.3733 979.2532,-160.9968 976.3131,-167.3494"/>
</g>
<!-- Node40 -->
<g id="node17" class="node">
<title>Node40</title>
<g id="a_node17"><a xlink:href="_boussinesq_buoyancy_8_h.html" target="_top" xlink:title="BoussinesqBuoyancy.H">
<polygon fill="#ffffff" stroke="#000000" points="946.659,-112.5 946.659,-131.5 1068.659,-131.5 1068.659,-112.5 946.659,-112.5"/>
<text text-anchor="middle" x="1007.659" y="-119.5" font-family="Helvetica,sans-Serif" font-size="10.00" fill="#000000">BoussinesqBuoyancy.H</text>
</a>
</g>
</g>
<!-- Node24&#45;&gt;Node40 -->
<g id="edge20" class="edge">
<title>Node24&#45;&gt;Node40</title>
<path fill="none" stroke="#191970" d="M1007.659,-158.1575C1007.659,-149.155 1007.659,-138.9199 1007.659,-131.6427"/>
<polygon fill="#191970" stroke="#191970" points="1004.1591,-158.2455 1007.659,-168.2455 1011.1591,-158.2456 1004.1591,-158.2455"/>
</g>
<!-- Node42 -->
<g id="node19" class="node">
<title>Node42</title>
<g id="a_node19"><a xlink:href="_coriolis_forcing_8_h.html" target="_top" xlink:title="CoriolisForcing.H">
<polygon fill="#ffffff" stroke="#000000" points="1090.659,-112.5 1090.659,-131.5 1182.659,-131.5 1182.659,-112.5 1090.659,-112.5"/>
<text text-anchor="middle" x="1136.659" y="-119.5" font-family="Helvetica,sans-Serif" font-size="10.00" fill="#000000">CoriolisForcing.H</text>
</a>
</g>
</g>
<!-- Node24&#45;&gt;Node42 -->
<g id="edge22" class="edge">
<title>Node24&#45;&gt;Node42</title>
<path fill="none" stroke="#191970" d="M1039.026,-164.3833C1062.4874,-154.1985 1093.9774,-140.5284 1114.7724,-131.5011"/>
<polygon fill="#191970" stroke="#191970" points="1037.6141,-161.1806 1029.8348,-168.3733 1040.4016,-167.6017 1037.6141,-161.1806"/>
</g>
<!-- Node44 -->
<g id="node21" class="node">
<title>Node44</title>
<g id="a_node21"><a xlink:href="_density_buoyancy_8_h.html" target="_top" xlink:title="DensityBuoyancy.H">
<polygon fill="#ffffff" stroke="#000000" points="1207.659,-112.5 1207.659,-131.5 1311.659,-131.5 1311.659,-112.5 1207.659,-112.5"/>
<text text-anchor="middle" x="1259.659" y="-119.5" font-family="Helvetica,sans-Serif" font-size="10.00" fill="#000000">DensityBuoyancy.H</text>
</a>
</g>
</g>
<!-- Node24&#45;&gt;Node44 -->
<g id="edge24" class="edge">
<title>Node24&#45;&gt;Node44</title>
<path fill="none" stroke="#191970" d="M1060.5678,-166.2425C1106.9911,-155.9262 1173.6483,-141.1135 1216.8024,-131.5237"/>
<polygon fill="#191970" stroke="#191970" points="1059.6956,-162.8508 1050.693,-168.4369 1061.2141,-169.6842 1059.6956,-162.8508"/>
</g>
<!-- Node46 -->
<g id="node23" class="node">
<title>Node46</title>
<g id="a_node23"><a xlink:href="_geostrophic_forcing_8_h.html" target="_top" xlink:title="GeostrophicForcing.H">
<polygon fill="#ffffff" stroke="#000000" points="1337.659,-112.5 1337.659,-131.5 1449.659,-131.5 1449.659,-112.5 1337.659,-112.5"/>
<text text-anchor="middle" x="1393.659" y="-119.5" font-family="Helvetica,sans-Serif" font-size="10.00" fill="#000000">GeostrophicForcing.H</text>
</a>
</g>
</g>
<!-- Node24&#45;&gt;Node46 -->
<g id="edge26" class="edge">
<title>Node24&#45;&gt;Node46</title>
<path fill="none" stroke="#191970" d="M1071.4763,-168.7415C1145.6648,-157.9784 1266.9377,-140.3844 1337.628,-130.1288"/>
<polygon fill="#191970" stroke="#191970" points="1070.7245,-165.3139 1061.3306,-170.2134 1071.7295,-172.2413 1070.7245,-165.3139"/>
</g>
<!-- Node48 -->
<g id="node25" class="node">
<title>Node48</title>
<g id="a_node25"><a xlink:href="_m_m_s_forcing_8_h.html" target="_top" xlink:title="MMSForcing.H">
<polygon fill="#ffffff" stroke="#000000" points="1476.159,-112.5 1476.159,-131.5 1559.159,-131.5 1559.159,-112.5 1476.159,-112.5"/>
<text text-anchor="middle" x="1517.659" y="-119.5" font-family="Helvetica,sans-Serif" font-size="10.00" fill="#000000">MMSForcing.H</text>
</a>
</g>
</g>
<!-- Node24&#45;&gt;Node48 -->
<g id="edge28" class="edge">
<title>Node24&#45;&gt;Node48</title>
<path fill="none" stroke="#191970" d="M1071.2849,-172.8482C1158.7612,-165.4604 1320.9958,-150.666 1458.659,-132 1464.3212,-131.2322 1470.2737,-130.3328 1476.1305,-129.3937"/>
<polygon fill="#191970" stroke="#191970" points="1070.9241,-169.366 1061.252,-173.6906 1071.5099,-176.3415 1070.9241,-169.366"/>
</g>
<!-- Node26 -->
<g id="node3" class="node">
<title>Node26</title>
<g id="a_node3"><a xlink:href="icns_8cpp.html" target="_top" xlink:title="icns.cpp">
<polygon fill="#ffffff" stroke="#000000" points="81.159,-.5 81.159,-19.5 134.159,-19.5 134.159,-.5 81.159,-.5"/>
<text text-anchor="middle" x="107.659" y="-7.5" font-family="Helvetica,sans-Serif" font-size="10.00" fill="#000000">icns.cpp</text>
</a>
</g>
</g>
<!-- Node25&#45;&gt;Node26 -->
<g id="edge2" class="edge">
<title>Node25&#45;&gt;Node26</title>
<path fill="none" stroke="#191970" d="M166.8738,-119.0518C116.9075,-113.804 25.4004,-100.9698 5.659,-76 -18.1489,-45.8869 43.4491,-25.2323 81.0498,-15.8076"/>
<polygon fill="#191970" stroke="#191970" points="166.5643,-122.5383 176.8648,-120.0581 167.2659,-115.5735 166.5643,-122.5383"/>
</g>
<!-- Node27 -->
<g id="node4" class="node">
<title>Node27</title>
<g id="a_node4"><a xlink:href="icns__ops_8_h.html" target="_top" xlink:title="icns_ops.H">
<polygon fill="#ffffff" stroke="#000000" points="209.659,-56.5 209.659,-75.5 275.659,-75.5 275.659,-56.5 209.659,-56.5"/>
<text text-anchor="middle" x="242.659" y="-63.5" font-family="Helvetica,sans-Serif" font-size="10.00" fill="#000000">icns_ops.H</text>
</a>
</g>
</g>
<!-- Node25&#45;&gt;Node27 -->
<g id="edge3" class="edge">
<title>Node25&#45;&gt;Node27</title>
<path fill="none" stroke="#191970" d="M213.3182,-104.2112C220.5852,-94.7472 229.2371,-83.4797 235.2548,-75.6427"/>
<polygon fill="#191970" stroke="#191970" points="210.4632,-102.1824 207.149,-112.2455 216.0153,-106.4456 210.4632,-102.1824"/>
</g>
<!-- Node29 -->
<g id="node6" class="node">
<title>Node29</title>
<g id="a_node6"><a xlink:href="icns__diffusion_8_h.html" target="_top" xlink:title="icns_diffusion.H">
<polygon fill="#ffffff" stroke="#000000" points="15.159,-56.5 15.159,-75.5 102.159,-75.5 102.159,-56.5 15.159,-56.5"/>
<text text-anchor="middle" x="58.659" y="-63.5" font-family="Helvetica,sans-Serif" font-size="10.00" fill="#000000">icns_diffusion.H</text>
</a>
</g>
</g>
<!-- Node25&#45;&gt;Node29 -->
<g id="edge6" class="edge">
<title>Node25&#45;&gt;Node29</title>
<path fill="none" stroke="#191970" d="M167.6427,-109.2843C141.8255,-99.0307 106.081,-84.8343 82.6725,-75.5373"/>
<polygon fill="#191970" stroke="#191970" points="166.4191,-112.5642 177.0049,-113.0026 169.003,-106.0586 166.4191,-112.5642"/>
</g>
<!-- Node30 -->
<g id="node7" class="node">
<title>Node30</title>
<g id="a_node7"><a xlink:href="icns__bcop_8_h.html" target="_top" xlink:title="icns_bcop.H">
<polygon fill="#ffffff" stroke="#000000" points="120.159,-56.5 120.159,-75.5 191.159,-75.5 191.159,-56.5 120.159,-56.5"/>
<text text-anchor="middle" x="155.659" y="-63.5" font-family="Helvetica,sans-Serif" font-size="10.00" fill="#000000">icns_bcop.H</text>
</a>
</g>
</g>
<!-- Node25&#45;&gt;Node30 -->
<g id="edge8" class="edge">
<title>Node25&#45;&gt;Node30</title>
<path fill="none" stroke="#191970" d="M185.6821,-104.2112C178.246,-94.7472 169.393,-83.4797 163.2353,-75.6427"/>
<polygon fill="#191970" stroke="#191970" points="183.0644,-106.5447 191.9947,-112.2455 188.5686,-102.22 183.0644,-106.5447"/>
</g>
<!-- Node31 -->
<g id="node8" class="node">
<title>Node31</title>
<g id="a_node8"><a xlink:href="_power_law_profile_8cpp.html" target="_top" xlink:title="PowerLawProfile.cpp">
<polygon fill="#ffffff" stroke="#000000" points="294.159,-56.5 294.159,-75.5 403.159,-75.5 403.159,-56.5 294.159,-56.5"/>
<text text-anchor="middle" x="348.659" y="-63.5" font-family="Helvetica,sans-Serif" font-size="10.00" fill="#000000">PowerLawProfile.cpp</text>
</a>
</g>
</g>
<!-- Node25&#45;&gt;Node31 -->
<g id="edge10" class="edge">
<title>Node25&#45;&gt;Node31</title>
<path fill="none" stroke="#191970" d="M231.8214,-109.9121C259.2263,-99.6123 298.0725,-85.0123 323.3172,-75.5244"/>
<polygon fill="#191970" stroke="#191970" points="230.4182,-106.7004 222.2888,-113.4948 232.8809,-113.2529 230.4182,-106.7004"/>
</g>
<!-- Node27&#45;&gt;Node26 -->
<g id="edge4" class="edge">
<title>Node27&#45;&gt;Node26</title>
<path fill="none" stroke="#191970" d="M210.1598,-52.5189C185.5735,-42.3201 152.4224,-28.5685 130.5634,-19.5011"/>
<polygon fill="#191970" stroke="#191970" points="208.8737,-55.7745 219.4516,-56.3733 211.5559,-49.3087 208.8737,-55.7745"/>
</g>
<!-- Node28 -->
<g id="node5" class="node">
<title>Node28</title>
<g id="a_node5"><a xlink:href="icns__ops_8cpp.html" target="_top" xlink:title="icns_ops.cpp">
<polygon fill="#ffffff" stroke="#000000" points="205.659,-.5 205.659,-19.5 279.659,-19.5 279.659,-.5 205.659,-.5"/>
<text text-anchor="middle" x="242.659" y="-7.5" font-family="Helvetica,sans-Serif" font-size="10.00" fill="#000000">icns_ops.cpp</text>
</a>
</g>
</g>
<!-- Node27&#45;&gt;Node28 -->
<g id="edge5" class="edge">
<title>Node27&#45;&gt;Node28</title>
<path fill="none" stroke="#191970" d="M242.659,-46.1575C242.659,-37.155 242.659,-26.9199 242.659,-19.6427"/>
<polygon fill="#191970" stroke="#191970" points="239.1591,-46.2455 242.659,-56.2455 246.1591,-46.2456 239.1591,-46.2455"/>
</g>
<!-- Node29&#45;&gt;Node26 -->
<g id="edge7" class="edge">
<title>Node29&#45;&gt;Node26</title>
<path fill="none" stroke="#191970" d="M73.9711,-48.5004C82.3037,-38.9775 92.2943,-27.5596 99.2216,-19.6427"/>
<polygon fill="#191970" stroke="#191970" points="71.1452,-46.415 67.1941,-56.2455 76.4132,-51.0245 71.1452,-46.415"/>
</g>
<!-- Node30&#45;&gt;Node26 -->
<g id="edge9" class="edge">
<title>Node30&#45;&gt;Node26</title>
<path fill="none" stroke="#191970" d="M140.6593,-48.5004C132.4968,-38.9775 122.7101,-27.5596 115.9241,-19.6427"/>
<polygon fill="#191970" stroke="#191970" points="138.1326,-50.9307 147.298,-56.2455 143.4474,-46.3752 138.1326,-50.9307"/>
</g>
<!-- Node33 -->
<g id="node10" class="node">
<title>Node33</title>
<g id="a_node10"><a xlink:href="_a_b_l_forcing_8cpp.html" target="_top" xlink:title="ABLForcing.cpp">
<polygon fill="#ffffff" stroke="#000000" points="421.659,-56.5 421.659,-75.5 507.659,-75.5 507.659,-56.5 421.659,-56.5"/>
<text text-anchor="middle" x="464.659" y="-63.5" font-family="Helvetica,sans-Serif" font-size="10.00" fill="#000000">ABLForcing.cpp</text>
</a>
</g>
</g>
<!-- Node32&#45;&gt;Node33 -->
<g id="edge12" class="edge">
<title>Node32&#45;&gt;Node33</title>
<path fill="none" stroke="#191970" d="M569.4376,-108.5189C544.305,-98.3201 510.4171,-84.5685 488.0724,-75.5011"/>
<polygon fill="#191970" stroke="#191970" points="568.3537,-111.8562 578.9359,-112.3733 570.9859,-105.3699 568.3537,-111.8562"/>
</g>
<!-- Node34 -->
<g id="node11" class="node">
<title>Node34</title>
<g id="a_node11"><a xlink:href="_a_b_l_8cpp.html" target="_top" xlink:title="ABL.cpp">
<polygon fill="#ffffff" stroke="#000000" points="621.659,-56.5 621.659,-75.5 675.659,-75.5 675.659,-56.5 621.659,-56.5"/>
<text text-anchor="middle" x="648.659" y="-63.5" font-family="Helvetica,sans-Serif" font-size="10.00" fill="#000000">ABL.cpp</text>
</a>
</g>
</g>
<!-- Node32&#45;&gt;Node34 -->
<g id="edge13" class="edge">
<title>Node32&#45;&gt;Node34</title>
<path fill="none" stroke="#191970" d="M617.0336,-104.5004C624.856,-94.9775 634.235,-83.5596 640.7382,-75.6427"/>
<polygon fill="#191970" stroke="#191970" points="614.3144,-102.2967 610.6715,-112.2455 619.7235,-106.7399 614.3144,-102.2967"/>
</g>
<!-- Node35 -->
<g id="node12" class="node">
<title>Node35</title>
<g id="a_node12"><a xlink:href="_a_b_l_stats_8cpp.html" target="_top" xlink:title="ABLStats.cpp">
<polygon fill="#ffffff" stroke="#000000" points="526.159,-56.5 526.159,-75.5 603.159,-75.5 603.159,-56.5 526.159,-56.5"/>
<text text-anchor="middle" x="564.659" y="-63.5" font-family="Helvetica,sans-Serif" font-size="10.00" fill="#000000">ABLStats.cpp</text>
</a>
</g>
</g>
<!-- Node32&#45;&gt;Node35 -->
<g id="edge14" class="edge">
<title>Node32&#45;&gt;Node35</title>
<path fill="none" stroke="#191970" d="M590.391,-103.9209C584.0102,-94.5176 576.4659,-83.3997 571.2022,-75.6427"/>
<polygon fill="#191970" stroke="#191970" points="587.5286,-105.936 596.0399,-112.2455 593.321,-102.0055 587.5286,-105.936"/>
</g>
<!-- Node36&#45;&gt;Node34 -->
<g id="edge17" class="edge">
<title>Node36&#45;&gt;Node34</title>
<path fill="none" stroke="#191970" d="M730.3675,-107.5971C710.6479,-97.558 684.879,-84.4393 667.5999,-75.6427"/>
<polygon fill="#191970" stroke="#191970" points="728.9989,-110.8277 739.4984,-112.2455 732.1747,-104.5896 728.9989,-110.8277"/>
</g>
<!-- Node37 -->
<g id="node14" class="node">
<title>Node37</title>
<g id="a_node14"><a xlink:href="_a_b_l_mean_boussinesq_8cpp.html" target="_top" xlink:title="ABLMeanBoussinesq.cpp">
<polygon fill="#ffffff" stroke="#000000" points="694.159,-56.5 694.159,-75.5 823.159,-75.5 823.159,-56.5 694.159,-56.5"/>
<text text-anchor="middle" x="758.659" y="-63.5" font-family="Helvetica,sans-Serif" font-size="10.00" fill="#000000">ABLMeanBoussinesq.cpp</text>
</a>
</g>
</g>
<!-- Node36&#45;&gt;Node37 -->
<g id="edge16" class="edge">
<title>Node36&#45;&gt;Node37</title>
<path fill="none" stroke="#191970" d="M758.659,-102.1575C758.659,-93.155 758.659,-82.9199 758.659,-75.6427"/>
<polygon fill="#191970" stroke="#191970" points="755.1591,-102.2455 758.659,-112.2455 762.1591,-102.2456 755.1591,-102.2455"/>
</g>
<!-- Node39 -->
<g id="node16" class="node">
<title>Node39</title>
<g id="a_node16"><a xlink:href="_body_force_8cpp.html" target="_top" xlink:title="BodyForce.cpp">
<polygon fill="#ffffff" stroke="#000000" points="841.159,-56.5 841.159,-75.5 924.159,-75.5 924.159,-56.5 841.159,-56.5"/>
<text text-anchor="middle" x="882.659" y="-63.5" font-family="Helvetica,sans-Serif" font-size="10.00" fill="#000000">BodyForce.cpp</text>
</a>
</g>
</g>
<!-- Node38&#45;&gt;Node39 -->
<g id="edge19" class="edge">
<title>Node38&#45;&gt;Node39</title>
<path fill="none" stroke="#191970" d="M885.2416,-102.1575C884.5986,-93.155 883.8675,-82.9199 883.3477,-75.6427"/>
<polygon fill="#191970" stroke="#191970" points="881.7585,-102.5204 885.9622,-112.2455 888.7407,-102.0216 881.7585,-102.5204"/>
</g>
<!-- Node41 -->
<g id="node18" class="node">
<title>Node41</title>
<g id="a_node18"><a xlink:href="_boussinesq_buoyancy_8cpp.html" target="_top" xlink:title="BoussinesqBuoyancy.cpp">
<polygon fill="#ffffff" stroke="#000000" points="942.659,-56.5 942.659,-75.5 1072.659,-75.5 1072.659,-56.5 942.659,-56.5"/>
<text text-anchor="middle" x="1007.659" y="-63.5" font-family="Helvetica,sans-Serif" font-size="10.00" fill="#000000">BoussinesqBuoyancy.cpp</text>
</a>
</g>
</g>
<!-- Node40&#45;&gt;Node41 -->
<g id="edge21" class="edge">
<title>Node40&#45;&gt;Node41</title>
<path fill="none" stroke="#191970" d="M1007.659,-102.1575C1007.659,-93.155 1007.659,-82.9199 1007.659,-75.6427"/>
<polygon fill="#191970" stroke="#191970" points="1004.1591,-102.2455 1007.659,-112.2455 1011.1591,-102.2456 1004.1591,-102.2455"/>
</g>
<!-- Node43 -->
<g id="node20" class="node">
<title>Node43</title>
<g id="a_node20"><a xlink:href="_coriolis_forcing_8cpp.html" target="_top" xlink:title="CoriolisForcing.cpp">
<polygon fill="#ffffff" stroke="#000000" points="1091.159,-56.5 1091.159,-75.5 1192.159,-75.5 1192.159,-56.5 1091.159,-56.5"/>
<text text-anchor="middle" x="1141.659" y="-63.5" font-family="Helvetica,sans-Serif" font-size="10.00" fill="#000000">CoriolisForcing.cpp</text>
</a>
</g>
</g>
<!-- Node42&#45;&gt;Node43 -->
<g id="edge23" class="edge">
<title>Node42&#45;&gt;Node43</title>
<path fill="none" stroke="#191970" d="M1138.4306,-102.1575C1139.2344,-93.155 1140.1482,-82.9199 1140.798,-75.6427"/>
<polygon fill="#191970" stroke="#191970" points="1134.9332,-101.9739 1137.5299,-112.2455 1141.9054,-102.5965 1134.9332,-101.9739"/>
</g>
<!-- Node45 -->
<g id="node22" class="node">
<title>Node45</title>
<g id="a_node22"><a xlink:href="_density_buoyancy_8cpp.html" target="_top" xlink:title="DensityBuoyancy.cpp">
<polygon fill="#ffffff" stroke="#000000" points="1210.159,-56.5 1210.159,-75.5 1323.159,-75.5 1323.159,-56.5 1210.159,-56.5"/>
<text text-anchor="middle" x="1266.659" y="-63.5" font-family="Helvetica,sans-Serif" font-size="10.00" fill="#000000">DensityBuoyancy.cpp</text>
</a>
</g>
</g>
<!-- Node44&#45;&gt;Node45 -->
<g id="edge25" class="edge">
<title>Node44&#45;&gt;Node45</title>
<path fill="none" stroke="#191970" d="M1262.1393,-102.1575C1263.2646,-93.155 1264.544,-82.9199 1265.4536,-75.6427"/>
<polygon fill="#191970" stroke="#191970" points="1258.6457,-101.8886 1260.8783,-112.2455 1265.5917,-102.7569 1258.6457,-101.8886"/>
</g>
<!-- Node47 -->
<g id="node24" class="node">
<title>Node47</title>
<g id="a_node24"><a xlink:href="_geostrophic_forcing_8cpp.html" target="_top" xlink:title="GeostrophicForcing.cpp">
<polygon fill="#ffffff" stroke="#000000" points="1341.659,-56.5 1341.659,-75.5 1461.659,-75.5 1461.659,-56.5 1341.659,-56.5"/>
<text text-anchor="middle" x="1401.659" y="-63.5" font-family="Helvetica,sans-Serif" font-size="10.00" fill="#000000">GeostrophicForcing.cpp</text>
</a>
</g>
</g>
<!-- Node46&#45;&gt;Node47 -->
<g id="edge27" class="edge">
<title>Node46&#45;&gt;Node47</title>
<path fill="none" stroke="#191970" d="M1396.4936,-102.1575C1397.7797,-93.155 1399.2418,-82.9199 1400.2814,-75.6427"/>
<polygon fill="#191970" stroke="#191970" points="1393.0019,-101.851 1395.0524,-112.2455 1399.9316,-102.8411 1393.0019,-101.851"/>
</g>
<!-- Node49 -->
<g id="node26" class="node">
<title>Node49</title>
<g id="a_node26"><a xlink:href="_m_m_s_forcing_8cpp.html" target="_top" xlink:title="MMSForcing.cpp">
<polygon fill="#ffffff" stroke="#000000" points="1480.159,-56.5 1480.159,-75.5 1571.159,-75.5 1571.159,-56.5 1480.159,-56.5"/>
<text text-anchor="middle" x="1525.659" y="-63.5" font-family="Helvetica,sans-Serif" font-size="10.00" fill="#000000">MMSForcing.cpp</text>
</a>
</g>
</g>
<!-- Node48&#45;&gt;Node49 -->
<g id="edge29" class="edge">
<title>Node48&#45;&gt;Node49</title>
<path fill="none" stroke="#191970" d="M1520.4936,-102.1575C1521.7797,-93.155 1523.2418,-82.9199 1524.2814,-75.6427"/>
<polygon fill="#191970" stroke="#191970" points="1517.0019,-101.851 1519.0524,-112.2455 1523.9316,-102.8411 1517.0019,-101.851"/>
</g>
</g>
</svg>
