<?xml version="1.0" encoding="UTF-8" standalone="no"?>
<!DOCTYPE svg PUBLIC "-//W3C//DTD SVG 1.1//EN"
 "http://www.w3.org/Graphics/SVG/1.1/DTD/svg11.dtd">
<!-- Generated by graphviz version 2.40.1 (20161225.0304)
 -->
<!-- Title: PDEHelpers.H Pages: 1 -->
<svg width="1287pt" height="364pt"
 viewBox="0.00 0.00 1286.66 364.00" xmlns="http://www.w3.org/2000/svg" xmlns:xlink="http://www.w3.org/1999/xlink">
<g id="graph0" class="graph" transform="scale(1 1) rotate(0) translate(4 360)">
<title>PDEHelpers.H</title>
<polygon fill="#ffffff" stroke="transparent" points="-4,4 -4,-360 1282.6626,-360 1282.6626,4 -4,4"/>
<!-- Node31 -->
<g id="node1" class="node">
<title>Node31</title>
<polygon fill="#bfbfbf" stroke="#000000" points="728.1626,-336.5 728.1626,-355.5 810.1626,-355.5 810.1626,-336.5 728.1626,-336.5"/>
<text text-anchor="middle" x="769.1626" y="-343.5" font-family="Helvetica,sans-Serif" font-size="10.00" fill="#000000">PDEHelpers.H</text>
</g>
<!-- Node32 -->
<g id="node2" class="node">
<title>Node32</title>
<g id="a_node2"><a xlink:href="_p_d_e_ops_8_h.html" target="_top" xlink:title="PDEOps.H">
<polygon fill="#ffffff" stroke="#000000" points="599.1626,-280.5 599.1626,-299.5 665.1626,-299.5 665.1626,-280.5 599.1626,-280.5"/>
<text text-anchor="middle" x="632.1626" y="-287.5" font-family="Helvetica,sans-Serif" font-size="10.00" fill="#000000">PDEOps.H</text>
</a>
</g>
</g>
<!-- Node31&#45;&gt;Node32 -->
<g id="edge1" class="edge">
<title>Node31&#45;&gt;Node32</title>
<path fill="none" stroke="#191970" d="M736.1821,-332.5189C711.2315,-322.3201 677.5892,-308.5685 655.4065,-299.5011"/>
<polygon fill="#191970" stroke="#191970" points="735.0306,-335.8293 745.6115,-336.3733 737.6793,-329.3497 735.0306,-335.8293"/>
</g>
<!-- Node35 -->
<g id="node5" class="node">
<title>Node35</title>
<g id="a_node5"><a xlink:href="icns__ops_8_h.html" target="_top" xlink:title="icns_ops.H">
<polygon fill="#ffffff" stroke="#000000" points="838.1626,-56.5 838.1626,-75.5 904.1626,-75.5 904.1626,-56.5 838.1626,-56.5"/>
<text text-anchor="middle" x="871.1626" y="-63.5" font-family="Helvetica,sans-Serif" font-size="10.00" fill="#000000">icns_ops.H</text>
</a>
</g>
</g>
<!-- Node31&#45;&gt;Node35 -->
<g id="edge61" class="edge">
<title>Node31&#45;&gt;Node35</title>
<path fill="none" stroke="#191970" d="M820.411,-337.7511C875.4684,-325.6252 955.1626,-297.164 955.1626,-234 955.1626,-234 955.1626,-234 955.1626,-178 955.1626,-132.0625 909.3777,-92.908 885.4121,-75.5596"/>
<polygon fill="#191970" stroke="#191970" points="819.517,-334.3621 810.4421,-339.8298 820.946,-341.2148 819.517,-334.3621"/>
</g>
<!-- Node47 -->
<g id="node17" class="node">
<title>Node47</title>
<g id="a_node17"><a xlink:href="density_8_h.html" target="_top" xlink:title="density.H">
<polygon fill="#ffffff" stroke="#000000" points="50.6626,-112.5 50.6626,-131.5 109.6626,-131.5 109.6626,-112.5 50.6626,-112.5"/>
<text text-anchor="middle" x="80.1626" y="-119.5" font-family="Helvetica,sans-Serif" font-size="10.00" fill="#000000">density.H</text>
</a>
</g>
</g>
<!-- Node31&#45;&gt;Node47 -->
<g id="edge58" class="edge">
<title>Node31&#45;&gt;Node47</title>
<path fill="none" stroke="#191970" d="M718.0278,-343.2838C654.6747,-338.8505 543.9872,-327.5889 453.1626,-300 306.9272,-255.5795 145.8177,-161.8524 95.8208,-131.6192"/>
<polygon fill="#191970" stroke="#191970" points="717.9451,-346.786 728.1567,-343.9624 718.4131,-339.8017 717.9451,-346.786"/>
</g>
<!-- Node49 -->
<g id="node19" class="node">
<title>Node49</title>
<g id="a_node19"><a xlink:href="icns_8_h.html" target="_top" xlink:title="icns.H">
<polygon fill="#ffffff" stroke="#000000" points="983.6626,-112.5 983.6626,-131.5 1028.6626,-131.5 1028.6626,-112.5 983.6626,-112.5"/>
<text text-anchor="middle" x="1006.1626" y="-119.5" font-family="Helvetica,sans-Serif" font-size="10.00" fill="#000000">icns.H</text>
</a>
</g>
</g>
<!-- Node31&#45;&gt;Node49 -->
<g id="edge60" class="edge">
<title>Node31&#45;&gt;Node49</title>
<path fill="none" stroke="#191970" d="M820.5568,-340.486C872.7697,-333.8182 948.774,-320.8239 969.1626,-300 1015.9759,-252.1874 1010.629,-161.4936 1007.4081,-131.7301"/>
<polygon fill="#191970" stroke="#191970" points="819.9497,-337.0343 810.455,-341.7356 820.8091,-343.9814 819.9497,-337.0343"/>
</g>
<!-- Node50 -->
<g id="node20" class="node">
<title>Node50</title>
<g id="a_node20"><a xlink:href="icns__diffusion_8_h.html" target="_top" xlink:title="icns_diffusion.H">
<polygon fill="#ffffff" stroke="#000000" points="1177.6626,-56.5 1177.6626,-75.5 1264.6626,-75.5 1264.6626,-56.5 1177.6626,-56.5"/>
<text text-anchor="middle" x="1221.1626" y="-63.5" font-family="Helvetica,sans-Serif" font-size="10.00" fill="#000000">icns_diffusion.H</text>
</a>
</g>
</g>
<!-- Node31&#45;&gt;Node50 -->
<g id="edge62" class="edge">
<title>Node31&#45;&gt;Node50</title>
<path fill="none" stroke="#191970" d="M820.344,-342.5148C928.6492,-333.7333 1171.1626,-306.028 1171.1626,-234 1171.1626,-234 1171.1626,-234 1171.1626,-178 1171.1626,-136.9024 1199.5814,-94.1143 1213.5687,-75.5435"/>
<polygon fill="#191970" stroke="#191970" points="819.9888,-339.0319 810.2945,-343.3064 820.5385,-346.0102 819.9888,-339.0319"/>
</g>
<!-- Node52 -->
<g id="node22" class="node">
<title>Node52</title>
<g id="a_node22"><a xlink:href="levelset_8_h.html" target="_top" xlink:title="levelset.H">
<polygon fill="#ffffff" stroke="#000000" points="679.6626,-112.5 679.6626,-131.5 740.6626,-131.5 740.6626,-112.5 679.6626,-112.5"/>
<text text-anchor="middle" x="710.1626" y="-119.5" font-family="Helvetica,sans-Serif" font-size="10.00" fill="#000000">levelset.H</text>
</a>
</g>
</g>
<!-- Node31&#45;&gt;Node52 -->
<g id="edge63" class="edge">
<title>Node31&#45;&gt;Node52</title>
<path fill="none" stroke="#191970" d="M764.0803,-326.7044C751.9475,-280.6409 721.6375,-165.5657 712.6884,-131.5891"/>
<polygon fill="#191970" stroke="#191970" points="760.6958,-327.5963 766.6275,-336.375 767.4649,-325.8133 760.6958,-327.5963"/>
</g>
<!-- Node54 -->
<g id="node24" class="node">
<title>Node54</title>
<g id="a_node24"><a xlink:href="_s_d_r_8_h.html" target="_top" xlink:title="SDR.H">
<polygon fill="#ffffff" stroke="#000000" points="153.6626,-112.5 153.6626,-131.5 202.6626,-131.5 202.6626,-112.5 153.6626,-112.5"/>
<text text-anchor="middle" x="178.1626" y="-119.5" font-family="Helvetica,sans-Serif" font-size="10.00" fill="#000000">SDR.H</text>
</a>
</g>
</g>
<!-- Node31&#45;&gt;Node54 -->
<g id="edge65" class="edge">
<title>Node31&#45;&gt;Node54</title>
<path fill="none" stroke="#191970" d="M717.8308,-342.0373C663.7081,-336.7205 576.56,-324.895 505.1626,-300 375.1624,-254.6713 235.1164,-161.5473 191.7375,-131.5423"/>
<polygon fill="#191970" stroke="#191970" points="717.5858,-345.5296 727.8707,-342.9859 718.2443,-338.5607 717.5858,-345.5296"/>
</g>
<!-- Node55 -->
<g id="node25" class="node">
<title>Node55</title>
<g id="a_node25"><a xlink:href="temperature_8_h.html" target="_top" xlink:title="temperature.H">
<polygon fill="#ffffff" stroke="#000000" points="321.6626,-112.5 321.6626,-131.5 400.6626,-131.5 400.6626,-112.5 321.6626,-112.5"/>
<text text-anchor="middle" x="361.1626" y="-119.5" font-family="Helvetica,sans-Serif" font-size="10.00" fill="#000000">temperature.H</text>
</a>
</g>
</g>
<!-- Node31&#45;&gt;Node55 -->
<g id="edge66" class="edge">
<title>Node31&#45;&gt;Node55</title>
<path fill="none" stroke="#191970" d="M718.071,-340.7437C650.3064,-331.4947 529.8764,-306.8994 449.1626,-244 407.552,-211.5733 376.8176,-154.3604 365.703,-131.6665"/>
<polygon fill="#191970" stroke="#191970" points="717.7093,-344.2261 728.0782,-342.0499 718.6153,-337.285 717.7093,-344.2261"/>
</g>
<!-- Node56 -->
<g id="node26" class="node">
<title>Node56</title>
<g id="a_node26"><a xlink:href="_t_k_e_8_h.html" target="_top" xlink:title="TKE.H">
<polygon fill="#ffffff" stroke="#000000" points="614.6626,-112.5 614.6626,-131.5 661.6626,-131.5 661.6626,-112.5 614.6626,-112.5"/>
<text text-anchor="middle" x="638.1626" y="-119.5" font-family="Helvetica,sans-Serif" font-size="10.00" fill="#000000">TKE.H</text>
</a>
</g>
</g>
<!-- Node31&#45;&gt;Node56 -->
<g id="edge67" class="edge">
<title>Node31&#45;&gt;Node56</title>
<path fill="none" stroke="#191970" d="M758.3848,-327.5707C731.793,-282.1008 663.7666,-165.7807 643.7706,-131.5891"/>
<polygon fill="#191970" stroke="#191970" points="755.4641,-329.5097 763.5337,-336.375 761.5067,-325.9759 755.4641,-329.5097"/>
</g>
<!-- Node58 -->
<g id="node28" class="node">
<title>Node58</title>
<g id="a_node28"><a xlink:href="_diffusion_ops_8_h.html" target="_top" xlink:title="DiffusionOps.H">
<polygon fill="#ffffff" stroke="#000000" points="797.1626,-224.5 797.1626,-243.5 881.1626,-243.5 881.1626,-224.5 797.1626,-224.5"/>
<text text-anchor="middle" x="839.1626" y="-231.5" font-family="Helvetica,sans-Serif" font-size="10.00" fill="#000000">DiffusionOps.H</text>
</a>
</g>
</g>
<!-- Node31&#45;&gt;Node58 -->
<g id="edge59" class="edge">
<title>Node31&#45;&gt;Node58</title>
<path fill="none" stroke="#191970" d="M780.4797,-327.8927C795.519,-303.8299 821.5468,-262.1853 833.2096,-243.5249"/>
<polygon fill="#191970" stroke="#191970" points="777.4628,-326.1159 775.1308,-336.4509 783.3988,-329.826 777.4628,-326.1159"/>
</g>
<!-- Node60 -->
<g id="node30" class="node">
<title>Node60</title>
<g id="a_node30"><a xlink:href="_p_d_e_base_8cpp.html" target="_top" xlink:title="PDEBase.cpp">
<polygon fill="#ffffff" stroke="#000000" points="1199.6626,-280.5 1199.6626,-299.5 1278.6626,-299.5 1278.6626,-280.5 1199.6626,-280.5"/>
<text text-anchor="middle" x="1239.1626" y="-287.5" font-family="Helvetica,sans-Serif" font-size="10.00" fill="#000000">PDEBase.cpp</text>
</a>
</g>
</g>
<!-- Node31&#45;&gt;Node60 -->
<g id="edge64" class="edge">
<title>Node31&#45;&gt;Node60</title>
<path fill="none" stroke="#191970" d="M820.4544,-341.5431C899.1406,-334.432 1054.2819,-319.3285 1185.1626,-300 1189.7844,-299.3175 1194.6152,-298.5298 1199.4058,-297.7024"/>
<polygon fill="#191970" stroke="#191970" points="819.9743,-338.0721 810.3274,-342.4523 820.6003,-345.044 819.9743,-338.0721"/>
</g>
<!-- Node33 -->
<g id="node3" class="node">
<title>Node33</title>
<g id="a_node3"><a xlink:href="_adv_op___godunov_8_h.html" target="_top" xlink:title="AdvOp_Godunov.H">
<polygon fill="#ffffff" stroke="#000000" points="495.6626,-112.5 495.6626,-131.5 596.6626,-131.5 596.6626,-112.5 495.6626,-112.5"/>
<text text-anchor="middle" x="546.1626" y="-119.5" font-family="Helvetica,sans-Serif" font-size="10.00" fill="#000000">AdvOp_Godunov.H</text>
</a>
</g>
</g>
<!-- Node32&#45;&gt;Node33 -->
<g id="edge2" class="edge">
<title>Node32&#45;&gt;Node33</title>
<path fill="none" stroke="#191970" d="M637.7446,-270.285C643.7774,-244.7072 650.1818,-199.6229 631.1626,-168 620.2661,-149.8824 599.5047,-138.4559 581.2289,-131.5229"/>
<polygon fill="#191970" stroke="#191970" points="634.2824,-269.6946 635.1744,-280.2518 641.0607,-271.4426 634.2824,-269.6946"/>
</g>
<!-- Node32&#45;&gt;Node35 -->
<g id="edge56" class="edge">
<title>Node32&#45;&gt;Node35</title>
<path fill="none" stroke="#191970" d="M649.7395,-273.5263C696.6793,-229.5325 823.9148,-110.2825 860.9314,-75.5891"/>
<polygon fill="#191970" stroke="#191970" points="647.3351,-270.9828 642.4322,-280.375 652.122,-276.0903 647.3351,-270.9828"/>
</g>
<!-- Node42 -->
<g id="node12" class="node">
<title>Node42</title>
<g id="a_node12"><a xlink:href="_adv_op___m_o_l_8_h.html" target="_top" xlink:title="AdvOp_MOL.H">
<polygon fill="#ffffff" stroke="#000000" points="220.6626,-112.5 220.6626,-131.5 303.6626,-131.5 303.6626,-112.5 220.6626,-112.5"/>
<text text-anchor="middle" x="262.1626" y="-119.5" font-family="Helvetica,sans-Serif" font-size="10.00" fill="#000000">AdvOp_MOL.H</text>
</a>
</g>
</g>
<!-- Node32&#45;&gt;Node42 -->
<g id="edge11" class="edge">
<title>Node32&#45;&gt;Node42</title>
<path fill="none" stroke="#191970" d="M588.8279,-283.2949C550.8878,-276.4553 494.8441,-263.9723 449.1626,-244 377.4177,-212.6326 302.4654,-154.8073 274.0371,-131.8079"/>
<polygon fill="#191970" stroke="#191970" points="588.5722,-286.8032 599.0253,-285.076 589.7766,-279.9076 588.5722,-286.8032"/>
</g>
<!-- Node43 -->
<g id="node13" class="node">
<title>Node43</title>
<g id="a_node13"><a xlink:href="_b_c_ops_8_h.html" target="_top" xlink:title="BCOps.H">
<polygon fill="#ffffff" stroke="#000000" points="418.6626,-112.5 418.6626,-131.5 477.6626,-131.5 477.6626,-112.5 418.6626,-112.5"/>
<text text-anchor="middle" x="448.1626" y="-119.5" font-family="Helvetica,sans-Serif" font-size="10.00" fill="#000000">BCOps.H</text>
</a>
</g>
</g>
<!-- Node32&#45;&gt;Node43 -->
<g id="edge18" class="edge">
<title>Node32&#45;&gt;Node43</title>
<path fill="none" stroke="#191970" d="M632.2032,-270.1655C631.1639,-243.3886 625.2868,-195.8323 598.1626,-168 593.8495,-163.5743 520.2535,-142.3018 477.7835,-130.2953"/>
<polygon fill="#191970" stroke="#191970" points="628.7055,-270.3213 632.4003,-280.2509 635.7041,-270.1844 628.7055,-270.3213"/>
</g>
<!-- Node45 -->
<g id="node15" class="node">
<title>Node45</title>
<g id="a_node15"><a xlink:href="_comp_r_h_s_ops_8_h.html" target="_top" xlink:title="CompRHSOps.H">
<polygon fill="#ffffff" stroke="#000000" points="457.6626,-224.5 457.6626,-243.5 550.6626,-243.5 550.6626,-224.5 457.6626,-224.5"/>
<text text-anchor="middle" x="504.1626" y="-231.5" font-family="Helvetica,sans-Serif" font-size="10.00" fill="#000000">CompRHSOps.H</text>
</a>
</g>
</g>
<!-- Node32&#45;&gt;Node45 -->
<g id="edge26" class="edge">
<title>Node32&#45;&gt;Node45</title>
<path fill="none" stroke="#191970" d="M600.7279,-276.2473C577.4817,-266.0771 546.4216,-252.4883 525.8795,-243.5011"/>
<polygon fill="#191970" stroke="#191970" points="599.5942,-279.5716 610.1587,-280.3733 602.4,-273.1585 599.5942,-279.5716"/>
</g>
<!-- Node46 -->
<g id="node16" class="node">
<title>Node46</title>
<g id="a_node16"><a xlink:href="_p_d_e_8_h.html" target="_top" xlink:title="PDE.H">
<polygon fill="#ffffff" stroke="#000000" points="541.1626,-168.5 541.1626,-187.5 589.1626,-187.5 589.1626,-168.5 541.1626,-168.5"/>
<text text-anchor="middle" x="565.1626" y="-175.5" font-family="Helvetica,sans-Serif" font-size="10.00" fill="#000000">PDE.H</text>
</a>
</g>
</g>
<!-- Node32&#45;&gt;Node46 -->
<g id="edge50" class="edge">
<title>Node32&#45;&gt;Node46</title>
<path fill="none" stroke="#191970" d="M620.3291,-271.6043C615.0039,-263.2309 608.6866,-253.1643 603.1626,-244 591.2861,-224.2966 577.9992,-200.8872 570.7058,-187.9121"/>
<polygon fill="#191970" stroke="#191970" points="617.4895,-273.6604 625.8249,-280.2004 623.3872,-269.8898 617.4895,-273.6604"/>
</g>
<!-- Node32&#45;&gt;Node50 -->
<g id="edge57" class="edge">
<title>Node32&#45;&gt;Node50</title>
<path fill="none" stroke="#191970" d="M675.3999,-286.5034C727.5197,-281.3385 817.1988,-269.3938 890.1626,-244 1021.4178,-198.319 1163.3995,-105.4289 1207.3934,-75.5125"/>
<polygon fill="#191970" stroke="#191970" points="674.8035,-283.0442 665.1803,-287.4765 675.4671,-290.0127 674.8035,-283.0442"/>
</g>
<!-- Node32&#45;&gt;Node58 -->
<g id="edge51" class="edge">
<title>Node32&#45;&gt;Node58</title>
<path fill="none" stroke="#191970" d="M675.2138,-278.3533C713.3458,-268.0374 768.3319,-253.1619 803.9087,-243.5373"/>
<polygon fill="#191970" stroke="#191970" points="674.1598,-275.0126 665.4208,-281.0026 675.9878,-281.7697 674.1598,-275.0126"/>
</g>
<!-- Node34 -->
<g id="node4" class="node">
<title>Node34</title>
<g id="a_node4"><a xlink:href="density_8cpp.html" target="_top" xlink:title="density.cpp">
<polygon fill="#ffffff" stroke="#000000" points="87.6626,-.5 87.6626,-19.5 154.6626,-19.5 154.6626,-.5 87.6626,-.5"/>
<text text-anchor="middle" x="121.1626" y="-7.5" font-family="Helvetica,sans-Serif" font-size="10.00" fill="#000000">density.cpp</text>
</a>
</g>
</g>
<!-- Node33&#45;&gt;Node34 -->
<g id="edge3" class="edge">
<title>Node33&#45;&gt;Node34</title>
<path fill="none" stroke="#191970" d="M540.7586,-102.9C535.3682,-87.5847 525.4927,-66.9085 509.1626,-56 479.9375,-36.4776 243.7352,-18.4161 154.8351,-12.2452"/>
<polygon fill="#191970" stroke="#191970" points="537.4328,-103.991 543.7982,-112.4606 544.1038,-101.8701 537.4328,-103.991"/>
</g>
<!-- Node33&#45;&gt;Node35 -->
<g id="edge4" class="edge">
<title>Node33&#45;&gt;Node35</title>
<path fill="none" stroke="#191970" d="M606.817,-111.9093C706.8962,-95.7218 733.7849,-95.0263 829.1626,-76 831.9559,-75.4428 834.8453,-74.8307 837.7408,-74.1922"/>
<polygon fill="#191970" stroke="#191970" points="606.2056,-108.4627 596.8986,-113.5253 607.3314,-115.3716 606.2056,-108.4627"/>
</g>
<!-- Node38 -->
<g id="node8" class="node">
<title>Node38</title>
<g id="a_node8"><a xlink:href="levelset_8cpp.html" target="_top" xlink:title="levelset.cpp">
<polygon fill="#ffffff" stroke="#000000" points="531.6626,-.5 531.6626,-19.5 600.6626,-19.5 600.6626,-.5 531.6626,-.5"/>
<text text-anchor="middle" x="566.1626" y="-7.5" font-family="Helvetica,sans-Serif" font-size="10.00" fill="#000000">levelset.cpp</text>
</a>
</g>
</g>
<!-- Node33&#45;&gt;Node38 -->
<g id="edge7" class="edge">
<title>Node33&#45;&gt;Node38</title>
<path fill="none" stroke="#191970" d="M549.6272,-102.5987C553.955,-78.363 561.1885,-37.8551 564.4618,-19.5249"/>
<polygon fill="#191970" stroke="#191970" points="546.1803,-101.9914 547.8678,-112.4509 553.0713,-103.222 546.1803,-101.9914"/>
</g>
<!-- Node39 -->
<g id="node9" class="node">
<title>Node39</title>
<g id="a_node9"><a xlink:href="_s_d_r_8cpp.html" target="_top" xlink:title="SDR.cpp">
<polygon fill="#ffffff" stroke="#000000" points="187.6626,-56.5 187.6626,-75.5 244.6626,-75.5 244.6626,-56.5 187.6626,-56.5"/>
<text text-anchor="middle" x="216.1626" y="-63.5" font-family="Helvetica,sans-Serif" font-size="10.00" fill="#000000">SDR.cpp</text>
</a>
</g>
</g>
<!-- Node33&#45;&gt;Node39 -->
<g id="edge8" class="edge">
<title>Node33&#45;&gt;Node39</title>
<path fill="none" stroke="#191970" d="M485.6663,-111.7898C381.5728,-95.3399 352.9949,-97.1018 253.1626,-76 250.4283,-75.422 247.5953,-74.7646 244.7696,-74.0692"/>
<polygon fill="#191970" stroke="#191970" points="485.2133,-115.2617 495.6405,-113.3849 486.3187,-108.3495 485.2133,-115.2617"/>
</g>
<!-- Node40 -->
<g id="node10" class="node">
<title>Node40</title>
<g id="a_node10"><a xlink:href="temperature_8cpp.html" target="_top" xlink:title="temperature.cpp">
<polygon fill="#ffffff" stroke="#000000" points="262.6626,-56.5 262.6626,-75.5 349.6626,-75.5 349.6626,-56.5 262.6626,-56.5"/>
<text text-anchor="middle" x="306.1626" y="-63.5" font-family="Helvetica,sans-Serif" font-size="10.00" fill="#000000">temperature.cpp</text>
</a>
</g>
</g>
<!-- Node33&#45;&gt;Node40 -->
<g id="edge9" class="edge">
<title>Node33&#45;&gt;Node40</title>
<path fill="none" stroke="#191970" d="M495.2161,-110.1125C451.0286,-99.8021 387.9052,-85.0733 346.9784,-75.5237"/>
<polygon fill="#191970" stroke="#191970" points="494.6441,-113.573 505.1779,-112.4369 496.2348,-106.7561 494.6441,-113.573"/>
</g>
<!-- Node41 -->
<g id="node11" class="node">
<title>Node41</title>
<g id="a_node11"><a xlink:href="_t_k_e_8cpp.html" target="_top" xlink:title="TKE.cpp">
<polygon fill="#ffffff" stroke="#000000" points="444.6626,-56.5 444.6626,-75.5 499.6626,-75.5 499.6626,-56.5 444.6626,-56.5"/>
<text text-anchor="middle" x="472.1626" y="-63.5" font-family="Helvetica,sans-Serif" font-size="10.00" fill="#000000">TKE.cpp</text>
</a>
</g>
</g>
<!-- Node33&#45;&gt;Node41 -->
<g id="edge10" class="edge">
<title>Node33&#45;&gt;Node41</title>
<path fill="none" stroke="#191970" d="M525.2969,-106.2097C512.3001,-96.3743 496.0005,-84.0394 484.9048,-75.6427"/>
<polygon fill="#191970" stroke="#191970" points="523.1867,-109.002 533.2728,-112.2455 527.4108,-103.4201 523.1867,-109.002"/>
</g>
<!-- Node36 -->
<g id="node6" class="node">
<title>Node36</title>
<g id="a_node6"><a xlink:href="icns_8cpp.html" target="_top" xlink:title="icns.cpp">
<polygon fill="#ffffff" stroke="#000000" points="1026.6626,-.5 1026.6626,-19.5 1079.6626,-19.5 1079.6626,-.5 1026.6626,-.5"/>
<text text-anchor="middle" x="1053.1626" y="-7.5" font-family="Helvetica,sans-Serif" font-size="10.00" fill="#000000">icns.cpp</text>
</a>
</g>
</g>
<!-- Node35&#45;&gt;Node36 -->
<g id="edge5" class="edge">
<title>Node35&#45;&gt;Node36</title>
<path fill="none" stroke="#191970" d="M912.3508,-53.3267C947.2912,-42.5758 996.3922,-27.4678 1026.424,-18.2273"/>
<polygon fill="#191970" stroke="#191970" points="910.978,-50.0871 902.4496,-56.3733 913.0367,-56.7776 910.978,-50.0871"/>
</g>
<!-- Node37 -->
<g id="node7" class="node">
<title>Node37</title>
<g id="a_node7"><a xlink:href="icns__ops_8cpp.html" target="_top" xlink:title="icns_ops.cpp">
<polygon fill="#ffffff" stroke="#000000" points="834.1626,-.5 834.1626,-19.5 908.1626,-19.5 908.1626,-.5 834.1626,-.5"/>
<text text-anchor="middle" x="871.1626" y="-7.5" font-family="Helvetica,sans-Serif" font-size="10.00" fill="#000000">icns_ops.cpp</text>
</a>
</g>
</g>
<!-- Node35&#45;&gt;Node37 -->
<g id="edge6" class="edge">
<title>Node35&#45;&gt;Node37</title>
<path fill="none" stroke="#191970" d="M871.1626,-46.1575C871.1626,-37.155 871.1626,-26.9199 871.1626,-19.6427"/>
<polygon fill="#191970" stroke="#191970" points="867.6627,-46.2455 871.1626,-56.2455 874.6627,-46.2456 867.6627,-46.2455"/>
</g>
<!-- Node42&#45;&gt;Node34 -->
<g id="edge12" class="edge">
<title>Node42&#45;&gt;Node34</title>
<path fill="none" stroke="#191970" d="M210.7144,-111.865C188.0629,-105.0814 162.6779,-93.9736 145.1626,-76 129.8459,-60.2825 124.2031,-34.0383 122.2026,-19.8411"/>
<polygon fill="#191970" stroke="#191970" points="209.9845,-115.2947 220.5566,-114.6007 211.8592,-108.5504 209.9845,-115.2947"/>
</g>
<!-- Node42&#45;&gt;Node35 -->
<g id="edge13" class="edge">
<title>Node42&#45;&gt;Node35</title>
<path fill="none" stroke="#191970" d="M313.8139,-112.0859C542.8211,-82.631 605.1299,-110.2486 829.1626,-76 831.9782,-75.5696 834.8833,-75.0466 837.7894,-74.468"/>
<polygon fill="#191970" stroke="#191970" points="313.3031,-108.6228 303.8417,-113.3908 314.2114,-115.5636 313.3031,-108.6228"/>
</g>
<!-- Node42&#45;&gt;Node38 -->
<g id="edge14" class="edge">
<title>Node42&#45;&gt;Node38</title>
<path fill="none" stroke="#191970" d="M222.8601,-108.7262C192.7799,-96.5166 159.378,-77.1432 178.1626,-56 201.4777,-29.7575 440.7716,-15.8782 531.5221,-11.5264"/>
<polygon fill="#191970" stroke="#191970" points="221.85,-112.0882 232.4393,-112.4318 224.3755,-105.5596 221.85,-112.0882"/>
</g>
<!-- Node42&#45;&gt;Node39 -->
<g id="edge15" class="edge">
<title>Node42&#45;&gt;Node39</title>
<path fill="none" stroke="#191970" d="M247.788,-104.5004C239.9656,-94.9775 230.5866,-83.5596 224.0834,-75.6427"/>
<polygon fill="#191970" stroke="#191970" points="245.0981,-106.7399 254.1501,-112.2455 250.5072,-102.2967 245.0981,-106.7399"/>
</g>
<!-- Node42&#45;&gt;Node40 -->
<g id="edge16" class="edge">
<title>Node42&#45;&gt;Node40</title>
<path fill="none" stroke="#191970" d="M276.1395,-104.2112C283.5756,-94.7472 292.4286,-83.4797 298.5863,-75.6427"/>
<polygon fill="#191970" stroke="#191970" points="273.253,-102.22 269.8269,-112.2455 278.7572,-106.5447 273.253,-102.22"/>
</g>
<!-- Node42&#45;&gt;Node41 -->
<g id="edge17" class="edge">
<title>Node42&#45;&gt;Node41</title>
<path fill="none" stroke="#191970" d="M308.1727,-109.7306C349.8477,-98.6173 409.876,-82.6098 444.5621,-73.3601"/>
<polygon fill="#191970" stroke="#191970" points="307.0234,-106.4147 298.2629,-112.3733 308.8271,-113.1784 307.0234,-106.4147"/>
</g>
<!-- Node43&#45;&gt;Node34 -->
<g id="edge19" class="edge">
<title>Node43&#45;&gt;Node34</title>
<path fill="none" stroke="#191970" d="M431.0151,-105.5573C414.1094,-90.3056 386.853,-68.1837 359.1626,-56 290.5965,-25.8311 202.3168,-15.3767 154.8867,-11.8068"/>
<polygon fill="#191970" stroke="#191970" points="428.7199,-108.2019 438.4393,-112.419 433.471,-103.0612 428.7199,-108.2019"/>
</g>
<!-- Node43&#45;&gt;Node38 -->
<g id="edge22" class="edge">
<title>Node43&#45;&gt;Node38</title>
<path fill="none" stroke="#191970" d="M437.6236,-102.7926C431.4361,-88.6616 426.5334,-69.6215 436.1626,-56 447.4257,-40.0673 497.0493,-25.775 531.6176,-17.4935"/>
<polygon fill="#191970" stroke="#191970" points="434.6244,-104.6262 442.1668,-112.0669 440.9107,-101.5468 434.6244,-104.6262"/>
</g>
<!-- Node43&#45;&gt;Node39 -->
<g id="edge23" class="edge">
<title>Node43&#45;&gt;Node39</title>
<path fill="none" stroke="#191970" d="M408.1992,-111.5705C338.9254,-94.7176 319.4989,-92.5632 253.1626,-76 250.4512,-75.323 247.6335,-74.5989 244.8174,-73.8615"/>
<polygon fill="#191970" stroke="#191970" points="407.7692,-115.0687 418.3149,-114.0491 409.4352,-108.2698 407.7692,-115.0687"/>
</g>
<!-- Node43&#45;&gt;Node40 -->
<g id="edge24" class="edge">
<title>Node43&#45;&gt;Node40</title>
<path fill="none" stroke="#191970" d="M414.3211,-108.6541C388.426,-98.4419 353.3489,-84.6086 330.2548,-75.5011"/>
<polygon fill="#191970" stroke="#191970" points="413.1652,-111.9605 423.752,-112.3733 415.7333,-105.4486 413.1652,-111.9605"/>
</g>
<!-- Node43&#45;&gt;Node41 -->
<g id="edge25" class="edge">
<title>Node43&#45;&gt;Node41</title>
<path fill="none" stroke="#191970" d="M456.2868,-103.0437C460.2342,-93.8331 464.8085,-83.1598 468.0301,-75.6427"/>
<polygon fill="#191970" stroke="#191970" points="453.0654,-101.6753 452.3431,-112.2455 459.4994,-104.4328 453.0654,-101.6753"/>
</g>
<!-- Node44 -->
<g id="node14" class="node">
<title>Node44</title>
<g id="a_node14"><a xlink:href="icns__bcop_8_h.html" target="_top" xlink:title="icns_bcop.H">
<polygon fill="#ffffff" stroke="#000000" points="922.6626,-56.5 922.6626,-75.5 993.6626,-75.5 993.6626,-56.5 922.6626,-56.5"/>
<text text-anchor="middle" x="958.1626" y="-63.5" font-family="Helvetica,sans-Serif" font-size="10.00" fill="#000000">icns_bcop.H</text>
</a>
</g>
</g>
<!-- Node43&#45;&gt;Node44 -->
<g id="edge20" class="edge">
<title>Node43&#45;&gt;Node44</title>
<path fill="none" stroke="#191970" d="M487.819,-112.1708C676.2839,-81.1111 728.5405,-104.1839 913.1626,-76 916.169,-75.5411 919.2743,-74.998 922.3831,-74.406"/>
<polygon fill="#191970" stroke="#191970" points="487.1468,-108.7346 477.8636,-113.8406 488.3048,-115.6381 487.1468,-108.7346"/>
</g>
<!-- Node44&#45;&gt;Node36 -->
<g id="edge21" class="edge">
<title>Node44&#45;&gt;Node36</title>
<path fill="none" stroke="#191970" d="M983.5302,-51.0465C1000.4336,-41.0824 1022.153,-28.2794 1036.8045,-19.6427"/>
<polygon fill="#191970" stroke="#191970" points="981.5477,-48.1522 974.7104,-56.2455 985.1024,-54.1825 981.5477,-48.1522"/>
</g>
<!-- Node45&#45;&gt;Node46 -->
<g id="edge27" class="edge">
<title>Node45&#45;&gt;Node46</title>
<path fill="none" stroke="#191970" d="M522.2876,-217.3607C532.8406,-207.6727 545.7739,-195.7995 554.659,-187.6427"/>
<polygon fill="#191970" stroke="#191970" points="519.7876,-214.9045 514.788,-224.2455 524.5216,-220.0611 519.7876,-214.9045"/>
</g>
<!-- Node46&#45;&gt;Node47 -->
<g id="edge28" class="edge">
<title>Node46&#45;&gt;Node47</title>
<path fill="none" stroke="#191970" d="M530.6264,-174.7714C458.6368,-167.9214 287.3241,-150.9954 144.1626,-132 132.9029,-130.506 120.5659,-128.6343 109.7543,-126.9155"/>
<polygon fill="#191970" stroke="#191970" points="530.6251,-178.2868 540.9107,-175.7455 531.2853,-171.318 530.6251,-178.2868"/>
</g>
<!-- Node46&#45;&gt;Node49 -->
<g id="edge32" class="edge">
<title>Node46&#45;&gt;Node49</title>
<path fill="none" stroke="#191970" d="M599.2385,-173.6729C685.5527,-162.7124 911.0705,-134.0752 983.4495,-124.8842"/>
<polygon fill="#191970" stroke="#191970" points="598.6653,-170.2175 589.1859,-174.9494 599.5472,-177.1617 598.6653,-170.2175"/>
</g>
<!-- Node46&#45;&gt;Node52 -->
<g id="edge39" class="edge">
<title>Node46&#45;&gt;Node52</title>
<path fill="none" stroke="#191970" d="M599.0386,-164.9169C625.4573,-154.7138 661.5397,-140.7785 685.3277,-131.5914"/>
<polygon fill="#191970" stroke="#191970" points="597.4999,-161.7591 589.4324,-168.6269 600.0218,-168.289 597.4999,-161.7591"/>
</g>
<!-- Node46&#45;&gt;Node54 -->
<g id="edge43" class="edge">
<title>Node46&#45;&gt;Node54</title>
<path fill="none" stroke="#191970" d="M530.6221,-175.4166C466.9187,-170.2318 326.8632,-156.8697 211.1626,-132 208.4704,-131.4213 205.6802,-130.7277 202.9141,-129.9792"/>
<polygon fill="#191970" stroke="#191970" points="530.6455,-178.9295 540.892,-176.235 531.2016,-171.9516 530.6455,-178.9295"/>
</g>
<!-- Node46&#45;&gt;Node55 -->
<g id="edge45" class="edge">
<title>Node46&#45;&gt;Node55</title>
<path fill="none" stroke="#191970" d="M531.0136,-168.6258C493.5123,-158.3313 433.6188,-141.8899 395.8894,-131.5328"/>
<polygon fill="#191970" stroke="#191970" points="530.3903,-172.0841 540.9601,-171.3562 532.2433,-165.3338 530.3903,-172.0841"/>
</g>
<!-- Node46&#45;&gt;Node56 -->
<g id="edge47" class="edge">
<title>Node46&#45;&gt;Node56</title>
<path fill="none" stroke="#191970" d="M586.1136,-161.928C598.8734,-152.1397 614.7512,-139.9595 625.5927,-131.6427"/>
<polygon fill="#191970" stroke="#191970" points="583.6823,-159.3819 577.8783,-168.2455 587.9429,-164.9359 583.6823,-159.3819"/>
</g>
<!-- Node47&#45;&gt;Node34 -->
<g id="edge29" class="edge">
<title>Node47&#45;&gt;Node34</title>
<path fill="none" stroke="#191970" d="M43.8408,-108.3691C17.7204,-96.3914 -10.5164,-77.5441 4.1626,-56 13.9022,-41.7055 56.4316,-27.4782 87.4144,-18.7145"/>
<polygon fill="#191970" stroke="#191970" points="42.7178,-111.697 53.2849,-112.4634 45.5021,-105.2745 42.7178,-111.697"/>
</g>
<!-- Node48 -->
<g id="node18" class="node">
<title>Node48</title>
<g id="a_node18"><a xlink:href="density__ops_8_h.html" target="_top" xlink:title="density_ops.H">
<polygon fill="#ffffff" stroke="#000000" points="13.1626,-56.5 13.1626,-75.5 93.1626,-75.5 93.1626,-56.5 13.1626,-56.5"/>
<text text-anchor="middle" x="53.1626" y="-63.5" font-family="Helvetica,sans-Serif" font-size="10.00" fill="#000000">density_ops.H</text>
</a>
</g>
</g>
<!-- Node47&#45;&gt;Node48 -->
<g id="edge30" class="edge">
<title>Node47&#45;&gt;Node48</title>
<path fill="none" stroke="#191970" d="M71.023,-103.0437C66.5822,-93.8331 61.4361,-83.1598 57.8118,-75.6427"/>
<polygon fill="#191970" stroke="#191970" points="67.9639,-104.7579 75.4596,-112.2455 74.2693,-101.7178 67.9639,-104.7579"/>
</g>
<!-- Node48&#45;&gt;Node34 -->
<g id="edge31" class="edge">
<title>Node48&#45;&gt;Node34</title>
<path fill="none" stroke="#191970" d="M73.0223,-49.645C84.8484,-39.9058 99.4518,-27.8795 109.4537,-19.6427"/>
<polygon fill="#191970" stroke="#191970" points="70.5017,-47.1867 65.0073,-56.2455 74.9517,-52.5902 70.5017,-47.1867"/>
</g>
<!-- Node49&#45;&gt;Node35 -->
<g id="edge34" class="edge">
<title>Node49&#45;&gt;Node35</title>
<path fill="none" stroke="#191970" d="M974.2973,-108.7818C949.7305,-98.5911 916.3348,-84.7381 894.2848,-75.5914"/>
<polygon fill="#191970" stroke="#191970" points="972.9888,-112.0281 983.5667,-112.6269 975.6709,-105.5623 972.9888,-112.0281"/>
</g>
<!-- Node49&#45;&gt;Node36 -->
<g id="edge33" class="edge">
<title>Node49&#45;&gt;Node36</title>
<path fill="none" stroke="#191970" d="M1038.7101,-112.0426C1073.5795,-101.0501 1124.6879,-83.8702 1130.1626,-76 1147.1545,-51.5733 1108.1547,-30.6342 1079.6846,-19.2234"/>
<polygon fill="#191970" stroke="#191970" points="1037.4192,-108.779 1028.9181,-115.1021 1039.5069,-115.4604 1037.4192,-108.779"/>
</g>
<!-- Node49&#45;&gt;Node44 -->
<g id="edge37" class="edge">
<title>Node49&#45;&gt;Node44</title>
<path fill="none" stroke="#191970" d="M991.163,-104.5004C983.0005,-94.9775 973.2138,-83.5596 966.4278,-75.6427"/>
<polygon fill="#191970" stroke="#191970" points="988.6363,-106.9307 997.8017,-112.2455 993.9511,-102.3752 988.6363,-106.9307"/>
</g>
<!-- Node49&#45;&gt;Node50 -->
<g id="edge35" class="edge">
<title>Node49&#45;&gt;Node50</title>
<path fill="none" stroke="#191970" d="M1038.7428,-113.1731C1040.2364,-112.7752 1041.7152,-112.3826 1043.1626,-112 1091.6099,-99.1935 1147.5818,-84.7937 1183.6273,-75.5716"/>
<polygon fill="#191970" stroke="#191970" points="1037.6026,-109.8552 1028.8502,-115.8257 1039.4155,-116.6163 1037.6026,-109.8552"/>
</g>
<!-- Node51 -->
<g id="node21" class="node">
<title>Node51</title>
<g id="a_node21"><a xlink:href="_power_law_profile_8cpp.html" target="_top" xlink:title="PowerLawProfile.cpp">
<polygon fill="#ffffff" stroke="#000000" points="1011.6626,-56.5 1011.6626,-75.5 1120.6626,-75.5 1120.6626,-56.5 1011.6626,-56.5"/>
<text text-anchor="middle" x="1066.1626" y="-63.5" font-family="Helvetica,sans-Serif" font-size="10.00" fill="#000000">PowerLawProfile.cpp</text>
</a>
</g>
</g>
<!-- Node49&#45;&gt;Node51 -->
<g id="edge38" class="edge">
<title>Node49&#45;&gt;Node51</title>
<path fill="none" stroke="#191970" d="M1023.9905,-105.3607C1034.3705,-95.6727 1047.0917,-83.7995 1055.8312,-75.6427"/>
<polygon fill="#191970" stroke="#191970" points="1021.5363,-102.8636 1016.6139,-112.2455 1026.3126,-107.981 1021.5363,-102.8636"/>
</g>
<!-- Node50&#45;&gt;Node36 -->
<g id="edge36" class="edge">
<title>Node50&#45;&gt;Node36</title>
<path fill="none" stroke="#191970" d="M1182.5219,-53.1198C1151.0355,-42.6243 1107.4039,-28.0804 1079.7299,-18.8557"/>
<polygon fill="#191970" stroke="#191970" points="1181.6888,-56.5313 1192.2824,-56.3733 1183.9024,-49.8905 1181.6888,-56.5313"/>
</g>
<!-- Node52&#45;&gt;Node38 -->
<g id="edge40" class="edge">
<title>Node52&#45;&gt;Node38</title>
<path fill="none" stroke="#191970" d="M709.0766,-101.7774C707.2811,-87.3566 702.697,-68.4002 691.1626,-56 667.6172,-30.6871 628.9424,-19.2511 600.8387,-14.1169"/>
<polygon fill="#191970" stroke="#191970" points="705.6275,-102.507 709.9982,-112.1582 712.6001,-101.8879 705.6275,-102.507"/>
</g>
<!-- Node53 -->
<g id="node23" class="node">
<title>Node53</title>
<g id="a_node23"><a xlink:href="levelset__ops_8_h.html" target="_top" xlink:title="levelset_ops.H">
<polygon fill="#ffffff" stroke="#000000" points="738.1626,-56.5 738.1626,-75.5 820.1626,-75.5 820.1626,-56.5 738.1626,-56.5"/>
<text text-anchor="middle" x="779.1626" y="-63.5" font-family="Helvetica,sans-Serif" font-size="10.00" fill="#000000">levelset_ops.H</text>
</a>
</g>
</g>
<!-- Node52&#45;&gt;Node53 -->
<g id="edge41" class="edge">
<title>Node52&#45;&gt;Node53</title>
<path fill="none" stroke="#191970" d="M729.9656,-105.928C742.0262,-96.1397 757.034,-83.9595 767.2815,-75.6427"/>
<polygon fill="#191970" stroke="#191970" points="727.7405,-103.2262 722.1815,-112.2455 732.1517,-108.6614 727.7405,-103.2262"/>
</g>
<!-- Node53&#45;&gt;Node38 -->
<g id="edge42" class="edge">
<title>Node53&#45;&gt;Node38</title>
<path fill="none" stroke="#191970" d="M732.8327,-53.8193C693.1285,-43.3807 636.8182,-28.5761 600.8904,-19.1303"/>
<polygon fill="#191970" stroke="#191970" points="731.9853,-57.2155 742.5466,-56.3733 733.7653,-50.4455 731.9853,-57.2155"/>
</g>
<!-- Node54&#45;&gt;Node39 -->
<g id="edge44" class="edge">
<title>Node54&#45;&gt;Node39</title>
<path fill="none" stroke="#191970" d="M190.4306,-103.9209C196.8114,-94.5176 204.3557,-83.3997 209.6194,-75.6427"/>
<polygon fill="#191970" stroke="#191970" points="187.5006,-102.0055 184.7817,-112.2455 193.293,-105.936 187.5006,-102.0055"/>
</g>
<!-- Node55&#45;&gt;Node40 -->
<g id="edge46" class="edge">
<title>Node55&#45;&gt;Node40</title>
<path fill="none" stroke="#191970" d="M344.54,-105.0751C335.0772,-95.4402 323.5658,-83.7196 315.6331,-75.6427"/>
<polygon fill="#191970" stroke="#191970" points="342.0782,-107.5635 351.5824,-112.2455 347.0723,-102.6585 342.0782,-107.5635"/>
</g>
<!-- Node56&#45;&gt;Node41 -->
<g id="edge48" class="edge">
<title>Node56&#45;&gt;Node41</title>
<path fill="none" stroke="#191970" d="M604.5107,-110.6475C573.6683,-100.2429 528.5516,-85.0228 499.7751,-75.315"/>
<polygon fill="#191970" stroke="#191970" points="603.7847,-114.0964 614.3789,-113.9766 606.0223,-107.4636 603.7847,-114.0964"/>
</g>
<!-- Node57 -->
<g id="node27" class="node">
<title>Node57</title>
<g id="a_node27"><a xlink:href="_one_eq_ksgs_8cpp.html" target="_top" xlink:title="OneEqKsgs.cpp">
<polygon fill="#ffffff" stroke="#000000" points="594.1626,-56.5 594.1626,-75.5 682.1626,-75.5 682.1626,-56.5 594.1626,-56.5"/>
<text text-anchor="middle" x="638.1626" y="-63.5" font-family="Helvetica,sans-Serif" font-size="10.00" fill="#000000">OneEqKsgs.cpp</text>
</a>
</g>
</g>
<!-- Node56&#45;&gt;Node57 -->
<g id="edge49" class="edge">
<title>Node56&#45;&gt;Node57</title>
<path fill="none" stroke="#191970" d="M638.1626,-102.1575C638.1626,-93.155 638.1626,-82.9199 638.1626,-75.6427"/>
<polygon fill="#191970" stroke="#191970" points="634.6627,-102.2455 638.1626,-112.2455 641.6627,-102.2456 634.6627,-102.2455"/>
</g>
<!-- Node58&#45;&gt;Node35 -->
<g id="edge54" class="edge">
<title>Node58&#45;&gt;Node35</title>
<path fill="none" stroke="#191970" d="M831.2364,-214.7088C826.835,-201.5338 822.8555,-183.6894 826.1626,-168 833.7476,-132.016 854.8615,-93.2598 865.2443,-75.668"/>
<polygon fill="#191970" stroke="#191970" points="827.9742,-215.9784 834.7257,-224.1434 834.5396,-213.5502 827.9742,-215.9784"/>
</g>
<!-- Node58&#45;&gt;Node46 -->
<g id="edge52" class="edge">
<title>Node58&#45;&gt;Node46</title>
<path fill="none" stroke="#191970" d="M787.0357,-223.3463C727.7908,-211.2379 633.6052,-191.9883 589.4755,-182.9691"/>
<polygon fill="#191970" stroke="#191970" points="786.4523,-226.7994 796.9506,-225.3727 787.854,-219.9411 786.4523,-226.7994"/>
</g>
<!-- Node58&#45;&gt;Node50 -->
<g id="edge55" class="edge">
<title>Node58&#45;&gt;Node50</title>
<path fill="none" stroke="#191970" d="M869.2648,-220.1028C888.4941,-211.1322 913.9061,-199.1045 936.1626,-188 968.7158,-171.7581 1047.6561,-126.1709 1081.1626,-112 1116.3897,-97.1015 1158.2179,-83.9162 1186.9236,-75.5242"/>
<polygon fill="#191970" stroke="#191970" points="867.6842,-216.9778 860.0929,-224.3686 870.6362,-223.3249 867.6842,-216.9778"/>
</g>
<!-- Node59 -->
<g id="node29" class="node">
<title>Node59</title>
<g id="a_node29"><a xlink:href="_diffusion_ops_8cpp.html" target="_top" xlink:title="DiffusionOps.cpp">
<polygon fill="#ffffff" stroke="#000000" points="835.1626,-168.5 835.1626,-187.5 927.1626,-187.5 927.1626,-168.5 835.1626,-168.5"/>
<text text-anchor="middle" x="881.1626" y="-175.5" font-family="Helvetica,sans-Serif" font-size="10.00" fill="#000000">DiffusionOps.cpp</text>
</a>
</g>
</g>
<!-- Node58&#45;&gt;Node59 -->
<g id="edge53" class="edge">
<title>Node58&#45;&gt;Node59</title>
<path fill="none" stroke="#191970" d="M852.5042,-216.2112C859.6023,-206.7472 868.0529,-195.4797 873.9306,-187.6427"/>
<polygon fill="#191970" stroke="#191970" points="849.6785,-214.1455 846.4785,-224.2455 855.2785,-218.3455 849.6785,-214.1455"/>
</g>
</g>
</svg>
