<?xml version="1.0" encoding="UTF-8" standalone="no"?>
<!DOCTYPE svg PUBLIC "-//W3C//DTD SVG 1.1//EN"
 "http://www.w3.org/Graphics/SVG/1.1/DTD/svg11.dtd">
<!-- Generated by graphviz version 2.40.1 (20161225.0304)
 -->
<!-- Title: PDEBase.H Pages: 1 -->
<svg width="4200pt" height="252pt"
 viewBox="0.00 0.00 4199.50 252.00" xmlns="http://www.w3.org/2000/svg" xmlns:xlink="http://www.w3.org/1999/xlink">
<g id="graph0" class="graph" transform="scale(1 1) rotate(0) translate(4 248)">
<title>PDEBase.H</title>
<polygon fill="#ffffff" stroke="transparent" points="-4,4 -4,-248 4195.5,-248 4195.5,4 -4,4"/>
<!-- Node14 -->
<g id="node1" class="node">
<title>Node14</title>
<polygon fill="#bfbfbf" stroke="#000000" points="3857,-224.5 3857,-243.5 3928,-243.5 3928,-224.5 3857,-224.5"/>
<text text-anchor="middle" x="3892.5" y="-231.5" font-family="Helvetica,sans-Serif" font-size="10.00" fill="#000000">PDEBase.H</text>
</g>
<!-- Node15 -->
<g id="node2" class="node">
<title>Node15</title>
<g id="a_node2"><a xlink:href="_c_f_d_sim_8_h.html" target="_top" xlink:title="CFDSim.H">
<polygon fill="#ffffff" stroke="#000000" points="2028,-168.5 2028,-187.5 2093,-187.5 2093,-168.5 2028,-168.5"/>
<text text-anchor="middle" x="2060.5" y="-175.5" font-family="Helvetica,sans-Serif" font-size="10.00" fill="#000000">CFDSim.H</text>
</a>
</g>
</g>
<!-- Node14&#45;&gt;Node15 -->
<g id="edge1" class="edge">
<title>Node14&#45;&gt;Node15</title>
<path fill="none" stroke="#191970" d="M3846.5478,-232.5953C3587.5791,-224.6793 2314.1163,-185.7525 2093.1957,-178.9994"/>
<polygon fill="#191970" stroke="#191970" points="3846.6242,-236.0992 3856.7265,-232.9065 3846.8382,-229.1025 3846.6242,-236.0992"/>
</g>
<!-- Node20 -->
<g id="node4" class="node">
<title>Node20</title>
<g id="a_node4"><a xlink:href="incflo_8cpp.html" target="_top" xlink:title="incflo.cpp">
<polygon fill="#ffffff" stroke="#000000" points="3753,-56.5 3753,-75.5 3812,-75.5 3812,-56.5 3753,-56.5"/>
<text text-anchor="middle" x="3782.5" y="-63.5" font-family="Helvetica,sans-Serif" font-size="10.00" fill="#000000">incflo.cpp</text>
</a>
</g>
</g>
<!-- Node14&#45;&gt;Node20 -->
<g id="edge61" class="edge">
<title>Node14&#45;&gt;Node20</title>
<path fill="none" stroke="#191970" d="M3864.7663,-219.3269C3836.3159,-202.523 3793.723,-172.0625 3775.5,-132 3767.1033,-113.5402 3773.5606,-89.2673 3778.4165,-75.8995"/>
<polygon fill="#191970" stroke="#191970" points="3863.0394,-222.3712 3873.4576,-224.2977 3866.5147,-216.2948 3863.0394,-222.3712"/>
</g>
<!-- Node21 -->
<g id="node5" class="node">
<title>Node21</title>
<g id="a_node5"><a xlink:href="incflo__advance_8cpp.html" target="_top" xlink:title="incflo_advance.cpp">
<polygon fill="#ffffff" stroke="#000000" points="3940,-56.5 3940,-75.5 4041,-75.5 4041,-56.5 3940,-56.5"/>
<text text-anchor="middle" x="3990.5" y="-63.5" font-family="Helvetica,sans-Serif" font-size="10.00" fill="#000000">incflo_advance.cpp</text>
</a>
</g>
</g>
<!-- Node14&#45;&gt;Node21 -->
<g id="edge62" class="edge">
<title>Node14&#45;&gt;Node21</title>
<path fill="none" stroke="#191970" d="M3934.8107,-220.9883C3974.255,-206.3444 4030.7509,-178.3377 4056.5,-132 4069.7233,-108.2036 4037.1672,-87.2161 4013.2223,-75.5991"/>
<polygon fill="#191970" stroke="#191970" points="3933.4203,-217.7682 3925.179,-224.4264 3935.7737,-224.3608 3933.4203,-217.7682"/>
</g>
<!-- Node69 -->
<g id="node14" class="node">
<title>Node69</title>
<g id="a_node14"><a xlink:href="_p_d_e_8_h.html" target="_top" xlink:title="PDE.H">
<polygon fill="#ffffff" stroke="#ff0000" points="115.5,-56.5 115.5,-75.5 163.5,-75.5 163.5,-56.5 115.5,-56.5"/>
<text text-anchor="middle" x="139.5" y="-63.5" font-family="Helvetica,sans-Serif" font-size="10.00" fill="#000000">PDE.H</text>
</a>
</g>
</g>
<!-- Node14&#45;&gt;Node69 -->
<g id="edge59" class="edge">
<title>Node14&#45;&gt;Node69</title>
<path fill="none" stroke="#191970" d="M3846.7403,-232.9544C3637.1689,-228.1496 2747.9336,-207.5844 2018.5,-188 1805.0418,-182.2689 246.276,-285.1762 97.5,-132 80.5617,-114.5607 107.8446,-89.2413 125.7894,-75.5879"/>
<polygon fill="#191970" stroke="#191970" points="3846.6914,-236.4541 3856.769,-233.1842 3846.8518,-229.456 3846.6914,-236.4541"/>
</g>
<!-- Node87 -->
<g id="node26" class="node">
<title>Node87</title>
<g id="a_node26"><a xlink:href="_p_d_e_base_8cpp.html" target="_top" xlink:title="PDEBase.cpp">
<polygon fill="#ffffff" stroke="#000000" points="3853,-112.5 3853,-131.5 3932,-131.5 3932,-112.5 3853,-112.5"/>
<text text-anchor="middle" x="3892.5" y="-119.5" font-family="Helvetica,sans-Serif" font-size="10.00" fill="#000000">PDEBase.cpp</text>
</a>
</g>
</g>
<!-- Node14&#45;&gt;Node87 -->
<g id="edge60" class="edge">
<title>Node14&#45;&gt;Node87</title>
<path fill="none" stroke="#191970" d="M3892.5,-214.2702C3892.5,-189.9985 3892.5,-149.7725 3892.5,-131.5249"/>
<polygon fill="#191970" stroke="#191970" points="3889.0001,-214.4509 3892.5,-224.4509 3896.0001,-214.451 3889.0001,-214.4509"/>
</g>
<!-- Node92 -->
<g id="node31" class="node">
<title>Node92</title>
<g id="a_node31"><a xlink:href="_tioga_interface_8cpp.html" target="_top" xlink:title="TiogaInterface.cpp">
<polygon fill="#ffffff" stroke="#000000" points="3949.5,-112.5 3949.5,-131.5 4047.5,-131.5 4047.5,-112.5 3949.5,-112.5"/>
<text text-anchor="middle" x="3998.5" y="-119.5" font-family="Helvetica,sans-Serif" font-size="10.00" fill="#000000">TiogaInterface.cpp</text>
</a>
</g>
</g>
<!-- Node14&#45;&gt;Node92 -->
<g id="edge63" class="edge">
<title>Node14&#45;&gt;Node92</title>
<path fill="none" stroke="#191970" d="M3908.4439,-217.1536C3931.009,-193.3113 3971.512,-150.5156 3989.4854,-131.5249"/>
<polygon fill="#191970" stroke="#191970" points="3905.8693,-214.7821 3901.5375,-224.4509 3910.9534,-219.5938 3905.8693,-214.7821"/>
</g>
<!-- Node79 -->
<g id="node50" class="node">
<title>Node79</title>
<g id="a_node50"><a xlink:href="_one_eq_ksgs_8cpp.html" target="_top" xlink:title="OneEqKsgs.cpp">
<polygon fill="#ffffff" stroke="#000000" points="4103.5,-168.5 4103.5,-187.5 4191.5,-187.5 4191.5,-168.5 4103.5,-168.5"/>
<text text-anchor="middle" x="4147.5" y="-175.5" font-family="Helvetica,sans-Serif" font-size="10.00" fill="#000000">OneEqKsgs.cpp</text>
</a>
</g>
</g>
<!-- Node14&#45;&gt;Node79 -->
<g id="edge64" class="edge">
<title>Node14&#45;&gt;Node79</title>
<path fill="none" stroke="#191970" d="M3938.126,-223.9802C3985.0814,-213.6684 4057.7117,-197.7182 4103.9085,-187.573"/>
<polygon fill="#191970" stroke="#191970" points="3937.2416,-220.5909 3928.2252,-226.1545 3938.7432,-227.428 3937.2416,-220.5909"/>
</g>
<!-- Node16 -->
<g id="node3" class="node">
<title>Node16</title>
<g id="a_node3"><a xlink:href="incflo_8_h.html" target="_top" xlink:title="incflo.H">
<polygon fill="#ffffff" stroke="#ff0000" points="3784.5,-112.5 3784.5,-131.5 3834.5,-131.5 3834.5,-112.5 3784.5,-112.5"/>
<text text-anchor="middle" x="3809.5" y="-119.5" font-family="Helvetica,sans-Serif" font-size="10.00" fill="#000000">incflo.H</text>
</a>
</g>
</g>
<!-- Node15&#45;&gt;Node16 -->
<g id="edge2" class="edge">
<title>Node15&#45;&gt;Node16</title>
<path fill="none" stroke="#191970" d="M2103.291,-177.4685C2331.3712,-174.5381 3406.0599,-159.4776 3737.5,-132 3753.0953,-130.7071 3770.4752,-128.3205 3784.252,-126.2031"/>
<polygon fill="#191970" stroke="#191970" points="2103.0308,-173.9715 2093.0763,-177.5989 2103.1202,-180.9709 2103.0308,-173.9715"/>
</g>
<!-- Node36 -->
<g id="node6" class="node">
<title>Node36</title>
<g id="a_node6"><a xlink:href="_a_b_l_wall_function_8_h.html" target="_top" xlink:title="ABLWallFunction.H">
<polygon fill="#ffffff" stroke="#ff0000" points="2216,-56.5 2216,-75.5 2319,-75.5 2319,-56.5 2216,-56.5"/>
<text text-anchor="middle" x="2267.5" y="-63.5" font-family="Helvetica,sans-Serif" font-size="10.00" fill="#000000">ABLWallFunction.H</text>
</a>
</g>
</g>
<!-- Node15&#45;&gt;Node36 -->
<g id="edge5" class="edge">
<title>Node15&#45;&gt;Node36</title>
<path fill="none" stroke="#191970" d="M2103.4233,-175.7182C2163.3314,-171.5338 2267.3023,-160.2967 2290.5,-132 2304.3473,-115.1091 2287.351,-89.3416 2276.039,-75.5309"/>
<polygon fill="#191970" stroke="#191970" points="2102.8835,-172.2462 2093.136,-176.3978 2103.345,-179.2309 2102.8835,-172.2462"/>
</g>
<!-- Node41 -->
<g id="node7" class="node">
<title>Node41</title>
<g id="a_node7"><a xlink:href="_a_b_l_stats_8_h.html" target="_top" xlink:title="ABLStats.H">
<polygon fill="#ffffff" stroke="#ff0000" points="2153,-.5 2153,-19.5 2222,-19.5 2222,-.5 2153,-.5"/>
<text text-anchor="middle" x="2187.5" y="-7.5" font-family="Helvetica,sans-Serif" font-size="10.00" fill="#000000">ABLStats.H</text>
</a>
</g>
</g>
<!-- Node15&#45;&gt;Node41 -->
<g id="edge13" class="edge">
<title>Node15&#45;&gt;Node41</title>
<path fill="none" stroke="#191970" d="M2073.9359,-160.3782C2080.4548,-151.819 2088.3946,-141.3803 2095.5,-132 2127.2151,-90.1306 2164.9058,-40.0469 2180.3565,-19.5018"/>
<polygon fill="#191970" stroke="#191970" points="2071.0285,-158.419 2067.7514,-168.4943 2076.5963,-162.6617 2071.0285,-158.419"/>
</g>
<!-- Node43 -->
<g id="node8" class="node">
<title>Node43</title>
<g id="a_node8"><a xlink:href="_boussinesq_bubble_8cpp.html" target="_top" xlink:title="BoussinesqBubble.cpp">
<polygon fill="#ffffff" stroke="#000000" points="2264.5,-.5 2264.5,-19.5 2380.5,-19.5 2380.5,-.5 2264.5,-.5"/>
<text text-anchor="middle" x="2322.5" y="-7.5" font-family="Helvetica,sans-Serif" font-size="10.00" fill="#000000">BoussinesqBubble.cpp</text>
</a>
</g>
</g>
<!-- Node15&#45;&gt;Node43 -->
<g id="edge36" class="edge">
<title>Node15&#45;&gt;Node43</title>
<path fill="none" stroke="#191970" d="M2103.6387,-174.9211C2165.7334,-169.6762 2276.1858,-157.0531 2306.5,-132 2340.0913,-104.2386 2330.3066,-43.2507 2324.9456,-19.6199"/>
<polygon fill="#191970" stroke="#191970" points="2103.0548,-171.457 2093.3724,-175.7583 2103.6238,-178.4339 2103.0548,-171.457"/>
</g>
<!-- Node44 -->
<g id="node9" class="node">
<title>Node44</title>
<g id="a_node9"><a xlink:href="_field_plane_averaging_8_h.html" target="_top" xlink:title="FieldPlaneAveraging.H">
<polygon fill="#ffffff" stroke="#ff0000" points="2165.5,-112.5 2165.5,-131.5 2281.5,-131.5 2281.5,-112.5 2165.5,-112.5"/>
<text text-anchor="middle" x="2223.5" y="-119.5" font-family="Helvetica,sans-Serif" font-size="10.00" fill="#000000">FieldPlaneAveraging.H</text>
</a>
</g>
</g>
<!-- Node15&#45;&gt;Node44 -->
<g id="edge8" class="edge">
<title>Node15&#45;&gt;Node44</title>
<path fill="none" stroke="#191970" d="M2098.1733,-165.057C2128.0042,-154.8084 2168.9852,-140.729 2195.8449,-131.5011"/>
<polygon fill="#191970" stroke="#191970" points="2096.8409,-161.8139 2088.5207,-168.3733 2099.1154,-168.4341 2096.8409,-161.8139"/>
</g>
<!-- Node50 -->
<g id="node10" class="node">
<title>Node50</title>
<g id="a_node10"><a xlink:href="_a_b_l_boundary_plane_8_h.html" target="_top" xlink:title="ABLBoundaryPlane.H">
<polygon fill="#ffffff" stroke="#ff0000" points="2571.5,-112.5 2571.5,-131.5 2683.5,-131.5 2683.5,-112.5 2571.5,-112.5"/>
<text text-anchor="middle" x="2627.5" y="-119.5" font-family="Helvetica,sans-Serif" font-size="10.00" fill="#000000">ABLBoundaryPlane.H</text>
</a>
</g>
</g>
<!-- Node15&#45;&gt;Node50 -->
<g id="edge11" class="edge">
<title>Node15&#45;&gt;Node50</title>
<path fill="none" stroke="#191970" d="M2103.1568,-174.9777C2189.861,-168.6391 2392.8391,-152.8043 2562.5,-132 2565.3332,-131.6526 2568.2328,-131.2777 2571.1591,-130.8839"/>
<polygon fill="#191970" stroke="#191970" points="2102.8897,-171.4878 2093.1696,-175.7033 2103.397,-178.4694 2102.8897,-171.4878"/>
</g>
<!-- Node51 -->
<g id="node11" class="node">
<title>Node51</title>
<g id="a_node11"><a xlink:href="_a_b_l_boundary_plane_8cpp.html" target="_top" xlink:title="ABLBoundaryPlane.cpp">
<polygon fill="#ffffff" stroke="#000000" points="2867.5,-56.5 2867.5,-75.5 2987.5,-75.5 2987.5,-56.5 2867.5,-56.5"/>
<text text-anchor="middle" x="2927.5" y="-63.5" font-family="Helvetica,sans-Serif" font-size="10.00" fill="#000000">ABLBoundaryPlane.cpp</text>
</a>
</g>
</g>
<!-- Node15&#45;&gt;Node51 -->
<g id="edge58" class="edge">
<title>Node15&#45;&gt;Node51</title>
<path fill="none" stroke="#191970" d="M2103.1447,-177.0948C2308.8985,-172.6288 3189.9572,-152.3409 3209.5,-132 3215.6584,-125.5901 3215.2573,-118.7725 3209.5,-112 3195.303,-95.2995 3066.2826,-79.7322 2987.7614,-71.6943"/>
<polygon fill="#191970" stroke="#191970" points="2102.9549,-173.598 2093.0329,-177.3133 2103.1062,-180.5963 2102.9549,-173.598"/>
</g>
<!-- Node54 -->
<g id="node12" class="node">
<title>Node54</title>
<g id="a_node12"><a xlink:href="_c_f_d_sim_8cpp.html" target="_top" xlink:title="CFDSim.cpp">
<polygon fill="#ffffff" stroke="#000000" points="2375.5,-112.5 2375.5,-131.5 2449.5,-131.5 2449.5,-112.5 2375.5,-112.5"/>
<text text-anchor="middle" x="2412.5" y="-119.5" font-family="Helvetica,sans-Serif" font-size="10.00" fill="#000000">CFDSim.cpp</text>
</a>
</g>
</g>
<!-- Node15&#45;&gt;Node54 -->
<g id="edge14" class="edge">
<title>Node15&#45;&gt;Node54</title>
<path fill="none" stroke="#191970" d="M2103.0532,-172.0709C2161.4442,-163.8043 2269.6304,-148.0195 2361.5,-132 2366.0332,-131.2095 2370.7843,-130.3371 2375.4866,-129.4468"/>
<polygon fill="#191970" stroke="#191970" points="2102.5013,-168.614 2093.0884,-173.4771 2103.4794,-175.5454 2102.5013,-168.614"/>
</g>
<!-- Node55 -->
<g id="node13" class="node">
<title>Node55</title>
<g id="a_node13"><a xlink:href="_p_d_e_ops_8_h.html" target="_top" xlink:title="PDEOps.H">
<polygon fill="#ffffff" stroke="#ff0000" points="106.5,-112.5 106.5,-131.5 172.5,-131.5 172.5,-112.5 106.5,-112.5"/>
<text text-anchor="middle" x="139.5" y="-119.5" font-family="Helvetica,sans-Serif" font-size="10.00" fill="#000000">PDEOps.H</text>
</a>
</g>
</g>
<!-- Node15&#45;&gt;Node55 -->
<g id="edge15" class="edge">
<title>Node15&#45;&gt;Node55</title>
<path fill="none" stroke="#191970" d="M2017.5707,-177.4232C1755.2572,-173.8352 373.5945,-154.0077 186.5,-132 182.026,-131.4737 177.3482,-130.7245 172.7516,-129.8699"/>
<polygon fill="#191970" stroke="#191970" points="2017.7806,-180.9263 2027.8274,-177.563 2017.8761,-173.9269 2017.7806,-180.9263"/>
</g>
<!-- Node15&#45;&gt;Node69 -->
<g id="edge21" class="edge">
<title>Node15&#45;&gt;Node69</title>
<path fill="none" stroke="#191970" d="M2017.7984,-177.7217C1749.6259,-175.8756 306.4152,-164.4565 219.5,-132 188.4634,-120.4101 160.7138,-91.385 147.5597,-75.9751"/>
<polygon fill="#191970" stroke="#191970" points="2017.8877,-181.2223 2027.9113,-177.7906 2017.9354,-174.2225 2017.8877,-181.2223"/>
</g>
<!-- Node38 -->
<g id="node19" class="node">
<title>Node38</title>
<g id="a_node19"><a xlink:href="_a_b_l_forcing_8cpp.html" target="_top" xlink:title="ABLForcing.cpp">
<polygon fill="#ffffff" stroke="#000000" points="2467.5,-112.5 2467.5,-131.5 2553.5,-131.5 2553.5,-112.5 2467.5,-112.5"/>
<text text-anchor="middle" x="2510.5" y="-119.5" font-family="Helvetica,sans-Serif" font-size="10.00" fill="#000000">ABLForcing.cpp</text>
</a>
</g>
</g>
<!-- Node15&#45;&gt;Node38 -->
<g id="edge22" class="edge">
<title>Node15&#45;&gt;Node38</title>
<path fill="none" stroke="#191970" d="M2103.2966,-174.1151C2176.3571,-167.246 2329.7394,-151.7933 2458.5,-132 2461.4077,-131.553 2464.4009,-131.0615 2467.4129,-130.5437"/>
<polygon fill="#191970" stroke="#191970" points="2102.7439,-170.6514 2093.1125,-175.0658 2103.3946,-177.6211 2102.7439,-170.6514"/>
</g>
<!-- Node39 -->
<g id="node20" class="node">
<title>Node39</title>
<g id="a_node20"><a xlink:href="_a_b_l_mean_boussinesq_8cpp.html" target="_top" xlink:title="ABLMeanBoussinesq.cpp">
<polygon fill="#ffffff" stroke="#000000" points="2702,-112.5 2702,-131.5 2831,-131.5 2831,-112.5 2702,-112.5"/>
<text text-anchor="middle" x="2766.5" y="-119.5" font-family="Helvetica,sans-Serif" font-size="10.00" fill="#000000">ABLMeanBoussinesq.cpp</text>
</a>
</g>
</g>
<!-- Node15&#45;&gt;Node39 -->
<g id="edge23" class="edge">
<title>Node15&#45;&gt;Node39</title>
<path fill="none" stroke="#191970" d="M2103.3451,-175.7955C2205.4972,-170.3403 2471.3566,-154.968 2692.5,-132 2695.5947,-131.6786 2698.7596,-131.3295 2701.9542,-130.9609"/>
<polygon fill="#191970" stroke="#191970" points="2102.9248,-172.3128 2093.1241,-176.3373 2103.2954,-179.303 2102.9248,-172.3128"/>
</g>
<!-- Node82 -->
<g id="node21" class="node">
<title>Node82</title>
<g id="a_node21"><a xlink:href="_body_force_8cpp.html" target="_top" xlink:title="BodyForce.cpp">
<polygon fill="#ffffff" stroke="#000000" points="2849,-112.5 2849,-131.5 2932,-131.5 2932,-112.5 2849,-112.5"/>
<text text-anchor="middle" x="2890.5" y="-119.5" font-family="Helvetica,sans-Serif" font-size="10.00" fill="#000000">BodyForce.cpp</text>
</a>
</g>
</g>
<!-- Node15&#45;&gt;Node82 -->
<g id="edge24" class="edge">
<title>Node15&#45;&gt;Node82</title>
<path fill="none" stroke="#191970" d="M2103.4264,-177.5515C2221.5184,-175.8692 2561.0203,-168.0129 2840.5,-132 2843.2218,-131.6493 2846.0175,-131.2369 2848.8295,-130.7828"/>
<polygon fill="#191970" stroke="#191970" points="2103.2985,-174.0528 2093.3467,-177.6876 2103.3931,-181.0522 2103.2985,-174.0528"/>
</g>
<!-- Node83 -->
<g id="node22" class="node">
<title>Node83</title>
<g id="a_node22"><a xlink:href="_boussinesq_buoyancy_8cpp.html" target="_top" xlink:title="BoussinesqBuoyancy.cpp">
<polygon fill="#ffffff" stroke="#000000" points="2950.5,-112.5 2950.5,-131.5 3080.5,-131.5 3080.5,-112.5 2950.5,-112.5"/>
<text text-anchor="middle" x="3015.5" y="-119.5" font-family="Helvetica,sans-Serif" font-size="10.00" fill="#000000">BoussinesqBuoyancy.cpp</text>
</a>
</g>
</g>
<!-- Node15&#45;&gt;Node83 -->
<g id="edge25" class="edge">
<title>Node15&#45;&gt;Node83</title>
<path fill="none" stroke="#191970" d="M2103.5315,-177.0057C2231.4361,-173.7811 2620.3772,-162.0298 2941.5,-132 2944.3397,-131.7344 2947.2378,-131.4407 2950.1634,-131.1255"/>
<polygon fill="#191970" stroke="#191970" points="2103.2807,-173.5107 2093.3705,-177.2576 2103.4542,-180.5086 2103.2807,-173.5107"/>
</g>
<!-- Node84 -->
<g id="node23" class="node">
<title>Node84</title>
<g id="a_node23"><a xlink:href="_coriolis_forcing_8cpp.html" target="_top" xlink:title="CoriolisForcing.cpp">
<polygon fill="#ffffff" stroke="#000000" points="3099,-112.5 3099,-131.5 3200,-131.5 3200,-112.5 3099,-112.5"/>
<text text-anchor="middle" x="3149.5" y="-119.5" font-family="Helvetica,sans-Serif" font-size="10.00" fill="#000000">CoriolisForcing.cpp</text>
</a>
</g>
</g>
<!-- Node15&#45;&gt;Node84 -->
<g id="edge26" class="edge">
<title>Node15&#45;&gt;Node84</title>
<path fill="none" stroke="#191970" d="M2103.2973,-176.7758C2272.2941,-171.835 2893.5207,-152.6362 3089.5,-132 3092.5457,-131.6793 3095.6713,-131.3029 3098.8196,-130.8876"/>
<polygon fill="#191970" stroke="#191970" points="2102.9507,-173.2843 2093.0568,-177.0739 2103.1545,-180.2814 2102.9507,-173.2843"/>
</g>
<!-- Node85 -->
<g id="node24" class="node">
<title>Node85</title>
<g id="a_node24"><a xlink:href="_density_buoyancy_8cpp.html" target="_top" xlink:title="DensityBuoyancy.cpp">
<polygon fill="#ffffff" stroke="#000000" points="3257,-112.5 3257,-131.5 3370,-131.5 3370,-112.5 3257,-112.5"/>
<text text-anchor="middle" x="3313.5" y="-119.5" font-family="Helvetica,sans-Serif" font-size="10.00" fill="#000000">DensityBuoyancy.cpp</text>
</a>
</g>
</g>
<!-- Node15&#45;&gt;Node85 -->
<g id="edge27" class="edge">
<title>Node15&#45;&gt;Node85</title>
<path fill="none" stroke="#191970" d="M2103.1822,-176.9182C2287.3009,-172.1625 3014.5134,-152.439 3242.5,-132 3247.2114,-131.5776 3252.0884,-131.0603 3256.9782,-130.4855"/>
<polygon fill="#191970" stroke="#191970" points="2102.9878,-173.422 2093.0811,-177.1782 2103.1679,-180.4197 2102.9878,-173.422"/>
</g>
<!-- Node86 -->
<g id="node25" class="node">
<title>Node86</title>
<g id="a_node25"><a xlink:href="_geostrophic_forcing_8cpp.html" target="_top" xlink:title="GeostrophicForcing.cpp">
<polygon fill="#ffffff" stroke="#000000" points="3388.5,-112.5 3388.5,-131.5 3508.5,-131.5 3508.5,-112.5 3388.5,-112.5"/>
<text text-anchor="middle" x="3448.5" y="-119.5" font-family="Helvetica,sans-Serif" font-size="10.00" fill="#000000">GeostrophicForcing.cpp</text>
</a>
</g>
</g>
<!-- Node15&#45;&gt;Node86 -->
<g id="edge28" class="edge">
<title>Node15&#45;&gt;Node86</title>
<path fill="none" stroke="#191970" d="M2103.5504,-177.1314C2301.2261,-173.0457 3123.1921,-154.9734 3379.5,-132 3382.3934,-131.7407 3385.3508,-131.442 3388.3347,-131.1138"/>
<polygon fill="#191970" stroke="#191970" points="2103.2067,-173.6376 2093.2809,-177.3426 2103.3508,-180.6361 2103.2067,-173.6376"/>
</g>
<!-- Node15&#45;&gt;Node87 -->
<g id="edge29" class="edge">
<title>Node15&#45;&gt;Node87</title>
<path fill="none" stroke="#191970" d="M2103.3553,-177.9154C2340.1841,-177.293 3490.8833,-172.2145 3843.5,-132 3846.5192,-131.6557 3849.6288,-131.2186 3852.7476,-130.7205"/>
<polygon fill="#191970" stroke="#191970" points="2103.0806,-174.416 2093.0894,-177.9411 2103.0981,-181.416 2103.0806,-174.416"/>
</g>
<!-- Node88 -->
<g id="node27" class="node">
<title>Node88</title>
<g id="a_node27"><a xlink:href="_ksgs_m84_src_8cpp.html" target="_top" xlink:title="KsgsM84Src.cpp">
<polygon fill="#ffffff" stroke="#000000" points="3526.5,-112.5 3526.5,-131.5 3618.5,-131.5 3618.5,-112.5 3526.5,-112.5"/>
<text text-anchor="middle" x="3572.5" y="-119.5" font-family="Helvetica,sans-Serif" font-size="10.00" fill="#000000">KsgsM84Src.cpp</text>
</a>
</g>
</g>
<!-- Node15&#45;&gt;Node88 -->
<g id="edge30" class="edge">
<title>Node15&#45;&gt;Node88</title>
<path fill="none" stroke="#191970" d="M2103.2708,-177.5064C2312.8488,-174.9567 3232.7355,-162.2143 3517.5,-132 3520.3953,-131.6928 3523.3673,-131.3203 3526.3583,-130.9019"/>
<polygon fill="#191970" stroke="#191970" points="2103.2275,-174.0066 2093.2704,-177.6268 2103.3119,-181.006 2103.2275,-174.0066"/>
</g>
<!-- Node89 -->
<g id="node28" class="node">
<title>Node89</title>
<g id="a_node28"><a xlink:href="_m_m_s_8_h.html" target="_top" xlink:title="MMS.H">
<polygon fill="#ffffff" stroke="#000000" points="228.5,-112.5 228.5,-131.5 278.5,-131.5 278.5,-112.5 228.5,-112.5"/>
<text text-anchor="middle" x="253.5" y="-119.5" font-family="Helvetica,sans-Serif" font-size="10.00" fill="#000000">MMS.H</text>
</a>
</g>
</g>
<!-- Node15&#45;&gt;Node89 -->
<g id="edge31" class="edge">
<title>Node15&#45;&gt;Node89</title>
<path fill="none" stroke="#191970" d="M2017.6104,-177.462C1764.2121,-174.2067 467.9776,-156.4616 292.5,-132 287.9309,-131.3631 283.1255,-130.3899 278.5093,-129.2961"/>
<polygon fill="#191970" stroke="#191970" points="2017.8337,-180.9651 2027.8776,-177.5933 2017.9232,-173.9656 2017.8337,-180.9651"/>
</g>
<!-- Node90 -->
<g id="node29" class="node">
<title>Node90</title>
<g id="a_node29"><a xlink:href="_m_m_s_8cpp.html" target="_top" xlink:title="MMS.cpp">
<polygon fill="#ffffff" stroke="#000000" points="250,-56.5 250,-75.5 309,-75.5 309,-56.5 250,-56.5"/>
<text text-anchor="middle" x="279.5" y="-63.5" font-family="Helvetica,sans-Serif" font-size="10.00" fill="#000000">MMS.cpp</text>
</a>
</g>
</g>
<!-- Node15&#45;&gt;Node90 -->
<g id="edge33" class="edge">
<title>Node15&#45;&gt;Node90</title>
<path fill="none" stroke="#191970" d="M2017.6995,-177.9529C1758.0231,-177.5316 402.2299,-173.3523 325.5,-132 302.8773,-119.8079 289.0111,-91.0462 283.0008,-75.8322"/>
<polygon fill="#191970" stroke="#191970" points="2017.8544,-181.453 2027.8598,-177.9683 2017.8651,-174.453 2017.8544,-181.453"/>
</g>
<!-- Node91 -->
<g id="node30" class="node">
<title>Node91</title>
<g id="a_node30"><a xlink:href="_m_m_s_forcing_8cpp.html" target="_top" xlink:title="MMSForcing.cpp">
<polygon fill="#ffffff" stroke="#000000" points="3637,-112.5 3637,-131.5 3728,-131.5 3728,-112.5 3637,-112.5"/>
<text text-anchor="middle" x="3682.5" y="-119.5" font-family="Helvetica,sans-Serif" font-size="10.00" fill="#000000">MMSForcing.cpp</text>
</a>
</g>
</g>
<!-- Node15&#45;&gt;Node91 -->
<g id="edge34" class="edge">
<title>Node15&#45;&gt;Node91</title>
<path fill="none" stroke="#191970" d="M2103.2777,-177.6157C2322.2962,-175.5153 3319.7377,-164.3099 3627.5,-132 3630.5887,-131.6757 3633.7646,-131.2763 3636.9576,-130.8255"/>
<polygon fill="#191970" stroke="#191970" points="2103.1161,-174.117 2093.1497,-177.7116 2103.1825,-181.1167 2103.1161,-174.117"/>
</g>
<!-- Node15&#45;&gt;Node92 -->
<g id="edge35" class="edge">
<title>Node15&#45;&gt;Node92</title>
<path fill="none" stroke="#191970" d="M2103.3372,-177.8219C2347.7065,-176.6744 3567.7533,-169.1452 3941.5,-132 3944.0994,-131.7417 3946.7588,-131.4326 3949.4391,-131.0859"/>
<polygon fill="#191970" stroke="#191970" points="2103.0753,-174.323 2093.0916,-177.869 2103.1075,-181.3229 2103.0753,-174.323"/>
</g>
<!-- Node93 -->
<g id="node32" class="node">
<title>Node93</title>
<g id="a_node32"><a xlink:href="_convecting_taylor_vortex_8_h.html" target="_top" xlink:title="ConvectingTaylorVortex.H">
<polygon fill="#ffffff" stroke="#000000" points="1214.5,-112.5 1214.5,-131.5 1346.5,-131.5 1346.5,-112.5 1214.5,-112.5"/>
<text text-anchor="middle" x="1280.5" y="-119.5" font-family="Helvetica,sans-Serif" font-size="10.00" fill="#000000">ConvectingTaylorVortex.H</text>
</a>
</g>
</g>
<!-- Node15&#45;&gt;Node93 -->
<g id="edge37" class="edge">
<title>Node15&#45;&gt;Node93</title>
<path fill="none" stroke="#191970" d="M2017.6984,-176.0643C1908.1886,-170.9214 1608.9541,-155.6713 1360.5,-132 1356.0412,-131.5752 1351.447,-131.1003 1346.8211,-130.5946"/>
<polygon fill="#191970" stroke="#191970" points="2017.8462,-179.5749 2027.9983,-176.5444 2018.1722,-172.5825 2017.8462,-179.5749"/>
</g>
<!-- Node94 -->
<g id="node33" class="node">
<title>Node94</title>
<g id="a_node33"><a xlink:href="_convecting_taylor_vortex_8cpp.html" target="_top" xlink:title="ConvectingTaylorVortex.cpp">
<polygon fill="#ffffff" stroke="#000000" points="1257.5,-56.5 1257.5,-75.5 1397.5,-75.5 1397.5,-56.5 1257.5,-56.5"/>
<text text-anchor="middle" x="1327.5" y="-63.5" font-family="Helvetica,sans-Serif" font-size="10.00" fill="#000000">ConvectingTaylorVortex.cpp</text>
</a>
</g>
</g>
<!-- Node15&#45;&gt;Node94 -->
<g id="edge39" class="edge">
<title>Node15&#45;&gt;Node94</title>
<path fill="none" stroke="#191970" d="M2017.4264,-176.7791C1878.8217,-172.6091 1450.0654,-157.7457 1393.5,-132 1366.3624,-119.6483 1344.1394,-90.9565 1333.7856,-75.7944"/>
<polygon fill="#191970" stroke="#191970" points="2017.5571,-180.2844 2027.6567,-177.0832 2017.7652,-173.2875 2017.5571,-180.2844"/>
</g>
<!-- Node95 -->
<g id="node34" class="node">
<title>Node95</title>
<g id="a_node34"><a xlink:href="_ekman_spiral_8_h.html" target="_top" xlink:title="EkmanSpiral.H">
<polygon fill="#ffffff" stroke="#000000" points="1834,-112.5 1834,-131.5 1917,-131.5 1917,-112.5 1834,-112.5"/>
<text text-anchor="middle" x="1875.5" y="-119.5" font-family="Helvetica,sans-Serif" font-size="10.00" fill="#000000">EkmanSpiral.H</text>
</a>
</g>
</g>
<!-- Node15&#45;&gt;Node95 -->
<g id="edge40" class="edge">
<title>Node15&#45;&gt;Node95</title>
<path fill="none" stroke="#191970" d="M2019.0603,-165.4561C1985.1009,-155.1765 1937.7703,-140.8494 1906.8876,-131.5011"/>
<polygon fill="#191970" stroke="#191970" points="2018.1122,-168.8259 2028.6974,-168.3733 2020.1403,-162.1261 2018.1122,-168.8259"/>
</g>
<!-- Node96 -->
<g id="node35" class="node">
<title>Node96</title>
<g id="a_node35"><a xlink:href="_ekman_spiral_8cpp.html" target="_top" xlink:title="EkmanSpiral.cpp">
<polygon fill="#ffffff" stroke="#000000" points="1851,-56.5 1851,-75.5 1942,-75.5 1942,-56.5 1851,-56.5"/>
<text text-anchor="middle" x="1896.5" y="-63.5" font-family="Helvetica,sans-Serif" font-size="10.00" fill="#000000">EkmanSpiral.cpp</text>
</a>
</g>
</g>
<!-- Node15&#45;&gt;Node96 -->
<g id="edge42" class="edge">
<title>Node15&#45;&gt;Node96</title>
<path fill="none" stroke="#191970" d="M2025.3962,-164.4373C2006.5346,-156.3642 1983.351,-145.1377 1964.5,-132 1940.2047,-115.068 1916.4565,-89.3173 1904.4973,-75.52"/>
<polygon fill="#191970" stroke="#191970" points="2024.2429,-167.7484 2034.8198,-168.3649 2026.9359,-161.2871 2024.2429,-167.7484"/>
</g>
<!-- Node97 -->
<g id="node36" class="node">
<title>Node97</title>
<g id="a_node36"><a xlink:href="_free_stream_8cpp.html" target="_top" xlink:title="FreeStream.cpp">
<polygon fill="#ffffff" stroke="#000000" points="334.5,-112.5 334.5,-131.5 420.5,-131.5 420.5,-112.5 334.5,-112.5"/>
<text text-anchor="middle" x="377.5" y="-119.5" font-family="Helvetica,sans-Serif" font-size="10.00" fill="#000000">FreeStream.cpp</text>
</a>
</g>
</g>
<!-- Node15&#45;&gt;Node97 -->
<g id="edge43" class="edge">
<title>Node15&#45;&gt;Node97</title>
<path fill="none" stroke="#191970" d="M2017.7717,-177.7314C1793.5049,-176.1794 750.519,-167.1603 429.5,-132 426.5757,-131.6797 423.5699,-131.2832 420.5488,-130.8346"/>
<polygon fill="#191970" stroke="#191970" points="2017.8024,-181.2316 2027.826,-177.7998 2017.8501,-174.2318 2017.8024,-181.2316"/>
</g>
<!-- Node98 -->
<g id="node37" class="node">
<title>Node98</title>
<g id="a_node37"><a xlink:href="_multi_phase_8cpp.html" target="_top" xlink:title="MultiPhase.cpp">
<polygon fill="#ffffff" stroke="#000000" points="438.5,-112.5 438.5,-131.5 522.5,-131.5 522.5,-112.5 438.5,-112.5"/>
<text text-anchor="middle" x="480.5" y="-119.5" font-family="Helvetica,sans-Serif" font-size="10.00" fill="#000000">MultiPhase.cpp</text>
</a>
</g>
</g>
<!-- Node15&#45;&gt;Node98 -->
<g id="edge44" class="edge">
<title>Node15&#45;&gt;Node98</title>
<path fill="none" stroke="#191970" d="M2017.7035,-177.6815C1801.7482,-175.9268 830.2278,-166.2345 530.5,-132 527.9494,-131.7087 525.335,-131.355 522.704,-130.9569"/>
<polygon fill="#191970" stroke="#191970" points="2017.9601,-181.1836 2027.9878,-177.7637 2018.0161,-174.1838 2017.9601,-181.1836"/>
</g>
<!-- Node99 -->
<g id="node38" class="node">
<title>Node99</title>
<g id="a_node38"><a xlink:href="_vortex_patch_8cpp.html" target="_top" xlink:title="VortexPatch.cpp">
<polygon fill="#ffffff" stroke="#000000" points="540,-112.5 540,-131.5 629,-131.5 629,-112.5 540,-112.5"/>
<text text-anchor="middle" x="584.5" y="-119.5" font-family="Helvetica,sans-Serif" font-size="10.00" fill="#000000">VortexPatch.cpp</text>
</a>
</g>
</g>
<!-- Node15&#45;&gt;Node99 -->
<g id="edge45" class="edge">
<title>Node15&#45;&gt;Node99</title>
<path fill="none" stroke="#191970" d="M2017.7783,-177.4874C1811.361,-174.8778 915.931,-162.0022 638.5,-132 635.4667,-131.672 632.3479,-131.2697 629.2125,-130.8169"/>
<polygon fill="#191970" stroke="#191970" points="2017.8704,-180.9887 2027.9134,-177.6143 2017.958,-173.9893 2017.8704,-180.9887"/>
</g>
<!-- Node100 -->
<g id="node39" class="node">
<title>Node100</title>
<g id="a_node39"><a xlink:href="_zalesak_disk_8cpp.html" target="_top" xlink:title="ZalesakDisk.cpp">
<polygon fill="#ffffff" stroke="#000000" points="647.5,-112.5 647.5,-131.5 737.5,-131.5 737.5,-112.5 647.5,-112.5"/>
<text text-anchor="middle" x="692.5" y="-119.5" font-family="Helvetica,sans-Serif" font-size="10.00" fill="#000000">ZalesakDisk.cpp</text>
</a>
</g>
</g>
<!-- Node15&#45;&gt;Node100 -->
<g id="edge46" class="edge">
<title>Node15&#45;&gt;Node100</title>
<path fill="none" stroke="#191970" d="M2017.5903,-177.3535C1820.5644,-174.2539 1001.3382,-159.9013 746.5,-132 743.5619,-131.6783 740.5435,-131.2879 737.5074,-130.8501"/>
<polygon fill="#191970" stroke="#191970" points="2017.7727,-180.8567 2027.8262,-177.5132 2017.882,-173.8576 2017.7727,-180.8567"/>
</g>
<!-- Node101 -->
<g id="node40" class="node">
<title>Node101</title>
<g id="a_node40"><a xlink:href="_rayleigh_taylor_8cpp.html" target="_top" xlink:title="RayleighTaylor.cpp">
<polygon fill="#ffffff" stroke="#000000" points="756,-112.5 756,-131.5 857,-131.5 857,-112.5 756,-112.5"/>
<text text-anchor="middle" x="806.5" y="-119.5" font-family="Helvetica,sans-Serif" font-size="10.00" fill="#000000">RayleighTaylor.cpp</text>
</a>
</g>
</g>
<!-- Node15&#45;&gt;Node101 -->
<g id="edge47" class="edge">
<title>Node15&#45;&gt;Node101</title>
<path fill="none" stroke="#191970" d="M2017.6396,-177.0951C1831.9338,-173.0594 1095.8104,-155.8494 865.5,-132 862.8132,-131.7218 860.0636,-131.3969 857.2916,-131.0378"/>
<polygon fill="#191970" stroke="#191970" points="2017.7514,-180.5982 2027.8247,-177.3151 2017.9027,-173.5998 2017.7514,-180.5982"/>
</g>
<!-- Node102 -->
<g id="node41" class="node">
<title>Node102</title>
<g id="a_node41"><a xlink:href="_taylor_green_vortex_8cpp.html" target="_top" xlink:title="TaylorGreenVortex.cpp">
<polygon fill="#ffffff" stroke="#000000" points="875,-112.5 875,-131.5 992,-131.5 992,-112.5 875,-112.5"/>
<text text-anchor="middle" x="933.5" y="-119.5" font-family="Helvetica,sans-Serif" font-size="10.00" fill="#000000">TaylorGreenVortex.cpp</text>
</a>
</g>
</g>
<!-- Node15&#45;&gt;Node102 -->
<g id="edge48" class="edge">
<title>Node15&#45;&gt;Node102</title>
<path fill="none" stroke="#191970" d="M2017.7218,-177.7501C1873.863,-176.5671 1394.4843,-169.8455 1000.5,-132 997.8074,-131.7414 995.0578,-131.4485 992.2832,-131.1296"/>
<polygon fill="#191970" stroke="#191970" points="2017.8582,-181.2511 2027.8851,-177.8289 2017.9126,-174.2514 2017.8582,-181.2511"/>
</g>
<!-- Node103 -->
<g id="node42" class="node">
<title>Node103</title>
<g id="a_node42"><a xlink:href="_turb_model_8_h.html" target="_top" xlink:title="TurbModel.H">
<polygon fill="#ffffff" stroke="#ff0000" points="1010,-112.5 1010,-131.5 1083,-131.5 1083,-112.5 1010,-112.5"/>
<text text-anchor="middle" x="1046.5" y="-119.5" font-family="Helvetica,sans-Serif" font-size="10.00" fill="#000000">TurbModel.H</text>
</a>
</g>
</g>
<!-- Node15&#45;&gt;Node103 -->
<g id="edge49" class="edge">
<title>Node15&#45;&gt;Node103</title>
<path fill="none" stroke="#191970" d="M2017.5002,-176.939C1854.4695,-172.7638 1274.4449,-156.4859 1091.5,-132 1088.803,-131.639 1086.0286,-131.1975 1083.245,-130.7033"/>
<polygon fill="#191970" stroke="#191970" points="2017.5414,-180.441 2027.6271,-177.1964 2017.7193,-173.4433 2017.5414,-180.441"/>
</g>
<!-- Node106 -->
<g id="node43" class="node">
<title>Node106</title>
<g id="a_node43"><a xlink:href="turbulence__utils_8_h.html" target="_top" xlink:title="turbulence_utils.H">
<polygon fill="#ffffff" stroke="#000000" points="1101,-112.5 1101,-131.5 1196,-131.5 1196,-112.5 1101,-112.5"/>
<text text-anchor="middle" x="1148.5" y="-119.5" font-family="Helvetica,sans-Serif" font-size="10.00" fill="#000000">turbulence_utils.H</text>
</a>
</g>
</g>
<!-- Node15&#45;&gt;Node106 -->
<g id="edge50" class="edge">
<title>Node15&#45;&gt;Node106</title>
<path fill="none" stroke="#191970" d="M2017.4354,-177.5059C1891.8814,-175.674 1515.4805,-167.4007 1205.5,-132 1202.4056,-131.6466 1199.2247,-131.2322 1196.0238,-130.7766"/>
<polygon fill="#191970" stroke="#191970" points="2017.7185,-181.0101 2027.7664,-177.6502 2017.8163,-174.0108 2017.7185,-181.0101"/>
</g>
<!-- Node111 -->
<g id="node44" class="node">
<title>Node111</title>
<g id="a_node44"><a xlink:href="_derived_quantity_8_h.html" target="_top" xlink:title="DerivedQuantity.H">
<polygon fill="#ffffff" stroke="#ff0000" points="1973.5,-112.5 1973.5,-131.5 2071.5,-131.5 2071.5,-112.5 1973.5,-112.5"/>
<text text-anchor="middle" x="2022.5" y="-119.5" font-family="Helvetica,sans-Serif" font-size="10.00" fill="#000000">DerivedQuantity.H</text>
</a>
</g>
</g>
<!-- Node15&#45;&gt;Node111 -->
<g id="edge51" class="edge">
<title>Node15&#45;&gt;Node111</title>
<path fill="none" stroke="#191970" d="M2048.2321,-159.9209C2041.8512,-150.5176 2034.3069,-139.3997 2029.0432,-131.6427"/>
<polygon fill="#191970" stroke="#191970" points="2045.3697,-161.936 2053.8809,-168.2455 2051.162,-158.0055 2045.3697,-161.936"/>
</g>
<!-- Node114 -->
<g id="node45" class="node">
<title>Node114</title>
<g id="a_node45"><a xlink:href="_i_o_manager_8cpp.html" target="_top" xlink:title="IOManager.cpp">
<polygon fill="#ffffff" stroke="#000000" points="2003,-56.5 2003,-75.5 2086,-75.5 2086,-56.5 2003,-56.5"/>
<text text-anchor="middle" x="2044.5" y="-63.5" font-family="Helvetica,sans-Serif" font-size="10.00" fill="#000000">IOManager.cpp</text>
</a>
</g>
</g>
<!-- Node15&#45;&gt;Node114 -->
<g id="edge53" class="edge">
<title>Node15&#45;&gt;Node114</title>
<path fill="none" stroke="#191970" d="M2072.461,-159.3924C2079.4686,-146.1038 2085.9643,-127.8483 2080.5,-112 2075.5417,-97.6192 2064.0343,-84.2981 2055.3548,-75.7321"/>
<polygon fill="#191970" stroke="#191970" points="2069.41,-157.6769 2067.4316,-168.0854 2075.469,-161.1824 2069.41,-157.6769"/>
</g>
<!-- Node115 -->
<g id="node46" class="node">
<title>Node115</title>
<g id="a_node46"><a xlink:href="_post_processing_8cpp.html" target="_top" xlink:title="PostProcessing.cpp">
<polygon fill="#ffffff" stroke="#000000" points="1402.5,-112.5 1402.5,-131.5 1506.5,-131.5 1506.5,-112.5 1402.5,-112.5"/>
<text text-anchor="middle" x="1454.5" y="-119.5" font-family="Helvetica,sans-Serif" font-size="10.00" fill="#000000">PostProcessing.cpp</text>
</a>
</g>
</g>
<!-- Node15&#45;&gt;Node115 -->
<g id="edge54" class="edge">
<title>Node15&#45;&gt;Node115</title>
<path fill="none" stroke="#191970" d="M2017.8072,-175.5378C1925.7818,-169.98 1701.9628,-155.1169 1515.5,-132 1512.6245,-131.6435 1509.677,-131.251 1506.7046,-130.834"/>
<polygon fill="#191970" stroke="#191970" points="2017.6588,-179.0351 2027.8501,-176.1388 2018.0771,-172.0476 2017.6588,-179.0351"/>
</g>
<!-- Node116 -->
<g id="node47" class="node">
<title>Node116</title>
<g id="a_node47"><a xlink:href="_line_sampler_8cpp.html" target="_top" xlink:title="LineSampler.cpp">
<polygon fill="#ffffff" stroke="#000000" points="1525,-112.5 1525,-131.5 1614,-131.5 1614,-112.5 1525,-112.5"/>
<text text-anchor="middle" x="1569.5" y="-119.5" font-family="Helvetica,sans-Serif" font-size="10.00" fill="#000000">LineSampler.cpp</text>
</a>
</g>
</g>
<!-- Node15&#45;&gt;Node116 -->
<g id="edge55" class="edge">
<title>Node15&#45;&gt;Node116</title>
<path fill="none" stroke="#191970" d="M2017.9846,-174.699C1939.5604,-168.3516 1766.9393,-153.1748 1622.5,-132 1619.8132,-131.6061 1617.0551,-131.1732 1614.2761,-130.715"/>
<polygon fill="#191970" stroke="#191970" points="2017.7191,-178.1888 2027.9671,-175.5003 2018.2792,-171.2113 2017.7191,-178.1888"/>
</g>
<!-- Node117 -->
<g id="node48" class="node">
<title>Node117</title>
<g id="a_node48"><a xlink:href="_probe_sampler_8cpp.html" target="_top" xlink:title="ProbeSampler.cpp">
<polygon fill="#ffffff" stroke="#000000" points="1632,-112.5 1632,-131.5 1729,-131.5 1729,-112.5 1632,-112.5"/>
<text text-anchor="middle" x="1680.5" y="-119.5" font-family="Helvetica,sans-Serif" font-size="10.00" fill="#000000">ProbeSampler.cpp</text>
</a>
</g>
</g>
<!-- Node15&#45;&gt;Node117 -->
<g id="edge56" class="edge">
<title>Node15&#45;&gt;Node117</title>
<path fill="none" stroke="#191970" d="M2017.3826,-172.2427C1955.5522,-163.8953 1838.1621,-147.7069 1738.5,-132 1735.472,-131.5228 1732.3571,-131.0201 1729.2174,-130.5044"/>
<polygon fill="#191970" stroke="#191970" points="2017.1637,-175.7447 2027.5414,-173.6111 2018.0982,-168.8074 2017.1637,-175.7447"/>
</g>
<!-- Node118 -->
<g id="node49" class="node">
<title>Node118</title>
<g id="a_node49"><a xlink:href="_sampling_8_h.html" target="_top" xlink:title="Sampling.H">
<polygon fill="#ffffff" stroke="#ff0000" points="1747.5,-112.5 1747.5,-131.5 1815.5,-131.5 1815.5,-112.5 1747.5,-112.5"/>
<text text-anchor="middle" x="1781.5" y="-119.5" font-family="Helvetica,sans-Serif" font-size="10.00" fill="#000000">Sampling.H</text>
</a>
</g>
</g>
<!-- Node15&#45;&gt;Node118 -->
<g id="edge57" class="edge">
<title>Node15&#45;&gt;Node118</title>
<path fill="none" stroke="#191970" d="M2018.0868,-170.2089C1970.774,-161.4072 1892.0056,-146.4235 1824.5,-132 1821.6518,-131.3914 1818.7017,-130.7432 1815.7427,-130.0805"/>
<polygon fill="#191970" stroke="#191970" points="2017.5058,-173.6608 2027.9766,-172.0439 2018.7829,-166.7783 2017.5058,-173.6608"/>
</g>
<!-- Node16&#45;&gt;Node20 -->
<g id="edge3" class="edge">
<title>Node16&#45;&gt;Node20</title>
<path fill="none" stroke="#191970" d="M3800.3604,-103.0437C3795.9195,-93.8331 3790.7735,-83.1598 3787.1491,-75.6427"/>
<polygon fill="#191970" stroke="#191970" points="3797.3012,-104.7579 3804.797,-112.2455 3803.6066,-101.7178 3797.3012,-104.7579"/>
</g>
<!-- Node16&#45;&gt;Node21 -->
<g id="edge4" class="edge">
<title>Node16&#45;&gt;Node21</title>
<path fill="none" stroke="#191970" d="M3844.4489,-111.1871C3877.7859,-100.8729 3927.524,-85.4843 3959.4879,-75.5949"/>
<polygon fill="#191970" stroke="#191970" points="3843.186,-107.9141 3834.6673,-114.2134 3845.255,-114.6013 3843.186,-107.9141"/>
</g>
<!-- Node36&#45;&gt;Node41 -->
<g id="edge6" class="edge">
<title>Node36&#45;&gt;Node41</title>
<path fill="none" stroke="#191970" d="M2245.3429,-50.49C2231.228,-40.6096 2213.3849,-28.1194 2201.2752,-19.6427"/>
<polygon fill="#191970" stroke="#191970" points="2243.3656,-53.3782 2253.5651,-56.2455 2247.3799,-47.6436 2243.3656,-53.3782"/>
</g>
<!-- Node36&#45;&gt;Node43 -->
<g id="edge7" class="edge">
<title>Node36&#45;&gt;Node43</title>
<path fill="none" stroke="#191970" d="M2284.1226,-49.0751C2293.5855,-39.4402 2305.0969,-27.7196 2313.0295,-19.6427"/>
<polygon fill="#191970" stroke="#191970" points="2281.5903,-46.6585 2277.0803,-56.2455 2286.5845,-51.5635 2281.5903,-46.6585"/>
</g>
<!-- Node44&#45;&gt;Node36 -->
<g id="edge9" class="edge">
<title>Node44&#45;&gt;Node36</title>
<path fill="none" stroke="#191970" d="M2237.4769,-104.2112C2244.9129,-94.7472 2253.766,-83.4797 2259.9236,-75.6427"/>
<polygon fill="#191970" stroke="#191970" points="2234.5903,-102.22 2231.1642,-112.2455 2240.0946,-106.5447 2234.5903,-102.22"/>
</g>
<!-- Node44&#45;&gt;Node41 -->
<g id="edge10" class="edge">
<title>Node44&#45;&gt;Node41</title>
<path fill="none" stroke="#191970" d="M2216.6063,-102.7407C2213.7166,-94.5263 2210.3689,-84.8197 2207.5,-76 2201.0558,-56.1889 2194.1322,-32.8182 2190.3579,-19.8789"/>
<polygon fill="#191970" stroke="#191970" points="2213.3088,-103.9142 2219.9509,-112.1685 2219.9059,-101.5737 2213.3088,-103.9142"/>
</g>
<!-- Node50&#45;&gt;Node51 -->
<g id="edge12" class="edge">
<title>Node50&#45;&gt;Node51</title>
<path fill="none" stroke="#191970" d="M2688.7568,-110.5654C2744.0859,-100.2373 2824.5678,-85.214 2876.4803,-75.5237"/>
<polygon fill="#191970" stroke="#191970" points="2687.9189,-107.1613 2678.731,-112.4369 2689.2034,-114.0424 2687.9189,-107.1613"/>
</g>
<!-- Node55&#45;&gt;Node69 -->
<g id="edge16" class="edge">
<title>Node55&#45;&gt;Node69</title>
<path fill="none" stroke="#191970" d="M139.5,-102.1575C139.5,-93.155 139.5,-82.9199 139.5,-75.6427"/>
<polygon fill="#191970" stroke="#191970" points="136.0001,-102.2455 139.5,-112.2455 143.0001,-102.2456 136.0001,-102.2455"/>
</g>
<!-- Node70 -->
<g id="node15" class="node">
<title>Node70</title>
<g id="a_node15"><a xlink:href="density_8_h.html" target="_top" xlink:title="density.H">
<polygon fill="#ffffff" stroke="#ff0000" points="146,-.5 146,-19.5 205,-19.5 205,-.5 146,-.5"/>
<text text-anchor="middle" x="175.5" y="-7.5" font-family="Helvetica,sans-Serif" font-size="10.00" fill="#000000">density.H</text>
</a>
</g>
</g>
<!-- Node69&#45;&gt;Node70 -->
<g id="edge17" class="edge">
<title>Node69&#45;&gt;Node70</title>
<path fill="none" stroke="#191970" d="M151.3096,-47.6296C157.3144,-38.2887 164.3659,-27.3197 169.3011,-19.6427"/>
<polygon fill="#191970" stroke="#191970" points="148.2342,-45.9411 145.7707,-56.2455 154.1225,-49.7264 148.2342,-45.9411"/>
</g>
<!-- Node72 -->
<g id="node16" class="node">
<title>Node72</title>
<g id="a_node16"><a xlink:href="icns_8_h.html" target="_top" xlink:title="icns.H">
<polygon fill="#ffffff" stroke="#ff0000" points="223,-.5 223,-19.5 268,-19.5 268,-.5 223,-.5"/>
<text text-anchor="middle" x="245.5" y="-7.5" font-family="Helvetica,sans-Serif" font-size="10.00" fill="#000000">icns.H</text>
</a>
</g>
</g>
<!-- Node69&#45;&gt;Node72 -->
<g id="edge18" class="edge">
<title>Node69&#45;&gt;Node72</title>
<path fill="none" stroke="#191970" d="M167.0222,-51.46C185.9908,-41.4388 210.6727,-28.3993 227.2478,-19.6427"/>
<polygon fill="#191970" stroke="#191970" points="165.1708,-48.4796 157.9638,-56.2455 168.4407,-54.669 165.1708,-48.4796"/>
</g>
<!-- Node74 -->
<g id="node17" class="node">
<title>Node74</title>
<g id="a_node17"><a xlink:href="levelset_8_h.html" target="_top" xlink:title="levelset.H">
<polygon fill="#ffffff" stroke="#ff0000" points="0,-.5 0,-19.5 61,-19.5 61,-.5 0,-.5"/>
<text text-anchor="middle" x="30.5" y="-7.5" font-family="Helvetica,sans-Serif" font-size="10.00" fill="#000000">levelset.H</text>
</a>
</g>
</g>
<!-- Node69&#45;&gt;Node74 -->
<g id="edge19" class="edge">
<title>Node69&#45;&gt;Node74</title>
<path fill="none" stroke="#191970" d="M111.4658,-51.5971C91.9254,-41.558 66.3908,-28.4393 49.2688,-19.6427"/>
<polygon fill="#191970" stroke="#191970" points="110.0194,-54.7889 120.5136,-56.2455 113.2183,-48.5625 110.0194,-54.7889"/>
</g>
<!-- Node76 -->
<g id="node18" class="node">
<title>Node76</title>
<g id="a_node18"><a xlink:href="_s_d_r_8_h.html" target="_top" xlink:title="SDR.H">
<polygon fill="#ffffff" stroke="#ff0000" points="79,-.5 79,-19.5 128,-19.5 128,-.5 79,-.5"/>
<text text-anchor="middle" x="103.5" y="-7.5" font-family="Helvetica,sans-Serif" font-size="10.00" fill="#000000">SDR.H</text>
</a>
</g>
</g>
<!-- Node69&#45;&gt;Node76 -->
<g id="edge20" class="edge">
<title>Node69&#45;&gt;Node76</title>
<path fill="none" stroke="#191970" d="M127.6904,-47.6296C121.6856,-38.2887 114.6341,-27.3197 109.6989,-19.6427"/>
<polygon fill="#191970" stroke="#191970" points="124.8775,-49.7264 133.2293,-56.2455 130.7658,-45.9411 124.8775,-49.7264"/>
</g>
<!-- Node89&#45;&gt;Node90 -->
<g id="edge32" class="edge">
<title>Node89&#45;&gt;Node90</title>
<path fill="none" stroke="#191970" d="M262.3011,-103.0437C266.5775,-93.8331 271.533,-83.1598 275.023,-75.6427"/>
<polygon fill="#191970" stroke="#191970" points="259.0655,-101.7015 258.0289,-112.2455 265.4146,-104.6494 259.0655,-101.7015"/>
</g>
<!-- Node93&#45;&gt;Node94 -->
<g id="edge38" class="edge">
<title>Node93&#45;&gt;Node94</title>
<path fill="none" stroke="#191970" d="M1295.1872,-104.5004C1303.1796,-94.9775 1312.7625,-83.5596 1319.407,-75.6427"/>
<polygon fill="#191970" stroke="#191970" points="1292.4346,-102.3357 1288.6868,-112.2455 1297.7964,-106.8358 1292.4346,-102.3357"/>
</g>
<!-- Node95&#45;&gt;Node96 -->
<g id="edge41" class="edge">
<title>Node95&#45;&gt;Node96</title>
<path fill="none" stroke="#191970" d="M1882.719,-102.7493C1886.1476,-93.6064 1890.0951,-83.0798 1892.884,-75.6427"/>
<polygon fill="#191970" stroke="#191970" points="1879.3921,-101.6533 1879.1579,-112.2455 1885.9464,-104.1112 1879.3921,-101.6533"/>
</g>
<!-- Node111&#45;&gt;Node114 -->
<g id="edge52" class="edge">
<title>Node111&#45;&gt;Node114</title>
<path fill="none" stroke="#191970" d="M2030.0628,-102.7493C2033.6546,-93.6064 2037.7901,-83.0798 2040.7118,-75.6427"/>
<polygon fill="#191970" stroke="#191970" points="2026.7311,-101.6582 2026.3321,-112.2455 2033.2463,-104.2178 2026.7311,-101.6582"/>
</g>
</g>
</svg>
