<?xml version="1.0" encoding="UTF-8" standalone="no"?>
<!DOCTYPE svg PUBLIC "-//W3C//DTD SVG 1.1//EN"
 "http://www.w3.org/Graphics/SVG/1.1/DTD/svg11.dtd">
<!-- Generated by graphviz version 2.40.1 (20161225.0304)
 -->
<!-- Title: PDE.H Pages: 1 -->
<!--zoomable 196 -->
<svg id="main" version="1.1" xmlns="http://www.w3.org/2000/svg" xmlns:xlink="http://www.w3.org/1999/xlink" xml:space="preserve" onload="init(evt)">
<style type="text/css"><![CDATA[
.edge:hover path { stroke: red; }
.edge:hover polygon { stroke: red; fill: red; }
]]></style>
<script type="text/javascript"><![CDATA[
var edges = document.getElementsByTagName('g');
if (edges && edges.length) {
  for (var i=0;i<edges.length;i++) {
    if (edges[i].id.substr(0,4)=='edge') {
      edges[i].setAttribute('class','edge');
    }
  }
}
]]></script>
        <defs>
                <circle id="rim" cx="0" cy="0" r="7"/>
                <circle id="rim2" cx="0" cy="0" r="3.5"/>
                <g id="zoomPlus">
                        <use xlink:href="#rim" fill="#404040">
                                <set attributeName="fill" to="#808080" begin="zoomplus.mouseover" end="zoomplus.mouseout"/>
                        </use>
                        <path d="M-4,0h8M0,-4v8" fill="none" stroke="white" stroke-width="1.5" pointer-events="none"/>
                </g>
                <g id="zoomMin">
                        <use xlink:href="#rim" fill="#404040">
                                <set attributeName="fill" to="#808080" begin="zoomminus.mouseover" end="zoomminus.mouseout"/>
                        </use>
                        <path d="M-4,0h8" fill="none" stroke="white" stroke-width="1.5" pointer-events="none"/>
                </g>
                <g id="dirArrow">
                        <path fill="none" stroke="white" stroke-width="1.5" d="M0,-3.0v7 M-2.5,-0.5L0,-3.0L2.5,-0.5"/>
                </g>
               <g id="resetDef">
                       <use xlink:href="#rim2" fill="#404040">
                               <set attributeName="fill" to="#808080" begin="reset.mouseover" end="reset.mouseout"/>
                       </use>
               </g>
        </defs>

<script type="text/javascript">
var viewWidth = 1059;
var viewHeight = 196;
var sectionId = 'dynsection-1';
</script>
<script xlink:href="svgpan.js"/>
<svg id="graph" class="graph">
<g id="viewport">
<title>PDE.H</title>
<polygon fill="#ffffff" stroke="transparent" points="-4,4 -4,-192 1054.5,-192 1054.5,4 -4,4"/>
<!-- Node56 -->
<g id="node1" class="node">
<title>Node56</title>
<polygon fill="#bfbfbf" stroke="#000000" points="669.5,-168.5 669.5,-187.5 717.5,-187.5 717.5,-168.5 669.5,-168.5"/>
<text text-anchor="middle" x="693.5" y="-175.5" font-family="Helvetica,sans-Serif" font-size="10.00" fill="#000000">PDE.H</text>
</g>
<!-- Node57 -->
<g id="node2" class="node">
<title>Node57</title>
<g id="a_node2"><a xlink:href="density_8_h.html" target="_top" xlink:title="density.H">
<polygon fill="#ffffff" stroke="#000000" points="38,-112.5 38,-131.5 97,-131.5 97,-112.5 38,-112.5"/>
<text text-anchor="middle" x="67.5" y="-119.5" font-family="Helvetica,sans-Serif" font-size="10.00" fill="#000000">density.H</text>
</a>
</g>
</g>
<!-- Node56&#45;&gt;Node57 -->
<g id="edge1" class="edge">
<title>Node56&#45;&gt;Node57</title>
<path fill="none" stroke="#191970" d="M659.0627,-174.9193C548.1153,-164.9943 201.2079,-133.9611 97.2389,-124.6604"/>
<polygon fill="#191970" stroke="#191970" points="659.0715,-178.434 669.3436,-175.839 659.6953,-171.4619 659.0715,-178.434"/>
</g>
<!-- Node60 -->
<g id="node5" class="node">
<title>Node60</title>
<g id="a_node5"><a xlink:href="icns_8_h.html" target="_top" xlink:title="icns.H">
<polygon fill="#ffffff" stroke="#000000" points="326,-112.5 326,-131.5 371,-131.5 371,-112.5 326,-112.5"/>
<text text-anchor="middle" x="348.5" y="-119.5" font-family="Helvetica,sans-Serif" font-size="10.00" fill="#000000">icns.H</text>
</a>
</g>
</g>
<!-- Node56&#45;&gt;Node60 -->
<g id="edge5" class="edge">
<title>Node56&#45;&gt;Node60</title>
<path fill="none" stroke="#191970" d="M659.1463,-172.4237C588.9134,-161.0236 430.5373,-135.3162 371.3701,-125.7123"/>
<polygon fill="#191970" stroke="#191970" points="658.8087,-175.9147 669.2403,-174.0622 659.9303,-169.0051 658.8087,-175.9147"/>
</g>
<!-- Node67 -->
<g id="node12" class="node">
<title>Node67</title>
<g id="a_node12"><a xlink:href="levelset_8_h.html" target="_top" xlink:title="levelset.H">
<polygon fill="#ffffff" stroke="#000000" points="619,-112.5 619,-131.5 680,-131.5 680,-112.5 619,-112.5"/>
<text text-anchor="middle" x="649.5" y="-119.5" font-family="Helvetica,sans-Serif" font-size="10.00" fill="#000000">levelset.H</text>
</a>
</g>
</g>
<!-- Node56&#45;&gt;Node67 -->
<g id="edge15" class="edge">
<title>Node56&#45;&gt;Node67</title>
<path fill="none" stroke="#191970" d="M679.5231,-160.2112C672.0871,-150.7472 663.234,-139.4797 657.0764,-131.6427"/>
<polygon fill="#191970" stroke="#191970" points="676.9054,-162.5447 685.8358,-168.2455 682.4097,-158.22 676.9054,-162.5447"/>
</g>
<!-- Node70 -->
<g id="node15" class="node">
<title>Node70</title>
<g id="a_node15"><a xlink:href="_s_d_r_8_h.html" target="_top" xlink:title="SDR.H">
<polygon fill="#ffffff" stroke="#000000" points="706,-112.5 706,-131.5 755,-131.5 755,-112.5 706,-112.5"/>
<text text-anchor="middle" x="730.5" y="-119.5" font-family="Helvetica,sans-Serif" font-size="10.00" fill="#000000">SDR.H</text>
</a>
</g>
</g>
<!-- Node56&#45;&gt;Node70 -->
<g id="edge19" class="edge">
<title>Node56&#45;&gt;Node70</title>
<path fill="none" stroke="#191970" d="M705.6376,-159.6296C711.8093,-150.2887 719.0566,-139.3197 724.1289,-131.6427"/>
<polygon fill="#191970" stroke="#191970" points="702.5373,-157.9728 699.9449,-168.2455 708.3777,-161.8316 702.5373,-157.9728"/>
</g>
<!-- Node72 -->
<g id="node17" class="node">
<title>Node72</title>
<g id="a_node17"><a xlink:href="temperature_8_h.html" target="_top" xlink:title="temperature.H">
<polygon fill="#ffffff" stroke="#000000" points="781,-112.5 781,-131.5 860,-131.5 860,-112.5 781,-112.5"/>
<text text-anchor="middle" x="820.5" y="-119.5" font-family="Helvetica,sans-Serif" font-size="10.00" fill="#000000">temperature.H</text>
</a>
</g>
</g>
<!-- Node56&#45;&gt;Node72 -->
<g id="edge21" class="edge">
<title>Node56&#45;&gt;Node72</title>
<path fill="none" stroke="#191970" d="M724.6892,-164.2473C747.7537,-154.0771 778.5712,-140.4883 798.9528,-131.5011"/>
<polygon fill="#191970" stroke="#191970" points="723.0699,-161.1361 715.3321,-168.3733 725.8942,-167.5411 723.0699,-161.1361"/>
</g>
<!-- Node74 -->
<g id="node19" class="node">
<title>Node74</title>
<g id="a_node19"><a xlink:href="_t_k_e_8_h.html" target="_top" xlink:title="TKE.H">
<polygon fill="#ffffff" stroke="#000000" points="893,-112.5 893,-131.5 940,-131.5 940,-112.5 893,-112.5"/>
<text text-anchor="middle" x="916.5" y="-119.5" font-family="Helvetica,sans-Serif" font-size="10.00" fill="#000000">TKE.H</text>
</a>
</g>
</g>
<!-- Node56&#45;&gt;Node74 -->
<g id="edge23" class="edge">
<title>Node56&#45;&gt;Node74</title>
<path fill="none" stroke="#191970" d="M727.5393,-169.452C773.2503,-157.973 853.2968,-137.8716 892.9137,-127.923"/>
<polygon fill="#191970" stroke="#191970" points="726.6358,-166.0701 717.7894,-171.9004 728.3408,-172.8594 726.6358,-166.0701"/>
</g>
<!-- Node58 -->
<g id="node3" class="node">
<title>Node58</title>
<g id="a_node3"><a xlink:href="density_8cpp.html" target="_top" xlink:title="density.cpp">
<polygon fill="#ffffff" stroke="#000000" points="0,-.5 0,-19.5 67,-19.5 67,-.5 0,-.5"/>
<text text-anchor="middle" x="33.5" y="-7.5" font-family="Helvetica,sans-Serif" font-size="10.00" fill="#000000">density.cpp</text>
</a>
</g>
</g>
<!-- Node57&#45;&gt;Node58 -->
<g id="edge2" class="edge">
<title>Node57&#45;&gt;Node58</title>
<path fill="none" stroke="#191970" d="M43.5955,-106.2861C33.8842,-98.4665 23.7337,-88.0919 18.5,-76 10.2852,-57.0206 20.4556,-32.9426 27.6143,-19.7472"/>
<polygon fill="#191970" stroke="#191970" points="41.7766,-109.2962 51.882,-112.4791 45.9671,-103.6891 41.7766,-109.2962"/>
</g>
<!-- Node59 -->
<g id="node4" class="node">
<title>Node59</title>
<g id="a_node4"><a xlink:href="density__ops_8_h.html" target="_top" xlink:title="density_ops.H">
<polygon fill="#ffffff" stroke="#000000" points="27.5,-56.5 27.5,-75.5 107.5,-75.5 107.5,-56.5 27.5,-56.5"/>
<text text-anchor="middle" x="67.5" y="-63.5" font-family="Helvetica,sans-Serif" font-size="10.00" fill="#000000">density_ops.H</text>
</a>
</g>
</g>
<!-- Node57&#45;&gt;Node59 -->
<g id="edge3" class="edge">
<title>Node57&#45;&gt;Node59</title>
<path fill="none" stroke="#191970" d="M67.5,-102.1575C67.5,-93.155 67.5,-82.9199 67.5,-75.6427"/>
<polygon fill="#191970" stroke="#191970" points="64.0001,-102.2455 67.5,-112.2455 71.0001,-102.2456 64.0001,-102.2455"/>
</g>
<!-- Node59&#45;&gt;Node58 -->
<g id="edge4" class="edge">
<title>Node59&#45;&gt;Node58</title>
<path fill="none" stroke="#191970" d="M56.3465,-47.6296C50.6753,-38.2887 44.0155,-27.3197 39.3545,-19.6427"/>
<polygon fill="#191970" stroke="#191970" points="53.3961,-49.5141 61.5777,-56.2455 59.3796,-45.8812 53.3961,-49.5141"/>
</g>
<!-- Node61 -->
<g id="node6" class="node">
<title>Node61</title>
<g id="a_node6"><a xlink:href="icns_8cpp.html" target="_top" xlink:title="icns.cpp">
<polygon fill="#ffffff" stroke="#000000" points="229,-.5 229,-19.5 282,-19.5 282,-.5 229,-.5"/>
<text text-anchor="middle" x="255.5" y="-7.5" font-family="Helvetica,sans-Serif" font-size="10.00" fill="#000000">icns.cpp</text>
</a>
</g>
</g>
<!-- Node60&#45;&gt;Node61 -->
<g id="edge6" class="edge">
<title>Node60&#45;&gt;Node61</title>
<path fill="none" stroke="#191970" d="M315.7148,-119.0518C265.7486,-113.804 174.2415,-100.9698 154.5,-76 130.9214,-46.1768 191.5451,-25.4665 228.8268,-15.9382"/>
<polygon fill="#191970" stroke="#191970" points="315.4054,-122.5383 325.7058,-120.0581 316.1069,-115.5735 315.4054,-122.5383"/>
</g>
<!-- Node62 -->
<g id="node7" class="node">
<title>Node62</title>
<g id="a_node7"><a xlink:href="icns__ops_8_h.html" target="_top" xlink:title="icns_ops.H">
<polygon fill="#ffffff" stroke="#000000" points="358.5,-56.5 358.5,-75.5 424.5,-75.5 424.5,-56.5 358.5,-56.5"/>
<text text-anchor="middle" x="391.5" y="-63.5" font-family="Helvetica,sans-Serif" font-size="10.00" fill="#000000">icns_ops.H</text>
</a>
</g>
</g>
<!-- Node60&#45;&gt;Node62 -->
<g id="edge7" class="edge">
<title>Node60&#45;&gt;Node62</title>
<path fill="none" stroke="#191970" d="M362.1592,-104.2112C369.4263,-94.7472 378.0781,-83.4797 384.0958,-75.6427"/>
<polygon fill="#191970" stroke="#191970" points="359.3043,-102.1824 355.99,-112.2455 364.8564,-106.4456 359.3043,-102.1824"/>
</g>
<!-- Node64 -->
<g id="node9" class="node">
<title>Node64</title>
<g id="a_node9"><a xlink:href="icns__diffusion_8_h.html" target="_top" xlink:title="icns_diffusion.H">
<polygon fill="#ffffff" stroke="#000000" points="164,-56.5 164,-75.5 251,-75.5 251,-56.5 164,-56.5"/>
<text text-anchor="middle" x="207.5" y="-63.5" font-family="Helvetica,sans-Serif" font-size="10.00" fill="#000000">icns_diffusion.H</text>
</a>
</g>
</g>
<!-- Node60&#45;&gt;Node64 -->
<g id="edge10" class="edge">
<title>Node60&#45;&gt;Node64</title>
<path fill="none" stroke="#191970" d="M316.4837,-109.2843C290.6666,-99.0307 254.9221,-84.8343 231.5136,-75.5373"/>
<polygon fill="#191970" stroke="#191970" points="315.2601,-112.5642 325.8459,-113.0026 317.844,-106.0586 315.2601,-112.5642"/>
</g>
<!-- Node65 -->
<g id="node10" class="node">
<title>Node65</title>
<g id="a_node10"><a xlink:href="icns__bcop_8_h.html" target="_top" xlink:title="icns_bcop.H">
<polygon fill="#ffffff" stroke="#000000" points="269,-56.5 269,-75.5 340,-75.5 340,-56.5 269,-56.5"/>
<text text-anchor="middle" x="304.5" y="-63.5" font-family="Helvetica,sans-Serif" font-size="10.00" fill="#000000">icns_bcop.H</text>
</a>
</g>
</g>
<!-- Node60&#45;&gt;Node65 -->
<g id="edge12" class="edge">
<title>Node60&#45;&gt;Node65</title>
<path fill="none" stroke="#191970" d="M334.5231,-104.2112C327.0871,-94.7472 318.234,-83.4797 312.0764,-75.6427"/>
<polygon fill="#191970" stroke="#191970" points="331.9054,-106.5447 340.8358,-112.2455 337.4097,-102.22 331.9054,-106.5447"/>
</g>
<!-- Node66 -->
<g id="node11" class="node">
<title>Node66</title>
<g id="a_node11"><a xlink:href="_power_law_profile_8cpp.html" target="_top" xlink:title="PowerLawProfile.cpp">
<polygon fill="#ffffff" stroke="#000000" points="443,-56.5 443,-75.5 552,-75.5 552,-56.5 443,-56.5"/>
<text text-anchor="middle" x="497.5" y="-63.5" font-family="Helvetica,sans-Serif" font-size="10.00" fill="#000000">PowerLawProfile.cpp</text>
</a>
</g>
</g>
<!-- Node60&#45;&gt;Node66 -->
<g id="edge14" class="edge">
<title>Node60&#45;&gt;Node66</title>
<path fill="none" stroke="#191970" d="M380.6624,-109.9121C408.0674,-99.6123 446.9136,-85.0123 472.1583,-75.5244"/>
<polygon fill="#191970" stroke="#191970" points="379.2592,-106.7004 371.1299,-113.4948 381.722,-113.2529 379.2592,-106.7004"/>
</g>
<!-- Node62&#45;&gt;Node61 -->
<g id="edge8" class="edge">
<title>Node62&#45;&gt;Node61</title>
<path fill="none" stroke="#191970" d="M358.7601,-52.5189C333.9917,-42.3201 300.595,-28.5685 278.5742,-19.5011"/>
<polygon fill="#191970" stroke="#191970" points="357.5413,-55.8021 368.1208,-56.3733 360.2066,-49.3293 357.5413,-55.8021"/>
</g>
<!-- Node63 -->
<g id="node8" class="node">
<title>Node63</title>
<g id="a_node8"><a xlink:href="icns__ops_8cpp.html" target="_top" xlink:title="icns_ops.cpp">
<polygon fill="#ffffff" stroke="#000000" points="354.5,-.5 354.5,-19.5 428.5,-19.5 428.5,-.5 354.5,-.5"/>
<text text-anchor="middle" x="391.5" y="-7.5" font-family="Helvetica,sans-Serif" font-size="10.00" fill="#000000">icns_ops.cpp</text>
</a>
</g>
</g>
<!-- Node62&#45;&gt;Node63 -->
<g id="edge9" class="edge">
<title>Node62&#45;&gt;Node63</title>
<path fill="none" stroke="#191970" d="M391.5,-46.1575C391.5,-37.155 391.5,-26.9199 391.5,-19.6427"/>
<polygon fill="#191970" stroke="#191970" points="388.0001,-46.2455 391.5,-56.2455 395.0001,-46.2456 388.0001,-46.2455"/>
</g>
<!-- Node64&#45;&gt;Node61 -->
<g id="edge11" class="edge">
<title>Node64&#45;&gt;Node61</title>
<path fill="none" stroke="#191970" d="M222.4997,-48.5004C230.6622,-38.9775 240.4489,-27.5596 247.2349,-19.6427"/>
<polygon fill="#191970" stroke="#191970" points="219.7115,-46.3752 215.861,-56.2455 225.0263,-50.9307 219.7115,-46.3752"/>
</g>
<!-- Node65&#45;&gt;Node61 -->
<g id="edge13" class="edge">
<title>Node65&#45;&gt;Node61</title>
<path fill="none" stroke="#191970" d="M289.1878,-48.5004C280.8553,-38.9775 270.8647,-27.5596 263.9373,-19.6427"/>
<polygon fill="#191970" stroke="#191970" points="286.7457,-51.0245 295.9649,-56.2455 292.0138,-46.415 286.7457,-51.0245"/>
</g>
<!-- Node68 -->
<g id="node13" class="node">
<title>Node68</title>
<g id="a_node13"><a xlink:href="levelset_8cpp.html" target="_top" xlink:title="levelset.cpp">
<polygon fill="#ffffff" stroke="#000000" points="580,-.5 580,-19.5 649,-19.5 649,-.5 580,-.5"/>
<text text-anchor="middle" x="614.5" y="-7.5" font-family="Helvetica,sans-Serif" font-size="10.00" fill="#000000">levelset.cpp</text>
</a>
</g>
</g>
<!-- Node67&#45;&gt;Node68 -->
<g id="edge16" class="edge">
<title>Node67&#45;&gt;Node68</title>
<path fill="none" stroke="#191970" d="M625.0076,-106.2969C615.1339,-98.5062 604.8323,-88.1513 599.5,-76 591.1897,-57.0622 601.3959,-32.9686 608.5863,-19.7594"/>
<polygon fill="#191970" stroke="#191970" points="622.9491,-109.1277 633.0823,-112.2212 627.09,-103.4838 622.9491,-109.1277"/>
</g>
<!-- Node69 -->
<g id="node14" class="node">
<title>Node69</title>
<g id="a_node14"><a xlink:href="levelset__ops_8_h.html" target="_top" xlink:title="levelset_ops.H">
<polygon fill="#ffffff" stroke="#000000" points="608.5,-56.5 608.5,-75.5 690.5,-75.5 690.5,-56.5 608.5,-56.5"/>
<text text-anchor="middle" x="649.5" y="-63.5" font-family="Helvetica,sans-Serif" font-size="10.00" fill="#000000">levelset_ops.H</text>
</a>
</g>
</g>
<!-- Node67&#45;&gt;Node69 -->
<g id="edge17" class="edge">
<title>Node67&#45;&gt;Node69</title>
<path fill="none" stroke="#191970" d="M649.5,-102.1575C649.5,-93.155 649.5,-82.9199 649.5,-75.6427"/>
<polygon fill="#191970" stroke="#191970" points="646.0001,-102.2455 649.5,-112.2455 653.0001,-102.2456 646.0001,-102.2455"/>
</g>
<!-- Node69&#45;&gt;Node68 -->
<g id="edge18" class="edge">
<title>Node69&#45;&gt;Node68</title>
<path fill="none" stroke="#191970" d="M638.0185,-47.6296C632.1804,-38.2887 625.3248,-27.3197 620.5267,-19.6427"/>
<polygon fill="#191970" stroke="#191970" points="635.1354,-49.6206 643.4035,-56.2455 641.0714,-45.9105 635.1354,-49.6206"/>
</g>
<!-- Node71 -->
<g id="node16" class="node">
<title>Node71</title>
<g id="a_node16"><a xlink:href="_s_d_r_8cpp.html" target="_top" xlink:title="SDR.cpp">
<polygon fill="#ffffff" stroke="#000000" points="709,-56.5 709,-75.5 766,-75.5 766,-56.5 709,-56.5"/>
<text text-anchor="middle" x="737.5" y="-63.5" font-family="Helvetica,sans-Serif" font-size="10.00" fill="#000000">SDR.cpp</text>
</a>
</g>
</g>
<!-- Node70&#45;&gt;Node71 -->
<g id="edge20" class="edge">
<title>Node70&#45;&gt;Node71</title>
<path fill="none" stroke="#191970" d="M732.9803,-102.1575C734.1056,-93.155 735.385,-82.9199 736.2947,-75.6427"/>
<polygon fill="#191970" stroke="#191970" points="729.4868,-101.8886 731.7193,-112.2455 736.4327,-102.7569 729.4868,-101.8886"/>
</g>
<!-- Node73 -->
<g id="node18" class="node">
<title>Node73</title>
<g id="a_node18"><a xlink:href="temperature_8cpp.html" target="_top" xlink:title="temperature.cpp">
<polygon fill="#ffffff" stroke="#000000" points="784,-56.5 784,-75.5 871,-75.5 871,-56.5 784,-56.5"/>
<text text-anchor="middle" x="827.5" y="-63.5" font-family="Helvetica,sans-Serif" font-size="10.00" fill="#000000">temperature.cpp</text>
</a>
</g>
</g>
<!-- Node72&#45;&gt;Node73 -->
<g id="edge22" class="edge">
<title>Node72&#45;&gt;Node73</title>
<path fill="none" stroke="#191970" d="M822.9803,-102.1575C824.1056,-93.155 825.385,-82.9199 826.2947,-75.6427"/>
<polygon fill="#191970" stroke="#191970" points="819.4868,-101.8886 821.7193,-112.2455 826.4327,-102.7569 819.4868,-101.8886"/>
</g>
<!-- Node75 -->
<g id="node20" class="node">
<title>Node75</title>
<g id="a_node20"><a xlink:href="_t_k_e_8cpp.html" target="_top" xlink:title="TKE.cpp">
<polygon fill="#ffffff" stroke="#000000" points="889,-56.5 889,-75.5 944,-75.5 944,-56.5 889,-56.5"/>
<text text-anchor="middle" x="916.5" y="-63.5" font-family="Helvetica,sans-Serif" font-size="10.00" fill="#000000">TKE.cpp</text>
</a>
</g>
</g>
<!-- Node74&#45;&gt;Node75 -->
<g id="edge24" class="edge">
<title>Node74&#45;&gt;Node75</title>
<path fill="none" stroke="#191970" d="M916.5,-102.1575C916.5,-93.155 916.5,-82.9199 916.5,-75.6427"/>
<polygon fill="#191970" stroke="#191970" points="913.0001,-102.2455 916.5,-112.2455 920.0001,-102.2456 913.0001,-102.2455"/>
</g>
<!-- Node76 -->
<g id="node21" class="node">
<title>Node76</title>
<g id="a_node21"><a xlink:href="_one_eq_ksgs_8cpp.html" target="_top" xlink:title="OneEqKsgs.cpp">
<polygon fill="#ffffff" stroke="#000000" points="962.5,-56.5 962.5,-75.5 1050.5,-75.5 1050.5,-56.5 962.5,-56.5"/>
<text text-anchor="middle" x="1006.5" y="-63.5" font-family="Helvetica,sans-Serif" font-size="10.00" fill="#000000">OneEqKsgs.cpp</text>
</a>
</g>
</g>
<!-- Node74&#45;&gt;Node76 -->
<g id="edge25" class="edge">
<title>Node74&#45;&gt;Node76</title>
<path fill="none" stroke="#191970" d="M940.9784,-106.769C956.9266,-96.8456 977.251,-84.1994 991.0028,-75.6427"/>
<polygon fill="#191970" stroke="#191970" points="938.8183,-103.9908 932.1768,-112.2455 942.5165,-109.9342 938.8183,-103.9908"/>
</g>
</g>
</svg>
        <g id="navigator" transform="translate(0 0)" fill="#404254">
                <rect fill="#f2f5e9" fill-opacity="0.5" stroke="#606060" stroke-width=".5" x="0" y="0" width="60" height="60"/>
                <use id="zoomplus" xlink:href="#zoomPlus" x="17" y="9" onmousedown="handleZoom(evt,'in')"/>
                <use id="zoomminus" xlink:href="#zoomMin" x="42" y="9" onmousedown="handleZoom(evt,'out')"/>
                <use id="reset" xlink:href="#resetDef" x="30" y="36" onmousedown="handleReset()"/>
                <g id="arrowUp" xlink:href="#dirArrow" transform="translate(30 24)" onmousedown="handlePan(0,-1)">
                  <use xlink:href="#rim" fill="#404040">
                        <set attributeName="fill" to="#808080" begin="arrowUp.mouseover" end="arrowUp.mouseout"/>
                  </use>
                  <path fill="none" stroke="white" stroke-width="1.5" d="M0,-3.0v7 M-2.5,-0.5L0,-3.0L2.5,-0.5"/>
                </g>
                <g id="arrowRight" xlink:href="#dirArrow" transform="rotate(90) translate(36 -43)" onmousedown="handlePan(1,0)">
                  <use xlink:href="#rim" fill="#404040">
                        <set attributeName="fill" to="#808080" begin="arrowRight.mouseover" end="arrowRight.mouseout"/>
                  </use>
                  <path fill="none" stroke="white" stroke-width="1.5" d="M0,-3.0v7 M-2.5,-0.5L0,-3.0L2.5,-0.5"/>
                </g>
                <g id="arrowDown" xlink:href="#dirArrow" transform="rotate(180) translate(-30 -48)" onmousedown="handlePan(0,1)">
                  <use xlink:href="#rim" fill="#404040">
                        <set attributeName="fill" to="#808080" begin="arrowDown.mouseover" end="arrowDown.mouseout"/>
                  </use>
                  <path fill="none" stroke="white" stroke-width="1.5" d="M0,-3.0v7 M-2.5,-0.5L0,-3.0L2.5,-0.5"/>
                </g>
                <g id="arrowLeft" xlink:href="#dirArrow" transform="rotate(270) translate(-36 17)" onmousedown="handlePan(-1,0)">
                  <use xlink:href="#rim" fill="#404040">
                        <set attributeName="fill" to="#808080" begin="arrowLeft.mouseover" end="arrowLeft.mouseout"/>
                  </use>
                  <path fill="none" stroke="white" stroke-width="1.5" d="M0,-3.0v7 M-2.5,-0.5L0,-3.0L2.5,-0.5"/>
                </g>
        </g>
        <svg viewBox="0 0 15 15" width="100%" height="30px" preserveAspectRatio="xMaxYMin meet">
         <g id="arrow_out" transform="scale(0.3 0.3)">
          <a xlink:href="_p_d_e_8_h__dep__incl_org.svg" target="_base">
           <rect id="button" ry="5" rx="5" y="6" x="6" height="38" width="38"
                fill="#f2f5e9" fill-opacity="0.5" stroke="#606060" stroke-width="1.0"/>
           <path id="arrow"
             d="M 11.500037,31.436501 C 11.940474,20.09759 22.043105,11.32322 32.158766,21.979434 L 37.068811,17.246167 C 37.068811,17.246167 37.088388,32 37.088388,32 L 22.160133,31.978069 C 22.160133,31.978069 26.997745,27.140456 26.997745,27.140456 C 18.528582,18.264221 13.291696,25.230495 11.500037,31.436501 z"
             style="fill:#404040;"/>
          </a>
         </g>
        </svg>
</svg>
