<?xml version="1.0" encoding="UTF-8" standalone="no"?>
<!DOCTYPE svg PUBLIC "-//W3C//DTD SVG 1.1//EN"
 "http://www.w3.org/Graphics/SVG/1.1/DTD/svg11.dtd">
<!-- Generated by graphviz version 2.40.1 (20161225.0304)
 -->
<!-- Title: PDEOps.H Pages: 1 -->
<svg width="1298pt" height="308pt"
 viewBox="0.00 0.00 1297.50 308.00" xmlns="http://www.w3.org/2000/svg" xmlns:xlink="http://www.w3.org/1999/xlink">
<g id="graph0" class="graph" transform="scale(1 1) rotate(0) translate(4 304)">
<title>PDEOps.H</title>
<polygon fill="#ffffff" stroke="transparent" points="-4,4 -4,-304 1293.5,-304 1293.5,4 -4,4"/>
<!-- Node44 -->
<g id="node1" class="node">
<title>Node44</title>
<polygon fill="#bfbfbf" stroke="#000000" points="783,-280.5 783,-299.5 849,-299.5 849,-280.5 783,-280.5"/>
<text text-anchor="middle" x="816" y="-287.5" font-family="Helvetica,sans-Serif" font-size="10.00" fill="#000000">PDEOps.H</text>
</g>
<!-- Node45 -->
<g id="node2" class="node">
<title>Node45</title>
<g id="a_node2"><a xlink:href="_adv_op___godunov_8_h.html" target="_top" xlink:title="AdvOp_Godunov.H">
<polygon fill="#ffffff" stroke="#000000" points="784.5,-112.5 784.5,-131.5 885.5,-131.5 885.5,-112.5 784.5,-112.5"/>
<text text-anchor="middle" x="835" y="-119.5" font-family="Helvetica,sans-Serif" font-size="10.00" fill="#000000">AdvOp_Godunov.H</text>
</a>
</g>
</g>
<!-- Node44&#45;&gt;Node45 -->
<g id="edge1" class="edge">
<title>Node44&#45;&gt;Node45</title>
<path fill="none" stroke="#191970" d="M818.2325,-270.2601C822.3145,-234.1669 830.842,-158.7656 833.8885,-131.8279"/>
<polygon fill="#191970" stroke="#191970" points="814.722,-270.1562 817.076,-280.4862 821.6777,-270.9429 814.722,-270.1562"/>
</g>
<!-- Node47 -->
<g id="node4" class="node">
<title>Node47</title>
<g id="a_node4"><a xlink:href="icns__ops_8_h.html" target="_top" xlink:title="icns_ops.H">
<polygon fill="#ffffff" stroke="#000000" points="1118,-56.5 1118,-75.5 1184,-75.5 1184,-56.5 1118,-56.5"/>
<text text-anchor="middle" x="1151" y="-63.5" font-family="Helvetica,sans-Serif" font-size="10.00" fill="#000000">icns_ops.H</text>
</a>
</g>
</g>
<!-- Node44&#45;&gt;Node47 -->
<g id="edge55" class="edge">
<title>Node44&#45;&gt;Node47</title>
<path fill="none" stroke="#191970" d="M859.6329,-288.164C930.7926,-284.348 1067.6574,-273.3218 1105,-244 1158.4712,-202.0138 1154.8077,-106.6701 1152.0684,-75.8252"/>
<polygon fill="#191970" stroke="#191970" points="859.0242,-284.6904 849.2159,-288.6962 859.3814,-291.6813 859.0242,-284.6904"/>
</g>
<!-- Node54 -->
<g id="node11" class="node">
<title>Node54</title>
<g id="a_node11"><a xlink:href="_adv_op___m_o_l_8_h.html" target="_top" xlink:title="AdvOp_MOL.H">
<polygon fill="#ffffff" stroke="#000000" points="586.5,-112.5 586.5,-131.5 669.5,-131.5 669.5,-112.5 586.5,-112.5"/>
<text text-anchor="middle" x="628" y="-119.5" font-family="Helvetica,sans-Serif" font-size="10.00" fill="#000000">AdvOp_MOL.H</text>
</a>
</g>
</g>
<!-- Node44&#45;&gt;Node54 -->
<g id="edge10" class="edge">
<title>Node44&#45;&gt;Node54</title>
<path fill="none" stroke="#191970" d="M814.3851,-270.1044C811.1487,-243.2572 801.5087,-195.6199 773,-168 758.1101,-153.5743 706.9471,-139.5414 669.6025,-130.8452"/>
<polygon fill="#191970" stroke="#191970" points="810.92,-270.6252 815.4164,-280.2186 817.8839,-269.9151 810.92,-270.6252"/>
</g>
<!-- Node55 -->
<g id="node12" class="node">
<title>Node55</title>
<g id="a_node12"><a xlink:href="_b_c_ops_8_h.html" target="_top" xlink:title="BCOps.H">
<polygon fill="#ffffff" stroke="#000000" points="509.5,-112.5 509.5,-131.5 568.5,-131.5 568.5,-112.5 509.5,-112.5"/>
<text text-anchor="middle" x="539" y="-119.5" font-family="Helvetica,sans-Serif" font-size="10.00" fill="#000000">BCOps.H</text>
</a>
</g>
</g>
<!-- Node44&#45;&gt;Node55 -->
<g id="edge17" class="edge">
<title>Node44&#45;&gt;Node55</title>
<path fill="none" stroke="#191970" d="M801.0321,-272.5777C777.5638,-246.2968 729.5415,-196.5573 679,-168 659.9555,-157.2394 603.8878,-140.3299 568.7548,-130.2872"/>
<polygon fill="#191970" stroke="#191970" points="798.529,-275.0313 807.761,-280.2295 803.7856,-270.4088 798.529,-275.0313"/>
</g>
<!-- Node57 -->
<g id="node14" class="node">
<title>Node57</title>
<g id="a_node14"><a xlink:href="_comp_r_h_s_ops_8_h.html" target="_top" xlink:title="CompRHSOps.H">
<polygon fill="#ffffff" stroke="#000000" points="599.5,-224.5 599.5,-243.5 692.5,-243.5 692.5,-224.5 599.5,-224.5"/>
<text text-anchor="middle" x="646" y="-231.5" font-family="Helvetica,sans-Serif" font-size="10.00" fill="#000000">CompRHSOps.H</text>
</a>
</g>
</g>
<!-- Node44&#45;&gt;Node57 -->
<g id="edge25" class="edge">
<title>Node44&#45;&gt;Node57</title>
<path fill="none" stroke="#191970" d="M777.114,-277.1905C745.9688,-266.9309 702.9777,-252.7691 674.8427,-243.5011"/>
<polygon fill="#191970" stroke="#191970" points="776.1829,-280.5687 786.776,-280.3733 778.3731,-273.9202 776.1829,-280.5687"/>
</g>
<!-- Node58 -->
<g id="node15" class="node">
<title>Node58</title>
<g id="a_node15"><a xlink:href="_p_d_e_8_h.html" target="_top" xlink:title="PDE.H">
<polygon fill="#ffffff" stroke="#000000" points="622,-168.5 622,-187.5 670,-187.5 670,-168.5 622,-168.5"/>
<text text-anchor="middle" x="646" y="-175.5" font-family="Helvetica,sans-Serif" font-size="10.00" fill="#000000">PDE.H</text>
</a>
</g>
</g>
<!-- Node44&#45;&gt;Node58 -->
<g id="edge49" class="edge">
<title>Node44&#45;&gt;Node58</title>
<path fill="none" stroke="#191970" d="M792.538,-274.9087C778.6793,-265.9673 760.8073,-254.3891 745,-244 714.791,-224.1456 679.6207,-200.594 660.3887,-187.678"/>
<polygon fill="#191970" stroke="#191970" points="790.7019,-277.8893 801.0035,-280.3648 794.4941,-272.0055 790.7019,-277.8893"/>
</g>
<!-- Node62 -->
<g id="node19" class="node">
<title>Node62</title>
<g id="a_node19"><a xlink:href="icns__diffusion_8_h.html" target="_top" xlink:title="icns_diffusion.H">
<polygon fill="#ffffff" stroke="#000000" points="1202.5,-56.5 1202.5,-75.5 1289.5,-75.5 1289.5,-56.5 1202.5,-56.5"/>
<text text-anchor="middle" x="1246" y="-63.5" font-family="Helvetica,sans-Serif" font-size="10.00" fill="#000000">icns_diffusion.H</text>
</a>
</g>
</g>
<!-- Node44&#45;&gt;Node62 -->
<g id="edge56" class="edge">
<title>Node44&#45;&gt;Node62</title>
<path fill="none" stroke="#191970" d="M836.7912,-274.157C869.8861,-249.4038 937.1396,-200.9808 999,-168 1075.1473,-127.4021 1171.0327,-91.953 1217.7766,-75.6021"/>
<polygon fill="#191970" stroke="#191970" points="834.6502,-271.3878 828.7655,-280.198 838.86,-276.9805 834.6502,-271.3878"/>
</g>
<!-- Node70 -->
<g id="node27" class="node">
<title>Node70</title>
<g id="a_node27"><a xlink:href="_diffusion_ops_8_h.html" target="_top" xlink:title="DiffusionOps.H">
<polygon fill="#ffffff" stroke="#000000" points="1012,-224.5 1012,-243.5 1096,-243.5 1096,-224.5 1012,-224.5"/>
<text text-anchor="middle" x="1054" y="-231.5" font-family="Helvetica,sans-Serif" font-size="10.00" fill="#000000">DiffusionOps.H</text>
</a>
</g>
</g>
<!-- Node44&#45;&gt;Node70 -->
<g id="edge50" class="edge">
<title>Node44&#45;&gt;Node70</title>
<path fill="none" stroke="#191970" d="M858.8742,-279.9119C902.6763,-269.6056 970.1953,-253.7187 1013.2216,-243.5949"/>
<polygon fill="#191970" stroke="#191970" points="858.0254,-276.516 849.0929,-282.2134 859.6287,-283.3299 858.0254,-276.516"/>
</g>
<!-- Node46 -->
<g id="node3" class="node">
<title>Node46</title>
<g id="a_node3"><a xlink:href="density_8cpp.html" target="_top" xlink:title="density.cpp">
<polygon fill="#ffffff" stroke="#000000" points="418.5,-.5 418.5,-19.5 485.5,-19.5 485.5,-.5 418.5,-.5"/>
<text text-anchor="middle" x="452" y="-7.5" font-family="Helvetica,sans-Serif" font-size="10.00" fill="#000000">density.cpp</text>
</a>
</g>
</g>
<!-- Node45&#45;&gt;Node46 -->
<g id="edge2" class="edge">
<title>Node45&#45;&gt;Node46</title>
<path fill="none" stroke="#191970" d="M833.1644,-101.7741C830.6737,-86.7594 824.808,-67.0462 811,-56 785.8225,-35.8584 570.2467,-18.4446 485.7638,-12.3319"/>
<polygon fill="#191970" stroke="#191970" points="829.7469,-102.6433 834.4868,-112.1187 836.6904,-101.7556 829.7469,-102.6433"/>
</g>
<!-- Node45&#45;&gt;Node47 -->
<g id="edge3" class="edge">
<title>Node45&#45;&gt;Node47</title>
<path fill="none" stroke="#191970" d="M895.6474,-111.2524C961.7703,-99.5344 1065.1687,-81.2106 1117.803,-71.883"/>
<polygon fill="#191970" stroke="#191970" points="895.0067,-107.8113 885.7709,-113.0026 896.2282,-114.7039 895.0067,-107.8113"/>
</g>
<!-- Node50 -->
<g id="node7" class="node">
<title>Node50</title>
<g id="a_node7"><a xlink:href="levelset_8cpp.html" target="_top" xlink:title="levelset.cpp">
<polygon fill="#ffffff" stroke="#000000" points="331.5,-.5 331.5,-19.5 400.5,-19.5 400.5,-.5 331.5,-.5"/>
<text text-anchor="middle" x="366" y="-7.5" font-family="Helvetica,sans-Serif" font-size="10.00" fill="#000000">levelset.cpp</text>
</a>
</g>
</g>
<!-- Node45&#45;&gt;Node50 -->
<g id="edge6" class="edge">
<title>Node45&#45;&gt;Node50</title>
<path fill="none" stroke="#191970" d="M824.351,-103.5241C814.2937,-87.9661 797.6843,-66.6026 777,-56 703.8786,-18.5185 490.0789,-33.3347 409,-20 406.2774,-19.5522 403.4701,-19.0326 400.6559,-18.4703"/>
<polygon fill="#191970" stroke="#191970" points="821.5308,-105.6202 829.7442,-112.3128 827.497,-101.959 821.5308,-105.6202"/>
</g>
<!-- Node51 -->
<g id="node8" class="node">
<title>Node51</title>
<g id="a_node8"><a xlink:href="_s_d_r_8cpp.html" target="_top" xlink:title="SDR.cpp">
<polygon fill="#ffffff" stroke="#000000" points="529.5,-56.5 529.5,-75.5 586.5,-75.5 586.5,-56.5 529.5,-56.5"/>
<text text-anchor="middle" x="558" y="-63.5" font-family="Helvetica,sans-Serif" font-size="10.00" fill="#000000">SDR.cpp</text>
</a>
</g>
</g>
<!-- Node45&#45;&gt;Node51 -->
<g id="edge7" class="edge">
<title>Node45&#45;&gt;Node51</title>
<path fill="none" stroke="#191970" d="M777.5536,-110.3863C719.3884,-98.6273 631.7956,-80.919 586.8523,-71.833"/>
<polygon fill="#191970" stroke="#191970" points="777.2015,-113.8858 787.6967,-112.4369 778.5886,-107.0246 777.2015,-113.8858"/>
</g>
<!-- Node52 -->
<g id="node9" class="node">
<title>Node52</title>
<g id="a_node9"><a xlink:href="temperature_8cpp.html" target="_top" xlink:title="temperature.cpp">
<polygon fill="#ffffff" stroke="#000000" points="681.5,-56.5 681.5,-75.5 768.5,-75.5 768.5,-56.5 681.5,-56.5"/>
<text text-anchor="middle" x="725" y="-63.5" font-family="Helvetica,sans-Serif" font-size="10.00" fill="#000000">temperature.cpp</text>
</a>
</g>
</g>
<!-- Node45&#45;&gt;Node52 -->
<g id="edge8" class="edge">
<title>Node45&#45;&gt;Node52</title>
<path fill="none" stroke="#191970" d="M806.7086,-107.5971C786.9889,-97.558 761.22,-84.4393 743.941,-75.6427"/>
<polygon fill="#191970" stroke="#191970" points="805.3399,-110.8277 815.8395,-112.2455 808.5157,-104.5896 805.3399,-110.8277"/>
</g>
<!-- Node53 -->
<g id="node10" class="node">
<title>Node53</title>
<g id="a_node10"><a xlink:href="_t_k_e_8cpp.html" target="_top" xlink:title="TKE.cpp">
<polygon fill="#ffffff" stroke="#000000" points="456.5,-56.5 456.5,-75.5 511.5,-75.5 511.5,-56.5 456.5,-56.5"/>
<text text-anchor="middle" x="484" y="-63.5" font-family="Helvetica,sans-Serif" font-size="10.00" fill="#000000">TKE.cpp</text>
</a>
</g>
</g>
<!-- Node45&#45;&gt;Node53 -->
<g id="edge9" class="edge">
<title>Node45&#45;&gt;Node53</title>
<path fill="none" stroke="#191970" d="M774.0947,-111.9077C660.1192,-94.8383 628.8734,-98.705 520,-76 517.333,-75.4438 514.5721,-74.801 511.8199,-74.1148"/>
<polygon fill="#191970" stroke="#191970" points="773.8629,-115.4125 784.2752,-113.4547 774.9146,-108.492 773.8629,-115.4125"/>
</g>
<!-- Node48 -->
<g id="node5" class="node">
<title>Node48</title>
<g id="a_node5"><a xlink:href="icns_8cpp.html" target="_top" xlink:title="icns.cpp">
<polygon fill="#ffffff" stroke="#000000" points="1063.5,-.5 1063.5,-19.5 1116.5,-19.5 1116.5,-.5 1063.5,-.5"/>
<text text-anchor="middle" x="1090" y="-7.5" font-family="Helvetica,sans-Serif" font-size="10.00" fill="#000000">icns.cpp</text>
</a>
</g>
</g>
<!-- Node47&#45;&gt;Node48 -->
<g id="edge4" class="edge">
<title>Node47&#45;&gt;Node48</title>
<path fill="none" stroke="#191970" d="M1132.8751,-49.3607C1122.322,-39.6727 1109.3888,-27.7995 1100.5036,-19.6427"/>
<polygon fill="#191970" stroke="#191970" points="1130.6411,-52.0611 1140.3746,-56.2455 1135.375,-46.9045 1130.6411,-52.0611"/>
</g>
<!-- Node49 -->
<g id="node6" class="node">
<title>Node49</title>
<g id="a_node6"><a xlink:href="icns__ops_8cpp.html" target="_top" xlink:title="icns_ops.cpp">
<polygon fill="#ffffff" stroke="#000000" points="1135,-.5 1135,-19.5 1209,-19.5 1209,-.5 1135,-.5"/>
<text text-anchor="middle" x="1172" y="-7.5" font-family="Helvetica,sans-Serif" font-size="10.00" fill="#000000">icns_ops.cpp</text>
</a>
</g>
</g>
<!-- Node47&#45;&gt;Node49 -->
<g id="edge5" class="edge">
<title>Node47&#45;&gt;Node49</title>
<path fill="none" stroke="#191970" d="M1158.219,-46.7493C1161.6476,-37.6064 1165.5951,-27.0798 1168.384,-19.6427"/>
<polygon fill="#191970" stroke="#191970" points="1154.8921,-45.6533 1154.6579,-56.2455 1161.4464,-48.1112 1154.8921,-45.6533"/>
</g>
<!-- Node54&#45;&gt;Node46 -->
<g id="edge11" class="edge">
<title>Node54&#45;&gt;Node46</title>
<path fill="none" stroke="#191970" d="M634.2422,-102.4827C637.5289,-88.1547 639.0555,-69.0029 629,-56 611.6165,-33.5213 532.0062,-19.9879 485.6883,-13.8804"/>
<polygon fill="#191970" stroke="#191970" points="630.8146,-101.7481 631.5485,-112.3175 637.5659,-103.5973 630.8146,-101.7481"/>
</g>
<!-- Node54&#45;&gt;Node47 -->
<g id="edge12" class="edge">
<title>Node54&#45;&gt;Node47</title>
<path fill="none" stroke="#191970" d="M679.6696,-111.8767C853.2894,-87.0572 899.8567,-94.53 1071,-76 1086.4464,-74.3276 1103.5381,-72.2254 1117.9444,-70.3806"/>
<polygon fill="#191970" stroke="#191970" points="679.0812,-108.4252 669.6845,-113.3194 680.0823,-115.3533 679.0812,-108.4252"/>
</g>
<!-- Node54&#45;&gt;Node50 -->
<g id="edge13" class="edge">
<title>Node54&#45;&gt;Node50</title>
<path fill="none" stroke="#191970" d="M623.2535,-102.3173C618.591,-87.3072 609.9454,-67.342 595,-56 527.9266,-5.0987 491.3538,-37.5394 409,-20 406.3013,-19.4252 403.5113,-18.8144 400.709,-18.1889"/>
<polygon fill="#191970" stroke="#191970" points="619.9409,-103.4703 625.9777,-112.1771 626.6881,-101.6061 619.9409,-103.4703"/>
</g>
<!-- Node54&#45;&gt;Node51 -->
<g id="edge14" class="edge">
<title>Node54&#45;&gt;Node51</title>
<path fill="none" stroke="#191970" d="M607.91,-105.928C595.6747,-96.1397 580.4493,-83.9595 570.0533,-75.6427"/>
<polygon fill="#191970" stroke="#191970" points="605.8118,-108.7316 615.8069,-112.2455 610.1847,-103.2655 605.8118,-108.7316"/>
</g>
<!-- Node54&#45;&gt;Node52 -->
<g id="edge15" class="edge">
<title>Node54&#45;&gt;Node52</title>
<path fill="none" stroke="#191970" d="M653.9016,-107.0465C671.1609,-97.0824 693.3376,-84.2794 708.2975,-75.6427"/>
<polygon fill="#191970" stroke="#191970" points="651.8065,-104.2146 644.8961,-112.2455 655.3064,-110.2768 651.8065,-104.2146"/>
</g>
<!-- Node54&#45;&gt;Node53 -->
<g id="edge16" class="edge">
<title>Node54&#45;&gt;Node53</title>
<path fill="none" stroke="#191970" d="M593.6818,-108.6541C567.422,-98.4419 531.8508,-84.6086 508.4315,-75.5011"/>
<polygon fill="#191970" stroke="#191970" points="592.6569,-112.0108 603.2455,-112.3733 595.194,-105.4867 592.6569,-112.0108"/>
</g>
<!-- Node55&#45;&gt;Node46 -->
<g id="edge18" class="edge">
<title>Node55&#45;&gt;Node46</title>
<path fill="none" stroke="#191970" d="M503.0656,-108.5984C480.1349,-99.2344 453.5307,-86.5669 447,-76 436.2465,-58.6006 442.8644,-33.4889 447.8955,-19.8017"/>
<polygon fill="#191970" stroke="#191970" points="502.0135,-111.9467 512.5989,-112.3935 504.6026,-105.443 502.0135,-111.9467"/>
</g>
<!-- Node55&#45;&gt;Node50 -->
<g id="edge21" class="edge">
<title>Node55&#45;&gt;Node50</title>
<path fill="none" stroke="#191970" d="M502.7257,-108.7244C482.8194,-100.6561 458.1595,-89.3425 438,-76 412.5471,-59.154 387.2916,-33.3683 374.5395,-19.5427"/>
<polygon fill="#191970" stroke="#191970" points="501.489,-111.9991 512.0755,-112.4193 504.0617,-105.4889 501.489,-111.9991"/>
</g>
<!-- Node55&#45;&gt;Node51 -->
<g id="edge22" class="edge">
<title>Node55&#45;&gt;Node51</title>
<path fill="none" stroke="#191970" d="M545.5315,-102.7493C548.6336,-93.6064 552.2051,-83.0798 554.7284,-75.6427"/>
<polygon fill="#191970" stroke="#191970" points="542.2082,-101.6512 542.3095,-112.2455 548.837,-103.9003 542.2082,-101.6512"/>
</g>
<!-- Node55&#45;&gt;Node52 -->
<g id="edge23" class="edge">
<title>Node55&#45;&gt;Node52</title>
<path fill="none" stroke="#191970" d="M578.5617,-110.0889C612.7869,-99.7846 661.6271,-85.08 693.3225,-75.5373"/>
<polygon fill="#191970" stroke="#191970" points="577.4505,-106.7682 568.8841,-113.0026 579.4686,-113.471 577.4505,-106.7682"/>
</g>
<!-- Node55&#45;&gt;Node53 -->
<g id="edge24" class="edge">
<title>Node55&#45;&gt;Node53</title>
<path fill="none" stroke="#191970" d="M522.3774,-105.0751C512.9145,-95.4402 501.4031,-83.7196 493.4705,-75.6427"/>
<polygon fill="#191970" stroke="#191970" points="519.9155,-107.5635 529.4197,-112.2455 524.9097,-102.6585 519.9155,-107.5635"/>
</g>
<!-- Node56 -->
<g id="node13" class="node">
<title>Node56</title>
<g id="a_node13"><a xlink:href="icns__bcop_8_h.html" target="_top" xlink:title="icns_bcop.H">
<polygon fill="#ffffff" stroke="#000000" points="863.5,-56.5 863.5,-75.5 934.5,-75.5 934.5,-56.5 863.5,-56.5"/>
<text text-anchor="middle" x="899" y="-63.5" font-family="Helvetica,sans-Serif" font-size="10.00" fill="#000000">icns_bcop.H</text>
</a>
</g>
</g>
<!-- Node55&#45;&gt;Node56 -->
<g id="edge19" class="edge">
<title>Node55&#45;&gt;Node56</title>
<path fill="none" stroke="#191970" d="M578.921,-111.7771C687.3584,-90.2816 805.0908,-76.1285 863.0322,-69.7655"/>
<polygon fill="#191970" stroke="#191970" points="577.9092,-108.4104 568.7946,-113.8117 579.2881,-115.2732 577.9092,-108.4104"/>
</g>
<!-- Node56&#45;&gt;Node48 -->
<g id="edge20" class="edge">
<title>Node56&#45;&gt;Node48</title>
<path fill="none" stroke="#191970" d="M941.9042,-53.4208C979.1763,-42.4928 1031.9817,-27.0106 1063.4336,-17.7891"/>
<polygon fill="#191970" stroke="#191970" points="940.4454,-50.2011 931.8341,-56.3733 942.4149,-56.9183 940.4454,-50.2011"/>
</g>
<!-- Node57&#45;&gt;Node58 -->
<g id="edge26" class="edge">
<title>Node57&#45;&gt;Node58</title>
<path fill="none" stroke="#191970" d="M646,-214.1575C646,-205.155 646,-194.9199 646,-187.6427"/>
<polygon fill="#191970" stroke="#191970" points="642.5001,-214.2455 646,-224.2455 649.5001,-214.2456 642.5001,-214.2455"/>
</g>
<!-- Node59 -->
<g id="node16" class="node">
<title>Node59</title>
<g id="a_node16"><a xlink:href="density_8_h.html" target="_top" xlink:title="density.H">
<polygon fill="#ffffff" stroke="#000000" points="186.5,-112.5 186.5,-131.5 245.5,-131.5 245.5,-112.5 186.5,-112.5"/>
<text text-anchor="middle" x="216" y="-119.5" font-family="Helvetica,sans-Serif" font-size="10.00" fill="#000000">density.H</text>
</a>
</g>
</g>
<!-- Node58&#45;&gt;Node59 -->
<g id="edge27" class="edge">
<title>Node58&#45;&gt;Node59</title>
<path fill="none" stroke="#191970" d="M611.9273,-173.5626C529.9873,-162.8914 322.9844,-135.9329 245.7041,-125.8684"/>
<polygon fill="#191970" stroke="#191970" points="611.5917,-177.0484 621.9599,-174.8692 612.4957,-170.107 611.5917,-177.0484"/>
</g>
<!-- Node61 -->
<g id="node18" class="node">
<title>Node61</title>
<g id="a_node18"><a xlink:href="icns_8_h.html" target="_top" xlink:title="icns.H">
<polygon fill="#ffffff" stroke="#000000" points="906.5,-112.5 906.5,-131.5 951.5,-131.5 951.5,-112.5 906.5,-112.5"/>
<text text-anchor="middle" x="929" y="-119.5" font-family="Helvetica,sans-Serif" font-size="10.00" fill="#000000">icns.H</text>
</a>
</g>
</g>
<!-- Node58&#45;&gt;Node61 -->
<g id="edge31" class="edge">
<title>Node58&#45;&gt;Node61</title>
<path fill="none" stroke="#191970" d="M680.1101,-172.8448C728.2963,-165.3029 818.9135,-150.1659 895,-132 898.7104,-131.1141 902.6179,-130.0708 906.4093,-128.9982"/>
<polygon fill="#191970" stroke="#191970" points="679.5561,-169.3888 670.2109,-174.3805 680.6293,-176.306 679.5561,-169.3888"/>
</g>
<!-- Node64 -->
<g id="node21" class="node">
<title>Node64</title>
<g id="a_node21"><a xlink:href="levelset_8_h.html" target="_top" xlink:title="levelset.H">
<polygon fill="#ffffff" stroke="#000000" points="79.5,-112.5 79.5,-131.5 140.5,-131.5 140.5,-112.5 79.5,-112.5"/>
<text text-anchor="middle" x="110" y="-119.5" font-family="Helvetica,sans-Serif" font-size="10.00" fill="#000000">levelset.H</text>
</a>
</g>
</g>
<!-- Node58&#45;&gt;Node64 -->
<g id="edge38" class="edge">
<title>Node58&#45;&gt;Node64</title>
<path fill="none" stroke="#191970" d="M611.3505,-175.2033C533.5445,-168.7914 339.0776,-152.0308 177,-132 165.0946,-130.5286 152.0399,-128.6422 140.6417,-126.9051"/>
<polygon fill="#191970" stroke="#191970" points="611.287,-178.7097 621.5395,-176.0386 611.859,-171.7331 611.287,-178.7097"/>
</g>
<!-- Node66 -->
<g id="node23" class="node">
<title>Node66</title>
<g id="a_node23"><a xlink:href="_s_d_r_8_h.html" target="_top" xlink:title="SDR.H">
<polygon fill="#ffffff" stroke="#000000" points="442.5,-112.5 442.5,-131.5 491.5,-131.5 491.5,-112.5 442.5,-112.5"/>
<text text-anchor="middle" x="467" y="-119.5" font-family="Helvetica,sans-Serif" font-size="10.00" fill="#000000">SDR.H</text>
</a>
</g>
</g>
<!-- Node58&#45;&gt;Node66 -->
<g id="edge42" class="edge">
<title>Node58&#45;&gt;Node66</title>
<path fill="none" stroke="#191970" d="M612.0443,-167.377C576.9001,-156.3822 522.8589,-139.4754 491.6177,-129.7016"/>
<polygon fill="#191970" stroke="#191970" points="611.2704,-170.8021 621.8593,-170.4476 613.3605,-164.1214 611.2704,-170.8021"/>
</g>
<!-- Node67 -->
<g id="node24" class="node">
<title>Node67</title>
<g id="a_node24"><a xlink:href="temperature_8_h.html" target="_top" xlink:title="temperature.H">
<polygon fill="#ffffff" stroke="#000000" points="687.5,-112.5 687.5,-131.5 766.5,-131.5 766.5,-112.5 687.5,-112.5"/>
<text text-anchor="middle" x="727" y="-119.5" font-family="Helvetica,sans-Serif" font-size="10.00" fill="#000000">temperature.H</text>
</a>
</g>
</g>
<!-- Node58&#45;&gt;Node67 -->
<g id="edge44" class="edge">
<title>Node58&#45;&gt;Node67</title>
<path fill="none" stroke="#191970" d="M668.434,-162.49C682.7254,-152.6096 700.7916,-140.1194 713.0526,-131.6427"/>
<polygon fill="#191970" stroke="#191970" points="666.3443,-159.6797 660.1091,-168.2455 670.3251,-165.4376 666.3443,-159.6797"/>
</g>
<!-- Node68 -->
<g id="node25" class="node">
<title>Node68</title>
<g id="a_node25"><a xlink:href="_t_k_e_8_h.html" target="_top" xlink:title="TKE.H">
<polygon fill="#ffffff" stroke="#000000" points="377.5,-112.5 377.5,-131.5 424.5,-131.5 424.5,-112.5 377.5,-112.5"/>
<text text-anchor="middle" x="401" y="-119.5" font-family="Helvetica,sans-Serif" font-size="10.00" fill="#000000">TKE.H</text>
</a>
</g>
</g>
<!-- Node58&#45;&gt;Node68 -->
<g id="edge46" class="edge">
<title>Node58&#45;&gt;Node68</title>
<path fill="none" stroke="#191970" d="M611.8419,-171.6097C569.5837,-163.4781 495.5573,-148.4937 433,-132 430.2985,-131.2877 427.485,-130.491 424.6966,-129.6665"/>
<polygon fill="#191970" stroke="#191970" points="611.3956,-175.0877 621.8748,-173.5262 612.7091,-168.212 611.3956,-175.0877"/>
</g>
<!-- Node59&#45;&gt;Node46 -->
<g id="edge28" class="edge">
<title>Node59&#45;&gt;Node46</title>
<path fill="none" stroke="#191970" d="M191.8418,-106.7077C173.1598,-93.0123 152.6958,-72.5895 167,-56 202.5042,-14.8235 355.5893,-30.166 409,-20 412.0117,-19.4268 415.1321,-18.7885 418.2536,-18.1196"/>
<polygon fill="#191970" stroke="#191970" points="189.9583,-109.6609 200.1687,-112.4889 193.9504,-103.9108 189.9583,-109.6609"/>
</g>
<!-- Node60 -->
<g id="node17" class="node">
<title>Node60</title>
<g id="a_node17"><a xlink:href="density__ops_8_h.html" target="_top" xlink:title="density_ops.H">
<polygon fill="#ffffff" stroke="#000000" points="176,-56.5 176,-75.5 256,-75.5 256,-56.5 176,-56.5"/>
<text text-anchor="middle" x="216" y="-63.5" font-family="Helvetica,sans-Serif" font-size="10.00" fill="#000000">density_ops.H</text>
</a>
</g>
</g>
<!-- Node59&#45;&gt;Node60 -->
<g id="edge29" class="edge">
<title>Node59&#45;&gt;Node60</title>
<path fill="none" stroke="#191970" d="M216,-102.1575C216,-93.155 216,-82.9199 216,-75.6427"/>
<polygon fill="#191970" stroke="#191970" points="212.5001,-102.2455 216,-112.2455 219.5001,-102.2456 212.5001,-102.2455"/>
</g>
<!-- Node60&#45;&gt;Node46 -->
<g id="edge30" class="edge">
<title>Node60&#45;&gt;Node46</title>
<path fill="none" stroke="#191970" d="M265.7684,-54.1906C311.6111,-43.3126 378.3852,-27.4679 418.2791,-18.0016"/>
<polygon fill="#191970" stroke="#191970" points="264.9559,-50.7861 256.0342,-56.5004 266.5721,-57.597 264.9559,-50.7861"/>
</g>
<!-- Node61&#45;&gt;Node47 -->
<g id="edge33" class="edge">
<title>Node61&#45;&gt;Node47</title>
<path fill="none" stroke="#191970" d="M961.5758,-113.1565C963.0705,-112.7631 964.5508,-112.376 966,-112 1019.0188,-98.2453 1080.8052,-83.0496 1117.8642,-74.0248"/>
<polygon fill="#191970" stroke="#191970" points="960.4411,-109.8366 951.6789,-115.7927 962.2429,-116.6008 960.4411,-109.8366"/>
</g>
<!-- Node61&#45;&gt;Node48 -->
<g id="edge32" class="edge">
<title>Node61&#45;&gt;Node48</title>
<path fill="none" stroke="#191970" d="M961.3666,-113.2461C1000.8066,-102.3155 1063.1884,-84.0736 1071,-76 1085.9241,-60.5755 1089.2545,-34.2123 1089.9166,-19.9186"/>
<polygon fill="#191970" stroke="#191970" points="960.3525,-109.8949 951.6396,-115.9228 962.2098,-116.644 960.3525,-109.8949"/>
</g>
<!-- Node61&#45;&gt;Node56 -->
<g id="edge36" class="edge">
<title>Node61&#45;&gt;Node56</title>
<path fill="none" stroke="#191970" d="M919.002,-103.3372C914.0324,-94.0605 908.2356,-83.2398 904.1657,-75.6427"/>
<polygon fill="#191970" stroke="#191970" points="915.9669,-105.0835 923.7744,-112.2455 922.1373,-101.7779 915.9669,-105.0835"/>
</g>
<!-- Node61&#45;&gt;Node62 -->
<g id="edge34" class="edge">
<title>Node61&#45;&gt;Node62</title>
<path fill="none" stroke="#191970" d="M961.5387,-112.9994C963.0434,-112.6482 964.5359,-112.313 966,-112 1065.8923,-90.6437 1092.3555,-93.4715 1193,-76 1196.0445,-75.4715 1199.1848,-74.9131 1202.3456,-74.3412"/>
<polygon fill="#191970" stroke="#191970" points="960.4589,-109.6615 951.6051,-115.4804 962.1552,-116.4529 960.4589,-109.6615"/>
</g>
<!-- Node63 -->
<g id="node20" class="node">
<title>Node63</title>
<g id="a_node20"><a xlink:href="_power_law_profile_8cpp.html" target="_top" xlink:title="PowerLawProfile.cpp">
<polygon fill="#ffffff" stroke="#000000" points="952.5,-56.5 952.5,-75.5 1061.5,-75.5 1061.5,-56.5 952.5,-56.5"/>
<text text-anchor="middle" x="1007" y="-63.5" font-family="Helvetica,sans-Serif" font-size="10.00" fill="#000000">PowerLawProfile.cpp</text>
</a>
</g>
</g>
<!-- Node61&#45;&gt;Node63 -->
<g id="edge37" class="edge">
<title>Node61&#45;&gt;Node63</title>
<path fill="none" stroke="#191970" d="M950.9936,-106.2097C964.6929,-96.3743 981.8736,-84.0394 993.5691,-75.6427"/>
<polygon fill="#191970" stroke="#191970" points="948.6686,-103.5703 942.5866,-112.2455 952.7511,-109.2566 948.6686,-103.5703"/>
</g>
<!-- Node62&#45;&gt;Node48 -->
<g id="edge35" class="edge">
<title>Node62&#45;&gt;Node48</title>
<path fill="none" stroke="#191970" d="M1209.5716,-52.9231C1181.0539,-42.686 1142.0619,-28.6889 1116.4674,-19.5011"/>
<polygon fill="#191970" stroke="#191970" points="1208.5881,-56.2887 1219.1826,-56.3733 1210.9532,-49.7004 1208.5881,-56.2887"/>
</g>
<!-- Node64&#45;&gt;Node50 -->
<g id="edge39" class="edge">
<title>Node64&#45;&gt;Node50</title>
<path fill="none" stroke="#191970" d="M119.1255,-103.2028C127.4335,-88.1127 141.1248,-67.5945 159,-56 187.1061,-37.7694 279.8733,-22.2105 331.1559,-14.7389"/>
<polygon fill="#191970" stroke="#191970" points="115.9621,-101.7 114.4536,-112.187 122.1726,-104.9297 115.9621,-101.7"/>
</g>
<!-- Node65 -->
<g id="node22" class="node">
<title>Node65</title>
<g id="a_node22"><a xlink:href="levelset__ops_8_h.html" target="_top" xlink:title="levelset_ops.H">
<polygon fill="#ffffff" stroke="#000000" points="0,-56.5 0,-75.5 82,-75.5 82,-56.5 0,-56.5"/>
<text text-anchor="middle" x="41" y="-63.5" font-family="Helvetica,sans-Serif" font-size="10.00" fill="#000000">levelset_ops.H</text>
</a>
</g>
</g>
<!-- Node64&#45;&gt;Node65 -->
<g id="edge40" class="edge">
<title>Node64&#45;&gt;Node65</title>
<path fill="none" stroke="#191970" d="M90.197,-105.928C78.1364,-96.1397 63.1286,-83.9595 52.8812,-75.6427"/>
<polygon fill="#191970" stroke="#191970" points="88.0109,-108.6614 97.9811,-112.2455 92.4221,-103.2262 88.0109,-108.6614"/>
</g>
<!-- Node65&#45;&gt;Node50 -->
<g id="edge41" class="edge">
<title>Node65&#45;&gt;Node50</title>
<path fill="none" stroke="#191970" d="M92.1662,-56.6775C93.4569,-56.4486 94.7365,-56.2225 96,-56 180.528,-41.1156 280.0848,-24.3523 331.4556,-15.7592"/>
<polygon fill="#191970" stroke="#191970" points="91.3652,-53.2651 82.1365,-58.4692 92.5962,-60.156 91.3652,-53.2651"/>
</g>
<!-- Node66&#45;&gt;Node51 -->
<g id="edge43" class="edge">
<title>Node66&#45;&gt;Node51</title>
<path fill="none" stroke="#191970" d="M491.7504,-106.769C507.8758,-96.8456 528.426,-84.1994 542.3307,-75.6427"/>
<polygon fill="#191970" stroke="#191970" points="489.5332,-104.0237 482.851,-112.2455 493.2019,-109.9853 489.5332,-104.0237"/>
</g>
<!-- Node67&#45;&gt;Node52 -->
<g id="edge45" class="edge">
<title>Node67&#45;&gt;Node52</title>
<path fill="none" stroke="#191970" d="M726.2913,-102.1575C725.9698,-93.155 725.6043,-82.9199 725.3444,-75.6427"/>
<polygon fill="#191970" stroke="#191970" points="722.7968,-102.3769 726.6516,-112.2455 729.7924,-102.127 722.7968,-102.3769"/>
</g>
<!-- Node68&#45;&gt;Node53 -->
<g id="edge47" class="edge">
<title>Node68&#45;&gt;Node53</title>
<path fill="none" stroke="#191970" d="M423.988,-106.49C438.6322,-96.6096 457.1444,-84.1194 469.7082,-75.6427"/>
<polygon fill="#191970" stroke="#191970" points="421.7896,-103.7511 415.4575,-112.2455 425.7047,-109.5539 421.7896,-103.7511"/>
</g>
<!-- Node69 -->
<g id="node26" class="node">
<title>Node69</title>
<g id="a_node26"><a xlink:href="_one_eq_ksgs_8cpp.html" target="_top" xlink:title="OneEqKsgs.cpp">
<polygon fill="#ffffff" stroke="#000000" points="274,-56.5 274,-75.5 362,-75.5 362,-56.5 274,-56.5"/>
<text text-anchor="middle" x="318" y="-63.5" font-family="Helvetica,sans-Serif" font-size="10.00" fill="#000000">OneEqKsgs.cpp</text>
</a>
</g>
</g>
<!-- Node68&#45;&gt;Node69 -->
<g id="edge48" class="edge">
<title>Node68&#45;&gt;Node69</title>
<path fill="none" stroke="#191970" d="M378.012,-106.49C363.3678,-96.6096 344.8556,-84.1194 332.2918,-75.6427"/>
<polygon fill="#191970" stroke="#191970" points="376.2953,-109.5539 386.5425,-112.2455 380.2104,-103.7511 376.2953,-109.5539"/>
</g>
<!-- Node70&#45;&gt;Node47 -->
<g id="edge53" class="edge">
<title>Node70&#45;&gt;Node47</title>
<path fill="none" stroke="#191970" d="M1077.7926,-218.6076C1088.5891,-210.5959 1100.7569,-199.9739 1109,-188 1134.4042,-151.0979 1145.7491,-97.3924 1149.4969,-75.6621"/>
<polygon fill="#191970" stroke="#191970" points="1075.6745,-215.8186 1069.5293,-224.4492 1079.7153,-221.5346 1075.6745,-215.8186"/>
</g>
<!-- Node70&#45;&gt;Node58 -->
<g id="edge51" class="edge">
<title>Node70&#45;&gt;Node58</title>
<path fill="none" stroke="#191970" d="M1001.7311,-226.8258C912.7298,-214.61 735.1067,-190.2303 670.3453,-181.3415"/>
<polygon fill="#191970" stroke="#191970" points="1001.4905,-230.3255 1011.8736,-228.2179 1002.4424,-223.3906 1001.4905,-230.3255"/>
</g>
<!-- Node70&#45;&gt;Node62 -->
<g id="edge54" class="edge">
<title>Node70&#45;&gt;Node62</title>
<path fill="none" stroke="#191970" d="M1081.1386,-219.2925C1095.6244,-210.9185 1113.4198,-199.7691 1128,-188 1173.8581,-150.9835 1220.0844,-97.3424 1238.114,-75.6457"/>
<polygon fill="#191970" stroke="#191970" points="1079.1422,-216.4007 1072.1644,-224.3733 1082.591,-222.4922 1079.1422,-216.4007"/>
</g>
<!-- Node71 -->
<g id="node28" class="node">
<title>Node71</title>
<g id="a_node28"><a xlink:href="_diffusion_ops_8cpp.html" target="_top" xlink:title="DiffusionOps.cpp">
<polygon fill="#ffffff" stroke="#000000" points="1008,-168.5 1008,-187.5 1100,-187.5 1100,-168.5 1008,-168.5"/>
<text text-anchor="middle" x="1054" y="-175.5" font-family="Helvetica,sans-Serif" font-size="10.00" fill="#000000">DiffusionOps.cpp</text>
</a>
</g>
</g>
<!-- Node70&#45;&gt;Node71 -->
<g id="edge52" class="edge">
<title>Node70&#45;&gt;Node71</title>
<path fill="none" stroke="#191970" d="M1054,-214.1575C1054,-205.155 1054,-194.9199 1054,-187.6427"/>
<polygon fill="#191970" stroke="#191970" points="1050.5001,-214.2455 1054,-224.2455 1057.5001,-214.2456 1050.5001,-214.2455"/>
</g>
</g>
</svg>
