<?xml version="1.0" encoding="UTF-8" standalone="no"?>
<!DOCTYPE svg PUBLIC "-//W3C//DTD SVG 1.1//EN"
 "http://www.w3.org/Graphics/SVG/1.1/DTD/svg11.dtd">
<!-- Generated by graphviz version 2.40.1 (20161225.0304)
 -->
<!-- Title: PDEBase.H Pages: 1 -->
<svg width="4229pt" height="252pt"
 viewBox="0.00 0.00 4228.50 252.00" xmlns="http://www.w3.org/2000/svg" xmlns:xlink="http://www.w3.org/1999/xlink">
<g id="graph0" class="graph" transform="scale(1 1) rotate(0) translate(4 248)">
<title>PDEBase.H</title>
<polygon fill="#ffffff" stroke="transparent" points="-4,4 -4,-248 4224.5,-248 4224.5,4 -4,4"/>
<!-- Node14 -->
<g id="node1" class="node">
<title>Node14</title>
<polygon fill="#bfbfbf" stroke="#000000" points="3954,-224.5 3954,-243.5 4025,-243.5 4025,-224.5 3954,-224.5"/>
<text text-anchor="middle" x="3989.5" y="-231.5" font-family="Helvetica,sans-Serif" font-size="10.00" fill="#000000">PDEBase.H</text>
</g>
<!-- Node15 -->
<g id="node2" class="node">
<title>Node15</title>
<g id="a_node2"><a xlink:href="_c_f_d_sim_8_h.html" target="_top" xlink:title="CFDSim.H">
<polygon fill="#ffffff" stroke="#000000" points="2047,-168.5 2047,-187.5 2112,-187.5 2112,-168.5 2047,-168.5"/>
<text text-anchor="middle" x="2079.5" y="-175.5" font-family="Helvetica,sans-Serif" font-size="10.00" fill="#000000">CFDSim.H</text>
</a>
</g>
</g>
<!-- Node14&#45;&gt;Node15 -->
<g id="edge1" class="edge">
<title>Node14&#45;&gt;Node15</title>
<path fill="none" stroke="#191970" d="M3943.8357,-232.6612C3678.5252,-224.8824 2339.3181,-185.6177 2112.2408,-178.9599"/>
<polygon fill="#191970" stroke="#191970" points="3943.7906,-236.1612 3953.8889,-232.9559 3943.9958,-229.1642 3943.7906,-236.1612"/>
</g>
<!-- Node20 -->
<g id="node4" class="node">
<title>Node20</title>
<g id="a_node4"><a xlink:href="incflo_8cpp.html" target="_top" xlink:title="incflo.cpp">
<polygon fill="#ffffff" stroke="#000000" points="3822,-56.5 3822,-75.5 3881,-75.5 3881,-56.5 3822,-56.5"/>
<text text-anchor="middle" x="3851.5" y="-63.5" font-family="Helvetica,sans-Serif" font-size="10.00" fill="#000000">incflo.cpp</text>
</a>
</g>
</g>
<!-- Node14&#45;&gt;Node20 -->
<g id="edge61" class="edge">
<title>Node14&#45;&gt;Node20</title>
<path fill="none" stroke="#191970" d="M4008.2001,-217.3906C4033.8438,-192.6107 4073.901,-145.3145 4047.5,-112 4027.0938,-86.2502 3930.9551,-73.5123 3881.3212,-68.5621"/>
<polygon fill="#191970" stroke="#191970" points="4005.7065,-214.9305 4000.794,-224.3176 4010.4882,-220.0428 4005.7065,-214.9305"/>
</g>
<!-- Node21 -->
<g id="node5" class="node">
<title>Node21</title>
<g id="a_node5"><a xlink:href="incflo__advance_8cpp.html" target="_top" xlink:title="incflo_advance.cpp">
<polygon fill="#ffffff" stroke="#000000" points="4002,-56.5 4002,-75.5 4103,-75.5 4103,-56.5 4002,-56.5"/>
<text text-anchor="middle" x="4052.5" y="-63.5" font-family="Helvetica,sans-Serif" font-size="10.00" fill="#000000">incflo_advance.cpp</text>
</a>
</g>
</g>
<!-- Node14&#45;&gt;Node21 -->
<g id="edge62" class="edge">
<title>Node14&#45;&gt;Node21</title>
<path fill="none" stroke="#191970" d="M4034.7296,-222.306C4052.1666,-215.3508 4070.328,-204.5397 4080.5,-188 4098.195,-159.228 4089.62,-144.5233 4080.5,-112 4076.6631,-98.3169 4067.5114,-84.6657 4060.7089,-75.8323"/>
<polygon fill="#191970" stroke="#191970" points="4033.3717,-219.0755 4025.1722,-225.7851 4035.7662,-225.6532 4033.3717,-219.0755"/>
</g>
<!-- Node69 -->
<g id="node14" class="node">
<title>Node69</title>
<g id="a_node14"><a xlink:href="_p_d_e_8_h.html" target="_top" xlink:title="PDE.H">
<polygon fill="#ffffff" stroke="#ff0000" points="3685.5,-56.5 3685.5,-75.5 3733.5,-75.5 3733.5,-56.5 3685.5,-56.5"/>
<text text-anchor="middle" x="3709.5" y="-63.5" font-family="Helvetica,sans-Serif" font-size="10.00" fill="#000000">PDE.H</text>
</a>
</g>
</g>
<!-- Node14&#45;&gt;Node69 -->
<g id="edge59" class="edge">
<title>Node14&#45;&gt;Node69</title>
<path fill="none" stroke="#191970" d="M3948.4916,-221.2254C3901.4786,-205.2866 3823.5659,-174.8185 3766.5,-132 3744.7018,-115.6441 3725.3774,-89.6593 3715.8247,-75.6723"/>
<polygon fill="#191970" stroke="#191970" points="3947.4423,-224.5649 3958.036,-224.4052 3949.655,-217.9237 3947.4423,-224.5649"/>
</g>
<!-- Node87 -->
<g id="node25" class="node">
<title>Node87</title>
<g id="a_node25"><a xlink:href="_p_d_e_base_8cpp.html" target="_top" xlink:title="PDEBase.cpp">
<polygon fill="#ffffff" stroke="#000000" points="3844,-112.5 3844,-131.5 3923,-131.5 3923,-112.5 3844,-112.5"/>
<text text-anchor="middle" x="3883.5" y="-119.5" font-family="Helvetica,sans-Serif" font-size="10.00" fill="#000000">PDEBase.cpp</text>
</a>
</g>
</g>
<!-- Node14&#45;&gt;Node87 -->
<g id="edge60" class="edge">
<title>Node14&#45;&gt;Node87</title>
<path fill="none" stroke="#191970" d="M3973.5561,-217.1536C3950.991,-193.3113 3910.488,-150.5156 3892.5146,-131.5249"/>
<polygon fill="#191970" stroke="#191970" points="3971.0466,-219.5938 3980.4625,-224.4509 3976.1307,-214.7821 3971.0466,-219.5938"/>
</g>
<!-- Node92 -->
<g id="node30" class="node">
<title>Node92</title>
<g id="a_node30"><a xlink:href="_tioga_interface_8cpp.html" target="_top" xlink:title="TiogaInterface.cpp">
<polygon fill="#ffffff" stroke="#000000" points="3940.5,-112.5 3940.5,-131.5 4038.5,-131.5 4038.5,-112.5 3940.5,-112.5"/>
<text text-anchor="middle" x="3989.5" y="-119.5" font-family="Helvetica,sans-Serif" font-size="10.00" fill="#000000">TiogaInterface.cpp</text>
</a>
</g>
</g>
<!-- Node14&#45;&gt;Node92 -->
<g id="edge63" class="edge">
<title>Node14&#45;&gt;Node92</title>
<path fill="none" stroke="#191970" d="M3989.5,-214.2702C3989.5,-189.9985 3989.5,-149.7725 3989.5,-131.5249"/>
<polygon fill="#191970" stroke="#191970" points="3986.0001,-214.4509 3989.5,-224.4509 3993.0001,-214.451 3986.0001,-214.4509"/>
</g>
<!-- Node79 -->
<g id="node50" class="node">
<title>Node79</title>
<g id="a_node50"><a xlink:href="_one_eq_ksgs_8cpp.html" target="_top" xlink:title="OneEqKsgs.cpp">
<polygon fill="#ffffff" stroke="#000000" points="4132.5,-168.5 4132.5,-187.5 4220.5,-187.5 4220.5,-168.5 4132.5,-168.5"/>
<text text-anchor="middle" x="4176.5" y="-175.5" font-family="Helvetica,sans-Serif" font-size="10.00" fill="#000000">OneEqKsgs.cpp</text>
</a>
</g>
</g>
<!-- Node14&#45;&gt;Node79 -->
<g id="edge64" class="edge">
<title>Node14&#45;&gt;Node79</title>
<path fill="none" stroke="#191970" d="M4031.3877,-221.4561C4065.7143,-211.1765 4113.5565,-196.8494 4144.773,-187.5011"/>
<polygon fill="#191970" stroke="#191970" points="4030.222,-218.1515 4021.6464,-224.3733 4032.2302,-224.8573 4030.222,-218.1515"/>
</g>
<!-- Node16 -->
<g id="node3" class="node">
<title>Node16</title>
<g id="a_node3"><a xlink:href="incflo_8_h.html" target="_top" xlink:title="incflo.H">
<polygon fill="#ffffff" stroke="#ff0000" points="3775.5,-112.5 3775.5,-131.5 3825.5,-131.5 3825.5,-112.5 3775.5,-112.5"/>
<text text-anchor="middle" x="3800.5" y="-119.5" font-family="Helvetica,sans-Serif" font-size="10.00" fill="#000000">incflo.H</text>
</a>
</g>
</g>
<!-- Node15&#45;&gt;Node16 -->
<g id="edge2" class="edge">
<title>Node15&#45;&gt;Node16</title>
<path fill="none" stroke="#191970" d="M2122.1706,-177.3919C2347.2859,-174.0945 3398.8181,-157.5597 3723.5,-132 3740.836,-130.6353 3760.2525,-128.1067 3775.2508,-125.9338"/>
<polygon fill="#191970" stroke="#191970" points="2122.0296,-173.8935 2112.0817,-177.5389 2122.1317,-180.8927 2122.0296,-173.8935"/>
</g>
<!-- Node36 -->
<g id="node6" class="node">
<title>Node36</title>
<g id="a_node6"><a xlink:href="_a_b_l_wall_function_8_h.html" target="_top" xlink:title="ABLWallFunction.H">
<polygon fill="#ffffff" stroke="#ff0000" points="2196,-56.5 2196,-75.5 2299,-75.5 2299,-56.5 2196,-56.5"/>
<text text-anchor="middle" x="2247.5" y="-63.5" font-family="Helvetica,sans-Serif" font-size="10.00" fill="#000000">ABLWallFunction.H</text>
</a>
</g>
</g>
<!-- Node15&#45;&gt;Node36 -->
<g id="edge5" class="edge">
<title>Node15&#45;&gt;Node36</title>
<path fill="none" stroke="#191970" d="M2122.1231,-173.8008C2172.6717,-167.8376 2252.3831,-154.9982 2270.5,-132 2283.8656,-115.0333 2267.5251,-89.7526 2256.3268,-75.9223"/>
<polygon fill="#191970" stroke="#191970" points="2121.662,-170.3306 2112.1207,-174.9364 2122.4517,-177.2859 2121.662,-170.3306"/>
</g>
<!-- Node41 -->
<g id="node7" class="node">
<title>Node41</title>
<g id="a_node7"><a xlink:href="_a_b_l_stats_8_h.html" target="_top" xlink:title="ABLStats.H">
<polygon fill="#ffffff" stroke="#ff0000" points="2133,-.5 2133,-19.5 2202,-19.5 2202,-.5 2133,-.5"/>
<text text-anchor="middle" x="2167.5" y="-7.5" font-family="Helvetica,sans-Serif" font-size="10.00" fill="#000000">ABLStats.H</text>
</a>
</g>
</g>
<!-- Node15&#45;&gt;Node41 -->
<g id="edge13" class="edge">
<title>Node15&#45;&gt;Node41</title>
<path fill="none" stroke="#191970" d="M2089.3535,-159.1887C2108.0601,-123.4762 2148.1197,-46.9988 2162.3521,-19.8279"/>
<polygon fill="#191970" stroke="#191970" points="2086.0231,-158.0039 2084.4834,-168.4862 2092.2239,-161.252 2086.0231,-158.0039"/>
</g>
<!-- Node43 -->
<g id="node8" class="node">
<title>Node43</title>
<g id="a_node8"><a xlink:href="_boussinesq_bubble_8cpp.html" target="_top" xlink:title="BoussinesqBubble.cpp">
<polygon fill="#ffffff" stroke="#000000" points="2245.5,-.5 2245.5,-19.5 2361.5,-19.5 2361.5,-.5 2245.5,-.5"/>
<text text-anchor="middle" x="2303.5" y="-7.5" font-family="Helvetica,sans-Serif" font-size="10.00" fill="#000000">BoussinesqBubble.cpp</text>
</a>
</g>
</g>
<!-- Node15&#45;&gt;Node43 -->
<g id="edge35" class="edge">
<title>Node15&#45;&gt;Node43</title>
<path fill="none" stroke="#191970" d="M2122.2031,-173.2616C2175.3721,-166.5725 2262.1733,-152.8067 2286.5,-132 2319.6533,-103.6438 2310.7637,-43.0091 2305.7844,-19.5462"/>
<polygon fill="#191970" stroke="#191970" points="2121.5467,-169.8158 2112.0462,-174.5051 2122.3974,-176.7639 2121.5467,-169.8158"/>
</g>
<!-- Node44 -->
<g id="node9" class="node">
<title>Node44</title>
<g id="a_node9"><a xlink:href="_field_plane_averaging_8_h.html" target="_top" xlink:title="FieldPlaneAveraging.H">
<polygon fill="#ffffff" stroke="#ff0000" points="2145.5,-112.5 2145.5,-131.5 2261.5,-131.5 2261.5,-112.5 2145.5,-112.5"/>
<text text-anchor="middle" x="2203.5" y="-119.5" font-family="Helvetica,sans-Serif" font-size="10.00" fill="#000000">FieldPlaneAveraging.H</text>
</a>
</g>
</g>
<!-- Node15&#45;&gt;Node44 -->
<g id="edge8" class="edge">
<title>Node15&#45;&gt;Node44</title>
<path fill="none" stroke="#191970" d="M2109.9524,-164.2473C2132.4722,-154.0771 2162.5617,-140.4883 2182.4618,-131.5011"/>
<polygon fill="#191970" stroke="#191970" points="2108.4895,-161.0675 2100.8164,-168.3733 2111.3706,-167.4471 2108.4895,-161.0675"/>
</g>
<!-- Node50 -->
<g id="node10" class="node">
<title>Node50</title>
<g id="a_node10"><a xlink:href="_a_b_l_boundary_plane_8_h.html" target="_top" xlink:title="ABLBoundaryPlane.H">
<polygon fill="#ffffff" stroke="#ff0000" points="2485.5,-112.5 2485.5,-131.5 2597.5,-131.5 2597.5,-112.5 2485.5,-112.5"/>
<text text-anchor="middle" x="2541.5" y="-119.5" font-family="Helvetica,sans-Serif" font-size="10.00" fill="#000000">ABLBoundaryPlane.H</text>
</a>
</g>
</g>
<!-- Node15&#45;&gt;Node50 -->
<g id="edge11" class="edge">
<title>Node15&#45;&gt;Node50</title>
<path fill="none" stroke="#191970" d="M2122.392,-173.5603C2195.268,-165.8984 2347.8788,-149.3394 2476.5,-132 2479.4419,-131.6034 2482.4568,-131.1842 2485.4993,-130.7511"/>
<polygon fill="#191970" stroke="#191970" points="2121.8114,-170.1019 2112.2307,-174.6252 2122.5411,-177.0638 2121.8114,-170.1019"/>
</g>
<!-- Node51 -->
<g id="node11" class="node">
<title>Node51</title>
<g id="a_node11"><a xlink:href="_a_b_l_boundary_plane_8cpp.html" target="_top" xlink:title="ABLBoundaryPlane.cpp">
<polygon fill="#ffffff" stroke="#000000" points="2418.5,-56.5 2418.5,-75.5 2538.5,-75.5 2538.5,-56.5 2418.5,-56.5"/>
<text text-anchor="middle" x="2478.5" y="-63.5" font-family="Helvetica,sans-Serif" font-size="10.00" fill="#000000">ABLBoundaryPlane.cpp</text>
</a>
</g>
</g>
<!-- Node15&#45;&gt;Node51 -->
<g id="edge58" class="edge">
<title>Node15&#45;&gt;Node51</title>
<path fill="none" stroke="#191970" d="M2122.0226,-174.1648C2174.5798,-168.6043 2266.2852,-156.2072 2341.5,-132 2347.5787,-130.0436 2422.7394,-93.3374 2459.0767,-75.531"/>
<polygon fill="#191970" stroke="#191970" points="2121.6405,-170.6855 2112.0496,-175.1872 2122.3545,-177.649 2121.6405,-170.6855"/>
</g>
<!-- Node54 -->
<g id="node12" class="node">
<title>Node54</title>
<g id="a_node12"><a xlink:href="_c_f_d_sim_8cpp.html" target="_top" xlink:title="CFDSim.cpp">
<polygon fill="#ffffff" stroke="#000000" points="2393.5,-112.5 2393.5,-131.5 2467.5,-131.5 2467.5,-112.5 2393.5,-112.5"/>
<text text-anchor="middle" x="2430.5" y="-119.5" font-family="Helvetica,sans-Serif" font-size="10.00" fill="#000000">CFDSim.cpp</text>
</a>
</g>
</g>
<!-- Node15&#45;&gt;Node54 -->
<g id="edge14" class="edge">
<title>Node15&#45;&gt;Node54</title>
<path fill="none" stroke="#191970" d="M2122.3789,-171.9959C2180.6835,-163.7016 2288.1774,-147.9475 2379.5,-132 2384.033,-131.2084 2388.784,-130.3353 2393.4862,-129.4447"/>
<polygon fill="#191970" stroke="#191970" points="2121.8324,-168.5383 2112.4229,-173.4076 2122.8153,-175.4689 2121.8324,-168.5383"/>
</g>
<!-- Node55 -->
<g id="node13" class="node">
<title>Node55</title>
<g id="a_node13"><a xlink:href="_p_d_e_ops_8_h.html" target="_top" xlink:title="PDEOps.H">
<polygon fill="#ffffff" stroke="#ff0000" points="3505.5,-112.5 3505.5,-131.5 3571.5,-131.5 3571.5,-112.5 3505.5,-112.5"/>
<text text-anchor="middle" x="3538.5" y="-119.5" font-family="Helvetica,sans-Serif" font-size="10.00" fill="#000000">PDEOps.H</text>
</a>
</g>
</g>
<!-- Node15&#45;&gt;Node55 -->
<g id="edge15" class="edge">
<title>Node15&#45;&gt;Node55</title>
<path fill="none" stroke="#191970" d="M2122.443,-177.7706C2328.9327,-176.4893 3221.0408,-168.8809 3496.5,-132 3499.3231,-131.622 3502.2335,-131.1359 3505.1431,-130.5821"/>
<polygon fill="#191970" stroke="#191970" points="2122.2796,-174.2714 2112.3009,-177.8318 2122.3219,-181.2713 2122.2796,-174.2714"/>
</g>
<!-- Node15&#45;&gt;Node69 -->
<g id="edge20" class="edge">
<title>Node15&#45;&gt;Node69</title>
<path fill="none" stroke="#191970" d="M2122.2989,-177.4699C2374.6669,-174.2599 3658.6016,-156.732 3690.5,-132 3707.8385,-118.5568 3710.0684,-90.3425 3709.9511,-75.5353"/>
<polygon fill="#191970" stroke="#191970" points="2122.0244,-173.973 2112.0695,-177.5993 2122.113,-180.9724 2122.0244,-173.973"/>
</g>
<!-- Node38 -->
<g id="node18" class="node">
<title>Node38</title>
<g id="a_node18"><a xlink:href="_a_b_l_forcing_8cpp.html" target="_top" xlink:title="ABLForcing.cpp">
<polygon fill="#ffffff" stroke="#000000" points="2615.5,-112.5 2615.5,-131.5 2701.5,-131.5 2701.5,-112.5 2615.5,-112.5"/>
<text text-anchor="middle" x="2658.5" y="-119.5" font-family="Helvetica,sans-Serif" font-size="10.00" fill="#000000">ABLForcing.cpp</text>
</a>
</g>
</g>
<!-- Node15&#45;&gt;Node38 -->
<g id="edge21" class="edge">
<title>Node15&#45;&gt;Node38</title>
<path fill="none" stroke="#191970" d="M2122.0853,-175.7736C2211.9302,-170.7492 2427.3503,-156.9771 2606.5,-132 2609.4136,-131.5938 2612.4114,-131.1329 2615.4266,-130.6373"/>
<polygon fill="#191970" stroke="#191970" points="2121.8059,-172.2836 2112.014,-176.3294 2122.1917,-179.2729 2121.8059,-172.2836"/>
</g>
<!-- Node39 -->
<g id="node19" class="node">
<title>Node39</title>
<g id="a_node19"><a xlink:href="_a_b_l_mean_boussinesq_8cpp.html" target="_top" xlink:title="ABLMeanBoussinesq.cpp">
<polygon fill="#ffffff" stroke="#000000" points="2720,-112.5 2720,-131.5 2849,-131.5 2849,-112.5 2720,-112.5"/>
<text text-anchor="middle" x="2784.5" y="-119.5" font-family="Helvetica,sans-Serif" font-size="10.00" fill="#000000">ABLMeanBoussinesq.cpp</text>
</a>
</g>
</g>
<!-- Node15&#45;&gt;Node39 -->
<g id="edge22" class="edge">
<title>Node15&#45;&gt;Node39</title>
<path fill="none" stroke="#191970" d="M2122.2772,-175.7924C2224.2675,-170.3304 2489.706,-154.9445 2710.5,-132 2713.5947,-131.6784 2716.7595,-131.3292 2719.9541,-130.9604"/>
<polygon fill="#191970" stroke="#191970" points="2121.8725,-172.3089 2112.0725,-176.3349 2122.2442,-179.299 2121.8725,-172.3089"/>
</g>
<!-- Node82 -->
<g id="node20" class="node">
<title>Node82</title>
<g id="a_node20"><a xlink:href="_body_force_8cpp.html" target="_top" xlink:title="BodyForce.cpp">
<polygon fill="#ffffff" stroke="#000000" points="2867,-112.5 2867,-131.5 2950,-131.5 2950,-112.5 2867,-112.5"/>
<text text-anchor="middle" x="2908.5" y="-119.5" font-family="Helvetica,sans-Serif" font-size="10.00" fill="#000000">BodyForce.cpp</text>
</a>
</g>
</g>
<!-- Node15&#45;&gt;Node82 -->
<g id="edge23" class="edge">
<title>Node15&#45;&gt;Node82</title>
<path fill="none" stroke="#191970" d="M2122.3713,-177.5477C2240.312,-175.8558 2579.3787,-167.9774 2858.5,-132 2861.2217,-131.6492 2864.0175,-131.2367 2866.8294,-130.7826"/>
<polygon fill="#191970" stroke="#191970" points="2122.2561,-174.0489 2112.3046,-177.6846 2122.3513,-181.0482 2122.2561,-174.0489"/>
</g>
<!-- Node83 -->
<g id="node21" class="node">
<title>Node83</title>
<g id="a_node21"><a xlink:href="_boussinesq_buoyancy_8cpp.html" target="_top" xlink:title="BoussinesqBuoyancy.cpp">
<polygon fill="#ffffff" stroke="#000000" points="2968.5,-112.5 2968.5,-131.5 3098.5,-131.5 3098.5,-112.5 2968.5,-112.5"/>
<text text-anchor="middle" x="3033.5" y="-119.5" font-family="Helvetica,sans-Serif" font-size="10.00" fill="#000000">BoussinesqBuoyancy.cpp</text>
</a>
</g>
</g>
<!-- Node15&#45;&gt;Node83 -->
<g id="edge24" class="edge">
<title>Node15&#45;&gt;Node83</title>
<path fill="none" stroke="#191970" d="M2122.4826,-177.0033C2250.242,-173.7724 2638.7416,-162.0053 2959.5,-132 2962.3397,-131.7344 2965.2378,-131.4405 2968.1633,-131.1253"/>
<polygon fill="#191970" stroke="#191970" points="2122.243,-173.5081 2112.3332,-177.2558 2122.4172,-180.506 2122.243,-173.5081"/>
</g>
<!-- Node84 -->
<g id="node22" class="node">
<title>Node84</title>
<g id="a_node22"><a xlink:href="_coriolis_forcing_8cpp.html" target="_top" xlink:title="CoriolisForcing.cpp">
<polygon fill="#ffffff" stroke="#000000" points="3117,-112.5 3117,-131.5 3218,-131.5 3218,-112.5 3117,-112.5"/>
<text text-anchor="middle" x="3167.5" y="-119.5" font-family="Helvetica,sans-Serif" font-size="10.00" fill="#000000">CoriolisForcing.cpp</text>
</a>
</g>
</g>
<!-- Node15&#45;&gt;Node84 -->
<g id="edge25" class="edge">
<title>Node15&#45;&gt;Node84</title>
<path fill="none" stroke="#191970" d="M2122.2557,-176.7749C2291.0883,-171.8306 2911.7112,-152.6204 3107.5,-132 3110.5457,-131.6792 3113.6712,-131.3028 3116.8196,-130.8875"/>
<polygon fill="#191970" stroke="#191970" points="2121.9189,-173.2831 2112.0252,-177.0732 2122.123,-180.2802 2121.9189,-173.2831"/>
</g>
<!-- Node85 -->
<g id="node23" class="node">
<title>Node85</title>
<g id="a_node23"><a xlink:href="_density_buoyancy_8cpp.html" target="_top" xlink:title="DensityBuoyancy.cpp">
<polygon fill="#ffffff" stroke="#000000" points="3236,-112.5 3236,-131.5 3349,-131.5 3349,-112.5 3236,-112.5"/>
<text text-anchor="middle" x="3292.5" y="-119.5" font-family="Helvetica,sans-Serif" font-size="10.00" fill="#000000">DensityBuoyancy.cpp</text>
</a>
</g>
</g>
<!-- Node15&#45;&gt;Node85 -->
<g id="edge26" class="edge">
<title>Node15&#45;&gt;Node85</title>
<path fill="none" stroke="#191970" d="M2122.4196,-176.9286C2303.6179,-172.3051 3006.8012,-153.3301 3227.5,-132 3230.2275,-131.7364 3233.0149,-131.4343 3235.8269,-131.1033"/>
<polygon fill="#191970" stroke="#191970" points="2122.1282,-173.4347 2112.2204,-177.1877 2122.3061,-180.4325 2122.1282,-173.4347"/>
</g>
<!-- Node86 -->
<g id="node24" class="node">
<title>Node86</title>
<g id="a_node24"><a xlink:href="_geostrophic_forcing_8cpp.html" target="_top" xlink:title="GeostrophicForcing.cpp">
<polygon fill="#ffffff" stroke="#000000" points="3367.5,-112.5 3367.5,-131.5 3487.5,-131.5 3487.5,-112.5 3367.5,-112.5"/>
<text text-anchor="middle" x="3427.5" y="-119.5" font-family="Helvetica,sans-Serif" font-size="10.00" fill="#000000">GeostrophicForcing.cpp</text>
</a>
</g>
</g>
<!-- Node15&#45;&gt;Node86 -->
<g id="edge27" class="edge">
<title>Node15&#45;&gt;Node86</title>
<path fill="none" stroke="#191970" d="M2122.1926,-177.0853C2315.5382,-172.8476 3110.3749,-154.3762 3358.5,-132 3361.3933,-131.7391 3364.3505,-131.4392 3367.3343,-131.1099"/>
<polygon fill="#191970" stroke="#191970" points="2122.0598,-173.5873 2112.1386,-177.3047 2122.2126,-180.5856 2122.0598,-173.5873"/>
</g>
<!-- Node15&#45;&gt;Node87 -->
<g id="edge28" class="edge">
<title>Node15&#45;&gt;Node87</title>
<path fill="none" stroke="#191970" d="M2122.4367,-177.8947C2357.2251,-177.164 3487.798,-171.6122 3834.5,-132 3837.5192,-131.655 3840.6287,-131.2175 3843.7474,-130.7191"/>
<polygon fill="#191970" stroke="#191970" points="2122.2414,-174.3952 2112.2519,-177.9251 2122.2624,-181.3951 2122.2414,-174.3952"/>
</g>
<!-- Node88 -->
<g id="node26" class="node">
<title>Node88</title>
<g id="a_node26"><a xlink:href="_ksgs_m84_src_8cpp.html" target="_top" xlink:title="KsgsM84Src.cpp">
<polygon fill="#ffffff" stroke="#000000" points="3589.5,-112.5 3589.5,-131.5 3681.5,-131.5 3681.5,-112.5 3589.5,-112.5"/>
<text text-anchor="middle" x="3635.5" y="-119.5" font-family="Helvetica,sans-Serif" font-size="10.00" fill="#000000">KsgsM84Src.cpp</text>
</a>
</g>
</g>
<!-- Node15&#45;&gt;Node88 -->
<g id="edge29" class="edge">
<title>Node15&#45;&gt;Node88</title>
<path fill="none" stroke="#191970" d="M2122.1653,-177.5532C2335.347,-175.1895 3286.4926,-163.0576 3580.5,-132 3583.3954,-131.6941 3586.3676,-131.3226 3589.3586,-130.9051"/>
<polygon fill="#191970" stroke="#191970" points="2121.9672,-174.0551 2112.0062,-177.6646 2122.0441,-181.0547 2121.9672,-174.0551"/>
</g>
<!-- Node89 -->
<g id="node27" class="node">
<title>Node89</title>
<g id="a_node27"><a xlink:href="_m_m_s_8_h.html" target="_top" xlink:title="MMS.H">
<polygon fill="#ffffff" stroke="#000000" points="248.5,-112.5 248.5,-131.5 298.5,-131.5 298.5,-112.5 248.5,-112.5"/>
<text text-anchor="middle" x="273.5" y="-119.5" font-family="Helvetica,sans-Serif" font-size="10.00" fill="#000000">MMS.H</text>
</a>
</g>
</g>
<!-- Node15&#45;&gt;Node89 -->
<g id="edge30" class="edge">
<title>Node15&#45;&gt;Node89</title>
<path fill="none" stroke="#191970" d="M2036.6346,-177.4617C1783.3796,-174.2042 487.8782,-156.449 312.5,-132 307.9309,-131.363 303.1255,-130.3898 298.5093,-129.2961"/>
<polygon fill="#191970" stroke="#191970" points="2036.8521,-180.9646 2046.8961,-177.593 2036.9417,-173.9652 2036.8521,-180.9646"/>
</g>
<!-- Node90 -->
<g id="node28" class="node">
<title>Node90</title>
<g id="a_node28"><a xlink:href="_m_m_s_8cpp.html" target="_top" xlink:title="MMS.cpp">
<polygon fill="#ffffff" stroke="#000000" points="270,-56.5 270,-75.5 329,-75.5 329,-56.5 270,-56.5"/>
<text text-anchor="middle" x="299.5" y="-63.5" font-family="Helvetica,sans-Serif" font-size="10.00" fill="#000000">MMS.cpp</text>
</a>
</g>
</g>
<!-- Node15&#45;&gt;Node90 -->
<g id="edge32" class="edge">
<title>Node15&#45;&gt;Node90</title>
<path fill="none" stroke="#191970" d="M2036.7241,-177.9523C1777.1974,-177.5271 422.1854,-173.3291 345.5,-132 322.8774,-119.8077 309.0111,-91.0461 303.0008,-75.8322"/>
<polygon fill="#191970" stroke="#191970" points="2036.8732,-181.4524 2046.8786,-177.9678 2036.884,-174.4524 2036.8732,-181.4524"/>
</g>
<!-- Node91 -->
<g id="node29" class="node">
<title>Node91</title>
<g id="a_node29"><a xlink:href="_m_m_s_forcing_8cpp.html" target="_top" xlink:title="MMSForcing.cpp">
<polygon fill="#ffffff" stroke="#000000" points="0,-112.5 0,-131.5 91,-131.5 91,-112.5 0,-112.5"/>
<text text-anchor="middle" x="45.5" y="-119.5" font-family="Helvetica,sans-Serif" font-size="10.00" fill="#000000">MMSForcing.cpp</text>
</a>
</g>
</g>
<!-- Node15&#45;&gt;Node91 -->
<g id="edge33" class="edge">
<title>Node15&#45;&gt;Node91</title>
<path fill="none" stroke="#191970" d="M2036.4181,-177.9369C1783.9271,-177.4253 493.7799,-172.8226 99.5,-132 96.7497,-131.7152 93.9296,-131.3667 91.0907,-130.9724"/>
<polygon fill="#191970" stroke="#191970" points="2036.6434,-181.4372 2046.6501,-177.9565 2036.6568,-174.4373 2036.6434,-181.4372"/>
</g>
<!-- Node15&#45;&gt;Node92 -->
<g id="edge34" class="edge">
<title>Node15&#45;&gt;Node92</title>
<path fill="none" stroke="#191970" d="M2122.4766,-177.8029C2365.006,-176.5588 3564.7146,-168.6213 3932.5,-132 3935.0994,-131.7412 3937.7587,-131.4318 3940.439,-131.0847"/>
<polygon fill="#191970" stroke="#191970" points="2122.2829,-174.3037 2112.3006,-177.854 2122.3181,-181.3037 2122.2829,-174.3037"/>
</g>
<!-- Node93 -->
<g id="node31" class="node">
<title>Node93</title>
<g id="a_node31"><a xlink:href="_convecting_taylor_vortex_8_h.html" target="_top" xlink:title="ConvectingTaylorVortex.H">
<polygon fill="#ffffff" stroke="#000000" points="1919.5,-112.5 1919.5,-131.5 2051.5,-131.5 2051.5,-112.5 1919.5,-112.5"/>
<text text-anchor="middle" x="1985.5" y="-119.5" font-family="Helvetica,sans-Serif" font-size="10.00" fill="#000000">ConvectingTaylorVortex.H</text>
</a>
</g>
</g>
<!-- Node15&#45;&gt;Node93 -->
<g id="edge36" class="edge">
<title>Node15&#45;&gt;Node93</title>
<path fill="none" stroke="#191970" d="M2054.3995,-163.0465C2037.674,-153.0824 2016.1832,-140.2794 2001.6859,-131.6427"/>
<polygon fill="#191970" stroke="#191970" points="2052.7441,-166.1343 2063.1264,-168.2455 2056.3268,-160.1206 2052.7441,-166.1343"/>
</g>
<!-- Node94 -->
<g id="node32" class="node">
<title>Node94</title>
<g id="a_node32"><a xlink:href="_convecting_taylor_vortex_8cpp.html" target="_top" xlink:title="ConvectingTaylorVortex.cpp">
<polygon fill="#ffffff" stroke="#000000" points="1932.5,-56.5 1932.5,-75.5 2072.5,-75.5 2072.5,-56.5 1932.5,-56.5"/>
<text text-anchor="middle" x="2002.5" y="-63.5" font-family="Helvetica,sans-Serif" font-size="10.00" fill="#000000">ConvectingTaylorVortex.cpp</text>
</a>
</g>
</g>
<!-- Node15&#45;&gt;Node94 -->
<g id="edge38" class="edge">
<title>Node15&#45;&gt;Node94</title>
<path fill="none" stroke="#191970" d="M2077.079,-158.3039C2074.6338,-144.4264 2069.8215,-125.9132 2060.5,-112 2050.0561,-96.4114 2032.6599,-83.6418 2019.6383,-75.546"/>
<polygon fill="#191970" stroke="#191970" points="2073.6281,-158.8933 2078.5733,-168.2632 2080.5506,-157.8545 2073.6281,-158.8933"/>
</g>
<!-- Node95 -->
<g id="node33" class="node">
<title>Node95</title>
<g id="a_node33"><a xlink:href="_ekman_spiral_8_h.html" target="_top" xlink:title="EkmanSpiral.H">
<polygon fill="#ffffff" stroke="#000000" points="109,-112.5 109,-131.5 192,-131.5 192,-112.5 109,-112.5"/>
<text text-anchor="middle" x="150.5" y="-119.5" font-family="Helvetica,sans-Serif" font-size="10.00" fill="#000000">EkmanSpiral.H</text>
</a>
</g>
</g>
<!-- Node15&#45;&gt;Node95 -->
<g id="edge39" class="edge">
<title>Node15&#45;&gt;Node95</title>
<path fill="none" stroke="#191970" d="M2036.4513,-177.8335C1792.2021,-176.7535 578.4002,-169.5518 206.5,-132 201.8818,-131.5337 197.0717,-130.9015 192.2959,-130.1801"/>
<polygon fill="#191970" stroke="#191970" points="2036.6807,-181.3344 2046.6957,-177.8776 2036.711,-174.3344 2036.6807,-181.3344"/>
</g>
<!-- Node96 -->
<g id="node34" class="node">
<title>Node96</title>
<g id="a_node34"><a xlink:href="_ekman_spiral_8cpp.html" target="_top" xlink:title="EkmanSpiral.cpp">
<polygon fill="#ffffff" stroke="#000000" points="146,-56.5 146,-75.5 237,-75.5 237,-56.5 146,-56.5"/>
<text text-anchor="middle" x="191.5" y="-63.5" font-family="Helvetica,sans-Serif" font-size="10.00" fill="#000000">EkmanSpiral.cpp</text>
</a>
</g>
</g>
<!-- Node15&#45;&gt;Node96 -->
<g id="edge41" class="edge">
<title>Node15&#45;&gt;Node96</title>
<path fill="none" stroke="#191970" d="M2036.5022,-177.4492C1763.4035,-173.8871 280.5928,-153.5763 239.5,-132 216.4187,-119.8809 201.7199,-91.0873 195.2776,-75.8495"/>
<polygon fill="#191970" stroke="#191970" points="2036.7491,-180.9526 2046.7937,-177.5829 2036.8401,-173.9532 2036.7491,-180.9526"/>
</g>
<!-- Node97 -->
<g id="node35" class="node">
<title>Node97</title>
<g id="a_node35"><a xlink:href="_free_stream_8cpp.html" target="_top" xlink:title="FreeStream.cpp">
<polygon fill="#ffffff" stroke="#000000" points="354.5,-112.5 354.5,-131.5 440.5,-131.5 440.5,-112.5 354.5,-112.5"/>
<text text-anchor="middle" x="397.5" y="-119.5" font-family="Helvetica,sans-Serif" font-size="10.00" fill="#000000">FreeStream.cpp</text>
</a>
</g>
</g>
<!-- Node15&#45;&gt;Node97 -->
<g id="edge42" class="edge">
<title>Node15&#45;&gt;Node97</title>
<path fill="none" stroke="#191970" d="M2036.7978,-177.7308C1812.6686,-176.1753 770.322,-167.1415 449.5,-132 446.5757,-131.6797 443.5699,-131.2832 440.5488,-130.8346"/>
<polygon fill="#191970" stroke="#191970" points="2036.8224,-181.2309 2046.8461,-177.7993 2036.8702,-174.2311 2036.8224,-181.2309"/>
</g>
<!-- Node98 -->
<g id="node36" class="node">
<title>Node98</title>
<g id="a_node36"><a xlink:href="_dam_break_8cpp.html" target="_top" xlink:title="DamBreak.cpp">
<polygon fill="#ffffff" stroke="#000000" points="458.5,-112.5 458.5,-131.5 540.5,-131.5 540.5,-112.5 458.5,-112.5"/>
<text text-anchor="middle" x="499.5" y="-119.5" font-family="Helvetica,sans-Serif" font-size="10.00" fill="#000000">DamBreak.cpp</text>
</a>
</g>
</g>
<!-- Node15&#45;&gt;Node98 -->
<g id="edge43" class="edge">
<title>Node15&#45;&gt;Node98</title>
<path fill="none" stroke="#191970" d="M2036.7035,-177.6815C1820.7482,-175.9268 849.2278,-166.2345 549.5,-132 546.5976,-131.6685 543.6126,-131.2563 540.6145,-130.7897"/>
<polygon fill="#191970" stroke="#191970" points="2036.9601,-181.1836 2046.9878,-177.7637 2037.0161,-174.1838 2036.9601,-181.1836"/>
</g>
<!-- Node99 -->
<g id="node37" class="node">
<title>Node99</title>
<g id="a_node37"><a xlink:href="_multi_phase_8cpp.html" target="_top" xlink:title="MultiPhase.cpp">
<polygon fill="#ffffff" stroke="#000000" points="558.5,-112.5 558.5,-131.5 642.5,-131.5 642.5,-112.5 558.5,-112.5"/>
<text text-anchor="middle" x="600.5" y="-119.5" font-family="Helvetica,sans-Serif" font-size="10.00" fill="#000000">MultiPhase.cpp</text>
</a>
</g>
</g>
<!-- Node15&#45;&gt;Node99 -->
<g id="edge44" class="edge">
<title>Node15&#45;&gt;Node99</title>
<path fill="none" stroke="#191970" d="M2036.5588,-177.5749C1829.0826,-175.3746 929.0754,-164.1181 650.5,-132 647.9497,-131.706 645.3355,-131.3502 642.7048,-130.9505"/>
<polygon fill="#191970" stroke="#191970" points="2036.7099,-181.0766 2046.746,-177.6815 2036.7832,-174.077 2036.7099,-181.0766"/>
</g>
<!-- Node100 -->
<g id="node38" class="node">
<title>Node100</title>
<g id="a_node38"><a xlink:href="_vortex_patch_8cpp.html" target="_top" xlink:title="VortexPatch.cpp">
<polygon fill="#ffffff" stroke="#000000" points="660,-112.5 660,-131.5 749,-131.5 749,-112.5 660,-112.5"/>
<text text-anchor="middle" x="704.5" y="-119.5" font-family="Helvetica,sans-Serif" font-size="10.00" fill="#000000">VortexPatch.cpp</text>
</a>
</g>
</g>
<!-- Node15&#45;&gt;Node100 -->
<g id="edge45" class="edge">
<title>Node15&#45;&gt;Node100</title>
<path fill="none" stroke="#191970" d="M2036.6859,-177.3642C1839.1867,-174.3001 1014.8367,-160.0414 758.5,-132 755.4671,-131.6682 752.3487,-131.2631 749.2135,-130.8083"/>
<polygon fill="#191970" stroke="#191970" points="2036.8904,-180.8676 2046.9431,-177.522 2036.9982,-173.8685 2036.8904,-180.8676"/>
</g>
<!-- Node101 -->
<g id="node39" class="node">
<title>Node101</title>
<g id="a_node39"><a xlink:href="_zalesak_disk_8cpp.html" target="_top" xlink:title="ZalesakDisk.cpp">
<polygon fill="#ffffff" stroke="#000000" points="767.5,-112.5 767.5,-131.5 857.5,-131.5 857.5,-112.5 767.5,-112.5"/>
<text text-anchor="middle" x="812.5" y="-119.5" font-family="Helvetica,sans-Serif" font-size="10.00" fill="#000000">ZalesakDisk.cpp</text>
</a>
</g>
</g>
<!-- Node15&#45;&gt;Node101 -->
<g id="edge46" class="edge">
<title>Node15&#45;&gt;Node101</title>
<path fill="none" stroke="#191970" d="M2036.8841,-177.2151C1849.8319,-173.6423 1100.4641,-157.9606 866.5,-132 863.5624,-131.674 860.5444,-131.2804 857.5085,-130.8402"/>
<polygon fill="#191970" stroke="#191970" points="2036.8182,-180.7144 2046.8828,-177.4048 2036.951,-173.7157 2036.8182,-180.7144"/>
</g>
<!-- Node102 -->
<g id="node40" class="node">
<title>Node102</title>
<g id="a_node40"><a xlink:href="_rayleigh_taylor_8cpp.html" target="_top" xlink:title="RayleighTaylor.cpp">
<polygon fill="#ffffff" stroke="#000000" points="876,-112.5 876,-131.5 977,-131.5 977,-112.5 876,-112.5"/>
<text text-anchor="middle" x="926.5" y="-119.5" font-family="Helvetica,sans-Serif" font-size="10.00" fill="#000000">RayleighTaylor.cpp</text>
</a>
</g>
</g>
<!-- Node15&#45;&gt;Node102 -->
<g id="edge47" class="edge">
<title>Node15&#45;&gt;Node102</title>
<path fill="none" stroke="#191970" d="M2036.5981,-176.9191C1860.7882,-172.378 1194.8523,-154.0545 985.5,-132 982.8137,-131.717 980.0645,-131.3883 977.2928,-131.0262"/>
<polygon fill="#191970" stroke="#191970" points="2036.6644,-180.4219 2046.751,-177.1801 2036.8443,-173.4242 2036.6644,-180.4219"/>
</g>
<!-- Node103 -->
<g id="node41" class="node">
<title>Node103</title>
<g id="a_node41"><a xlink:href="_taylor_green_vortex_8cpp.html" target="_top" xlink:title="TaylorGreenVortex.cpp">
<polygon fill="#ffffff" stroke="#000000" points="995,-112.5 995,-131.5 1112,-131.5 1112,-112.5 995,-112.5"/>
<text text-anchor="middle" x="1053.5" y="-119.5" font-family="Helvetica,sans-Serif" font-size="10.00" fill="#000000">TaylorGreenVortex.cpp</text>
</a>
</g>
</g>
<!-- Node15&#45;&gt;Node103 -->
<g id="edge48" class="edge">
<title>Node15&#45;&gt;Node103</title>
<path fill="none" stroke="#191970" d="M2036.3664,-177.47C1901.0569,-175.4782 1472.9957,-166.6716 1120.5,-132 1117.808,-131.7352 1115.0589,-131.4373 1112.2847,-131.1143"/>
<polygon fill="#191970" stroke="#191970" points="2036.6591,-180.9745 2046.708,-177.6173 2036.7588,-173.9752 2036.6591,-180.9745"/>
</g>
<!-- Node104 -->
<g id="node42" class="node">
<title>Node104</title>
<g id="a_node42"><a xlink:href="_turb_model_8_h.html" target="_top" xlink:title="TurbModel.H">
<polygon fill="#ffffff" stroke="#ff0000" points="1130,-112.5 1130,-131.5 1203,-131.5 1203,-112.5 1130,-112.5"/>
<text text-anchor="middle" x="1166.5" y="-119.5" font-family="Helvetica,sans-Serif" font-size="10.00" fill="#000000">TurbModel.H</text>
</a>
</g>
</g>
<!-- Node15&#45;&gt;Node104 -->
<g id="edge49" class="edge">
<title>Node15&#45;&gt;Node104</title>
<path fill="none" stroke="#191970" d="M2036.5839,-176.6687C1884.7975,-171.8129 1373.756,-154.172 1211.5,-132 1208.804,-131.6316 1206.0304,-131.1847 1203.2473,-130.6865"/>
<polygon fill="#191970" stroke="#191970" points="2036.7757,-180.1765 2046.8819,-176.9961 2036.9982,-173.18 2036.7757,-180.1765"/>
</g>
<!-- Node107 -->
<g id="node43" class="node">
<title>Node107</title>
<g id="a_node43"><a xlink:href="turbulence__utils_8_h.html" target="_top" xlink:title="turbulence_utils.H">
<polygon fill="#ffffff" stroke="#000000" points="1221,-112.5 1221,-131.5 1316,-131.5 1316,-112.5 1221,-112.5"/>
<text text-anchor="middle" x="1268.5" y="-119.5" font-family="Helvetica,sans-Serif" font-size="10.00" fill="#000000">turbulence_utils.H</text>
</a>
</g>
</g>
<!-- Node15&#45;&gt;Node107 -->
<g id="edge50" class="edge">
<title>Node15&#45;&gt;Node107</title>
<path fill="none" stroke="#191970" d="M2036.4915,-177.0728C1921.0428,-174.2175 1594.8389,-163.7397 1325.5,-132 1322.4068,-131.6355 1319.227,-131.2126 1316.0268,-130.7509"/>
<polygon fill="#191970" stroke="#191970" points="2036.5981,-180.5763 2046.6796,-177.3183 2036.7668,-173.5783 2036.5981,-180.5763"/>
</g>
<!-- Node112 -->
<g id="node44" class="node">
<title>Node112</title>
<g id="a_node44"><a xlink:href="_derived_quantity_8_h.html" target="_top" xlink:title="DerivedQuantity.H">
<polygon fill="#ffffff" stroke="#ff0000" points="1334.5,-112.5 1334.5,-131.5 1432.5,-131.5 1432.5,-112.5 1334.5,-112.5"/>
<text text-anchor="middle" x="1383.5" y="-119.5" font-family="Helvetica,sans-Serif" font-size="10.00" fill="#000000">DerivedQuantity.H</text>
</a>
</g>
</g>
<!-- Node15&#45;&gt;Node112 -->
<g id="edge51" class="edge">
<title>Node15&#45;&gt;Node112</title>
<path fill="none" stroke="#191970" d="M2036.5498,-176.1386C1934.1552,-171.4266 1667.7125,-157.5476 1446.5,-132 1441.9895,-131.4791 1437.3078,-130.8685 1432.6254,-130.2104"/>
<polygon fill="#191970" stroke="#191970" points="2036.6464,-179.6465 2046.7951,-176.6045 2036.9645,-172.6538 2036.6464,-179.6465"/>
</g>
<!-- Node115 -->
<g id="node45" class="node">
<title>Node115</title>
<g id="a_node45"><a xlink:href="_i_o_manager_8cpp.html" target="_top" xlink:title="IOManager.cpp">
<polygon fill="#ffffff" stroke="#000000" points="1380,-56.5 1380,-75.5 1463,-75.5 1463,-56.5 1380,-56.5"/>
<text text-anchor="middle" x="1421.5" y="-63.5" font-family="Helvetica,sans-Serif" font-size="10.00" fill="#000000">IOManager.cpp</text>
</a>
</g>
</g>
<!-- Node15&#45;&gt;Node115 -->
<g id="edge53" class="edge">
<title>Node15&#45;&gt;Node115</title>
<path fill="none" stroke="#191970" d="M2036.4364,-176.5698C1907.2734,-172.0208 1528.9888,-156.7149 1479.5,-132 1454.3897,-119.4598 1435.4125,-90.8504 1426.7242,-75.7496"/>
<polygon fill="#191970" stroke="#191970" points="2036.6104,-180.0778 2046.7261,-176.9279 2036.854,-173.0821 2036.6104,-180.0778"/>
</g>
<!-- Node117 -->
<g id="node46" class="node">
<title>Node117</title>
<g id="a_node46"><a xlink:href="_post_processing_8cpp.html" target="_top" xlink:title="PostProcessing.cpp">
<polygon fill="#ffffff" stroke="#000000" points="1488.5,-112.5 1488.5,-131.5 1592.5,-131.5 1592.5,-112.5 1488.5,-112.5"/>
<text text-anchor="middle" x="1540.5" y="-119.5" font-family="Helvetica,sans-Serif" font-size="10.00" fill="#000000">PostProcessing.cpp</text>
</a>
</g>
</g>
<!-- Node15&#45;&gt;Node117 -->
<g id="edge54" class="edge">
<title>Node15&#45;&gt;Node117</title>
<path fill="none" stroke="#191970" d="M2036.6069,-174.7862C1952.9351,-168.313 1762.1475,-152.5514 1602.5,-132 1599.2559,-131.5824 1595.9206,-131.1253 1592.5602,-130.6438"/>
<polygon fill="#191970" stroke="#191970" points="2036.5052,-178.2886 2046.7441,-175.5654 2037.0418,-171.3092 2036.5052,-178.2886"/>
</g>
<!-- Node118 -->
<g id="node47" class="node">
<title>Node118</title>
<g id="a_node47"><a xlink:href="_line_sampler_8cpp.html" target="_top" xlink:title="LineSampler.cpp">
<polygon fill="#ffffff" stroke="#000000" points="1611,-112.5 1611,-131.5 1700,-131.5 1700,-112.5 1611,-112.5"/>
<text text-anchor="middle" x="1655.5" y="-119.5" font-family="Helvetica,sans-Serif" font-size="10.00" fill="#000000">LineSampler.cpp</text>
</a>
</g>
</g>
<!-- Node15&#45;&gt;Node118 -->
<g id="edge55" class="edge">
<title>Node15&#45;&gt;Node118</title>
<path fill="none" stroke="#191970" d="M2036.686,-173.5133C1967.6527,-166.0912 1827.5431,-150.2512 1709.5,-132 1706.4848,-131.5338 1703.3797,-131.0279 1700.2542,-130.4995"/>
<polygon fill="#191970" stroke="#191970" points="2036.4273,-177.0055 2046.7429,-174.589 2037.1719,-170.0452 2036.4273,-177.0055"/>
</g>
<!-- Node119 -->
<g id="node48" class="node">
<title>Node119</title>
<g id="a_node48"><a xlink:href="_probe_sampler_8cpp.html" target="_top" xlink:title="ProbeSampler.cpp">
<polygon fill="#ffffff" stroke="#000000" points="1718,-112.5 1718,-131.5 1815,-131.5 1815,-112.5 1718,-112.5"/>
<text text-anchor="middle" x="1766.5" y="-119.5" font-family="Helvetica,sans-Serif" font-size="10.00" fill="#000000">ProbeSampler.cpp</text>
</a>
</g>
</g>
<!-- Node15&#45;&gt;Node119 -->
<g id="edge56" class="edge">
<title>Node15&#45;&gt;Node119</title>
<path fill="none" stroke="#191970" d="M2036.9821,-170.393C1979.1501,-160.046 1875.9443,-141.5811 1815.1101,-130.697"/>
<polygon fill="#191970" stroke="#191970" points="2036.4292,-173.8495 2046.8893,-172.1655 2037.662,-166.9589 2036.4292,-173.8495"/>
</g>
<!-- Node120 -->
<g id="node49" class="node">
<title>Node120</title>
<g id="a_node49"><a xlink:href="_sampling_8_h.html" target="_top" xlink:title="Sampling.H">
<polygon fill="#ffffff" stroke="#ff0000" points="1833.5,-112.5 1833.5,-131.5 1901.5,-131.5 1901.5,-112.5 1833.5,-112.5"/>
<text text-anchor="middle" x="1867.5" y="-119.5" font-family="Helvetica,sans-Serif" font-size="10.00" fill="#000000">Sampling.H</text>
</a>
</g>
</g>
<!-- Node15&#45;&gt;Node120 -->
<g id="edge57" class="edge">
<title>Node15&#45;&gt;Node120</title>
<path fill="none" stroke="#191970" d="M2037.1514,-166.8136C1997.3334,-156.2956 1938.4852,-140.7508 1901.6028,-131.0083"/>
<polygon fill="#191970" stroke="#191970" points="2036.2773,-170.2027 2046.8396,-169.3727 2038.0651,-163.4348 2036.2773,-170.2027"/>
</g>
<!-- Node16&#45;&gt;Node20 -->
<g id="edge3" class="edge">
<title>Node16&#45;&gt;Node20</title>
<path fill="none" stroke="#191970" d="M3816.1749,-104.7884C3824.8994,-95.2085 3835.4354,-83.6396 3842.7183,-75.6427"/>
<polygon fill="#191970" stroke="#191970" points="3813.5291,-102.4954 3809.3835,-112.2455 3818.7046,-107.2088 3813.5291,-102.4954"/>
</g>
<!-- Node16&#45;&gt;Node21 -->
<g id="edge4" class="edge">
<title>Node16&#45;&gt;Node21</title>
<path fill="none" stroke="#191970" d="M3835.2006,-112.0746C3835.3005,-112.0496 3835.4003,-112.0248 3835.5,-112 3892.4951,-97.835 3958.591,-84.2226 4002.7195,-75.5311"/>
<polygon fill="#191970" stroke="#191970" points="3834.4591,-108.6505 3825.679,-114.5801 3836.2405,-115.42 3834.4591,-108.6505"/>
</g>
<!-- Node36&#45;&gt;Node41 -->
<g id="edge6" class="edge">
<title>Node36&#45;&gt;Node41</title>
<path fill="none" stroke="#191970" d="M2225.3429,-50.49C2211.228,-40.6096 2193.3849,-28.1194 2181.2752,-19.6427"/>
<polygon fill="#191970" stroke="#191970" points="2223.3656,-53.3782 2233.5651,-56.2455 2227.3799,-47.6436 2223.3656,-53.3782"/>
</g>
<!-- Node36&#45;&gt;Node43 -->
<g id="edge7" class="edge">
<title>Node36&#45;&gt;Node43</title>
<path fill="none" stroke="#191970" d="M2264.4249,-49.0751C2274.0598,-39.4402 2285.7804,-27.7196 2293.8573,-19.6427"/>
<polygon fill="#191970" stroke="#191970" points="2261.8507,-46.6996 2257.2545,-56.2455 2266.8004,-51.6493 2261.8507,-46.6996"/>
</g>
<!-- Node44&#45;&gt;Node36 -->
<g id="edge9" class="edge">
<title>Node44&#45;&gt;Node36</title>
<path fill="none" stroke="#191970" d="M2217.4769,-104.2112C2224.9129,-94.7472 2233.766,-83.4797 2239.9236,-75.6427"/>
<polygon fill="#191970" stroke="#191970" points="2214.5903,-102.22 2211.1642,-112.2455 2220.0946,-106.5447 2214.5903,-102.22"/>
</g>
<!-- Node44&#45;&gt;Node41 -->
<g id="edge10" class="edge">
<title>Node44&#45;&gt;Node41</title>
<path fill="none" stroke="#191970" d="M2196.6063,-102.7407C2193.7166,-94.5263 2190.3689,-84.8197 2187.5,-76 2181.0558,-56.1889 2174.1322,-32.8182 2170.3579,-19.8789"/>
<polygon fill="#191970" stroke="#191970" points="2193.3088,-103.9142 2199.9509,-112.1685 2199.9059,-101.5737 2193.3088,-103.9142"/>
</g>
<!-- Node50&#45;&gt;Node51 -->
<g id="edge12" class="edge">
<title>Node50&#45;&gt;Node51</title>
<path fill="none" stroke="#191970" d="M2522.7808,-105.3607C2511.8818,-95.6727 2498.5245,-83.7995 2489.348,-75.6427"/>
<polygon fill="#191970" stroke="#191970" points="2520.7268,-108.2178 2530.5262,-112.2455 2525.3774,-102.9859 2520.7268,-108.2178"/>
</g>
<!-- Node55&#45;&gt;Node69 -->
<g id="edge16" class="edge">
<title>Node55&#45;&gt;Node69</title>
<path fill="none" stroke="#191970" d="M3577.7406,-109.1493C3610.9546,-98.2722 3657.494,-83.0312 3685.4501,-73.876"/>
<polygon fill="#191970" stroke="#191970" points="3576.31,-105.9348 3567.8959,-112.3733 3578.4886,-112.5872 3576.31,-105.9348"/>
</g>
<!-- Node70 -->
<g id="node15" class="node">
<title>Node70</title>
<g id="a_node15"><a xlink:href="density_8_h.html" target="_top" xlink:title="density.H">
<polygon fill="#ffffff" stroke="#ff0000" points="3610,-.5 3610,-19.5 3669,-19.5 3669,-.5 3610,-.5"/>
<text text-anchor="middle" x="3639.5" y="-7.5" font-family="Helvetica,sans-Serif" font-size="10.00" fill="#000000">density.H</text>
</a>
</g>
</g>
<!-- Node69&#45;&gt;Node70 -->
<g id="edge17" class="edge">
<title>Node69&#45;&gt;Node70</title>
<path fill="none" stroke="#191970" d="M3689.41,-49.928C3677.1747,-40.1397 3661.9493,-27.9595 3651.5533,-19.6427"/>
<polygon fill="#191970" stroke="#191970" points="3687.3118,-52.7316 3697.3069,-56.2455 3691.6847,-47.2655 3687.3118,-52.7316"/>
</g>
<!-- Node72 -->
<g id="node16" class="node">
<title>Node72</title>
<g id="a_node16"><a xlink:href="icns_8_h.html" target="_top" xlink:title="icns.H">
<polygon fill="#ffffff" stroke="#ff0000" points="3687,-.5 3687,-19.5 3732,-19.5 3732,-.5 3687,-.5"/>
<text text-anchor="middle" x="3709.5" y="-7.5" font-family="Helvetica,sans-Serif" font-size="10.00" fill="#000000">icns.H</text>
</a>
</g>
</g>
<!-- Node69&#45;&gt;Node72 -->
<g id="edge18" class="edge">
<title>Node69&#45;&gt;Node72</title>
<path fill="none" stroke="#191970" d="M3709.5,-46.1575C3709.5,-37.155 3709.5,-26.9199 3709.5,-19.6427"/>
<polygon fill="#191970" stroke="#191970" points="3706.0001,-46.2455 3709.5,-56.2455 3713.0001,-46.2456 3706.0001,-46.2455"/>
</g>
<!-- Node74 -->
<g id="node17" class="node">
<title>Node74</title>
<g id="a_node17"><a xlink:href="levelset_8_h.html" target="_top" xlink:title="levelset.H">
<polygon fill="#ffffff" stroke="#ff0000" points="3750,-.5 3750,-19.5 3811,-19.5 3811,-.5 3750,-.5"/>
<text text-anchor="middle" x="3780.5" y="-7.5" font-family="Helvetica,sans-Serif" font-size="10.00" fill="#000000">levelset.H</text>
</a>
</g>
</g>
<!-- Node69&#45;&gt;Node74 -->
<g id="edge19" class="edge">
<title>Node69&#45;&gt;Node74</title>
<path fill="none" stroke="#191970" d="M3729.877,-49.928C3742.2871,-40.1397 3757.73,-27.9595 3768.2745,-19.6427"/>
<polygon fill="#191970" stroke="#191970" points="3727.5514,-47.3046 3721.8673,-56.2455 3731.8864,-52.8007 3727.5514,-47.3046"/>
</g>
<!-- Node89&#45;&gt;Node90 -->
<g id="edge31" class="edge">
<title>Node89&#45;&gt;Node90</title>
<path fill="none" stroke="#191970" d="M282.3011,-103.0437C286.5775,-93.8331 291.533,-83.1598 295.023,-75.6427"/>
<polygon fill="#191970" stroke="#191970" points="279.0655,-101.7015 278.0289,-112.2455 285.4146,-104.6494 279.0655,-101.7015"/>
</g>
<!-- Node93&#45;&gt;Node94 -->
<g id="edge37" class="edge">
<title>Node93&#45;&gt;Node94</title>
<path fill="none" stroke="#191970" d="M1991.4337,-102.4538C1994.1881,-93.3803 1997.3393,-82.9998 1999.5728,-75.6427"/>
<polygon fill="#191970" stroke="#191970" points="1988.017,-101.66 1988.4612,-112.2455 1994.7151,-103.6934 1988.017,-101.66"/>
</g>
<!-- Node95&#45;&gt;Node96 -->
<g id="edge40" class="edge">
<title>Node95&#45;&gt;Node96</title>
<path fill="none" stroke="#191970" d="M163.7364,-103.9209C170.6211,-94.5176 178.7609,-83.3997 184.4402,-75.6427"/>
<polygon fill="#191970" stroke="#191970" points="160.7251,-102.1093 157.6417,-112.2455 166.3731,-106.2445 160.7251,-102.1093"/>
</g>
<!-- Node112&#45;&gt;Node115 -->
<g id="edge52" class="edge">
<title>Node112&#45;&gt;Node115</title>
<path fill="none" stroke="#191970" d="M1395.7679,-103.9209C1402.1488,-94.5176 1409.6931,-83.3997 1414.9568,-75.6427"/>
<polygon fill="#191970" stroke="#191970" points="1392.838,-102.0055 1390.1191,-112.2455 1398.6303,-105.936 1392.838,-102.0055"/>
</g>
</g>
</svg>
