<?xml version="1.0" encoding="UTF-8" standalone="no"?>
<!DOCTYPE svg PUBLIC "-//W3C//DTD SVG 1.1//EN"
 "http://www.w3.org/Graphics/SVG/1.1/DTD/svg11.dtd">
<!-- Generated by graphviz version 2.40.1 (20161225.0304)
 -->
<!-- Title: PDEOps.H Pages: 1 -->
<svg width="3157pt" height="352pt"
 viewBox="0.00 0.00 3156.90 352.00" xmlns="http://www.w3.org/2000/svg" xmlns:xlink="http://www.w3.org/1999/xlink">
<g id="graph0" class="graph" transform="scale(1 1) rotate(0) translate(4 348)">
<title>PDEOps.H</title>
<polygon fill="#ffffff" stroke="transparent" points="-4,4 -4,-348 3152.8954,-348 3152.8954,4 -4,4"/>
<!-- Node0 -->
<g id="node1" class="node">
<title>Node0</title>
<polygon fill="#bfbfbf" stroke="#000000" points="2500.8954,-324.5 2500.8954,-343.5 2566.8954,-343.5 2566.8954,-324.5 2500.8954,-324.5"/>
<text text-anchor="middle" x="2533.8954" y="-331.5" font-family="Helvetica,sans-Serif" font-size="10.00" fill="#000000">PDEOps.H</text>
</g>
<!-- Node1 -->
<g id="node2" class="node">
<title>Node1</title>
<g id="a_node2"><a xlink:href="_field_utils_8_h.html" target="_top" xlink:title="amr&#45;wind/core/FieldUtils.H">
<polygon fill="#ffffff" stroke="#000000" points="157.3954,-129 157.3954,-148 290.3954,-148 290.3954,-129 157.3954,-129"/>
<text text-anchor="middle" x="223.8954" y="-136" font-family="Helvetica,sans-Serif" font-size="10.00" fill="#000000">amr&#45;wind/core/FieldUtils.H</text>
</a>
</g>
</g>
<!-- Node0&#45;&gt;Node1 -->
<g id="edge1" class="edge">
<title>Node0&#45;&gt;Node1</title>
<path fill="none" stroke="#191970" d="M2500.6447,-333.5827C2266.5134,-330.4377 863.0937,-308.142 446.8954,-221 374.7039,-205.8848 294.6532,-171.6802 252.8812,-152.3963"/>
<polygon fill="#191970" stroke="#191970" points="254.1386,-149.1207 243.5966,-148.0636 251.1784,-155.4641 254.1386,-149.1207"/>
</g>
<!-- Node5 -->
<g id="node6" class="node">
<title>Node5</title>
<g id="a_node6"><a xlink:href="_p_d_e_helpers_8_h.html" target="_top" xlink:title="amr&#45;wind/equation_systems\l/PDEHelpers.H">
<polygon fill="#ffffff" stroke="#000000" points="1600.3954,-257.5 1600.3954,-287.5 1739.3954,-287.5 1739.3954,-257.5 1600.3954,-257.5"/>
<text text-anchor="start" x="1608.3954" y="-275.5" font-family="Helvetica,sans-Serif" font-size="10.00" fill="#000000">amr&#45;wind/equation_systems</text>
<text text-anchor="middle" x="1669.8954" y="-264.5" font-family="Helvetica,sans-Serif" font-size="10.00" fill="#000000">/PDEHelpers.H</text>
</a>
</g>
</g>
<!-- Node0&#45;&gt;Node5 -->
<g id="edge5" class="edge">
<title>Node0&#45;&gt;Node5</title>
<path fill="none" stroke="#191970" d="M2500.8183,-331.6456C2376.1773,-322.7735 1932.6914,-291.206 1749.7221,-278.1821"/>
<polygon fill="#191970" stroke="#191970" points="1749.8513,-274.6825 1739.628,-277.4636 1749.3542,-281.6649 1749.8513,-274.6825"/>
</g>
<!-- Node32 -->
<g id="node33" class="node">
<title>Node32</title>
<g id="a_node33"><a xlink:href="_turbulence_model_8_h.html" target="_top" xlink:title="amr&#45;wind/turbulence\l/TurbulenceModel.H">
<polygon fill="#ffffff" stroke="#000000" points="2893.8954,-123.5 2893.8954,-153.5 2997.8954,-153.5 2997.8954,-123.5 2893.8954,-123.5"/>
<text text-anchor="start" x="2901.8954" y="-141.5" font-family="Helvetica,sans-Serif" font-size="10.00" fill="#000000">amr&#45;wind/turbulence</text>
<text text-anchor="middle" x="2945.8954" y="-130.5" font-family="Helvetica,sans-Serif" font-size="10.00" fill="#000000">/TurbulenceModel.H</text>
</a>
</g>
</g>
<!-- Node0&#45;&gt;Node32 -->
<g id="edge62" class="edge">
<title>Node0&#45;&gt;Node32</title>
<path fill="none" stroke="#191970" d="M2566.9737,-331.5379C2632.5129,-326.1981 2776.2174,-312.058 2818.8954,-288 2872.0454,-258.0388 2913.0032,-196.7938 2932.8029,-162.7255"/>
<polygon fill="#191970" stroke="#191970" points="2935.9278,-164.3104 2937.8189,-153.8857 2929.8396,-160.8557 2935.9278,-164.3104"/>
</g>
<!-- Node37 -->
<g id="node38" class="node">
<title>Node37</title>
<g id="a_node38"><a xlink:href="_i_o_manager_8_h.html" target="_top" xlink:title="amr&#45;wind/utilities\l/IOManager.H">
<polygon fill="#ffffff" stroke="#000000" points="2729.8954,-56.5 2729.8954,-86.5 2819.8954,-86.5 2819.8954,-56.5 2729.8954,-56.5"/>
<text text-anchor="start" x="2737.8954" y="-74.5" font-family="Helvetica,sans-Serif" font-size="10.00" fill="#000000">amr&#45;wind/utilities</text>
<text text-anchor="middle" x="2774.8954" y="-63.5" font-family="Helvetica,sans-Serif" font-size="10.00" fill="#000000">/IOManager.H</text>
</a>
</g>
</g>
<!-- Node0&#45;&gt;Node37 -->
<g id="edge71" class="edge">
<title>Node0&#45;&gt;Node37</title>
<path fill="none" stroke="#191970" d="M2542.7586,-324.3462C2577.3201,-286.7013 2703.6125,-149.1422 2753.9658,-94.2967"/>
<polygon fill="#191970" stroke="#191970" points="2756.6393,-96.5601 2760.8241,-86.8267 2751.4829,-91.826 2756.6393,-96.5601"/>
</g>
<!-- Node39 -->
<g id="node40" class="node">
<title>Node39</title>
<g id="a_node40"><a xlink:href="_c_f_d_sim_8_h.html" target="_top" xlink:title="amr&#45;wind/CFDSim.H">
<polygon fill="#ffffff" stroke="#000000" points="1998.8954,-263 1998.8954,-282 2106.8954,-282 2106.8954,-263 1998.8954,-263"/>
<text text-anchor="middle" x="2052.8954" y="-270" font-family="Helvetica,sans-Serif" font-size="10.00" fill="#000000">amr&#45;wind/CFDSim.H</text>
</a>
</g>
</g>
<!-- Node0&#45;&gt;Node39 -->
<g id="edge76" class="edge">
<title>Node0&#45;&gt;Node39</title>
<path fill="none" stroke="#191970" d="M2500.8343,-329.7729C2421.8545,-319.6746 2221.0736,-294.003 2117.2528,-280.7287"/>
<polygon fill="#191970" stroke="#191970" points="2117.575,-277.2414 2107.2119,-279.4448 2116.6872,-284.1849 2117.575,-277.2414"/>
</g>
<!-- Node43 -->
<g id="node44" class="node">
<title>Node43</title>
<polygon fill="#ffffff" stroke="#bfbfbf" points="2870.8954,-263 2870.8954,-282 2986.8954,-282 2986.8954,-263 2870.8954,-263"/>
<text text-anchor="middle" x="2928.8954" y="-270" font-family="Helvetica,sans-Serif" font-size="10.00" fill="#000000">AMReX_ParmParse.H</text>
</g>
<!-- Node0&#45;&gt;Node43 -->
<g id="edge96" class="edge">
<title>Node0&#45;&gt;Node43</title>
<path fill="none" stroke="#191970" d="M2567.0322,-330.0648C2625.6784,-322.9257 2751.5096,-306.8237 2856.8954,-288 2863.4919,-286.8218 2870.4049,-285.4764 2877.2284,-284.0816"/>
<polygon fill="#191970" stroke="#191970" points="2878.0413,-287.4875 2887.1143,-282.0166 2876.6099,-280.6353 2878.0413,-287.4875"/>
</g>
<!-- Node2 -->
<g id="node3" class="node">
<title>Node2</title>
<g id="a_node3"><a xlink:href="_field_desc_types_8_h.html" target="_top" xlink:title="amr&#45;wind/core/FieldDescTypes.H">
<polygon fill="#ffffff" stroke="#000000" points="1343.3954,-.5 1343.3954,-19.5 1506.3954,-19.5 1506.3954,-.5 1343.3954,-.5"/>
<text text-anchor="middle" x="1424.8954" y="-7.5" font-family="Helvetica,sans-Serif" font-size="10.00" fill="#000000">amr&#45;wind/core/FieldDescTypes.H</text>
</a>
</g>
</g>
<!-- Node1&#45;&gt;Node2 -->
<g id="edge2" class="edge">
<title>Node1&#45;&gt;Node2</title>
<path fill="none" stroke="#191970" d="M219.967,-128.7868C213.715,-111.5553 204.0227,-75.6088 222.8954,-56 232.5065,-46.0141 1053.4145,-20.9384 1332.9143,-12.6822"/>
<polygon fill="#191970" stroke="#191970" points="1333.1334,-16.1773 1343.0258,-12.3839 1332.9269,-9.1804 1333.1334,-16.1773"/>
</g>
<!-- Node3 -->
<g id="node4" class="node">
<title>Node3</title>
<polygon fill="#ffffff" stroke="#bfbfbf" points="965.8954,-.5 965.8954,-19.5 1069.8954,-19.5 1069.8954,-.5 965.8954,-.5"/>
<text text-anchor="middle" x="1017.8954" y="-7.5" font-family="Helvetica,sans-Serif" font-size="10.00" fill="#000000">AMReX_MultiFab.H</text>
</g>
<!-- Node1&#45;&gt;Node3 -->
<g id="edge3" class="edge">
<title>Node1&#45;&gt;Node3</title>
<path fill="none" stroke="#191970" d="M213.9931,-128.8758C197.8953,-112.1008 169.7744,-77.2699 189.8954,-56 216.1417,-28.2552 767.8886,-14.8985 955.834,-11.1415"/>
<polygon fill="#191970" stroke="#191970" points="955.9041,-14.6409 965.8329,-10.9439 955.7657,-7.6423 955.9041,-14.6409"/>
</g>
<!-- Node4 -->
<g id="node5" class="node">
<title>Node4</title>
<polygon fill="#ffffff" stroke="#bfbfbf" points="21.8954,-62 21.8954,-81 137.8954,-81 137.8954,-62 21.8954,-62"/>
<text text-anchor="middle" x="79.8954" y="-69" font-family="Helvetica,sans-Serif" font-size="10.00" fill="#000000">AMReX_Interpolater.H</text>
</g>
<!-- Node1&#45;&gt;Node4 -->
<g id="edge4" class="edge">
<title>Node1&#45;&gt;Node4</title>
<path fill="none" stroke="#191970" d="M203.2637,-128.9005C178.7765,-117.5072 137.7486,-98.4178 109.7861,-85.4075"/>
<polygon fill="#191970" stroke="#191970" points="111.032,-82.1269 100.4888,-81.0817 108.079,-88.4736 111.032,-82.1269"/>
</g>
<!-- Node6 -->
<g id="node7" class="node">
<title>Node6</title>
<polygon fill="#ffffff" stroke="#bfbfbf" points="2227.3954,-.5 2227.3954,-19.5 2268.3954,-19.5 2268.3954,-.5 2227.3954,-.5"/>
<text text-anchor="middle" x="2247.8954" y="-7.5" font-family="Helvetica,sans-Serif" font-size="10.00" fill="#000000">string</text>
</g>
<!-- Node5&#45;&gt;Node6 -->
<g id="edge6" class="edge">
<title>Node5&#45;&gt;Node6</title>
<path fill="none" stroke="#191970" d="M1739.6653,-260.205C1831.1539,-242.8041 1995.6733,-207.083 2128.8954,-154 2186.0008,-131.2461 2218.6842,-139.9587 2249.8954,-87 2260.046,-69.7766 2257.659,-46.4097 2253.9161,-29.9485"/>
<polygon fill="#191970" stroke="#191970" points="2257.1787,-28.5938 2251.2457,-19.816 2250.4098,-30.3778 2257.1787,-28.5938"/>
</g>
<!-- Node7 -->
<g id="node8" class="node">
<title>Node7</title>
<g id="a_node8"><a xlink:href="_p_d_e_fields_8_h.html" target="_top" xlink:title="amr&#45;wind/equation_systems\l/PDEFields.H">
<polygon fill="#ffffff" stroke="#000000" points="2314.3954,-56.5 2314.3954,-86.5 2453.3954,-86.5 2453.3954,-56.5 2314.3954,-56.5"/>
<text text-anchor="start" x="2322.3954" y="-74.5" font-family="Helvetica,sans-Serif" font-size="10.00" fill="#000000">amr&#45;wind/equation_systems</text>
<text text-anchor="middle" x="2383.8954" y="-63.5" font-family="Helvetica,sans-Serif" font-size="10.00" fill="#000000">/PDEFields.H</text>
</a>
</g>
</g>
<!-- Node5&#45;&gt;Node7 -->
<g id="edge7" class="edge">
<title>Node5&#45;&gt;Node7</title>
<path fill="none" stroke="#191970" d="M1739.4391,-268.7103C1898.5674,-259.7829 2277.28,-236.9813 2299.8954,-221 2338.8867,-193.4467 2319.2998,-163.9214 2343.8954,-123 2349.8177,-113.1467 2357.3355,-103.007 2364.2511,-94.3586"/>
<polygon fill="#191970" stroke="#191970" points="2366.993,-96.5346 2370.6253,-86.5818 2361.5792,-92.0972 2366.993,-96.5346"/>
</g>
<!-- Node9 -->
<g id="node10" class="node">
<title>Node9</title>
<g id="a_node10"><a xlink:href="_sim_time_8_h.html" target="_top" xlink:title="amr&#45;wind/core/SimTime.H">
<polygon fill="#ffffff" stroke="#000000" points="328.3954,-129 328.3954,-148 459.3954,-148 459.3954,-129 328.3954,-129"/>
<text text-anchor="middle" x="393.8954" y="-136" font-family="Helvetica,sans-Serif" font-size="10.00" fill="#000000">amr&#45;wind/core/SimTime.H</text>
</a>
</g>
</g>
<!-- Node5&#45;&gt;Node9 -->
<g id="edge9" class="edge">
<title>Node5&#45;&gt;Node9</title>
<path fill="none" stroke="#191970" d="M1599.987,-271.8513C1363.8476,-269.3251 604.805,-258.3548 501.8954,-221 464.2739,-207.3439 429.0913,-175.5631 409.6335,-155.6727"/>
<polygon fill="#191970" stroke="#191970" points="411.953,-153.0332 402.5212,-148.207 406.8847,-157.8616 411.953,-153.0332"/>
</g>
<!-- Node13 -->
<g id="node14" class="node">
<title>Node13</title>
<g id="a_node14"><a xlink:href="_field_repo_8_h.html" target="_top" xlink:title="amr&#45;wind/core/FieldRepo.H">
<polygon fill="#ffffff" stroke="#000000" points="1601.8954,-196 1601.8954,-215 1737.8954,-215 1737.8954,-196 1601.8954,-196"/>
<text text-anchor="middle" x="1669.8954" y="-203" font-family="Helvetica,sans-Serif" font-size="10.00" fill="#000000">amr&#45;wind/core/FieldRepo.H</text>
</a>
</g>
</g>
<!-- Node5&#45;&gt;Node13 -->
<g id="edge13" class="edge">
<title>Node5&#45;&gt;Node13</title>
<path fill="none" stroke="#191970" d="M1669.8954,-257.2967C1669.8954,-247.7699 1669.8954,-235.3954 1669.8954,-225.1306"/>
<polygon fill="#191970" stroke="#191970" points="1673.3955,-225.0549 1669.8954,-215.055 1666.3955,-225.055 1673.3955,-225.0549"/>
</g>
<!-- Node27 -->
<g id="node28" class="node">
<title>Node27</title>
<g id="a_node28"><a xlink:href="_field_fill_patch_ops_8_h.html" target="_top" xlink:title="amr&#45;wind/core/FieldFillPatch\lOps.H">
<polygon fill="#ffffff" stroke="#000000" points="576.8954,-190.5 576.8954,-220.5 716.8954,-220.5 716.8954,-190.5 576.8954,-190.5"/>
<text text-anchor="start" x="584.8954" y="-208.5" font-family="Helvetica,sans-Serif" font-size="10.00" fill="#000000">amr&#45;wind/core/FieldFillPatch</text>
<text text-anchor="middle" x="646.8954" y="-197.5" font-family="Helvetica,sans-Serif" font-size="10.00" fill="#000000">Ops.H</text>
</a>
</g>
</g>
<!-- Node5&#45;&gt;Node27 -->
<g id="edge46" class="edge">
<title>Node5&#45;&gt;Node27</title>
<path fill="none" stroke="#191970" d="M1600.3847,-267.9475C1417.2578,-255.9538 922.283,-223.5361 727.35,-210.7693"/>
<polygon fill="#191970" stroke="#191970" points="727.3855,-207.2642 717.1781,-210.1031 726.9279,-214.2492 727.3855,-207.2642"/>
</g>
<!-- Node29 -->
<g id="node30" class="node">
<title>Node29</title>
<g id="a_node30"><a xlink:href="_field_b_c_ops_8_h.html" target="_top" xlink:title="amr&#45;wind/core/FieldBCOps.H">
<polygon fill="#ffffff" stroke="#000000" points="862.3954,-129 862.3954,-148 1007.3954,-148 1007.3954,-129 862.3954,-129"/>
<text text-anchor="middle" x="934.8954" y="-136" font-family="Helvetica,sans-Serif" font-size="10.00" fill="#000000">amr&#45;wind/core/FieldBCOps.H</text>
</a>
</g>
</g>
<!-- Node5&#45;&gt;Node29 -->
<g id="edge56" class="edge">
<title>Node5&#45;&gt;Node29</title>
<path fill="none" stroke="#191970" d="M1600.3548,-264.0155C1528.0443,-254.8377 1411.6823,-239.0711 1311.8954,-221 1193.6039,-199.5777 1055.9333,-167.6575 984.1576,-150.4783"/>
<polygon fill="#191970" stroke="#191970" points="984.5968,-146.9844 974.056,-148.0537 982.9629,-153.7911 984.5968,-146.9844"/>
</g>
<!-- Node8 -->
<g id="node9" class="node">
<title>Node8</title>
<polygon fill="#ffffff" stroke="#bfbfbf" points="2361.3954,-.5 2361.3954,-19.5 2406.3954,-19.5 2406.3954,-.5 2361.3954,-.5"/>
<text text-anchor="middle" x="2383.8954" y="-7.5" font-family="Helvetica,sans-Serif" font-size="10.00" fill="#000000">iosfwd</text>
</g>
<!-- Node7&#45;&gt;Node8 -->
<g id="edge8" class="edge">
<title>Node7&#45;&gt;Node8</title>
<path fill="none" stroke="#191970" d="M2383.8954,-56.2977C2383.8954,-48.3834 2383.8954,-38.6043 2383.8954,-30.0759"/>
<polygon fill="#191970" stroke="#191970" points="2387.3955,-29.8469 2383.8954,-19.8469 2380.3955,-29.847 2387.3955,-29.8469"/>
</g>
<!-- Node10 -->
<g id="node11" class="node">
<title>Node10</title>
<polygon fill="#ffffff" stroke="#bfbfbf" points="504.3954,-62 504.3954,-81 597.3954,-81 597.3954,-62 504.3954,-62"/>
<text text-anchor="middle" x="550.8954" y="-69" font-family="Helvetica,sans-Serif" font-size="10.00" fill="#000000">AMReX_REAL.H</text>
</g>
<!-- Node9&#45;&gt;Node10 -->
<g id="edge10" class="edge">
<title>Node9&#45;&gt;Node10</title>
<path fill="none" stroke="#191970" d="M416.3897,-128.9005C443.3208,-117.4077 488.6021,-98.0838 519.1018,-85.068"/>
<polygon fill="#191970" stroke="#191970" points="520.6192,-88.2259 528.4429,-81.0817 517.8716,-81.7876 520.6192,-88.2259"/>
</g>
<!-- Node11 -->
<g id="node12" class="node">
<title>Node11</title>
<polygon fill="#ffffff" stroke="#bfbfbf" points="231.8954,-62 231.8954,-81 357.8954,-81 357.8954,-62 231.8954,-62"/>
<text text-anchor="middle" x="294.8954" y="-69" font-family="Helvetica,sans-Serif" font-size="10.00" fill="#000000">AMReX_GpuQualifiers.H</text>
</g>
<!-- Node9&#45;&gt;Node11 -->
<g id="edge11" class="edge">
<title>Node9&#45;&gt;Node11</title>
<path fill="none" stroke="#191970" d="M379.7111,-128.9005C363.4643,-117.9052 336.6264,-99.7422 317.492,-86.7927"/>
<polygon fill="#191970" stroke="#191970" points="319.2968,-83.7879 309.0534,-81.0817 315.3734,-89.5851 319.2968,-83.7879"/>
</g>
<!-- Node12 -->
<g id="node13" class="node">
<title>Node12</title>
<polygon fill="#ffffff" stroke="#bfbfbf" points="375.8954,-62 375.8954,-81 485.8954,-81 485.8954,-62 375.8954,-62"/>
<text text-anchor="middle" x="430.8954" y="-69" font-family="Helvetica,sans-Serif" font-size="10.00" fill="#000000">AMReX_Extension.H</text>
</g>
<!-- Node9&#45;&gt;Node12 -->
<g id="edge12" class="edge">
<title>Node9&#45;&gt;Node12</title>
<path fill="none" stroke="#191970" d="M399.1966,-128.9005C404.8016,-118.751 413.7793,-102.4941 420.7519,-89.8679"/>
<polygon fill="#191970" stroke="#191970" points="423.8336,-91.5275 425.6041,-81.0817 417.7059,-88.1435 423.8336,-91.5275"/>
</g>
<!-- Node13&#45;&gt;Node1 -->
<g id="edge17" class="edge">
<title>Node13&#45;&gt;Node1</title>
<path fill="none" stroke="#191970" d="M1601.798,-204.0196C1364.0808,-198.6771 571.8574,-179.3597 318.8954,-154 307.9471,-152.9024 296.3461,-151.3441 285.1524,-149.6346"/>
<polygon fill="#191970" stroke="#191970" points="285.4416,-146.1369 275.0174,-148.031 284.3476,-153.0509 285.4416,-146.1369"/>
</g>
<!-- Node13&#45;&gt;Node2 -->
<g id="edge16" class="edge">
<title>Node13&#45;&gt;Node2</title>
<path fill="none" stroke="#191970" d="M1601.7628,-199.5344C1468.5566,-187.7128 1185.9039,-161.782 1178.8954,-154 1153.2235,-125.4946 1200.1337,-65.1834 1211.8954,-56 1231.5977,-40.6167 1287.715,-28.8579 1337.403,-21.0807"/>
<polygon fill="#191970" stroke="#191970" points="1338.2092,-24.4983 1347.567,-19.5302 1337.1535,-17.5784 1338.2092,-24.4983"/>
</g>
<!-- Node13&#45;&gt;Node3 -->
<g id="edge44" class="edge">
<title>Node13&#45;&gt;Node3</title>
<path fill="none" stroke="#191970" d="M1601.6261,-203.9091C1432.1518,-199.5237 995.682,-185.4427 853.8954,-154 774.2059,-136.328 728.8959,-154.429 682.8954,-87 675.1309,-75.6185 673.8399,-66.3839 682.8954,-56 700.5375,-35.7699 863.9585,-20.9669 955.8563,-14.1621"/>
<polygon fill="#191970" stroke="#191970" points="956.1597,-17.6494 965.8784,-13.4307 955.6501,-10.6679 956.1597,-17.6494"/>
</g>
<!-- Node13&#45;&gt;Node6 -->
<g id="edge14" class="edge">
<title>Node13&#45;&gt;Node6</title>
<path fill="none" stroke="#191970" d="M1738.039,-200.4289C1871.8262,-189.0293 2161.6894,-156.7359 2228.8954,-87 2243.5521,-71.7916 2247.4659,-47.162 2248.2488,-29.8625"/>
<polygon fill="#191970" stroke="#191970" points="2251.7503,-29.7741 2248.3926,-19.7255 2244.751,-29.6748 2251.7503,-29.7741"/>
</g>
<!-- Node14 -->
<g id="node15" class="node">
<title>Node14</title>
<polygon fill="#ffffff" stroke="#bfbfbf" points="2807.3954,-.5 2807.3954,-19.5 2890.3954,-19.5 2890.3954,-.5 2807.3954,-.5"/>
<text text-anchor="middle" x="2848.8954" y="-7.5" font-family="Helvetica,sans-Serif" font-size="10.00" fill="#000000">unordered_map</text>
</g>
<!-- Node13&#45;&gt;Node14 -->
<g id="edge15" class="edge">
<title>Node13&#45;&gt;Node14</title>
<path fill="none" stroke="#191970" d="M1738.1932,-204.2298C1930.0743,-200.2903 2471.3741,-186.5337 2645.8954,-154 2740.1259,-136.4338 2794.6209,-164.596 2850.8954,-87 2862.8741,-70.4828 2859.8636,-46.302 2855.476,-29.46"/>
<polygon fill="#191970" stroke="#191970" points="2858.7495,-28.1893 2852.5377,-19.6066 2852.0414,-30.1898 2858.7495,-28.1893"/>
</g>
<!-- Node15 -->
<g id="node16" class="node">
<title>Node15</title>
<g id="a_node16"><a xlink:href="_field_8_h.html" target="_top" xlink:title="amr&#45;wind/core/Field.H">
<polygon fill="#ffffff" stroke="#000000" points="1613.3954,-129 1613.3954,-148 1726.3954,-148 1726.3954,-129 1613.3954,-129"/>
<text text-anchor="middle" x="1669.8954" y="-136" font-family="Helvetica,sans-Serif" font-size="10.00" fill="#000000">amr&#45;wind/core/Field.H</text>
</a>
</g>
</g>
<!-- Node13&#45;&gt;Node15 -->
<g id="edge18" class="edge">
<title>Node13&#45;&gt;Node15</title>
<path fill="none" stroke="#191970" d="M1669.8954,-195.9005C1669.8954,-186.149 1669.8954,-170.7597 1669.8954,-158.3695"/>
<polygon fill="#191970" stroke="#191970" points="1673.3955,-158.0816 1669.8954,-148.0817 1666.3955,-158.0817 1673.3955,-158.0816"/>
</g>
<!-- Node22 -->
<g id="node23" class="node">
<title>Node22</title>
<g id="a_node23"><a xlink:href="_int_field_8_h.html" target="_top" xlink:title="amr&#45;wind/core/IntField.H">
<polygon fill="#ffffff" stroke="#000000" points="1799.8954,-129 1799.8954,-148 1923.8954,-148 1923.8954,-129 1799.8954,-129"/>
<text text-anchor="middle" x="1861.8954" y="-136" font-family="Helvetica,sans-Serif" font-size="10.00" fill="#000000">amr&#45;wind/core/IntField.H</text>
</a>
</g>
</g>
<!-- Node13&#45;&gt;Node22 -->
<g id="edge32" class="edge">
<title>Node13&#45;&gt;Node22</title>
<path fill="none" stroke="#191970" d="M1697.4043,-195.9005C1730.9094,-184.2086 1787.6396,-164.4122 1824.9352,-151.3976"/>
<polygon fill="#191970" stroke="#191970" points="1826.1491,-154.681 1834.4375,-148.0817 1823.8427,-148.0719 1826.1491,-154.681"/>
</g>
<!-- Node23 -->
<g id="node24" class="node">
<title>Node23</title>
<polygon fill="#ffffff" stroke="#bfbfbf" points="2112.3954,-62 2112.3954,-81 2219.3954,-81 2219.3954,-62 2112.3954,-62"/>
<text text-anchor="middle" x="2165.8954" y="-69" font-family="Helvetica,sans-Serif" font-size="10.00" fill="#000000">AMReX_iMultiFab.H</text>
</g>
<!-- Node13&#45;&gt;Node23 -->
<g id="edge45" class="edge">
<title>Node13&#45;&gt;Node23</title>
<path fill="none" stroke="#191970" d="M1732.1314,-195.9651C1785.8016,-187.114 1865.1262,-172.5251 1932.8954,-154 2005.6285,-134.118 2088.2853,-102.6627 2132.9782,-84.8878"/>
<polygon fill="#191970" stroke="#191970" points="2134.4615,-88.0641 2142.4464,-81.1005 2131.8618,-81.5648 2134.4615,-88.0641"/>
</g>
<!-- Node24 -->
<g id="node25" class="node">
<title>Node24</title>
<g id="a_node25"><a xlink:href="_scratch_field_8_h.html" target="_top" xlink:title="amr&#45;wind/core/ScratchField.H">
<polygon fill="#ffffff" stroke="#000000" points="1187.8954,-129 1187.8954,-148 1333.8954,-148 1333.8954,-129 1187.8954,-129"/>
<text text-anchor="middle" x="1260.8954" y="-136" font-family="Helvetica,sans-Serif" font-size="10.00" fill="#000000">amr&#45;wind/core/ScratchField.H</text>
</a>
</g>
</g>
<!-- Node13&#45;&gt;Node24 -->
<g id="edge36" class="edge">
<title>Node13&#45;&gt;Node24</title>
<path fill="none" stroke="#191970" d="M1611.7301,-195.9717C1537.3293,-183.7838 1408.6613,-162.7062 1329.5391,-149.7448"/>
<polygon fill="#191970" stroke="#191970" points="1329.6252,-146.2123 1319.1909,-148.0496 1328.4935,-153.1203 1329.6252,-146.2123"/>
</g>
<!-- Node26 -->
<g id="node27" class="node">
<title>Node26</title>
<polygon fill="#ffffff" stroke="#bfbfbf" points="1025.8954,-129 1025.8954,-148 1131.8954,-148 1131.8954,-129 1025.8954,-129"/>
<text text-anchor="middle" x="1078.8954" y="-136" font-family="Helvetica,sans-Serif" font-size="10.00" fill="#000000">AMReX_AmrCore.H</text>
</g>
<!-- Node13&#45;&gt;Node26 -->
<g id="edge43" class="edge">
<title>Node13&#45;&gt;Node26</title>
<path fill="none" stroke="#191970" d="M1601.6991,-201.6233C1501.3585,-195.2815 1308.2626,-180.6454 1145.8954,-154 1139.5555,-152.9596 1132.9204,-151.6717 1126.3945,-150.2863"/>
<polygon fill="#191970" stroke="#191970" points="1126.8073,-146.7931 1116.2873,-148.0506 1125.2954,-153.6279 1126.8073,-146.7931"/>
</g>
<!-- Node15&#45;&gt;Node2 -->
<g id="edge26" class="edge">
<title>Node15&#45;&gt;Node2</title>
<path fill="none" stroke="#191970" d="M1685.5073,-128.938C1709.4292,-113.1308 1750.2521,-80.8314 1728.8954,-56 1715.0568,-39.9098 1601.09,-26.0584 1516.7412,-17.8738"/>
<polygon fill="#191970" stroke="#191970" points="1516.8984,-14.3729 1506.6103,-16.904 1516.2313,-21.3411 1516.8984,-14.3729"/>
</g>
<!-- Node15&#45;&gt;Node3 -->
<g id="edge22" class="edge">
<title>Node15&#45;&gt;Node3</title>
<path fill="none" stroke="#191970" d="M1613.3692,-134.2811C1561.5117,-128.6989 1483.6159,-115.9196 1421.8954,-87 1401.8452,-77.6053 1403.3027,-64.5917 1382.8954,-56 1329.6865,-33.5985 1169.6048,-19.8962 1080.1286,-13.7781"/>
<polygon fill="#191970" stroke="#191970" points="1080.3206,-10.2832 1070.1083,-13.1045 1079.851,-17.2674 1080.3206,-10.2832"/>
</g>
<!-- Node15&#45;&gt;Node6 -->
<g id="edge19" class="edge">
<title>Node15&#45;&gt;Node6</title>
<path fill="none" stroke="#191970" d="M1692.3202,-128.985C1733.8678,-111.7443 1825.9597,-75.3381 1906.8954,-56 2019.5324,-29.0874 2157.1244,-16.556 2217.2842,-12.0581"/>
<polygon fill="#191970" stroke="#191970" points="2217.5407,-15.5488 2227.2608,-11.3334 2217.0335,-8.5672 2217.5407,-15.5488"/>
</g>
<!-- Node15&#45;&gt;Node14 -->
<g id="edge21" class="edge">
<title>Node15&#45;&gt;Node14</title>
<path fill="none" stroke="#191970" d="M1726.4145,-130.1574C1746.7056,-127.4545 1769.7863,-124.7144 1790.8954,-123 1848.4074,-118.3292 2783.8718,-123.0876 2828.8954,-87 2845.7632,-73.4801 2849.4814,-47.7097 2849.8238,-29.7221"/>
<polygon fill="#191970" stroke="#191970" points="2853.3234,-29.6588 2849.6882,-19.7072 2846.3241,-29.7537 2853.3234,-29.6588"/>
</g>
<!-- Node16 -->
<g id="node17" class="node">
<title>Node16</title>
<polygon fill="#ffffff" stroke="#bfbfbf" points="2622.8954,-.5 2622.8954,-19.5 2674.8954,-19.5 2674.8954,-.5 2622.8954,-.5"/>
<text text-anchor="middle" x="2648.8954" y="-7.5" font-family="Helvetica,sans-Serif" font-size="10.00" fill="#000000">memory</text>
</g>
<!-- Node15&#45;&gt;Node16 -->
<g id="edge20" class="edge">
<title>Node15&#45;&gt;Node16</title>
<path fill="none" stroke="#191970" d="M1714.5292,-128.976C1756.5481,-119.6263 1821.0452,-104.2831 1875.8954,-87 1912.6599,-75.4156 1919.2119,-64.1105 1956.8954,-56 2224.5671,1.6104 2299.298,-45.6472 2571.8954,-20 2585.1068,-18.757 2599.543,-16.9914 2612.3087,-15.2888"/>
<polygon fill="#191970" stroke="#191970" points="2613.1412,-18.7077 2622.5755,-13.8863 2612.1938,-11.7721 2613.1412,-18.7077"/>
</g>
<!-- Node17 -->
<g id="node18" class="node">
<title>Node17</title>
<polygon fill="#ffffff" stroke="#bfbfbf" points="1430.3954,-62 1430.3954,-81 1529.3954,-81 1529.3954,-62 1430.3954,-62"/>
<text text-anchor="middle" x="1479.8954" y="-69" font-family="Helvetica,sans-Serif" font-size="10.00" fill="#000000">AMReX_BCRec.H</text>
</g>
<!-- Node15&#45;&gt;Node17 -->
<g id="edge23" class="edge">
<title>Node15&#45;&gt;Node17</title>
<path fill="none" stroke="#191970" d="M1642.6731,-128.9005C1609.6581,-117.2584 1553.8551,-97.5805 1516.9429,-84.5641"/>
<polygon fill="#191970" stroke="#191970" points="1517.6621,-81.1065 1507.0673,-81.0817 1515.3341,-87.7081 1517.6621,-81.1065"/>
</g>
<!-- Node18 -->
<g id="node19" class="node">
<title>Node18</title>
<polygon fill="#ffffff" stroke="#bfbfbf" points="1046.3954,-62 1046.3954,-81 1131.3954,-81 1131.3954,-62 1046.3954,-62"/>
<text text-anchor="middle" x="1088.8954" y="-69" font-family="Helvetica,sans-Serif" font-size="10.00" fill="#000000">AMReX_Gpu.H</text>
</g>
<!-- Node15&#45;&gt;Node18 -->
<g id="edge24" class="edge">
<title>Node15&#45;&gt;Node18</title>
<path fill="none" stroke="#191970" d="M1613.3941,-131.9844C1501.0988,-119.0346 1251.2673,-90.2245 1141.8976,-77.6121"/>
<polygon fill="#191970" stroke="#191970" points="1142.0964,-74.1119 1131.7612,-76.4432 1141.2944,-81.0659 1142.0964,-74.1119"/>
</g>
<!-- Node19 -->
<g id="node20" class="node">
<title>Node19</title>
<g id="a_node20"><a xlink:href="incflo__enums_8_h.html" target="_top" xlink:title="amr&#45;wind/incflo_enums.H">
<polygon fill="#ffffff" stroke="#000000" points="1965.8954,-62 1965.8954,-81 2093.8954,-81 2093.8954,-62 1965.8954,-62"/>
<text text-anchor="middle" x="2029.8954" y="-69" font-family="Helvetica,sans-Serif" font-size="10.00" fill="#000000">amr&#45;wind/incflo_enums.H</text>
</a>
</g>
</g>
<!-- Node15&#45;&gt;Node19 -->
<g id="edge25" class="edge">
<title>Node15&#45;&gt;Node19</title>
<path fill="none" stroke="#191970" d="M1723.4782,-128.9699C1780.2399,-118.8147 1872.4533,-102.1464 1951.8954,-87 1958.5472,-85.7318 1965.5133,-84.3806 1972.4291,-83.0247"/>
<polygon fill="#191970" stroke="#191970" points="1973.3482,-86.411 1982.483,-81.044 1971.9951,-79.543 1973.3482,-86.411"/>
</g>
<!-- Node20 -->
<g id="node21" class="node">
<title>Node20</title>
<g id="a_node21"><a xlink:href="_view_field_8_h.html" target="_top" xlink:title="amr&#45;wind/core/ViewField.H">
<polygon fill="#ffffff" stroke="#000000" points="1585.8954,-62 1585.8954,-81 1719.8954,-81 1719.8954,-62 1585.8954,-62"/>
<text text-anchor="middle" x="1652.8954" y="-69" font-family="Helvetica,sans-Serif" font-size="10.00" fill="#000000">amr&#45;wind/core/ViewField.H</text>
</a>
</g>
</g>
<!-- Node15&#45;&gt;Node20 -->
<g id="edge27" class="edge">
<title>Node15&#45;&gt;Node20</title>
<path fill="none" stroke="#191970" d="M1667.4597,-128.9005C1664.9602,-119.0495 1661.0009,-103.4451 1657.8409,-90.9912"/>
<polygon fill="#191970" stroke="#191970" points="1661.1785,-89.9137 1655.3266,-81.0817 1654.3935,-91.6353 1661.1785,-89.9137"/>
</g>
<!-- Node20&#45;&gt;Node2 -->
<g id="edge29" class="edge">
<title>Node20&#45;&gt;Node2</title>
<path fill="none" stroke="#191970" d="M1617.2704,-61.8906C1577.5323,-51.1718 1513.1686,-33.8105 1469.9606,-22.1557"/>
<polygon fill="#191970" stroke="#191970" points="1470.8367,-18.767 1460.2703,-19.5419 1469.0137,-25.5255 1470.8367,-18.767"/>
</g>
<!-- Node20&#45;&gt;Node3 -->
<g id="edge30" class="edge">
<title>Node20&#45;&gt;Node3</title>
<path fill="none" stroke="#191970" d="M1607.6245,-61.9575C1596.0185,-59.7535 1583.5276,-57.5913 1571.8954,-56 1394.3991,-31.7183 1183.0324,-18.4645 1080.2356,-13.0126"/>
<polygon fill="#191970" stroke="#191970" points="1080.2038,-9.5062 1070.0344,-12.4783 1079.8376,-16.4966 1080.2038,-9.5062"/>
</g>
<!-- Node20&#45;&gt;Node6 -->
<g id="edge28" class="edge">
<title>Node20&#45;&gt;Node6</title>
<path fill="none" stroke="#191970" d="M1720.1867,-62.3393C1737.0567,-60.1518 1755.1272,-57.9017 1771.8954,-56 1939.3732,-37.0057 2140.5759,-19.2083 2216.6876,-12.6548"/>
<polygon fill="#191970" stroke="#191970" points="2217.3265,-16.113 2226.9906,-11.7707 2216.728,-9.1386 2217.3265,-16.113"/>
</g>
<!-- Node21 -->
<g id="node22" class="node">
<title>Node21</title>
<polygon fill="#ffffff" stroke="#bfbfbf" points="2467.3954,-.5 2467.3954,-19.5 2562.3954,-19.5 2562.3954,-.5 2467.3954,-.5"/>
<text text-anchor="middle" x="2514.8954" y="-7.5" font-family="Helvetica,sans-Serif" font-size="10.00" fill="#000000">AMReX_Vector.H</text>
</g>
<!-- Node20&#45;&gt;Node21 -->
<g id="edge31" class="edge">
<title>Node20&#45;&gt;Node21</title>
<path fill="none" stroke="#191970" d="M1720.1093,-65.8903C1757.6881,-62.8211 1805.3827,-59.0366 1847.8954,-56 2100.2036,-37.9779 2163.794,-40.7142 2415.8954,-20 2429.2722,-18.9009 2443.6483,-17.5478 2457.185,-16.1962"/>
<polygon fill="#191970" stroke="#191970" points="2457.7462,-19.6573 2467.3425,-15.1671 2457.0406,-12.693 2457.7462,-19.6573"/>
</g>
<!-- Node22&#45;&gt;Node2 -->
<g id="edge34" class="edge">
<title>Node22&#45;&gt;Node2</title>
<path fill="none" stroke="#191970" d="M1851.9286,-128.9155C1832.8797,-111.2225 1789.2389,-73.6325 1744.8954,-56 1704.5704,-39.9654 1596.2023,-26.5179 1516.7071,-18.3827"/>
<polygon fill="#191970" stroke="#191970" points="1516.9746,-14.892 1506.6732,-17.3682 1516.2704,-21.8565 1516.9746,-14.892"/>
</g>
<!-- Node22&#45;&gt;Node6 -->
<g id="edge33" class="edge">
<title>Node22&#45;&gt;Node6</title>
<path fill="none" stroke="#191970" d="M1869.6107,-128.93C1884.4488,-111.2612 1918.8771,-73.7098 1956.8954,-56 2002.9011,-34.5694 2152.453,-18.7217 2217.3656,-12.6796"/>
<polygon fill="#191970" stroke="#191970" points="2217.7479,-16.1594 2227.3873,-11.7624 2217.1099,-9.1885 2217.7479,-16.1594"/>
</g>
<!-- Node22&#45;&gt;Node23 -->
<g id="edge35" class="edge">
<title>Node22&#45;&gt;Node23</title>
<path fill="none" stroke="#191970" d="M1908.6407,-128.9544C1957.2638,-118.9215 2035.5531,-102.4756 2102.8954,-87 2107.8456,-85.8624 2113.0066,-84.6447 2118.1506,-83.4103"/>
<polygon fill="#191970" stroke="#191970" points="2119.0675,-86.7895 2127.9619,-81.0327 2117.4188,-79.9864 2119.0675,-86.7895"/>
</g>
<!-- Node24&#45;&gt;Node2 -->
<g id="edge38" class="edge">
<title>Node24&#45;&gt;Node2</title>
<path fill="none" stroke="#191970" d="M1249.8934,-128.7955C1232.7382,-112.4989 1203.406,-79.1479 1221.8954,-56 1236.2393,-38.0422 1286.448,-26.5732 1333.3388,-19.5782"/>
<polygon fill="#191970" stroke="#191970" points="1333.8784,-23.0368 1343.2804,-18.1528 1332.8848,-16.1076 1333.8784,-23.0368"/>
</g>
<!-- Node24&#45;&gt;Node3 -->
<g id="edge40" class="edge">
<title>Node24&#45;&gt;Node3</title>
<path fill="none" stroke="#191970" d="M1187.7069,-129.8503C1131.1727,-121.7046 1059.1096,-107.6456 1037.8954,-87 1022.6308,-72.1445 1018.4994,-47.2436 1017.6271,-29.7915"/>
<polygon fill="#191970" stroke="#191970" points="1021.1227,-29.5134 1017.4403,-19.5791 1014.1239,-29.6415 1021.1227,-29.5134"/>
</g>
<!-- Node24&#45;&gt;Node6 -->
<g id="edge37" class="edge">
<title>Node24&#45;&gt;Node6</title>
<path fill="none" stroke="#191970" d="M1256.1475,-128.812C1248.4851,-111.6204 1236.0534,-75.7351 1254.8954,-56 1288.8986,-20.3851 2051.6916,-11.7107 2216.6313,-10.2488"/>
<polygon fill="#191970" stroke="#191970" points="2217.0684,-13.7453 2227.0378,-10.1592 2217.008,-6.7456 2217.0684,-13.7453"/>
</g>
<!-- Node24&#45;&gt;Node20 -->
<g id="edge39" class="edge">
<title>Node24&#45;&gt;Node20</title>
<path fill="none" stroke="#191970" d="M1316.6432,-128.9717C1387.9514,-116.7838 1511.2714,-95.7062 1587.1049,-82.7448"/>
<polygon fill="#191970" stroke="#191970" points="1587.7556,-86.1844 1597.023,-81.0496 1586.5762,-79.2845 1587.7556,-86.1844"/>
</g>
<!-- Node24&#45;&gt;Node21 -->
<g id="edge41" class="edge">
<title>Node24&#45;&gt;Node21</title>
<path fill="none" stroke="#191970" d="M1334.1509,-132.6819C1426.5279,-124.8308 1590.069,-109.2215 1728.8954,-87 1794.8264,-76.4466 1809.7526,-65.1324 1875.8954,-56 2114.1677,-23.1015 2176.2031,-40.0895 2415.8954,-20 2429.2704,-18.879 2443.6457,-17.5173 2457.1823,-16.1643"/>
<polygon fill="#191970" stroke="#191970" points="2457.7435,-19.6255 2467.3398,-15.1355 2457.038,-12.6611 2457.7435,-19.6255"/>
</g>
<!-- Node25 -->
<g id="node26" class="node">
<title>Node25</title>
<polygon fill="#ffffff" stroke="#bfbfbf" points="823.8954,-62 823.8954,-81 951.8954,-81 951.8954,-62 823.8954,-62"/>
<text text-anchor="middle" x="887.8954" y="-69" font-family="Helvetica,sans-Serif" font-size="10.00" fill="#000000">AMReX_PhysBCFunct.H</text>
</g>
<!-- Node24&#45;&gt;Node25 -->
<g id="edge42" class="edge">
<title>Node24&#45;&gt;Node25</title>
<path fill="none" stroke="#191970" d="M1207.8497,-128.9717C1140.1362,-116.8087 1023.1338,-95.7921 950.9395,-82.8243"/>
<polygon fill="#191970" stroke="#191970" points="951.521,-79.3728 941.0597,-81.0496 950.2834,-86.2625 951.521,-79.3728"/>
</g>
<!-- Node27&#45;&gt;Node1 -->
<g id="edge50" class="edge">
<title>Node27&#45;&gt;Node1</title>
<path fill="none" stroke="#191970" d="M576.8141,-194.6208C510.3905,-184.2799 407.8289,-168.2368 318.8954,-154 310.2034,-152.6085 301.0661,-151.1335 292.0349,-149.6681"/>
<polygon fill="#191970" stroke="#191970" points="292.3449,-146.1726 281.9129,-148.0227 291.2217,-153.0819 292.3449,-146.1726"/>
</g>
<!-- Node27&#45;&gt;Node2 -->
<g id="edge49" class="edge">
<title>Node27&#45;&gt;Node2</title>
<path fill="none" stroke="#191970" d="M648.2942,-190.4088C651.8196,-155.9834 662.2924,-73.2905 682.8954,-56 707.42,-35.4184 1139.8069,-19.1037 1332.9754,-12.8086"/>
<polygon fill="#191970" stroke="#191970" points="1333.2294,-16.3023 1343.1108,-12.4803 1333.0027,-9.3059 1333.2294,-16.3023"/>
</g>
<!-- Node27&#45;&gt;Node3 -->
<g id="edge52" class="edge">
<title>Node27&#45;&gt;Node3</title>
<path fill="none" stroke="#191970" d="M576.6216,-201.3476C458.7861,-193.867 226.5338,-176.7628 147.8954,-154 76.6767,-133.3849 -38.3185,-109.6117 12.8954,-56 45.539,-21.8281 741.4721,-12.5566 955.698,-10.5076"/>
<polygon fill="#191970" stroke="#191970" points="955.8639,-14.0063 965.8306,-10.4127 955.7982,-7.0066 955.8639,-14.0063"/>
</g>
<!-- Node27&#45;&gt;Node9 -->
<g id="edge48" class="edge">
<title>Node27&#45;&gt;Node9</title>
<path fill="none" stroke="#191970" d="M590.1173,-190.4639C544.664,-178.4269 481.7457,-161.7647 439.5243,-150.5835"/>
<polygon fill="#191970" stroke="#191970" points="440.3513,-147.182 429.7885,-148.0053 438.5593,-153.9487 440.3513,-147.182"/>
</g>
<!-- Node27&#45;&gt;Node10 -->
<g id="edge53" class="edge">
<title>Node27&#45;&gt;Node10</title>
<path fill="none" stroke="#191970" d="M585.917,-190.4964C552.7559,-180.9711 516.5642,-167.8589 506.8954,-154 491.9144,-132.5266 513.2787,-105.3614 531.1356,-88.2014"/>
<polygon fill="#191970" stroke="#191970" points="533.918,-90.4011 538.9502,-81.0775 529.2021,-85.228 533.918,-90.4011"/>
</g>
<!-- Node27&#45;&gt;Node15 -->
<g id="edge47" class="edge">
<title>Node27&#45;&gt;Node15</title>
<path fill="none" stroke="#191970" d="M717.2104,-200.8948C905.5022,-188.5629 1419.2949,-154.9127 1603.264,-142.8639"/>
<polygon fill="#191970" stroke="#191970" points="1603.5901,-146.3502 1613.34,-142.204 1603.1326,-139.3651 1603.5901,-146.3502"/>
</g>
<!-- Node27&#45;&gt;Node25 -->
<g id="edge54" class="edge">
<title>Node27&#45;&gt;Node25</title>
<path fill="none" stroke="#191970" d="M674.0727,-190.389C720.8304,-164.3909 815.8913,-111.5355 861.8537,-85.9796"/>
<polygon fill="#191970" stroke="#191970" points="863.5832,-89.0227 870.6223,-81.1042 860.1815,-82.9048 863.5832,-89.0227"/>
</g>
<!-- Node27&#45;&gt;Node26 -->
<g id="edge51" class="edge">
<title>Node27&#45;&gt;Node26</title>
<path fill="none" stroke="#191970" d="M717.1634,-197.981C791.8646,-189.461 913.2756,-174.1044 1016.8954,-154 1022.3414,-152.9434 1028.0252,-151.7082 1033.6461,-150.4045"/>
<polygon fill="#191970" stroke="#191970" points="1034.7241,-153.7453 1043.631,-148.0078 1033.0902,-146.9386 1034.7241,-153.7453"/>
</g>
<!-- Node28 -->
<g id="node29" class="node">
<title>Node28</title>
<polygon fill="#ffffff" stroke="#bfbfbf" points="515.8954,-129 515.8954,-148 635.8954,-148 635.8954,-129 515.8954,-129"/>
<text text-anchor="middle" x="575.8954" y="-136" font-family="Helvetica,sans-Serif" font-size="10.00" fill="#000000">AMReX_FillPatchUtil.H</text>
</g>
<!-- Node27&#45;&gt;Node28 -->
<g id="edge55" class="edge">
<title>Node27&#45;&gt;Node28</title>
<path fill="none" stroke="#191970" d="M630.7844,-190.2967C619.6149,-179.7564 604.7514,-165.7303 593.3087,-154.9323"/>
<polygon fill="#191970" stroke="#191970" points="595.696,-152.3727 586.0208,-148.055 590.8917,-157.4638 595.696,-152.3727"/>
</g>
<!-- Node29&#45;&gt;Node2 -->
<g id="edge57" class="edge">
<title>Node29&#45;&gt;Node2</title>
<path fill="none" stroke="#191970" d="M943.3822,-128.7971C959.6725,-110.9068 997.3247,-73.0012 1037.8954,-56 1089.5016,-34.3744 1235.966,-21.4913 1333.175,-15.0808"/>
<polygon fill="#191970" stroke="#191970" points="1333.5513,-18.5639 1343.304,-14.4245 1333.0986,-11.5785 1333.5513,-18.5639"/>
</g>
<!-- Node29&#45;&gt;Node18 -->
<g id="edge58" class="edge">
<title>Node29&#45;&gt;Node18</title>
<path fill="none" stroke="#191970" d="M956.9599,-128.9005C983.262,-117.4574 1027.4082,-98.2509 1057.32,-85.2374"/>
<polygon fill="#191970" stroke="#191970" points="1059.0985,-88.2806 1066.8719,-81.0817 1056.3058,-81.8617 1059.0985,-88.2806"/>
</g>
<!-- Node29&#45;&gt;Node25 -->
<g id="edge61" class="edge">
<title>Node29&#45;&gt;Node25</title>
<path fill="none" stroke="#191970" d="M928.1615,-128.9005C920.9718,-118.6515 909.4135,-102.1747 900.5206,-89.4976"/>
<polygon fill="#191970" stroke="#191970" points="903.2251,-87.2582 894.6169,-81.0817 897.4944,-91.2783 903.2251,-87.2582"/>
</g>
<!-- Node30 -->
<g id="node31" class="node">
<title>Node30</title>
<polygon fill="#ffffff" stroke="#bfbfbf" points="692.3954,-62 692.3954,-81 805.3954,-81 805.3954,-62 692.3954,-62"/>
<text text-anchor="middle" x="748.8954" y="-69" font-family="Helvetica,sans-Serif" font-size="10.00" fill="#000000">AMReX_FArrayBox.H</text>
</g>
<!-- Node29&#45;&gt;Node30 -->
<g id="edge59" class="edge">
<title>Node29&#45;&gt;Node30</title>
<path fill="none" stroke="#191970" d="M908.2462,-128.9005C875.9262,-117.2584 821.2981,-97.5805 785.1629,-84.5641"/>
<polygon fill="#191970" stroke="#191970" points="786.0897,-81.1778 775.4953,-81.0817 783.7173,-87.7636 786.0897,-81.1778"/>
</g>
<!-- Node31 -->
<g id="node32" class="node">
<title>Node31</title>
<polygon fill="#ffffff" stroke="#bfbfbf" points="1263.8954,-62 1263.8954,-81 1373.8954,-81 1373.8954,-62 1263.8954,-62"/>
<text text-anchor="middle" x="1318.8954" y="-69" font-family="Helvetica,sans-Serif" font-size="10.00" fill="#000000">AMReX_Geometry.H</text>
</g>
<!-- Node29&#45;&gt;Node31 -->
<g id="edge60" class="edge">
<title>Node29&#45;&gt;Node31</title>
<path fill="none" stroke="#191970" d="M984.737,-128.9309C995.3453,-126.9357 1006.4859,-124.8712 1016.8954,-123 1098.4674,-108.3364 1192.6278,-92.443 1253.8287,-82.2499"/>
<polygon fill="#191970" stroke="#191970" points="1254.4456,-85.6954 1263.7356,-80.6017 1253.2968,-78.7903 1254.4456,-85.6954"/>
</g>
<!-- Node32&#45;&gt;Node2 -->
<g id="edge70" class="edge">
<title>Node32&#45;&gt;Node2</title>
<path fill="none" stroke="#191970" d="M2893.691,-134.8675C2821.7165,-129.0322 2688.3679,-115.2367 2577.8954,-87 2540.1471,-77.3516 2534.0636,-63.8238 2495.8954,-56 2401.4777,-36.6459 1758.6036,-18.4943 1516.6928,-12.2715"/>
<polygon fill="#191970" stroke="#191970" points="1516.6061,-8.7682 1506.5197,-12.0108 1516.4267,-15.7659 1516.6061,-8.7682"/>
</g>
<!-- Node32&#45;&gt;Node14 -->
<g id="edge63" class="edge">
<title>Node32&#45;&gt;Node14</title>
<path fill="none" stroke="#191970" d="M2990.9567,-123.3693C3028.0389,-108.4807 3071.1563,-83.962 3048.8954,-56 3044.1984,-50.1 2958.21,-31.879 2900.5269,-20.2181"/>
<polygon fill="#191970" stroke="#191970" points="2900.9607,-16.7352 2890.4666,-18.1927 2899.5791,-23.5975 2900.9607,-16.7352"/>
</g>
<!-- Node33 -->
<g id="node34" class="node">
<title>Node33</title>
<g id="a_node34"><a xlink:href="_factory_8_h.html" target="_top" xlink:title="amr&#45;wind/core/Factory.H">
<polygon fill="#ffffff" stroke="#000000" points="2914.3954,-62 2914.3954,-81 3039.3954,-81 3039.3954,-62 2914.3954,-62"/>
<text text-anchor="middle" x="2976.8954" y="-69" font-family="Helvetica,sans-Serif" font-size="10.00" fill="#000000">amr&#45;wind/core/Factory.H</text>
</a>
</g>
</g>
<!-- Node32&#45;&gt;Node33 -->
<g id="edge64" class="edge">
<title>Node32&#45;&gt;Node33</title>
<path fill="none" stroke="#191970" d="M2952.9298,-123.2967C2957.4784,-113.4658 2963.43,-100.6026 2968.2643,-90.1545"/>
<polygon fill="#191970" stroke="#191970" points="2971.4517,-91.6003 2972.4745,-81.055 2965.0988,-88.6609 2971.4517,-91.6003"/>
</g>
<!-- Node33&#45;&gt;Node14 -->
<g id="edge66" class="edge">
<title>Node33&#45;&gt;Node14</title>
<path fill="none" stroke="#191970" d="M2956.8954,-61.8906C2935.6665,-51.6908 2901.9192,-35.4763 2877.7994,-23.8875"/>
<polygon fill="#191970" stroke="#191970" points="2879.2844,-20.7179 2868.755,-19.5419 2876.2528,-27.0275 2879.2844,-20.7179"/>
</g>
<!-- Node33&#45;&gt;Node16 -->
<g id="edge65" class="edge">
<title>Node33&#45;&gt;Node16</title>
<path fill="none" stroke="#191970" d="M2926.0053,-61.9581C2859.1247,-49.418 2743.3117,-27.703 2684.8564,-16.7427"/>
<polygon fill="#191970" stroke="#191970" points="2685.4443,-13.292 2674.9706,-14.8891 2684.1542,-20.1721 2685.4443,-13.292"/>
</g>
<!-- Node34 -->
<g id="node35" class="node">
<title>Node34</title>
<polygon fill="#ffffff" stroke="#bfbfbf" points="2908.8954,-.5 2908.8954,-19.5 2962.8954,-19.5 2962.8954,-.5 2908.8954,-.5"/>
<text text-anchor="middle" x="2935.8954" y="-7.5" font-family="Helvetica,sans-Serif" font-size="10.00" fill="#000000">iostream</text>
</g>
<!-- Node33&#45;&gt;Node34 -->
<g id="edge67" class="edge">
<title>Node33&#45;&gt;Node34</title>
<path fill="none" stroke="#191970" d="M2970.4892,-61.8906C2964.5068,-52.917 2955.4207,-39.2879 2948.0615,-28.2491"/>
<polygon fill="#191970" stroke="#191970" points="2950.8512,-26.1239 2942.392,-19.7449 2945.0269,-30.0068 2950.8512,-26.1239"/>
</g>
<!-- Node35 -->
<g id="node36" class="node">
<title>Node35</title>
<polygon fill="#ffffff" stroke="#bfbfbf" points="2981.3954,-.5 2981.3954,-19.5 3068.3954,-19.5 3068.3954,-.5 2981.3954,-.5"/>
<text text-anchor="middle" x="3024.8954" y="-7.5" font-family="Helvetica,sans-Serif" font-size="10.00" fill="#000000">AMReX_Print.H</text>
</g>
<!-- Node33&#45;&gt;Node35 -->
<g id="edge68" class="edge">
<title>Node33&#45;&gt;Node35</title>
<path fill="none" stroke="#191970" d="M2984.3954,-61.8906C2991.4692,-52.8273 3002.2497,-39.0149 3010.91,-27.9188"/>
<polygon fill="#191970" stroke="#191970" points="3013.896,-29.7815 3017.2897,-19.7449 3008.3778,-25.4746 3013.896,-29.7815"/>
</g>
<!-- Node36 -->
<g id="node37" class="node">
<title>Node36</title>
<polygon fill="#ffffff" stroke="#bfbfbf" points="3086.8954,-.5 3086.8954,-19.5 3148.8954,-19.5 3148.8954,-.5 3086.8954,-.5"/>
<text text-anchor="middle" x="3117.8954" y="-7.5" font-family="Helvetica,sans-Serif" font-size="10.00" fill="#000000">AMReX.H</text>
</g>
<!-- Node33&#45;&gt;Node36 -->
<g id="edge69" class="edge">
<title>Node33&#45;&gt;Node36</title>
<path fill="none" stroke="#191970" d="M2998.9267,-61.8906C3022.5186,-51.6005 3060.1455,-35.1888 3086.7587,-23.5809"/>
<polygon fill="#191970" stroke="#191970" points="3088.2521,-26.748 3096.0189,-19.5419 3085.4535,-20.3318 3088.2521,-26.748"/>
</g>
<!-- Node37&#45;&gt;Node6 -->
<g id="edge72" class="edge">
<title>Node37&#45;&gt;Node6</title>
<path fill="none" stroke="#191970" d="M2729.6669,-57.8689C2726.7121,-57.1796 2723.7698,-56.5475 2720.8954,-56 2715.4282,-54.9586 2382.8794,-22.9676 2278.7307,-12.9612"/>
<polygon fill="#191970" stroke="#191970" points="2278.8451,-9.4562 2268.5563,-11.9838 2278.1757,-16.4241 2278.8451,-9.4562"/>
</g>
<!-- Node37&#45;&gt;Node14 -->
<g id="edge73" class="edge">
<title>Node37&#45;&gt;Node14</title>
<path fill="none" stroke="#191970" d="M2793.1876,-56.2977C2804.1015,-47.2274 2817.9625,-35.7077 2829.1278,-26.4285"/>
<polygon fill="#191970" stroke="#191970" points="2831.5934,-28.9303 2837.0471,-19.8469 2827.1193,-23.5468 2831.5934,-28.9303"/>
</g>
<!-- Node37&#45;&gt;Node21 -->
<g id="edge75" class="edge">
<title>Node37&#45;&gt;Node21</title>
<path fill="none" stroke="#191970" d="M2729.869,-58.3577C2726.8375,-57.5402 2723.8253,-56.7469 2720.8954,-56 2670.5409,-43.1633 2612.7627,-30.4332 2571.2363,-21.6304"/>
<polygon fill="#191970" stroke="#191970" points="2571.8164,-18.1758 2561.3091,-19.5352 2570.3708,-25.0249 2571.8164,-18.1758"/>
</g>
<!-- Node38 -->
<g id="node39" class="node">
<title>Node38</title>
<polygon fill="#ffffff" stroke="#bfbfbf" points="2758.8954,-.5 2758.8954,-19.5 2788.8954,-19.5 2788.8954,-.5 2758.8954,-.5"/>
<text text-anchor="middle" x="2773.8954" y="-7.5" font-family="Helvetica,sans-Serif" font-size="10.00" fill="#000000">set</text>
</g>
<!-- Node37&#45;&gt;Node38 -->
<g id="edge74" class="edge">
<title>Node37&#45;&gt;Node38</title>
<path fill="none" stroke="#191970" d="M2774.6482,-56.2977C2774.5195,-48.3834 2774.3605,-38.6043 2774.2219,-30.0759"/>
<polygon fill="#191970" stroke="#191970" points="2777.7177,-29.7887 2774.0555,-19.8469 2770.7187,-29.9025 2777.7177,-29.7887"/>
</g>
<!-- Node39&#45;&gt;Node9 -->
<g id="edge78" class="edge">
<title>Node39&#45;&gt;Node9</title>
<path fill="none" stroke="#191970" d="M1998.8201,-269.4082C1938.0425,-266.0111 1836.4157,-260.5647 1748.8954,-257 1617.721,-251.6572 695.5208,-251.7738 567.8954,-221 538.0452,-213.8023 461.4453,-174.4572 420.5547,-152.8049"/>
<polygon fill="#191970" stroke="#191970" points="422.1608,-149.695 411.6881,-148.0907 418.8746,-155.8757 422.1608,-149.695"/>
</g>
<!-- Node39&#45;&gt;Node13 -->
<g id="edge79" class="edge">
<title>Node39&#45;&gt;Node13</title>
<path fill="none" stroke="#191970" d="M1998.8332,-263.0426C1929.3145,-250.8814 1808.7226,-229.7857 1734.4622,-216.795"/>
<polygon fill="#191970" stroke="#191970" points="1734.7549,-213.2931 1724.3014,-215.0175 1733.5487,-220.1884 1734.7549,-213.2931"/>
</g>
<!-- Node39&#45;&gt;Node26 -->
<g id="edge77" class="edge">
<title>Node39&#45;&gt;Node26</title>
<path fill="none" stroke="#191970" d="M1998.8772,-267.656C1857.7819,-254.5261 1466.8727,-215.0855 1145.8954,-154 1140.0348,-152.8847 1133.9093,-151.6142 1127.8458,-150.2916"/>
<polygon fill="#191970" stroke="#191970" points="1128.2803,-146.8024 1117.7574,-148.0349 1126.7521,-153.6336 1128.2803,-146.8024"/>
</g>
<!-- Node40 -->
<g id="node41" class="node">
<title>Node40</title>
<g id="a_node41"><a xlink:href="_p_d_e_base_8_h.html" target="_top" xlink:title="amr&#45;wind/equation_systems\l/PDEBase.H">
<polygon fill="#ffffff" stroke="#000000" points="2497.3954,-123.5 2497.3954,-153.5 2636.3954,-153.5 2636.3954,-123.5 2497.3954,-123.5"/>
<text text-anchor="start" x="2505.3954" y="-141.5" font-family="Helvetica,sans-Serif" font-size="10.00" fill="#000000">amr&#45;wind/equation_systems</text>
<text text-anchor="middle" x="2566.8954" y="-130.5" font-family="Helvetica,sans-Serif" font-size="10.00" fill="#000000">/PDEBase.H</text>
</a>
</g>
</g>
<!-- Node39&#45;&gt;Node40 -->
<g id="edge80" class="edge">
<title>Node39&#45;&gt;Node40</title>
<path fill="none" stroke="#191970" d="M2106.9196,-267.7037C2170.8831,-261.1241 2280.1795,-247.0349 2370.8954,-221 2427.1642,-204.8512 2488.9218,-177.057 2527.7821,-158.2386"/>
<polygon fill="#191970" stroke="#191970" points="2529.7033,-161.1954 2537.1513,-153.6602 2526.6299,-154.9061 2529.7033,-161.1954"/>
</g>
<!-- Node42 -->
<g id="node43" class="node">
<title>Node42</title>
<g id="a_node43"><a xlink:href="_physics_8_h.html" target="_top" xlink:title="amr&#45;wind/core/Physics.H">
<polygon fill="#ffffff" stroke="#000000" points="2352.3954,-129 2352.3954,-148 2479.3954,-148 2479.3954,-129 2352.3954,-129"/>
<text text-anchor="middle" x="2415.8954" y="-136" font-family="Helvetica,sans-Serif" font-size="10.00" fill="#000000">amr&#45;wind/core/Physics.H</text>
</a>
</g>
</g>
<!-- Node39&#45;&gt;Node42 -->
<g id="edge91" class="edge">
<title>Node39&#45;&gt;Node42</title>
<path fill="none" stroke="#191970" d="M2106.9901,-266.7956C2178.1848,-258.5986 2298.8722,-242.1213 2337.8954,-221 2366.4977,-205.519 2390.6327,-175.7218 2404.177,-156.494"/>
<polygon fill="#191970" stroke="#191970" points="2407.2159,-158.2494 2409.9484,-148.013 2401.4288,-154.3112 2407.2159,-158.2494"/>
</g>
<!-- Node40&#45;&gt;Node2 -->
<g id="edge89" class="edge">
<title>Node40&#45;&gt;Node2</title>
<path fill="none" stroke="#191970" d="M2549.1999,-123.4734C2522.2084,-100.7061 2472.8268,-59.7094 2462.8954,-56 2375.687,-23.4276 1754.1791,-13.4753 1516.7657,-10.8424"/>
<polygon fill="#191970" stroke="#191970" points="1516.4727,-7.3391 1506.4351,-10.7298 1516.3963,-14.3387 1516.4727,-7.3391"/>
</g>
<!-- Node40&#45;&gt;Node6 -->
<g id="edge81" class="edge">
<title>Node40&#45;&gt;Node6</title>
<path fill="none" stroke="#191970" d="M2558.2823,-123.2452C2546.6971,-104.242 2524.2365,-72.2944 2495.8954,-56 2459.1742,-34.8876 2336.3252,-19.4147 2278.4926,-13.1147"/>
<polygon fill="#191970" stroke="#191970" points="2278.8013,-9.6278 2268.4861,-12.0458 2278.0577,-16.5882 2278.8013,-9.6278"/>
</g>
<!-- Node40&#45;&gt;Node7 -->
<g id="edge88" class="edge">
<title>Node40&#45;&gt;Node7</title>
<path fill="none" stroke="#191970" d="M2525.8267,-123.4639C2498.8436,-113.5849 2463.3514,-100.5905 2434.6097,-90.0675"/>
<polygon fill="#191970" stroke="#191970" points="2435.7371,-86.7531 2425.1433,-86.6017 2433.3304,-93.3264 2435.7371,-86.7531"/>
</g>
<!-- Node40&#45;&gt;Node19 -->
<g id="edge90" class="edge">
<title>Node40&#45;&gt;Node19</title>
<path fill="none" stroke="#191970" d="M2497.2158,-124.2842C2494.4094,-123.8287 2491.6279,-123.3982 2488.8954,-123 2318.8339,-98.2191 2273.8269,-112.6574 2103.8954,-87 2096.4954,-85.8827 2088.721,-84.4942 2081.106,-83.0108"/>
<polygon fill="#191970" stroke="#191970" points="2081.7265,-79.5656 2071.2321,-81.0208 2080.3435,-86.4276 2081.7265,-79.5656"/>
</g>
<!-- Node40&#45;&gt;Node33 -->
<g id="edge82" class="edge">
<title>Node40&#45;&gt;Node33</title>
<path fill="none" stroke="#191970" d="M2636.4463,-127.1344C2712.427,-114.718 2833.3412,-94.9589 2908.7587,-82.6345"/>
<polygon fill="#191970" stroke="#191970" points="2909.3291,-86.0878 2918.6337,-81.0208 2908.2001,-79.1795 2909.3291,-86.0878"/>
</g>
<!-- Node41 -->
<g id="node42" class="node">
<title>Node41</title>
<g id="a_node42"><a xlink:href="_coll_mgr_8_h.html" target="_top" xlink:title="amr&#45;wind/core/CollMgr.H">
<polygon fill="#ffffff" stroke="#000000" points="2586.3954,-62 2586.3954,-81 2711.3954,-81 2711.3954,-62 2586.3954,-62"/>
<text text-anchor="middle" x="2648.8954" y="-69" font-family="Helvetica,sans-Serif" font-size="10.00" fill="#000000">amr&#45;wind/core/CollMgr.H</text>
</a>
</g>
</g>
<!-- Node40&#45;&gt;Node41 -->
<g id="edge83" class="edge">
<title>Node40&#45;&gt;Node41</title>
<path fill="none" stroke="#191970" d="M2585.5025,-123.2967C2598.5265,-112.6551 2615.8993,-98.4602 2629.1644,-87.6217"/>
<polygon fill="#191970" stroke="#191970" points="2631.672,-90.0926 2637.2013,-81.055 2627.2429,-84.6719 2631.672,-90.0926"/>
</g>
<!-- Node41&#45;&gt;Node6 -->
<g id="edge84" class="edge">
<title>Node41&#45;&gt;Node6</title>
<path fill="none" stroke="#191970" d="M2603.7821,-61.9663C2593.3337,-59.8841 2582.2442,-57.7747 2571.8954,-56 2464.5787,-37.5962 2336.3591,-20.9672 2278.6783,-13.77"/>
<polygon fill="#191970" stroke="#191970" points="2278.7844,-10.2564 2268.4294,-12.498 2277.9222,-17.2031 2278.7844,-10.2564"/>
</g>
<!-- Node41&#45;&gt;Node14 -->
<g id="edge86" class="edge">
<title>Node41&#45;&gt;Node14</title>
<path fill="none" stroke="#191970" d="M2680.1454,-61.8906C2714.6365,-51.2846 2770.2766,-34.1753 2808.1616,-22.5257"/>
<polygon fill="#191970" stroke="#191970" points="2809.3353,-25.8266 2817.8649,-19.5419 2807.2778,-19.1357 2809.3353,-25.8266"/>
</g>
<!-- Node41&#45;&gt;Node16 -->
<g id="edge85" class="edge">
<title>Node41&#45;&gt;Node16</title>
<path fill="none" stroke="#191970" d="M2648.8954,-61.8906C2648.8954,-53.3657 2648.8954,-40.6392 2648.8954,-29.9235"/>
<polygon fill="#191970" stroke="#191970" points="2652.3955,-29.7448 2648.8954,-19.7449 2645.3955,-29.7449 2652.3955,-29.7448"/>
</g>
<!-- Node41&#45;&gt;Node21 -->
<g id="edge87" class="edge">
<title>Node41&#45;&gt;Node21</title>
<path fill="none" stroke="#191970" d="M2627.9579,-61.8906C2605.6356,-51.6457 2570.0918,-35.3326 2544.8197,-23.7339"/>
<polygon fill="#191970" stroke="#191970" points="2546.2344,-20.5322 2535.6859,-19.5419 2543.3145,-26.8942 2546.2344,-20.5322"/>
</g>
<!-- Node42&#45;&gt;Node3 -->
<g id="edge94" class="edge">
<title>Node42&#45;&gt;Node3</title>
<path fill="none" stroke="#191970" d="M2352.2576,-136.8395C2168.966,-131.7433 1648.3755,-114.955 1576.8954,-87 1556.5966,-79.0614 1559.0862,-64.2095 1538.8954,-56 1457.2637,-22.8089 1199.9276,-13.505 1080.2412,-10.9461"/>
<polygon fill="#191970" stroke="#191970" points="1080.2043,-7.4447 1070.1347,-10.7392 1080.0609,-14.4433 1080.2043,-7.4447"/>
</g>
<!-- Node42&#45;&gt;Node31 -->
<g id="edge95" class="edge">
<title>Node42&#45;&gt;Node31</title>
<path fill="none" stroke="#191970" d="M2352.3538,-137.3571C2194.5438,-134.0518 1772.1984,-122.3473 1421.8954,-87 1409.6152,-85.7609 1396.5615,-84.0807 1384.0197,-82.2827"/>
<polygon fill="#191970" stroke="#191970" points="1384.4989,-78.8156 1374.0958,-80.8217 1383.4793,-85.7409 1384.4989,-78.8156"/>
</g>
<!-- Node42&#45;&gt;Node33 -->
<g id="edge92" class="edge">
<title>Node42&#45;&gt;Node33</title>
<path fill="none" stroke="#191970" d="M2456.6714,-128.992C2467.1317,-126.7873 2478.395,-124.6162 2488.8954,-123 2653.5051,-97.6637 2696.4492,-106.1267 2861.8954,-87 2875.5837,-85.4175 2890.1668,-83.5742 2904.1895,-81.7224"/>
<polygon fill="#191970" stroke="#191970" points="2904.8311,-85.1679 2914.2803,-80.376 2903.9053,-78.2294 2904.8311,-85.1679"/>
</g>
<!-- Node42&#45;&gt;Node41 -->
<g id="edge93" class="edge">
<title>Node42&#45;&gt;Node41</title>
<path fill="none" stroke="#191970" d="M2449.2786,-128.9005C2490.4575,-117.0594 2560.5452,-96.9054 2605.7643,-83.9025"/>
<polygon fill="#191970" stroke="#191970" points="2606.9308,-87.209 2615.5741,-81.0817 2604.9963,-80.4816 2606.9308,-87.209"/>
</g>
</g>
</svg>
