<?xml version="1.0" encoding="UTF-8" standalone="no"?>
<!DOCTYPE svg PUBLIC "-//W3C//DTD SVG 1.1//EN"
 "http://www.w3.org/Graphics/SVG/1.1/DTD/svg11.dtd">
<!-- Generated by graphviz version 2.40.1 (20161225.0304)
 -->
<!-- Title: PDETraits.H Pages: 1 -->
<svg width="1298pt" height="308pt"
 viewBox="0.00 0.00 1297.50 308.00" xmlns="http://www.w3.org/2000/svg" xmlns:xlink="http://www.w3.org/1999/xlink">
<g id="graph0" class="graph" transform="scale(1 1) rotate(0) translate(4 304)">
<title>PDETraits.H</title>
<polygon fill="#ffffff" stroke="transparent" points="-4,4 -4,-304 1293.5,-304 1293.5,4 -4,4"/>
<!-- Node26 -->
<g id="node1" class="node">
<title>Node26</title>
<polygon fill="#bfbfbf" stroke="#000000" points="586.5,-280.5 586.5,-299.5 659.5,-299.5 659.5,-280.5 586.5,-280.5"/>
<text text-anchor="middle" x="623" y="-287.5" font-family="Helvetica,sans-Serif" font-size="10.00" fill="#000000">PDETraits.H</text>
</g>
<!-- Node27 -->
<g id="node2" class="node">
<title>Node27</title>
<g id="a_node2"><a xlink:href="_adv_op___godunov_8_h.html" target="_top" xlink:title="AdvOp_Godunov.H">
<polygon fill="#ffffff" stroke="#000000" points="520.5,-112.5 520.5,-131.5 621.5,-131.5 621.5,-112.5 520.5,-112.5"/>
<text text-anchor="middle" x="571" y="-119.5" font-family="Helvetica,sans-Serif" font-size="10.00" fill="#000000">AdvOp_Godunov.H</text>
</a>
</g>
</g>
<!-- Node26&#45;&gt;Node27 -->
<g id="edge1" class="edge">
<title>Node26&#45;&gt;Node27</title>
<path fill="none" stroke="#191970" d="M616.5782,-270.7893C609.7872,-250.3291 598.8532,-216.9685 590,-188 583.9362,-168.1587 577.3378,-144.7988 573.7329,-131.8696"/>
<polygon fill="#191970" stroke="#191970" points="613.3218,-272.0884 619.8021,-280.4703 619.9632,-269.8767 613.3218,-272.0884"/>
</g>
<!-- Node29 -->
<g id="node4" class="node">
<title>Node29</title>
<g id="a_node4"><a xlink:href="icns__ops_8_h.html" target="_top" xlink:title="icns_ops.H">
<polygon fill="#ffffff" stroke="#000000" points="863,-56.5 863,-75.5 929,-75.5 929,-56.5 863,-56.5"/>
<text text-anchor="middle" x="896" y="-63.5" font-family="Helvetica,sans-Serif" font-size="10.00" fill="#000000">icns_ops.H</text>
</a>
</g>
</g>
<!-- Node26&#45;&gt;Node29 -->
<g id="edge54" class="edge">
<title>Node26&#45;&gt;Node29</title>
<path fill="none" stroke="#191970" d="M642.7462,-273.798C696.0937,-230.0257 841.9434,-110.3542 884.3132,-75.5891"/>
<polygon fill="#191970" stroke="#191970" points="640.2411,-271.326 634.7305,-280.375 644.6813,-276.7376 640.2411,-271.326"/>
</g>
<!-- Node36 -->
<g id="node11" class="node">
<title>Node36</title>
<g id="a_node11"><a xlink:href="_adv_op___m_o_l_8_h.html" target="_top" xlink:title="AdvOp_MOL.H">
<polygon fill="#ffffff" stroke="#000000" points="419.5,-112.5 419.5,-131.5 502.5,-131.5 502.5,-112.5 419.5,-112.5"/>
<text text-anchor="middle" x="461" y="-119.5" font-family="Helvetica,sans-Serif" font-size="10.00" fill="#000000">AdvOp_MOL.H</text>
</a>
</g>
</g>
<!-- Node26&#45;&gt;Node36 -->
<g id="edge10" class="edge">
<title>Node26&#45;&gt;Node36</title>
<path fill="none" stroke="#191970" d="M606.5989,-272.9915C572.9696,-238.1166 497.1272,-159.4652 470.4769,-131.8279"/>
<polygon fill="#191970" stroke="#191970" points="604.3652,-275.7173 613.826,-280.4862 609.4041,-270.8583 604.3652,-275.7173"/>
</g>
<!-- Node37 -->
<g id="node12" class="node">
<title>Node37</title>
<g id="a_node12"><a xlink:href="_b_c_ops_8_h.html" target="_top" xlink:title="BCOps.H">
<polygon fill="#ffffff" stroke="#000000" points="245.5,-112.5 245.5,-131.5 304.5,-131.5 304.5,-112.5 245.5,-112.5"/>
<text text-anchor="middle" x="275" y="-119.5" font-family="Helvetica,sans-Serif" font-size="10.00" fill="#000000">BCOps.H</text>
</a>
</g>
</g>
<!-- Node26&#45;&gt;Node37 -->
<g id="edge17" class="edge">
<title>Node26&#45;&gt;Node37</title>
<path fill="none" stroke="#191970" d="M591.6426,-276.2154C571.3975,-267.2279 544.5397,-255.1404 521,-244 435.4663,-203.5201 334.6739,-152.4656 293.7112,-131.5731"/>
<polygon fill="#191970" stroke="#191970" points="590.4455,-279.513 601.0063,-280.3607 593.2791,-273.1122 590.4455,-279.513"/>
</g>
<!-- Node39 -->
<g id="node14" class="node">
<title>Node39</title>
<g id="a_node14"><a xlink:href="density_8_h.html" target="_top" xlink:title="density.H">
<polygon fill="#ffffff" stroke="#000000" points="90.5,-112.5 90.5,-131.5 149.5,-131.5 149.5,-112.5 90.5,-112.5"/>
<text text-anchor="middle" x="120" y="-119.5" font-family="Helvetica,sans-Serif" font-size="10.00" fill="#000000">density.H</text>
</a>
</g>
</g>
<!-- Node26&#45;&gt;Node39 -->
<g id="edge25" class="edge">
<title>Node26&#45;&gt;Node39</title>
<path fill="none" stroke="#191970" d="M576.1916,-281.1328C535.9389,-273.0194 476.5509,-259.8805 426,-244 316.0564,-209.4614 189.6085,-153.7101 140.7522,-131.5376"/>
<polygon fill="#191970" stroke="#191970" points="575.7589,-284.6153 586.25,-283.1358 577.1261,-277.7501 575.7589,-284.6153"/>
</g>
<!-- Node41 -->
<g id="node16" class="node">
<title>Node41</title>
<g id="a_node16"><a xlink:href="_diffusion_ops_8_h.html" target="_top" xlink:title="DiffusionOps.H">
<polygon fill="#ffffff" stroke="#000000" points="822,-224.5 822,-243.5 906,-243.5 906,-224.5 822,-224.5"/>
<text text-anchor="middle" x="864" y="-231.5" font-family="Helvetica,sans-Serif" font-size="10.00" fill="#000000">DiffusionOps.H</text>
</a>
</g>
</g>
<!-- Node26&#45;&gt;Node41 -->
<g id="edge29" class="edge">
<title>Node26&#45;&gt;Node41</title>
<path fill="none" stroke="#191970" d="M669.5796,-279.1765C714.0731,-268.8378 780.4777,-253.4077 823.011,-243.5244"/>
<polygon fill="#191970" stroke="#191970" points="668.551,-275.8222 659.6027,-281.4948 670.1354,-282.6406 668.551,-275.8222"/>
</g>
<!-- Node43 -->
<g id="node18" class="node">
<title>Node43</title>
<g id="a_node18"><a xlink:href="icns_8_h.html" target="_top" xlink:title="icns.H">
<polygon fill="#ffffff" stroke="#000000" points="974.5,-112.5 974.5,-131.5 1019.5,-131.5 1019.5,-112.5 974.5,-112.5"/>
<text text-anchor="middle" x="997" y="-119.5" font-family="Helvetica,sans-Serif" font-size="10.00" fill="#000000">icns.H</text>
</a>
</g>
</g>
<!-- Node26&#45;&gt;Node43 -->
<g id="edge53" class="edge">
<title>Node26&#45;&gt;Node43</title>
<path fill="none" stroke="#191970" d="M669.7777,-285.8594C740.8917,-279.0254 872.4336,-264.1147 915,-244 948.8714,-227.9941 958.0297,-219.6961 978,-188 989.314,-170.0429 994.0802,-145.1491 995.9343,-131.6464"/>
<polygon fill="#191970" stroke="#191970" points="669.3676,-282.3824 659.7417,-286.8087 670.0269,-289.3513 669.3676,-282.3824"/>
</g>
<!-- Node44 -->
<g id="node19" class="node">
<title>Node44</title>
<g id="a_node19"><a xlink:href="icns__diffusion_8_h.html" target="_top" xlink:title="icns_diffusion.H">
<polygon fill="#ffffff" stroke="#000000" points="1202.5,-56.5 1202.5,-75.5 1289.5,-75.5 1289.5,-56.5 1202.5,-56.5"/>
<text text-anchor="middle" x="1246" y="-63.5" font-family="Helvetica,sans-Serif" font-size="10.00" fill="#000000">icns_diffusion.H</text>
</a>
</g>
</g>
<!-- Node26&#45;&gt;Node44 -->
<g id="edge55" class="edge">
<title>Node26&#45;&gt;Node44</title>
<path fill="none" stroke="#191970" d="M670.0469,-285.5245C746.7545,-277.8521 895.2104,-261.332 945,-244 1038.2994,-211.522 1052.0773,-182.4751 1137,-132 1170.2795,-112.2199 1208.9954,-88.641 1230.1636,-75.7003"/>
<polygon fill="#191970" stroke="#191970" points="669.3234,-282.0789 659.717,-286.5475 670.0133,-289.0448 669.3234,-282.0789"/>
</g>
<!-- Node46 -->
<g id="node21" class="node">
<title>Node46</title>
<g id="a_node21"><a xlink:href="levelset_8_h.html" target="_top" xlink:title="levelset.H">
<polygon fill="#ffffff" stroke="#000000" points="704.5,-112.5 704.5,-131.5 765.5,-131.5 765.5,-112.5 704.5,-112.5"/>
<text text-anchor="middle" x="735" y="-119.5" font-family="Helvetica,sans-Serif" font-size="10.00" fill="#000000">levelset.H</text>
</a>
</g>
</g>
<!-- Node26&#45;&gt;Node46 -->
<g id="edge56" class="edge">
<title>Node26&#45;&gt;Node46</title>
<path fill="none" stroke="#191970" d="M636.5608,-272.2419C642.9055,-263.7857 650.4823,-253.4723 657,-244 685.2156,-202.9934 716.4452,-152.4378 729.1478,-131.6347"/>
<polygon fill="#191970" stroke="#191970" points="633.7309,-270.1815 630.4909,-280.2688 639.3142,-274.4036 633.7309,-270.1815"/>
</g>
<!-- Node48 -->
<g id="node23" class="node">
<title>Node48</title>
<g id="a_node23"><a xlink:href="_s_d_r_8_h.html" target="_top" xlink:title="SDR.H">
<polygon fill="#ffffff" stroke="#000000" points="178.5,-112.5 178.5,-131.5 227.5,-131.5 227.5,-112.5 178.5,-112.5"/>
<text text-anchor="middle" x="203" y="-119.5" font-family="Helvetica,sans-Serif" font-size="10.00" fill="#000000">SDR.H</text>
</a>
</g>
</g>
<!-- Node26&#45;&gt;Node48 -->
<g id="edge57" class="edge">
<title>Node26&#45;&gt;Node48</title>
<path fill="none" stroke="#191970" d="M580.0025,-277.5804C551.1614,-268.9293 512.4726,-256.7026 479,-244 381.0384,-206.8245 267.6848,-153.2728 222.7802,-131.6229"/>
<polygon fill="#191970" stroke="#191970" points="579.1857,-280.989 589.7686,-280.4862 581.182,-274.2796 579.1857,-280.989"/>
</g>
<!-- Node49 -->
<g id="node24" class="node">
<title>Node49</title>
<g id="a_node24"><a xlink:href="temperature_8_h.html" target="_top" xlink:title="temperature.H">
<polygon fill="#ffffff" stroke="#000000" points="322.5,-112.5 322.5,-131.5 401.5,-131.5 401.5,-112.5 322.5,-112.5"/>
<text text-anchor="middle" x="362" y="-119.5" font-family="Helvetica,sans-Serif" font-size="10.00" fill="#000000">temperature.H</text>
</a>
</g>
</g>
<!-- Node26&#45;&gt;Node49 -->
<g id="edge58" class="edge">
<title>Node26&#45;&gt;Node49</title>
<path fill="none" stroke="#191970" d="M599.5654,-274.9157C546.8971,-241.0142 420.3833,-159.5801 376.9417,-131.6177"/>
<polygon fill="#191970" stroke="#191970" points="597.9167,-278.0168 608.2197,-280.4862 601.7054,-272.1307 597.9167,-278.0168"/>
</g>
<!-- Node50 -->
<g id="node25" class="node">
<title>Node50</title>
<g id="a_node25"><a xlink:href="_t_k_e_8_h.html" target="_top" xlink:title="TKE.H">
<polygon fill="#ffffff" stroke="#000000" points="639.5,-112.5 639.5,-131.5 686.5,-131.5 686.5,-112.5 639.5,-112.5"/>
<text text-anchor="middle" x="663" y="-119.5" font-family="Helvetica,sans-Serif" font-size="10.00" fill="#000000">TKE.H</text>
</a>
</g>
</g>
<!-- Node26&#45;&gt;Node50 -->
<g id="edge59" class="edge">
<title>Node26&#45;&gt;Node50</title>
<path fill="none" stroke="#191970" d="M630.5605,-270.7353C638.1987,-250.4656 649.7395,-217.4758 656,-188 660.1654,-168.3882 661.9023,-144.9458 662.5876,-131.9402"/>
<polygon fill="#191970" stroke="#191970" points="627.1908,-269.7472 626.8736,-280.3373 633.7256,-272.2564 627.1908,-269.7472"/>
</g>
<!-- Node28 -->
<g id="node3" class="node">
<title>Node28</title>
<g id="a_node3"><a xlink:href="density_8cpp.html" target="_top" xlink:title="density.cpp">
<polygon fill="#ffffff" stroke="#000000" points="112.5,-.5 112.5,-19.5 179.5,-19.5 179.5,-.5 112.5,-.5"/>
<text text-anchor="middle" x="146" y="-7.5" font-family="Helvetica,sans-Serif" font-size="10.00" fill="#000000">density.cpp</text>
</a>
</g>
</g>
<!-- Node27&#45;&gt;Node28 -->
<g id="edge2" class="edge">
<title>Node27&#45;&gt;Node28</title>
<path fill="none" stroke="#191970" d="M565.596,-102.9C560.2055,-87.5847 550.3301,-66.9085 534,-56 504.7749,-36.4776 268.5725,-18.4161 179.6725,-12.2452"/>
<polygon fill="#191970" stroke="#191970" points="562.2701,-103.991 568.6355,-112.4606 568.9411,-101.8701 562.2701,-103.991"/>
</g>
<!-- Node27&#45;&gt;Node29 -->
<g id="edge3" class="edge">
<title>Node27&#45;&gt;Node29</title>
<path fill="none" stroke="#191970" d="M631.9821,-111.4923C700.3558,-99.711 808.7305,-81.0372 862.8978,-71.7038"/>
<polygon fill="#191970" stroke="#191970" points="631.0417,-108.1027 621.7813,-113.25 632.2304,-115.001 631.0417,-108.1027"/>
</g>
<!-- Node32 -->
<g id="node7" class="node">
<title>Node32</title>
<g id="a_node7"><a xlink:href="levelset_8cpp.html" target="_top" xlink:title="levelset.cpp">
<polygon fill="#ffffff" stroke="#000000" points="556.5,-.5 556.5,-19.5 625.5,-19.5 625.5,-.5 556.5,-.5"/>
<text text-anchor="middle" x="591" y="-7.5" font-family="Helvetica,sans-Serif" font-size="10.00" fill="#000000">levelset.cpp</text>
</a>
</g>
</g>
<!-- Node27&#45;&gt;Node32 -->
<g id="edge6" class="edge">
<title>Node27&#45;&gt;Node32</title>
<path fill="none" stroke="#191970" d="M574.4645,-102.5987C578.7923,-78.363 586.0259,-37.8551 589.2991,-19.5249"/>
<polygon fill="#191970" stroke="#191970" points="571.0177,-101.9914 572.7052,-112.4509 577.9087,-103.222 571.0177,-101.9914"/>
</g>
<!-- Node33 -->
<g id="node8" class="node">
<title>Node33</title>
<g id="a_node8"><a xlink:href="_s_d_r_8cpp.html" target="_top" xlink:title="SDR.cpp">
<polygon fill="#ffffff" stroke="#000000" points="212.5,-56.5 212.5,-75.5 269.5,-75.5 269.5,-56.5 212.5,-56.5"/>
<text text-anchor="middle" x="241" y="-63.5" font-family="Helvetica,sans-Serif" font-size="10.00" fill="#000000">SDR.cpp</text>
</a>
</g>
</g>
<!-- Node27&#45;&gt;Node33 -->
<g id="edge7" class="edge">
<title>Node27&#45;&gt;Node33</title>
<path fill="none" stroke="#191970" d="M510.2612,-111.911C405.8354,-95.5047 377.4088,-97.0458 278,-76 275.2659,-75.4212 272.433,-74.7631 269.6073,-74.0674"/>
<polygon fill="#191970" stroke="#191970" points="509.8425,-115.3883 520.2679,-113.5012 510.9412,-108.4751 509.8425,-115.3883"/>
</g>
<!-- Node34 -->
<g id="node9" class="node">
<title>Node34</title>
<g id="a_node9"><a xlink:href="temperature_8cpp.html" target="_top" xlink:title="temperature.cpp">
<polygon fill="#ffffff" stroke="#000000" points="287.5,-56.5 287.5,-75.5 374.5,-75.5 374.5,-56.5 287.5,-56.5"/>
<text text-anchor="middle" x="331" y="-63.5" font-family="Helvetica,sans-Serif" font-size="10.00" fill="#000000">temperature.cpp</text>
</a>
</g>
</g>
<!-- Node27&#45;&gt;Node34 -->
<g id="edge8" class="edge">
<title>Node27&#45;&gt;Node34</title>
<path fill="none" stroke="#191970" d="M520.0534,-110.1125C475.866,-99.8021 412.7426,-85.0733 371.8157,-75.5237"/>
<polygon fill="#191970" stroke="#191970" points="519.4815,-113.573 530.0152,-112.4369 521.0721,-106.7561 519.4815,-113.573"/>
</g>
<!-- Node35 -->
<g id="node10" class="node">
<title>Node35</title>
<g id="a_node10"><a xlink:href="_t_k_e_8cpp.html" target="_top" xlink:title="TKE.cpp">
<polygon fill="#ffffff" stroke="#000000" points="469.5,-56.5 469.5,-75.5 524.5,-75.5 524.5,-56.5 469.5,-56.5"/>
<text text-anchor="middle" x="497" y="-63.5" font-family="Helvetica,sans-Serif" font-size="10.00" fill="#000000">TKE.cpp</text>
</a>
</g>
</g>
<!-- Node27&#45;&gt;Node35 -->
<g id="edge9" class="edge">
<title>Node27&#45;&gt;Node35</title>
<path fill="none" stroke="#191970" d="M550.1343,-106.2097C537.1375,-96.3743 520.8378,-84.0394 509.7421,-75.6427"/>
<polygon fill="#191970" stroke="#191970" points="548.024,-109.002 558.1102,-112.2455 552.2482,-103.4201 548.024,-109.002"/>
</g>
<!-- Node30 -->
<g id="node5" class="node">
<title>Node30</title>
<g id="a_node5"><a xlink:href="icns_8cpp.html" target="_top" xlink:title="icns.cpp">
<polygon fill="#ffffff" stroke="#000000" points="1051.5,-.5 1051.5,-19.5 1104.5,-19.5 1104.5,-.5 1051.5,-.5"/>
<text text-anchor="middle" x="1078" y="-7.5" font-family="Helvetica,sans-Serif" font-size="10.00" fill="#000000">icns.cpp</text>
</a>
</g>
</g>
<!-- Node29&#45;&gt;Node30 -->
<g id="edge4" class="edge">
<title>Node29&#45;&gt;Node30</title>
<path fill="none" stroke="#191970" d="M937.1881,-53.3267C972.1285,-42.5758 1021.2296,-27.4678 1051.2614,-18.2273"/>
<polygon fill="#191970" stroke="#191970" points="935.8154,-50.0871 927.2869,-56.3733 937.874,-56.7776 935.8154,-50.0871"/>
</g>
<!-- Node31 -->
<g id="node6" class="node">
<title>Node31</title>
<g id="a_node6"><a xlink:href="icns__ops_8cpp.html" target="_top" xlink:title="icns_ops.cpp">
<polygon fill="#ffffff" stroke="#000000" points="859,-.5 859,-19.5 933,-19.5 933,-.5 859,-.5"/>
<text text-anchor="middle" x="896" y="-7.5" font-family="Helvetica,sans-Serif" font-size="10.00" fill="#000000">icns_ops.cpp</text>
</a>
</g>
</g>
<!-- Node29&#45;&gt;Node31 -->
<g id="edge5" class="edge">
<title>Node29&#45;&gt;Node31</title>
<path fill="none" stroke="#191970" d="M896,-46.1575C896,-37.155 896,-26.9199 896,-19.6427"/>
<polygon fill="#191970" stroke="#191970" points="892.5001,-46.2455 896,-56.2455 899.5001,-46.2456 892.5001,-46.2455"/>
</g>
<!-- Node36&#45;&gt;Node28 -->
<g id="edge11" class="edge">
<title>Node36&#45;&gt;Node28</title>
<path fill="none" stroke="#191970" d="M445.327,-104.41C430.7248,-89.1715 407.5641,-67.7746 383,-56 347.4719,-38.97 236.31,-22.1447 179.762,-14.4078"/>
<polygon fill="#191970" stroke="#191970" points="443.1417,-107.2 452.5133,-112.142 448.2691,-102.4344 443.1417,-107.2"/>
</g>
<!-- Node36&#45;&gt;Node29 -->
<g id="edge12" class="edge">
<title>Node36&#45;&gt;Node29</title>
<path fill="none" stroke="#191970" d="M512.5836,-111.8383C647.4899,-90.6758 683.6759,-92.0793 816,-76 831.4232,-74.1259 848.5119,-71.9969 862.9221,-70.1865"/>
<polygon fill="#191970" stroke="#191970" points="512.0277,-108.3826 502.697,-113.4015 513.121,-115.2967 512.0277,-108.3826"/>
</g>
<!-- Node36&#45;&gt;Node32 -->
<g id="edge13" class="edge">
<title>Node36&#45;&gt;Node32</title>
<path fill="none" stroke="#191970" d="M455.0774,-102.7194C451.9557,-88.5135 450.4955,-69.4109 460,-56 471.3593,-39.972 521.362,-25.7057 556.1931,-17.4557"/>
<polygon fill="#191970" stroke="#191970" points="451.7083,-103.6703 457.6343,-112.4529 458.4786,-101.8917 451.7083,-103.6703"/>
</g>
<!-- Node36&#45;&gt;Node33 -->
<g id="edge14" class="edge">
<title>Node36&#45;&gt;Node33</title>
<path fill="none" stroke="#191970" d="M412.0455,-109.9442C375.1551,-100.7988 323.3455,-87.826 278,-76 275.2957,-75.2947 272.4829,-74.5517 269.6699,-73.8023"/>
<polygon fill="#191970" stroke="#191970" points="411.489,-113.4121 422.0371,-112.4181 413.1714,-106.6172 411.489,-113.4121"/>
</g>
<!-- Node36&#45;&gt;Node34 -->
<g id="edge15" class="edge">
<title>Node36&#45;&gt;Node34</title>
<path fill="none" stroke="#191970" d="M429.3898,-108.3833C405.7465,-98.1985 374.0124,-84.5284 353.0562,-75.5011"/>
<polygon fill="#191970" stroke="#191970" points="428.0834,-111.6314 438.6522,-112.3733 430.8528,-105.2025 428.0834,-111.6314"/>
</g>
<!-- Node36&#45;&gt;Node35 -->
<g id="edge16" class="edge">
<title>Node36&#45;&gt;Node35</title>
<path fill="none" stroke="#191970" d="M472.8096,-103.6296C478.8144,-94.2887 485.8659,-83.3197 490.8011,-75.6427"/>
<polygon fill="#191970" stroke="#191970" points="469.7342,-101.9411 467.2707,-112.2455 475.6225,-105.7264 469.7342,-101.9411"/>
</g>
<!-- Node37&#45;&gt;Node28 -->
<g id="edge18" class="edge">
<title>Node37&#45;&gt;Node28</title>
<path fill="none" stroke="#191970" d="M237.0036,-108.9543C211.0553,-99.3911 179.6878,-86.3299 170,-76 154.9872,-59.992 149.2209,-33.8659 147.1203,-19.7643"/>
<polygon fill="#191970" stroke="#191970" points="236.0324,-112.3248 246.6267,-112.4351 238.4136,-105.7423 236.0324,-112.3248"/>
</g>
<!-- Node37&#45;&gt;Node32 -->
<g id="edge21" class="edge">
<title>Node37&#45;&gt;Node32</title>
<path fill="none" stroke="#191970" d="M241.4854,-108.1789C215.1799,-95.4042 185.6715,-75.5043 203,-56 226.315,-29.7575 465.6089,-15.8782 556.3595,-11.5264"/>
<polygon fill="#191970" stroke="#191970" points="240.0294,-111.3617 250.5744,-112.388 242.971,-105.0097 240.0294,-111.3617"/>
</g>
<!-- Node37&#45;&gt;Node33 -->
<g id="edge22" class="edge">
<title>Node37&#45;&gt;Node33</title>
<path fill="none" stroke="#191970" d="M263.8465,-103.6296C258.1753,-94.2887 251.5155,-83.3197 246.8545,-75.6427"/>
<polygon fill="#191970" stroke="#191970" points="260.8961,-105.5141 269.0777,-112.2455 266.8796,-101.8812 260.8961,-105.5141"/>
</g>
<!-- Node37&#45;&gt;Node34 -->
<g id="edge23" class="edge">
<title>Node37&#45;&gt;Node34</title>
<path fill="none" stroke="#191970" d="M291.9249,-105.0751C301.5598,-95.4402 313.2804,-83.7196 321.3573,-75.6427"/>
<polygon fill="#191970" stroke="#191970" points="289.3507,-102.6996 284.7545,-112.2455 294.3004,-107.6493 289.3507,-102.6996"/>
</g>
<!-- Node37&#45;&gt;Node35 -->
<g id="edge24" class="edge">
<title>Node37&#45;&gt;Node35</title>
<path fill="none" stroke="#191970" d="M314.9107,-111.5283C375.0961,-96.1261 435.083,-81.2514 469.2296,-72.8293"/>
<polygon fill="#191970" stroke="#191970" points="313.6792,-108.2307 304.8617,-114.1045 315.4176,-115.0114 313.6792,-108.2307"/>
</g>
<!-- Node38 -->
<g id="node13" class="node">
<title>Node38</title>
<g id="a_node13"><a xlink:href="icns__bcop_8_h.html" target="_top" xlink:title="icns_bcop.H">
<polygon fill="#ffffff" stroke="#000000" points="947.5,-56.5 947.5,-75.5 1018.5,-75.5 1018.5,-56.5 947.5,-56.5"/>
<text text-anchor="middle" x="983" y="-63.5" font-family="Helvetica,sans-Serif" font-size="10.00" fill="#000000">icns_bcop.H</text>
</a>
</g>
</g>
<!-- Node37&#45;&gt;Node38 -->
<g id="edge19" class="edge">
<title>Node37&#45;&gt;Node38</title>
<path fill="none" stroke="#191970" d="M315.024,-111.9553C589.6489,-69.4863 665.775,-113.8358 938,-76 941.0122,-75.5813 944.1217,-75.0666 947.2332,-74.4936"/>
<polygon fill="#191970" stroke="#191970" points="314.0862,-108.5596 304.7509,-113.5698 315.1731,-115.4747 314.0862,-108.5596"/>
</g>
<!-- Node38&#45;&gt;Node30 -->
<g id="edge20" class="edge">
<title>Node38&#45;&gt;Node30</title>
<path fill="none" stroke="#191970" d="M1008.3676,-51.0465C1025.271,-41.0824 1046.9904,-28.2794 1061.6419,-19.6427"/>
<polygon fill="#191970" stroke="#191970" points="1006.3851,-48.1522 999.5477,-56.2455 1009.9398,-54.1825 1006.3851,-48.1522"/>
</g>
<!-- Node39&#45;&gt;Node28 -->
<g id="edge26" class="edge">
<title>Node39&#45;&gt;Node28</title>
<path fill="none" stroke="#191970" d="M123.0477,-101.8221C125.1836,-88.6894 128.3103,-71.2327 132,-56 135.0657,-43.3435 139.5938,-29.0305 142.6636,-19.7798"/>
<polygon fill="#191970" stroke="#191970" points="119.5298,-101.6635 121.4365,-112.0853 126.4451,-102.7492 119.5298,-101.6635"/>
</g>
<!-- Node40 -->
<g id="node15" class="node">
<title>Node40</title>
<g id="a_node15"><a xlink:href="density__ops_8_h.html" target="_top" xlink:title="density_ops.H">
<polygon fill="#ffffff" stroke="#000000" points="0,-56.5 0,-75.5 80,-75.5 80,-56.5 0,-56.5"/>
<text text-anchor="middle" x="40" y="-63.5" font-family="Helvetica,sans-Serif" font-size="10.00" fill="#000000">density_ops.H</text>
</a>
</g>
</g>
<!-- Node39&#45;&gt;Node40 -->
<g id="edge27" class="edge">
<title>Node39&#45;&gt;Node40</title>
<path fill="none" stroke="#191970" d="M97.8429,-106.49C83.728,-96.6096 65.8849,-84.1194 53.7752,-75.6427"/>
<polygon fill="#191970" stroke="#191970" points="95.8656,-109.3782 106.0651,-112.2455 99.8799,-103.6436 95.8656,-109.3782"/>
</g>
<!-- Node40&#45;&gt;Node28 -->
<g id="edge28" class="edge">
<title>Node40&#45;&gt;Node28</title>
<path fill="none" stroke="#191970" d="M67.5222,-51.46C86.4908,-41.4388 111.1727,-28.3993 127.7478,-19.6427"/>
<polygon fill="#191970" stroke="#191970" points="65.6708,-48.4796 58.4638,-56.2455 68.9407,-54.669 65.6708,-48.4796"/>
</g>
<!-- Node41&#45;&gt;Node29 -->
<g id="edge51" class="edge">
<title>Node41&#45;&gt;Node29</title>
<path fill="none" stroke="#191970" d="M864.1414,-213.8276C864.4988,-200.6971 865.4744,-183.2409 868,-168 873.7341,-133.3977 886.4982,-93.6496 892.6103,-75.6958"/>
<polygon fill="#191970" stroke="#191970" points="860.6375,-214.0292 863.9632,-224.0886 867.6364,-214.1509 860.6375,-214.0292"/>
</g>
<!-- Node42 -->
<g id="node17" class="node">
<title>Node42</title>
<g id="a_node17"><a xlink:href="_p_d_e_8_h.html" target="_top" xlink:title="PDE.H">
<polygon fill="#ffffff" stroke="#000000" points="599,-168.5 599,-187.5 647,-187.5 647,-168.5 599,-168.5"/>
<text text-anchor="middle" x="623" y="-175.5" font-family="Helvetica,sans-Serif" font-size="10.00" fill="#000000">PDE.H</text>
</a>
</g>
</g>
<!-- Node41&#45;&gt;Node42 -->
<g id="edge30" class="edge">
<title>Node41&#45;&gt;Node42</title>
<path fill="none" stroke="#191970" d="M812.9923,-222.1476C761.9532,-210.2879 685.644,-192.5563 647.1106,-183.6025"/>
<polygon fill="#191970" stroke="#191970" points="812.3118,-225.5826 822.8445,-224.4369 813.8962,-218.7643 812.3118,-225.5826"/>
</g>
<!-- Node41&#45;&gt;Node44 -->
<g id="edge52" class="edge">
<title>Node41&#45;&gt;Node44</title>
<path fill="none" stroke="#191970" d="M898.1357,-220.6768C920.8691,-211.6934 951.3483,-199.4369 978,-188 1071.2534,-147.9827 1181.021,-96.6734 1225.6261,-75.6431"/>
<polygon fill="#191970" stroke="#191970" points="896.6113,-217.5154 888.5896,-224.4366 899.1766,-224.0285 896.6113,-217.5154"/>
</g>
<!-- Node52 -->
<g id="node27" class="node">
<title>Node52</title>
<g id="a_node27"><a xlink:href="_diffusion_ops_8cpp.html" target="_top" xlink:title="DiffusionOps.cpp">
<polygon fill="#ffffff" stroke="#000000" points="877,-168.5 877,-187.5 969,-187.5 969,-168.5 877,-168.5"/>
<text text-anchor="middle" x="923" y="-175.5" font-family="Helvetica,sans-Serif" font-size="10.00" fill="#000000">DiffusionOps.cpp</text>
</a>
</g>
</g>
<!-- Node41&#45;&gt;Node52 -->
<g id="edge50" class="edge">
<title>Node41&#45;&gt;Node52</title>
<path fill="none" stroke="#191970" d="M881.5307,-217.3607C891.7377,-207.6727 904.2469,-195.7995 912.8408,-187.6427"/>
<polygon fill="#191970" stroke="#191970" points="879.1206,-214.8227 874.277,-224.2455 883.9396,-219.8998 879.1206,-214.8227"/>
</g>
<!-- Node42&#45;&gt;Node39 -->
<g id="edge31" class="edge">
<title>Node42&#45;&gt;Node39</title>
<path fill="none" stroke="#191970" d="M588.367,-175.6825C512.2241,-170.3268 324.6422,-155.7057 169,-132 162.7342,-131.0457 156.0575,-129.8225 149.7137,-128.5613"/>
<polygon fill="#191970" stroke="#191970" points="588.5571,-179.2041 598.7756,-176.4055 589.0421,-172.2209 588.5571,-179.2041"/>
</g>
<!-- Node42&#45;&gt;Node43 -->
<g id="edge32" class="edge">
<title>Node42&#45;&gt;Node43</title>
<path fill="none" stroke="#191970" d="M657.1652,-172.8844C732.4421,-161.6129 910.9255,-134.8882 974.2403,-125.4079"/>
<polygon fill="#191970" stroke="#191970" points="656.6225,-169.4265 647.251,-174.3688 657.6591,-176.3493 656.6225,-169.4265"/>
</g>
<!-- Node42&#45;&gt;Node46 -->
<g id="edge39" class="edge">
<title>Node42&#45;&gt;Node46</title>
<path fill="none" stroke="#191970" d="M651.3263,-163.8368C671.5721,-153.7139 698.2642,-140.3679 715.9978,-131.5011"/>
<polygon fill="#191970" stroke="#191970" points="649.6325,-160.7706 642.2535,-168.3733 652.763,-167.0316 649.6325,-160.7706"/>
</g>
<!-- Node42&#45;&gt;Node48 -->
<g id="edge43" class="edge">
<title>Node42&#45;&gt;Node48</title>
<path fill="none" stroke="#191970" d="M588.6256,-175.9512C520.6635,-171.4536 364.5551,-158.8998 236,-132 233.3046,-131.436 230.5124,-130.7518 227.7452,-130.0088"/>
<polygon fill="#191970" stroke="#191970" points="588.554,-179.4537 598.7586,-176.6048 589.0046,-172.4682 588.554,-179.4537"/>
</g>
<!-- Node42&#45;&gt;Node49 -->
<g id="edge45" class="edge">
<title>Node42&#45;&gt;Node49</title>
<path fill="none" stroke="#191970" d="M588.9707,-170.6987C540.7427,-160.3509 452.7039,-141.4614 401.6048,-130.4976"/>
<polygon fill="#191970" stroke="#191970" points="588.4018,-174.1562 598.9136,-172.832 589.8704,-167.312 588.4018,-174.1562"/>
</g>
<!-- Node42&#45;&gt;Node50 -->
<g id="edge47" class="edge">
<title>Node42&#45;&gt;Node50</title>
<path fill="none" stroke="#191970" d="M635.9136,-159.9209C642.6303,-150.5176 650.5717,-139.3997 656.1124,-131.6427"/>
<polygon fill="#191970" stroke="#191970" points="632.9318,-158.0738 629.9675,-168.2455 638.628,-162.1425 632.9318,-158.0738"/>
</g>
<!-- Node43&#45;&gt;Node29 -->
<g id="edge34" class="edge">
<title>Node43&#45;&gt;Node29</title>
<path fill="none" stroke="#191970" d="M970.5281,-107.3225C952.4875,-97.3198 929.1123,-84.3593 913.3913,-75.6427"/>
<polygon fill="#191970" stroke="#191970" points="968.9643,-110.4574 979.4071,-112.2455 972.3587,-104.3354 968.9643,-110.4574"/>
</g>
<!-- Node43&#45;&gt;Node30 -->
<g id="edge33" class="edge">
<title>Node43&#45;&gt;Node30</title>
<path fill="none" stroke="#191970" d="M1029.497,-117.1772C1071.1893,-110.2486 1139.9433,-96.0655 1155,-76 1172.9119,-52.1296 1133.3486,-30.9352 1104.5674,-19.3376"/>
<polygon fill="#191970" stroke="#191970" points="1028.8462,-113.7368 1019.5295,-118.7816 1029.9586,-120.6479 1028.8462,-113.7368"/>
</g>
<!-- Node43&#45;&gt;Node38 -->
<g id="edge37" class="edge">
<title>Node43&#45;&gt;Node38</title>
<path fill="none" stroke="#191970" d="M992.1135,-102.4538C989.8451,-93.3803 987.25,-82.9998 985.4107,-75.6427"/>
<polygon fill="#191970" stroke="#191970" points="988.7405,-103.393 994.5614,-112.2455 995.5315,-101.6952 988.7405,-103.393"/>
</g>
<!-- Node43&#45;&gt;Node44 -->
<g id="edge35" class="edge">
<title>Node43&#45;&gt;Node44</title>
<path fill="none" stroke="#191970" d="M1029.5398,-114.6818C1074.1271,-104.6541 1154.2802,-86.6278 1203.5434,-75.5485"/>
<polygon fill="#191970" stroke="#191970" points="1028.5246,-111.3226 1019.5363,-116.9316 1030.0606,-118.152 1028.5246,-111.3226"/>
</g>
<!-- Node45 -->
<g id="node20" class="node">
<title>Node45</title>
<g id="a_node20"><a xlink:href="_power_law_profile_8cpp.html" target="_top" xlink:title="PowerLawProfile.cpp">
<polygon fill="#ffffff" stroke="#000000" points="1036.5,-56.5 1036.5,-75.5 1145.5,-75.5 1145.5,-56.5 1036.5,-56.5"/>
<text text-anchor="middle" x="1091" y="-63.5" font-family="Helvetica,sans-Serif" font-size="10.00" fill="#000000">PowerLawProfile.cpp</text>
</a>
</g>
</g>
<!-- Node43&#45;&gt;Node45 -->
<g id="edge38" class="edge">
<title>Node43&#45;&gt;Node45</title>
<path fill="none" stroke="#191970" d="M1022.1005,-107.0465C1038.826,-97.0824 1060.3168,-84.2794 1074.8141,-75.6427"/>
<polygon fill="#191970" stroke="#191970" points="1020.1732,-104.1206 1013.3736,-112.2455 1023.7559,-110.1343 1020.1732,-104.1206"/>
</g>
<!-- Node44&#45;&gt;Node30 -->
<g id="edge36" class="edge">
<title>Node44&#45;&gt;Node30</title>
<path fill="none" stroke="#191970" d="M1207.3593,-53.1198C1175.8729,-42.6243 1132.2413,-28.0804 1104.5672,-18.8557"/>
<polygon fill="#191970" stroke="#191970" points="1206.5261,-56.5313 1217.1198,-56.3733 1208.7398,-49.8905 1206.5261,-56.5313"/>
</g>
<!-- Node46&#45;&gt;Node32 -->
<g id="edge40" class="edge">
<title>Node46&#45;&gt;Node32</title>
<path fill="none" stroke="#191970" d="M773.2232,-108.6011C801.8662,-96.4672 833.3646,-77.2739 816,-56 792.3642,-27.043 682.6517,-15.8272 625.6307,-11.8982"/>
<polygon fill="#191970" stroke="#191970" points="771.6625,-105.4564 763.6936,-112.4383 774.2772,-111.9497 771.6625,-105.4564"/>
</g>
<!-- Node47 -->
<g id="node22" class="node">
<title>Node47</title>
<g id="a_node22"><a xlink:href="levelset__ops_8_h.html" target="_top" xlink:title="levelset_ops.H">
<polygon fill="#ffffff" stroke="#000000" points="725,-56.5 725,-75.5 807,-75.5 807,-56.5 725,-56.5"/>
<text text-anchor="middle" x="766" y="-63.5" font-family="Helvetica,sans-Serif" font-size="10.00" fill="#000000">levelset_ops.H</text>
</a>
</g>
</g>
<!-- Node46&#45;&gt;Node47 -->
<g id="edge41" class="edge">
<title>Node46&#45;&gt;Node47</title>
<path fill="none" stroke="#191970" d="M745.3312,-103.3372C750.4665,-94.0605 756.4566,-83.2398 760.6621,-75.6427"/>
<polygon fill="#191970" stroke="#191970" points="742.1809,-101.8015 740.3998,-112.2455 748.3051,-105.1917 742.1809,-101.8015"/>
</g>
<!-- Node47&#45;&gt;Node32 -->
<g id="edge42" class="edge">
<title>Node47&#45;&gt;Node32</title>
<path fill="none" stroke="#191970" d="M726.386,-53.3235C694.2925,-43.0536 649.7789,-28.8093 620.691,-19.5011"/>
<polygon fill="#191970" stroke="#191970" points="725.3254,-56.6589 735.9164,-56.3733 727.4589,-49.9919 725.3254,-56.6589"/>
</g>
<!-- Node48&#45;&gt;Node33 -->
<g id="edge44" class="edge">
<title>Node48&#45;&gt;Node33</title>
<path fill="none" stroke="#191970" d="M215.2679,-103.9209C221.6488,-94.5176 229.1931,-83.3997 234.4568,-75.6427"/>
<polygon fill="#191970" stroke="#191970" points="212.338,-102.0055 209.6191,-112.2455 218.1303,-105.936 212.338,-102.0055"/>
</g>
<!-- Node49&#45;&gt;Node34 -->
<g id="edge46" class="edge">
<title>Node49&#45;&gt;Node34</title>
<path fill="none" stroke="#191970" d="M351.6688,-103.3372C346.5335,-94.0605 340.5434,-83.2398 336.3379,-75.6427"/>
<polygon fill="#191970" stroke="#191970" points="348.6949,-105.1917 356.6002,-112.2455 354.8191,-101.8015 348.6949,-105.1917"/>
</g>
<!-- Node50&#45;&gt;Node35 -->
<g id="edge48" class="edge">
<title>Node50&#45;&gt;Node35</title>
<path fill="none" stroke="#191970" d="M629.3481,-110.6475C598.5057,-100.2429 553.389,-85.0228 524.6124,-75.315"/>
<polygon fill="#191970" stroke="#191970" points="628.6221,-114.0964 639.2162,-113.9766 630.8597,-107.4636 628.6221,-114.0964"/>
</g>
<!-- Node51 -->
<g id="node26" class="node">
<title>Node51</title>
<g id="a_node26"><a xlink:href="_one_eq_ksgs_8cpp.html" target="_top" xlink:title="OneEqKsgs.cpp">
<polygon fill="#ffffff" stroke="#000000" points="619,-56.5 619,-75.5 707,-75.5 707,-56.5 619,-56.5"/>
<text text-anchor="middle" x="663" y="-63.5" font-family="Helvetica,sans-Serif" font-size="10.00" fill="#000000">OneEqKsgs.cpp</text>
</a>
</g>
</g>
<!-- Node50&#45;&gt;Node51 -->
<g id="edge49" class="edge">
<title>Node50&#45;&gt;Node51</title>
<path fill="none" stroke="#191970" d="M663,-102.1575C663,-93.155 663,-82.9199 663,-75.6427"/>
<polygon fill="#191970" stroke="#191970" points="659.5001,-102.2455 663,-112.2455 666.5001,-102.2456 659.5001,-102.2455"/>
</g>
</g>
</svg>
