<?xml version="1.0" encoding="UTF-8" standalone="no"?>
<!DOCTYPE svg PUBLIC "-//W3C//DTD SVG 1.1//EN"
 "http://www.w3.org/Graphics/SVG/1.1/DTD/svg11.dtd">
<!-- Generated by graphviz version 2.40.1 (20161225.0304)
 -->
<!-- Title: PDEHelpers.H Pages: 1 -->
<svg width="2363pt" height="263pt"
 viewBox="0.00 0.00 2363.21 263.00" xmlns="http://www.w3.org/2000/svg" xmlns:xlink="http://www.w3.org/1999/xlink">
<g id="graph0" class="graph" transform="scale(1 1) rotate(0) translate(4 259)">
<title>PDEHelpers.H</title>
<polygon fill="#ffffff" stroke="transparent" points="-4,4 -4,-259 2359.2078,-259 2359.2078,4 -4,4"/>
<!-- Node0 -->
<g id="node1" class="node">
<title>Node0</title>
<polygon fill="#bfbfbf" stroke="#000000" points="1466.2078,-235.5 1466.2078,-254.5 1548.2078,-254.5 1548.2078,-235.5 1466.2078,-235.5"/>
<text text-anchor="middle" x="1507.2078" y="-242.5" font-family="Helvetica,sans-Serif" font-size="10.00" fill="#000000">PDEHelpers.H</text>
</g>
<!-- Node1 -->
<g id="node2" class="node">
<title>Node1</title>
<polygon fill="#ffffff" stroke="#bfbfbf" points="165.7078,-.5 165.7078,-19.5 206.7078,-19.5 206.7078,-.5 165.7078,-.5"/>
<text text-anchor="middle" x="186.2078" y="-7.5" font-family="Helvetica,sans-Serif" font-size="10.00" fill="#000000">string</text>
</g>
<!-- Node0&#45;&gt;Node1 -->
<g id="edge1" class="edge">
<title>Node0&#45;&gt;Node1</title>
<path fill="none" stroke="#191970" d="M1466.193,-243.9345C1242.5514,-237.8463 175.7063,-205.127 50.2078,-132 16.8631,-112.5703 -15.4219,-86.5126 8.2078,-56 26.1119,-32.8808 109.5715,-19.2914 155.5744,-13.4335"/>
<polygon fill="#191970" stroke="#191970" points="156.0946,-16.896 165.5941,-12.2045 155.2423,-9.9481 156.0946,-16.896"/>
</g>
<!-- Node2 -->
<g id="node3" class="node">
<title>Node2</title>
<g id="a_node3"><a xlink:href="_p_d_e_fields_8_h.html" target="_top" xlink:title="amr&#45;wind/equation_systems\l/PDEFields.H">
<polygon fill="#ffffff" stroke="#000000" points="1900.7078,-168.5 1900.7078,-198.5 2039.7078,-198.5 2039.7078,-168.5 1900.7078,-168.5"/>
<text text-anchor="start" x="1908.7078" y="-186.5" font-family="Helvetica,sans-Serif" font-size="10.00" fill="#000000">amr&#45;wind/equation_systems</text>
<text text-anchor="middle" x="1970.2078" y="-175.5" font-family="Helvetica,sans-Serif" font-size="10.00" fill="#000000">/PDEFields.H</text>
</a>
</g>
</g>
<!-- Node0&#45;&gt;Node2 -->
<g id="edge2" class="edge">
<title>Node0&#45;&gt;Node2</title>
<path fill="none" stroke="#191970" d="M1548.296,-239.5423C1625.0031,-229.3533 1791.2009,-207.2774 1890.577,-194.0773"/>
<polygon fill="#191970" stroke="#191970" points="1891.1209,-197.5359 1900.573,-192.7495 1890.1992,-190.5968 1891.1209,-197.5359"/>
</g>
<!-- Node4 -->
<g id="node5" class="node">
<title>Node4</title>
<g id="a_node5"><a xlink:href="_sim_time_8_h.html" target="_top" xlink:title="amr&#45;wind/core/SimTime.H">
<polygon fill="#ffffff" stroke="#000000" points="1933.7078,-112.5 1933.7078,-131.5 2064.7078,-131.5 2064.7078,-112.5 1933.7078,-112.5"/>
<text text-anchor="middle" x="1999.2078" y="-119.5" font-family="Helvetica,sans-Serif" font-size="10.00" fill="#000000">amr&#45;wind/core/SimTime.H</text>
</a>
</g>
</g>
<!-- Node0&#45;&gt;Node4 -->
<g id="edge4" class="edge">
<title>Node0&#45;&gt;Node4</title>
<path fill="none" stroke="#191970" d="M1545.4048,-235.4507C1634.046,-213.2904 1853.5796,-158.4071 1951.1461,-134.0154"/>
<polygon fill="#191970" stroke="#191970" points="1952.1826,-137.3641 1961.0351,-131.5432 1950.4848,-130.5731 1952.1826,-137.3641"/>
</g>
<!-- Node8 -->
<g id="node9" class="node">
<title>Node8</title>
<g id="a_node9"><a xlink:href="_field_repo_8_h.html" target="_top" xlink:title="amr&#45;wind/core/FieldRepo.H">
<polygon fill="#ffffff" stroke="#000000" points="580.2078,-174 580.2078,-193 716.2078,-193 716.2078,-174 580.2078,-174"/>
<text text-anchor="middle" x="648.2078" y="-181" font-family="Helvetica,sans-Serif" font-size="10.00" fill="#000000">amr&#45;wind/core/FieldRepo.H</text>
</a>
</g>
</g>
<!-- Node0&#45;&gt;Node8 -->
<g id="edge8" class="edge">
<title>Node0&#45;&gt;Node8</title>
<path fill="none" stroke="#191970" d="M1466.0658,-242.0544C1331.6219,-232.4289 903.7301,-201.7941 726.3758,-189.0964"/>
<polygon fill="#191970" stroke="#191970" points="726.5588,-185.6007 716.3343,-188.3775 726.0588,-192.5828 726.5588,-185.6007"/>
</g>
<!-- Node26 -->
<g id="node27" class="node">
<title>Node26</title>
<g id="a_node27"><a xlink:href="_field_fill_patch_ops_8_h.html" target="_top" xlink:title="amr&#45;wind/core/FieldFillPatch\lOps.H">
<polygon fill="#ffffff" stroke="#000000" points="1388.2078,-168.5 1388.2078,-198.5 1528.2078,-198.5 1528.2078,-168.5 1388.2078,-168.5"/>
<text text-anchor="start" x="1396.2078" y="-186.5" font-family="Helvetica,sans-Serif" font-size="10.00" fill="#000000">amr&#45;wind/core/FieldFillPatch</text>
<text text-anchor="middle" x="1458.2078" y="-175.5" font-family="Helvetica,sans-Serif" font-size="10.00" fill="#000000">Ops.H</text>
</a>
</g>
</g>
<!-- Node0&#45;&gt;Node26 -->
<g id="edge44" class="edge">
<title>Node0&#45;&gt;Node26</title>
<path fill="none" stroke="#191970" d="M1499.5515,-235.3906C1493.4112,-227.6839 1484.535,-216.5434 1476.5799,-206.5589"/>
<polygon fill="#191970" stroke="#191970" points="1479.1634,-204.1847 1470.1945,-198.5446 1473.6886,-208.5467 1479.1634,-204.1847"/>
</g>
<!-- Node28 -->
<g id="node29" class="node">
<title>Node28</title>
<g id="a_node29"><a xlink:href="_field_b_c_ops_8_h.html" target="_top" xlink:title="amr&#45;wind/core/FieldBCOps.H">
<polygon fill="#ffffff" stroke="#000000" points="1623.7078,-112.5 1623.7078,-131.5 1768.7078,-131.5 1768.7078,-112.5 1623.7078,-112.5"/>
<text text-anchor="middle" x="1696.2078" y="-119.5" font-family="Helvetica,sans-Serif" font-size="10.00" fill="#000000">amr&#45;wind/core/FieldBCOps.H</text>
</a>
</g>
</g>
<!-- Node0&#45;&gt;Node28 -->
<g id="edge54" class="edge">
<title>Node0&#45;&gt;Node28</title>
<path fill="none" stroke="#191970" d="M1522.0383,-235.3484C1554.7468,-214.0619 1633.2961,-162.9425 1672.7538,-137.2637"/>
<polygon fill="#191970" stroke="#191970" points="1674.9739,-139.9949 1681.4462,-131.6068 1671.1557,-134.1279 1674.9739,-139.9949"/>
</g>
<!-- Node3 -->
<g id="node4" class="node">
<title>Node3</title>
<polygon fill="#ffffff" stroke="#bfbfbf" points="2082.7078,-112.5 2082.7078,-131.5 2127.7078,-131.5 2127.7078,-112.5 2082.7078,-112.5"/>
<text text-anchor="middle" x="2105.2078" y="-119.5" font-family="Helvetica,sans-Serif" font-size="10.00" fill="#000000">iosfwd</text>
</g>
<!-- Node2&#45;&gt;Node3 -->
<g id="edge3" class="edge">
<title>Node2&#45;&gt;Node3</title>
<path fill="none" stroke="#191970" d="M2003.2325,-168.4554C2025.1648,-158.464 2053.7351,-145.4487 2075.0531,-135.7372"/>
<polygon fill="#191970" stroke="#191970" points="2076.6384,-138.8611 2084.2876,-131.5303 2073.7364,-132.4909 2076.6384,-138.8611"/>
</g>
<!-- Node5 -->
<g id="node6" class="node">
<title>Node5</title>
<polygon fill="#ffffff" stroke="#bfbfbf" points="1989.7078,-56.5 1989.7078,-75.5 2082.7078,-75.5 2082.7078,-56.5 1989.7078,-56.5"/>
<text text-anchor="middle" x="2036.2078" y="-63.5" font-family="Helvetica,sans-Serif" font-size="10.00" fill="#000000">AMReX_REAL.H</text>
</g>
<!-- Node4&#45;&gt;Node5 -->
<g id="edge5" class="edge">
<title>Node4&#45;&gt;Node5</title>
<path fill="none" stroke="#191970" d="M2005.6527,-112.2455C2010.746,-104.5367 2017.9986,-93.5598 2024.1598,-84.2348"/>
<polygon fill="#191970" stroke="#191970" points="2027.2443,-85.9155 2029.8367,-75.6427 2021.4039,-82.0566 2027.2443,-85.9155"/>
</g>
<!-- Node6 -->
<g id="node7" class="node">
<title>Node6</title>
<polygon fill="#ffffff" stroke="#bfbfbf" points="2229.2078,-56.5 2229.2078,-75.5 2355.2078,-75.5 2355.2078,-56.5 2229.2078,-56.5"/>
<text text-anchor="middle" x="2292.2078" y="-63.5" font-family="Helvetica,sans-Serif" font-size="10.00" fill="#000000">AMReX_GpuQualifiers.H</text>
</g>
<!-- Node4&#45;&gt;Node6 -->
<g id="edge6" class="edge">
<title>Node4&#45;&gt;Node6</title>
<path fill="none" stroke="#191970" d="M2049.2434,-112.4369C2099.9148,-102.7522 2178.3026,-87.7703 2232.2637,-77.4569"/>
<polygon fill="#191970" stroke="#191970" points="2233.2135,-80.8388 2242.3786,-75.5237 2231.8993,-73.9633 2233.2135,-80.8388"/>
</g>
<!-- Node7 -->
<g id="node8" class="node">
<title>Node7</title>
<polygon fill="#ffffff" stroke="#bfbfbf" points="2101.2078,-56.5 2101.2078,-75.5 2211.2078,-75.5 2211.2078,-56.5 2101.2078,-56.5"/>
<text text-anchor="middle" x="2156.2078" y="-63.5" font-family="Helvetica,sans-Serif" font-size="10.00" fill="#000000">AMReX_Extension.H</text>
</g>
<!-- Node4&#45;&gt;Node7 -->
<g id="edge7" class="edge">
<title>Node4&#45;&gt;Node7</title>
<path fill="none" stroke="#191970" d="M2026.1971,-112.3733C2052.0777,-103.1419 2091.3326,-89.1402 2119.9367,-78.9375"/>
<polygon fill="#191970" stroke="#191970" points="2121.3278,-82.1573 2129.5707,-75.5011 2118.9761,-75.5642 2121.3278,-82.1573"/>
</g>
<!-- Node8&#45;&gt;Node1 -->
<g id="edge9" class="edge">
<title>Node8&#45;&gt;Node1</title>
<path fill="none" stroke="#191970" d="M579.8894,-179.2074C461.493,-171.325 223.0961,-153.3764 142.2078,-132 82.5671,-116.2387 48.8982,-127.6758 15.2078,-76 10.3532,-68.5538 9.8001,-63.0547 15.2078,-56 32.1764,-33.8634 111.0006,-19.9974 155.4686,-13.7989"/>
<polygon fill="#191970" stroke="#191970" points="156.0076,-17.258 165.4515,-12.4557 155.0741,-10.3205 156.0076,-17.258"/>
</g>
<!-- Node9 -->
<g id="node10" class="node">
<title>Node9</title>
<polygon fill="#ffffff" stroke="#bfbfbf" points="606.7078,-56.5 606.7078,-75.5 689.7078,-75.5 689.7078,-56.5 606.7078,-56.5"/>
<text text-anchor="middle" x="648.2078" y="-63.5" font-family="Helvetica,sans-Serif" font-size="10.00" fill="#000000">unordered_map</text>
</g>
<!-- Node8&#45;&gt;Node9 -->
<g id="edge10" class="edge">
<title>Node8&#45;&gt;Node9</title>
<path fill="none" stroke="#191970" d="M648.2078,-173.8845C648.2078,-154.6913 648.2078,-111.286 648.2078,-85.7663"/>
<polygon fill="#191970" stroke="#191970" points="651.7079,-85.7483 648.2078,-75.7484 644.7079,-85.7484 651.7079,-85.7483"/>
</g>
<!-- Node10 -->
<g id="node11" class="node">
<title>Node10</title>
<g id="a_node11"><a xlink:href="_field_desc_types_8_h.html" target="_top" xlink:title="amr&#45;wind/core/FieldDescTypes.H">
<polygon fill="#ffffff" stroke="#000000" points="1046.7078,-.5 1046.7078,-19.5 1209.7078,-19.5 1209.7078,-.5 1046.7078,-.5"/>
<text text-anchor="middle" x="1128.2078" y="-7.5" font-family="Helvetica,sans-Serif" font-size="10.00" fill="#000000">amr&#45;wind/core/FieldDescTypes.H</text>
</a>
</g>
</g>
<!-- Node8&#45;&gt;Node10 -->
<g id="edge11" class="edge">
<title>Node8&#45;&gt;Node10</title>
<path fill="none" stroke="#191970" d="M716.4732,-174.6289C827.4241,-159.015 1040.331,-123.7028 1098.2078,-76 1112.4323,-64.276 1120.1999,-44.3658 1124.2431,-29.4728"/>
<polygon fill="#191970" stroke="#191970" points="1127.6576,-30.2425 1126.568,-19.7039 1120.8478,-28.6219 1127.6576,-30.2425"/>
</g>
<!-- Node11 -->
<g id="node12" class="node">
<title>Node11</title>
<g id="a_node12"><a xlink:href="_field_utils_8_h.html" target="_top" xlink:title="amr&#45;wind/core/FieldUtils.H">
<polygon fill="#ffffff" stroke="#000000" points="1090.7078,-112.5 1090.7078,-131.5 1223.7078,-131.5 1223.7078,-112.5 1090.7078,-112.5"/>
<text text-anchor="middle" x="1157.2078" y="-119.5" font-family="Helvetica,sans-Serif" font-size="10.00" fill="#000000">amr&#45;wind/core/FieldUtils.H</text>
</a>
</g>
</g>
<!-- Node8&#45;&gt;Node11 -->
<g id="edge12" class="edge">
<title>Node8&#45;&gt;Node11</title>
<path fill="none" stroke="#191970" d="M716.4124,-175.3589C800.8801,-165.2614 949.169,-147.485 1076.2078,-132 1077.5132,-131.8409 1078.8305,-131.6802 1080.1569,-131.5181"/>
<polygon fill="#191970" stroke="#191970" points="1080.964,-134.9456 1090.4647,-130.2564 1080.1135,-127.9974 1080.964,-134.9456"/>
</g>
<!-- Node12 -->
<g id="node13" class="node">
<title>Node12</title>
<polygon fill="#ffffff" stroke="#bfbfbf" points="577.2078,-.5 577.2078,-19.5 681.2078,-19.5 681.2078,-.5 577.2078,-.5"/>
<text text-anchor="middle" x="629.2078" y="-7.5" font-family="Helvetica,sans-Serif" font-size="10.00" fill="#000000">AMReX_MultiFab.H</text>
</g>
<!-- Node8&#45;&gt;Node12 -->
<g id="edge42" class="edge">
<title>Node8&#45;&gt;Node12</title>
<path fill="none" stroke="#191970" d="M641.8727,-173.958C630.2517,-155.815 605.9206,-114.6926 597.2078,-76 595.2551,-67.3282 594.5478,-64.4816 597.2078,-56 600.4574,-45.6383 606.9572,-35.5669 613.2549,-27.5026"/>
<polygon fill="#191970" stroke="#191970" points="616.1157,-29.5376 619.8459,-19.6212 610.7459,-25.047 616.1157,-29.5376"/>
</g>
<!-- Node14 -->
<g id="node15" class="node">
<title>Node14</title>
<g id="a_node15"><a xlink:href="_field_8_h.html" target="_top" xlink:title="amr&#45;wind/core/Field.H">
<polygon fill="#ffffff" stroke="#000000" points="715.7078,-112.5 715.7078,-131.5 828.7078,-131.5 828.7078,-112.5 715.7078,-112.5"/>
<text text-anchor="middle" x="772.2078" y="-119.5" font-family="Helvetica,sans-Serif" font-size="10.00" fill="#000000">amr&#45;wind/core/Field.H</text>
</a>
</g>
</g>
<!-- Node8&#45;&gt;Node14 -->
<g id="edge16" class="edge">
<title>Node8&#45;&gt;Node14</title>
<path fill="none" stroke="#191970" d="M667.5828,-173.8906C688.0573,-163.7359 720.552,-147.6196 743.8963,-136.0416"/>
<polygon fill="#191970" stroke="#191970" points="745.5653,-139.1207 752.9688,-131.5419 742.455,-132.8496 745.5653,-139.1207"/>
</g>
<!-- Node21 -->
<g id="node22" class="node">
<title>Node21</title>
<g id="a_node22"><a xlink:href="_int_field_8_h.html" target="_top" xlink:title="amr&#45;wind/core/IntField.H">
<polygon fill="#ffffff" stroke="#000000" points="195.2078,-112.5 195.2078,-131.5 319.2078,-131.5 319.2078,-112.5 195.2078,-112.5"/>
<text text-anchor="middle" x="257.2078" y="-119.5" font-family="Helvetica,sans-Serif" font-size="10.00" fill="#000000">amr&#45;wind/core/IntField.H</text>
</a>
</g>
</g>
<!-- Node8&#45;&gt;Node21 -->
<g id="edge30" class="edge">
<title>Node8&#45;&gt;Node21</title>
<path fill="none" stroke="#191970" d="M587.543,-173.9581C517.3766,-162.9217 402.0297,-144.7789 327.8744,-133.1151"/>
<polygon fill="#191970" stroke="#191970" points="328.1155,-129.6101 317.6931,-131.5137 327.0278,-136.525 328.1155,-129.6101"/>
</g>
<!-- Node22 -->
<g id="node23" class="node">
<title>Node22</title>
<polygon fill="#ffffff" stroke="#bfbfbf" points="24.7078,-56.5 24.7078,-75.5 131.7078,-75.5 131.7078,-56.5 24.7078,-56.5"/>
<text text-anchor="middle" x="78.2078" y="-63.5" font-family="Helvetica,sans-Serif" font-size="10.00" fill="#000000">AMReX_iMultiFab.H</text>
</g>
<!-- Node8&#45;&gt;Node22 -->
<g id="edge43" class="edge">
<title>Node8&#45;&gt;Node22</title>
<path fill="none" stroke="#191970" d="M579.8429,-179.5343C469.498,-172.5222 257.3145,-156.3385 186.2078,-132 152.7361,-120.5433 118.649,-97.3924 97.9594,-81.7879"/>
<polygon fill="#191970" stroke="#191970" points="100.0109,-78.9501 89.9536,-75.6183 95.738,-84.4948 100.0109,-78.9501"/>
</g>
<!-- Node23 -->
<g id="node24" class="node">
<title>Node23</title>
<g id="a_node24"><a xlink:href="_scratch_field_8_h.html" target="_top" xlink:title="amr&#45;wind/core/ScratchField.H">
<polygon fill="#ffffff" stroke="#000000" points="366.2078,-112.5 366.2078,-131.5 512.2078,-131.5 512.2078,-112.5 366.2078,-112.5"/>
<text text-anchor="middle" x="439.2078" y="-119.5" font-family="Helvetica,sans-Serif" font-size="10.00" fill="#000000">amr&#45;wind/core/ScratchField.H</text>
</a>
</g>
</g>
<!-- Node8&#45;&gt;Node23 -->
<g id="edge34" class="edge">
<title>Node8&#45;&gt;Node23</title>
<path fill="none" stroke="#191970" d="M615.5515,-173.8906C579.355,-163.2395 520.8692,-146.0296 481.2703,-134.3772"/>
<polygon fill="#191970" stroke="#191970" points="482.2161,-131.0072 471.6347,-131.5419 480.24,-137.7225 482.2161,-131.0072"/>
</g>
<!-- Node25 -->
<g id="node26" class="node">
<title>Node25</title>
<polygon fill="#ffffff" stroke="#bfbfbf" points="1242.2078,-112.5 1242.2078,-131.5 1348.2078,-131.5 1348.2078,-112.5 1242.2078,-112.5"/>
<text text-anchor="middle" x="1295.2078" y="-119.5" font-family="Helvetica,sans-Serif" font-size="10.00" fill="#000000">AMReX_AmrCore.H</text>
</g>
<!-- Node8&#45;&gt;Node25 -->
<g id="edge41" class="edge">
<title>Node8&#45;&gt;Node25</title>
<path fill="none" stroke="#191970" d="M716.2559,-179.0397C823.4961,-171.6702 1038.5718,-155.5148 1231.9046,-131.9527"/>
<polygon fill="#191970" stroke="#191970" points="1232.4697,-135.4097 1241.9686,-130.717 1231.6165,-128.4619 1232.4697,-135.4097"/>
</g>
<!-- Node11&#45;&gt;Node10 -->
<g id="edge13" class="edge">
<title>Node11&#45;&gt;Node10</title>
<path fill="none" stroke="#191970" d="M1218.3879,-112.4478C1258.8996,-104.7297 1306.7819,-92.4454 1319.2078,-76 1324.5664,-68.9079 1324.7083,-62.9826 1319.2078,-56 1306.3088,-39.6256 1262.1858,-28.4009 1219.5957,-21.1412"/>
<polygon fill="#191970" stroke="#191970" points="1220.121,-17.6807 1209.6864,-19.5164 1218.9883,-24.5885 1220.121,-17.6807"/>
</g>
<!-- Node11&#45;&gt;Node12 -->
<g id="edge14" class="edge">
<title>Node11&#45;&gt;Node12</title>
<path fill="none" stroke="#191970" d="M1148.2604,-112.3161C1133.7315,-97.3053 1103.3785,-68.8171 1071.2078,-56 1003.7533,-29.1254 796.5327,-16.9022 691.5493,-12.3141"/>
<polygon fill="#191970" stroke="#191970" points="691.5509,-8.811 681.4106,-11.8809 691.252,-15.8047 691.5509,-8.811"/>
</g>
<!-- Node13 -->
<g id="node14" class="node">
<title>Node13</title>
<polygon fill="#ffffff" stroke="#bfbfbf" points="1194.2078,-56.5 1194.2078,-75.5 1310.2078,-75.5 1310.2078,-56.5 1194.2078,-56.5"/>
<text text-anchor="middle" x="1252.2078" y="-63.5" font-family="Helvetica,sans-Serif" font-size="10.00" fill="#000000">AMReX_Interpolater.H</text>
</g>
<!-- Node11&#45;&gt;Node13 -->
<g id="edge15" class="edge">
<title>Node11&#45;&gt;Node13</title>
<path fill="none" stroke="#191970" d="M1173.7555,-112.2455C1188.4677,-103.5731 1210.1966,-90.7645 1227.0583,-80.825"/>
<polygon fill="#191970" stroke="#191970" points="1229.0124,-83.736 1235.8497,-75.6427 1225.4576,-77.7057 1229.0124,-83.736"/>
</g>
<!-- Node14&#45;&gt;Node1 -->
<g id="edge17" class="edge">
<title>Node14&#45;&gt;Node1</title>
<path fill="none" stroke="#191970" d="M715.4691,-119.7738C606.1018,-114.955 370.1208,-101.8488 293.2078,-76 259.8987,-64.8055 226.1652,-41.5871 205.7157,-25.8962"/>
<polygon fill="#191970" stroke="#191970" points="207.8328,-23.1086 197.8049,-19.6895 203.5119,-28.6159 207.8328,-23.1086"/>
</g>
<!-- Node14&#45;&gt;Node9 -->
<g id="edge19" class="edge">
<title>Node14&#45;&gt;Node9</title>
<path fill="none" stroke="#191970" d="M750.8914,-112.3733C730.9862,-103.3838 701.0642,-89.8706 678.6478,-79.7471"/>
<polygon fill="#191970" stroke="#191970" points="679.8003,-76.4272 669.246,-75.5011 676.9191,-82.8068 679.8003,-76.4272"/>
</g>
<!-- Node14&#45;&gt;Node10 -->
<g id="edge24" class="edge">
<title>Node14&#45;&gt;Node10</title>
<path fill="none" stroke="#191970" d="M828.7545,-117.9668C903.5339,-111.8449 1030.5988,-98.478 1071.2078,-76 1091.3917,-64.8278 1107.7421,-43.5728 1117.6717,-28.1959"/>
<polygon fill="#191970" stroke="#191970" points="1120.7472,-29.8762 1123.0014,-19.524 1114.7834,-26.2109 1120.7472,-29.8762"/>
</g>
<!-- Node14&#45;&gt;Node12 -->
<g id="edge20" class="edge">
<title>Node14&#45;&gt;Node12</title>
<path fill="none" stroke="#191970" d="M762.0669,-112.1217C748.1651,-98.7778 722.177,-74.532 698.2078,-56 683.9562,-44.9812 667.1523,-33.7445 653.6957,-25.1353"/>
<polygon fill="#191970" stroke="#191970" points="655.3098,-22.0149 644.9869,-19.6298 651.5693,-27.9318 655.3098,-22.0149"/>
</g>
<!-- Node15 -->
<g id="node16" class="node">
<title>Node15</title>
<polygon fill="#ffffff" stroke="#bfbfbf" points="746.2078,-56.5 746.2078,-75.5 798.2078,-75.5 798.2078,-56.5 746.2078,-56.5"/>
<text text-anchor="middle" x="772.2078" y="-63.5" font-family="Helvetica,sans-Serif" font-size="10.00" fill="#000000">memory</text>
</g>
<!-- Node14&#45;&gt;Node15 -->
<g id="edge18" class="edge">
<title>Node14&#45;&gt;Node15</title>
<path fill="none" stroke="#191970" d="M772.2078,-112.2455C772.2078,-104.9382 772.2078,-94.6944 772.2078,-85.7046"/>
<polygon fill="#191970" stroke="#191970" points="775.7079,-85.6426 772.2078,-75.6427 768.7079,-85.6427 775.7079,-85.6426"/>
</g>
<!-- Node16 -->
<g id="node17" class="node">
<title>Node16</title>
<polygon fill="#ffffff" stroke="#bfbfbf" points="816.7078,-56.5 816.7078,-75.5 915.7078,-75.5 915.7078,-56.5 816.7078,-56.5"/>
<text text-anchor="middle" x="866.2078" y="-63.5" font-family="Helvetica,sans-Serif" font-size="10.00" fill="#000000">AMReX_BCRec.H</text>
</g>
<!-- Node14&#45;&gt;Node16 -->
<g id="edge21" class="edge">
<title>Node14&#45;&gt;Node16</title>
<path fill="none" stroke="#191970" d="M788.5813,-112.2455C803.1386,-103.5731 824.6388,-90.7645 841.323,-80.825"/>
<polygon fill="#191970" stroke="#191970" points="843.2222,-83.7676 850.0219,-75.6427 839.6395,-77.7539 843.2222,-83.7676"/>
</g>
<!-- Node17 -->
<g id="node18" class="node">
<title>Node17</title>
<polygon fill="#ffffff" stroke="#bfbfbf" points="1588.7078,-56.5 1588.7078,-75.5 1673.7078,-75.5 1673.7078,-56.5 1588.7078,-56.5"/>
<text text-anchor="middle" x="1631.2078" y="-63.5" font-family="Helvetica,sans-Serif" font-size="10.00" fill="#000000">AMReX_Gpu.H</text>
</g>
<!-- Node14&#45;&gt;Node17 -->
<g id="edge22" class="edge">
<title>Node14&#45;&gt;Node17</title>
<path fill="none" stroke="#191970" d="M828.8231,-119.7556C983.9506,-113.4525 1414.5492,-94.8914 1578.0531,-75.9424"/>
<polygon fill="#191970" stroke="#191970" points="1578.9205,-79.3634 1588.4308,-74.6938 1578.0842,-72.4135 1578.9205,-79.3634"/>
</g>
<!-- Node18 -->
<g id="node19" class="node">
<title>Node18</title>
<g id="a_node19"><a xlink:href="incflo__enums_8_h.html" target="_top" xlink:title="amr&#45;wind/incflo_enums.H">
<polygon fill="#ffffff" stroke="#000000" points="934.2078,-56.5 934.2078,-75.5 1062.2078,-75.5 1062.2078,-56.5 934.2078,-56.5"/>
<text text-anchor="middle" x="998.2078" y="-63.5" font-family="Helvetica,sans-Serif" font-size="10.00" fill="#000000">amr&#45;wind/incflo_enums.H</text>
</a>
</g>
</g>
<!-- Node14&#45;&gt;Node18 -->
<g id="edge23" class="edge">
<title>Node14&#45;&gt;Node18</title>
<path fill="none" stroke="#191970" d="M810.8018,-112.4369C849.2362,-102.9133 908.3438,-88.2672 949.8788,-77.9753"/>
<polygon fill="#191970" stroke="#191970" points="950.9083,-81.3261 959.773,-75.5237 949.2247,-74.5316 950.9083,-81.3261"/>
</g>
<!-- Node19 -->
<g id="node20" class="node">
<title>Node19</title>
<g id="a_node20"><a xlink:href="_view_field_8_h.html" target="_top" xlink:title="amr&#45;wind/core/ViewField.H">
<polygon fill="#ffffff" stroke="#000000" points="302.2078,-56.5 302.2078,-75.5 436.2078,-75.5 436.2078,-56.5 302.2078,-56.5"/>
<text text-anchor="middle" x="369.2078" y="-63.5" font-family="Helvetica,sans-Serif" font-size="10.00" fill="#000000">amr&#45;wind/core/ViewField.H</text>
</a>
</g>
</g>
<!-- Node14&#45;&gt;Node19 -->
<g id="edge25" class="edge">
<title>Node14&#45;&gt;Node19</title>
<path fill="none" stroke="#191970" d="M715.3225,-114.0953C645.1387,-104.3428 525.483,-87.7157 446.8817,-76.7934"/>
<polygon fill="#191970" stroke="#191970" points="446.9376,-73.2676 436.551,-75.3579 445.9741,-80.201 446.9376,-73.2676"/>
</g>
<!-- Node19&#45;&gt;Node1 -->
<g id="edge26" class="edge">
<title>Node19&#45;&gt;Node1</title>
<path fill="none" stroke="#191970" d="M337.749,-56.3733C303.7605,-45.9724 249.9828,-29.5159 216.4683,-19.2601"/>
<polygon fill="#191970" stroke="#191970" points="217.3486,-15.8693 206.7622,-16.2899 215.3003,-22.5629 217.3486,-15.8693"/>
</g>
<!-- Node19&#45;&gt;Node10 -->
<g id="edge27" class="edge">
<title>Node19&#45;&gt;Node10</title>
<path fill="none" stroke="#191970" d="M436.3602,-57.4206C441.0434,-56.9112 445.6942,-56.4314 450.2078,-56 659.4629,-35.9997 905.8665,-21.5568 1036.3431,-14.6238"/>
<polygon fill="#191970" stroke="#191970" points="1036.8841,-18.1002 1046.6854,-14.0771 1036.5145,-11.1099 1036.8841,-18.1002"/>
</g>
<!-- Node19&#45;&gt;Node12 -->
<g id="edge28" class="edge">
<title>Node19&#45;&gt;Node12</title>
<path fill="none" stroke="#191970" d="M413.608,-56.4369C458.2919,-46.8127 527.2647,-31.957 575.1166,-21.6504"/>
<polygon fill="#191970" stroke="#191970" points="575.9519,-25.0508 584.9908,-19.5237 574.478,-18.2078 575.9519,-25.0508"/>
</g>
<!-- Node20 -->
<g id="node21" class="node">
<title>Node20</title>
<polygon fill="#ffffff" stroke="#bfbfbf" points="238.7078,-.5 238.7078,-19.5 333.7078,-19.5 333.7078,-.5 238.7078,-.5"/>
<text text-anchor="middle" x="286.2078" y="-7.5" font-family="Helvetica,sans-Serif" font-size="10.00" fill="#000000">AMReX_Vector.H</text>
</g>
<!-- Node19&#45;&gt;Node20 -->
<g id="edge29" class="edge">
<title>Node19&#45;&gt;Node20</title>
<path fill="none" stroke="#191970" d="M354.7503,-56.2455C342.1346,-47.7337 323.6134,-35.2375 309.0033,-25.3801"/>
<polygon fill="#191970" stroke="#191970" points="310.7468,-22.3343 300.4996,-19.6427 306.8317,-28.1371 310.7468,-22.3343"/>
</g>
<!-- Node21&#45;&gt;Node1 -->
<g id="edge31" class="edge">
<title>Node21&#45;&gt;Node1</title>
<path fill="none" stroke="#191970" d="M229.5119,-112.4275C213.1615,-105.1781 193.8339,-93.4435 184.2078,-76 176.4285,-61.903 177.7874,-43.4078 180.5989,-29.5838"/>
<polygon fill="#191970" stroke="#191970" points="184.0471,-30.2167 183.0182,-19.672 177.2467,-28.5568 184.0471,-30.2167"/>
</g>
<!-- Node21&#45;&gt;Node10 -->
<g id="edge32" class="edge">
<title>Node21&#45;&gt;Node10</title>
<path fill="none" stroke="#191970" d="M295.9582,-112.4458C366.6939,-95.0579 511.653,-59.6867 535.2078,-56 711.2333,-28.4493 919.3594,-17.1403 1036.3522,-12.6948"/>
<polygon fill="#191970" stroke="#191970" points="1036.8295,-16.1796 1046.6927,-12.3108 1036.5696,-9.1844 1036.8295,-16.1796"/>
</g>
<!-- Node21&#45;&gt;Node22 -->
<g id="edge33" class="edge">
<title>Node21&#45;&gt;Node22</title>
<path fill="none" stroke="#191970" d="M226.4366,-112.3733C196.5428,-103.021 150.9985,-88.7725 118.2861,-78.5385"/>
<polygon fill="#191970" stroke="#191970" points="119.1664,-75.1466 108.5775,-75.5011 117.0763,-81.8273 119.1664,-75.1466"/>
</g>
<!-- Node23&#45;&gt;Node1 -->
<g id="edge35" class="edge">
<title>Node23&#45;&gt;Node1</title>
<path fill="none" stroke="#191970" d="M365.9319,-113.121C312.1642,-105.393 244.7542,-92.7927 222.2078,-76 206.8776,-64.5819 197.3056,-44.6276 191.9208,-29.6409"/>
<polygon fill="#191970" stroke="#191970" points="195.1407,-28.2248 188.7174,-19.7992 188.4844,-30.3915 195.1407,-28.2248"/>
</g>
<!-- Node23&#45;&gt;Node10 -->
<g id="edge36" class="edge">
<title>Node23&#45;&gt;Node10</title>
<path fill="none" stroke="#191970" d="M457.0668,-112.3732C485.7063,-97.4408 544.0905,-69.0579 597.2078,-56 677.9156,-36.1595 906.8135,-21.5135 1036.1923,-14.5412"/>
<polygon fill="#191970" stroke="#191970" points="1036.6806,-18.0202 1046.4796,-13.9917 1036.3071,-11.0302 1036.6806,-18.0202"/>
</g>
<!-- Node23&#45;&gt;Node12 -->
<g id="edge38" class="edge">
<title>Node23&#45;&gt;Node12</title>
<path fill="none" stroke="#191970" d="M450.1597,-112.371C466.1058,-98.6674 497.0053,-73.2876 526.2078,-56 547.787,-43.2253 573.548,-31.7215 593.9086,-23.4134"/>
<polygon fill="#191970" stroke="#191970" points="595.4468,-26.5676 603.4281,-19.5999 592.8437,-20.0696 595.4468,-26.5676"/>
</g>
<!-- Node23&#45;&gt;Node19 -->
<g id="edge37" class="edge">
<title>Node23&#45;&gt;Node19</title>
<path fill="none" stroke="#191970" d="M427.0147,-112.2455C416.5757,-103.8943 401.3423,-91.7076 389.1338,-81.9408"/>
<polygon fill="#191970" stroke="#191970" points="391.2563,-79.1566 381.2611,-75.6427 386.8834,-84.6227 391.2563,-79.1566"/>
</g>
<!-- Node23&#45;&gt;Node20 -->
<g id="edge39" class="edge">
<title>Node23&#45;&gt;Node20</title>
<path fill="none" stroke="#191970" d="M389.8262,-112.4743C352.5111,-104.218 305.6593,-91.2219 293.2078,-76 282.8458,-63.3325 281.827,-44.4054 282.9735,-30.0637"/>
<polygon fill="#191970" stroke="#191970" points="286.4946,-30.1 284.2202,-19.7522 279.5452,-29.2598 286.4946,-30.1"/>
</g>
<!-- Node24 -->
<g id="node25" class="node">
<title>Node24</title>
<polygon fill="#ffffff" stroke="#bfbfbf" points="1442.2078,-56.5 1442.2078,-75.5 1570.2078,-75.5 1570.2078,-56.5 1442.2078,-56.5"/>
<text text-anchor="middle" x="1506.2078" y="-63.5" font-family="Helvetica,sans-Serif" font-size="10.00" fill="#000000">AMReX_PhysBCFunct.H</text>
</g>
<!-- Node23&#45;&gt;Node24 -->
<g id="edge40" class="edge">
<title>Node23&#45;&gt;Node24</title>
<path fill="none" stroke="#191970" d="M512.2227,-118.213C663.0078,-110.3858 1019.7728,-91.8324 1319.2078,-76 1356.2803,-74.0398 1397.4855,-71.8387 1431.761,-70.0016"/>
<polygon fill="#191970" stroke="#191970" points="1432.3653,-73.4744 1442.1635,-69.4439 1431.9904,-66.4844 1432.3653,-73.4744"/>
</g>
<!-- Node26&#45;&gt;Node4 -->
<g id="edge46" class="edge">
<title>Node26&#45;&gt;Node4</title>
<path fill="none" stroke="#191970" d="M1528.3795,-175.523C1630.2005,-163.9482 1818.177,-142.5793 1923.1865,-130.642"/>
<polygon fill="#191970" stroke="#191970" points="1923.8539,-134.0887 1933.3946,-129.4815 1923.0632,-127.1335 1923.8539,-134.0887"/>
</g>
<!-- Node26&#45;&gt;Node5 -->
<g id="edge51" class="edge">
<title>Node26&#45;&gt;Node5</title>
<path fill="none" stroke="#191970" d="M1528.4582,-174.0678C1593.518,-164.8897 1692.815,-149.7555 1778.2078,-132 1854.594,-116.1172 1942.3813,-92.4955 1993.3479,-78.2389"/>
<polygon fill="#191970" stroke="#191970" points="1994.3551,-81.5915 2003.0359,-75.5175 1992.462,-74.8523 1994.3551,-81.5915"/>
</g>
<!-- Node26&#45;&gt;Node10 -->
<g id="edge47" class="edge">
<title>Node26&#45;&gt;Node10</title>
<path fill="none" stroke="#191970" d="M1448.1885,-168.1185C1429.5962,-140.9007 1386.9922,-84.4476 1336.2078,-56 1312.9535,-42.9737 1249.9447,-30.0332 1199.3211,-21.2115"/>
<polygon fill="#191970" stroke="#191970" points="1199.8252,-17.7469 1189.377,-19.5033 1198.64,-24.6459 1199.8252,-17.7469"/>
</g>
<!-- Node26&#45;&gt;Node11 -->
<g id="edge48" class="edge">
<title>Node26&#45;&gt;Node11</title>
<path fill="none" stroke="#191970" d="M1388.0165,-169.1586C1335.0349,-158.3334 1263.2745,-143.6714 1213.9073,-133.5848"/>
<polygon fill="#191970" stroke="#191970" points="1214.5347,-130.1407 1204.0364,-131.568 1213.1333,-136.999 1214.5347,-130.1407"/>
</g>
<!-- Node26&#45;&gt;Node12 -->
<g id="edge50" class="edge">
<title>Node26&#45;&gt;Node12</title>
<path fill="none" stroke="#191970" d="M1441.1966,-168.2325C1429.8393,-158.0142 1414.5887,-144.2449 1401.2078,-132 1364.5497,-98.4542 1364.839,-75.6705 1319.2078,-56 1262.4352,-31.5267 850.3283,-16.6563 691.4444,-11.7794"/>
<polygon fill="#191970" stroke="#191970" points="691.4534,-8.2781 681.3516,-11.4726 691.2406,-15.2749 691.4534,-8.2781"/>
</g>
<!-- Node26&#45;&gt;Node14 -->
<g id="edge45" class="edge">
<title>Node26&#45;&gt;Node14</title>
<path fill="none" stroke="#191970" d="M1388.0176,-177.2074C1255.3592,-165.3146 969.4879,-139.6862 839.2754,-128.0126"/>
<polygon fill="#191970" stroke="#191970" points="839.3177,-124.5025 829.0451,-127.0955 838.6926,-131.4745 839.3177,-124.5025"/>
</g>
<!-- Node26&#45;&gt;Node24 -->
<g id="edge52" class="edge">
<title>Node26&#45;&gt;Node24</title>
<path fill="none" stroke="#191970" d="M1522.9264,-168.4523C1541.7102,-160.759 1560.128,-149.2258 1571.2078,-132 1584.2067,-111.7904 1559.8901,-92.6888 1537.3882,-80.2861"/>
<polygon fill="#191970" stroke="#191970" points="1538.7799,-77.0649 1528.2931,-75.5558 1535.5499,-83.2752 1538.7799,-77.0649"/>
</g>
<!-- Node26&#45;&gt;Node25 -->
<g id="edge49" class="edge">
<title>Node26&#45;&gt;Node25</title>
<path fill="none" stroke="#191970" d="M1418.3335,-168.4554C1391.2558,-158.239 1355.7984,-144.8609 1329.8912,-135.0861"/>
<polygon fill="#191970" stroke="#191970" points="1331.0588,-131.7858 1320.467,-131.5303 1328.5877,-138.3352 1331.0588,-131.7858"/>
</g>
<!-- Node27 -->
<g id="node28" class="node">
<title>Node27</title>
<polygon fill="#ffffff" stroke="#bfbfbf" points="1442.2078,-112.5 1442.2078,-131.5 1562.2078,-131.5 1562.2078,-112.5 1442.2078,-112.5"/>
<text text-anchor="middle" x="1502.2078" y="-119.5" font-family="Helvetica,sans-Serif" font-size="10.00" fill="#000000">AMReX_FillPatchUtil.H</text>
</g>
<!-- Node26&#45;&gt;Node27 -->
<g id="edge53" class="edge">
<title>Node26&#45;&gt;Node27</title>
<path fill="none" stroke="#191970" d="M1469.0842,-168.2977C1475.1919,-159.7609 1482.8517,-149.0545 1489.2666,-140.0883"/>
<polygon fill="#191970" stroke="#191970" points="1492.1907,-142.0163 1495.1628,-131.8469 1486.4977,-137.9433 1492.1907,-142.0163"/>
</g>
<!-- Node28&#45;&gt;Node10 -->
<g id="edge55" class="edge">
<title>Node28&#45;&gt;Node10</title>
<path fill="none" stroke="#191970" d="M1697.5491,-112.195C1698.9391,-97.5485 1699.0534,-70.1664 1683.2078,-56 1649.4972,-25.8618 1368.6739,-15.2067 1219.9041,-11.6538"/>
<polygon fill="#191970" stroke="#191970" points="1219.9418,-8.1539 1209.863,-11.42 1219.7787,-15.152 1219.9418,-8.1539"/>
</g>
<!-- Node28&#45;&gt;Node17 -->
<g id="edge56" class="edge">
<title>Node28&#45;&gt;Node17</title>
<path fill="none" stroke="#191970" d="M1684.8857,-112.2455C1675.2855,-103.9746 1661.3186,-91.9416 1650.0383,-82.2232"/>
<polygon fill="#191970" stroke="#191970" points="1652.2608,-79.5182 1642.4002,-75.6427 1647.6918,-84.8214 1652.2608,-79.5182"/>
</g>
<!-- Node28&#45;&gt;Node24 -->
<g id="edge59" class="edge">
<title>Node28&#45;&gt;Node24</title>
<path fill="none" stroke="#191970" d="M1663.5456,-112.3733C1631.678,-102.9807 1583.0547,-88.6496 1548.3008,-78.4064"/>
<polygon fill="#191970" stroke="#191970" points="1549.0253,-74.9711 1538.4437,-75.5011 1547.0463,-81.6855 1549.0253,-74.9711"/>
</g>
<!-- Node29 -->
<g id="node30" class="node">
<title>Node29</title>
<polygon fill="#ffffff" stroke="#bfbfbf" points="1858.7078,-56.5 1858.7078,-75.5 1971.7078,-75.5 1971.7078,-56.5 1858.7078,-56.5"/>
<text text-anchor="middle" x="1915.2078" y="-63.5" font-family="Helvetica,sans-Serif" font-size="10.00" fill="#000000">AMReX_FArrayBox.H</text>
</g>
<!-- Node28&#45;&gt;Node29 -->
<g id="edge57" class="edge">
<title>Node28&#45;&gt;Node29</title>
<path fill="none" stroke="#191970" d="M1733.8552,-112.3733C1771.0598,-102.8598 1828.0781,-88.2797 1868.2294,-78.0127"/>
<polygon fill="#191970" stroke="#191970" points="1869.2304,-81.3695 1878.0516,-75.5011 1867.4962,-74.5877 1869.2304,-81.3695"/>
</g>
<!-- Node30 -->
<g id="node31" class="node">
<title>Node30</title>
<polygon fill="#ffffff" stroke="#bfbfbf" points="1730.2078,-56.5 1730.2078,-75.5 1840.2078,-75.5 1840.2078,-56.5 1730.2078,-56.5"/>
<text text-anchor="middle" x="1785.2078" y="-63.5" font-family="Helvetica,sans-Serif" font-size="10.00" fill="#000000">AMReX_Geometry.H</text>
</g>
<!-- Node28&#45;&gt;Node30 -->
<g id="edge58" class="edge">
<title>Node28&#45;&gt;Node30</title>
<path fill="none" stroke="#191970" d="M1711.7104,-112.2455C1725.3657,-103.6534 1745.4735,-91.0014 1761.2067,-81.1018"/>
<polygon fill="#191970" stroke="#191970" points="1763.2829,-83.9307 1769.8828,-75.6427 1759.5549,-78.006 1763.2829,-83.9307"/>
</g>
</g>
</svg>
