<?xml version="1.0" encoding="UTF-8" standalone="no"?>
<!DOCTYPE svg PUBLIC "-//W3C//DTD SVG 1.1//EN"
 "http://www.w3.org/Graphics/SVG/1.1/DTD/svg11.dtd">
<!-- Generated by graphviz version 2.40.1 (20161225.0304)
 -->
<!-- Title: RefinementCriteria.H Pages: 1 -->
<svg width="839pt" height="196pt"
 viewBox="0.00 0.00 838.50 196.00" xmlns="http://www.w3.org/2000/svg" xmlns:xlink="http://www.w3.org/1999/xlink">
<g id="graph0" class="graph" transform="scale(1 1) rotate(0) translate(4 192)">
<title>RefinementCriteria.H</title>
<polygon fill="#ffffff" stroke="transparent" points="-4,4 -4,-192 834.5,-192 834.5,4 -4,4"/>
<!-- Node9 -->
<g id="node1" class="node">
<title>Node9</title>
<polygon fill="#bfbfbf" stroke="#000000" points="296,-168.5 296,-187.5 405,-187.5 405,-168.5 296,-168.5"/>
<text text-anchor="middle" x="350.5" y="-175.5" font-family="Helvetica,sans-Serif" font-size="10.00" fill="#000000">RefinementCriteria.H</text>
</g>
<!-- Node10 -->
<g id="node2" class="node">
<title>Node10</title>
<g id="a_node2"><a xlink:href="incflo_8cpp.html" target="_top" xlink:title="incflo.cpp">
<polygon fill="#ffffff" stroke="#000000" points="0,-112.5 0,-131.5 59,-131.5 59,-112.5 0,-112.5"/>
<text text-anchor="middle" x="29.5" y="-119.5" font-family="Helvetica,sans-Serif" font-size="10.00" fill="#000000">incflo.cpp</text>
</a>
</g>
</g>
<!-- Node9&#45;&gt;Node10 -->
<g id="edge1" class="edge">
<title>Node9&#45;&gt;Node10</title>
<path fill="none" stroke="#191970" d="M285.7511,-168.3521C229.4892,-159.7054 145.888,-146.2236 73.5,-132 68.888,-131.0938 64.0208,-130.063 59.2715,-129.0159"/>
<polygon fill="#191970" stroke="#191970" points="285.5151,-171.8566 295.9294,-169.9094 286.5739,-164.9371 285.5151,-171.8566"/>
</g>
<!-- Node11 -->
<g id="node3" class="node">
<title>Node11</title>
<g id="a_node3"><a xlink:href="init_8cpp.html" target="_top" xlink:title="init.cpp">
<polygon fill="#ffffff" stroke="#000000" points="24.5,-56.5 24.5,-75.5 72.5,-75.5 72.5,-56.5 24.5,-56.5"/>
<text text-anchor="middle" x="48.5" y="-63.5" font-family="Helvetica,sans-Serif" font-size="10.00" fill="#000000">init.cpp</text>
</a>
</g>
</g>
<!-- Node9&#45;&gt;Node11 -->
<g id="edge2" class="edge">
<title>Node9&#45;&gt;Node11</title>
<path fill="none" stroke="#191970" d="M285.7642,-170.628C224.1193,-162.7517 136.4324,-149.062 106.5,-132 82.3808,-118.2517 63.241,-90.6932 54.1912,-75.9098"/>
<polygon fill="#191970" stroke="#191970" points="285.4446,-174.1153 295.8029,-171.889 286.3171,-167.1699 285.4446,-174.1153"/>
</g>
<!-- Node12 -->
<g id="node4" class="node">
<title>Node12</title>
<g id="a_node4"><a xlink:href="_cart_box_refinement_8_h.html" target="_top" xlink:title="CartBoxRefinement.H">
<polygon fill="#ffffff" stroke="#000000" points="116,-112.5 116,-131.5 229,-131.5 229,-112.5 116,-112.5"/>
<text text-anchor="middle" x="172.5" y="-119.5" font-family="Helvetica,sans-Serif" font-size="10.00" fill="#000000">CartBoxRefinement.H</text>
</a>
</g>
</g>
<!-- Node9&#45;&gt;Node12 -->
<g id="edge3" class="edge">
<title>Node9&#45;&gt;Node12</title>
<path fill="none" stroke="#191970" d="M310.2069,-165.3235C277.5632,-155.0536 232.2866,-140.8093 202.7,-131.5011"/>
<polygon fill="#191970" stroke="#191970" points="309.3113,-168.7108 319.9007,-168.3733 311.412,-162.0335 309.3113,-168.7108"/>
</g>
<!-- Node14 -->
<g id="node6" class="node">
<title>Node14</title>
<g id="a_node6"><a xlink:href="_geometry_refinement_8_h.html" target="_top" xlink:title="GeometryRefinement.H">
<polygon fill="#ffffff" stroke="#000000" points="290.5,-112.5 290.5,-131.5 410.5,-131.5 410.5,-112.5 290.5,-112.5"/>
<text text-anchor="middle" x="350.5" y="-119.5" font-family="Helvetica,sans-Serif" font-size="10.00" fill="#000000">GeometryRefinement.H</text>
</a>
</g>
</g>
<!-- Node9&#45;&gt;Node14 -->
<g id="edge6" class="edge">
<title>Node9&#45;&gt;Node14</title>
<path fill="none" stroke="#191970" d="M350.5,-158.1575C350.5,-149.155 350.5,-138.9199 350.5,-131.6427"/>
<polygon fill="#191970" stroke="#191970" points="347.0001,-158.2455 350.5,-168.2455 354.0001,-158.2456 347.0001,-158.2455"/>
</g>
<!-- Node20 -->
<g id="node12" class="node">
<title>Node20</title>
<g id="a_node12"><a xlink:href="_field_refinement_8_h.html" target="_top" xlink:title="FieldRefinement.H">
<polygon fill="#ffffff" stroke="#000000" points="428.5,-112.5 428.5,-131.5 526.5,-131.5 526.5,-112.5 428.5,-112.5"/>
<text text-anchor="middle" x="477.5" y="-119.5" font-family="Helvetica,sans-Serif" font-size="10.00" fill="#000000">FieldRefinement.H</text>
</a>
</g>
</g>
<!-- Node9&#45;&gt;Node20 -->
<g id="edge12" class="edge">
<title>Node9&#45;&gt;Node20</title>
<path fill="none" stroke="#191970" d="M381.6892,-164.2473C404.7537,-154.0771 435.5712,-140.4883 455.9528,-131.5011"/>
<polygon fill="#191970" stroke="#191970" points="380.0699,-161.1361 372.3321,-168.3733 382.8942,-167.5411 380.0699,-161.1361"/>
</g>
<!-- Node22 -->
<g id="node14" class="node">
<title>Node22</title>
<g id="a_node14"><a xlink:href="_overset_refinement_8_h.html" target="_top" xlink:title="OversetRefinement.H">
<polygon fill="#ffffff" stroke="#000000" points="544.5,-112.5 544.5,-131.5 656.5,-131.5 656.5,-112.5 544.5,-112.5"/>
<text text-anchor="middle" x="600.5" y="-119.5" font-family="Helvetica,sans-Serif" font-size="10.00" fill="#000000">OversetRefinement.H</text>
</a>
</g>
</g>
<!-- Node9&#45;&gt;Node22 -->
<g id="edge14" class="edge">
<title>Node9&#45;&gt;Node22</title>
<path fill="none" stroke="#191970" d="M402.989,-166.2425C449.0438,-155.9262 515.172,-141.1135 557.9836,-131.5237"/>
<polygon fill="#191970" stroke="#191970" points="402.1856,-162.8356 393.1925,-168.4369 403.7157,-169.6663 402.1856,-162.8356"/>
</g>
<!-- Node24 -->
<g id="node16" class="node">
<title>Node24</title>
<g id="a_node16"><a xlink:href="_refinement_criteria_8cpp.html" target="_top" xlink:title="RefinementCriteria.cpp">
<polygon fill="#ffffff" stroke="#000000" points="675,-112.5 675,-131.5 792,-131.5 792,-112.5 675,-112.5"/>
<text text-anchor="middle" x="733.5" y="-119.5" font-family="Helvetica,sans-Serif" font-size="10.00" fill="#000000">RefinementCriteria.cpp</text>
</a>
</g>
</g>
<!-- Node9&#45;&gt;Node24 -->
<g id="edge16" class="edge">
<title>Node9&#45;&gt;Node24</title>
<path fill="none" stroke="#191970" d="M415.031,-168.5958C478.7041,-159.312 578.816,-144.7031 665.5,-132 668.5697,-131.5502 671.7172,-131.0885 674.8952,-130.6222"/>
<polygon fill="#191970" stroke="#191970" points="414.5228,-165.1328 405.1324,-170.0389 415.5328,-172.0596 414.5228,-165.1328"/>
</g>
<!-- Node12&#45;&gt;Node11 -->
<g id="edge4" class="edge">
<title>Node12&#45;&gt;Node11</title>
<path fill="none" stroke="#191970" d="M142.0476,-108.2473C119.5278,-98.0771 89.4383,-84.4883 69.5382,-75.5011"/>
<polygon fill="#191970" stroke="#191970" points="140.6294,-111.4471 151.1836,-112.3733 143.5105,-105.0675 140.6294,-111.4471"/>
</g>
<!-- Node13 -->
<g id="node5" class="node">
<title>Node13</title>
<g id="a_node5"><a xlink:href="_cart_box_refinement_8cpp.html" target="_top" xlink:title="CartBoxRefinement.cpp">
<polygon fill="#ffffff" stroke="#000000" points="90.5,-56.5 90.5,-75.5 212.5,-75.5 212.5,-56.5 90.5,-56.5"/>
<text text-anchor="middle" x="151.5" y="-63.5" font-family="Helvetica,sans-Serif" font-size="10.00" fill="#000000">CartBoxRefinement.cpp</text>
</a>
</g>
</g>
<!-- Node12&#45;&gt;Node13 -->
<g id="edge5" class="edge">
<title>Node12&#45;&gt;Node13</title>
<path fill="none" stroke="#191970" d="M165.281,-102.7493C161.8524,-93.6064 157.9049,-83.0798 155.116,-75.6427"/>
<polygon fill="#191970" stroke="#191970" points="162.0536,-104.1112 168.8421,-112.2455 168.6079,-101.6533 162.0536,-104.1112"/>
</g>
<!-- Node15 -->
<g id="node7" class="node">
<title>Node15</title>
<g id="a_node7"><a xlink:href="_box_refiner_8_h.html" target="_top" xlink:title="BoxRefiner.H">
<polygon fill="#ffffff" stroke="#000000" points="230.5,-56.5 230.5,-75.5 306.5,-75.5 306.5,-56.5 230.5,-56.5"/>
<text text-anchor="middle" x="268.5" y="-63.5" font-family="Helvetica,sans-Serif" font-size="10.00" fill="#000000">BoxRefiner.H</text>
</a>
</g>
</g>
<!-- Node14&#45;&gt;Node15 -->
<g id="edge7" class="edge">
<title>Node14&#45;&gt;Node15</title>
<path fill="none" stroke="#191970" d="M327.789,-106.49C313.3212,-96.6096 295.032,-84.1194 282.6196,-75.6427"/>
<polygon fill="#191970" stroke="#191970" points="325.9848,-109.4962 336.2167,-112.2455 329.9325,-103.7156 325.9848,-109.4962"/>
</g>
<!-- Node17 -->
<g id="node9" class="node">
<title>Node17</title>
<g id="a_node9"><a xlink:href="_cylinder_refiner_8_h.html" target="_top" xlink:title="CylinderRefiner.H">
<polygon fill="#ffffff" stroke="#000000" points="325,-56.5 325,-75.5 420,-75.5 420,-56.5 325,-56.5"/>
<text text-anchor="middle" x="372.5" y="-63.5" font-family="Helvetica,sans-Serif" font-size="10.00" fill="#000000">CylinderRefiner.H</text>
</a>
</g>
</g>
<!-- Node14&#45;&gt;Node17 -->
<g id="edge9" class="edge">
<title>Node14&#45;&gt;Node17</title>
<path fill="none" stroke="#191970" d="M358.0628,-102.7493C361.6546,-93.6064 365.7901,-83.0798 368.7118,-75.6427"/>
<polygon fill="#191970" stroke="#191970" points="354.7311,-101.6582 354.3321,-112.2455 361.2463,-104.2178 354.7311,-101.6582"/>
</g>
<!-- Node19 -->
<g id="node11" class="node">
<title>Node19</title>
<g id="a_node11"><a xlink:href="_geometry_refinement_8cpp.html" target="_top" xlink:title="GeometryRefinement.cpp">
<polygon fill="#ffffff" stroke="#000000" points="438.5,-56.5 438.5,-75.5 566.5,-75.5 566.5,-56.5 438.5,-56.5"/>
<text text-anchor="middle" x="502.5" y="-63.5" font-family="Helvetica,sans-Serif" font-size="10.00" fill="#000000">GeometryRefinement.cpp</text>
</a>
</g>
</g>
<!-- Node14&#45;&gt;Node19 -->
<g id="edge11" class="edge">
<title>Node14&#45;&gt;Node19</title>
<path fill="none" stroke="#191970" d="M386.359,-108.7888C414.1123,-98.5639 451.8819,-84.6488 476.7112,-75.5011"/>
<polygon fill="#191970" stroke="#191970" points="384.8032,-105.6319 376.6297,-112.3733 387.2232,-112.2003 384.8032,-105.6319"/>
</g>
<!-- Node16 -->
<g id="node8" class="node">
<title>Node16</title>
<g id="a_node8"><a xlink:href="_box_refiner_8cpp.html" target="_top" xlink:title="BoxRefiner.cpp">
<polygon fill="#ffffff" stroke="#000000" points="222.5,-.5 222.5,-19.5 306.5,-19.5 306.5,-.5 222.5,-.5"/>
<text text-anchor="middle" x="264.5" y="-7.5" font-family="Helvetica,sans-Serif" font-size="10.00" fill="#000000">BoxRefiner.cpp</text>
</a>
</g>
</g>
<!-- Node15&#45;&gt;Node16 -->
<g id="edge8" class="edge">
<title>Node15&#45;&gt;Node16</title>
<path fill="none" stroke="#191970" d="M267.0827,-46.1575C266.4396,-37.155 265.7086,-26.9199 265.1888,-19.6427"/>
<polygon fill="#191970" stroke="#191970" points="263.5996,-46.5204 267.8033,-56.2455 270.5818,-46.0216 263.5996,-46.5204"/>
</g>
<!-- Node18 -->
<g id="node10" class="node">
<title>Node18</title>
<g id="a_node10"><a xlink:href="_cylinder_refiner_8cpp.html" target="_top" xlink:title="CylinderRefiner.cpp">
<polygon fill="#ffffff" stroke="#000000" points="325,-.5 325,-19.5 428,-19.5 428,-.5 325,-.5"/>
<text text-anchor="middle" x="376.5" y="-7.5" font-family="Helvetica,sans-Serif" font-size="10.00" fill="#000000">CylinderRefiner.cpp</text>
</a>
</g>
</g>
<!-- Node17&#45;&gt;Node18 -->
<g id="edge10" class="edge">
<title>Node17&#45;&gt;Node18</title>
<path fill="none" stroke="#191970" d="M373.9173,-46.1575C374.5604,-37.155 375.2914,-26.9199 375.8112,-19.6427"/>
<polygon fill="#191970" stroke="#191970" points="370.4182,-46.0216 373.1967,-56.2455 377.4004,-46.5204 370.4182,-46.0216"/>
</g>
<!-- Node21 -->
<g id="node13" class="node">
<title>Node21</title>
<g id="a_node13"><a xlink:href="_field_refinement_8cpp.html" target="_top" xlink:title="FieldRefinement.cpp">
<polygon fill="#ffffff" stroke="#000000" points="585,-56.5 585,-75.5 692,-75.5 692,-56.5 585,-56.5"/>
<text text-anchor="middle" x="638.5" y="-63.5" font-family="Helvetica,sans-Serif" font-size="10.00" fill="#000000">FieldRefinement.cpp</text>
</a>
</g>
</g>
<!-- Node20&#45;&gt;Node21 -->
<g id="edge13" class="edge">
<title>Node20&#45;&gt;Node21</title>
<path fill="none" stroke="#191970" d="M514.7111,-109.057C544.1759,-98.8084 584.6541,-84.729 611.1843,-75.5011"/>
<polygon fill="#191970" stroke="#191970" points="513.472,-105.7822 505.1769,-112.3733 515.7717,-112.3937 513.472,-105.7822"/>
</g>
<!-- Node23 -->
<g id="node15" class="node">
<title>Node23</title>
<g id="a_node15"><a xlink:href="_overset_refinement_8cpp.html" target="_top" xlink:title="OversetRefinement.cpp">
<polygon fill="#ffffff" stroke="#000000" points="710.5,-56.5 710.5,-75.5 830.5,-75.5 830.5,-56.5 710.5,-56.5"/>
<text text-anchor="middle" x="770.5" y="-63.5" font-family="Helvetica,sans-Serif" font-size="10.00" fill="#000000">OversetRefinement.cpp</text>
</a>
</g>
</g>
<!-- Node22&#45;&gt;Node23 -->
<g id="edge15" class="edge">
<title>Node22&#45;&gt;Node23</title>
<path fill="none" stroke="#191970" d="M639.386,-109.1905C670.5312,-98.9309 713.5223,-84.7691 741.6573,-75.5011"/>
<polygon fill="#191970" stroke="#191970" points="638.1269,-105.9202 629.724,-112.3733 640.3171,-112.5687 638.1269,-105.9202"/>
</g>
</g>
</svg>
