<?xml version="1.0" encoding="UTF-8" standalone="no"?>
<!DOCTYPE svg PUBLIC "-//W3C//DTD SVG 1.1//EN"
 "http://www.w3.org/Graphics/SVG/1.1/DTD/svg11.dtd">
<!-- Generated by graphviz version 2.40.1 (20161225.0304)
 -->
<!-- Title: RefinementCriteria.H Pages: 1 -->
<svg width="965pt" height="196pt"
 viewBox="0.00 0.00 964.50 196.00" xmlns="http://www.w3.org/2000/svg" xmlns:xlink="http://www.w3.org/1999/xlink">
<g id="graph0" class="graph" transform="scale(1 1) rotate(0) translate(4 192)">
<title>RefinementCriteria.H</title>
<polygon fill="#ffffff" stroke="transparent" points="-4,4 -4,-192 960.5,-192 960.5,4 -4,4"/>
<!-- Node9 -->
<g id="node1" class="node">
<title>Node9</title>
<polygon fill="#bfbfbf" stroke="#000000" points="359,-168.5 359,-187.5 468,-187.5 468,-168.5 359,-168.5"/>
<text text-anchor="middle" x="413.5" y="-175.5" font-family="Helvetica,sans-Serif" font-size="10.00" fill="#000000">RefinementCriteria.H</text>
</g>
<!-- Node10 -->
<g id="node2" class="node">
<title>Node10</title>
<g id="a_node2"><a xlink:href="incflo_8cpp.html" target="_top" xlink:title="incflo.cpp">
<polygon fill="#ffffff" stroke="#000000" points="0,-112.5 0,-131.5 59,-131.5 59,-112.5 0,-112.5"/>
<text text-anchor="middle" x="29.5" y="-119.5" font-family="Helvetica,sans-Serif" font-size="10.00" fill="#000000">incflo.cpp</text>
</a>
</g>
</g>
<!-- Node9&#45;&gt;Node10 -->
<g id="edge1" class="edge">
<title>Node9&#45;&gt;Node10</title>
<path fill="none" stroke="#191970" d="M348.5725,-170.9569C279.9512,-163.1068 168.6967,-149.2223 73.5,-132 68.8749,-131.1633 64.0008,-130.1694 59.2485,-129.1381"/>
<polygon fill="#191970" stroke="#191970" points="348.4644,-174.467 358.7954,-172.1177 349.2542,-167.5117 348.4644,-174.467"/>
</g>
<!-- Node11 -->
<g id="node3" class="node">
<title>Node11</title>
<g id="a_node3"><a xlink:href="init_8cpp.html" target="_top" xlink:title="init.cpp">
<polygon fill="#ffffff" stroke="#000000" points="2.5,-56.5 2.5,-75.5 50.5,-75.5 50.5,-56.5 2.5,-56.5"/>
<text text-anchor="middle" x="26.5" y="-63.5" font-family="Helvetica,sans-Serif" font-size="10.00" fill="#000000">init.cpp</text>
</a>
</g>
</g>
<!-- Node9&#45;&gt;Node11 -->
<g id="edge2" class="edge">
<title>Node9&#45;&gt;Node11</title>
<path fill="none" stroke="#191970" d="M348.7759,-172.3977C271.8707,-165.0324 148.664,-150.7921 106.5,-132 76.2395,-118.5131 48.1503,-90.3179 34.7438,-75.525"/>
<polygon fill="#191970" stroke="#191970" points="348.5583,-175.8927 358.843,-173.348 349.2162,-168.9237 348.5583,-175.8927"/>
</g>
<!-- Node12 -->
<g id="node4" class="node">
<title>Node12</title>
<g id="a_node4"><a xlink:href="_cart_box_refinement_8_h.html" target="_top" xlink:title="CartBoxRefinement.H">
<polygon fill="#ffffff" stroke="#000000" points="116,-112.5 116,-131.5 229,-131.5 229,-112.5 116,-112.5"/>
<text text-anchor="middle" x="172.5" y="-119.5" font-family="Helvetica,sans-Serif" font-size="10.00" fill="#000000">CartBoxRefinement.H</text>
</a>
</g>
</g>
<!-- Node9&#45;&gt;Node12 -->
<g id="edge3" class="edge">
<title>Node9&#45;&gt;Node12</title>
<path fill="none" stroke="#191970" d="M362.3412,-166.1125C317.9696,-155.8021 254.5832,-141.0733 213.4858,-131.5237"/>
<polygon fill="#191970" stroke="#191970" points="361.8118,-169.5826 372.3445,-168.4369 363.3962,-162.7643 361.8118,-169.5826"/>
</g>
<!-- Node14 -->
<g id="node6" class="node">
<title>Node14</title>
<g id="a_node6"><a xlink:href="_geometry_refinement_8_h.html" target="_top" xlink:title="GeometryRefinement.H">
<polygon fill="#ffffff" stroke="#000000" points="290.5,-112.5 290.5,-131.5 410.5,-131.5 410.5,-112.5 290.5,-112.5"/>
<text text-anchor="middle" x="350.5" y="-119.5" font-family="Helvetica,sans-Serif" font-size="10.00" fill="#000000">GeometryRefinement.H</text>
</a>
</g>
</g>
<!-- Node9&#45;&gt;Node14 -->
<g id="edge6" class="edge">
<title>Node9&#45;&gt;Node14</title>
<path fill="none" stroke="#191970" d="M394.7808,-161.3607C383.8818,-151.6727 370.5245,-139.7995 361.348,-131.6427"/>
<polygon fill="#191970" stroke="#191970" points="392.7268,-164.2178 402.5262,-168.2455 397.3774,-158.9859 392.7268,-164.2178"/>
</g>
<!-- Node20 -->
<g id="node12" class="node">
<title>Node20</title>
<g id="a_node12"><a xlink:href="_field_refinement_8_h.html" target="_top" xlink:title="FieldRefinement.H">
<polygon fill="#ffffff" stroke="#000000" points="428.5,-112.5 428.5,-131.5 526.5,-131.5 526.5,-112.5 428.5,-112.5"/>
<text text-anchor="middle" x="477.5" y="-119.5" font-family="Helvetica,sans-Serif" font-size="10.00" fill="#000000">FieldRefinement.H</text>
</a>
</g>
</g>
<!-- Node9&#45;&gt;Node20 -->
<g id="edge12" class="edge">
<title>Node9&#45;&gt;Node20</title>
<path fill="none" stroke="#191970" d="M432.1914,-161.645C443.3219,-151.9058 457.0663,-139.8795 466.4798,-131.6427"/>
<polygon fill="#191970" stroke="#191970" points="429.869,-159.0264 424.6479,-168.2455 434.4785,-164.2945 429.869,-159.0264"/>
</g>
<!-- Node22 -->
<g id="node14" class="node">
<title>Node22</title>
<g id="a_node14"><a xlink:href="_overset_refinement_8_h.html" target="_top" xlink:title="OversetRefinement.H">
<polygon fill="#ffffff" stroke="#000000" points="544.5,-112.5 544.5,-131.5 656.5,-131.5 656.5,-112.5 544.5,-112.5"/>
<text text-anchor="middle" x="600.5" y="-119.5" font-family="Helvetica,sans-Serif" font-size="10.00" fill="#000000">OversetRefinement.H</text>
</a>
</g>
</g>
<!-- Node9&#45;&gt;Node22 -->
<g id="edge14" class="edge">
<title>Node9&#45;&gt;Node22</title>
<path fill="none" stroke="#191970" d="M455.3877,-165.4561C489.7143,-155.1765 537.5565,-140.8494 568.773,-131.5011"/>
<polygon fill="#191970" stroke="#191970" points="454.222,-162.1515 445.6464,-168.3733 456.2302,-168.8573 454.222,-162.1515"/>
</g>
<!-- Node24 -->
<g id="node16" class="node">
<title>Node24</title>
<g id="a_node16"><a xlink:href="_q_criterion_refinement_8_h.html" target="_top" xlink:title="QCriterionRefinement.H">
<polygon fill="#ffffff" stroke="#000000" points="674.5,-112.5 674.5,-131.5 796.5,-131.5 796.5,-112.5 674.5,-112.5"/>
<text text-anchor="middle" x="735.5" y="-119.5" font-family="Helvetica,sans-Serif" font-size="10.00" fill="#000000">QCriterionRefinement.H</text>
</a>
</g>
</g>
<!-- Node9&#45;&gt;Node24 -->
<g id="edge16" class="edge">
<title>Node9&#45;&gt;Node24</title>
<path fill="none" stroke="#191970" d="M478.1377,-166.7587C537.5078,-156.4334 624.5366,-141.298 680.6091,-131.5462"/>
<polygon fill="#191970" stroke="#191970" points="477.3753,-163.3386 468.1229,-168.5004 478.5748,-170.2351 477.3753,-163.3386"/>
</g>
<!-- Node26 -->
<g id="node18" class="node">
<title>Node26</title>
<g id="a_node18"><a xlink:href="_refinement_criteria_8cpp.html" target="_top" xlink:title="RefinementCriteria.cpp">
<polygon fill="#ffffff" stroke="#000000" points="815,-112.5 815,-131.5 932,-131.5 932,-112.5 815,-112.5"/>
<text text-anchor="middle" x="873.5" y="-119.5" font-family="Helvetica,sans-Serif" font-size="10.00" fill="#000000">RefinementCriteria.cpp</text>
</a>
</g>
</g>
<!-- Node9&#45;&gt;Node26 -->
<g id="edge18" class="edge">
<title>Node9&#45;&gt;Node26</title>
<path fill="none" stroke="#191970" d="M478.2268,-170.9903C556.0066,-162.4317 690.4274,-147.2096 805.5,-132 808.5757,-131.5935 811.7281,-131.1664 814.9098,-130.7271"/>
<polygon fill="#191970" stroke="#191970" points="477.658,-167.5317 468.0997,-172.1022 478.422,-174.4898 477.658,-167.5317"/>
</g>
<!-- Node12&#45;&gt;Node11 -->
<g id="edge4" class="edge">
<title>Node12&#45;&gt;Node11</title>
<path fill="none" stroke="#191970" d="M137.997,-108.766C111.1632,-98.4735 74.6082,-84.4525 50.7856,-75.315"/>
<polygon fill="#191970" stroke="#191970" points="136.8115,-112.0598 147.4017,-112.3733 139.3184,-105.5241 136.8115,-112.0598"/>
</g>
<!-- Node13 -->
<g id="node5" class="node">
<title>Node13</title>
<g id="a_node5"><a xlink:href="_cart_box_refinement_8cpp.html" target="_top" xlink:title="CartBoxRefinement.cpp">
<polygon fill="#ffffff" stroke="#000000" points="68.5,-56.5 68.5,-75.5 190.5,-75.5 190.5,-56.5 68.5,-56.5"/>
<text text-anchor="middle" x="129.5" y="-63.5" font-family="Helvetica,sans-Serif" font-size="10.00" fill="#000000">CartBoxRefinement.cpp</text>
</a>
</g>
</g>
<!-- Node12&#45;&gt;Node13 -->
<g id="edge5" class="edge">
<title>Node12&#45;&gt;Node13</title>
<path fill="none" stroke="#191970" d="M158.8408,-104.2112C151.5737,-94.7472 142.9219,-83.4797 136.9042,-75.6427"/>
<polygon fill="#191970" stroke="#191970" points="156.1436,-106.4456 165.01,-112.2455 161.6957,-102.1824 156.1436,-106.4456"/>
</g>
<!-- Node15 -->
<g id="node7" class="node">
<title>Node15</title>
<g id="a_node7"><a xlink:href="_box_refiner_8_h.html" target="_top" xlink:title="BoxRefiner.H">
<polygon fill="#ffffff" stroke="#000000" points="208.5,-56.5 208.5,-75.5 284.5,-75.5 284.5,-56.5 208.5,-56.5"/>
<text text-anchor="middle" x="246.5" y="-63.5" font-family="Helvetica,sans-Serif" font-size="10.00" fill="#000000">BoxRefiner.H</text>
</a>
</g>
</g>
<!-- Node14&#45;&gt;Node15 -->
<g id="edge7" class="edge">
<title>Node14&#45;&gt;Node15</title>
<path fill="none" stroke="#191970" d="M323.4971,-107.46C304.8864,-97.4388 280.6701,-84.3993 264.4078,-75.6427"/>
<polygon fill="#191970" stroke="#191970" points="321.9205,-110.5861 332.3846,-112.2455 325.2392,-104.4228 321.9205,-110.5861"/>
</g>
<!-- Node17 -->
<g id="node9" class="node">
<title>Node17</title>
<g id="a_node9"><a xlink:href="_cylinder_refiner_8_h.html" target="_top" xlink:title="CylinderRefiner.H">
<polygon fill="#ffffff" stroke="#000000" points="303,-56.5 303,-75.5 398,-75.5 398,-56.5 303,-56.5"/>
<text text-anchor="middle" x="350.5" y="-63.5" font-family="Helvetica,sans-Serif" font-size="10.00" fill="#000000">CylinderRefiner.H</text>
</a>
</g>
</g>
<!-- Node14&#45;&gt;Node17 -->
<g id="edge9" class="edge">
<title>Node14&#45;&gt;Node17</title>
<path fill="none" stroke="#191970" d="M350.5,-102.1575C350.5,-93.155 350.5,-82.9199 350.5,-75.6427"/>
<polygon fill="#191970" stroke="#191970" points="347.0001,-102.2455 350.5,-112.2455 354.0001,-102.2456 347.0001,-102.2455"/>
</g>
<!-- Node19 -->
<g id="node11" class="node">
<title>Node19</title>
<g id="a_node11"><a xlink:href="_geometry_refinement_8cpp.html" target="_top" xlink:title="GeometryRefinement.cpp">
<polygon fill="#ffffff" stroke="#000000" points="416.5,-56.5 416.5,-75.5 544.5,-75.5 544.5,-56.5 416.5,-56.5"/>
<text text-anchor="middle" x="480.5" y="-63.5" font-family="Helvetica,sans-Serif" font-size="10.00" fill="#000000">GeometryRefinement.cpp</text>
</a>
</g>
</g>
<!-- Node14&#45;&gt;Node19 -->
<g id="edge11" class="edge">
<title>Node14&#45;&gt;Node19</title>
<path fill="none" stroke="#191970" d="M382.1102,-108.3833C405.7535,-98.1985 437.4876,-84.5284 458.4438,-75.5011"/>
<polygon fill="#191970" stroke="#191970" points="380.6472,-105.2025 372.8478,-112.3733 383.4166,-111.6314 380.6472,-105.2025"/>
</g>
<!-- Node16 -->
<g id="node8" class="node">
<title>Node16</title>
<g id="a_node8"><a xlink:href="_box_refiner_8cpp.html" target="_top" xlink:title="BoxRefiner.cpp">
<polygon fill="#ffffff" stroke="#000000" points="200.5,-.5 200.5,-19.5 284.5,-19.5 284.5,-.5 200.5,-.5"/>
<text text-anchor="middle" x="242.5" y="-7.5" font-family="Helvetica,sans-Serif" font-size="10.00" fill="#000000">BoxRefiner.cpp</text>
</a>
</g>
</g>
<!-- Node15&#45;&gt;Node16 -->
<g id="edge8" class="edge">
<title>Node15&#45;&gt;Node16</title>
<path fill="none" stroke="#191970" d="M245.0827,-46.1575C244.4396,-37.155 243.7086,-26.9199 243.1888,-19.6427"/>
<polygon fill="#191970" stroke="#191970" points="241.5996,-46.5204 245.8033,-56.2455 248.5818,-46.0216 241.5996,-46.5204"/>
</g>
<!-- Node18 -->
<g id="node10" class="node">
<title>Node18</title>
<g id="a_node10"><a xlink:href="_cylinder_refiner_8cpp.html" target="_top" xlink:title="CylinderRefiner.cpp">
<polygon fill="#ffffff" stroke="#000000" points="303,-.5 303,-19.5 406,-19.5 406,-.5 303,-.5"/>
<text text-anchor="middle" x="354.5" y="-7.5" font-family="Helvetica,sans-Serif" font-size="10.00" fill="#000000">CylinderRefiner.cpp</text>
</a>
</g>
</g>
<!-- Node17&#45;&gt;Node18 -->
<g id="edge10" class="edge">
<title>Node17&#45;&gt;Node18</title>
<path fill="none" stroke="#191970" d="M351.9173,-46.1575C352.5604,-37.155 353.2914,-26.9199 353.8112,-19.6427"/>
<polygon fill="#191970" stroke="#191970" points="348.4182,-46.0216 351.1967,-56.2455 355.4004,-46.5204 348.4182,-46.0216"/>
</g>
<!-- Node21 -->
<g id="node13" class="node">
<title>Node21</title>
<g id="a_node13"><a xlink:href="_field_refinement_8cpp.html" target="_top" xlink:title="FieldRefinement.cpp">
<polygon fill="#ffffff" stroke="#000000" points="563,-56.5 563,-75.5 670,-75.5 670,-56.5 563,-56.5"/>
<text text-anchor="middle" x="616.5" y="-63.5" font-family="Helvetica,sans-Serif" font-size="10.00" fill="#000000">FieldRefinement.cpp</text>
</a>
</g>
</g>
<!-- Node20&#45;&gt;Node21 -->
<g id="edge13" class="edge">
<title>Node20&#45;&gt;Node21</title>
<path fill="none" stroke="#191970" d="M510.9621,-108.5189C536.2769,-98.3201 570.4103,-84.5685 592.9169,-75.5011"/>
<polygon fill="#191970" stroke="#191970" points="509.3626,-105.3899 501.395,-112.3733 511.9784,-111.8827 509.3626,-105.3899"/>
</g>
<!-- Node23 -->
<g id="node15" class="node">
<title>Node23</title>
<g id="a_node15"><a xlink:href="_overset_refinement_8cpp.html" target="_top" xlink:title="OversetRefinement.cpp">
<polygon fill="#ffffff" stroke="#000000" points="688.5,-56.5 688.5,-75.5 808.5,-75.5 808.5,-56.5 688.5,-56.5"/>
<text text-anchor="middle" x="748.5" y="-63.5" font-family="Helvetica,sans-Serif" font-size="10.00" fill="#000000">OversetRefinement.cpp</text>
</a>
</g>
</g>
<!-- Node22&#45;&gt;Node23 -->
<g id="edge15" class="edge">
<title>Node22&#45;&gt;Node23</title>
<path fill="none" stroke="#191970" d="M635.4153,-108.7888C662.4383,-98.5639 699.214,-84.6488 723.3899,-75.5011"/>
<polygon fill="#191970" stroke="#191970" points="634.0563,-105.5608 625.9421,-112.3733 636.5336,-112.1078 634.0563,-105.5608"/>
</g>
<!-- Node25 -->
<g id="node17" class="node">
<title>Node25</title>
<g id="a_node17"><a xlink:href="_q_criterion_refinement_8cpp.html" target="_top" xlink:title="QCriterionRefinement.cpp">
<polygon fill="#ffffff" stroke="#000000" points="826.5,-56.5 826.5,-75.5 956.5,-75.5 956.5,-56.5 826.5,-56.5"/>
<text text-anchor="middle" x="891.5" y="-63.5" font-family="Helvetica,sans-Serif" font-size="10.00" fill="#000000">QCriterionRefinement.cpp</text>
</a>
</g>
</g>
<!-- Node24&#45;&gt;Node25 -->
<g id="edge17" class="edge">
<title>Node24&#45;&gt;Node25</title>
<path fill="none" stroke="#191970" d="M771.9284,-108.9231C800.4461,-98.686 839.4381,-84.6889 865.0326,-75.5011"/>
<polygon fill="#191970" stroke="#191970" points="770.5468,-105.7004 762.3174,-112.3733 772.9119,-112.2887 770.5468,-105.7004"/>
</g>
</g>
</svg>
