<?xml version="1.0" encoding="UTF-8" standalone="no"?>
<!DOCTYPE svg PUBLIC "-//W3C//DTD SVG 1.1//EN"
 "http://www.w3.org/Graphics/SVG/1.1/DTD/svg11.dtd">
<!-- Generated by graphviz version 2.40.1 (20161225.0304)
 -->
<!-- Title: SchemeTraits.H Pages: 1 -->
<svg width="1197pt" height="308pt"
 viewBox="0.00 0.00 1197.05 308.00" xmlns="http://www.w3.org/2000/svg" xmlns:xlink="http://www.w3.org/1999/xlink">
<g id="graph0" class="graph" transform="scale(1 1) rotate(0) translate(4 304)">
<title>SchemeTraits.H</title>
<polygon fill="#ffffff" stroke="transparent" points="-4,4 -4,-304 1193.0543,-304 1193.0543,4 -4,4"/>
<!-- Node2 -->
<g id="node1" class="node">
<title>Node2</title>
<polygon fill="#bfbfbf" stroke="#000000" points="488.5543,-280.5 488.5543,-299.5 576.5543,-299.5 576.5543,-280.5 488.5543,-280.5"/>
<text text-anchor="middle" x="532.5543" y="-287.5" font-family="Helvetica,sans-Serif" font-size="10.00" fill="#000000">SchemeTraits.H</text>
</g>
<!-- Node3 -->
<g id="node2" class="node">
<title>Node3</title>
<g id="a_node2"><a xlink:href="_adv_op___godunov_8_h.html" target="_top" xlink:title="AdvOp_Godunov.H">
<polygon fill="#ffffff" stroke="#000000" points="419.0543,-112.5 419.0543,-131.5 520.0543,-131.5 520.0543,-112.5 419.0543,-112.5"/>
<text text-anchor="middle" x="469.5543" y="-119.5" font-family="Helvetica,sans-Serif" font-size="10.00" fill="#000000">AdvOp_Godunov.H</text>
</a>
</g>
</g>
<!-- Node2&#45;&gt;Node3 -->
<g id="edge1" class="edge">
<title>Node2&#45;&gt;Node3</title>
<path fill="none" stroke="#191970" d="M506.3837,-274.8439C495.5127,-267.0896 483.9584,-256.6112 477.5543,-244 458.3331,-206.1487 464.2622,-152.9772 467.776,-131.5259"/>
<polygon fill="#191970" stroke="#191970" points="504.5786,-277.8467 514.8441,-280.4675 508.4535,-272.017 504.5786,-277.8467"/>
</g>
<!-- Node12 -->
<g id="node11" class="node">
<title>Node12</title>
<g id="a_node11"><a xlink:href="_adv_op___m_o_l_8_h.html" target="_top" xlink:title="AdvOp_MOL.H">
<polygon fill="#ffffff" stroke="#000000" points="221.0543,-112.5 221.0543,-131.5 304.0543,-131.5 304.0543,-112.5 221.0543,-112.5"/>
<text text-anchor="middle" x="262.5543" y="-119.5" font-family="Helvetica,sans-Serif" font-size="10.00" fill="#000000">AdvOp_MOL.H</text>
</a>
</g>
</g>
<!-- Node2&#45;&gt;Node12 -->
<g id="edge10" class="edge">
<title>Node2&#45;&gt;Node12</title>
<path fill="none" stroke="#191970" d="M502.04,-276.0391C483.8584,-267.4036 460.5102,-255.7529 440.5543,-244 375.9903,-205.9753 303.665,-152.9013 275.1122,-131.501"/>
<polygon fill="#191970" stroke="#191970" points="500.7535,-279.3017 511.2927,-280.3861 503.7301,-272.9661 500.7535,-279.3017"/>
</g>
<!-- Node13 -->
<g id="node12" class="node">
<title>Node13</title>
<g id="a_node12"><a xlink:href="_comp_r_h_s_ops_8_h.html" target="_top" xlink:title="CompRHSOps.H">
<polygon fill="#ffffff" stroke="#000000" points="486.0543,-224.5 486.0543,-243.5 579.0543,-243.5 579.0543,-224.5 486.0543,-224.5"/>
<text text-anchor="middle" x="532.5543" y="-231.5" font-family="Helvetica,sans-Serif" font-size="10.00" fill="#000000">CompRHSOps.H</text>
</a>
</g>
</g>
<!-- Node2&#45;&gt;Node13 -->
<g id="edge17" class="edge">
<title>Node2&#45;&gt;Node13</title>
<path fill="none" stroke="#191970" d="M532.5543,-270.1575C532.5543,-261.155 532.5543,-250.9199 532.5543,-243.6427"/>
<polygon fill="#191970" stroke="#191970" points="529.0544,-270.2455 532.5543,-280.2455 536.0544,-270.2456 529.0544,-270.2455"/>
</g>
<!-- Node15 -->
<g id="node14" class="node">
<title>Node15</title>
<g id="a_node14"><a xlink:href="density_8_h.html" target="_top" xlink:title="density.H">
<polygon fill="#ffffff" stroke="#000000" points="50.0543,-112.5 50.0543,-131.5 109.0543,-131.5 109.0543,-112.5 50.0543,-112.5"/>
<text text-anchor="middle" x="79.5543" y="-119.5" font-family="Helvetica,sans-Serif" font-size="10.00" fill="#000000">density.H</text>
</a>
</g>
</g>
<!-- Node2&#45;&gt;Node15 -->
<g id="edge42" class="edge">
<title>Node2&#45;&gt;Node15</title>
<path fill="none" stroke="#191970" d="M479.1506,-278.1339C444.3934,-269.8618 398.2994,-257.8512 358.5543,-244 258.2126,-209.0308 143.4435,-153.7648 98.7602,-131.6318"/>
<polygon fill="#191970" stroke="#191970" points="478.5595,-281.5903 489.0952,-280.4724 480.1619,-274.7762 478.5595,-281.5903"/>
</g>
<!-- Node17 -->
<g id="node16" class="node">
<title>Node17</title>
<g id="a_node16"><a xlink:href="icns_8_h.html" target="_top" xlink:title="icns.H">
<polygon fill="#ffffff" stroke="#000000" points="860.0543,-112.5 860.0543,-131.5 905.0543,-131.5 905.0543,-112.5 860.0543,-112.5"/>
<text text-anchor="middle" x="882.5543" y="-119.5" font-family="Helvetica,sans-Serif" font-size="10.00" fill="#000000">icns.H</text>
</a>
</g>
</g>
<!-- Node2&#45;&gt;Node17 -->
<g id="edge48" class="edge">
<title>Node2&#45;&gt;Node17</title>
<path fill="none" stroke="#191970" d="M586.6811,-286.415C635.5297,-281.5669 708.4304,-270.2526 766.5543,-244 803.8207,-227.1681 811.7731,-218.0051 839.5543,-188 856.0925,-170.1379 870.4211,-145.207 877.6172,-131.6729"/>
<polygon fill="#191970" stroke="#191970" points="586.2669,-282.9384 576.6363,-287.3544 586.9188,-289.9079 586.2669,-282.9384"/>
</g>
<!-- Node21 -->
<g id="node20" class="node">
<title>Node21</title>
<g id="a_node20"><a xlink:href="levelset_8_h.html" target="_top" xlink:title="levelset.H">
<polygon fill="#ffffff" stroke="#000000" points="618.0543,-112.5 618.0543,-131.5 679.0543,-131.5 679.0543,-112.5 618.0543,-112.5"/>
<text text-anchor="middle" x="648.5543" y="-119.5" font-family="Helvetica,sans-Serif" font-size="10.00" fill="#000000">levelset.H</text>
</a>
</g>
</g>
<!-- Node2&#45;&gt;Node21 -->
<g id="edge49" class="edge">
<title>Node2&#45;&gt;Node21</title>
<path fill="none" stroke="#191970" d="M564.0865,-275.7685C578.1138,-268.0849 593.8437,-257.403 604.5543,-244 632.8072,-208.645 643.8189,-153.599 647.2465,-131.5784"/>
<polygon fill="#191970" stroke="#191970" points="562.4516,-272.6737 555.1844,-280.3833 565.6732,-278.8883 562.4516,-272.6737"/>
</g>
<!-- Node23 -->
<g id="node22" class="node">
<title>Node23</title>
<g id="a_node22"><a xlink:href="_s_d_r_8_h.html" target="_top" xlink:title="SDR.H">
<polygon fill="#ffffff" stroke="#000000" points="154.0543,-112.5 154.0543,-131.5 203.0543,-131.5 203.0543,-112.5 154.0543,-112.5"/>
<text text-anchor="middle" x="178.5543" y="-119.5" font-family="Helvetica,sans-Serif" font-size="10.00" fill="#000000">SDR.H</text>
</a>
</g>
</g>
<!-- Node2&#45;&gt;Node23 -->
<g id="edge51" class="edge">
<title>Node2&#45;&gt;Node23</title>
<path fill="none" stroke="#191970" d="M491.7526,-277.245C466.0548,-268.7741 432.4037,-256.8727 403.5543,-244 322.1936,-207.6965 230.2602,-153.4234 194.2225,-131.5972"/>
<polygon fill="#191970" stroke="#191970" points="490.9437,-280.6624 501.536,-280.4313 493.1115,-274.0065 490.9437,-280.6624"/>
</g>
<!-- Node24 -->
<g id="node23" class="node">
<title>Node24</title>
<g id="a_node23"><a xlink:href="temperature_8_h.html" target="_top" xlink:title="temperature.H">
<polygon fill="#ffffff" stroke="#000000" points="322.0543,-112.5 322.0543,-131.5 401.0543,-131.5 401.0543,-112.5 322.0543,-112.5"/>
<text text-anchor="middle" x="361.5543" y="-119.5" font-family="Helvetica,sans-Serif" font-size="10.00" fill="#000000">temperature.H</text>
</a>
</g>
</g>
<!-- Node2&#45;&gt;Node24 -->
<g id="edge52" class="edge">
<title>Node2&#45;&gt;Node24</title>
<path fill="none" stroke="#191970" d="M507.6934,-275.1605C494.5494,-266.7784 478.5012,-255.6628 465.5543,-244 424.1964,-206.7442 383.9837,-153.2377 368.3697,-131.6113"/>
<polygon fill="#191970" stroke="#191970" points="505.918,-278.1781 516.2553,-280.4999 509.6221,-272.2385 505.918,-278.1781"/>
</g>
<!-- Node25 -->
<g id="node24" class="node">
<title>Node25</title>
<g id="a_node24"><a xlink:href="_t_k_e_8_h.html" target="_top" xlink:title="TKE.H">
<polygon fill="#ffffff" stroke="#000000" points="538.0543,-112.5 538.0543,-131.5 585.0543,-131.5 585.0543,-112.5 538.0543,-112.5"/>
<text text-anchor="middle" x="561.5543" y="-119.5" font-family="Helvetica,sans-Serif" font-size="10.00" fill="#000000">TKE.H</text>
</a>
</g>
</g>
<!-- Node2&#45;&gt;Node25 -->
<g id="edge53" class="edge">
<title>Node2&#45;&gt;Node25</title>
<path fill="none" stroke="#191970" d="M560.0469,-274.8126C571.0512,-267.1458 582.5298,-256.7453 588.5543,-244 607.0028,-204.9714 580.4546,-152.9 567.7177,-131.6468"/>
<polygon fill="#191970" stroke="#191970" points="557.9422,-272.0052 551.4367,-280.3676 561.7371,-277.8873 557.9422,-272.0052"/>
</g>
<!-- Node27 -->
<g id="node26" class="node">
<title>Node27</title>
<g id="a_node26"><a xlink:href="_diffusion_ops_8_h.html" target="_top" xlink:title="DiffusionOps.H">
<polygon fill="#ffffff" stroke="#000000" points="673.5543,-224.5 673.5543,-243.5 757.5543,-243.5 757.5543,-224.5 673.5543,-224.5"/>
<text text-anchor="middle" x="715.5543" y="-231.5" font-family="Helvetica,sans-Serif" font-size="10.00" fill="#000000">DiffusionOps.H</text>
</a>
</g>
</g>
<!-- Node2&#45;&gt;Node27 -->
<g id="edge43" class="edge">
<title>Node2&#45;&gt;Node27</title>
<path fill="none" stroke="#191970" d="M573.9793,-277.3235C607.5399,-267.0536 654.0884,-252.8093 684.506,-243.5011"/>
<polygon fill="#191970" stroke="#191970" points="572.5513,-274.1002 564.0132,-280.3733 574.5996,-280.7938 572.5513,-274.1002"/>
</g>
<!-- Node29 -->
<g id="node28" class="node">
<title>Node29</title>
<g id="a_node28"><a xlink:href="_p_d_e_base_8cpp.html" target="_top" xlink:title="PDEBase.cpp">
<polygon fill="#ffffff" stroke="#000000" points="887.0543,-224.5 887.0543,-243.5 966.0543,-243.5 966.0543,-224.5 887.0543,-224.5"/>
<text text-anchor="middle" x="926.5543" y="-231.5" font-family="Helvetica,sans-Serif" font-size="10.00" fill="#000000">PDEBase.cpp</text>
</a>
</g>
</g>
<!-- Node2&#45;&gt;Node29 -->
<g id="edge50" class="edge">
<title>Node2&#45;&gt;Node29</title>
<path fill="none" stroke="#191970" d="M586.6005,-283.5113C653.7729,-275.2573 771.8547,-260.1263 872.5543,-244 877.1674,-243.2613 881.9929,-242.4389 886.7805,-241.5921"/>
<polygon fill="#191970" stroke="#191970" points="586.1679,-280.0381 576.6674,-284.7273 587.0186,-286.9862 586.1679,-280.0381"/>
</g>
<!-- Node4 -->
<g id="node3" class="node">
<title>Node4</title>
<g id="a_node3"><a xlink:href="density_8cpp.html" target="_top" xlink:title="density.cpp">
<polygon fill="#ffffff" stroke="#000000" points="53.0543,-.5 53.0543,-19.5 120.0543,-19.5 120.0543,-.5 53.0543,-.5"/>
<text text-anchor="middle" x="86.5543" y="-7.5" font-family="Helvetica,sans-Serif" font-size="10.00" fill="#000000">density.cpp</text>
</a>
</g>
</g>
<!-- Node3&#45;&gt;Node4 -->
<g id="edge2" class="edge">
<title>Node3&#45;&gt;Node4</title>
<path fill="none" stroke="#191970" d="M446.5736,-106.8191C419.8956,-89.4478 377.2926,-62.5489 359.5543,-56 277.0413,-25.5363 172.9927,-15.1201 120.3619,-11.6567"/>
<polygon fill="#191970" stroke="#191970" points="444.6674,-109.7545 454.9514,-112.3019 448.5005,-103.8973 444.6674,-109.7545"/>
</g>
<!-- Node5 -->
<g id="node4" class="node">
<title>Node5</title>
<g id="a_node4"><a xlink:href="icns__ops_8_h.html" target="_top" xlink:title="icns_ops.H">
<polygon fill="#ffffff" stroke="#000000" points="762.5543,-56.5 762.5543,-75.5 828.5543,-75.5 828.5543,-56.5 762.5543,-56.5"/>
<text text-anchor="middle" x="795.5543" y="-63.5" font-family="Helvetica,sans-Serif" font-size="10.00" fill="#000000">icns_ops.H</text>
</a>
</g>
</g>
<!-- Node3&#45;&gt;Node5 -->
<g id="edge3" class="edge">
<title>Node3&#45;&gt;Node5</title>
<path fill="none" stroke="#191970" d="M530.3557,-111.5556C598.8848,-99.7837 707.8122,-81.0723 762.2704,-71.7175"/>
<polygon fill="#191970" stroke="#191970" points="529.3972,-108.1689 520.1342,-113.3114 530.5824,-115.0678 529.3972,-108.1689"/>
</g>
<!-- Node8 -->
<g id="node7" class="node">
<title>Node8</title>
<g id="a_node7"><a xlink:href="levelset_8cpp.html" target="_top" xlink:title="levelset.cpp">
<polygon fill="#ffffff" stroke="#000000" points="543.0543,-.5 543.0543,-19.5 612.0543,-19.5 612.0543,-.5 543.0543,-.5"/>
<text text-anchor="middle" x="577.5543" y="-7.5" font-family="Helvetica,sans-Serif" font-size="10.00" fill="#000000">levelset.cpp</text>
</a>
</g>
</g>
<!-- Node3&#45;&gt;Node8 -->
<g id="edge6" class="edge">
<title>Node3&#45;&gt;Node8</title>
<path fill="none" stroke="#191970" d="M478.301,-102.9574C485.3791,-88.911 496.3268,-69.9045 509.5543,-56 523.9954,-40.8198 544.2733,-27.9056 558.9231,-19.6605"/>
<polygon fill="#191970" stroke="#191970" points="475.0514,-101.6379 473.8536,-112.1648 481.3546,-104.6825 475.0514,-101.6379"/>
</g>
<!-- Node9 -->
<g id="node8" class="node">
<title>Node9</title>
<g id="a_node8"><a xlink:href="_s_d_r_8cpp.html" target="_top" xlink:title="SDR.cpp">
<polygon fill="#ffffff" stroke="#000000" points="149.0543,-56.5 149.0543,-75.5 206.0543,-75.5 206.0543,-56.5 149.0543,-56.5"/>
<text text-anchor="middle" x="177.5543" y="-63.5" font-family="Helvetica,sans-Serif" font-size="10.00" fill="#000000">SDR.cpp</text>
</a>
</g>
</g>
<!-- Node3&#45;&gt;Node9 -->
<g id="edge7" class="edge">
<title>Node3&#45;&gt;Node9</title>
<path fill="none" stroke="#191970" d="M409.6474,-110.511C347.6423,-98.6196 253.4068,-80.5471 206.3709,-71.5265"/>
<polygon fill="#191970" stroke="#191970" points="409.2093,-113.9907 419.6895,-112.4369 410.5278,-107.116 409.2093,-113.9907"/>
</g>
<!-- Node10 -->
<g id="node9" class="node">
<title>Node10</title>
<g id="a_node9"><a xlink:href="temperature_8cpp.html" target="_top" xlink:title="temperature.cpp">
<polygon fill="#ffffff" stroke="#000000" points="263.0543,-56.5 263.0543,-75.5 350.0543,-75.5 350.0543,-56.5 263.0543,-56.5"/>
<text text-anchor="middle" x="306.5543" y="-63.5" font-family="Helvetica,sans-Serif" font-size="10.00" fill="#000000">temperature.cpp</text>
</a>
</g>
</g>
<!-- Node3&#45;&gt;Node10 -->
<g id="edge8" class="edge">
<title>Node3&#45;&gt;Node10</title>
<path fill="none" stroke="#191970" d="M431.881,-109.057C402.0501,-98.8084 361.0691,-84.729 334.2094,-75.5011"/>
<polygon fill="#191970" stroke="#191970" points="430.939,-112.4341 441.5336,-112.3733 433.2134,-105.8139 430.939,-112.4341"/>
</g>
<!-- Node11 -->
<g id="node10" class="node">
<title>Node11</title>
<g id="a_node10"><a xlink:href="_t_k_e_8cpp.html" target="_top" xlink:title="TKE.cpp">
<polygon fill="#ffffff" stroke="#000000" points="407.0543,-56.5 407.0543,-75.5 462.0543,-75.5 462.0543,-56.5 407.0543,-56.5"/>
<text text-anchor="middle" x="434.5543" y="-63.5" font-family="Helvetica,sans-Serif" font-size="10.00" fill="#000000">TKE.cpp</text>
</a>
</g>
</g>
<!-- Node3&#45;&gt;Node11 -->
<g id="edge9" class="edge">
<title>Node3&#45;&gt;Node11</title>
<path fill="none" stroke="#191970" d="M458.0728,-103.6296C452.2348,-94.2887 445.3792,-83.3197 440.581,-75.6427"/>
<polygon fill="#191970" stroke="#191970" points="455.1898,-105.6206 463.4578,-112.2455 461.1258,-101.9105 455.1898,-105.6206"/>
</g>
<!-- Node6 -->
<g id="node5" class="node">
<title>Node6</title>
<g id="a_node5"><a xlink:href="icns_8cpp.html" target="_top" xlink:title="icns.cpp">
<polygon fill="#ffffff" stroke="#000000" points="888.0543,-.5 888.0543,-19.5 941.0543,-19.5 941.0543,-.5 888.0543,-.5"/>
<text text-anchor="middle" x="914.5543" y="-7.5" font-family="Helvetica,sans-Serif" font-size="10.00" fill="#000000">icns.cpp</text>
</a>
</g>
</g>
<!-- Node5&#45;&gt;Node6 -->
<g id="edge4" class="edge">
<title>Node5&#45;&gt;Node6</title>
<path fill="none" stroke="#191970" d="M825.0687,-52.1109C846.6481,-41.9559 875.352,-28.4482 894.3645,-19.5011"/>
<polygon fill="#191970" stroke="#191970" points="823.5691,-48.9484 816.0112,-56.3733 826.5497,-55.2821 823.5691,-48.9484"/>
</g>
<!-- Node7 -->
<g id="node6" class="node">
<title>Node7</title>
<g id="a_node6"><a xlink:href="icns__ops_8cpp.html" target="_top" xlink:title="icns_ops.cpp">
<polygon fill="#ffffff" stroke="#000000" points="758.5543,-.5 758.5543,-19.5 832.5543,-19.5 832.5543,-.5 758.5543,-.5"/>
<text text-anchor="middle" x="795.5543" y="-7.5" font-family="Helvetica,sans-Serif" font-size="10.00" fill="#000000">icns_ops.cpp</text>
</a>
</g>
</g>
<!-- Node5&#45;&gt;Node7 -->
<g id="edge5" class="edge">
<title>Node5&#45;&gt;Node7</title>
<path fill="none" stroke="#191970" d="M795.5543,-46.1575C795.5543,-37.155 795.5543,-26.9199 795.5543,-19.6427"/>
<polygon fill="#191970" stroke="#191970" points="792.0544,-46.2455 795.5543,-56.2455 799.0544,-46.2456 792.0544,-46.2455"/>
</g>
<!-- Node12&#45;&gt;Node4 -->
<g id="edge11" class="edge">
<title>Node12&#45;&gt;Node4</title>
<path fill="none" stroke="#191970" d="M211.3565,-109.5841C188.0141,-102.2997 160.8929,-91.4293 139.5543,-76 118.1189,-60.5006 100.6247,-34.1678 92.1267,-19.8988"/>
<polygon fill="#191970" stroke="#191970" points="210.5179,-112.9863 221.1011,-112.4893 212.5179,-106.278 210.5179,-112.9863"/>
</g>
<!-- Node12&#45;&gt;Node5 -->
<g id="edge12" class="edge">
<title>Node12&#45;&gt;Node5</title>
<path fill="none" stroke="#191970" d="M314.2363,-112.0424C492.8511,-87.003 540.4177,-94.7821 715.5543,-76 731.0024,-74.3433 748.0944,-72.2432 762.5004,-70.3958"/>
<polygon fill="#191970" stroke="#191970" points="313.6529,-108.59 304.2427,-113.4582 314.6348,-115.5208 313.6529,-108.59"/>
</g>
<!-- Node12&#45;&gt;Node8 -->
<g id="edge13" class="edge">
<title>Node12&#45;&gt;Node8</title>
<path fill="none" stroke="#191970" d="M252.8971,-103.0521C246.9855,-88.4916 242.4675,-68.7721 253.5543,-56 272.3622,-34.3333 463.2177,-18.2189 542.898,-12.3846"/>
<polygon fill="#191970" stroke="#191970" points="249.7127,-104.5047 257.0378,-112.1594 256.0851,-101.6075 249.7127,-104.5047"/>
</g>
<!-- Node12&#45;&gt;Node9 -->
<g id="edge14" class="edge">
<title>Node12&#45;&gt;Node9</title>
<path fill="none" stroke="#191970" d="M239.0124,-106.49C224.0154,-96.6096 205.057,-84.1194 192.1905,-75.6427"/>
<polygon fill="#191970" stroke="#191970" points="237.4723,-109.6666 247.7485,-112.2455 241.3234,-103.8212 237.4723,-109.6666"/>
</g>
<!-- Node12&#45;&gt;Node10 -->
<g id="edge15" class="edge">
<title>Node12&#45;&gt;Node10</title>
<path fill="none" stroke="#191970" d="M276.5312,-104.2112C283.9673,-94.7472 292.8203,-83.4797 298.978,-75.6427"/>
<polygon fill="#191970" stroke="#191970" points="273.6447,-102.22 270.2186,-112.2455 279.1489,-106.5447 273.6447,-102.22"/>
</g>
<!-- Node12&#45;&gt;Node11 -->
<g id="edge16" class="edge">
<title>Node12&#45;&gt;Node11</title>
<path fill="none" stroke="#191970" d="M301.6377,-109.2752C333.6977,-98.837 378.2934,-84.3175 406.7934,-75.0384"/>
<polygon fill="#191970" stroke="#191970" points="300.5473,-105.9493 292.1222,-112.3733 302.7145,-112.6054 300.5473,-105.9493"/>
</g>
<!-- Node14 -->
<g id="node13" class="node">
<title>Node14</title>
<g id="a_node13"><a xlink:href="_p_d_e_8_h.html" target="_top" xlink:title="PDE.H">
<polygon fill="#ffffff" stroke="#000000" points="519.5543,-168.5 519.5543,-187.5 567.5543,-187.5 567.5543,-168.5 519.5543,-168.5"/>
<text text-anchor="middle" x="543.5543" y="-175.5" font-family="Helvetica,sans-Serif" font-size="10.00" fill="#000000">PDE.H</text>
</a>
</g>
</g>
<!-- Node13&#45;&gt;Node14 -->
<g id="edge18" class="edge">
<title>Node13&#45;&gt;Node14</title>
<path fill="none" stroke="#191970" d="M536.452,-214.1575C538.2203,-205.155 540.2308,-194.9199 541.6602,-187.6427"/>
<polygon fill="#191970" stroke="#191970" points="532.9636,-213.7584 534.4704,-224.2455 539.8323,-215.1077 532.9636,-213.7584"/>
</g>
<!-- Node14&#45;&gt;Node15 -->
<g id="edge19" class="edge">
<title>Node14&#45;&gt;Node15</title>
<path fill="none" stroke="#191970" d="M508.9044,-174.4517C439.6044,-167.2564 279.03,-150.0894 144.5543,-132 133.0125,-130.4474 120.3491,-128.5445 109.2903,-126.8169"/>
<polygon fill="#191970" stroke="#191970" points="508.9178,-177.9717 519.225,-175.5195 509.6383,-171.0088 508.9178,-177.9717"/>
</g>
<!-- Node14&#45;&gt;Node17 -->
<g id="edge23" class="edge">
<title>Node14&#45;&gt;Node17</title>
<path fill="none" stroke="#191970" d="M577.5854,-172.3784C646.5791,-160.9812 801.3241,-135.4186 859.6895,-125.7771"/>
<polygon fill="#191970" stroke="#191970" points="576.9584,-168.9344 567.6626,-174.0175 578.0994,-175.8408 576.9584,-168.9344"/>
</g>
<!-- Node14&#45;&gt;Node21 -->
<g id="edge31" class="edge">
<title>Node14&#45;&gt;Node21</title>
<path fill="none" stroke="#191970" d="M570.8168,-163.46C589.6065,-153.4388 614.0556,-140.3993 630.4743,-131.6427"/>
<polygon fill="#191970" stroke="#191970" points="569.0204,-160.4514 561.8439,-168.2455 572.3146,-166.6278 569.0204,-160.4514"/>
</g>
<!-- Node14&#45;&gt;Node23 -->
<g id="edge35" class="edge">
<title>Node14&#45;&gt;Node23</title>
<path fill="none" stroke="#191970" d="M508.9935,-175.01C448.293,-169.3601 318.7914,-155.5254 211.5543,-132 208.8645,-131.4099 206.0759,-130.709 203.3108,-129.9562"/>
<polygon fill="#191970" stroke="#191970" points="508.8862,-178.5147 519.1633,-175.9394 509.5234,-171.5437 508.8862,-178.5147"/>
</g>
<!-- Node14&#45;&gt;Node24 -->
<g id="edge37" class="edge">
<title>Node14&#45;&gt;Node24</title>
<path fill="none" stroke="#191970" d="M509.5579,-167.5396C475.9666,-157.2038 425.026,-141.5297 392.5264,-131.5299"/>
<polygon fill="#191970" stroke="#191970" points="508.799,-170.9679 519.3861,-170.5636 510.8577,-164.2775 508.799,-170.9679"/>
</g>
<!-- Node14&#45;&gt;Node25 -->
<g id="edge39" class="edge">
<title>Node14&#45;&gt;Node25</title>
<path fill="none" stroke="#191970" d="M549.837,-158.4538C552.7535,-149.3803 556.0901,-138.9998 558.4549,-131.6427"/>
<polygon fill="#191970" stroke="#191970" points="546.4178,-157.6542 546.6897,-168.2455 553.082,-159.7963 546.4178,-157.6542"/>
</g>
<!-- Node15&#45;&gt;Node4 -->
<g id="edge20" class="edge">
<title>Node15&#45;&gt;Node4</title>
<path fill="none" stroke="#191970" d="M42.8375,-108.3203C17.493,-96.5984 -9.4803,-78.1266 3.5543,-56 14.1742,-37.9725 34.6842,-26.5107 52.6578,-19.5368"/>
<polygon fill="#191970" stroke="#191970" points="41.4588,-111.5374 52.0241,-112.3278 44.2577,-105.1212 41.4588,-111.5374"/>
</g>
<!-- Node16 -->
<g id="node15" class="node">
<title>Node16</title>
<g id="a_node15"><a xlink:href="density__ops_8_h.html" target="_top" xlink:title="density_ops.H">
<polygon fill="#ffffff" stroke="#000000" points="12.5543,-56.5 12.5543,-75.5 92.5543,-75.5 92.5543,-56.5 12.5543,-56.5"/>
<text text-anchor="middle" x="52.5543" y="-63.5" font-family="Helvetica,sans-Serif" font-size="10.00" fill="#000000">density_ops.H</text>
</a>
</g>
</g>
<!-- Node15&#45;&gt;Node16 -->
<g id="edge21" class="edge">
<title>Node15&#45;&gt;Node16</title>
<path fill="none" stroke="#191970" d="M70.4147,-103.0437C65.9739,-93.8331 60.8278,-83.1598 57.2035,-75.6427"/>
<polygon fill="#191970" stroke="#191970" points="67.3556,-104.7579 74.8513,-112.2455 73.6609,-101.7178 67.3556,-104.7579"/>
</g>
<!-- Node16&#45;&gt;Node4 -->
<g id="edge22" class="edge">
<title>Node16&#45;&gt;Node4</title>
<path fill="none" stroke="#191970" d="M63.7078,-47.6296C69.3791,-38.2887 76.0388,-27.3197 80.6999,-19.6427"/>
<polygon fill="#191970" stroke="#191970" points="60.6748,-45.8812 58.4767,-56.2455 66.6583,-49.5141 60.6748,-45.8812"/>
</g>
<!-- Node17&#45;&gt;Node5 -->
<g id="edge25" class="edge">
<title>Node17&#45;&gt;Node5</title>
<path fill="none" stroke="#191970" d="M858.8919,-106.769C843.4752,-96.8456 823.8284,-84.1994 810.5349,-75.6427"/>
<polygon fill="#191970" stroke="#191970" points="857.0971,-109.7761 867.4001,-112.2455 860.8858,-103.89 857.0971,-109.7761"/>
</g>
<!-- Node17&#45;&gt;Node6 -->
<g id="edge24" class="edge">
<title>Node17&#45;&gt;Node6</title>
<path fill="none" stroke="#191970" d="M904.8182,-105.6617C913.6616,-97.7992 922.8388,-87.5637 927.5543,-76 935.3156,-56.9675 926.2606,-32.9094 919.8433,-19.7317"/>
<polygon fill="#191970" stroke="#191970" points="902.4047,-103.1158 896.928,-112.1853 906.8652,-108.5106 902.4047,-103.1158"/>
</g>
<!-- Node18 -->
<g id="node17" class="node">
<title>Node18</title>
<g id="a_node17"><a xlink:href="icns__diffusion_8_h.html" target="_top" xlink:title="icns_diffusion.H">
<polygon fill="#ffffff" stroke="#000000" points="1102.0543,-56.5 1102.0543,-75.5 1189.0543,-75.5 1189.0543,-56.5 1102.0543,-56.5"/>
<text text-anchor="middle" x="1145.5543" y="-63.5" font-family="Helvetica,sans-Serif" font-size="10.00" fill="#000000">icns_diffusion.H</text>
</a>
</g>
</g>
<!-- Node17&#45;&gt;Node18 -->
<g id="edge26" class="edge">
<title>Node17&#45;&gt;Node18</title>
<path fill="none" stroke="#191970" d="M915.4056,-115.0051C962.4989,-104.9776 1049.292,-86.4969 1101.7861,-75.3195"/>
<polygon fill="#191970" stroke="#191970" points="914.4856,-111.6224 905.4338,-117.1283 915.9435,-118.4689 914.4856,-111.6224"/>
</g>
<!-- Node19 -->
<g id="node18" class="node">
<title>Node19</title>
<g id="a_node18"><a xlink:href="icns__bcop_8_h.html" target="_top" xlink:title="icns_bcop.H">
<polygon fill="#ffffff" stroke="#000000" points="847.0543,-56.5 847.0543,-75.5 918.0543,-75.5 918.0543,-56.5 847.0543,-56.5"/>
<text text-anchor="middle" x="882.5543" y="-63.5" font-family="Helvetica,sans-Serif" font-size="10.00" fill="#000000">icns_bcop.H</text>
</a>
</g>
</g>
<!-- Node17&#45;&gt;Node19 -->
<g id="edge28" class="edge">
<title>Node17&#45;&gt;Node19</title>
<path fill="none" stroke="#191970" d="M882.5543,-102.1575C882.5543,-93.155 882.5543,-82.9199 882.5543,-75.6427"/>
<polygon fill="#191970" stroke="#191970" points="879.0544,-102.2455 882.5543,-112.2455 886.0544,-102.2456 879.0544,-102.2455"/>
</g>
<!-- Node20 -->
<g id="node19" class="node">
<title>Node20</title>
<g id="a_node19"><a xlink:href="_power_law_profile_8cpp.html" target="_top" xlink:title="PowerLawProfile.cpp">
<polygon fill="#ffffff" stroke="#000000" points="975.0543,-56.5 975.0543,-75.5 1084.0543,-75.5 1084.0543,-56.5 975.0543,-56.5"/>
<text text-anchor="middle" x="1029.5543" y="-63.5" font-family="Helvetica,sans-Serif" font-size="10.00" fill="#000000">PowerLawProfile.cpp</text>
</a>
</g>
</g>
<!-- Node17&#45;&gt;Node20 -->
<g id="edge30" class="edge">
<title>Node17&#45;&gt;Node20</title>
<path fill="none" stroke="#191970" d="M914.5917,-109.7953C941.5624,-99.5208 979.603,-85.0291 1004.4179,-75.5758"/>
<polygon fill="#191970" stroke="#191970" points="913.2998,-106.542 905.2009,-113.3727 915.7918,-113.0834 913.2998,-106.542"/>
</g>
<!-- Node18&#45;&gt;Node6 -->
<g id="edge27" class="edge">
<title>Node18&#45;&gt;Node6</title>
<path fill="none" stroke="#191970" d="M1096.3554,-54.073C1048.9654,-42.5845 979.0584,-25.6374 941.2261,-16.4659"/>
<polygon fill="#191970" stroke="#191970" points="1095.5634,-57.4823 1106.1065,-56.4369 1097.2126,-50.6793 1095.5634,-57.4823"/>
</g>
<!-- Node19&#45;&gt;Node6 -->
<g id="edge29" class="edge">
<title>Node19&#45;&gt;Node6</title>
<path fill="none" stroke="#191970" d="M893.2188,-47.3372C898.5197,-38.0605 904.7031,-27.2398 909.0442,-19.6427"/>
<polygon fill="#191970" stroke="#191970" points="890.0509,-45.8266 888.1283,-56.2455 896.1286,-49.2996 890.0509,-45.8266"/>
</g>
<!-- Node21&#45;&gt;Node8 -->
<g id="edge32" class="edge">
<title>Node21&#45;&gt;Node8</title>
<path fill="none" stroke="#191970" d="M680.4161,-107.8833C704.083,-95.3596 729.9666,-75.9959 715.5543,-56 703.2982,-38.9955 648.9117,-24.702 612.186,-16.7536"/>
<polygon fill="#191970" stroke="#191970" points="678.5822,-104.8873 671.2079,-112.4946 681.7166,-111.1464 678.5822,-104.8873"/>
</g>
<!-- Node22 -->
<g id="node21" class="node">
<title>Node22</title>
<g id="a_node21"><a xlink:href="levelset__ops_8_h.html" target="_top" xlink:title="levelset_ops.H">
<polygon fill="#ffffff" stroke="#000000" points="624.5543,-56.5 624.5543,-75.5 706.5543,-75.5 706.5543,-56.5 624.5543,-56.5"/>
<text text-anchor="middle" x="665.5543" y="-63.5" font-family="Helvetica,sans-Serif" font-size="10.00" fill="#000000">levelset_ops.H</text>
</a>
</g>
</g>
<!-- Node21&#45;&gt;Node22 -->
<g id="edge33" class="edge">
<title>Node21&#45;&gt;Node22</title>
<path fill="none" stroke="#191970" d="M654.488,-102.4538C657.2425,-93.3803 660.3937,-82.9998 662.6271,-75.6427"/>
<polygon fill="#191970" stroke="#191970" points="651.0713,-101.66 651.5155,-112.2455 657.7695,-103.6934 651.0713,-101.66"/>
</g>
<!-- Node22&#45;&gt;Node8 -->
<g id="edge34" class="edge">
<title>Node22&#45;&gt;Node8</title>
<path fill="none" stroke="#191970" d="M641.6199,-50.769C626.0261,-40.8456 606.1534,-28.1994 592.7071,-19.6427"/>
<polygon fill="#191970" stroke="#191970" points="639.9102,-53.8296 650.2259,-56.2455 643.6684,-47.9239 639.9102,-53.8296"/>
</g>
<!-- Node23&#45;&gt;Node9 -->
<g id="edge36" class="edge">
<title>Node23&#45;&gt;Node9</title>
<path fill="none" stroke="#191970" d="M178.2,-102.1575C178.0392,-93.155 177.8565,-82.9199 177.7265,-75.6427"/>
<polygon fill="#191970" stroke="#191970" points="174.7021,-102.3097 178.3802,-112.2455 181.701,-102.1846 174.7021,-102.3097"/>
</g>
<!-- Node24&#45;&gt;Node10 -->
<g id="edge38" class="edge">
<title>Node24&#45;&gt;Node10</title>
<path fill="none" stroke="#191970" d="M344.9317,-105.0751C335.4688,-95.4402 323.9575,-83.7196 316.0248,-75.6427"/>
<polygon fill="#191970" stroke="#191970" points="342.4699,-107.5635 351.9741,-112.2455 347.464,-102.6585 342.4699,-107.5635"/>
</g>
<!-- Node25&#45;&gt;Node11 -->
<g id="edge40" class="edge">
<title>Node25&#45;&gt;Node11</title>
<path fill="none" stroke="#191970" d="M530.3652,-108.2473C507.3006,-98.0771 476.4831,-84.4883 456.1015,-75.5011"/>
<polygon fill="#191970" stroke="#191970" points="529.1602,-111.5411 539.7223,-112.3733 531.9844,-105.1361 529.1602,-111.5411"/>
</g>
<!-- Node26 -->
<g id="node25" class="node">
<title>Node26</title>
<g id="a_node25"><a xlink:href="_one_eq_ksgs_8cpp.html" target="_top" xlink:title="OneEqKsgs.cpp">
<polygon fill="#ffffff" stroke="#000000" points="518.5543,-56.5 518.5543,-75.5 606.5543,-75.5 606.5543,-56.5 518.5543,-56.5"/>
<text text-anchor="middle" x="562.5543" y="-63.5" font-family="Helvetica,sans-Serif" font-size="10.00" fill="#000000">OneEqKsgs.cpp</text>
</a>
</g>
</g>
<!-- Node25&#45;&gt;Node26 -->
<g id="edge41" class="edge">
<title>Node25&#45;&gt;Node26</title>
<path fill="none" stroke="#191970" d="M561.9087,-102.1575C562.0694,-93.155 562.2522,-82.9199 562.3821,-75.6427"/>
<polygon fill="#191970" stroke="#191970" points="558.4077,-102.1846 561.7285,-112.2455 565.4066,-102.3097 558.4077,-102.1846"/>
</g>
<!-- Node27&#45;&gt;Node5 -->
<g id="edge46" class="edge">
<title>Node27&#45;&gt;Node5</title>
<path fill="none" stroke="#191970" d="M717.8245,-214.236C719.8238,-200.8214 723.4063,-182.8862 729.5543,-168 744.7716,-131.1546 773.4935,-93.1177 787.4853,-75.7315"/>
<polygon fill="#191970" stroke="#191970" points="714.3383,-213.9019 716.4959,-224.2747 721.2778,-214.8204 714.3383,-213.9019"/>
</g>
<!-- Node27&#45;&gt;Node14 -->
<g id="edge44" class="edge">
<title>Node27&#45;&gt;Node14</title>
<path fill="none" stroke="#191970" d="M676.0843,-221.1493C642.6761,-210.2722 595.8644,-195.0312 567.7449,-185.876"/>
<polygon fill="#191970" stroke="#191970" points="675.3942,-224.6054 685.9865,-224.3733 677.5613,-217.9493 675.3942,-224.6054"/>
</g>
<!-- Node27&#45;&gt;Node18 -->
<g id="edge47" class="edge">
<title>Node27&#45;&gt;Node18</title>
<path fill="none" stroke="#191970" d="M751.4602,-220.9402C776.2644,-211.8547 809.9837,-199.3778 839.5543,-188 945.5074,-147.2329 1071.127,-96.3365 1122.2124,-75.5296"/>
<polygon fill="#191970" stroke="#191970" points="749.9397,-217.7695 741.7497,-224.4907 752.3435,-224.3438 749.9397,-217.7695"/>
</g>
<!-- Node28 -->
<g id="node27" class="node">
<title>Node28</title>
<g id="a_node27"><a xlink:href="_diffusion_ops_8cpp.html" target="_top" xlink:title="DiffusionOps.cpp">
<polygon fill="#ffffff" stroke="#000000" points="738.5543,-168.5 738.5543,-187.5 830.5543,-187.5 830.5543,-168.5 738.5543,-168.5"/>
<text text-anchor="middle" x="784.5543" y="-175.5" font-family="Helvetica,sans-Serif" font-size="10.00" fill="#000000">DiffusionOps.cpp</text>
</a>
</g>
</g>
<!-- Node27&#45;&gt;Node28 -->
<g id="edge45" class="edge">
<title>Node27&#45;&gt;Node28</title>
<path fill="none" stroke="#191970" d="M735.3573,-217.928C747.4179,-208.1397 762.4257,-195.9595 772.6732,-187.6427"/>
<polygon fill="#191970" stroke="#191970" points="733.1322,-215.2262 727.5732,-224.2455 737.5434,-220.6614 733.1322,-215.2262"/>
</g>
</g>
</svg>
