<?xml version="1.0" encoding="UTF-8" standalone="no"?>
<!DOCTYPE svg PUBLIC "-//W3C//DTD SVG 1.1//EN"
 "http://www.w3.org/Graphics/SVG/1.1/DTD/svg11.dtd">
<!-- Generated by graphviz version 2.40.1 (20161225.0304)
 -->
<!-- Title: ScratchField.H Pages: 1 -->
<svg width="3467pt" height="308pt"
 viewBox="0.00 0.00 3467.00 308.00" xmlns="http://www.w3.org/2000/svg" xmlns:xlink="http://www.w3.org/1999/xlink">
<g id="graph0" class="graph" transform="scale(1 1) rotate(0) translate(4 304)">
<title>ScratchField.H</title>
<polygon fill="#ffffff" stroke="transparent" points="-4,4 -4,-304 3463,-304 3463,4 -4,4"/>
<!-- Node7 -->
<g id="node1" class="node">
<title>Node7</title>
<polygon fill="#bfbfbf" stroke="#000000" points="3277,-280.5 3277,-299.5 3359,-299.5 3359,-280.5 3277,-280.5"/>
<text text-anchor="middle" x="3318" y="-287.5" font-family="Helvetica,sans-Serif" font-size="10.00" fill="#000000">ScratchField.H</text>
</g>
<!-- Node8 -->
<g id="node2" class="node">
<title>Node8</title>
<g id="a_node2"><a xlink:href="_field_repo_8_h.html" target="_top" xlink:title="FieldRepo.H">
<polygon fill="#ffffff" stroke="#000000" points="1743.5,-224.5 1743.5,-243.5 1814.5,-243.5 1814.5,-224.5 1743.5,-224.5"/>
<text text-anchor="middle" x="1779" y="-231.5" font-family="Helvetica,sans-Serif" font-size="10.00" fill="#000000">FieldRepo.H</text>
</a>
</g>
</g>
<!-- Node7&#45;&gt;Node8 -->
<g id="edge1" class="edge">
<title>Node7&#45;&gt;Node8</title>
<path fill="none" stroke="#191970" d="M3266.642,-288.1312C3026.5406,-279.3946 2017.8649,-242.6916 1814.7331,-235.3002"/>
<polygon fill="#191970" stroke="#191970" points="3266.7148,-291.6361 3276.8355,-288.5021 3266.9694,-284.6407 3266.7148,-291.6361"/>
</g>
<!-- Node141 -->
<g id="node30" class="node">
<title>Node141</title>
<g id="a_node30"><a xlink:href="_scratch_field_8cpp.html" target="_top" xlink:title="ScratchField.cpp">
<polygon fill="#ffffff" stroke="#000000" points="3273,-168.5 3273,-187.5 3363,-187.5 3363,-168.5 3273,-168.5"/>
<text text-anchor="middle" x="3318" y="-175.5" font-family="Helvetica,sans-Serif" font-size="10.00" fill="#000000">ScratchField.cpp</text>
</a>
</g>
</g>
<!-- Node7&#45;&gt;Node141 -->
<g id="edge69" class="edge">
<title>Node7&#45;&gt;Node141</title>
<path fill="none" stroke="#191970" d="M3318,-270.2702C3318,-245.9985 3318,-205.7725 3318,-187.5249"/>
<polygon fill="#191970" stroke="#191970" points="3314.5001,-270.4509 3318,-280.4509 3321.5001,-270.451 3314.5001,-270.4509"/>
</g>
<!-- Node142 -->
<g id="node31" class="node">
<title>Node142</title>
<g id="a_node31"><a xlink:href="_view_field_8cpp.html" target="_top" xlink:title="ViewField.cpp">
<polygon fill="#ffffff" stroke="#000000" points="3381,-168.5 3381,-187.5 3459,-187.5 3459,-168.5 3381,-168.5"/>
<text text-anchor="middle" x="3420" y="-175.5" font-family="Helvetica,sans-Serif" font-size="10.00" fill="#000000">ViewField.cpp</text>
</a>
</g>
</g>
<!-- Node7&#45;&gt;Node142 -->
<g id="edge70" class="edge">
<title>Node7&#45;&gt;Node142</title>
<path fill="none" stroke="#191970" d="M3333.6264,-272.8416C3355.3943,-248.9396 3394.1056,-206.433 3411.3255,-187.5249"/>
<polygon fill="#191970" stroke="#191970" points="3330.8421,-270.7008 3326.6965,-280.4509 3336.0175,-275.4142 3330.8421,-270.7008"/>
</g>
<!-- Node9 -->
<g id="node3" class="node">
<title>Node9</title>
<g id="a_node3"><a xlink:href="_b_c_interface_8cpp.html" target="_top" xlink:title="BCInterface.cpp">
<polygon fill="#ffffff" stroke="#000000" points="3081,-112.5 3081,-131.5 3169,-131.5 3169,-112.5 3081,-112.5"/>
<text text-anchor="middle" x="3125" y="-119.5" font-family="Helvetica,sans-Serif" font-size="10.00" fill="#000000">BCInterface.cpp</text>
</a>
</g>
</g>
<!-- Node8&#45;&gt;Node9 -->
<g id="edge2" class="edge">
<title>Node8&#45;&gt;Node9</title>
<path fill="none" stroke="#191970" d="M1824.9185,-233.91C2052.9206,-233.2746 3054.4809,-228.1971 3106,-188 3123.2974,-174.5039 3125.5452,-146.3127 3125.4414,-131.5228"/>
<polygon fill="#191970" stroke="#191970" points="1824.6436,-230.4106 1814.6528,-233.937 1824.662,-237.4106 1824.6436,-230.4106"/>
</g>
<!-- Node10 -->
<g id="node4" class="node">
<title>Node10</title>
<g id="a_node4"><a xlink:href="_fixed_gradient_b_c_8_h.html" target="_top" xlink:title="FixedGradientBC.H">
<polygon fill="#ffffff" stroke="#000000" points="3153,-168.5 3153,-187.5 3255,-187.5 3255,-168.5 3153,-168.5"/>
<text text-anchor="middle" x="3204" y="-175.5" font-family="Helvetica,sans-Serif" font-size="10.00" fill="#000000">FixedGradientBC.H</text>
</a>
</g>
</g>
<!-- Node8&#45;&gt;Node10 -->
<g id="edge3" class="edge">
<title>Node8&#45;&gt;Node10</title>
<path fill="none" stroke="#191970" d="M1824.8021,-233.1833C2031.1085,-229.3924 2875.4317,-212.6439 3139,-188 3143.5472,-187.5748 3148.2602,-187.0384 3152.9764,-186.4358"/>
<polygon fill="#191970" stroke="#191970" points="1824.5604,-229.6871 1814.6261,-233.3693 1824.6884,-236.6859 1824.5604,-229.6871"/>
</g>
<!-- Node12 -->
<g id="node6" class="node">
<title>Node12</title>
<g id="a_node6"><a xlink:href="_c_f_d_sim_8_h.html" target="_top" xlink:title="CFDSim.H">
<polygon fill="#ffffff" stroke="#ff0000" points="902.5,-168.5 902.5,-187.5 967.5,-187.5 967.5,-168.5 902.5,-168.5"/>
<text text-anchor="middle" x="935" y="-175.5" font-family="Helvetica,sans-Serif" font-size="10.00" fill="#000000">CFDSim.H</text>
</a>
</g>
</g>
<!-- Node8&#45;&gt;Node12 -->
<g id="edge6" class="edge">
<title>Node8&#45;&gt;Node12</title>
<path fill="none" stroke="#191970" d="M1732.9701,-232.4294C1585.3062,-227.2228 1124.5587,-209.6254 977,-188 974.0335,-187.5652 970.9686,-187.0222 967.9086,-186.4153"/>
<polygon fill="#191970" stroke="#191970" points="1732.9357,-235.9303 1743.0522,-232.7828 1733.181,-228.9346 1732.9357,-235.9303"/>
</g>
<!-- Node13 -->
<g id="node7" class="node">
<title>Node13</title>
<g id="a_node7"><a xlink:href="incflo_8_h.html" target="_top" xlink:title="incflo.H">
<polygon fill="#ffffff" stroke="#ff0000" points="550,-112.5 550,-131.5 600,-131.5 600,-112.5 550,-112.5"/>
<text text-anchor="middle" x="575" y="-119.5" font-family="Helvetica,sans-Serif" font-size="10.00" fill="#000000">incflo.H</text>
</a>
</g>
</g>
<!-- Node8&#45;&gt;Node13 -->
<g id="edge28" class="edge">
<title>Node8&#45;&gt;Node13</title>
<path fill="none" stroke="#191970" d="M1733.0394,-232.4668C1575.5268,-227.0786 1058.1407,-208.241 893,-188 763.5713,-172.1361 731.118,-165.1317 605,-132 603.407,-131.5815 601.7754,-131.1238 600.1361,-130.6418"/>
<polygon fill="#191970" stroke="#191970" points="1733.2049,-235.9743 1743.3183,-232.8167 1733.4432,-228.9784 1733.2049,-235.9743"/>
</g>
<!-- Node45 -->
<g id="node11" class="node">
<title>Node45</title>
<g id="a_node11"><a xlink:href="_a_b_l_mean_boussinesq_8_h.html" target="_top" xlink:title="ABLMeanBoussinesq.H">
<polygon fill="#ffffff" stroke="#ff0000" points="535.5,-56.5 535.5,-75.5 656.5,-75.5 656.5,-56.5 535.5,-56.5"/>
<text text-anchor="middle" x="596" y="-63.5" font-family="Helvetica,sans-Serif" font-size="10.00" fill="#000000">ABLMeanBoussinesq.H</text>
</a>
</g>
</g>
<!-- Node8&#45;&gt;Node45 -->
<g id="edge54" class="edge">
<title>Node8&#45;&gt;Node45</title>
<path fill="none" stroke="#191970" d="M1733.39,-233.2397C1560.6931,-230.1611 946.9647,-217.3553 754,-188 657.2296,-173.2785 600.7705,-209.516 541,-132 525.1525,-111.4475 556.2563,-88.3432 577.8082,-75.6507"/>
<polygon fill="#191970" stroke="#191970" points="1733.3542,-236.7395 1743.4144,-233.4162 1733.4776,-229.7406 1733.3542,-236.7395"/>
</g>
<!-- Node84 -->
<g id="node21" class="node">
<title>Node84</title>
<g id="a_node21"><a xlink:href="_p_d_e_base_8cpp.html" target="_top" xlink:title="PDEBase.cpp">
<polygon fill="#ffffff" stroke="#000000" points="1492.5,-112.5 1492.5,-131.5 1571.5,-131.5 1571.5,-112.5 1492.5,-112.5"/>
<text text-anchor="middle" x="1532" y="-119.5" font-family="Helvetica,sans-Serif" font-size="10.00" fill="#000000">PDEBase.cpp</text>
</a>
</g>
</g>
<!-- Node8&#45;&gt;Node84 -->
<g id="edge58" class="edge">
<title>Node8&#45;&gt;Node84</title>
<path fill="none" stroke="#191970" d="M1733.1566,-232.3842C1590.4,-227.1326 1162.1246,-209.6302 1142,-188 1135.9452,-181.4922 1136.0537,-174.6071 1142,-168 1192.9739,-111.3614 1407.6941,-143.6318 1483,-132 1486.089,-131.5229 1489.2782,-130.9822 1492.4784,-130.4052"/>
<polygon fill="#191970" stroke="#191970" points="1733.2057,-235.8882 1743.3267,-232.7553 1733.4611,-228.8928 1733.2057,-235.8882"/>
</g>
<!-- Node89 -->
<g id="node22" class="node">
<title>Node89</title>
<g id="a_node22"><a xlink:href="_tioga_interface_8cpp.html" target="_top" xlink:title="TiogaInterface.cpp">
<polygon fill="#ffffff" stroke="#000000" points="1589,-112.5 1589,-131.5 1687,-131.5 1687,-112.5 1589,-112.5"/>
<text text-anchor="middle" x="1638" y="-119.5" font-family="Helvetica,sans-Serif" font-size="10.00" fill="#000000">TiogaInterface.cpp</text>
</a>
</g>
</g>
<!-- Node8&#45;&gt;Node89 -->
<g id="edge63" class="edge">
<title>Node8&#45;&gt;Node89</title>
<path fill="none" stroke="#191970" d="M1733.4646,-232.3356C1592.6904,-226.9719 1172.7428,-209.2468 1153,-188 1087.8557,-117.8931 1485.0744,-144.1616 1580,-132 1582.9392,-131.6234 1585.9568,-131.2039 1588.9973,-130.7559"/>
<polygon fill="#191970" stroke="#191970" points="1733.373,-235.8345 1743.4981,-232.7149 1733.6375,-228.8395 1733.373,-235.8345"/>
</g>
<!-- Node126 -->
<g id="node23" class="node">
<title>Node126</title>
<g id="a_node23"><a xlink:href="velocity__bcs_8_h.html" target="_top" xlink:title="velocity_bcs.H">
<polygon fill="#ffffff" stroke="#ff0000" points="1162,-168.5 1162,-187.5 1244,-187.5 1244,-168.5 1162,-168.5"/>
<text text-anchor="middle" x="1203" y="-175.5" font-family="Helvetica,sans-Serif" font-size="10.00" fill="#000000">velocity_bcs.H</text>
</a>
</g>
</g>
<!-- Node8&#45;&gt;Node126 -->
<g id="edge29" class="edge">
<title>Node8&#45;&gt;Node126</title>
<path fill="none" stroke="#191970" d="M1733.4177,-231.7083C1641.9622,-226.7371 1429.7138,-213.3198 1253,-188 1250.1082,-187.5857 1247.1311,-187.112 1244.1388,-186.6011"/>
<polygon fill="#191970" stroke="#191970" points="1733.2714,-235.2054 1743.4444,-232.2456 1733.6461,-228.2154 1733.2714,-235.2054"/>
</g>
<!-- Node127 -->
<g id="node24" class="node">
<title>Node127</title>
<g id="a_node24"><a xlink:href="_godunov_8_h.html" target="_top" xlink:title="Godunov.H">
<polygon fill="#ffffff" stroke="#ff0000" points="1262,-168.5 1262,-187.5 1328,-187.5 1328,-168.5 1262,-168.5"/>
<text text-anchor="middle" x="1295" y="-175.5" font-family="Helvetica,sans-Serif" font-size="10.00" fill="#000000">Godunov.H</text>
</a>
</g>
</g>
<!-- Node8&#45;&gt;Node127 -->
<g id="edge30" class="edge">
<title>Node8&#45;&gt;Node127</title>
<path fill="none" stroke="#191970" d="M1732.9638,-231.1887C1652.3093,-225.8233 1480.3905,-212.4252 1337,-188 1334.1922,-187.5217 1331.2925,-186.9651 1328.3901,-186.3639"/>
<polygon fill="#191970" stroke="#191970" points="1733.0574,-234.7022 1743.2647,-231.8631 1733.5147,-227.7172 1733.0574,-234.7022"/>
</g>
<!-- Node133 -->
<g id="node25" class="node">
<title>Node133</title>
<g id="a_node25"><a xlink:href="mac__projection_8_h.html" target="_top" xlink:title="mac_projection.H">
<polygon fill="#ffffff" stroke="#ff0000" points="1346.5,-168.5 1346.5,-187.5 1439.5,-187.5 1439.5,-168.5 1346.5,-168.5"/>
<text text-anchor="middle" x="1393" y="-175.5" font-family="Helvetica,sans-Serif" font-size="10.00" fill="#000000">mac_projection.H</text>
</a>
</g>
</g>
<!-- Node8&#45;&gt;Node133 -->
<g id="edge31" class="edge">
<title>Node8&#45;&gt;Node133</title>
<path fill="none" stroke="#191970" d="M1733.1562,-228.1723C1669.3492,-219.933 1550.1969,-204.0825 1449,-188 1445.9764,-187.5195 1442.8639,-187.0087 1439.7284,-186.482"/>
<polygon fill="#191970" stroke="#191970" points="1732.9203,-231.6707 1743.2854,-229.4763 1733.8142,-224.728 1732.9203,-231.6707"/>
</g>
<!-- Node135 -->
<g id="node26" class="node">
<title>Node135</title>
<g id="a_node26"><a xlink:href="_m_o_l_8_h.html" target="_top" xlink:title="MOL.H">
<polygon fill="#ffffff" stroke="#ff0000" points="1458,-168.5 1458,-187.5 1506,-187.5 1506,-168.5 1458,-168.5"/>
<text text-anchor="middle" x="1482" y="-175.5" font-family="Helvetica,sans-Serif" font-size="10.00" fill="#000000">MOL.H</text>
</a>
</g>
</g>
<!-- Node8&#45;&gt;Node135 -->
<g id="edge32" class="edge">
<title>Node8&#45;&gt;Node135</title>
<path fill="none" stroke="#191970" d="M1733.196,-227.7485C1680.2714,-220.1266 1590.7443,-206.0047 1515,-188 1512.0879,-187.3078 1509.0545,-186.5045 1506.0583,-185.6599"/>
<polygon fill="#191970" stroke="#191970" points="1732.8841,-231.2393 1743.2779,-229.1854 1733.8718,-224.3094 1732.8841,-231.2393"/>
</g>
<!-- Node138 -->
<g id="node27" class="node">
<title>Node138</title>
<g id="a_node27"><a xlink:href="_field_8cpp.html" target="_top" xlink:title="Field.cpp">
<polygon fill="#ffffff" stroke="#000000" points="1524,-168.5 1524,-187.5 1580,-187.5 1580,-168.5 1524,-168.5"/>
<text text-anchor="middle" x="1552" y="-175.5" font-family="Helvetica,sans-Serif" font-size="10.00" fill="#000000">Field.cpp</text>
</a>
</g>
</g>
<!-- Node8&#45;&gt;Node138 -->
<g id="edge33" class="edge">
<title>Node8&#45;&gt;Node138</title>
<path fill="none" stroke="#191970" d="M1733.3302,-223.3007C1694.7908,-214.1863 1638.1945,-200.6007 1589,-188 1586.1638,-187.2735 1583.2095,-186.5014 1580.2615,-185.7207"/>
<polygon fill="#191970" stroke="#191970" points="1732.6747,-226.7421 1743.2113,-225.6332 1734.2829,-219.9293 1732.6747,-226.7421"/>
</g>
<!-- Node139 -->
<g id="node28" class="node">
<title>Node139</title>
<g id="a_node28"><a xlink:href="_field_repo_8cpp.html" target="_top" xlink:title="FieldRepo.cpp">
<polygon fill="#ffffff" stroke="#000000" points="1598,-168.5 1598,-187.5 1678,-187.5 1678,-168.5 1598,-168.5"/>
<text text-anchor="middle" x="1638" y="-175.5" font-family="Helvetica,sans-Serif" font-size="10.00" fill="#000000">FieldRepo.cpp</text>
</a>
</g>
</g>
<!-- Node8&#45;&gt;Node139 -->
<g id="edge34" class="edge">
<title>Node8&#45;&gt;Node139</title>
<path fill="none" stroke="#191970" d="M1745.3968,-220.6541C1719.6841,-210.4419 1684.8539,-196.6086 1661.9225,-187.5011"/>
<polygon fill="#191970" stroke="#191970" points="1744.1755,-223.9349 1754.7612,-224.3733 1746.7593,-217.4292 1744.1755,-223.9349"/>
</g>
<!-- Node140 -->
<g id="node29" class="node">
<title>Node140</title>
<g id="a_node29"><a xlink:href="_int_field_8cpp.html" target="_top" xlink:title="IntField.cpp">
<polygon fill="#ffffff" stroke="#000000" points="1696,-168.5 1696,-187.5 1764,-187.5 1764,-168.5 1696,-168.5"/>
<text text-anchor="middle" x="1730" y="-175.5" font-family="Helvetica,sans-Serif" font-size="10.00" fill="#000000">IntField.cpp</text>
</a>
</g>
</g>
<!-- Node8&#45;&gt;Node140 -->
<g id="edge35" class="edge">
<title>Node8&#45;&gt;Node140</title>
<path fill="none" stroke="#191970" d="M1763.6878,-216.5004C1755.3553,-206.9775 1745.3647,-195.5596 1738.4373,-187.6427"/>
<polygon fill="#191970" stroke="#191970" points="1761.2457,-219.0245 1770.4649,-224.2455 1766.5138,-214.415 1761.2457,-219.0245"/>
</g>
<!-- Node8&#45;&gt;Node141 -->
<g id="edge36" class="edge">
<title>Node8&#45;&gt;Node141</title>
<path fill="none" stroke="#191970" d="M1824.738,-233.5216C2042.4046,-231.1014 2974.7696,-219.0776 3264,-188 3266.9387,-187.6842 3269.9576,-187.2983 3272.9941,-186.8638"/>
<polygon fill="#191970" stroke="#191970" points="1824.5857,-230.023 1814.6248,-233.6328 1824.6627,-237.0226 1824.5857,-230.023"/>
</g>
<!-- Node8&#45;&gt;Node142 -->
<g id="edge37" class="edge">
<title>Node8&#45;&gt;Node142</title>
<path fill="none" stroke="#191970" d="M1824.7289,-233.7697C2051.908,-232.4591 3060.6001,-224.6426 3372,-188 3374.8743,-187.6618 3377.8319,-187.237 3380.7998,-186.7546"/>
<polygon fill="#191970" stroke="#191970" points="1824.4876,-230.2709 1814.5075,-233.8273 1824.5271,-237.2708 1824.4876,-230.2709"/>
</g>
<!-- Node143 -->
<g id="node32" class="node">
<title>Node143</title>
<g id="a_node32"><a xlink:href="field__algebra_8cpp.html" target="_top" xlink:title="field_algebra.cpp">
<polygon fill="#ffffff" stroke="#000000" points="1782,-168.5 1782,-187.5 1872,-187.5 1872,-168.5 1782,-168.5"/>
<text text-anchor="middle" x="1827" y="-175.5" font-family="Helvetica,sans-Serif" font-size="10.00" fill="#000000">field_algebra.cpp</text>
</a>
</g>
</g>
<!-- Node8&#45;&gt;Node143 -->
<g id="edge38" class="edge">
<title>Node8&#45;&gt;Node143</title>
<path fill="none" stroke="#191970" d="M1793.9997,-216.5004C1802.1622,-206.9775 1811.9489,-195.5596 1818.7349,-187.6427"/>
<polygon fill="#191970" stroke="#191970" points="1791.2115,-214.3752 1787.361,-224.2455 1796.5263,-218.9307 1791.2115,-214.3752"/>
</g>
<!-- Node144 -->
<g id="node33" class="node">
<title>Node144</title>
<g id="a_node33"><a xlink:href="diffusion_8_h.html" target="_top" xlink:title="diffusion.H">
<polygon fill="#ffffff" stroke="#ff0000" points="1890,-168.5 1890,-187.5 1954,-187.5 1954,-168.5 1890,-168.5"/>
<text text-anchor="middle" x="1922" y="-175.5" font-family="Helvetica,sans-Serif" font-size="10.00" fill="#000000">diffusion.H</text>
</a>
</g>
</g>
<!-- Node8&#45;&gt;Node144 -->
<g id="edge39" class="edge">
<title>Node8&#45;&gt;Node144</title>
<path fill="none" stroke="#191970" d="M1813.0798,-220.6541C1839.1573,-210.4419 1874.4815,-196.6086 1897.7382,-187.5011"/>
<polygon fill="#191970" stroke="#191970" points="1811.6178,-217.4677 1803.5826,-224.3733 1814.1703,-223.9858 1811.6178,-217.4677"/>
</g>
<!-- Node145 -->
<g id="node34" class="node">
<title>Node145</title>
<g id="a_node34"><a xlink:href="_source_term_8_h.html" target="_top" xlink:title="SourceTerm.H">
<polygon fill="#ffffff" stroke="#ff0000" points="1972,-168.5 1972,-187.5 2052,-187.5 2052,-168.5 1972,-168.5"/>
<text text-anchor="middle" x="2012" y="-175.5" font-family="Helvetica,sans-Serif" font-size="10.00" fill="#000000">SourceTerm.H</text>
</a>
</g>
</g>
<!-- Node8&#45;&gt;Node145 -->
<g id="edge40" class="edge">
<title>Node8&#45;&gt;Node145</title>
<path fill="none" stroke="#191970" d="M1824.569,-223.0478C1867.6135,-212.7023 1931.5159,-197.3438 1972.4634,-187.5024"/>
<polygon fill="#191970" stroke="#191970" points="1823.5465,-219.6938 1814.6413,-225.4338 1825.1824,-226.5 1823.5465,-219.6938"/>
</g>
<!-- Node147 -->
<g id="node35" class="node">
<title>Node147</title>
<g id="a_node35"><a xlink:href="_p_d_e_helpers_8_h.html" target="_top" xlink:title="PDEHelpers.H">
<polygon fill="#ffffff" stroke="#ff0000" points="986,-168.5 986,-187.5 1068,-187.5 1068,-168.5 986,-168.5"/>
<text text-anchor="middle" x="1027" y="-175.5" font-family="Helvetica,sans-Serif" font-size="10.00" fill="#000000">PDEHelpers.H</text>
</a>
</g>
</g>
<!-- Node8&#45;&gt;Node147 -->
<g id="edge41" class="edge">
<title>Node8&#45;&gt;Node147</title>
<path fill="none" stroke="#191970" d="M1733.0847,-232.779C1621.3016,-229.4134 1326.2659,-218.1668 1082,-188 1077.473,-187.4409 1072.7543,-186.75 1068.0671,-185.9946"/>
<polygon fill="#191970" stroke="#191970" points="1733.2237,-236.2845 1743.3225,-233.0805 1733.4298,-229.2876 1733.2237,-236.2845"/>
</g>
<!-- Node148 -->
<g id="node36" class="node">
<title>Node148</title>
<g id="a_node36"><a xlink:href="_density_source_8_h.html" target="_top" xlink:title="DensitySource.H">
<polygon fill="#ffffff" stroke="#ff0000" points="2070,-168.5 2070,-187.5 2162,-187.5 2162,-168.5 2070,-168.5"/>
<text text-anchor="middle" x="2116" y="-175.5" font-family="Helvetica,sans-Serif" font-size="10.00" fill="#000000">DensitySource.H</text>
</a>
</g>
</g>
<!-- Node8&#45;&gt;Node148 -->
<g id="edge44" class="edge">
<title>Node8&#45;&gt;Node148</title>
<path fill="none" stroke="#191970" d="M1824.5686,-226.8276C1880.3587,-217.9863 1977.7047,-202.3647 2061,-188 2063.8692,-187.5052 2066.8212,-186.989 2069.7973,-186.4633"/>
<polygon fill="#191970" stroke="#191970" points="1823.9777,-223.3775 1814.6478,-228.3978 1825.072,-230.2915 1823.9777,-223.3775"/>
</g>
<!-- Node149 -->
<g id="node37" class="node">
<title>Node149</title>
<g id="a_node37"><a xlink:href="_momentum_source_8_h.html" target="_top" xlink:title="MomentumSource.H">
<polygon fill="#ffffff" stroke="#ff0000" points="252.5,-168.5 252.5,-187.5 359.5,-187.5 359.5,-168.5 252.5,-168.5"/>
<text text-anchor="middle" x="306" y="-175.5" font-family="Helvetica,sans-Serif" font-size="10.00" fill="#000000">MomentumSource.H</text>
</a>
</g>
</g>
<!-- Node8&#45;&gt;Node149 -->
<g id="edge45" class="edge">
<title>Node8&#45;&gt;Node149</title>
<path fill="none" stroke="#191970" d="M1733.2161,-233.6594C1559.3522,-232.1142 923.4432,-224.1705 401,-188 387.5989,-187.0722 373.1674,-185.7304 359.6993,-184.3294"/>
<polygon fill="#191970" stroke="#191970" points="1733.2583,-237.1598 1743.2881,-233.7463 1733.3187,-230.1601 1733.2583,-237.1598"/>
</g>
<!-- Node152 -->
<g id="node38" class="node">
<title>Node152</title>
<g id="a_node38"><a xlink:href="_boussinesq_buoyancy_8_h.html" target="_top" xlink:title="BoussinesqBuoyancy.H">
<polygon fill="#ffffff" stroke="#000000" points="0,-112.5 0,-131.5 122,-131.5 122,-112.5 0,-112.5"/>
<text text-anchor="middle" x="61" y="-119.5" font-family="Helvetica,sans-Serif" font-size="10.00" fill="#000000">BoussinesqBuoyancy.H</text>
</a>
</g>
</g>
<!-- Node8&#45;&gt;Node152 -->
<g id="edge55" class="edge">
<title>Node8&#45;&gt;Node152</title>
<path fill="none" stroke="#191970" d="M1733.1308,-233.6724C1490.9462,-231.8063 366.3554,-221.393 215,-188 162.4509,-176.4063 105.4279,-147.1018 77.8401,-131.7387"/>
<polygon fill="#191970" stroke="#191970" points="1733.3144,-237.1738 1743.3408,-233.75 1733.3677,-230.174 1733.3144,-237.1738"/>
</g>
<!-- Node153 -->
<g id="node39" class="node">
<title>Node153</title>
<g id="a_node39"><a xlink:href="_coriolis_forcing_8_h.html" target="_top" xlink:title="CoriolisForcing.H">
<polygon fill="#ffffff" stroke="#000000" points="402,-112.5 402,-131.5 494,-131.5 494,-112.5 402,-112.5"/>
<text text-anchor="middle" x="448" y="-119.5" font-family="Helvetica,sans-Serif" font-size="10.00" fill="#000000">CoriolisForcing.H</text>
</a>
</g>
</g>
<!-- Node8&#45;&gt;Node153 -->
<g id="edge56" class="edge">
<title>Node8&#45;&gt;Node153</title>
<path fill="none" stroke="#191970" d="M1733.1991,-233.337C1512.2268,-230.0124 564.5911,-214.2681 508,-188 482.1552,-176.0035 462.4662,-147.1563 453.4355,-131.8786"/>
<polygon fill="#191970" stroke="#191970" points="1733.4128,-236.8405 1743.464,-233.4904 1733.5174,-229.8413 1733.4128,-236.8405"/>
</g>
<!-- Node154 -->
<g id="node40" class="node">
<title>Node154</title>
<g id="a_node40"><a xlink:href="_density_buoyancy_8_h.html" target="_top" xlink:title="DensityBuoyancy.H">
<polygon fill="#ffffff" stroke="#ff0000" points="140,-112.5 140,-131.5 244,-131.5 244,-112.5 140,-112.5"/>
<text text-anchor="middle" x="192" y="-119.5" font-family="Helvetica,sans-Serif" font-size="10.00" fill="#000000">DensityBuoyancy.H</text>
</a>
</g>
</g>
<!-- Node8&#45;&gt;Node154 -->
<g id="edge57" class="edge">
<title>Node8&#45;&gt;Node154</title>
<path fill="none" stroke="#191970" d="M1733.091,-233.7268C1484.7759,-232.1111 310.9895,-222.6582 243,-188 219.2619,-175.8993 203.3006,-147.0977 196.2001,-131.8539"/>
<polygon fill="#191970" stroke="#191970" points="1733.19,-237.2275 1743.2122,-233.7917 1733.2349,-230.2276 1733.19,-237.2275"/>
</g>
<!-- Node156 -->
<g id="node41" class="node">
<title>Node156</title>
<g id="a_node41"><a xlink:href="_m_m_s_forcing_8_h.html" target="_top" xlink:title="MMSForcing.H">
<polygon fill="#ffffff" stroke="#ff0000" points="300.5,-112.5 300.5,-131.5 383.5,-131.5 383.5,-112.5 300.5,-112.5"/>
<text text-anchor="middle" x="342" y="-119.5" font-family="Helvetica,sans-Serif" font-size="10.00" fill="#000000">MMSForcing.H</text>
</a>
</g>
</g>
<!-- Node8&#45;&gt;Node156 -->
<g id="edge62" class="edge">
<title>Node8&#45;&gt;Node156</title>
<path fill="none" stroke="#191970" d="M1733.389,-233.5157C1517.1702,-231.0682 600.7329,-218.9383 477,-188 430.1778,-176.2925 380.527,-147.0387 356.5878,-131.7125"/>
<polygon fill="#191970" stroke="#191970" points="1733.4036,-237.016 1743.4422,-233.6282 1733.482,-230.0164 1733.4036,-237.016"/>
</g>
<!-- Node157 -->
<g id="node42" class="node">
<title>Node157</title>
<g id="a_node42"><a xlink:href="fvm__utils_8_h.html" target="_top" xlink:title="fvm_utils.H">
<polygon fill="#ffffff" stroke="#ff0000" points="2180.5,-168.5 2180.5,-187.5 2247.5,-187.5 2247.5,-168.5 2180.5,-168.5"/>
<text text-anchor="middle" x="2214" y="-175.5" font-family="Helvetica,sans-Serif" font-size="10.00" fill="#000000">fvm_utils.H</text>
</a>
</g>
</g>
<!-- Node8&#45;&gt;Node157 -->
<g id="edge53" class="edge">
<title>Node8&#45;&gt;Node157</title>
<path fill="none" stroke="#191970" d="M1824.8775,-230.2906C1898.3175,-223.9775 2046.6639,-209.6831 2171,-188 2174.0202,-187.4733 2177.1464,-186.8671 2180.2718,-186.219"/>
<polygon fill="#191970" stroke="#191970" points="1824.2651,-226.8299 1814.5974,-231.1641 1824.8578,-233.8048 1824.2651,-226.8299"/>
</g>
<!-- Node166 -->
<g id="node43" class="node">
<title>Node166</title>
<g id="a_node43"><a xlink:href="_s_d_r_source_8_h.html" target="_top" xlink:title="SDRSource.H">
<polygon fill="#ffffff" stroke="#ff0000" points="2266,-168.5 2266,-187.5 2346,-187.5 2346,-168.5 2266,-168.5"/>
<text text-anchor="middle" x="2306" y="-175.5" font-family="Helvetica,sans-Serif" font-size="10.00" fill="#000000">SDRSource.H</text>
</a>
</g>
</g>
<!-- Node8&#45;&gt;Node166 -->
<g id="edge59" class="edge">
<title>Node8&#45;&gt;Node166</title>
<path fill="none" stroke="#191970" d="M1824.871,-231.1281C1910.112,-225.4473 2098.5787,-211.2716 2256,-188 2259.2402,-187.521 2262.5882,-186.9716 2265.9453,-186.3821"/>
<polygon fill="#191970" stroke="#191970" points="1824.5017,-227.6447 1814.7535,-231.7946 1824.9619,-234.6296 1824.5017,-227.6447"/>
</g>
<!-- Node167 -->
<g id="node44" class="node">
<title>Node167</title>
<g id="a_node44"><a xlink:href="_temperature_source_8_h.html" target="_top" xlink:title="TemperatureSource.H">
<polygon fill="#ffffff" stroke="#ff0000" points="2364.5,-168.5 2364.5,-187.5 2477.5,-187.5 2477.5,-168.5 2364.5,-168.5"/>
<text text-anchor="middle" x="2421" y="-175.5" font-family="Helvetica,sans-Serif" font-size="10.00" fill="#000000">TemperatureSource.H</text>
</a>
</g>
</g>
<!-- Node8&#45;&gt;Node167 -->
<g id="edge60" class="edge">
<title>Node8&#45;&gt;Node167</title>
<path fill="none" stroke="#191970" d="M1824.9361,-231.4377C1922.6717,-225.7431 2158.3694,-210.719 2355,-188 2357.9933,-187.6542 2361.0593,-187.2754 2364.1525,-186.874"/>
<polygon fill="#191970" stroke="#191970" points="1824.5919,-227.9517 1814.8106,-232.023 1824.9959,-234.94 1824.5919,-227.9517"/>
</g>
<!-- Node168 -->
<g id="node45" class="node">
<title>Node168</title>
<g id="a_node45"><a xlink:href="_t_k_e_source_8_h.html" target="_top" xlink:title="TKESource.H">
<polygon fill="#ffffff" stroke="#ff0000" points="2495.5,-168.5 2495.5,-187.5 2572.5,-187.5 2572.5,-168.5 2495.5,-168.5"/>
<text text-anchor="middle" x="2534" y="-175.5" font-family="Helvetica,sans-Serif" font-size="10.00" fill="#000000">TKESource.H</text>
</a>
</g>
</g>
<!-- Node8&#45;&gt;Node168 -->
<g id="edge61" class="edge">
<title>Node8&#45;&gt;Node168</title>
<path fill="none" stroke="#191970" d="M1824.8797,-233.2425C1937.8113,-230.895 2238.0951,-221.7184 2486,-188 2489.0365,-187.587 2492.1681,-187.0924 2495.3082,-186.5473"/>
<polygon fill="#191970" stroke="#191970" points="1824.786,-229.7436 1814.858,-233.443 1824.9261,-236.7422 1824.786,-229.7436"/>
</g>
<!-- Node171 -->
<g id="node46" class="node">
<title>Node171</title>
<g id="a_node46"><a xlink:href="_linear_profile_8cpp.html" target="_top" xlink:title="LinearProfile.cpp">
<polygon fill="#ffffff" stroke="#000000" points="2590.5,-168.5 2590.5,-187.5 2679.5,-187.5 2679.5,-168.5 2590.5,-168.5"/>
<text text-anchor="middle" x="2635" y="-175.5" font-family="Helvetica,sans-Serif" font-size="10.00" fill="#000000">LinearProfile.cpp</text>
</a>
</g>
</g>
<!-- Node8&#45;&gt;Node171 -->
<g id="edge64" class="edge">
<title>Node8&#45;&gt;Node171</title>
<path fill="none" stroke="#191970" d="M1824.8879,-233.3859C1947.8393,-231.3049 2294.7716,-222.572 2581,-188 2584.029,-187.6341 2587.1445,-187.2035 2590.2775,-186.73"/>
<polygon fill="#191970" stroke="#191970" points="1824.657,-229.8891 1814.7152,-233.5514 1824.7709,-236.8882 1824.657,-229.8891"/>
</g>
<!-- Node70 -->
<g id="node47" class="node">
<title>Node70</title>
<g id="a_node47"><a xlink:href="_power_law_profile_8cpp.html" target="_top" xlink:title="PowerLawProfile.cpp">
<polygon fill="#ffffff" stroke="#000000" points="2697.5,-168.5 2697.5,-187.5 2806.5,-187.5 2806.5,-168.5 2697.5,-168.5"/>
<text text-anchor="middle" x="2752" y="-175.5" font-family="Helvetica,sans-Serif" font-size="10.00" fill="#000000">PowerLawProfile.cpp</text>
</a>
</g>
</g>
<!-- Node8&#45;&gt;Node70 -->
<g id="edge65" class="edge">
<title>Node8&#45;&gt;Node70</title>
<path fill="none" stroke="#191970" d="M1824.8755,-233.3701C1958.3944,-231.1731 2358.2071,-222.0158 2688,-188 2691.0204,-187.6885 2694.1156,-187.3314 2697.2362,-186.9419"/>
<polygon fill="#191970" stroke="#191970" points="1824.5634,-229.8745 1814.6205,-233.5336 1824.6751,-236.8736 1824.5634,-229.8745"/>
</g>
<!-- Node172 -->
<g id="node48" class="node">
<title>Node172</title>
<g id="a_node48"><a xlink:href="_u_d_f_8cpp.html" target="_top" xlink:title="UDF.cpp">
<polygon fill="#ffffff" stroke="#000000" points="2825,-168.5 2825,-187.5 2881,-187.5 2881,-168.5 2825,-168.5"/>
<text text-anchor="middle" x="2853" y="-175.5" font-family="Helvetica,sans-Serif" font-size="10.00" fill="#000000">UDF.cpp</text>
</a>
</g>
</g>
<!-- Node8&#45;&gt;Node172 -->
<g id="edge66" class="edge">
<title>Node8&#45;&gt;Node172</title>
<path fill="none" stroke="#191970" d="M1824.8072,-233.2628C1998.9562,-230.2589 2619.8559,-217.6624 2815,-188 2818.2373,-187.5079 2821.5965,-186.8488 2824.9182,-186.1026"/>
<polygon fill="#191970" stroke="#191970" points="1824.64,-229.765 1814.7011,-233.4349 1824.7593,-236.764 1824.64,-229.765"/>
</g>
<!-- Node173 -->
<g id="node49" class="node">
<title>Node173</title>
<g id="a_node49"><a xlink:href="_transport_model_8_h.html" target="_top" xlink:title="TransportModel.H">
<polygon fill="#ffffff" stroke="#ff0000" points="2899.5,-168.5 2899.5,-187.5 2994.5,-187.5 2994.5,-168.5 2899.5,-168.5"/>
<text text-anchor="middle" x="2947" y="-175.5" font-family="Helvetica,sans-Serif" font-size="10.00" fill="#000000">TransportModel.H</text>
</a>
</g>
</g>
<!-- Node8&#45;&gt;Node173 -->
<g id="edge67" class="edge">
<title>Node8&#45;&gt;Node173</title>
<path fill="none" stroke="#191970" d="M1824.731,-232.9149C2006.5125,-228.4764 2678.3057,-210.8507 2890,-188 2893.0966,-187.6657 2896.279,-187.2658 2899.4812,-186.821"/>
<polygon fill="#191970" stroke="#191970" points="1824.6174,-229.4165 1814.7054,-233.1584 1824.7875,-236.4145 1824.6174,-229.4165"/>
</g>
<!-- Node107 -->
<g id="node50" class="node">
<title>Node107</title>
<g id="a_node50"><a xlink:href="_smagorinsky_8_h.html" target="_top" xlink:title="Smagorinsky.H">
<polygon fill="#ffffff" stroke="#ff0000" points="3013,-168.5 3013,-187.5 3097,-187.5 3097,-168.5 3013,-168.5"/>
<text text-anchor="middle" x="3055" y="-175.5" font-family="Helvetica,sans-Serif" font-size="10.00" fill="#000000">Smagorinsky.H</text>
</a>
</g>
</g>
<!-- Node8&#45;&gt;Node107 -->
<g id="edge68" class="edge">
<title>Node8&#45;&gt;Node107</title>
<path fill="none" stroke="#191970" d="M1824.8787,-233.2128C2018.318,-229.7492 2768.1833,-214.8324 3003,-188 3006.1968,-187.6347 3009.4915,-187.1824 3012.7975,-186.6736"/>
<polygon fill="#191970" stroke="#191970" points="1824.7095,-229.7152 1814.7733,-233.3923 1824.834,-236.714 1824.7095,-229.7152"/>
</g>
<!-- Node10&#45;&gt;Node9 -->
<g id="edge4" class="edge">
<title>Node10&#45;&gt;Node9</title>
<path fill="none" stroke="#191970" d="M3181.7244,-162.2097C3167.8495,-152.3743 3150.4485,-140.0394 3138.6031,-131.6427"/>
<polygon fill="#191970" stroke="#191970" points="3180.0569,-165.3178 3190.2393,-168.2455 3184.1051,-159.6071 3180.0569,-165.3178"/>
</g>
<!-- Node11 -->
<g id="node5" class="node">
<title>Node11</title>
<g id="a_node5"><a xlink:href="_fixed_gradient_b_c_8cpp.html" target="_top" xlink:title="FixedGradientBC.cpp">
<polygon fill="#ffffff" stroke="#000000" points="3187,-112.5 3187,-131.5 3297,-131.5 3297,-112.5 3187,-112.5"/>
<text text-anchor="middle" x="3242" y="-119.5" font-family="Helvetica,sans-Serif" font-size="10.00" fill="#000000">FixedGradientBC.cpp</text>
</a>
</g>
</g>
<!-- Node10&#45;&gt;Node11 -->
<g id="edge5" class="edge">
<title>Node10&#45;&gt;Node11</title>
<path fill="none" stroke="#191970" d="M3216.2679,-159.9209C3222.6488,-150.5176 3230.1931,-139.3997 3235.4568,-131.6427"/>
<polygon fill="#191970" stroke="#191970" points="3213.338,-158.0055 3210.6191,-168.2455 3219.1303,-161.936 3213.338,-158.0055"/>
</g>
<!-- Node12&#45;&gt;Node13 -->
<g id="edge7" class="edge">
<title>Node12&#45;&gt;Node13</title>
<path fill="none" stroke="#191970" d="M892.313,-173.3792C830.5721,-166.3578 712.9071,-151.7066 614,-132 609.4756,-131.0985 604.6919,-129.9972 600.0833,-128.859"/>
<polygon fill="#191970" stroke="#191970" points="892.1235,-176.8799 902.4523,-174.5207 892.9067,-169.9239 892.1235,-176.8799"/>
</g>
<!-- Node32 -->
<g id="node8" class="node">
<title>Node32</title>
<g id="a_node8"><a xlink:href="_a_b_l_wall_function_8_h.html" target="_top" xlink:title="ABLWallFunction.H">
<polygon fill="#ffffff" stroke="#ff0000" points="884.5,-56.5 884.5,-75.5 987.5,-75.5 987.5,-56.5 884.5,-56.5"/>
<text text-anchor="middle" x="936" y="-63.5" font-family="Helvetica,sans-Serif" font-size="10.00" fill="#000000">ABLWallFunction.H</text>
</a>
</g>
</g>
<!-- Node12&#45;&gt;Node32 -->
<g id="edge8" class="edge">
<title>Node12&#45;&gt;Node32</title>
<path fill="none" stroke="#191970" d="M947.1247,-159.7224C951.8179,-151.5929 956.6257,-141.6836 959,-132 964.0278,-111.4939 951.5955,-88.3729 943.1152,-75.665"/>
<polygon fill="#191970" stroke="#191970" points="944.0881,-157.9786 941.8208,-168.328 950.0472,-161.6514 944.0881,-157.9786"/>
</g>
<!-- Node37 -->
<g id="node9" class="node">
<title>Node37</title>
<g id="a_node9"><a xlink:href="_a_b_l_stats_8_h.html" target="_top" xlink:title="ABLStats.H">
<polygon fill="#ffffff" stroke="#ff0000" points="901.5,-.5 901.5,-19.5 970.5,-19.5 970.5,-.5 901.5,-.5"/>
<text text-anchor="middle" x="936" y="-7.5" font-family="Helvetica,sans-Serif" font-size="10.00" fill="#000000">ABLStats.H</text>
</a>
</g>
</g>
<!-- Node12&#45;&gt;Node37 -->
<g id="edge16" class="edge">
<title>Node12&#45;&gt;Node37</title>
<path fill="none" stroke="#191970" d="M952.0336,-160.6981C959.4722,-152.4875 967.8758,-142.245 974,-132 987.7204,-109.0476 991.0242,-102.2736 996,-76 997.654,-67.2664 999.9331,-63.9714 996,-56 987.8691,-39.5207 970.687,-27.3083 956.7852,-19.6244"/>
<polygon fill="#191970" stroke="#191970" points="949.3262,-158.4684 945.037,-168.1562 954.4314,-163.2577 949.3262,-158.4684"/>
</g>
<!-- Node40 -->
<g id="node10" class="node">
<title>Node40</title>
<g id="a_node10"><a xlink:href="_field_plane_averaging_8_h.html" target="_top" xlink:title="FieldPlaneAveraging.H">
<polygon fill="#ffffff" stroke="#ff0000" points="834,-112.5 834,-131.5 950,-131.5 950,-112.5 834,-112.5"/>
<text text-anchor="middle" x="892" y="-119.5" font-family="Helvetica,sans-Serif" font-size="10.00" fill="#000000">FieldPlaneAveraging.H</text>
</a>
</g>
</g>
<!-- Node12&#45;&gt;Node40 -->
<g id="edge10" class="edge">
<title>Node12&#45;&gt;Node40</title>
<path fill="none" stroke="#191970" d="M921.3408,-160.2112C914.0737,-150.7472 905.4219,-139.4797 899.4042,-131.6427"/>
<polygon fill="#191970" stroke="#191970" points="918.6436,-162.4456 927.51,-168.2455 924.1957,-158.1824 918.6436,-162.4456"/>
</g>
<!-- Node35 -->
<g id="node12" class="node">
<title>Node35</title>
<g id="a_node12"><a xlink:href="_a_b_l_mean_boussinesq_8cpp.html" target="_top" xlink:title="ABLMeanBoussinesq.cpp">
<polygon fill="#ffffff" stroke="#000000" points="585.5,-.5 585.5,-19.5 714.5,-19.5 714.5,-.5 585.5,-.5"/>
<text text-anchor="middle" x="650" y="-7.5" font-family="Helvetica,sans-Serif" font-size="10.00" fill="#000000">ABLMeanBoussinesq.cpp</text>
</a>
</g>
</g>
<!-- Node12&#45;&gt;Node35 -->
<g id="edge22" class="edge">
<title>Node12&#45;&gt;Node35</title>
<path fill="none" stroke="#191970" d="M892.5576,-172.8381C838.7415,-165.614 749.7303,-151.1892 723,-132 682.2965,-102.7797 660.2438,-43.1874 652.8573,-19.765"/>
<polygon fill="#191970" stroke="#191970" points="892.1273,-176.3116 902.4981,-174.1445 893.0394,-169.3713 892.1273,-176.3116"/>
</g>
<!-- Node46 -->
<g id="node13" class="node">
<title>Node46</title>
<g id="a_node13"><a xlink:href="_a_b_l_boundary_plane_8_h.html" target="_top" xlink:title="ABLBoundaryPlane.H">
<polygon fill="#ffffff" stroke="#ff0000" points="1044,-112.5 1044,-131.5 1156,-131.5 1156,-112.5 1044,-112.5"/>
<text text-anchor="middle" x="1100" y="-119.5" font-family="Helvetica,sans-Serif" font-size="10.00" fill="#000000">ABLBoundaryPlane.H</text>
</a>
</g>
</g>
<!-- Node12&#45;&gt;Node46 -->
<g id="edge15" class="edge">
<title>Node12&#45;&gt;Node46</title>
<path fill="none" stroke="#191970" d="M973.1356,-165.057C1003.3325,-154.8084 1044.8163,-140.729 1072.0056,-131.5011"/>
<polygon fill="#191970" stroke="#191970" points="971.7091,-161.845 963.3645,-168.3733 973.9589,-168.4736 971.7091,-161.845"/>
</g>
<!-- Node50 -->
<g id="node14" class="node">
<title>Node50</title>
<g id="a_node14"><a xlink:href="_c_f_d_sim_8cpp.html" target="_top" xlink:title="CFDSim.cpp">
<polygon fill="#ffffff" stroke="#000000" points="1174,-112.5 1174,-131.5 1248,-131.5 1248,-112.5 1174,-112.5"/>
<text text-anchor="middle" x="1211" y="-119.5" font-family="Helvetica,sans-Serif" font-size="10.00" fill="#000000">CFDSim.cpp</text>
</a>
</g>
</g>
<!-- Node12&#45;&gt;Node50 -->
<g id="edge17" class="edge">
<title>Node12&#45;&gt;Node50</title>
<path fill="none" stroke="#191970" d="M977.5543,-167.9583C1061.8573,-150.0392 1084.7429,-148.4052 1165,-132 1167.8825,-131.4108 1170.864,-130.7895 1173.8597,-130.1569"/>
<polygon fill="#191970" stroke="#191970" points="976.5729,-164.589 967.5269,-170.1044 978.0379,-171.434 976.5729,-164.589"/>
</g>
<!-- Node51 -->
<g id="node15" class="node">
<title>Node51</title>
<g id="a_node15"><a xlink:href="_p_d_e_ops_8_h.html" target="_top" xlink:title="PDEOps.H">
<polygon fill="#ffffff" stroke="#ff0000" points="1408,-112.5 1408,-131.5 1474,-131.5 1474,-112.5 1408,-112.5"/>
<text text-anchor="middle" x="1441" y="-119.5" font-family="Helvetica,sans-Serif" font-size="10.00" fill="#000000">PDEOps.H</text>
</a>
</g>
</g>
<!-- Node12&#45;&gt;Node51 -->
<g id="edge18" class="edge">
<title>Node12&#45;&gt;Node51</title>
<path fill="none" stroke="#191970" d="M977.9545,-168.0732C1162.4256,-139.1005 1213.2418,-158.9268 1394,-132 1398.5382,-131.324 1403.2959,-130.4768 1407.9691,-129.5633"/>
<polygon fill="#191970" stroke="#191970" points="977.2452,-164.6421 967.9226,-169.6759 978.3495,-171.5544 977.2452,-164.6421"/>
</g>
<!-- Node65 -->
<g id="node16" class="node">
<title>Node65</title>
<g id="a_node16"><a xlink:href="_p_d_e_8_h.html" target="_top" xlink:title="PDE.H">
<polygon fill="#ffffff" stroke="#ff0000" points="1386,-56.5 1386,-75.5 1434,-75.5 1434,-56.5 1386,-56.5"/>
<text text-anchor="middle" x="1410" y="-63.5" font-family="Helvetica,sans-Serif" font-size="10.00" fill="#000000">PDE.H</text>
</a>
</g>
</g>
<!-- Node12&#45;&gt;Node65 -->
<g id="edge20" class="edge">
<title>Node12&#45;&gt;Node65</title>
<path fill="none" stroke="#191970" d="M977.9761,-168.2145C1076.7517,-155.3353 1288.8701,-172.6139 1361,-132 1383.8809,-119.1166 1399.184,-90.6574 1405.982,-75.6682"/>
<polygon fill="#191970" stroke="#191970" points="977.3075,-164.7752 967.9264,-169.6991 978.3305,-171.7001 977.3075,-164.7752"/>
</g>
<!-- Node34 -->
<g id="node17" class="node">
<title>Node34</title>
<g id="a_node17"><a xlink:href="_a_b_l_forcing_8cpp.html" target="_top" xlink:title="ABLForcing.cpp">
<polygon fill="#ffffff" stroke="#000000" points="1266,-112.5 1266,-131.5 1352,-131.5 1352,-112.5 1266,-112.5"/>
<text text-anchor="middle" x="1309" y="-119.5" font-family="Helvetica,sans-Serif" font-size="10.00" fill="#000000">ABLForcing.cpp</text>
</a>
</g>
</g>
<!-- Node12&#45;&gt;Node34 -->
<g id="edge21" class="edge">
<title>Node12&#45;&gt;Node34</title>
<path fill="none" stroke="#191970" d="M977.8465,-168.0099C1102.1423,-145.7468 1136.258,-151.3526 1257,-132 1259.9047,-131.5344 1262.8958,-131.029 1265.9062,-130.5009"/>
<polygon fill="#191970" stroke="#191970" points="977.1591,-164.5774 967.9453,-169.8076 978.4097,-171.4648 977.1591,-164.5774"/>
</g>
<!-- Node79 -->
<g id="node18" class="node">
<title>Node79</title>
<g id="a_node18"><a xlink:href="_body_force_8cpp.html" target="_top" xlink:title="BodyForce.cpp">
<polygon fill="#ffffff" stroke="#000000" points="732.5,-112.5 732.5,-131.5 815.5,-131.5 815.5,-112.5 732.5,-112.5"/>
<text text-anchor="middle" x="774" y="-119.5" font-family="Helvetica,sans-Serif" font-size="10.00" fill="#000000">BodyForce.cpp</text>
</a>
</g>
</g>
<!-- Node12&#45;&gt;Node79 -->
<g id="edge23" class="edge">
<title>Node12&#45;&gt;Node79</title>
<path fill="none" stroke="#191970" d="M897.7889,-165.057C868.3241,-154.8084 827.8459,-140.729 801.3157,-131.5011"/>
<polygon fill="#191970" stroke="#191970" points="896.7283,-168.3937 907.3231,-168.3733 899.028,-161.7822 896.7283,-168.3937"/>
</g>
<!-- Node80 -->
<g id="node19" class="node">
<title>Node80</title>
<g id="a_node19"><a xlink:href="_boussinesq_buoyancy_8cpp.html" target="_top" xlink:title="BoussinesqBuoyancy.cpp">
<polygon fill="#ffffff" stroke="#000000" points="132,-56.5 132,-75.5 262,-75.5 262,-56.5 132,-56.5"/>
<text text-anchor="middle" x="197" y="-63.5" font-family="Helvetica,sans-Serif" font-size="10.00" fill="#000000">BoussinesqBuoyancy.cpp</text>
</a>
</g>
</g>
<!-- Node12&#45;&gt;Node80 -->
<g id="edge24" class="edge">
<title>Node12&#45;&gt;Node80</title>
<path fill="none" stroke="#191970" d="M892.0239,-176.4448C833.7409,-173.1846 727.1417,-163.1076 642,-132 625.8915,-126.1145 625.2356,-117.5253 609,-112 546.4865,-90.7253 361.9073,-76.3152 262.3743,-69.8595"/>
<polygon fill="#191970" stroke="#191970" points="892.1608,-179.9564 902.3283,-176.9777 892.5225,-172.9658 892.1608,-179.9564"/>
</g>
<!-- Node81 -->
<g id="node20" class="node">
<title>Node81</title>
<g id="a_node20"><a xlink:href="_coriolis_forcing_8cpp.html" target="_top" xlink:title="CoriolisForcing.cpp">
<polygon fill="#ffffff" stroke="#000000" points="406.5,-56.5 406.5,-75.5 507.5,-75.5 507.5,-56.5 406.5,-56.5"/>
<text text-anchor="middle" x="457" y="-63.5" font-family="Helvetica,sans-Serif" font-size="10.00" fill="#000000">CoriolisForcing.cpp</text>
</a>
</g>
</g>
<!-- Node12&#45;&gt;Node81 -->
<g id="edge25" class="edge">
<title>Node12&#45;&gt;Node81</title>
<path fill="none" stroke="#191970" d="M892.3784,-172.7549C842.9902,-166.0468 759.4928,-152.7521 690,-132 667.8552,-125.3871 663.9433,-119.2535 642,-112 595.65,-96.6787 541.2959,-83.742 503.5482,-75.5283"/>
<polygon fill="#191970" stroke="#191970" points="892.0079,-176.2364 902.3823,-174.0867 892.9317,-169.2976 892.0079,-176.2364"/>
</g>
<!-- Node12&#45;&gt;Node84 -->
<g id="edge26" class="edge">
<title>Node12&#45;&gt;Node84</title>
<path fill="none" stroke="#191970" d="M977.9975,-168.0939C1201.6313,-134.6084 1262.9018,-162.1578 1483,-132 1486.0967,-131.5757 1489.2914,-131.073 1492.4954,-130.5223"/>
<polygon fill="#191970" stroke="#191970" points="977.2747,-164.6635 967.9151,-169.6281 978.3278,-171.5838 977.2747,-164.6635"/>
</g>
<!-- Node12&#45;&gt;Node89 -->
<g id="edge27" class="edge">
<title>Node12&#45;&gt;Node89</title>
<path fill="none" stroke="#191970" d="M977.8784,-168.1299C1244.3494,-129.5817 1316.5574,-162.479 1580,-132 1582.8421,-131.6712 1585.7563,-131.2947 1588.6929,-130.8848"/>
<polygon fill="#191970" stroke="#191970" points="977.2959,-164.6779 967.9097,-169.5921 978.3117,-171.6038 977.2959,-164.6779"/>
</g>
<!-- Node32&#45;&gt;Node37 -->
<g id="edge9" class="edge">
<title>Node32&#45;&gt;Node37</title>
<path fill="none" stroke="#191970" d="M936,-46.1575C936,-37.155 936,-26.9199 936,-19.6427"/>
<polygon fill="#191970" stroke="#191970" points="932.5001,-46.2455 936,-56.2455 939.5001,-46.2456 932.5001,-46.2455"/>
</g>
<!-- Node40&#45;&gt;Node32 -->
<g id="edge11" class="edge">
<title>Node40&#45;&gt;Node32</title>
<path fill="none" stroke="#191970" d="M905.9769,-104.2112C913.4129,-94.7472 922.266,-83.4797 928.4236,-75.6427"/>
<polygon fill="#191970" stroke="#191970" points="903.0903,-102.22 899.6642,-112.2455 908.5946,-106.5447 903.0903,-102.22"/>
</g>
<!-- Node40&#45;&gt;Node37 -->
<g id="edge12" class="edge">
<title>Node40&#45;&gt;Node37</title>
<path fill="none" stroke="#191970" d="M880.3761,-103.2305C873.524,-89.6014 867.5254,-70.9982 875,-56 883.2828,-39.3801 900.7497,-27.1809 914.8784,-19.5378"/>
<polygon fill="#191970" stroke="#191970" points="877.418,-105.113 885.3358,-112.1529 883.5363,-101.712 877.418,-105.113"/>
</g>
<!-- Node40&#45;&gt;Node45 -->
<g id="edge13" class="edge">
<title>Node40&#45;&gt;Node45</title>
<path fill="none" stroke="#191970" d="M831.5599,-110.5654C776.9686,-100.2373 697.5597,-85.214 646.3394,-75.5237"/>
<polygon fill="#191970" stroke="#191970" points="830.9758,-114.0169 841.4521,-112.4369 832.2771,-107.1389 830.9758,-114.0169"/>
</g>
<!-- Node45&#45;&gt;Node35 -->
<g id="edge14" class="edge">
<title>Node45&#45;&gt;Node35</title>
<path fill="none" stroke="#191970" d="M612.5969,-48.7884C621.8347,-39.2085 632.9904,-27.6396 640.7017,-19.6427"/>
<polygon fill="#191970" stroke="#191970" points="609.828,-46.6176 605.4061,-56.2455 614.8669,-51.4766 609.828,-46.6176"/>
</g>
<!-- Node51&#45;&gt;Node65 -->
<g id="edge19" class="edge">
<title>Node51&#45;&gt;Node65</title>
<path fill="none" stroke="#191970" d="M1430.6688,-103.3372C1425.5335,-94.0605 1419.5434,-83.2398 1415.3379,-75.6427"/>
<polygon fill="#191970" stroke="#191970" points="1427.6949,-105.1917 1435.6002,-112.2455 1433.8191,-101.8015 1427.6949,-105.1917"/>
</g>
<!-- Node147&#45;&gt;Node51 -->
<g id="edge42" class="edge">
<title>Node147&#45;&gt;Node51</title>
<path fill="none" stroke="#191970" d="M1078.1512,-168.5855C1079.4464,-168.384 1080.731,-168.1884 1082,-168 1220.0738,-147.5042 1256.2468,-154.5498 1394,-132 1398.528,-131.2588 1403.2799,-130.3745 1407.9503,-129.4428"/>
<polygon fill="#191970" stroke="#191970" points="1077.4026,-165.1613 1068.0971,-170.2267 1078.5304,-172.0698 1077.4026,-165.1613"/>
</g>
<!-- Node147&#45;&gt;Node84 -->
<g id="edge43" class="edge">
<title>Node147&#45;&gt;Node84</title>
<path fill="none" stroke="#191970" d="M1078.1451,-168.5421C1079.4421,-168.3534 1080.7287,-168.1723 1082,-168 1259.3182,-143.9707 1305.9499,-157.9308 1483,-132 1486.0926,-131.5471 1489.2845,-131.0237 1492.4864,-130.4588"/>
<polygon fill="#191970" stroke="#191970" points="1077.4218,-165.1125 1068.0809,-170.1122 1078.5009,-172.0288 1077.4218,-165.1125"/>
</g>
<!-- Node149&#45;&gt;Node45 -->
<g id="edge46" class="edge">
<title>Node149&#45;&gt;Node45</title>
<path fill="none" stroke="#191970" d="M293.9127,-159.1923C286.2847,-144.7096 279.7909,-125.0264 291,-112 294.9731,-107.3828 447.4537,-86.0808 535.2746,-74.1514"/>
<polygon fill="#191970" stroke="#191970" points="291.1209,-161.3542 299.1712,-168.2422 297.1734,-157.8374 291.1209,-161.3542"/>
</g>
<!-- Node149&#45;&gt;Node152 -->
<g id="edge47" class="edge">
<title>Node149&#45;&gt;Node152</title>
<path fill="none" stroke="#191970" d="M254.2767,-166.1775C209.1555,-155.8641 144.5335,-141.0934 102.6661,-131.5237"/>
<polygon fill="#191970" stroke="#191970" points="253.6329,-169.6206 264.1614,-168.4369 255.1927,-162.7966 253.6329,-169.6206"/>
</g>
<!-- Node149&#45;&gt;Node153 -->
<g id="edge49" class="edge">
<title>Node149&#45;&gt;Node153</title>
<path fill="none" stroke="#191970" d="M339.8415,-164.6541C365.7366,-154.4419 400.8138,-140.6086 423.9079,-131.5011"/>
<polygon fill="#191970" stroke="#191970" points="338.4293,-161.4486 330.4107,-168.3733 340.9975,-167.9605 338.4293,-161.4486"/>
</g>
<!-- Node149&#45;&gt;Node154 -->
<g id="edge51" class="edge">
<title>Node149&#45;&gt;Node154</title>
<path fill="none" stroke="#191970" d="M277.1679,-163.8368C256.5605,-153.7139 229.3918,-140.3679 211.3416,-131.5011"/>
<polygon fill="#191970" stroke="#191970" points="275.884,-167.1056 286.4027,-168.3733 278.9703,-160.8227 275.884,-167.1056"/>
</g>
<!-- Node149&#45;&gt;Node156 -->
<g id="edge52" class="edge">
<title>Node149&#45;&gt;Node156</title>
<path fill="none" stroke="#191970" d="M317.8096,-159.6296C323.8144,-150.2887 330.8659,-139.3197 335.8011,-131.6427"/>
<polygon fill="#191970" stroke="#191970" points="314.7342,-157.9411 312.2707,-168.2455 320.6225,-161.7264 314.7342,-157.9411"/>
</g>
<!-- Node152&#45;&gt;Node80 -->
<g id="edge48" class="edge">
<title>Node152&#45;&gt;Node80</title>
<path fill="none" stroke="#191970" d="M93.7399,-108.5189C118.5083,-98.3201 151.905,-84.5685 173.9258,-75.5011"/>
<polygon fill="#191970" stroke="#191970" points="92.2934,-105.3293 84.3792,-112.3733 94.9587,-111.8021 92.2934,-105.3293"/>
</g>
<!-- Node153&#45;&gt;Node81 -->
<g id="edge50" class="edge">
<title>Node153&#45;&gt;Node81</title>
<path fill="none" stroke="#191970" d="M451.189,-102.1575C452.6358,-93.155 454.2807,-82.9199 455.4503,-75.6427"/>
<polygon fill="#191970" stroke="#191970" points="447.6989,-101.8168 449.5677,-112.2455 454.6102,-102.9276 447.6989,-101.8168"/>
</g>
</g>
</svg>
