<?xml version="1.0" encoding="UTF-8" standalone="no"?>
<!DOCTYPE svg PUBLIC "-//W3C//DTD SVG 1.1//EN"
 "http://www.w3.org/Graphics/SVG/1.1/DTD/svg11.dtd">
<!-- Generated by graphviz version 2.40.1 (20161225.0304)
 -->
<!-- Title: ScratchField.H Pages: 1 -->
<svg width="3322pt" height="308pt"
 viewBox="0.00 0.00 3322.00 308.00" xmlns="http://www.w3.org/2000/svg" xmlns:xlink="http://www.w3.org/1999/xlink">
<g id="graph0" class="graph" transform="scale(1 1) rotate(0) translate(4 304)">
<title>ScratchField.H</title>
<polygon fill="#ffffff" stroke="transparent" points="-4,4 -4,-304 3318,-304 3318,4 -4,4"/>
<!-- Node7 -->
<g id="node1" class="node">
<title>Node7</title>
<polygon fill="#bfbfbf" stroke="#000000" points="3132,-280.5 3132,-299.5 3214,-299.5 3214,-280.5 3132,-280.5"/>
<text text-anchor="middle" x="3173" y="-287.5" font-family="Helvetica,sans-Serif" font-size="10.00" fill="#000000">ScratchField.H</text>
</g>
<!-- Node8 -->
<g id="node2" class="node">
<title>Node8</title>
<g id="a_node2"><a xlink:href="_field_repo_8_h.html" target="_top" xlink:title="FieldRepo.H">
<polygon fill="#ffffff" stroke="#000000" points="1812.5,-224.5 1812.5,-243.5 1883.5,-243.5 1883.5,-224.5 1812.5,-224.5"/>
<text text-anchor="middle" x="1848" y="-231.5" font-family="Helvetica,sans-Serif" font-size="10.00" fill="#000000">FieldRepo.H</text>
</a>
</g>
</g>
<!-- Node7&#45;&gt;Node8 -->
<g id="edge1" class="edge">
<title>Node7&#45;&gt;Node8</title>
<path fill="none" stroke="#191970" d="M3121.7526,-287.8341C2905.0789,-278.6765 2066.9181,-243.2524 1883.5689,-235.5033"/>
<polygon fill="#191970" stroke="#191970" points="3121.7535,-291.3371 3131.8924,-288.2626 3122.0492,-284.3434 3121.7535,-291.3371"/>
</g>
<!-- Node137 -->
<g id="node33" class="node">
<title>Node137</title>
<g id="a_node33"><a xlink:href="_scratch_field_8cpp.html" target="_top" xlink:title="ScratchField.cpp">
<polygon fill="#ffffff" stroke="#000000" points="3128,-168.5 3128,-187.5 3218,-187.5 3218,-168.5 3128,-168.5"/>
<text text-anchor="middle" x="3173" y="-175.5" font-family="Helvetica,sans-Serif" font-size="10.00" fill="#000000">ScratchField.cpp</text>
</a>
</g>
</g>
<!-- Node7&#45;&gt;Node137 -->
<g id="edge70" class="edge">
<title>Node7&#45;&gt;Node137</title>
<path fill="none" stroke="#191970" d="M3173,-270.2702C3173,-245.9985 3173,-205.7725 3173,-187.5249"/>
<polygon fill="#191970" stroke="#191970" points="3169.5001,-270.4509 3173,-280.4509 3176.5001,-270.451 3169.5001,-270.4509"/>
</g>
<!-- Node138 -->
<g id="node34" class="node">
<title>Node138</title>
<g id="a_node34"><a xlink:href="_view_field_8cpp.html" target="_top" xlink:title="ViewField.cpp">
<polygon fill="#ffffff" stroke="#000000" points="3236,-168.5 3236,-187.5 3314,-187.5 3314,-168.5 3236,-168.5"/>
<text text-anchor="middle" x="3275" y="-175.5" font-family="Helvetica,sans-Serif" font-size="10.00" fill="#000000">ViewField.cpp</text>
</a>
</g>
</g>
<!-- Node7&#45;&gt;Node138 -->
<g id="edge71" class="edge">
<title>Node7&#45;&gt;Node138</title>
<path fill="none" stroke="#191970" d="M3188.6264,-272.8416C3210.3943,-248.9396 3249.1056,-206.433 3266.3255,-187.5249"/>
<polygon fill="#191970" stroke="#191970" points="3185.8421,-270.7008 3181.6965,-280.4509 3191.0175,-275.4142 3185.8421,-270.7008"/>
</g>
<!-- Node9 -->
<g id="node3" class="node">
<title>Node9</title>
<g id="a_node3"><a xlink:href="_b_c_interface_8cpp.html" target="_top" xlink:title="BCInterface.cpp">
<polygon fill="#ffffff" stroke="#000000" points="2936,-112.5 2936,-131.5 3024,-131.5 3024,-112.5 2936,-112.5"/>
<text text-anchor="middle" x="2980" y="-119.5" font-family="Helvetica,sans-Serif" font-size="10.00" fill="#000000">BCInterface.cpp</text>
</a>
</g>
</g>
<!-- Node8&#45;&gt;Node9 -->
<g id="edge2" class="edge">
<title>Node8&#45;&gt;Node9</title>
<path fill="none" stroke="#191970" d="M1893.8812,-233.591C2098.3556,-231.5801 2918.422,-221.4495 2961,-188 2978.2524,-174.4464 2980.5199,-146.2804 2980.4307,-131.5091"/>
<polygon fill="#191970" stroke="#191970" points="1893.7469,-230.092 1883.7812,-233.6886 1893.8146,-237.0917 1893.7469,-230.092"/>
</g>
<!-- Node10 -->
<g id="node4" class="node">
<title>Node10</title>
<g id="a_node4"><a xlink:href="_fixed_gradient_b_c_8_h.html" target="_top" xlink:title="FixedGradientBC.H">
<polygon fill="#ffffff" stroke="#000000" points="3008,-168.5 3008,-187.5 3110,-187.5 3110,-168.5 3008,-168.5"/>
<text text-anchor="middle" x="3059" y="-175.5" font-family="Helvetica,sans-Serif" font-size="10.00" fill="#000000">FixedGradientBC.H</text>
</a>
</g>
</g>
<!-- Node8&#45;&gt;Node10 -->
<g id="edge3" class="edge">
<title>Node8&#45;&gt;Node10</title>
<path fill="none" stroke="#191970" d="M1893.9152,-232.8484C2079.5309,-228.0857 2774.9128,-209.1821 2994,-188 2998.5458,-187.5605 3003.2579,-187.0142 3007.9735,-186.4052"/>
<polygon fill="#191970" stroke="#191970" points="1893.5961,-229.3553 1883.6888,-233.1096 1893.775,-236.353 1893.5961,-229.3553"/>
</g>
<!-- Node12 -->
<g id="node6" class="node">
<title>Node12</title>
<g id="a_node6"><a xlink:href="_c_f_d_sim_8_h.html" target="_top" xlink:title="CFDSim.H">
<polygon fill="#ffffff" stroke="#ff0000" points="1166.5,-168.5 1166.5,-187.5 1231.5,-187.5 1231.5,-168.5 1166.5,-168.5"/>
<text text-anchor="middle" x="1199" y="-175.5" font-family="Helvetica,sans-Serif" font-size="10.00" fill="#000000">CFDSim.H</text>
</a>
</g>
</g>
<!-- Node8&#45;&gt;Node12 -->
<g id="edge6" class="edge">
<title>Node8&#45;&gt;Node12</title>
<path fill="none" stroke="#191970" d="M1801.9657,-232.9917C1700.2201,-230.2218 1448.7573,-220.3969 1241,-188 1238.0376,-187.5381 1234.9756,-186.9763 1231.9173,-186.3573"/>
<polygon fill="#191970" stroke="#191970" points="1802.1084,-236.4965 1812.1967,-233.2599 1802.2919,-229.4989 1802.1084,-236.4965"/>
</g>
<!-- Node13 -->
<g id="node7" class="node">
<title>Node13</title>
<g id="a_node7"><a xlink:href="incflo_8_h.html" target="_top" xlink:title="incflo.H">
<polygon fill="#ffffff" stroke="#ff0000" points="550,-112.5 550,-131.5 600,-131.5 600,-112.5 550,-112.5"/>
<text text-anchor="middle" x="575" y="-119.5" font-family="Helvetica,sans-Serif" font-size="10.00" fill="#000000">incflo.H</text>
</a>
</g>
</g>
<!-- Node8&#45;&gt;Node13 -->
<g id="edge32" class="edge">
<title>Node8&#45;&gt;Node13</title>
<path fill="none" stroke="#191970" d="M1802.2113,-231.5016C1691.374,-225.3341 1399.866,-208.3969 1157,-188 911.2725,-167.3627 846.1016,-183.7488 605,-132 603.3897,-131.6544 601.7447,-131.2524 600.0955,-130.8121"/>
<polygon fill="#191970" stroke="#191970" points="1802.1874,-235.0056 1812.3658,-232.0646 1802.5749,-228.0163 1802.1874,-235.0056"/>
</g>
<!-- Node45 -->
<g id="node11" class="node">
<title>Node45</title>
<g id="a_node11"><a xlink:href="_a_b_l_mean_boussinesq_8_h.html" target="_top" xlink:title="ABLMeanBoussinesq.H">
<polygon fill="#ffffff" stroke="#ff0000" points="301.5,-56.5 301.5,-75.5 422.5,-75.5 422.5,-56.5 301.5,-56.5"/>
<text text-anchor="middle" x="362" y="-63.5" font-family="Helvetica,sans-Serif" font-size="10.00" fill="#000000">ABLMeanBoussinesq.H</text>
</a>
</g>
</g>
<!-- Node8&#45;&gt;Node45 -->
<g id="edge58" class="edge">
<title>Node8&#45;&gt;Node45</title>
<path fill="none" stroke="#191970" d="M1801.9539,-233.4367C1547.539,-230.2291 322.5209,-213.5053 247,-188 206.5676,-174.345 188.4818,-169.9697 169,-132 164.9422,-124.0914 163.4912,-118.9761 169,-112 185.3306,-91.3197 251.0793,-78.9279 301.3428,-72.3042"/>
<polygon fill="#191970" stroke="#191970" points="1802.2666,-236.9409 1812.3098,-233.5666 1802.3544,-229.9414 1802.2666,-236.9409"/>
</g>
<!-- Node83 -->
<g id="node23" class="node">
<title>Node83</title>
<g id="a_node23"><a xlink:href="_p_d_e_base_8cpp.html" target="_top" xlink:title="PDEBase.cpp">
<polygon fill="#ffffff" stroke="#000000" points="1846.5,-112.5 1846.5,-131.5 1925.5,-131.5 1925.5,-112.5 1846.5,-112.5"/>
<text text-anchor="middle" x="1886" y="-119.5" font-family="Helvetica,sans-Serif" font-size="10.00" fill="#000000">PDEBase.cpp</text>
</a>
</g>
</g>
<!-- Node8&#45;&gt;Node83 -->
<g id="edge62" class="edge">
<title>Node8&#45;&gt;Node83</title>
<path fill="none" stroke="#191970" d="M1802.044,-232.8725C1690.3515,-229.659 1411.7376,-218.6234 1384,-188 1378.0327,-181.4119 1377.9687,-174.5296 1384,-168 1418.2599,-130.9095 1787.0042,-139.0613 1837,-132 1840.0949,-131.5629 1843.2884,-131.0509 1846.4915,-130.4939"/>
<polygon fill="#191970" stroke="#191970" points="1802.224,-236.3788 1812.3179,-233.1594 1802.4195,-229.3815 1802.224,-236.3788"/>
</g>
<!-- Node88 -->
<g id="node26" class="node">
<title>Node88</title>
<g id="a_node26"><a xlink:href="_tioga_interface_8cpp.html" target="_top" xlink:title="TiogaInterface.cpp">
<polygon fill="#ffffff" stroke="#000000" points="1943,-112.5 1943,-131.5 2041,-131.5 2041,-112.5 1943,-112.5"/>
<text text-anchor="middle" x="1992" y="-119.5" font-family="Helvetica,sans-Serif" font-size="10.00" fill="#000000">TiogaInterface.cpp</text>
</a>
</g>
</g>
<!-- Node8&#45;&gt;Node88 -->
<g id="edge67" class="edge">
<title>Node8&#45;&gt;Node88</title>
<path fill="none" stroke="#191970" d="M1802.3655,-232.5111C1696.7321,-228.5955 1442.4389,-216.2984 1417,-188 1411.0575,-181.3895 1410.9368,-174.5 1417,-168 1456.278,-125.8918 1876.8314,-138.9008 1934,-132 1936.8404,-131.6571 1939.7534,-131.2696 1942.6889,-130.8514"/>
<polygon fill="#191970" stroke="#191970" points="1802.2896,-236.0105 1812.4097,-232.8746 1802.5428,-229.0151 1802.2896,-236.0105"/>
</g>
<!-- Node123 -->
<g id="node27" class="node">
<title>Node123</title>
<g id="a_node27"><a xlink:href="_godunov_8_h.html" target="_top" xlink:title="Godunov.H">
<polygon fill="#ffffff" stroke="#ff0000" points="1426,-168.5 1426,-187.5 1492,-187.5 1492,-168.5 1426,-168.5"/>
<text text-anchor="middle" x="1459" y="-175.5" font-family="Helvetica,sans-Serif" font-size="10.00" fill="#000000">Godunov.H</text>
</a>
</g>
</g>
<!-- Node8&#45;&gt;Node123 -->
<g id="edge33" class="edge">
<title>Node8&#45;&gt;Node123</title>
<path fill="none" stroke="#191970" d="M1802.1869,-229.4318C1735.569,-222.4488 1608.2071,-207.8154 1501,-188 1498.1992,-187.4823 1495.3044,-186.898 1492.4053,-186.2782"/>
<polygon fill="#191970" stroke="#191970" points="1802.0367,-232.9349 1812.3447,-230.4864 1802.7597,-225.9723 1802.0367,-232.9349"/>
</g>
<!-- Node129 -->
<g id="node28" class="node">
<title>Node129</title>
<g id="a_node28"><a xlink:href="mac__projection_8_h.html" target="_top" xlink:title="mac_projection.H">
<polygon fill="#ffffff" stroke="#ff0000" points="1510.5,-168.5 1510.5,-187.5 1603.5,-187.5 1603.5,-168.5 1510.5,-168.5"/>
<text text-anchor="middle" x="1557" y="-175.5" font-family="Helvetica,sans-Serif" font-size="10.00" fill="#000000">mac_projection.H</text>
</a>
</g>
</g>
<!-- Node8&#45;&gt;Node129 -->
<g id="edge34" class="edge">
<title>Node8&#45;&gt;Node129</title>
<path fill="none" stroke="#191970" d="M1802.2966,-225.2049C1748.0687,-214.7692 1658.1497,-197.4652 1603.5525,-186.9586"/>
<polygon fill="#191970" stroke="#191970" points="1801.8364,-228.6804 1812.3177,-227.1333 1803.1593,-221.8066 1801.8364,-228.6804"/>
</g>
<!-- Node131 -->
<g id="node29" class="node">
<title>Node131</title>
<g id="a_node29"><a xlink:href="_m_o_l_8_h.html" target="_top" xlink:title="MOL.H">
<polygon fill="#ffffff" stroke="#ff0000" points="1622,-168.5 1622,-187.5 1670,-187.5 1670,-168.5 1622,-168.5"/>
<text text-anchor="middle" x="1646" y="-175.5" font-family="Helvetica,sans-Serif" font-size="10.00" fill="#000000">MOL.H</text>
</a>
</g>
</g>
<!-- Node8&#45;&gt;Node131 -->
<g id="edge35" class="edge">
<title>Node8&#45;&gt;Node131</title>
<path fill="none" stroke="#191970" d="M1802.6369,-222.0282C1768.5545,-212.9425 1720.7589,-200.0076 1679,-188 1676.1233,-187.1728 1673.1115,-186.2873 1670.1271,-185.3978"/>
<polygon fill="#191970" stroke="#191970" points="1801.7464,-225.413 1812.3102,-224.6017 1803.5462,-218.6483 1801.7464,-225.413"/>
</g>
<!-- Node134 -->
<g id="node30" class="node">
<title>Node134</title>
<g id="a_node30"><a xlink:href="_field_8cpp.html" target="_top" xlink:title="Field.cpp">
<polygon fill="#ffffff" stroke="#000000" points="1688,-168.5 1688,-187.5 1744,-187.5 1744,-168.5 1688,-168.5"/>
<text text-anchor="middle" x="1716" y="-175.5" font-family="Helvetica,sans-Serif" font-size="10.00" fill="#000000">Field.cpp</text>
</a>
</g>
</g>
<!-- Node8&#45;&gt;Node134 -->
<g id="edge36" class="edge">
<title>Node8&#45;&gt;Node134</title>
<path fill="none" stroke="#191970" d="M1815.9035,-220.3833C1791.8965,-210.1985 1759.6741,-196.5284 1738.3955,-187.5011"/>
<polygon fill="#191970" stroke="#191970" points="1814.7356,-223.6897 1825.3084,-224.3733 1817.4695,-217.2457 1814.7356,-223.6897"/>
</g>
<!-- Node135 -->
<g id="node31" class="node">
<title>Node135</title>
<g id="a_node31"><a xlink:href="_field_repo_8cpp.html" target="_top" xlink:title="FieldRepo.cpp">
<polygon fill="#ffffff" stroke="#000000" points="1762,-168.5 1762,-187.5 1842,-187.5 1842,-168.5 1762,-168.5"/>
<text text-anchor="middle" x="1802" y="-175.5" font-family="Helvetica,sans-Serif" font-size="10.00" fill="#000000">FieldRepo.cpp</text>
</a>
</g>
</g>
<!-- Node8&#45;&gt;Node135 -->
<g id="edge37" class="edge">
<title>Node8&#45;&gt;Node135</title>
<path fill="none" stroke="#191970" d="M1833.6253,-216.5004C1825.8029,-206.9775 1816.424,-195.5596 1809.9208,-187.6427"/>
<polygon fill="#191970" stroke="#191970" points="1830.9354,-218.7399 1839.9874,-224.2455 1836.3445,-214.2967 1830.9354,-218.7399"/>
</g>
<!-- Node136 -->
<g id="node32" class="node">
<title>Node136</title>
<g id="a_node32"><a xlink:href="_int_field_8cpp.html" target="_top" xlink:title="IntField.cpp">
<polygon fill="#ffffff" stroke="#000000" points="1860,-168.5 1860,-187.5 1928,-187.5 1928,-168.5 1860,-168.5"/>
<text text-anchor="middle" x="1894" y="-175.5" font-family="Helvetica,sans-Serif" font-size="10.00" fill="#000000">IntField.cpp</text>
</a>
</g>
</g>
<!-- Node8&#45;&gt;Node136 -->
<g id="edge38" class="edge">
<title>Node8&#45;&gt;Node136</title>
<path fill="none" stroke="#191970" d="M1862.3747,-216.5004C1870.1971,-206.9775 1879.576,-195.5596 1886.0792,-187.6427"/>
<polygon fill="#191970" stroke="#191970" points="1859.6555,-214.2967 1856.0126,-224.2455 1865.0646,-218.7399 1859.6555,-214.2967"/>
</g>
<!-- Node8&#45;&gt;Node137 -->
<g id="edge39" class="edge">
<title>Node8&#45;&gt;Node137</title>
<path fill="none" stroke="#191970" d="M1893.6896,-233.2474C2091.3997,-229.8517 2874.271,-214.941 3119,-188 3121.9379,-187.6766 3124.9561,-187.2849 3127.9922,-186.8461"/>
<polygon fill="#191970" stroke="#191970" points="1893.5843,-229.7485 1883.6454,-233.4186 1893.7037,-236.7475 1893.5843,-229.7485"/>
</g>
<!-- Node8&#45;&gt;Node138 -->
<g id="edge40" class="edge">
<title>Node8&#45;&gt;Node138</title>
<path fill="none" stroke="#191970" d="M1893.7906,-233.5318C2101.9377,-231.2412 2960.2058,-219.9994 3227,-188 3229.8736,-187.6553 3232.8305,-187.2258 3235.798,-186.7401"/>
<polygon fill="#191970" stroke="#191970" points="1893.491,-230.0348 1883.5296,-233.6433 1893.567,-237.0344 1893.491,-230.0348"/>
</g>
<!-- Node139 -->
<g id="node35" class="node">
<title>Node139</title>
<g id="a_node35"><a xlink:href="field__algebra_8cpp.html" target="_top" xlink:title="field_algebra.cpp">
<polygon fill="#ffffff" stroke="#000000" points="1946,-168.5 1946,-187.5 2036,-187.5 2036,-168.5 1946,-168.5"/>
<text text-anchor="middle" x="1991" y="-175.5" font-family="Helvetica,sans-Serif" font-size="10.00" fill="#000000">field_algebra.cpp</text>
</a>
</g>
</g>
<!-- Node8&#45;&gt;Node139 -->
<g id="edge41" class="edge">
<title>Node8&#45;&gt;Node139</title>
<path fill="none" stroke="#191970" d="M1882.0798,-220.6541C1908.1573,-210.4419 1943.4815,-196.6086 1966.7382,-187.5011"/>
<polygon fill="#191970" stroke="#191970" points="1880.6178,-217.4677 1872.5826,-224.3733 1883.1703,-223.9858 1880.6178,-217.4677"/>
</g>
<!-- Node140 -->
<g id="node36" class="node">
<title>Node140</title>
<g id="a_node36"><a xlink:href="diffusion_8_h.html" target="_top" xlink:title="diffusion.H">
<polygon fill="#ffffff" stroke="#ff0000" points="2054,-168.5 2054,-187.5 2118,-187.5 2118,-168.5 2054,-168.5"/>
<text text-anchor="middle" x="2086" y="-175.5" font-family="Helvetica,sans-Serif" font-size="10.00" fill="#000000">diffusion.H</text>
</a>
</g>
</g>
<!-- Node8&#45;&gt;Node140 -->
<g id="edge42" class="edge">
<title>Node8&#45;&gt;Node140</title>
<path fill="none" stroke="#191970" d="M1893.5802,-223.4908C1933.5274,-214.2484 1993.147,-200.3771 2045,-188 2047.8506,-187.3196 2050.8114,-186.6076 2053.7783,-185.8907"/>
<polygon fill="#191970" stroke="#191970" points="1892.5679,-220.1324 1883.6134,-225.7952 1894.1448,-226.9525 1892.5679,-220.1324"/>
</g>
<!-- Node141 -->
<g id="node37" class="node">
<title>Node141</title>
<g id="a_node37"><a xlink:href="_source_term_8_h.html" target="_top" xlink:title="SourceTerm.H">
<polygon fill="#ffffff" stroke="#ff0000" points="2136,-168.5 2136,-187.5 2216,-187.5 2216,-168.5 2136,-168.5"/>
<text text-anchor="middle" x="2176" y="-175.5" font-family="Helvetica,sans-Serif" font-size="10.00" fill="#000000">SourceTerm.H</text>
</a>
</g>
</g>
<!-- Node8&#45;&gt;Node141 -->
<g id="edge43" class="edge">
<title>Node8&#45;&gt;Node141</title>
<path fill="none" stroke="#191970" d="M1893.9368,-226.973C1949.3096,-218.3765 2045.1354,-203.0966 2127,-188 2129.903,-187.4647 2132.8993,-186.8951 2135.9127,-186.3099"/>
<polygon fill="#191970" stroke="#191970" points="1893.0962,-223.5614 1883.7493,-228.55 1894.1671,-230.479 1893.0962,-223.5614"/>
</g>
<!-- Node143 -->
<g id="node38" class="node">
<title>Node143</title>
<g id="a_node38"><a xlink:href="_p_d_e_helpers_8_h.html" target="_top" xlink:title="PDEHelpers.H">
<polygon fill="#ffffff" stroke="#ff0000" points="1250,-168.5 1250,-187.5 1332,-187.5 1332,-168.5 1250,-168.5"/>
<text text-anchor="middle" x="1291" y="-175.5" font-family="Helvetica,sans-Serif" font-size="10.00" fill="#000000">PDEHelpers.H</text>
</a>
</g>
</g>
<!-- Node8&#45;&gt;Node143 -->
<g id="edge44" class="edge">
<title>Node8&#45;&gt;Node143</title>
<path fill="none" stroke="#191970" d="M1802.0375,-231.1545C1713.5054,-225.3713 1513.2791,-210.8258 1346,-188 1341.4805,-187.3833 1336.7666,-186.656 1332.082,-185.8794"/>
<polygon fill="#191970" stroke="#191970" points="1802.0656,-234.6635 1812.2707,-231.8162 1802.5174,-227.6781 1802.0656,-234.6635"/>
</g>
<!-- Node144 -->
<g id="node39" class="node">
<title>Node144</title>
<g id="a_node39"><a xlink:href="_density_source_8_h.html" target="_top" xlink:title="DensitySource.H">
<polygon fill="#ffffff" stroke="#ff0000" points="2234,-168.5 2234,-187.5 2326,-187.5 2326,-168.5 2234,-168.5"/>
<text text-anchor="middle" x="2280" y="-175.5" font-family="Helvetica,sans-Serif" font-size="10.00" fill="#000000">DensitySource.H</text>
</a>
</g>
</g>
<!-- Node8&#45;&gt;Node144 -->
<g id="edge47" class="edge">
<title>Node8&#45;&gt;Node144</title>
<path fill="none" stroke="#191970" d="M1893.6587,-229.2998C1964.6834,-221.7921 2105.8574,-206.084 2225,-188 2227.8786,-187.5631 2230.8378,-187.0912 2233.8192,-186.5986"/>
<polygon fill="#191970" stroke="#191970" points="1893.2786,-225.8203 1883.6996,-230.3473 1894.0109,-232.7819 1893.2786,-225.8203"/>
</g>
<!-- Node145 -->
<g id="node40" class="node">
<title>Node145</title>
<g id="a_node40"><a xlink:href="_momentum_source_8_h.html" target="_top" xlink:title="MomentumSource.H">
<polygon fill="#ffffff" stroke="#ff0000" points="286.5,-168.5 286.5,-187.5 393.5,-187.5 393.5,-168.5 286.5,-168.5"/>
<text text-anchor="middle" x="340" y="-175.5" font-family="Helvetica,sans-Serif" font-size="10.00" fill="#000000">MomentumSource.H</text>
</a>
</g>
</g>
<!-- Node8&#45;&gt;Node145 -->
<g id="edge48" class="edge">
<title>Node8&#45;&gt;Node145</title>
<path fill="none" stroke="#191970" d="M1802.0153,-233.6723C1625.2914,-232.1645 972.8931,-224.3138 437,-188 422.8962,-187.0443 407.6733,-185.6481 393.5617,-184.2006"/>
<polygon fill="#191970" stroke="#191970" points="1802.2167,-237.174 1812.2453,-233.7569 1802.2747,-230.1742 1802.2167,-237.174"/>
</g>
<!-- Node148 -->
<g id="node41" class="node">
<title>Node148</title>
<g id="a_node41"><a xlink:href="_boussinesq_buoyancy_8_h.html" target="_top" xlink:title="BoussinesqBuoyancy.H">
<polygon fill="#ffffff" stroke="#000000" points="0,-112.5 0,-131.5 122,-131.5 122,-112.5 0,-112.5"/>
<text text-anchor="middle" x="61" y="-119.5" font-family="Helvetica,sans-Serif" font-size="10.00" fill="#000000">BoussinesqBuoyancy.H</text>
</a>
</g>
</g>
<!-- Node8&#45;&gt;Node148 -->
<g id="edge59" class="edge">
<title>Node8&#45;&gt;Node148</title>
<path fill="none" stroke="#191970" d="M1802.1051,-233.6483C1537.4928,-231.5102 215.6682,-219.2914 136,-188 106.295,-176.3328 80.5458,-147.3415 68.4116,-131.9568"/>
<polygon fill="#191970" stroke="#191970" points="1802.1112,-237.1484 1812.139,-233.7286 1802.1673,-230.1486 1802.1112,-237.1484"/>
</g>
<!-- Node149 -->
<g id="node42" class="node">
<title>Node149</title>
<g id="a_node42"><a xlink:href="_coriolis_forcing_8_h.html" target="_top" xlink:title="CoriolisForcing.H">
<polygon fill="#ffffff" stroke="#000000" points="318,-112.5 318,-131.5 410,-131.5 410,-112.5 318,-112.5"/>
<text text-anchor="middle" x="364" y="-119.5" font-family="Helvetica,sans-Serif" font-size="10.00" fill="#000000">CoriolisForcing.H</text>
</a>
</g>
</g>
<!-- Node8&#45;&gt;Node149 -->
<g id="edge60" class="edge">
<title>Node8&#45;&gt;Node149</title>
<path fill="none" stroke="#191970" d="M1801.9777,-233.1027C1615.9327,-229.329 918.9848,-213.7396 700,-188 590.9206,-175.1788 464.286,-146.4889 402.2455,-131.5122"/>
<polygon fill="#191970" stroke="#191970" points="1802.1592,-236.607 1812.2277,-233.3091 1802.3002,-229.6084 1802.1592,-236.607"/>
</g>
<!-- Node150 -->
<g id="node43" class="node">
<title>Node150</title>
<g id="a_node43"><a xlink:href="_density_buoyancy_8_h.html" target="_top" xlink:title="DensityBuoyancy.H">
<polygon fill="#ffffff" stroke="#000000" points="428,-112.5 428,-131.5 532,-131.5 532,-112.5 428,-112.5"/>
<text text-anchor="middle" x="480" y="-119.5" font-family="Helvetica,sans-Serif" font-size="10.00" fill="#000000">DensityBuoyancy.H</text>
</a>
</g>
</g>
<!-- Node8&#45;&gt;Node150 -->
<g id="edge61" class="edge">
<title>Node8&#45;&gt;Node150</title>
<path fill="none" stroke="#191970" d="M1802.1681,-232.7963C1629.9437,-228.1386 1021.5366,-210.4365 829,-188 716.1473,-174.8491 584.9566,-146.4399 520.283,-131.5482"/>
<polygon fill="#191970" stroke="#191970" points="1802.3138,-236.3014 1812.4043,-233.0716 1802.5021,-229.3039 1802.3138,-236.3014"/>
</g>
<!-- Node152 -->
<g id="node44" class="node">
<title>Node152</title>
<g id="a_node44"><a xlink:href="_m_m_s_forcing_8_h.html" target="_top" xlink:title="MMSForcing.H">
<polygon fill="#ffffff" stroke="#ff0000" points="178.5,-112.5 178.5,-131.5 261.5,-131.5 261.5,-112.5 178.5,-112.5"/>
<text text-anchor="middle" x="220" y="-119.5" font-family="Helvetica,sans-Serif" font-size="10.00" fill="#000000">MMSForcing.H</text>
</a>
</g>
</g>
<!-- Node8&#45;&gt;Node152 -->
<g id="edge66" class="edge">
<title>Node8&#45;&gt;Node152</title>
<path fill="none" stroke="#191970" d="M1801.8937,-233.6942C1549.8587,-231.8912 347.5639,-221.5531 277,-188 251.8417,-176.0372 233.4021,-147.1752 225.02,-131.8866"/>
<polygon fill="#191970" stroke="#191970" points="1802.1353,-237.1959 1812.1597,-233.7666 1802.1847,-230.196 1802.1353,-237.1959"/>
</g>
<!-- Node153 -->
<g id="node45" class="node">
<title>Node153</title>
<g id="a_node45"><a xlink:href="fvm__utils_8_h.html" target="_top" xlink:title="fvm_utils.H">
<polygon fill="#ffffff" stroke="#ff0000" points="2344.5,-168.5 2344.5,-187.5 2411.5,-187.5 2411.5,-168.5 2344.5,-168.5"/>
<text text-anchor="middle" x="2378" y="-175.5" font-family="Helvetica,sans-Serif" font-size="10.00" fill="#000000">fvm_utils.H</text>
</a>
</g>
</g>
<!-- Node8&#45;&gt;Node153 -->
<g id="edge57" class="edge">
<title>Node8&#45;&gt;Node153</title>
<path fill="none" stroke="#191970" d="M1893.6642,-231.7376C1980.2154,-226.9964 2173.9045,-214.2185 2335,-188 2338.026,-187.5075 2341.1562,-186.9248 2344.2841,-186.2921"/>
<polygon fill="#191970" stroke="#191970" points="1893.4472,-228.2441 1883.6497,-232.2763 1893.8233,-235.234 1893.4472,-228.2441"/>
</g>
<!-- Node162 -->
<g id="node46" class="node">
<title>Node162</title>
<g id="a_node46"><a xlink:href="_s_d_r_source_8_h.html" target="_top" xlink:title="SDRSource.H">
<polygon fill="#ffffff" stroke="#ff0000" points="2430,-168.5 2430,-187.5 2510,-187.5 2510,-168.5 2430,-168.5"/>
<text text-anchor="middle" x="2470" y="-175.5" font-family="Helvetica,sans-Serif" font-size="10.00" fill="#000000">SDRSource.H</text>
</a>
</g>
</g>
<!-- Node8&#45;&gt;Node162 -->
<g id="edge63" class="edge">
<title>Node8&#45;&gt;Node162</title>
<path fill="none" stroke="#191970" d="M1893.7091,-232.1444C1990.9414,-227.7981 2225.3182,-215.2009 2420,-188 2423.2439,-187.5468 2426.5946,-187.0156 2429.9534,-186.4386"/>
<polygon fill="#191970" stroke="#191970" points="1893.472,-228.6513 1883.6353,-232.5869 1893.7793,-235.6446 1893.472,-228.6513"/>
</g>
<!-- Node163 -->
<g id="node47" class="node">
<title>Node163</title>
<g id="a_node47"><a xlink:href="_temperature_source_8_h.html" target="_top" xlink:title="TemperatureSource.H">
<polygon fill="#ffffff" stroke="#ff0000" points="2528.5,-168.5 2528.5,-187.5 2641.5,-187.5 2641.5,-168.5 2528.5,-168.5"/>
<text text-anchor="middle" x="2585" y="-175.5" font-family="Helvetica,sans-Serif" font-size="10.00" fill="#000000">TemperatureSource.H</text>
</a>
</g>
</g>
<!-- Node8&#45;&gt;Node163 -->
<g id="edge64" class="edge">
<title>Node8&#45;&gt;Node163</title>
<path fill="none" stroke="#191970" d="M1894.0302,-232.1459C2002.9229,-227.4759 2284.7965,-213.7268 2519,-188 2521.9952,-187.671 2525.0627,-187.3057 2528.157,-186.9148"/>
<polygon fill="#191970" stroke="#191970" points="1893.5783,-228.6618 1883.7355,-232.5823 1893.8748,-235.6555 1893.5783,-228.6618"/>
</g>
<!-- Node164 -->
<g id="node48" class="node">
<title>Node164</title>
<g id="a_node48"><a xlink:href="_t_k_e_source_8_h.html" target="_top" xlink:title="TKESource.H">
<polygon fill="#ffffff" stroke="#ff0000" points="2659.5,-168.5 2659.5,-187.5 2736.5,-187.5 2736.5,-168.5 2659.5,-168.5"/>
<text text-anchor="middle" x="2698" y="-175.5" font-family="Helvetica,sans-Serif" font-size="10.00" fill="#000000">TKESource.H</text>
</a>
</g>
</g>
<!-- Node8&#45;&gt;Node164 -->
<g id="edge65" class="edge">
<title>Node8&#45;&gt;Node164</title>
<path fill="none" stroke="#191970" d="M1894.0062,-232.2593C2041.5978,-226.5337 2502.1497,-207.5318 2650,-188 2653.038,-187.5987 2656.1708,-187.1124 2659.3116,-186.5732"/>
<polygon fill="#191970" stroke="#191970" points="1893.7865,-228.7651 1883.9291,-232.6484 1894.0567,-235.7599 1893.7865,-228.7651"/>
</g>
<!-- Node167 -->
<g id="node49" class="node">
<title>Node167</title>
<g id="a_node49"><a xlink:href="_transport_model_8_h.html" target="_top" xlink:title="TransportModel.H">
<polygon fill="#ffffff" stroke="#ff0000" points="2754.5,-168.5 2754.5,-187.5 2849.5,-187.5 2849.5,-168.5 2754.5,-168.5"/>
<text text-anchor="middle" x="2802" y="-175.5" font-family="Helvetica,sans-Serif" font-size="10.00" fill="#000000">TransportModel.H</text>
</a>
</g>
</g>
<!-- Node8&#45;&gt;Node167 -->
<g id="edge68" class="edge">
<title>Node8&#45;&gt;Node167</title>
<path fill="none" stroke="#191970" d="M1893.7619,-233.6284C2026.0606,-232.1297 2420.2667,-224.6723 2745,-188 2748.0949,-187.6505 2751.2761,-187.239 2754.4772,-186.7856"/>
<polygon fill="#191970" stroke="#191970" points="1893.5581,-230.1303 1883.5963,-233.7375 1893.6333,-237.1299 1893.5581,-230.1303"/>
</g>
<!-- Node106 -->
<g id="node50" class="node">
<title>Node106</title>
<g id="a_node50"><a xlink:href="_smagorinsky_8_h.html" target="_top" xlink:title="Smagorinsky.H">
<polygon fill="#ffffff" stroke="#ff0000" points="2868,-168.5 2868,-187.5 2952,-187.5 2952,-168.5 2868,-168.5"/>
<text text-anchor="middle" x="2910" y="-175.5" font-family="Helvetica,sans-Serif" font-size="10.00" fill="#000000">Smagorinsky.H</text>
</a>
</g>
</g>
<!-- Node8&#45;&gt;Node106 -->
<g id="edge69" class="edge">
<title>Node8&#45;&gt;Node106</title>
<path fill="none" stroke="#191970" d="M1893.7162,-232.797C2064.8151,-228.1579 2667.3062,-210.5587 2858,-188 2861.1953,-187.622 2864.4889,-187.1604 2867.7942,-186.6452"/>
<polygon fill="#191970" stroke="#191970" points="1893.4463,-229.3029 1883.5443,-233.0713 1893.635,-236.3004 1893.4463,-229.3029"/>
</g>
<!-- Node10&#45;&gt;Node9 -->
<g id="edge4" class="edge">
<title>Node10&#45;&gt;Node9</title>
<path fill="none" stroke="#191970" d="M3036.7244,-162.2097C3022.8495,-152.3743 3005.4485,-140.0394 2993.6031,-131.6427"/>
<polygon fill="#191970" stroke="#191970" points="3035.0569,-165.3178 3045.2393,-168.2455 3039.1051,-159.6071 3035.0569,-165.3178"/>
</g>
<!-- Node11 -->
<g id="node5" class="node">
<title>Node11</title>
<g id="a_node5"><a xlink:href="_fixed_gradient_b_c_8cpp.html" target="_top" xlink:title="FixedGradientBC.cpp">
<polygon fill="#ffffff" stroke="#000000" points="3042,-112.5 3042,-131.5 3152,-131.5 3152,-112.5 3042,-112.5"/>
<text text-anchor="middle" x="3097" y="-119.5" font-family="Helvetica,sans-Serif" font-size="10.00" fill="#000000">FixedGradientBC.cpp</text>
</a>
</g>
</g>
<!-- Node10&#45;&gt;Node11 -->
<g id="edge5" class="edge">
<title>Node10&#45;&gt;Node11</title>
<path fill="none" stroke="#191970" d="M3071.2679,-159.9209C3077.6488,-150.5176 3085.1931,-139.3997 3090.4568,-131.6427"/>
<polygon fill="#191970" stroke="#191970" points="3068.338,-158.0055 3065.6191,-168.2455 3074.1303,-161.936 3068.338,-158.0055"/>
</g>
<!-- Node12&#45;&gt;Node13 -->
<g id="edge7" class="edge">
<title>Node12&#45;&gt;Node13</title>
<path fill="none" stroke="#191970" d="M1156.4194,-177.1638C1059.4908,-174.7137 815.1996,-165.4481 614,-132 609.4491,-131.2435 604.6526,-130.2123 600.0395,-129.0985"/>
<polygon fill="#191970" stroke="#191970" points="1156.3371,-180.6627 1166.4187,-177.4053 1156.5061,-173.6647 1156.3371,-180.6627"/>
</g>
<!-- Node32 -->
<g id="node8" class="node">
<title>Node32</title>
<g id="a_node8"><a xlink:href="_a_b_l_wall_function_8_h.html" target="_top" xlink:title="ABLWallFunction.H">
<polygon fill="#ffffff" stroke="#ff0000" points="1388.5,-56.5 1388.5,-75.5 1491.5,-75.5 1491.5,-56.5 1388.5,-56.5"/>
<text text-anchor="middle" x="1440" y="-63.5" font-family="Helvetica,sans-Serif" font-size="10.00" fill="#000000">ABLWallFunction.H</text>
</a>
</g>
</g>
<!-- Node12&#45;&gt;Node32 -->
<g id="edge8" class="edge">
<title>Node12&#45;&gt;Node32</title>
<path fill="none" stroke="#191970" d="M1241.4995,-168.3113C1302.779,-159.4071 1425.5604,-166.8057 1455,-132 1468.6592,-115.851 1455.6944,-89.7822 1446.7927,-75.727"/>
<polygon fill="#191970" stroke="#191970" points="1240.7724,-164.8849 1231.5117,-170.0316 1241.9607,-171.7833 1240.7724,-164.8849"/>
</g>
<!-- Node37 -->
<g id="node9" class="node">
<title>Node37</title>
<g id="a_node9"><a xlink:href="_a_b_l_stats_8_h.html" target="_top" xlink:title="ABLStats.H">
<polygon fill="#ffffff" stroke="#ff0000" points="1325.5,-.5 1325.5,-19.5 1394.5,-19.5 1394.5,-.5 1325.5,-.5"/>
<text text-anchor="middle" x="1360" y="-7.5" font-family="Helvetica,sans-Serif" font-size="10.00" fill="#000000">ABLStats.H</text>
</a>
</g>
</g>
<!-- Node12&#45;&gt;Node37 -->
<g id="edge16" class="edge">
<title>Node12&#45;&gt;Node37</title>
<path fill="none" stroke="#191970" d="M1230.4043,-163.8907C1245.8554,-155.9615 1264.0969,-145.0343 1278,-132 1315.422,-96.9167 1344.6303,-41.7158 1355.4535,-19.616"/>
<polygon fill="#191970" stroke="#191970" points="1228.6245,-160.8661 1221.2081,-168.4323 1231.7241,-167.1424 1228.6245,-160.8661"/>
</g>
<!-- Node40 -->
<g id="node10" class="node">
<title>Node40</title>
<g id="a_node10"><a xlink:href="_field_plane_averaging_8_h.html" target="_top" xlink:title="FieldPlaneAveraging.H">
<polygon fill="#ffffff" stroke="#ff0000" points="1330,-112.5 1330,-131.5 1446,-131.5 1446,-112.5 1330,-112.5"/>
<text text-anchor="middle" x="1388" y="-119.5" font-family="Helvetica,sans-Serif" font-size="10.00" fill="#000000">FieldPlaneAveraging.H</text>
</a>
</g>
</g>
<!-- Node12&#45;&gt;Node40 -->
<g id="edge10" class="edge">
<title>Node12&#45;&gt;Node40</title>
<path fill="none" stroke="#191970" d="M1241.3357,-165.4561C1276.0294,-155.1765 1324.3834,-140.8494 1355.9337,-131.5011"/>
<polygon fill="#191970" stroke="#191970" points="1240.0839,-162.1765 1231.4903,-168.3733 1242.0726,-168.8881 1240.0839,-162.1765"/>
</g>
<!-- Node35 -->
<g id="node12" class="node">
<title>Node35</title>
<g id="a_node12"><a xlink:href="_a_b_l_mean_boussinesq_8cpp.html" target="_top" xlink:title="ABLMeanBoussinesq.cpp">
<polygon fill="#ffffff" stroke="#000000" points="764.5,-.5 764.5,-19.5 893.5,-19.5 893.5,-.5 764.5,-.5"/>
<text text-anchor="middle" x="829" y="-7.5" font-family="Helvetica,sans-Serif" font-size="10.00" fill="#000000">ABLMeanBoussinesq.cpp</text>
</a>
</g>
</g>
<!-- Node12&#45;&gt;Node35 -->
<g id="edge22" class="edge">
<title>Node12&#45;&gt;Node35</title>
<path fill="none" stroke="#191970" d="M1214.844,-160.3626C1225.4601,-146.3222 1235.7031,-126.6628 1225,-112 1186.1775,-58.8151 995.6941,-29.1508 893.7236,-16.8457"/>
<polygon fill="#191970" stroke="#191970" points="1211.9883,-158.3259 1208.3698,-168.2836 1217.4083,-162.7559 1211.9883,-158.3259"/>
</g>
<!-- Node46 -->
<g id="node13" class="node">
<title>Node46</title>
<g id="a_node13"><a xlink:href="_a_b_l_boundary_plane_8_h.html" target="_top" xlink:title="ABLBoundaryPlane.H">
<polygon fill="#ffffff" stroke="#ff0000" points="1502,-112.5 1502,-131.5 1614,-131.5 1614,-112.5 1502,-112.5"/>
<text text-anchor="middle" x="1558" y="-119.5" font-family="Helvetica,sans-Serif" font-size="10.00" fill="#000000">ABLBoundaryPlane.H</text>
</a>
</g>
</g>
<!-- Node12&#45;&gt;Node46 -->
<g id="edge15" class="edge">
<title>Node12&#45;&gt;Node46</title>
<path fill="none" stroke="#191970" d="M1241.8152,-168.1898C1281.9144,-161.798 1421.8589,-141.6059 1501.6419,-130.1129"/>
<polygon fill="#191970" stroke="#191970" points="1241.2305,-164.7389 1231.9548,-169.8587 1242.3987,-171.6408 1241.2305,-164.7389"/>
</g>
<!-- Node50 -->
<g id="node14" class="node">
<title>Node50</title>
<g id="a_node14"><a xlink:href="_c_f_d_sim_8cpp.html" target="_top" xlink:title="CFDSim.cpp">
<polygon fill="#ffffff" stroke="#000000" points="1632,-112.5 1632,-131.5 1706,-131.5 1706,-112.5 1632,-112.5"/>
<text text-anchor="middle" x="1669" y="-119.5" font-family="Helvetica,sans-Serif" font-size="10.00" fill="#000000">CFDSim.cpp</text>
</a>
</g>
</g>
<!-- Node12&#45;&gt;Node50 -->
<g id="edge17" class="edge">
<title>Node12&#45;&gt;Node50</title>
<path fill="none" stroke="#191970" d="M1241.9148,-168.0654C1411.0138,-140.8516 1457.6974,-157.6618 1623,-132 1625.9073,-131.5487 1628.9066,-131.0265 1631.9146,-130.4624"/>
<polygon fill="#191970" stroke="#191970" points="1241.2297,-164.6308 1231.9266,-169.7007 1242.3608,-171.5389 1241.2297,-164.6308"/>
</g>
<!-- Node51 -->
<g id="node15" class="node">
<title>Node51</title>
<g id="a_node15"><a xlink:href="_p_d_e_ops_8_h.html" target="_top" xlink:title="PDEOps.H">
<polygon fill="#ffffff" stroke="#ff0000" points="1762,-112.5 1762,-131.5 1828,-131.5 1828,-112.5 1762,-112.5"/>
<text text-anchor="middle" x="1795" y="-119.5" font-family="Helvetica,sans-Serif" font-size="10.00" fill="#000000">PDEOps.H</text>
</a>
</g>
</g>
<!-- Node12&#45;&gt;Node51 -->
<g id="edge18" class="edge">
<title>Node12&#45;&gt;Node51</title>
<path fill="none" stroke="#191970" d="M1242.0167,-168.0919C1466.0792,-134.5863 1527.5945,-163.1192 1748,-132 1752.5432,-131.3585 1757.3037,-130.5311 1761.9784,-129.6273"/>
<polygon fill="#191970" stroke="#191970" points="1241.2753,-164.6643 1231.915,-169.6277 1242.3275,-171.5847 1241.2753,-164.6643"/>
</g>
<!-- Node65 -->
<g id="node16" class="node">
<title>Node65</title>
<g id="a_node16"><a xlink:href="_p_d_e_8_h.html" target="_top" xlink:title="PDE.H">
<polygon fill="#ffffff" stroke="#ff0000" points="1740,-56.5 1740,-75.5 1788,-75.5 1788,-56.5 1740,-56.5"/>
<text text-anchor="middle" x="1764" y="-63.5" font-family="Helvetica,sans-Serif" font-size="10.00" fill="#000000">PDE.H</text>
</a>
</g>
</g>
<!-- Node12&#45;&gt;Node65 -->
<g id="edge20" class="edge">
<title>Node12&#45;&gt;Node65</title>
<path fill="none" stroke="#191970" d="M1241.9427,-168.2355C1360.9223,-153.4222 1625.1172,-181.569 1715,-132 1737.9938,-119.3193 1753.2475,-90.7714 1760.0088,-75.7163"/>
<polygon fill="#191970" stroke="#191970" points="1241.3336,-164.7866 1231.9174,-169.6432 1242.307,-171.7186 1241.3336,-164.7866"/>
</g>
<!-- Node34 -->
<g id="node17" class="node">
<title>Node34</title>
<g id="a_node17"><a xlink:href="_a_b_l_forcing_8cpp.html" target="_top" xlink:title="ABLForcing.cpp">
<polygon fill="#ffffff" stroke="#000000" points="694,-112.5 694,-131.5 780,-131.5 780,-112.5 694,-112.5"/>
<text text-anchor="middle" x="737" y="-119.5" font-family="Helvetica,sans-Serif" font-size="10.00" fill="#000000">ABLForcing.cpp</text>
</a>
</g>
</g>
<!-- Node12&#45;&gt;Node34 -->
<g id="edge21" class="edge">
<title>Node12&#45;&gt;Node34</title>
<path fill="none" stroke="#191970" d="M1156.0521,-174.297C1081.2498,-167.5987 922.3012,-152.2635 789,-132 786.0916,-131.5579 783.0978,-131.07 780.0854,-130.5548"/>
<polygon fill="#191970" stroke="#191970" points="1156.1944,-177.8233 1166.4649,-175.2221 1156.8139,-170.8508 1156.1944,-177.8233"/>
</g>
<!-- Node78 -->
<g id="node18" class="node">
<title>Node78</title>
<g id="a_node18"><a xlink:href="_body_force_8cpp.html" target="_top" xlink:title="BodyForce.cpp">
<polygon fill="#ffffff" stroke="#000000" points="798.5,-112.5 798.5,-131.5 881.5,-131.5 881.5,-112.5 798.5,-112.5"/>
<text text-anchor="middle" x="840" y="-119.5" font-family="Helvetica,sans-Serif" font-size="10.00" fill="#000000">BodyForce.cpp</text>
</a>
</g>
</g>
<!-- Node12&#45;&gt;Node78 -->
<g id="edge23" class="edge">
<title>Node12&#45;&gt;Node78</title>
<path fill="none" stroke="#191970" d="M1155.9294,-172.1958C1096.2876,-164.0155 985.2369,-148.2675 891,-132 887.977,-131.4782 884.8573,-130.9185 881.7201,-130.3404"/>
<polygon fill="#191970" stroke="#191970" points="1155.7198,-175.6996 1166.1016,-173.586 1156.6677,-168.7641 1155.7198,-175.6996"/>
</g>
<!-- Node79 -->
<g id="node19" class="node">
<title>Node79</title>
<g id="a_node19"><a xlink:href="_boussinesq_buoyancy_8cpp.html" target="_top" xlink:title="BoussinesqBuoyancy.cpp">
<polygon fill="#ffffff" stroke="#000000" points="49,-56.5 49,-75.5 179,-75.5 179,-56.5 49,-56.5"/>
<text text-anchor="middle" x="114" y="-63.5" font-family="Helvetica,sans-Serif" font-size="10.00" fill="#000000">BoussinesqBuoyancy.cpp</text>
</a>
</g>
</g>
<!-- Node12&#45;&gt;Node79 -->
<g id="edge24" class="edge">
<title>Node12&#45;&gt;Node79</title>
<path fill="none" stroke="#191970" d="M1156.0596,-176.2772C1044.5677,-171.502 747.9627,-156.7888 653,-132 632.2155,-126.5745 629.761,-117.515 609,-112 529.5474,-90.8941 294.2387,-75.7274 179.0281,-69.348"/>
<polygon fill="#191970" stroke="#191970" points="1156.1193,-179.7828 1166.2582,-176.7083 1156.415,-172.789 1156.1193,-179.7828"/>
</g>
<!-- Node80 -->
<g id="node20" class="node">
<title>Node80</title>
<g id="a_node20"><a xlink:href="_coriolis_forcing_8cpp.html" target="_top" xlink:title="CoriolisForcing.cpp">
<polygon fill="#ffffff" stroke="#000000" points="563.5,-56.5 563.5,-75.5 664.5,-75.5 664.5,-56.5 563.5,-56.5"/>
<text text-anchor="middle" x="614" y="-63.5" font-family="Helvetica,sans-Serif" font-size="10.00" fill="#000000">CoriolisForcing.cpp</text>
</a>
</g>
</g>
<!-- Node12&#45;&gt;Node80 -->
<g id="edge25" class="edge">
<title>Node12&#45;&gt;Node80</title>
<path fill="none" stroke="#191970" d="M1156.0644,-175.7549C1040.2981,-169.4776 727.5578,-150.9586 685,-132 656.7135,-119.399 632.4101,-90.8162 620.977,-75.7352"/>
<polygon fill="#191970" stroke="#191970" points="1156.1428,-179.2641 1166.3165,-176.3067 1156.519,-172.2742 1156.1428,-179.2641"/>
</g>
<!-- Node81 -->
<g id="node21" class="node">
<title>Node81</title>
<g id="a_node21"><a xlink:href="_density_buoyancy_8cpp.html" target="_top" xlink:title="DensityBuoyancy.cpp">
<polygon fill="#ffffff" stroke="#000000" points="928.5,-56.5 928.5,-75.5 1041.5,-75.5 1041.5,-56.5 928.5,-56.5"/>
<text text-anchor="middle" x="985" y="-63.5" font-family="Helvetica,sans-Serif" font-size="10.00" fill="#000000">DensityBuoyancy.cpp</text>
</a>
</g>
</g>
<!-- Node12&#45;&gt;Node81 -->
<g id="edge26" class="edge">
<title>Node12&#45;&gt;Node81</title>
<path fill="none" stroke="#191970" d="M1208.1845,-158.8095C1213.6045,-144.3876 1217.5543,-124.9655 1207,-112 1186.531,-86.8549 1100.4637,-75.0228 1041.7078,-69.7826"/>
<polygon fill="#191970" stroke="#191970" points="1204.8568,-157.6911 1204.1645,-168.2633 1211.2986,-160.4303 1204.8568,-157.6911"/>
</g>
<!-- Node82 -->
<g id="node22" class="node">
<title>Node82</title>
<g id="a_node22"><a xlink:href="_geostrophic_forcing_8cpp.html" target="_top" xlink:title="GeostrophicForcing.cpp">
<polygon fill="#ffffff" stroke="#000000" points="900,-112.5 900,-131.5 1020,-131.5 1020,-112.5 900,-112.5"/>
<text text-anchor="middle" x="960" y="-119.5" font-family="Helvetica,sans-Serif" font-size="10.00" fill="#000000">GeostrophicForcing.cpp</text>
</a>
</g>
</g>
<!-- Node12&#45;&gt;Node82 -->
<g id="edge27" class="edge">
<title>Node12&#45;&gt;Node82</title>
<path fill="none" stroke="#191970" d="M1156.4406,-168.0279C1112.3918,-157.7069 1044.078,-141.7003 1000.7197,-131.541"/>
<polygon fill="#191970" stroke="#191970" points="1155.7344,-171.4572 1166.2692,-170.3309 1157.3314,-164.6418 1155.7344,-171.4572"/>
</g>
<!-- Node12&#45;&gt;Node83 -->
<g id="edge28" class="edge">
<title>Node12&#45;&gt;Node83</title>
<path fill="none" stroke="#191970" d="M1242.1576,-168.0902C1505.3265,-130.0616 1577.2362,-166.1784 1837,-132 1840.0128,-131.6036 1843.1178,-131.1286 1846.2333,-130.6041"/>
<polygon fill="#191970" stroke="#191970" points="1241.2957,-164.6791 1231.91,-169.5943 1242.3123,-171.6049 1241.2957,-164.6791"/>
</g>
<!-- Node84 -->
<g id="node24" class="node">
<title>Node84</title>
<g id="a_node24"><a xlink:href="_ksgs_m84_src_8cpp.html" target="_top" xlink:title="KsgsM84Src.cpp">
<polygon fill="#ffffff" stroke="#000000" points="1038,-112.5 1038,-131.5 1130,-131.5 1130,-112.5 1038,-112.5"/>
<text text-anchor="middle" x="1084" y="-119.5" font-family="Helvetica,sans-Serif" font-size="10.00" fill="#000000">KsgsM84Src.cpp</text>
</a>
</g>
</g>
<!-- Node12&#45;&gt;Node84 -->
<g id="edge29" class="edge">
<title>Node12&#45;&gt;Node84</title>
<path fill="none" stroke="#191970" d="M1170.1967,-163.9741C1149.375,-153.8348 1121.8022,-140.408 1103.5112,-131.5011"/>
<polygon fill="#191970" stroke="#191970" points="1168.7078,-167.1419 1179.2308,-168.3733 1171.7724,-160.8484 1168.7078,-167.1419"/>
</g>
<!-- Node85 -->
<g id="node25" class="node">
<title>Node85</title>
<g id="a_node25"><a xlink:href="_m_m_s_8_h.html" target="_top" xlink:title="MMS.H">
<polygon fill="#ffffff" stroke="#ff0000" points="1148,-112.5 1148,-131.5 1198,-131.5 1198,-112.5 1148,-112.5"/>
<text text-anchor="middle" x="1173" y="-119.5" font-family="Helvetica,sans-Serif" font-size="10.00" fill="#000000">MMS.H</text>
</a>
</g>
</g>
<!-- Node12&#45;&gt;Node85 -->
<g id="edge30" class="edge">
<title>Node12&#45;&gt;Node85</title>
<path fill="none" stroke="#191970" d="M1190.1989,-159.0437C1185.9225,-149.8331 1180.967,-139.1598 1177.477,-131.6427"/>
<polygon fill="#191970" stroke="#191970" points="1187.0854,-160.6494 1194.4711,-168.2455 1193.4345,-157.7015 1187.0854,-160.6494"/>
</g>
<!-- Node12&#45;&gt;Node88 -->
<g id="edge31" class="edge">
<title>Node12&#45;&gt;Node88</title>
<path fill="none" stroke="#191970" d="M1241.957,-168.1325C1548.046,-124.998 1630.7862,-165.8934 1934,-132 1936.8433,-131.6822 1939.7585,-131.3142 1942.6959,-130.911"/>
<polygon fill="#191970" stroke="#191970" points="1241.3109,-164.6891 1231.9061,-169.5676 1242.3004,-171.6188 1241.3109,-164.6891"/>
</g>
<!-- Node32&#45;&gt;Node37 -->
<g id="edge9" class="edge">
<title>Node32&#45;&gt;Node37</title>
<path fill="none" stroke="#191970" d="M1417.8429,-50.49C1403.728,-40.6096 1385.8849,-28.1194 1373.7752,-19.6427"/>
<polygon fill="#191970" stroke="#191970" points="1415.8656,-53.3782 1426.0651,-56.2455 1419.8799,-47.6436 1415.8656,-53.3782"/>
</g>
<!-- Node40&#45;&gt;Node32 -->
<g id="edge11" class="edge">
<title>Node40&#45;&gt;Node32</title>
<path fill="none" stroke="#191970" d="M1403.9822,-104.7884C1412.8778,-95.2085 1423.6204,-83.6396 1431.0461,-75.6427"/>
<polygon fill="#191970" stroke="#191970" points="1401.2975,-102.536 1397.0577,-112.2455 1406.427,-107.2992 1401.2975,-102.536"/>
</g>
<!-- Node40&#45;&gt;Node37 -->
<g id="edge12" class="edge">
<title>Node40&#45;&gt;Node37</title>
<path fill="none" stroke="#191970" d="M1383.1497,-102.5987C1377.0907,-78.363 1366.9638,-37.8551 1362.3812,-19.5249"/>
<polygon fill="#191970" stroke="#191970" points="1379.7918,-103.5984 1385.6127,-112.4509 1386.5828,-101.9006 1379.7918,-103.5984"/>
</g>
<!-- Node40&#45;&gt;Node45 -->
<g id="edge13" class="edge">
<title>Node40&#45;&gt;Node45</title>
<path fill="none" stroke="#191970" d="M1319.47,-118.2007C1285.6197,-116.3274 1244.1642,-114.0382 1207,-112 913.0536,-95.879 561.5767,-76.8127 422.7133,-69.2882"/>
<polygon fill="#191970" stroke="#191970" points="1319.5397,-121.7099 1329.7179,-118.768 1319.9266,-114.7206 1319.5397,-121.7099"/>
</g>
<!-- Node45&#45;&gt;Node35 -->
<g id="edge14" class="edge">
<title>Node45&#45;&gt;Node35</title>
<path fill="none" stroke="#191970" d="M432.6978,-57.5223C522.8124,-46.7163 677.3273,-28.1877 764.412,-17.745"/>
<polygon fill="#191970" stroke="#191970" points="432.0855,-54.0706 422.5733,-58.7364 432.9189,-61.0208 432.0855,-54.0706"/>
</g>
<!-- Node51&#45;&gt;Node65 -->
<g id="edge19" class="edge">
<title>Node51&#45;&gt;Node65</title>
<path fill="none" stroke="#191970" d="M1784.6688,-103.3372C1779.5335,-94.0605 1773.5434,-83.2398 1769.3379,-75.6427"/>
<polygon fill="#191970" stroke="#191970" points="1781.6949,-105.1917 1789.6002,-112.2455 1787.8191,-101.8015 1781.6949,-105.1917"/>
</g>
<!-- Node143&#45;&gt;Node51 -->
<g id="edge45" class="edge">
<title>Node143&#45;&gt;Node51</title>
<path fill="none" stroke="#191970" d="M1342.145,-168.5417C1343.442,-168.3532 1344.7287,-168.1721 1346,-168 1523.7596,-143.931 1570.6186,-158.7137 1748,-132 1752.5371,-131.3167 1757.2941,-130.4654 1761.9671,-129.5499"/>
<polygon fill="#191970" stroke="#191970" points="1341.422,-165.1121 1332.0808,-170.1112 1342.5007,-172.0285 1341.422,-165.1121"/>
</g>
<!-- Node143&#45;&gt;Node83 -->
<g id="edge46" class="edge">
<title>Node143&#45;&gt;Node83</title>
<path fill="none" stroke="#191970" d="M1342.1414,-168.514C1343.4395,-168.3337 1344.7274,-168.1619 1346,-168 1563.059,-140.39 1620.2498,-161.9378 1837,-132 1840.0962,-131.5723 1843.2906,-131.0672 1846.4944,-130.5149"/>
<polygon fill="#191970" stroke="#191970" points="1341.4347,-165.081 1332.0712,-170.0383 1342.4824,-172.0022 1341.4347,-165.081"/>
</g>
<!-- Node145&#45;&gt;Node45 -->
<g id="edge49" class="edge">
<title>Node145&#45;&gt;Node45</title>
<path fill="none" stroke="#191970" d="M322.7603,-160.3272C312.0007,-147.0644 301.5004,-128.4394 309,-112 316.2818,-96.0379 332.1411,-83.4785 344.6242,-75.5442"/>
<polygon fill="#191970" stroke="#191970" points="320.4476,-162.9972 329.6818,-168.1917 325.7024,-158.3725 320.4476,-162.9972"/>
</g>
<!-- Node145&#45;&gt;Node148 -->
<g id="edge50" class="edge">
<title>Node145&#45;&gt;Node148</title>
<path fill="none" stroke="#191970" d="M282.3894,-166.4366C230.9544,-156.1127 156.5266,-141.1738 108.4483,-131.5237"/>
<polygon fill="#191970" stroke="#191970" points="281.8619,-169.9004 292.3552,-168.4369 283.2395,-163.0373 281.8619,-169.9004"/>
</g>
<!-- Node145&#45;&gt;Node149 -->
<g id="edge52" class="edge">
<title>Node145&#45;&gt;Node149</title>
<path fill="none" stroke="#191970" d="M348.1241,-159.0437C352.0715,-149.8331 356.6458,-139.1598 359.8674,-131.6427"/>
<polygon fill="#191970" stroke="#191970" points="344.9027,-157.6753 344.1805,-168.2455 351.3367,-160.4328 344.9027,-157.6753"/>
</g>
<!-- Node145&#45;&gt;Node150 -->
<g id="edge54" class="edge">
<title>Node145&#45;&gt;Node150</title>
<path fill="none" stroke="#191970" d="M373.3649,-164.6541C398.8952,-154.4419 433.4784,-140.6086 456.2472,-131.5011"/>
<polygon fill="#191970" stroke="#191970" points="372.0517,-161.4096 364.0669,-168.3733 374.6515,-167.909 372.0517,-161.4096"/>
</g>
<!-- Node145&#45;&gt;Node152 -->
<g id="edge56" class="edge">
<title>Node145&#45;&gt;Node152</title>
<path fill="none" stroke="#191970" d="M310.2376,-164.1109C288.4768,-153.9559 259.5318,-140.4482 240.3595,-131.5011"/>
<polygon fill="#191970" stroke="#191970" points="308.8293,-167.316 319.3713,-168.3733 311.7895,-160.9727 308.8293,-167.316"/>
</g>
<!-- Node148&#45;&gt;Node79 -->
<g id="edge51" class="edge">
<title>Node148&#45;&gt;Node79</title>
<path fill="none" stroke="#191970" d="M77.2896,-104.7884C86.3562,-95.2085 97.3054,-83.6396 104.8739,-75.6427"/>
<polygon fill="#191970" stroke="#191970" points="74.5637,-102.5767 70.2319,-112.2455 79.6478,-107.3884 74.5637,-102.5767"/>
</g>
<!-- Node149&#45;&gt;Node80 -->
<g id="edge53" class="edge">
<title>Node149&#45;&gt;Node80</title>
<path fill="none" stroke="#191970" d="M416.489,-110.2425C462.5438,-99.9262 528.672,-85.1135 571.4836,-75.5237"/>
<polygon fill="#191970" stroke="#191970" points="415.6856,-106.8356 406.6925,-112.4369 417.2157,-113.6663 415.6856,-106.8356"/>
</g>
<!-- Node150&#45;&gt;Node81 -->
<g id="edge55" class="edge">
<title>Node150&#45;&gt;Node81</title>
<path fill="none" stroke="#191970" d="M542.1844,-111.9052C687.1719,-92.7616 845.86,-77.9938 928.4523,-70.7772"/>
<polygon fill="#191970" stroke="#191970" points="541.6642,-108.4435 532.2131,-113.2317 542.5873,-115.3824 541.6642,-108.4435"/>
</g>
</g>
</svg>
