<?xml version="1.0" encoding="UTF-8" standalone="no"?>
<!DOCTYPE svg PUBLIC "-//W3C//DTD SVG 1.1//EN"
 "http://www.w3.org/Graphics/SVG/1.1/DTD/svg11.dtd">
<!-- Generated by graphviz version 2.40.1 (20161225.0304)
 -->
<!-- Title: TaylorGreenVortex.cpp Pages: 1 -->
<!--zoomable 285 -->
<svg id="main" version="1.1" xmlns="http://www.w3.org/2000/svg" xmlns:xlink="http://www.w3.org/1999/xlink" xml:space="preserve" onload="init(evt)">
<style type="text/css"><![CDATA[
.edge:hover path { stroke: red; }
.edge:hover polygon { stroke: red; fill: red; }
]]></style>
<script type="text/javascript"><![CDATA[
var edges = document.getElementsByTagName('g');
if (edges && edges.length) {
  for (var i=0;i<edges.length;i++) {
    if (edges[i].id.substr(0,4)=='edge') {
      edges[i].setAttribute('class','edge');
    }
  }
}
]]></script>
        <defs>
                <circle id="rim" cx="0" cy="0" r="7"/>
                <circle id="rim2" cx="0" cy="0" r="3.5"/>
                <g id="zoomPlus">
                        <use xlink:href="#rim" fill="#404040">
                                <set attributeName="fill" to="#808080" begin="zoomplus.mouseover" end="zoomplus.mouseout"/>
                        </use>
                        <path d="M-4,0h8M0,-4v8" fill="none" stroke="white" stroke-width="1.5" pointer-events="none"/>
                </g>
                <g id="zoomMin">
                        <use xlink:href="#rim" fill="#404040">
                                <set attributeName="fill" to="#808080" begin="zoomminus.mouseover" end="zoomminus.mouseout"/>
                        </use>
                        <path d="M-4,0h8" fill="none" stroke="white" stroke-width="1.5" pointer-events="none"/>
                </g>
                <g id="dirArrow">
                        <path fill="none" stroke="white" stroke-width="1.5" d="M0,-3.0v7 M-2.5,-0.5L0,-3.0L2.5,-0.5"/>
                </g>
               <g id="resetDef">
                       <use xlink:href="#rim2" fill="#404040">
                               <set attributeName="fill" to="#808080" begin="reset.mouseover" end="reset.mouseout"/>
                       </use>
               </g>
        </defs>

<script type="text/javascript">
var viewWidth = 2104;
var viewHeight = 285;
var sectionId = 'dynsection-0';
</script>
<script xlink:href="svgpan.js"/>
<svg id="graph" class="graph">
<g id="viewport">
<title>TaylorGreenVortex.cpp</title>
<polygon fill="#ffffff" stroke="transparent" points="-4,4 -4,-281 2100,-281 2100,4 -4,4"/>
<!-- Node0 -->
<g id="node1" class="node">
<title>Node0</title>
<polygon fill="#bfbfbf" stroke="#000000" points="1196.5,-257.5 1196.5,-276.5 1313.5,-276.5 1313.5,-257.5 1196.5,-257.5"/>
<text text-anchor="middle" x="1255" y="-264.5" font-family="Helvetica,sans-Serif" font-size="10.00" fill="#000000">TaylorGreenVortex.cpp</text>
</g>
<!-- Node1 -->
<g id="node2" class="node">
<title>Node1</title>
<g id="a_node2"><a xlink:href="_taylor_green_vortex_8_h.html" target="_top" xlink:title="amr&#45;wind/physics/TaylorGreen\lVortex.H">
<polygon fill="#ffffff" stroke="#000000" points="978.5,-190.5 978.5,-220.5 1127.5,-220.5 1127.5,-190.5 978.5,-190.5"/>
<text text-anchor="start" x="986.5" y="-208.5" font-family="Helvetica,sans-Serif" font-size="10.00" fill="#000000">amr&#45;wind/physics/TaylorGreen</text>
<text text-anchor="middle" x="1053" y="-197.5" font-family="Helvetica,sans-Serif" font-size="10.00" fill="#000000">Vortex.H</text>
</a>
</g>
</g>
<!-- Node0&#45;&gt;Node1 -->
<g id="edge1" class="edge">
<title>Node0&#45;&gt;Node1</title>
<path fill="none" stroke="#191970" d="M1223.4375,-257.3906C1193.8211,-248.3737 1148.7656,-234.6563 1112.4162,-223.5896"/>
<polygon fill="#191970" stroke="#191970" points="1113.0006,-220.109 1102.4148,-220.5446 1110.9618,-226.8055 1113.0006,-220.109"/>
</g>
<!-- Node19 -->
<g id="node20" class="node">
<title>Node19</title>
<g id="a_node20"><a xlink:href="_c_f_d_sim_8_h.html" target="_top" xlink:title="amr&#45;wind/CFDSim.H">
<polygon fill="#ffffff" stroke="#000000" points="1160,-196 1160,-215 1268,-215 1268,-196 1160,-196"/>
<text text-anchor="middle" x="1214" y="-203" font-family="Helvetica,sans-Serif" font-size="10.00" fill="#000000">amr&#45;wind/CFDSim.H</text>
</a>
</g>
</g>
<!-- Node0&#45;&gt;Node19 -->
<g id="edge25" class="edge">
<title>Node0&#45;&gt;Node19</title>
<path fill="none" stroke="#191970" d="M1248.5938,-257.3906C1242.6114,-248.417 1233.5253,-234.7879 1226.1661,-223.7491"/>
<polygon fill="#191970" stroke="#191970" points="1228.9558,-221.6239 1220.4966,-215.2449 1223.1314,-225.5068 1228.9558,-221.6239"/>
</g>
<!-- Node35 -->
<g id="node36" class="node">
<title>Node35</title>
<polygon fill="#ffffff" stroke="#bfbfbf" points="1324,-196 1324,-215 1440,-215 1440,-196 1324,-196"/>
<text text-anchor="middle" x="1382" y="-203" font-family="Helvetica,sans-Serif" font-size="10.00" fill="#000000">AMReX_ParmParse.H</text>
</g>
<!-- Node0&#45;&gt;Node35 -->
<g id="edge62" class="edge">
<title>Node0&#45;&gt;Node35</title>
<path fill="none" stroke="#191970" d="M1274.8438,-257.3906C1295.8136,-247.2359 1329.0944,-231.1196 1353.0036,-219.5416"/>
<polygon fill="#191970" stroke="#191970" points="1354.8208,-222.5504 1362.2956,-215.0419 1351.7699,-216.2502 1354.8208,-222.5504"/>
</g>
<!-- Node36 -->
<g id="node37" class="node">
<title>Node36</title>
<g id="a_node37"><a xlink:href="trig__ops_8_h.html" target="_top" xlink:title="Trigonometric utilities. ">
<polygon fill="#ffffff" stroke="#000000" points="1941,-123.5 1941,-153.5 2031,-153.5 2031,-123.5 1941,-123.5"/>
<text text-anchor="start" x="1949" y="-141.5" font-family="Helvetica,sans-Serif" font-size="10.00" fill="#000000">amr&#45;wind/utilities</text>
<text text-anchor="middle" x="1986" y="-130.5" font-family="Helvetica,sans-Serif" font-size="10.00" fill="#000000">/trig_ops.H</text>
</a>
</g>
</g>
<!-- Node0&#45;&gt;Node36 -->
<g id="edge63" class="edge">
<title>Node0&#45;&gt;Node36</title>
<path fill="none" stroke="#191970" d="M1259.2411,-257.3041C1267.2963,-240.2217 1286.5818,-205.1406 1315,-190 1415.6632,-136.3688 1713.3405,-163.5341 1827,-154 1861.5151,-151.1048 1900.1931,-147.3457 1930.7589,-144.2546"/>
<polygon fill="#191970" stroke="#191970" points="1931.2014,-147.7277 1940.796,-143.2341 1930.4932,-140.7636 1931.2014,-147.7277"/>
</g>
<!-- Node2 -->
<g id="node3" class="node">
<title>Node2</title>
<g id="a_node3"><a xlink:href="_physics_8_h.html" target="_top" xlink:title="amr&#45;wind/core/Physics.H">
<polygon fill="#ffffff" stroke="#000000" points="572.5,-129 572.5,-148 699.5,-148 699.5,-129 572.5,-129"/>
<text text-anchor="middle" x="636" y="-136" font-family="Helvetica,sans-Serif" font-size="10.00" fill="#000000">amr&#45;wind/core/Physics.H</text>
</a>
</g>
</g>
<!-- Node1&#45;&gt;Node2 -->
<g id="edge2" class="edge">
<title>Node1&#45;&gt;Node2</title>
<path fill="none" stroke="#191970" d="M978.3001,-195.6471C908.4743,-186.1223 801.4041,-170.711 709,-154 702.4042,-152.8072 695.493,-151.4634 688.6632,-150.0785"/>
<polygon fill="#191970" stroke="#191970" points="689.2627,-146.6285 678.7613,-148.0327 687.8463,-153.4837 689.2627,-146.6285"/>
</g>
<!-- Node14 -->
<g id="node15" class="node">
<title>Node14</title>
<g id="a_node15"><a xlink:href="_field_8_h.html" target="_top" xlink:title="amr&#45;wind/core/Field.H">
<polygon fill="#ffffff" stroke="#000000" points="996.5,-62 996.5,-81 1109.5,-81 1109.5,-62 996.5,-62"/>
<text text-anchor="middle" x="1053" y="-69" font-family="Helvetica,sans-Serif" font-size="10.00" fill="#000000">amr&#45;wind/core/Field.H</text>
</a>
</g>
</g>
<!-- Node1&#45;&gt;Node14 -->
<g id="edge16" class="edge">
<title>Node1&#45;&gt;Node14</title>
<path fill="none" stroke="#191970" d="M1053,-190.389C1053,-166.0735 1053,-118.2644 1053,-91.2698"/>
<polygon fill="#191970" stroke="#191970" points="1056.5001,-91.1041 1053,-81.1042 1049.5001,-91.1042 1056.5001,-91.1041"/>
</g>
<!-- Node3 -->
<g id="node4" class="node">
<title>Node3</title>
<g id="a_node4"><a xlink:href="_factory_8_h.html" target="_top" xlink:title="amr&#45;wind/core/Factory.H">
<polygon fill="#ffffff" stroke="#000000" points="1166.5,-62 1166.5,-81 1291.5,-81 1291.5,-62 1166.5,-62"/>
<text text-anchor="middle" x="1229" y="-69" font-family="Helvetica,sans-Serif" font-size="10.00" fill="#000000">amr&#45;wind/core/Factory.H</text>
</a>
</g>
</g>
<!-- Node2&#45;&gt;Node3 -->
<g id="edge3" class="edge">
<title>Node2&#45;&gt;Node3</title>
<path fill="none" stroke="#191970" d="M676.7664,-128.9292C687.2269,-126.7257 698.4927,-124.5708 709,-123 889.9128,-95.9535 937.2595,-107.7688 1119,-87 1130.9757,-85.6314 1143.6604,-84.0073 1155.9942,-82.3338"/>
<polygon fill="#191970" stroke="#191970" points="1156.8199,-85.7532 1166.2486,-80.9211 1155.8645,-78.8187 1156.8199,-85.7532"/>
</g>
<!-- Node9 -->
<g id="node10" class="node">
<title>Node9</title>
<g id="a_node10"><a xlink:href="_coll_mgr_8_h.html" target="_top" xlink:title="amr&#45;wind/core/CollMgr.H">
<polygon fill="#ffffff" stroke="#000000" points="814.5,-62 814.5,-81 939.5,-81 939.5,-62 814.5,-62"/>
<text text-anchor="middle" x="877" y="-69" font-family="Helvetica,sans-Serif" font-size="10.00" fill="#000000">amr&#45;wind/core/CollMgr.H</text>
</a>
</g>
</g>
<!-- Node2&#45;&gt;Node9 -->
<g id="edge9" class="edge">
<title>Node2&#45;&gt;Node9</title>
<path fill="none" stroke="#191970" d="M670.2735,-128.9717C712.8899,-117.124 785.7227,-96.8758 832.5815,-83.8487"/>
<polygon fill="#191970" stroke="#191970" points="833.7574,-87.1546 842.4546,-81.1039 831.8824,-80.4104 833.7574,-87.1546"/>
</g>
<!-- Node12 -->
<g id="node13" class="node">
<title>Node12</title>
<polygon fill="#ffffff" stroke="#bfbfbf" points="29,-.5 29,-19.5 133,-19.5 133,-.5 29,-.5"/>
<text text-anchor="middle" x="81" y="-7.5" font-family="Helvetica,sans-Serif" font-size="10.00" fill="#000000">AMReX_MultiFab.H</text>
</g>
<!-- Node2&#45;&gt;Node12 -->
<g id="edge14" class="edge">
<title>Node2&#45;&gt;Node12</title>
<path fill="none" stroke="#191970" d="M572.396,-136.6081C460.4812,-132.4568 233.4355,-120.1219 162,-87 133.2584,-73.6737 108.2289,-46.0224 93.8686,-27.7409"/>
<polygon fill="#191970" stroke="#191970" points="96.5405,-25.472 87.7066,-19.6229 90.9648,-29.7043 96.5405,-25.472"/>
</g>
<!-- Node13 -->
<g id="node14" class="node">
<title>Node13</title>
<polygon fill="#ffffff" stroke="#bfbfbf" points="0,-62 0,-81 110,-81 110,-62 0,-62"/>
<text text-anchor="middle" x="55" y="-69" font-family="Helvetica,sans-Serif" font-size="10.00" fill="#000000">AMReX_Geometry.H</text>
</g>
<!-- Node2&#45;&gt;Node13 -->
<g id="edge15" class="edge">
<title>Node2&#45;&gt;Node13</title>
<path fill="none" stroke="#191970" d="M572.2218,-134.5692C475.0463,-128.0208 284.2811,-112.9663 124,-87 117.3228,-85.9183 110.3239,-84.5842 103.4509,-83.1566"/>
<polygon fill="#191970" stroke="#191970" points="104.0365,-79.7025 93.5235,-81.0165 102.5613,-86.5453 104.0365,-79.7025"/>
</g>
<!-- Node4 -->
<g id="node5" class="node">
<title>Node4</title>
<polygon fill="#ffffff" stroke="#bfbfbf" points="1027,-.5 1027,-19.5 1079,-19.5 1079,-.5 1027,-.5"/>
<text text-anchor="middle" x="1053" y="-7.5" font-family="Helvetica,sans-Serif" font-size="10.00" fill="#000000">memory</text>
</g>
<!-- Node3&#45;&gt;Node4 -->
<g id="edge4" class="edge">
<title>Node3&#45;&gt;Node4</title>
<path fill="none" stroke="#191970" d="M1201.5,-61.8906C1171.1849,-51.2976 1122.304,-34.217 1088.9678,-22.5683"/>
<polygon fill="#191970" stroke="#191970" points="1089.7538,-19.1355 1079.1589,-19.1408 1087.4446,-25.7436 1089.7538,-19.1355"/>
</g>
<!-- Node5 -->
<g id="node6" class="node">
<title>Node5</title>
<polygon fill="#ffffff" stroke="#bfbfbf" points="1097.5,-.5 1097.5,-19.5 1180.5,-19.5 1180.5,-.5 1097.5,-.5"/>
<text text-anchor="middle" x="1139" y="-7.5" font-family="Helvetica,sans-Serif" font-size="10.00" fill="#000000">unordered_map</text>
</g>
<!-- Node3&#45;&gt;Node5 -->
<g id="edge5" class="edge">
<title>Node3&#45;&gt;Node5</title>
<path fill="none" stroke="#191970" d="M1214.9375,-61.8906C1200.6714,-52.1421 1178.365,-36.8994 1161.6128,-25.4521"/>
<polygon fill="#191970" stroke="#191970" points="1163.1949,-22.2941 1152.9638,-19.5419 1159.2455,-28.0736 1163.1949,-22.2941"/>
</g>
<!-- Node6 -->
<g id="node7" class="node">
<title>Node6</title>
<polygon fill="#ffffff" stroke="#bfbfbf" points="1449,-.5 1449,-19.5 1503,-19.5 1503,-.5 1449,-.5"/>
<text text-anchor="middle" x="1476" y="-7.5" font-family="Helvetica,sans-Serif" font-size="10.00" fill="#000000">iostream</text>
</g>
<!-- Node3&#45;&gt;Node6 -->
<g id="edge6" class="edge">
<title>Node3&#45;&gt;Node6</title>
<path fill="none" stroke="#191970" d="M1269.9403,-61.9117C1310.4427,-52.3359 1374.4419,-36.9646 1438.9608,-20.2165"/>
<polygon fill="#191970" stroke="#191970" points="1440.1037,-23.5357 1448.8979,-17.627 1438.3385,-16.7619 1440.1037,-23.5357"/>
</g>
<!-- Node7 -->
<g id="node8" class="node">
<title>Node7</title>
<polygon fill="#ffffff" stroke="#bfbfbf" points="1521.5,-.5 1521.5,-19.5 1608.5,-19.5 1608.5,-.5 1521.5,-.5"/>
<text text-anchor="middle" x="1565" y="-7.5" font-family="Helvetica,sans-Serif" font-size="10.00" fill="#000000">AMReX_Print.H</text>
</g>
<!-- Node3&#45;&gt;Node7 -->
<g id="edge7" class="edge">
<title>Node3&#45;&gt;Node7</title>
<path fill="none" stroke="#191970" d="M1271.9602,-61.935C1281.505,-59.8983 1291.5837,-57.816 1301,-56 1391.3101,-38.5833 1416.6985,-36.9158 1511.3373,-20.0892"/>
<polygon fill="#191970" stroke="#191970" points="1512.1107,-23.5065 1521.3384,-18.3007 1510.8784,-16.6158 1512.1107,-23.5065"/>
</g>
<!-- Node8 -->
<g id="node9" class="node">
<title>Node8</title>
<polygon fill="#ffffff" stroke="#bfbfbf" points="1627,-.5 1627,-19.5 1689,-19.5 1689,-.5 1627,-.5"/>
<text text-anchor="middle" x="1658" y="-7.5" font-family="Helvetica,sans-Serif" font-size="10.00" fill="#000000">AMReX.H</text>
</g>
<!-- Node3&#45;&gt;Node8 -->
<g id="edge8" class="edge">
<title>Node3&#45;&gt;Node8</title>
<path fill="none" stroke="#191970" d="M1269.9875,-61.9425C1280.0892,-59.79 1290.9058,-57.6555 1301,-56 1437.6456,-33.589 1476.6556,-44.6975 1616.4033,-20.0894"/>
<polygon fill="#191970" stroke="#191970" points="1617.416,-23.4637 1626.642,-18.2549 1616.1814,-16.5735 1617.416,-23.4637"/>
</g>
<!-- Node9&#45;&gt;Node4 -->
<g id="edge11" class="edge">
<title>Node9&#45;&gt;Node4</title>
<path fill="none" stroke="#191970" d="M904.5,-61.8906C934.8151,-51.2976 983.696,-34.217 1017.0322,-22.5683"/>
<polygon fill="#191970" stroke="#191970" points="1018.5554,-25.7436 1026.8411,-19.1408 1016.2462,-19.1355 1018.5554,-25.7436"/>
</g>
<!-- Node9&#45;&gt;Node5 -->
<g id="edge12" class="edge">
<title>Node9&#45;&gt;Node5</title>
<path fill="none" stroke="#191970" d="M917.65,-61.9581C963.6382,-51.1632 1038.5905,-33.5694 1088.3473,-21.8899"/>
<polygon fill="#191970" stroke="#191970" points="1089.3191,-25.257 1098.2546,-19.5643 1087.7194,-18.4422 1089.3191,-25.257"/>
</g>
<!-- Node10 -->
<g id="node11" class="node">
<title>Node10</title>
<polygon fill="#ffffff" stroke="#bfbfbf" points="850.5,-.5 850.5,-19.5 891.5,-19.5 891.5,-.5 850.5,-.5"/>
<text text-anchor="middle" x="871" y="-7.5" font-family="Helvetica,sans-Serif" font-size="10.00" fill="#000000">string</text>
</g>
<!-- Node9&#45;&gt;Node10 -->
<g id="edge10" class="edge">
<title>Node9&#45;&gt;Node10</title>
<path fill="none" stroke="#191970" d="M876.0625,-61.8906C875.2308,-53.3657 873.9892,-40.6392 872.9438,-29.9235"/>
<polygon fill="#191970" stroke="#191970" points="876.4053,-29.3577 871.9507,-19.7449 869.4383,-30.0375 876.4053,-29.3577"/>
</g>
<!-- Node11 -->
<g id="node12" class="node">
<title>Node11</title>
<polygon fill="#ffffff" stroke="#bfbfbf" points="612.5,-.5 612.5,-19.5 707.5,-19.5 707.5,-.5 612.5,-.5"/>
<text text-anchor="middle" x="660" y="-7.5" font-family="Helvetica,sans-Serif" font-size="10.00" fill="#000000">AMReX_Vector.H</text>
</g>
<!-- Node9&#45;&gt;Node11 -->
<g id="edge13" class="edge">
<title>Node9&#45;&gt;Node11</title>
<path fill="none" stroke="#191970" d="M843.0938,-61.8906C805.4321,-51.2169 744.5298,-33.9566 703.4115,-22.3033"/>
<polygon fill="#191970" stroke="#191970" points="704.2436,-18.9013 693.6682,-19.5419 702.3349,-25.6361 704.2436,-18.9013"/>
</g>
<!-- Node14&#45;&gt;Node4 -->
<g id="edge18" class="edge">
<title>Node14&#45;&gt;Node4</title>
<path fill="none" stroke="#191970" d="M1053,-61.8906C1053,-53.3657 1053,-40.6392 1053,-29.9235"/>
<polygon fill="#191970" stroke="#191970" points="1056.5001,-29.7448 1053,-19.7449 1049.5001,-29.7449 1056.5001,-29.7448"/>
</g>
<!-- Node14&#45;&gt;Node5 -->
<g id="edge19" class="edge">
<title>Node14&#45;&gt;Node5</title>
<path fill="none" stroke="#191970" d="M1066.4375,-61.8906C1080.0695,-52.1421 1101.3846,-36.8994 1117.3922,-25.4521"/>
<polygon fill="#191970" stroke="#191970" points="1119.5586,-28.2057 1125.6569,-19.5419 1115.4868,-22.5118 1119.5586,-28.2057"/>
</g>
<!-- Node14&#45;&gt;Node10 -->
<g id="edge17" class="edge">
<title>Node14&#45;&gt;Node10</title>
<path fill="none" stroke="#191970" d="M1024.4983,-61.9761C995.676,-52.3298 949.5962,-36.8661 901.2778,-20.4211"/>
<polygon fill="#191970" stroke="#191970" points="902.1831,-17.0321 891.5887,-17.1205 899.9259,-23.6582 902.1831,-17.0321"/>
</g>
<!-- Node14&#45;&gt;Node12 -->
<g id="edge20" class="edge">
<title>Node14&#45;&gt;Node12</title>
<path fill="none" stroke="#191970" d="M996.4563,-62.0736C980.8003,-59.7582 963.7746,-57.5126 948,-56 594.3694,-22.0903 500.3954,-56.42 143.2907,-20.0122"/>
<polygon fill="#191970" stroke="#191970" points="143.4953,-16.5148 133.189,-18.9707 142.7773,-23.4779 143.4953,-16.5148"/>
</g>
<!-- Node15 -->
<g id="node16" class="node">
<title>Node15</title>
<polygon fill="#ffffff" stroke="#bfbfbf" points="909.5,-.5 909.5,-19.5 1008.5,-19.5 1008.5,-.5 909.5,-.5"/>
<text text-anchor="middle" x="959" y="-7.5" font-family="Helvetica,sans-Serif" font-size="10.00" fill="#000000">AMReX_BCRec.H</text>
</g>
<!-- Node14&#45;&gt;Node15 -->
<g id="edge21" class="edge">
<title>Node14&#45;&gt;Node15</title>
<path fill="none" stroke="#191970" d="M1038.3125,-61.8906C1023.2744,-52.0519 999.6824,-36.6167 982.1333,-25.1351"/>
<polygon fill="#191970" stroke="#191970" points="983.8687,-22.088 973.5844,-19.5419 980.0363,-27.9457 983.8687,-22.088"/>
</g>
<!-- Node16 -->
<g id="node17" class="node">
<title>Node16</title>
<polygon fill="#ffffff" stroke="#bfbfbf" points="1345.5,-.5 1345.5,-19.5 1430.5,-19.5 1430.5,-.5 1345.5,-.5"/>
<text text-anchor="middle" x="1388" y="-7.5" font-family="Helvetica,sans-Serif" font-size="10.00" fill="#000000">AMReX_Gpu.H</text>
</g>
<!-- Node14&#45;&gt;Node16 -->
<g id="edge22" class="edge">
<title>Node14&#45;&gt;Node16</title>
<path fill="none" stroke="#191970" d="M1106.2313,-61.9765C1161.0238,-52.1368 1249.1467,-36.2099 1335.469,-20.0854"/>
<polygon fill="#191970" stroke="#191970" points="1336.2534,-23.4995 1345.4394,-18.2206 1334.9664,-16.6188 1336.2534,-23.4995"/>
</g>
<!-- Node17 -->
<g id="node18" class="node">
<title>Node17</title>
<g id="a_node18"><a xlink:href="incflo__enums_8_h.html" target="_top" xlink:title="amr&#45;wind/incflo_enums.H">
<polygon fill="#ffffff" stroke="#000000" points="1199,-.5 1199,-19.5 1327,-19.5 1327,-.5 1199,-.5"/>
<text text-anchor="middle" x="1263" y="-7.5" font-family="Helvetica,sans-Serif" font-size="10.00" fill="#000000">amr&#45;wind/incflo_enums.H</text>
</a>
</g>
</g>
<!-- Node14&#45;&gt;Node17 -->
<g id="edge23" class="edge">
<title>Node14&#45;&gt;Node17</title>
<path fill="none" stroke="#191970" d="M1085.8125,-61.8906C1122.1822,-51.2395 1180.9478,-34.0296 1220.7363,-22.3772"/>
<polygon fill="#191970" stroke="#191970" points="1221.8047,-25.7114 1230.4179,-19.5419 1219.8373,-18.9936 1221.8047,-25.7114"/>
</g>
<!-- Node18 -->
<g id="node19" class="node">
<title>Node18</title>
<g id="a_node19"><a xlink:href="_field_desc_types_8_h.html" target="_top" xlink:title="amr&#45;wind/core/FieldDescTypes.H">
<polygon fill="#ffffff" stroke="#000000" points="431.5,-.5 431.5,-19.5 594.5,-19.5 594.5,-.5 431.5,-.5"/>
<text text-anchor="middle" x="513" y="-7.5" font-family="Helvetica,sans-Serif" font-size="10.00" fill="#000000">amr&#45;wind/core/FieldDescTypes.H</text>
</a>
</g>
</g>
<!-- Node14&#45;&gt;Node18 -->
<g id="edge24" class="edge">
<title>Node14&#45;&gt;Node18</title>
<path fill="none" stroke="#191970" d="M996.3878,-62.6917C980.7315,-60.3788 963.7228,-57.9799 948,-56 798.3283,-37.1525 757.9973,-36.531 605.147,-20.2223"/>
<polygon fill="#191970" stroke="#191970" points="605.2302,-16.7113 594.914,-19.1251 604.4838,-23.6714 605.2302,-16.7113"/>
</g>
<!-- Node19&#45;&gt;Node2 -->
<g id="edge61" class="edge">
<title>Node19&#45;&gt;Node2</title>
<path fill="none" stroke="#191970" d="M1170.4183,-195.9437C1159.2418,-193.7399 1147.2103,-191.5813 1136,-190 947.4159,-163.3981 897.4063,-181.8326 709,-154 701.6032,-152.9073 693.8314,-151.5195 686.2298,-150.0253"/>
<polygon fill="#191970" stroke="#191970" points="686.8782,-146.5856 676.3804,-148.0155 685.4786,-153.4442 686.8782,-146.5856"/>
</g>
<!-- Node20 -->
<g id="node21" class="node">
<title>Node20</title>
<polygon fill="#ffffff" stroke="#bfbfbf" points="1310,-62 1310,-81 1416,-81 1416,-62 1310,-62"/>
<text text-anchor="middle" x="1363" y="-69" font-family="Helvetica,sans-Serif" font-size="10.00" fill="#000000">AMReX_AmrCore.H</text>
</g>
<!-- Node19&#45;&gt;Node20 -->
<g id="edge26" class="edge">
<title>Node19&#45;&gt;Node20</title>
<path fill="none" stroke="#191970" d="M1231.6544,-195.9767C1248.3727,-186.5154 1273.7168,-170.9963 1293,-154 1315.4397,-134.2216 1337.0479,-107.1271 1350.1765,-89.4712"/>
<polygon fill="#191970" stroke="#191970" points="1353.1554,-91.3268 1356.2284,-81.1874 1347.5031,-87.1974 1353.1554,-91.3268"/>
</g>
<!-- Node21 -->
<g id="node22" class="node">
<title>Node21</title>
<g id="a_node22"><a xlink:href="_sim_time_8_h.html" target="_top" xlink:title="amr&#45;wind/core/SimTime.H">
<polygon fill="#ffffff" stroke="#000000" points="1686.5,-129 1686.5,-148 1817.5,-148 1817.5,-129 1686.5,-129"/>
<text text-anchor="middle" x="1752" y="-136" font-family="Helvetica,sans-Serif" font-size="10.00" fill="#000000">amr&#45;wind/core/SimTime.H</text>
</a>
</g>
</g>
<!-- Node19&#45;&gt;Node21 -->
<g id="edge27" class="edge">
<title>Node19&#45;&gt;Node21</title>
<path fill="none" stroke="#191970" d="M1252.3258,-195.9537C1261.969,-193.7757 1272.3281,-191.6267 1282,-190 1420.1022,-166.7733 1582.8719,-151.632 1676.0971,-144.115"/>
<polygon fill="#191970" stroke="#191970" points="1676.5935,-147.5866 1686.2832,-143.3017 1676.0364,-140.6088 1676.5935,-147.5866"/>
</g>
<!-- Node25 -->
<g id="node26" class="node">
<title>Node25</title>
<g id="a_node26"><a xlink:href="_field_repo_8_h.html" target="_top" xlink:title="amr&#45;wind/core/FieldRepo.H">
<polygon fill="#ffffff" stroke="#000000" points="718,-129 718,-148 854,-148 854,-129 718,-129"/>
<text text-anchor="middle" x="786" y="-136" font-family="Helvetica,sans-Serif" font-size="10.00" fill="#000000">amr&#45;wind/core/FieldRepo.H</text>
</a>
</g>
</g>
<!-- Node19&#45;&gt;Node25 -->
<g id="edge31" class="edge">
<title>Node19&#45;&gt;Node25</title>
<path fill="none" stroke="#191970" d="M1167.8771,-195.9374C1157.4146,-193.8789 1146.3396,-191.7869 1136,-190 1042.9844,-173.9251 935.5039,-158.5895 864.4522,-148.8994"/>
<polygon fill="#191970" stroke="#191970" points="864.6199,-145.39 854.2396,-147.5112 863.677,-152.3263 864.6199,-145.39"/>
</g>
<!-- Node32 -->
<g id="node33" class="node">
<title>Node32</title>
<g id="a_node33"><a xlink:href="_p_d_e_base_8_h.html" target="_top" xlink:title="amr&#45;wind/equation_systems\l/PDEBase.H">
<polygon fill="#ffffff" stroke="#000000" points="1144.5,-123.5 1144.5,-153.5 1283.5,-153.5 1283.5,-123.5 1144.5,-123.5"/>
<text text-anchor="start" x="1152.5" y="-141.5" font-family="Helvetica,sans-Serif" font-size="10.00" fill="#000000">amr&#45;wind/equation_systems</text>
<text text-anchor="middle" x="1214" y="-130.5" font-family="Helvetica,sans-Serif" font-size="10.00" fill="#000000">/PDEBase.H</text>
</a>
</g>
</g>
<!-- Node19&#45;&gt;Node32 -->
<g id="edge53" class="edge">
<title>Node19&#45;&gt;Node32</title>
<path fill="none" stroke="#191970" d="M1214,-195.9005C1214,-187.5099 1214,-174.9451 1214,-163.7085"/>
<polygon fill="#191970" stroke="#191970" points="1217.5001,-163.5217 1214,-153.5218 1210.5001,-163.5218 1217.5001,-163.5217"/>
</g>
<!-- Node22 -->
<g id="node23" class="node">
<title>Node22</title>
<polygon fill="#ffffff" stroke="#bfbfbf" points="1902.5,-62 1902.5,-81 1995.5,-81 1995.5,-62 1902.5,-62"/>
<text text-anchor="middle" x="1949" y="-69" font-family="Helvetica,sans-Serif" font-size="10.00" fill="#000000">AMReX_REAL.H</text>
</g>
<!-- Node21&#45;&gt;Node22 -->
<g id="edge28" class="edge">
<title>Node21&#45;&gt;Node22</title>
<path fill="none" stroke="#191970" d="M1780.2253,-128.9005C1814.6029,-117.2086 1872.8104,-97.4122 1911.0772,-84.3976"/>
<polygon fill="#191970" stroke="#191970" points="1912.4866,-87.6152 1920.8271,-81.0817 1910.2326,-80.988 1912.4866,-87.6152"/>
</g>
<!-- Node23 -->
<g id="node24" class="node">
<title>Node23</title>
<polygon fill="#ffffff" stroke="#bfbfbf" points="1758,-62 1758,-81 1884,-81 1884,-62 1758,-62"/>
<text text-anchor="middle" x="1821" y="-69" font-family="Helvetica,sans-Serif" font-size="10.00" fill="#000000">AMReX_GpuQualifiers.H</text>
</g>
<!-- Node21&#45;&gt;Node23 -->
<g id="edge29" class="edge">
<title>Node21&#45;&gt;Node23</title>
<path fill="none" stroke="#191970" d="M1761.886,-128.9005C1772.7484,-118.353 1790.4035,-101.2096 1803.5957,-88.3998"/>
<polygon fill="#191970" stroke="#191970" points="1806.3962,-90.559 1811.1323,-81.0817 1801.5198,-85.537 1806.3962,-90.559"/>
</g>
<!-- Node24 -->
<g id="node25" class="node">
<title>Node24</title>
<polygon fill="#ffffff" stroke="#bfbfbf" points="1630,-62 1630,-81 1740,-81 1740,-62 1630,-62"/>
<text text-anchor="middle" x="1685" y="-69" font-family="Helvetica,sans-Serif" font-size="10.00" fill="#000000">AMReX_Extension.H</text>
</g>
<!-- Node21&#45;&gt;Node24 -->
<g id="edge30" class="edge">
<title>Node21&#45;&gt;Node24</title>
<path fill="none" stroke="#191970" d="M1742.4005,-128.9005C1731.853,-118.353 1714.7096,-101.2096 1701.8998,-88.3998"/>
<polygon fill="#191970" stroke="#191970" points="1704.1276,-85.6779 1694.5817,-81.0817 1699.1779,-90.6276 1704.1276,-85.6779"/>
</g>
<!-- Node25&#45;&gt;Node5 -->
<g id="edge33" class="edge">
<title>Node25&#45;&gt;Node5</title>
<path fill="none" stroke="#191970" d="M854.2496,-136.5722C940.1695,-132.7233 1081.1381,-121.2296 1119,-87 1134.8755,-72.6475 1138.86,-47.4592 1139.5321,-29.8109"/>
<polygon fill="#191970" stroke="#191970" points="1143.0324,-29.7476 1139.5933,-19.7265 1136.0326,-29.705 1143.0324,-29.7476"/>
</g>
<!-- Node25&#45;&gt;Node10 -->
<g id="edge32" class="edge">
<title>Node25&#45;&gt;Node10</title>
<path fill="none" stroke="#191970" d="M786.0349,-128.9758C786.5345,-112.6559 789.5296,-78.8953 805,-56 813.9981,-42.6834 828.2419,-32.0442 841.1976,-24.366"/>
<polygon fill="#191970" stroke="#191970" points="843.2691,-27.219 850.3103,-19.3025 839.8691,-21.1002 843.2691,-27.219"/>
</g>
<!-- Node25&#45;&gt;Node12 -->
<g id="edge51" class="edge">
<title>Node25&#45;&gt;Node12</title>
<path fill="none" stroke="#191970" d="M743.2495,-128.9958C731.8441,-126.7371 719.4948,-124.5392 708,-123 594.7306,-107.8328 301.5122,-128.4143 195,-87 174.363,-78.9759 174.1375,-68.7006 156,-56 140.1936,-44.9317 121.7237,-33.5856 107.0681,-24.9311"/>
<polygon fill="#191970" stroke="#191970" points="108.454,-21.6872 98.0544,-19.6625 104.9216,-27.7306 108.454,-21.6872"/>
</g>
<!-- Node25&#45;&gt;Node14 -->
<g id="edge39" class="edge">
<title>Node25&#45;&gt;Node14</title>
<path fill="none" stroke="#191970" d="M823.971,-128.9717C871.482,-117.0495 952.8917,-96.6208 1004.7655,-83.6038"/>
<polygon fill="#191970" stroke="#191970" points="1005.8803,-86.9326 1014.7277,-81.1039 1004.1765,-80.1431 1005.8803,-86.9326"/>
</g>
<!-- Node25&#45;&gt;Node18 -->
<g id="edge34" class="edge">
<title>Node25&#45;&gt;Node18</title>
<path fill="none" stroke="#191970" d="M741.5682,-128.9908C730.6255,-126.8369 718.9152,-124.6897 708,-123 636.6278,-111.9517 433.1574,-140.823 385,-87 357.9351,-56.751 411.8106,-34.7075 457.771,-22.1429"/>
<polygon fill="#191970" stroke="#191970" points="458.9411,-25.4545 467.7252,-19.5307 457.1642,-18.6837 458.9411,-25.4545"/>
</g>
<!-- Node25&#45;&gt;Node20 -->
<g id="edge50" class="edge">
<title>Node25&#45;&gt;Node20</title>
<path fill="none" stroke="#191970" d="M854.3253,-134.8359C953.3627,-128.8093 1142.3193,-114.6184 1301,-87 1306.8121,-85.9884 1312.8846,-84.7283 1318.8585,-83.3667"/>
<polygon fill="#191970" stroke="#191970" points="1319.8411,-86.7306 1328.7557,-81.0051 1318.2164,-79.9217 1319.8411,-86.7306"/>
</g>
<!-- Node26 -->
<g id="node27" class="node">
<title>Node26</title>
<g id="a_node27"><a xlink:href="_field_utils_8_h.html" target="_top" xlink:title="amr&#45;wind/core/FieldUtils.H">
<polygon fill="#ffffff" stroke="#000000" points="204.5,-62 204.5,-81 337.5,-81 337.5,-62 204.5,-62"/>
<text text-anchor="middle" x="271" y="-69" font-family="Helvetica,sans-Serif" font-size="10.00" fill="#000000">amr&#45;wind/core/FieldUtils.H</text>
</a>
</g>
</g>
<!-- Node25&#45;&gt;Node26 -->
<g id="edge35" class="edge">
<title>Node25&#45;&gt;Node26</title>
<path fill="none" stroke="#191970" d="M741.9902,-128.9924C730.9302,-126.8135 719.0602,-124.6543 708,-123 550.7204,-99.4753 509.362,-109.967 352,-87 343.9422,-85.824 335.4667,-84.4054 327.1569,-82.9102"/>
<polygon fill="#191970" stroke="#191970" points="327.6116,-79.435 317.1421,-81.0594 326.3395,-86.3185 327.6116,-79.435"/>
</g>
<!-- Node28 -->
<g id="node29" class="node">
<title>Node28</title>
<g id="a_node29"><a xlink:href="_int_field_8_h.html" target="_top" xlink:title="amr&#45;wind/core/IntField.H">
<polygon fill="#ffffff" stroke="#000000" points="634,-62 634,-81 758,-81 758,-62 634,-62"/>
<text text-anchor="middle" x="696" y="-69" font-family="Helvetica,sans-Serif" font-size="10.00" fill="#000000">amr&#45;wind/core/IntField.H</text>
</a>
</g>
</g>
<!-- Node25&#45;&gt;Node28 -->
<g id="edge40" class="edge">
<title>Node25&#45;&gt;Node28</title>
<path fill="none" stroke="#191970" d="M773.1052,-128.9005C758.5358,-118.0544 734.5978,-100.2339 717.2546,-87.3229"/>
<polygon fill="#191970" stroke="#191970" points="718.9823,-84.2457 708.8709,-81.0817 714.8022,-89.8606 718.9823,-84.2457"/>
</g>
<!-- Node29 -->
<g id="node30" class="node">
<title>Node29</title>
<polygon fill="#ffffff" stroke="#bfbfbf" points="725.5,-.5 725.5,-19.5 832.5,-19.5 832.5,-.5 725.5,-.5"/>
<text text-anchor="middle" x="779" y="-7.5" font-family="Helvetica,sans-Serif" font-size="10.00" fill="#000000">AMReX_iMultiFab.H</text>
</g>
<!-- Node25&#45;&gt;Node29 -->
<g id="edge52" class="edge">
<title>Node25&#45;&gt;Node29</title>
<path fill="none" stroke="#191970" d="M734.8,-128.9152C692.8014,-119.8892 638.1941,-105.0731 625,-87 616.8762,-75.8721 616.769,-67.0489 625,-56 636.2089,-40.9536 678.1396,-29.0213 715.4211,-21.0836"/>
<polygon fill="#191970" stroke="#191970" points="716.1915,-24.4984 725.2791,-19.0519 714.7785,-17.6425 716.1915,-24.4984"/>
</g>
<!-- Node30 -->
<g id="node31" class="node">
<title>Node30</title>
<g id="a_node31"><a xlink:href="_scratch_field_8_h.html" target="_top" xlink:title="amr&#45;wind/core/ScratchField.H">
<polygon fill="#ffffff" stroke="#000000" points="394,-62 394,-81 540,-81 540,-62 394,-62"/>
<text text-anchor="middle" x="467" y="-69" font-family="Helvetica,sans-Serif" font-size="10.00" fill="#000000">amr&#45;wind/core/ScratchField.H</text>
</a>
</g>
</g>
<!-- Node25&#45;&gt;Node30 -->
<g id="edge44" class="edge">
<title>Node25&#45;&gt;Node30</title>
<path fill="none" stroke="#191970" d="M740.6339,-128.9717C683.1971,-116.9082 584.2938,-96.1354 522.4399,-83.1441"/>
<polygon fill="#191970" stroke="#191970" points="522.9735,-79.6799 512.4676,-81.0496 521.5346,-86.5304 522.9735,-79.6799"/>
</g>
<!-- Node26&#45;&gt;Node12 -->
<g id="edge37" class="edge">
<title>Node26&#45;&gt;Node12</title>
<path fill="none" stroke="#191970" d="M241.3125,-61.8906C208.6854,-51.3298 156.1374,-34.3208 120.1575,-22.6747"/>
<polygon fill="#191970" stroke="#191970" points="121.0709,-19.2916 110.479,-19.5419 118.9152,-25.9514 121.0709,-19.2916"/>
</g>
<!-- Node26&#45;&gt;Node18 -->
<g id="edge36" class="edge">
<title>Node26&#45;&gt;Node18</title>
<path fill="none" stroke="#191970" d="M308.547,-61.9581C350.8472,-51.2082 419.6777,-33.7162 465.637,-22.0365"/>
<polygon fill="#191970" stroke="#191970" points="466.5351,-25.4196 475.3649,-19.5643 464.8109,-18.6352 466.5351,-25.4196"/>
</g>
<!-- Node27 -->
<g id="node28" class="node">
<title>Node27</title>
<polygon fill="#ffffff" stroke="#bfbfbf" points="151,-.5 151,-19.5 267,-19.5 267,-.5 151,-.5"/>
<text text-anchor="middle" x="209" y="-7.5" font-family="Helvetica,sans-Serif" font-size="10.00" fill="#000000">AMReX_Interpolater.H</text>
</g>
<!-- Node26&#45;&gt;Node27 -->
<g id="edge38" class="edge">
<title>Node26&#45;&gt;Node27</title>
<path fill="none" stroke="#191970" d="M261.3125,-61.8906C251.9041,-52.5581 237.4193,-38.1902 226.0751,-26.9374"/>
<polygon fill="#191970" stroke="#191970" points="228.3886,-24.3024 218.8241,-19.7449 223.4589,-29.2722 228.3886,-24.3024"/>
</g>
<!-- Node28&#45;&gt;Node10 -->
<g id="edge41" class="edge">
<title>Node28&#45;&gt;Node10</title>
<path fill="none" stroke="#191970" d="M723.3438,-61.8906C755.229,-50.6852 807.7704,-32.2207 840.8231,-20.605"/>
<polygon fill="#191970" stroke="#191970" points="842.1367,-23.8533 850.4107,-17.2357 839.8158,-17.2492 842.1367,-23.8533"/>
</g>
<!-- Node28&#45;&gt;Node18 -->
<g id="edge42" class="edge">
<title>Node28&#45;&gt;Node18</title>
<path fill="none" stroke="#191970" d="M667.4063,-61.8906C636.1155,-51.3749 585.8014,-34.466 551.16,-22.8243"/>
<polygon fill="#191970" stroke="#191970" points="551.987,-19.4099 541.393,-19.5419 549.757,-26.0452 551.987,-19.4099"/>
</g>
<!-- Node28&#45;&gt;Node29 -->
<g id="edge43" class="edge">
<title>Node28&#45;&gt;Node29</title>
<path fill="none" stroke="#191970" d="M708.9688,-61.8906C722.0034,-52.2324 742.3164,-37.1812 757.7155,-25.771"/>
<polygon fill="#191970" stroke="#191970" points="760.1713,-28.3075 766.1223,-19.5419 756.0039,-22.6832 760.1713,-28.3075"/>
</g>
<!-- Node30&#45;&gt;Node10 -->
<g id="edge45" class="edge">
<title>Node30&#45;&gt;Node10</title>
<path fill="none" stroke="#191970" d="M540.0457,-63.0697C627.7078,-52.6829 770.5763,-34.8318 840.3385,-19.7011"/>
<polygon fill="#191970" stroke="#191970" points="841.5117,-23.0238 850.4869,-17.3938 839.9598,-16.198 841.5117,-23.0238"/>
</g>
<!-- Node30&#45;&gt;Node11 -->
<g id="edge48" class="edge">
<title>Node30&#45;&gt;Node11</title>
<path fill="none" stroke="#191970" d="M497.1563,-61.8906C530.2985,-51.3298 583.6762,-34.3208 620.2242,-22.6747"/>
<polygon fill="#191970" stroke="#191970" points="621.5902,-25.9129 630.0555,-19.5419 619.4649,-19.2433 621.5902,-25.9129"/>
</g>
<!-- Node30&#45;&gt;Node12 -->
<g id="edge47" class="edge">
<title>Node30&#45;&gt;Node12</title>
<path fill="none" stroke="#191970" d="M406.187,-61.9627C343.0478,-52.0381 241.1192,-35.9538 143.3023,-20.2041"/>
<polygon fill="#191970" stroke="#191970" points="143.6699,-16.7182 133.2404,-18.5828 142.5563,-23.6291 143.6699,-16.7182"/>
</g>
<!-- Node30&#45;&gt;Node18 -->
<g id="edge46" class="edge">
<title>Node30&#45;&gt;Node18</title>
<path fill="none" stroke="#191970" d="M474.1875,-61.8906C480.9666,-52.8273 491.2978,-39.0149 499.5973,-27.9188"/>
<polygon fill="#191970" stroke="#191970" points="502.5243,-29.849 505.7112,-19.7449 496.9188,-25.6563 502.5243,-29.849"/>
</g>
<!-- Node31 -->
<g id="node32" class="node">
<title>Node31</title>
<polygon fill="#ffffff" stroke="#bfbfbf" points="285,-.5 285,-19.5 413,-19.5 413,-.5 285,-.5"/>
<text text-anchor="middle" x="349" y="-7.5" font-family="Helvetica,sans-Serif" font-size="10.00" fill="#000000">AMReX_PhysBCFunct.H</text>
</g>
<!-- Node30&#45;&gt;Node31 -->
<g id="edge49" class="edge">
<title>Node30&#45;&gt;Node31</title>
<path fill="none" stroke="#191970" d="M448.5625,-61.8906C429.1653,-51.7811 398.431,-35.7628 376.2383,-24.1962"/>
<polygon fill="#191970" stroke="#191970" points="377.7936,-21.06 367.308,-19.5419 374.5582,-27.2675 377.7936,-21.06"/>
</g>
<!-- Node32&#45;&gt;Node3 -->
<g id="edge55" class="edge">
<title>Node32&#45;&gt;Node3</title>
<path fill="none" stroke="#191970" d="M1217.4037,-123.2967C1219.5366,-113.7699 1222.307,-101.3954 1224.6051,-91.1306"/>
<polygon fill="#191970" stroke="#191970" points="1228.0915,-91.5781 1226.8608,-81.055 1221.2606,-90.0487 1228.0915,-91.5781"/>
</g>
<!-- Node32&#45;&gt;Node9 -->
<g id="edge56" class="edge">
<title>Node32&#45;&gt;Node9</title>
<path fill="none" stroke="#191970" d="M1144.4652,-124.7875C1092.0938,-114.4449 1018.5287,-99.8856 954,-87 947.6816,-85.7383 941.0725,-84.4143 934.4953,-83.094"/>
<polygon fill="#191970" stroke="#191970" points="934.7257,-79.5704 924.2321,-81.0318 933.3466,-86.4333 934.7257,-79.5704"/>
</g>
<!-- Node32&#45;&gt;Node10 -->
<g id="edge54" class="edge">
<title>Node32&#45;&gt;Node10</title>
<path fill="none" stroke="#191970" d="M1144.2996,-130.9095C1097.968,-123.9188 1036.7332,-110.8616 987,-87 967.0368,-77.4218 966.2112,-68.5946 948,-56 931.6666,-44.704 912.4975,-33.2467 897.3715,-24.5922"/>
<polygon fill="#191970" stroke="#191970" points="898.9642,-21.472 888.5375,-19.5922 895.5162,-27.5639 898.9642,-21.472"/>
</g>
<!-- Node32&#45;&gt;Node17 -->
<g id="edge60" class="edge">
<title>Node32&#45;&gt;Node17</title>
<path fill="none" stroke="#191970" d="M1283.5849,-130.7634C1338.0946,-123.1004 1407.5337,-109.2421 1425,-87 1433.5093,-76.164 1433.3059,-66.9927 1425,-56 1413.5934,-40.9036 1372.3089,-29.3137 1334.2749,-21.5435"/>
<polygon fill="#191970" stroke="#191970" points="1334.6684,-18.0538 1324.1801,-19.5522 1333.3136,-24.9214 1334.6684,-18.0538"/>
</g>
<!-- Node32&#45;&gt;Node18 -->
<g id="edge59" class="edge">
<title>Node32&#45;&gt;Node18</title>
<path fill="none" stroke="#191970" d="M1144.3612,-136.845C1009.7627,-132.9219 718.8902,-120.7152 625,-87 587.9144,-73.6829 551.5542,-44.9752 530.7535,-26.6224"/>
<polygon fill="#191970" stroke="#191970" points="532.8482,-23.7982 523.0807,-19.6937 528.1567,-28.9934 532.8482,-23.7982"/>
</g>
<!-- Node33 -->
<g id="node34" class="node">
<title>Node33</title>
<g id="a_node34"><a xlink:href="_p_d_e_fields_8_h.html" target="_top" xlink:title="amr&#45;wind/equation_systems\l/PDEFields.H">
<polygon fill="#ffffff" stroke="#000000" points="1472.5,-56.5 1472.5,-86.5 1611.5,-86.5 1611.5,-56.5 1472.5,-56.5"/>
<text text-anchor="start" x="1480.5" y="-74.5" font-family="Helvetica,sans-Serif" font-size="10.00" fill="#000000">amr&#45;wind/equation_systems</text>
<text text-anchor="middle" x="1542" y="-63.5" font-family="Helvetica,sans-Serif" font-size="10.00" fill="#000000">/PDEFields.H</text>
</a>
</g>
</g>
<!-- Node32&#45;&gt;Node33 -->
<g id="edge57" class="edge">
<title>Node32&#45;&gt;Node33</title>
<path fill="none" stroke="#191970" d="M1283.5604,-124.291C1335.8731,-113.6052 1407.6332,-98.9469 1462.2647,-87.7874"/>
<polygon fill="#191970" stroke="#191970" points="1463.1606,-91.1767 1472.2578,-85.7461 1461.7596,-84.3184 1463.1606,-91.1767"/>
</g>
<!-- Node34 -->
<g id="node35" class="node">
<title>Node34</title>
<polygon fill="#ffffff" stroke="#bfbfbf" points="1707.5,-.5 1707.5,-19.5 1752.5,-19.5 1752.5,-.5 1707.5,-.5"/>
<text text-anchor="middle" x="1730" y="-7.5" font-family="Helvetica,sans-Serif" font-size="10.00" fill="#000000">iosfwd</text>
</g>
<!-- Node33&#45;&gt;Node34 -->
<g id="edge58" class="edge">
<title>Node33&#45;&gt;Node34</title>
<path fill="none" stroke="#191970" d="M1587.99,-56.4554C1621.9774,-45.3372 1667.4113,-30.4745 1697.638,-20.5865"/>
<polygon fill="#191970" stroke="#191970" points="1698.8511,-23.8723 1707.2673,-17.4365 1696.6746,-17.2192 1698.8511,-23.8723"/>
</g>
<!-- Node36&#45;&gt;Node16 -->
<g id="edge66" class="edge">
<title>Node36&#45;&gt;Node16</title>
<path fill="none" stroke="#191970" d="M1996.5808,-123.316C2007.9428,-104.9812 2022.1976,-74.3283 2005,-56 1963.6382,-11.9189 1537.6673,-26.6599 1440.9008,-19.6403"/>
<polygon fill="#191970" stroke="#191970" points="1441.0681,-16.1404 1430.7799,-18.6709 1440.4006,-23.1085 1441.0681,-16.1404"/>
</g>
<!-- Node36&#45;&gt;Node22 -->
<g id="edge65" class="edge">
<title>Node36&#45;&gt;Node22</title>
<path fill="none" stroke="#191970" d="M1977.6041,-123.2967C1972.1192,-113.3645 1964.9249,-100.3371 1959.1237,-89.8321"/>
<polygon fill="#191970" stroke="#191970" points="1962.1748,-88.1169 1954.2766,-81.055 1956.047,-91.5009 1962.1748,-88.1169"/>
</g>
<!-- Node37 -->
<g id="node38" class="node">
<title>Node37</title>
<polygon fill="#ffffff" stroke="#bfbfbf" points="2052,-62 2052,-81 2096,-81 2096,-62 2052,-62"/>
<text text-anchor="middle" x="2074" y="-69" font-family="Helvetica,sans-Serif" font-size="10.00" fill="#000000">cmath</text>
</g>
<!-- Node36&#45;&gt;Node37 -->
<g id="edge64" class="edge">
<title>Node36&#45;&gt;Node37</title>
<path fill="none" stroke="#191970" d="M2005.9686,-123.2967C2020.0787,-112.5537 2038.9451,-98.1895 2053.2308,-87.3129"/>
<polygon fill="#191970" stroke="#191970" points="2055.614,-89.8975 2061.4502,-81.055 2051.3736,-84.328 2055.614,-89.8975"/>
</g>
</g>
</svg>
        <g id="navigator" transform="translate(0 0)" fill="#404254">
                <rect fill="#f2f5e9" fill-opacity="0.5" stroke="#606060" stroke-width=".5" x="0" y="0" width="60" height="60"/>
                <use id="zoomplus" xlink:href="#zoomPlus" x="17" y="9" onmousedown="handleZoom(evt,'in')"/>
                <use id="zoomminus" xlink:href="#zoomMin" x="42" y="9" onmousedown="handleZoom(evt,'out')"/>
                <use id="reset" xlink:href="#resetDef" x="30" y="36" onmousedown="handleReset()"/>
                <g id="arrowUp" xlink:href="#dirArrow" transform="translate(30 24)" onmousedown="handlePan(0,-1)">
                  <use xlink:href="#rim" fill="#404040">
                        <set attributeName="fill" to="#808080" begin="arrowUp.mouseover" end="arrowUp.mouseout"/>
                  </use>
                  <path fill="none" stroke="white" stroke-width="1.5" d="M0,-3.0v7 M-2.5,-0.5L0,-3.0L2.5,-0.5"/>
                </g>
                <g id="arrowRight" xlink:href="#dirArrow" transform="rotate(90) translate(36 -43)" onmousedown="handlePan(1,0)">
                  <use xlink:href="#rim" fill="#404040">
                        <set attributeName="fill" to="#808080" begin="arrowRight.mouseover" end="arrowRight.mouseout"/>
                  </use>
                  <path fill="none" stroke="white" stroke-width="1.5" d="M0,-3.0v7 M-2.5,-0.5L0,-3.0L2.5,-0.5"/>
                </g>
                <g id="arrowDown" xlink:href="#dirArrow" transform="rotate(180) translate(-30 -48)" onmousedown="handlePan(0,1)">
                  <use xlink:href="#rim" fill="#404040">
                        <set attributeName="fill" to="#808080" begin="arrowDown.mouseover" end="arrowDown.mouseout"/>
                  </use>
                  <path fill="none" stroke="white" stroke-width="1.5" d="M0,-3.0v7 M-2.5,-0.5L0,-3.0L2.5,-0.5"/>
                </g>
                <g id="arrowLeft" xlink:href="#dirArrow" transform="rotate(270) translate(-36 17)" onmousedown="handlePan(-1,0)">
                  <use xlink:href="#rim" fill="#404040">
                        <set attributeName="fill" to="#808080" begin="arrowLeft.mouseover" end="arrowLeft.mouseout"/>
                  </use>
                  <path fill="none" stroke="white" stroke-width="1.5" d="M0,-3.0v7 M-2.5,-0.5L0,-3.0L2.5,-0.5"/>
                </g>
        </g>
        <svg viewBox="0 0 15 15" width="100%" height="30px" preserveAspectRatio="xMaxYMin meet">
         <g id="arrow_out" transform="scale(0.3 0.3)">
          <a xlink:href="_taylor_green_vortex_8cpp__incl_org.svg" target="_base">
           <rect id="button" ry="5" rx="5" y="6" x="6" height="38" width="38"
                fill="#f2f5e9" fill-opacity="0.5" stroke="#606060" stroke-width="1.0"/>
           <path id="arrow"
             d="M 11.500037,31.436501 C 11.940474,20.09759 22.043105,11.32322 32.158766,21.979434 L 37.068811,17.246167 C 37.068811,17.246167 37.088388,32 37.088388,32 L 22.160133,31.978069 C 22.160133,31.978069 26.997745,27.140456 26.997745,27.140456 C 18.528582,18.264221 13.291696,25.230495 11.500037,31.436501 z"
             style="fill:#404040;"/>
          </a>
         </g>
        </svg>
</svg>
