<?xml version="1.0" encoding="UTF-8" standalone="no"?>
<!DOCTYPE svg PUBLIC "-//W3C//DTD SVG 1.1//EN"
 "http://www.w3.org/Graphics/SVG/1.1/DTD/svg11.dtd">
<!-- Generated by graphviz version 2.40.1 (20161225.0304)
 -->
<!-- Title: TurbulenceModel.H Pages: 1 -->
<!--zoomable 364 -->
<svg id="main" version="1.1" xmlns="http://www.w3.org/2000/svg" xmlns:xlink="http://www.w3.org/1999/xlink" xml:space="preserve" onload="init(evt)">
<style type="text/css"><![CDATA[
.edge:hover path { stroke: red; }
.edge:hover polygon { stroke: red; fill: red; }
]]></style>
<script type="text/javascript"><![CDATA[
var edges = document.getElementsByTagName('g');
if (edges && edges.length) {
  for (var i=0;i<edges.length;i++) {
    if (edges[i].id.substr(0,4)=='edge') {
      edges[i].setAttribute('class','edge');
    }
  }
}
]]></script>
        <defs>
                <circle id="rim" cx="0" cy="0" r="7"/>
                <circle id="rim2" cx="0" cy="0" r="3.5"/>
                <g id="zoomPlus">
                        <use xlink:href="#rim" fill="#404040">
                                <set attributeName="fill" to="#808080" begin="zoomplus.mouseover" end="zoomplus.mouseout"/>
                        </use>
                        <path d="M-4,0h8M0,-4v8" fill="none" stroke="white" stroke-width="1.5" pointer-events="none"/>
                </g>
                <g id="zoomMin">
                        <use xlink:href="#rim" fill="#404040">
                                <set attributeName="fill" to="#808080" begin="zoomminus.mouseover" end="zoomminus.mouseout"/>
                        </use>
                        <path d="M-4,0h8" fill="none" stroke="white" stroke-width="1.5" pointer-events="none"/>
                </g>
                <g id="dirArrow">
                        <path fill="none" stroke="white" stroke-width="1.5" d="M0,-3.0v7 M-2.5,-0.5L0,-3.0L2.5,-0.5"/>
                </g>
               <g id="resetDef">
                       <use xlink:href="#rim2" fill="#404040">
                               <set attributeName="fill" to="#808080" begin="reset.mouseover" end="reset.mouseout"/>
                       </use>
               </g>
        </defs>

<script type="text/javascript">
var viewWidth = 1491;
var viewHeight = 364;
var sectionId = 'dynsection-1';
</script>
<script xlink:href="svgpan.js"/>
<svg id="graph" class="graph">
<g id="viewport">
<title>TurbulenceModel.H</title>
<polygon fill="#ffffff" stroke="transparent" points="-4,4 -4,-360 1487,-360 1487,4 -4,4"/>
<!-- Node8 -->
<g id="node1" class="node">
<title>Node8</title>
<polygon fill="#bfbfbf" stroke="#000000" points="1160,-336.5 1160,-355.5 1261,-355.5 1261,-336.5 1160,-336.5"/>
<text text-anchor="middle" x="1210.5" y="-343.5" font-family="Helvetica,sans-Serif" font-size="10.00" fill="#000000">TurbulenceModel.H</text>
</g>
<!-- Node9 -->
<g id="node2" class="node">
<title>Node9</title>
<g id="a_node2"><a xlink:href="_c_f_d_sim_8cpp.html" target="_top" xlink:title="CFDSim.cpp">
<polygon fill="#ffffff" stroke="#000000" points="465.5,-280.5 465.5,-299.5 539.5,-299.5 539.5,-280.5 465.5,-280.5"/>
<text text-anchor="middle" x="502.5" y="-287.5" font-family="Helvetica,sans-Serif" font-size="10.00" fill="#000000">CFDSim.cpp</text>
</a>
</g>
</g>
<!-- Node8&#45;&gt;Node9 -->
<g id="edge1" class="edge">
<title>Node8&#45;&gt;Node9</title>
<path fill="none" stroke="#191970" d="M1149.8174,-344.7161C1032.9058,-341.595 768.5387,-331.3939 548.5,-300 545.5873,-299.5844 542.5842,-299.088 539.5736,-298.5416"/>
<polygon fill="#191970" stroke="#191970" points="1149.9074,-348.2195 1159.9947,-344.9797 1150.0887,-341.2218 1149.9074,-348.2195"/>
</g>
<!-- Node10 -->
<g id="node3" class="node">
<title>Node10</title>
<g id="a_node3"><a xlink:href="_p_d_e_ops_8_h.html" target="_top" xlink:title="PDEOps.H">
<polygon fill="#ffffff" stroke="#000000" points="557.5,-280.5 557.5,-299.5 623.5,-299.5 623.5,-280.5 557.5,-280.5"/>
<text text-anchor="middle" x="590.5" y="-287.5" font-family="Helvetica,sans-Serif" font-size="10.00" fill="#000000">PDEOps.H</text>
</a>
</g>
</g>
<!-- Node8&#45;&gt;Node10 -->
<g id="edge2" class="edge">
<title>Node8&#45;&gt;Node10</title>
<path fill="none" stroke="#191970" d="M1149.655,-340.5043C1020.5894,-328.8468 723.0585,-301.973 623.5771,-292.9876"/>
<polygon fill="#191970" stroke="#191970" points="1149.4885,-344.0034 1159.7628,-341.4173 1150.1182,-337.0318 1149.4885,-344.0034"/>
</g>
<!-- Node38 -->
<g id="node31" class="node">
<title>Node38</title>
<g id="a_node31"><a xlink:href="_ksgs_m84_src_8cpp.html" target="_top" xlink:title="KsgsM84Src.cpp">
<polygon fill="#ffffff" stroke="#000000" points="1271.5,-280.5 1271.5,-299.5 1363.5,-299.5 1363.5,-280.5 1271.5,-280.5"/>
<text text-anchor="middle" x="1317.5" y="-287.5" font-family="Helvetica,sans-Serif" font-size="10.00" fill="#000000">KsgsM84Src.cpp</text>
</a>
</g>
</g>
<!-- Node8&#45;&gt;Node38 -->
<g id="edge59" class="edge">
<title>Node8&#45;&gt;Node38</title>
<path fill="none" stroke="#191970" d="M1238.0199,-331.5971C1257.2017,-321.558 1282.2678,-308.4393 1299.0756,-299.6427"/>
<polygon fill="#191970" stroke="#191970" points="1236.375,-328.5075 1229.138,-336.2455 1239.6209,-334.7095 1236.375,-328.5075"/>
</g>
<!-- Node39 -->
<g id="node32" class="node">
<title>Node39</title>
<g id="a_node32"><a xlink:href="incflo__advance_8cpp.html" target="_top" xlink:title="incflo_advance.cpp">
<polygon fill="#ffffff" stroke="#000000" points="1382,-280.5 1382,-299.5 1483,-299.5 1483,-280.5 1382,-280.5"/>
<text text-anchor="middle" x="1432.5" y="-287.5" font-family="Helvetica,sans-Serif" font-size="10.00" fill="#000000">incflo_advance.cpp</text>
</a>
</g>
</g>
<!-- Node8&#45;&gt;Node39 -->
<g id="edge60" class="edge">
<title>Node8&#45;&gt;Node39</title>
<path fill="none" stroke="#191970" d="M1258.1428,-333.982C1298.9903,-323.6781 1357.0475,-309.0331 1394.7454,-299.5237"/>
<polygon fill="#191970" stroke="#191970" points="1257.2511,-330.5972 1248.4109,-336.4369 1258.9633,-337.3846 1257.2511,-330.5972"/>
</g>
<!-- Node40 -->
<g id="node33" class="node">
<title>Node40</title>
<g id="a_node33"><a xlink:href="_turb_model_8_h.html" target="_top" xlink:title="TurbModel.H">
<polygon fill="#ffffff" stroke="#000000" points="1142,-280.5 1142,-299.5 1215,-299.5 1215,-280.5 1142,-280.5"/>
<text text-anchor="middle" x="1178.5" y="-287.5" font-family="Helvetica,sans-Serif" font-size="10.00" fill="#000000">TurbModel.H</text>
</a>
</g>
</g>
<!-- Node8&#45;&gt;Node40 -->
<g id="edge61" class="edge">
<title>Node8&#45;&gt;Node40</title>
<path fill="none" stroke="#191970" d="M1199.8355,-327.3372C1194.5346,-318.0605 1188.3513,-307.2398 1184.0101,-299.6427"/>
<polygon fill="#191970" stroke="#191970" points="1196.9257,-329.2996 1204.926,-336.2455 1203.0034,-325.8266 1196.9257,-329.2996"/>
</g>
<!-- Node48 -->
<g id="node41" class="node">
<title>Node48</title>
<g id="a_node41"><a xlink:href="_turb_model_defs_8_h.html" target="_top" xlink:title="TurbModelDefs.H">
<polygon fill="#ffffff" stroke="#000000" points="1348.5,-168.5 1348.5,-187.5 1442.5,-187.5 1442.5,-168.5 1348.5,-168.5"/>
<text text-anchor="middle" x="1395.5" y="-175.5" font-family="Helvetica,sans-Serif" font-size="10.00" fill="#000000">TurbModelDefs.H</text>
</a>
</g>
</g>
<!-- Node8&#45;&gt;Node48 -->
<g id="edge71" class="edge">
<title>Node8&#45;&gt;Node48</title>
<path fill="none" stroke="#191970" d="M1222.6528,-328.2063C1232.5573,-314.3282 1247.3406,-294.9626 1262.5,-280 1301.4348,-241.5706 1354.9119,-204.5751 1380.5745,-187.6327"/>
<polygon fill="#191970" stroke="#191970" points="1219.7617,-326.2331 1216.8937,-336.4324 1225.4961,-330.2478 1219.7617,-326.2331"/>
</g>
<!-- Node11 -->
<g id="node4" class="node">
<title>Node11</title>
<g id="a_node4"><a xlink:href="_adv_op___godunov_8_h.html" target="_top" xlink:title="AdvOp_Godunov.H">
<polygon fill="#ffffff" stroke="#000000" points="406,-112.5 406,-131.5 507,-131.5 507,-112.5 406,-112.5"/>
<text text-anchor="middle" x="456.5" y="-119.5" font-family="Helvetica,sans-Serif" font-size="10.00" fill="#000000">AdvOp_Godunov.H</text>
</a>
</g>
</g>
<!-- Node10&#45;&gt;Node11 -->
<g id="edge3" class="edge">
<title>Node10&#45;&gt;Node11</title>
<path fill="none" stroke="#191970" d="M576.5797,-272.5477C548.5881,-237.4538 486.29,-159.3486 464.3389,-131.8279"/>
<polygon fill="#191970" stroke="#191970" points="573.9398,-274.8509 582.9116,-280.4862 579.4122,-270.486 573.9398,-274.8509"/>
</g>
<!-- Node13 -->
<g id="node6" class="node">
<title>Node13</title>
<g id="a_node6"><a xlink:href="icns__ops_8_h.html" target="_top" xlink:title="icns_ops.H">
<polygon fill="#ffffff" stroke="#000000" points="105.5,-56.5 105.5,-75.5 171.5,-75.5 171.5,-56.5 105.5,-56.5"/>
<text text-anchor="middle" x="138.5" y="-63.5" font-family="Helvetica,sans-Serif" font-size="10.00" fill="#000000">icns_ops.H</text>
</a>
</g>
</g>
<!-- Node10&#45;&gt;Node13 -->
<g id="edge57" class="edge">
<title>Node10&#45;&gt;Node13</title>
<path fill="none" stroke="#191970" d="M547.0642,-279.9728C425.6472,-260.2179 378.7302,-303.5136 275.5,-244 203.5404,-202.5144 156.4843,-106.8383 142.7066,-75.8676"/>
<polygon fill="#191970" stroke="#191970" points="546.6428,-283.452 557.0951,-281.7197 547.8439,-276.5558 546.6428,-283.452"/>
</g>
<!-- Node20 -->
<g id="node13" class="node">
<title>Node20</title>
<g id="a_node13"><a xlink:href="_adv_op___m_o_l_8_h.html" target="_top" xlink:title="AdvOp_MOL.H">
<polygon fill="#ffffff" stroke="#000000" points="766,-112.5 766,-131.5 849,-131.5 849,-112.5 766,-112.5"/>
<text text-anchor="middle" x="807.5" y="-119.5" font-family="Helvetica,sans-Serif" font-size="10.00" fill="#000000">AdvOp_MOL.H</text>
</a>
</g>
</g>
<!-- Node10&#45;&gt;Node20 -->
<g id="edge12" class="edge">
<title>Node10&#45;&gt;Node20</title>
<path fill="none" stroke="#191970" d="M598.45,-271.159C610.8505,-244.1045 637.3928,-194.5899 675.5,-168 702.6666,-149.0441 738.3909,-137.2248 765.8233,-130.3209"/>
<polygon fill="#191970" stroke="#191970" points="595.2364,-269.7722 594.3952,-280.3336 601.639,-272.6019 595.2364,-269.7722"/>
</g>
<!-- Node21 -->
<g id="node14" class="node">
<title>Node21</title>
<g id="a_node14"><a xlink:href="_b_c_ops_8_h.html" target="_top" xlink:title="BCOps.H">
<polygon fill="#ffffff" stroke="#000000" points="592,-112.5 592,-131.5 651,-131.5 651,-112.5 592,-112.5"/>
<text text-anchor="middle" x="621.5" y="-119.5" font-family="Helvetica,sans-Serif" font-size="10.00" fill="#000000">BCOps.H</text>
</a>
</g>
</g>
<!-- Node10&#45;&gt;Node21 -->
<g id="edge19" class="edge">
<title>Node10&#45;&gt;Node21</title>
<path fill="none" stroke="#191970" d="M588.4986,-270.0812C586.6689,-245.5485 585.5664,-202.846 595.5,-168 599.373,-154.4141 607.9951,-140.5273 614.251,-131.6182"/>
<polygon fill="#191970" stroke="#191970" points="585.0309,-270.6062 589.3817,-280.2664 592.0048,-270.0015 585.0309,-270.6062"/>
</g>
<!-- Node23 -->
<g id="node16" class="node">
<title>Node23</title>
<g id="a_node16"><a xlink:href="_comp_r_h_s_ops_8_h.html" target="_top" xlink:title="CompRHSOps.H">
<polygon fill="#ffffff" stroke="#000000" points="638,-224.5 638,-243.5 731,-243.5 731,-224.5 638,-224.5"/>
<text text-anchor="middle" x="684.5" y="-231.5" font-family="Helvetica,sans-Serif" font-size="10.00" fill="#000000">CompRHSOps.H</text>
</a>
</g>
</g>
<!-- Node10&#45;&gt;Node23 -->
<g id="edge27" class="edge">
<title>Node10&#45;&gt;Node23</title>
<path fill="none" stroke="#191970" d="M615.6005,-275.0465C632.326,-265.0824 653.8168,-252.2794 668.3141,-243.6427"/>
<polygon fill="#191970" stroke="#191970" points="613.6732,-272.1206 606.8736,-280.2455 617.2559,-278.1343 613.6732,-272.1206"/>
</g>
<!-- Node24 -->
<g id="node17" class="node">
<title>Node24</title>
<g id="a_node17"><a xlink:href="_p_d_e_8_h.html" target="_top" xlink:title="PDE.H">
<polygon fill="#ffffff" stroke="#000000" points="684.5,-168.5 684.5,-187.5 732.5,-187.5 732.5,-168.5 684.5,-168.5"/>
<text text-anchor="middle" x="708.5" y="-175.5" font-family="Helvetica,sans-Serif" font-size="10.00" fill="#000000">PDE.H</text>
</a>
</g>
</g>
<!-- Node10&#45;&gt;Node24 -->
<g id="edge51" class="edge">
<title>Node10&#45;&gt;Node24</title>
<path fill="none" stroke="#191970" d="M633.5365,-282.5375C672.8665,-274.7373 726.7836,-261.2345 739.5,-244 752.8787,-225.8679 732.6654,-201.0424 719.1059,-187.5977"/>
<polygon fill="#191970" stroke="#191970" points="632.7922,-279.1164 623.6341,-284.4436 634.1154,-285.9903 632.7922,-279.1164"/>
</g>
<!-- Node28 -->
<g id="node21" class="node">
<title>Node28</title>
<g id="a_node21"><a xlink:href="icns__diffusion_8_h.html" target="_top" xlink:title="icns_diffusion.H">
<polygon fill="#ffffff" stroke="#000000" points="0,-56.5 0,-75.5 87,-75.5 87,-56.5 0,-56.5"/>
<text text-anchor="middle" x="43.5" y="-63.5" font-family="Helvetica,sans-Serif" font-size="10.00" fill="#000000">icns_diffusion.H</text>
</a>
</g>
</g>
<!-- Node10&#45;&gt;Node28 -->
<g id="edge58" class="edge">
<title>Node10&#45;&gt;Node28</title>
<path fill="none" stroke="#191970" d="M547.2357,-279.9995C412.3482,-258.1853 365.7467,-298.3389 244.5,-244 153.4734,-203.2048 74.1748,-106.2292 50.6051,-75.5071"/>
<polygon fill="#191970" stroke="#191970" points="546.6568,-283.4512 557.1024,-281.6794 547.8317,-276.5505 546.6568,-283.4512"/>
</g>
<!-- Node36 -->
<g id="node29" class="node">
<title>Node36</title>
<g id="a_node29"><a xlink:href="_diffusion_ops_8_h.html" target="_top" xlink:title="DiffusionOps.H">
<polygon fill="#ffffff" stroke="#000000" points="284.5,-224.5 284.5,-243.5 368.5,-243.5 368.5,-224.5 284.5,-224.5"/>
<text text-anchor="middle" x="326.5" y="-231.5" font-family="Helvetica,sans-Serif" font-size="10.00" fill="#000000">DiffusionOps.H</text>
</a>
</g>
</g>
<!-- Node10&#45;&gt;Node36 -->
<g id="edge52" class="edge">
<title>Node10&#45;&gt;Node36</title>
<path fill="none" stroke="#191970" d="M547.0602,-279.722C479.3205,-264.7289 411.3489,-250.8942 368.725,-242.3647"/>
<polygon fill="#191970" stroke="#191970" points="546.5287,-283.1892 557.0499,-281.942 548.0473,-276.3559 546.5287,-283.1892"/>
</g>
<!-- Node12 -->
<g id="node5" class="node">
<title>Node12</title>
<g id="a_node5"><a xlink:href="density_8cpp.html" target="_top" xlink:title="density.cpp">
<polygon fill="#ffffff" stroke="#000000" points="804,-.5 804,-19.5 871,-19.5 871,-.5 804,-.5"/>
<text text-anchor="middle" x="837.5" y="-7.5" font-family="Helvetica,sans-Serif" font-size="10.00" fill="#000000">density.cpp</text>
</a>
</g>
</g>
<!-- Node11&#45;&gt;Node12 -->
<g id="edge4" class="edge">
<title>Node11&#45;&gt;Node12</title>
<path fill="none" stroke="#191970" d="M457.691,-101.8194C459.7096,-86.829 464.9704,-67.1265 478.5,-56 503.4031,-35.5201 719.1445,-18.3105 803.7039,-12.292"/>
<polygon fill="#191970" stroke="#191970" points="454.1715,-101.8543 456.6961,-112.144 461.1392,-102.5258 454.1715,-101.8543"/>
</g>
<!-- Node11&#45;&gt;Node13 -->
<g id="edge5" class="edge">
<title>Node11&#45;&gt;Node13</title>
<path fill="none" stroke="#191970" d="M395.8036,-111.3113C329.1238,-99.569 224.4828,-81.1416 171.5414,-71.8186"/>
<polygon fill="#191970" stroke="#191970" points="395.3048,-114.7773 405.7603,-113.0647 396.5189,-107.8833 395.3048,-114.7773"/>
</g>
<!-- Node16 -->
<g id="node9" class="node">
<title>Node16</title>
<g id="a_node9"><a xlink:href="levelset_8cpp.html" target="_top" xlink:title="levelset.cpp">
<polygon fill="#ffffff" stroke="#000000" points="889,-.5 889,-19.5 958,-19.5 958,-.5 889,-.5"/>
<text text-anchor="middle" x="923.5" y="-7.5" font-family="Helvetica,sans-Serif" font-size="10.00" fill="#000000">levelset.cpp</text>
</a>
</g>
</g>
<!-- Node11&#45;&gt;Node16 -->
<g id="edge8" class="edge">
<title>Node11&#45;&gt;Node16</title>
<path fill="none" stroke="#191970" d="M466.365,-103.537C475.7513,-87.9874 491.4113,-66.629 511.5,-56 584.3241,-17.4688 799.2011,-33.3599 880.5,-20 883.2227,-19.5526 886.03,-19.0332 888.8442,-18.4711"/>
<polygon fill="#191970" stroke="#191970" points="463.2688,-101.9011 461.348,-112.3203 469.3471,-105.373 463.2688,-101.9011"/>
</g>
<!-- Node17 -->
<g id="node10" class="node">
<title>Node17</title>
<g id="a_node10"><a xlink:href="_s_d_r_8cpp.html" target="_top" xlink:title="SDR.cpp">
<polygon fill="#ffffff" stroke="#000000" points="521,-56.5 521,-75.5 578,-75.5 578,-56.5 521,-56.5"/>
<text text-anchor="middle" x="549.5" y="-63.5" font-family="Helvetica,sans-Serif" font-size="10.00" fill="#000000">SDR.cpp</text>
</a>
</g>
</g>
<!-- Node11&#45;&gt;Node17 -->
<g id="edge9" class="edge">
<title>Node11&#45;&gt;Node17</title>
<path fill="none" stroke="#191970" d="M481.3335,-107.0465C497.8811,-97.0824 519.1432,-84.2794 533.4863,-75.6427"/>
<polygon fill="#191970" stroke="#191970" points="479.4607,-104.0886 472.6994,-112.2455 483.0717,-110.0854 479.4607,-104.0886"/>
</g>
<!-- Node18 -->
<g id="node11" class="node">
<title>Node18</title>
<g id="a_node11"><a xlink:href="temperature_8cpp.html" target="_top" xlink:title="temperature.cpp">
<polygon fill="#ffffff" stroke="#000000" points="673,-56.5 673,-75.5 760,-75.5 760,-56.5 673,-56.5"/>
<text text-anchor="middle" x="716.5" y="-63.5" font-family="Helvetica,sans-Serif" font-size="10.00" fill="#000000">temperature.cpp</text>
</a>
</g>
</g>
<!-- Node11&#45;&gt;Node18 -->
<g id="edge10" class="edge">
<title>Node11&#45;&gt;Node18</title>
<path fill="none" stroke="#191970" d="M510.8185,-110.3006C558.8824,-99.9484 628.123,-85.035 672.7167,-75.4303"/>
<polygon fill="#191970" stroke="#191970" points="509.939,-106.9097 500.9002,-112.4369 511.413,-113.7528 509.939,-106.9097"/>
</g>
<!-- Node19 -->
<g id="node12" class="node">
<title>Node19</title>
<g id="a_node12"><a xlink:href="_t_k_e_8cpp.html" target="_top" xlink:title="TKE.cpp">
<polygon fill="#ffffff" stroke="#000000" points="778,-56.5 778,-75.5 833,-75.5 833,-56.5 778,-56.5"/>
<text text-anchor="middle" x="805.5" y="-63.5" font-family="Helvetica,sans-Serif" font-size="10.00" fill="#000000">TKE.cpp</text>
</a>
</g>
</g>
<!-- Node11&#45;&gt;Node19 -->
<g id="edge11" class="edge">
<title>Node11&#45;&gt;Node19</title>
<path fill="none" stroke="#191970" d="M517.0925,-111.7978C629.9113,-94.7231 661.0514,-98.6473 769.5,-76 772.1669,-75.4431 774.9277,-74.7997 777.6798,-74.1133"/>
<polygon fill="#191970" stroke="#191970" points="516.3686,-108.3678 507.0159,-113.3454 517.4313,-115.2867 516.3686,-108.3678"/>
</g>
<!-- Node14 -->
<g id="node7" class="node">
<title>Node14</title>
<g id="a_node7"><a xlink:href="icns_8cpp.html" target="_top" xlink:title="icns.cpp">
<polygon fill="#ffffff" stroke="#000000" points="173,-.5 173,-19.5 226,-19.5 226,-.5 173,-.5"/>
<text text-anchor="middle" x="199.5" y="-7.5" font-family="Helvetica,sans-Serif" font-size="10.00" fill="#000000">icns.cpp</text>
</a>
</g>
</g>
<!-- Node13&#45;&gt;Node14 -->
<g id="edge6" class="edge">
<title>Node13&#45;&gt;Node14</title>
<path fill="none" stroke="#191970" d="M156.6249,-49.3607C167.178,-39.6727 180.1112,-27.7995 188.9964,-19.6427"/>
<polygon fill="#191970" stroke="#191970" points="154.125,-46.9045 149.1254,-56.2455 158.8589,-52.0611 154.125,-46.9045"/>
</g>
<!-- Node15 -->
<g id="node8" class="node">
<title>Node15</title>
<g id="a_node8"><a xlink:href="icns__ops_8cpp.html" target="_top" xlink:title="icns_ops.cpp">
<polygon fill="#ffffff" stroke="#000000" points="80.5,-.5 80.5,-19.5 154.5,-19.5 154.5,-.5 80.5,-.5"/>
<text text-anchor="middle" x="117.5" y="-7.5" font-family="Helvetica,sans-Serif" font-size="10.00" fill="#000000">icns_ops.cpp</text>
</a>
</g>
</g>
<!-- Node13&#45;&gt;Node15 -->
<g id="edge7" class="edge">
<title>Node13&#45;&gt;Node15</title>
<path fill="none" stroke="#191970" d="M131.281,-46.7493C127.8524,-37.6064 123.9049,-27.0798 121.116,-19.6427"/>
<polygon fill="#191970" stroke="#191970" points="128.0536,-48.1112 134.8421,-56.2455 134.6079,-45.6533 128.0536,-48.1112"/>
</g>
<!-- Node20&#45;&gt;Node12 -->
<g id="edge13" class="edge">
<title>Node20&#45;&gt;Node12</title>
<path fill="none" stroke="#191970" d="M824.9798,-104.6744C831.8465,-96.6644 838.9305,-86.5862 842.5,-76 848.9619,-56.8356 844.1754,-32.827 840.5528,-19.6931"/>
<polygon fill="#191970" stroke="#191970" points="822.247,-102.4756 818.059,-112.2076 827.4019,-107.2114 822.247,-102.4756"/>
</g>
<!-- Node20&#45;&gt;Node13 -->
<g id="edge14" class="edge">
<title>Node20&#45;&gt;Node13</title>
<path fill="none" stroke="#191970" d="M755.8255,-111.9228C517.7722,-80.8882 454.2272,-98.5861 218.5,-76 203.0342,-74.5181 185.9399,-72.4413 171.5369,-70.564"/>
<polygon fill="#191970" stroke="#191970" points="755.4545,-115.4041 765.8263,-113.2417 756.3697,-108.4642 755.4545,-115.4041"/>
</g>
<!-- Node20&#45;&gt;Node16 -->
<g id="edge15" class="edge">
<title>Node20&#45;&gt;Node16</title>
<path fill="none" stroke="#191970" d="M826.0368,-105.2837C835.5332,-96.6352 847.2293,-85.8517 857.5,-76 878.0822,-56.2576 901.5592,-32.4657 914.2223,-19.5237"/>
<polygon fill="#191970" stroke="#191970" points="823.4042,-102.9463 818.3489,-112.2573 828.1073,-108.1311 823.4042,-102.9463"/>
</g>
<!-- Node20&#45;&gt;Node17 -->
<g id="edge16" class="edge">
<title>Node20&#45;&gt;Node17</title>
<path fill="none" stroke="#191970" d="M755.7908,-110.7763C702.3233,-99.1709 620.7948,-81.4748 578.0004,-72.1861"/>
<polygon fill="#191970" stroke="#191970" points="755.2462,-114.2395 765.7611,-112.9404 756.7311,-107.3988 755.2462,-114.2395"/>
</g>
<!-- Node20&#45;&gt;Node18 -->
<g id="edge17" class="edge">
<title>Node20&#45;&gt;Node18</title>
<path fill="none" stroke="#191970" d="M782.7496,-106.769C766.6242,-96.8456 746.074,-84.1994 732.1693,-75.6427"/>
<polygon fill="#191970" stroke="#191970" points="781.2981,-109.9853 791.649,-112.2455 784.9668,-104.0237 781.2981,-109.9853"/>
</g>
<!-- Node20&#45;&gt;Node19 -->
<g id="edge18" class="edge">
<title>Node20&#45;&gt;Node19</title>
<path fill="none" stroke="#191970" d="M806.7913,-102.1575C806.4698,-93.155 806.1043,-82.9199 805.8444,-75.6427"/>
<polygon fill="#191970" stroke="#191970" points="803.2968,-102.3769 807.1516,-112.2455 810.2924,-102.127 803.2968,-102.3769"/>
</g>
<!-- Node21&#45;&gt;Node12 -->
<g id="edge20" class="edge">
<title>Node21&#45;&gt;Node12</title>
<path fill="none" stroke="#191970" d="M618.6755,-102.0208C617.7975,-87.4544 619.2683,-68.2066 630.5,-56 653.5577,-30.9409 751.3918,-18.0774 803.8856,-12.8697"/>
<polygon fill="#191970" stroke="#191970" points="615.2011,-102.4526 619.682,-112.0533 622.1662,-101.7538 615.2011,-102.4526"/>
</g>
<!-- Node21&#45;&gt;Node16 -->
<g id="edge23" class="edge">
<title>Node21&#45;&gt;Node16</title>
<path fill="none" stroke="#191970" d="M628.6826,-102.5526C635.3347,-87.3793 646.7473,-67.0775 663.5,-56 745.0472,-2.078 784.6178,-39.0821 880.5,-20 883.2061,-19.4614 886.0015,-18.8766 888.8075,-18.2691"/>
<polygon fill="#191970" stroke="#191970" points="625.3413,-101.479 624.8308,-112.0615 631.8293,-104.1071 625.3413,-101.479"/>
</g>
<!-- Node21&#45;&gt;Node17 -->
<g id="edge24" class="edge">
<title>Node21&#45;&gt;Node17</title>
<path fill="none" stroke="#191970" d="M600.836,-105.928C588.2511,-96.1397 572.5908,-83.9595 561.8977,-75.6427"/>
<polygon fill="#191970" stroke="#191970" points="598.9162,-108.8688 608.9586,-112.2455 603.2138,-103.3434 598.9162,-108.8688"/>
</g>
<!-- Node21&#45;&gt;Node18 -->
<g id="edge25" class="edge">
<title>Node21&#45;&gt;Node18</title>
<path fill="none" stroke="#191970" d="M646.8676,-107.0465C663.771,-97.0824 685.4904,-84.2794 700.1419,-75.6427"/>
<polygon fill="#191970" stroke="#191970" points="644.8851,-104.1522 638.0477,-112.2455 648.4398,-110.1825 644.8851,-104.1522"/>
</g>
<!-- Node21&#45;&gt;Node19 -->
<g id="edge26" class="edge">
<title>Node21&#45;&gt;Node19</title>
<path fill="none" stroke="#191970" d="M660.9993,-109.9785C696.1867,-99.2693 746.7756,-83.8726 777.8164,-74.4254"/>
<polygon fill="#191970" stroke="#191970" points="659.6104,-106.7426 651.0628,-113.0026 661.6486,-113.4393 659.6104,-106.7426"/>
</g>
<!-- Node22 -->
<g id="node15" class="node">
<title>Node22</title>
<g id="a_node15"><a xlink:href="icns__bcop_8_h.html" target="_top" xlink:title="icns_bcop.H">
<polygon fill="#ffffff" stroke="#000000" points="355,-56.5 355,-75.5 426,-75.5 426,-56.5 355,-56.5"/>
<text text-anchor="middle" x="390.5" y="-63.5" font-family="Helvetica,sans-Serif" font-size="10.00" fill="#000000">icns_bcop.H</text>
</a>
</g>
</g>
<!-- Node21&#45;&gt;Node22 -->
<g id="edge21" class="edge">
<title>Node21&#45;&gt;Node22</title>
<path fill="none" stroke="#191970" d="M581.6472,-111.8158C521.5048,-96.9432 462.839,-83.0091 426.2815,-74.3937"/>
<polygon fill="#191970" stroke="#191970" points="581.1535,-115.2993 591.7018,-114.3077 582.8374,-108.5048 581.1535,-115.2993"/>
</g>
<!-- Node22&#45;&gt;Node14 -->
<g id="edge22" class="edge">
<title>Node22&#45;&gt;Node14</title>
<path fill="none" stroke="#191970" d="M347.5958,-53.4208C310.3237,-42.4928 257.5183,-27.0106 226.0664,-17.7891"/>
<polygon fill="#191970" stroke="#191970" points="347.0851,-56.9183 357.6659,-56.3733 349.0546,-50.2011 347.0851,-56.9183"/>
</g>
<!-- Node23&#45;&gt;Node24 -->
<g id="edge28" class="edge">
<title>Node23&#45;&gt;Node24</title>
<path fill="none" stroke="#191970" d="M692.6241,-215.0437C696.5715,-205.8331 701.1458,-195.1598 704.3674,-187.6427"/>
<polygon fill="#191970" stroke="#191970" points="689.4027,-213.6753 688.6805,-224.2455 695.8367,-216.4328 689.4027,-213.6753"/>
</g>
<!-- Node25 -->
<g id="node18" class="node">
<title>Node25</title>
<g id="a_node18"><a xlink:href="density_8_h.html" target="_top" xlink:title="density.H">
<polygon fill="#ffffff" stroke="#000000" points="867,-112.5 867,-131.5 926,-131.5 926,-112.5 867,-112.5"/>
<text text-anchor="middle" x="896.5" y="-119.5" font-family="Helvetica,sans-Serif" font-size="10.00" fill="#000000">density.H</text>
</a>
</g>
</g>
<!-- Node24&#45;&gt;Node25 -->
<g id="edge29" class="edge">
<title>Node24&#45;&gt;Node25</title>
<path fill="none" stroke="#191970" d="M742.5906,-167.8454C778.0734,-157.276 833.0817,-140.8906 866.8292,-130.8381"/>
<polygon fill="#191970" stroke="#191970" points="741.2775,-164.5844 732.6928,-170.7936 743.2759,-171.2931 741.2775,-164.5844"/>
</g>
<!-- Node27 -->
<g id="node20" class="node">
<title>Node27</title>
<g id="a_node20"><a xlink:href="icns_8_h.html" target="_top" xlink:title="icns.H">
<polygon fill="#ffffff" stroke="#000000" points="259,-112.5 259,-131.5 304,-131.5 304,-112.5 259,-112.5"/>
<text text-anchor="middle" x="281.5" y="-119.5" font-family="Helvetica,sans-Serif" font-size="10.00" fill="#000000">icns.H</text>
</a>
</g>
</g>
<!-- Node24&#45;&gt;Node27 -->
<g id="edge33" class="edge">
<title>Node24&#45;&gt;Node27</title>
<path fill="none" stroke="#191970" d="M674.2534,-173.5086C590.0209,-162.4618 374.506,-134.1975 304.1148,-124.9659"/>
<polygon fill="#191970" stroke="#191970" points="673.9489,-176.9986 684.3192,-174.8287 674.8592,-170.058 673.9489,-176.9986"/>
</g>
<!-- Node30 -->
<g id="node23" class="node">
<title>Node30</title>
<g id="a_node23"><a xlink:href="levelset_8_h.html" target="_top" xlink:title="levelset.H">
<polygon fill="#ffffff" stroke="#000000" points="1009,-112.5 1009,-131.5 1070,-131.5 1070,-112.5 1009,-112.5"/>
<text text-anchor="middle" x="1039.5" y="-119.5" font-family="Helvetica,sans-Serif" font-size="10.00" fill="#000000">levelset.H</text>
</a>
</g>
</g>
<!-- Node24&#45;&gt;Node30 -->
<g id="edge40" class="edge">
<title>Node24&#45;&gt;Node30</title>
<path fill="none" stroke="#191970" d="M743.0789,-173.633C797.9339,-166.463 908.1484,-151.0695 1000.5,-132 1003.2382,-131.4346 1006.0728,-130.8017 1008.907,-130.1363"/>
<polygon fill="#191970" stroke="#191970" points="742.335,-170.2 732.8677,-174.956 743.2345,-177.142 742.335,-170.2"/>
</g>
<!-- Node32 -->
<g id="node25" class="node">
<title>Node32</title>
<g id="a_node25"><a xlink:href="_s_d_r_8_h.html" target="_top" xlink:title="SDR.H">
<polygon fill="#ffffff" stroke="#000000" points="525,-112.5 525,-131.5 574,-131.5 574,-112.5 525,-112.5"/>
<text text-anchor="middle" x="549.5" y="-119.5" font-family="Helvetica,sans-Serif" font-size="10.00" fill="#000000">SDR.H</text>
</a>
</g>
</g>
<!-- Node24&#45;&gt;Node32 -->
<g id="edge44" class="edge">
<title>Node24&#45;&gt;Node32</title>
<path fill="none" stroke="#191970" d="M674.6778,-166.0878C644.5272,-155.4687 601.1103,-140.1772 574.138,-130.6775"/>
<polygon fill="#191970" stroke="#191970" points="673.7565,-169.474 684.3513,-169.4948 676.0819,-162.8715 673.7565,-169.474"/>
</g>
<!-- Node33 -->
<g id="node26" class="node">
<title>Node33</title>
<g id="a_node26"><a xlink:href="temperature_8_h.html" target="_top" xlink:title="temperature.H">
<polygon fill="#ffffff" stroke="#000000" points="669,-112.5 669,-131.5 748,-131.5 748,-112.5 669,-112.5"/>
<text text-anchor="middle" x="708.5" y="-119.5" font-family="Helvetica,sans-Serif" font-size="10.00" fill="#000000">temperature.H</text>
</a>
</g>
</g>
<!-- Node24&#45;&gt;Node33 -->
<g id="edge46" class="edge">
<title>Node24&#45;&gt;Node33</title>
<path fill="none" stroke="#191970" d="M708.5,-158.1575C708.5,-149.155 708.5,-138.9199 708.5,-131.6427"/>
<polygon fill="#191970" stroke="#191970" points="705.0001,-158.2455 708.5,-168.2455 712.0001,-158.2456 705.0001,-158.2455"/>
</g>
<!-- Node34 -->
<g id="node27" class="node">
<title>Node34</title>
<g id="a_node27"><a xlink:href="_t_k_e_8_h.html" target="_top" xlink:title="TKE.H">
<polygon fill="#ffffff" stroke="#000000" points="944,-112.5 944,-131.5 991,-131.5 991,-112.5 944,-112.5"/>
<text text-anchor="middle" x="967.5" y="-119.5" font-family="Helvetica,sans-Serif" font-size="10.00" fill="#000000">TKE.H</text>
</a>
</g>
</g>
<!-- Node24&#45;&gt;Node34 -->
<g id="edge48" class="edge">
<title>Node24&#45;&gt;Node34</title>
<path fill="none" stroke="#191970" d="M742.5556,-172.2285C787.175,-164.4094 867.7146,-149.4103 935.5,-132 938.206,-131.305 941.0223,-130.519 943.8123,-129.7007"/>
<polygon fill="#191970" stroke="#191970" points="741.7953,-168.808 732.542,-173.9681 742.9935,-175.7047 741.7953,-168.808"/>
</g>
<!-- Node25&#45;&gt;Node12 -->
<g id="edge30" class="edge">
<title>Node25&#45;&gt;Node12</title>
<path fill="none" stroke="#191970" d="M886.7925,-103.5723C874.0915,-79.4618 852.3041,-38.1028 842.5176,-19.5249"/>
<polygon fill="#191970" stroke="#191970" points="883.7123,-105.2347 891.4697,-112.4509 889.9055,-101.9722 883.7123,-105.2347"/>
</g>
<!-- Node26 -->
<g id="node19" class="node">
<title>Node26</title>
<g id="a_node19"><a xlink:href="density__ops_8_h.html" target="_top" xlink:title="density_ops.H">
<polygon fill="#ffffff" stroke="#000000" points="965.5,-56.5 965.5,-75.5 1045.5,-75.5 1045.5,-56.5 965.5,-56.5"/>
<text text-anchor="middle" x="1005.5" y="-63.5" font-family="Helvetica,sans-Serif" font-size="10.00" fill="#000000">density_ops.H</text>
</a>
</g>
</g>
<!-- Node25&#45;&gt;Node26 -->
<g id="edge31" class="edge">
<title>Node25&#45;&gt;Node26</title>
<path fill="none" stroke="#191970" d="M924.5342,-107.5971C944.0746,-97.558 969.6092,-84.4393 986.7312,-75.6427"/>
<polygon fill="#191970" stroke="#191970" points="922.7817,-104.5625 915.4864,-112.2455 925.9806,-110.7889 922.7817,-104.5625"/>
</g>
<!-- Node26&#45;&gt;Node12 -->
<g id="edge32" class="edge">
<title>Node26&#45;&gt;Node12</title>
<path fill="none" stroke="#191970" d="M967.0714,-53.1905C936.2927,-42.9309 893.8074,-28.7691 866.0034,-19.5011"/>
<polygon fill="#191970" stroke="#191970" points="966.0261,-56.5313 976.6198,-56.3733 968.2398,-49.8905 966.0261,-56.5313"/>
</g>
<!-- Node27&#45;&gt;Node13 -->
<g id="edge35" class="edge">
<title>Node27&#45;&gt;Node13</title>
<path fill="none" stroke="#191970" d="M249.3604,-109.4139C223.1941,-99.1669 186.811,-84.919 162.9683,-75.582"/>
<polygon fill="#191970" stroke="#191970" points="248.2535,-112.7391 258.8412,-113.1266 250.806,-106.2211 248.2535,-112.7391"/>
</g>
<!-- Node27&#45;&gt;Node14 -->
<g id="edge34" class="edge">
<title>Node27&#45;&gt;Node14</title>
<path fill="none" stroke="#191970" d="M253.6202,-107.3011C241.2518,-99.5033 227.4925,-88.8606 218.5,-76 206.3378,-58.6062 201.9029,-33.4923 200.3295,-19.8033"/>
<polygon fill="#191970" stroke="#191970" points="251.9101,-110.3563 262.2925,-112.4673 255.4926,-104.3425 251.9101,-110.3563"/>
</g>
<!-- Node27&#45;&gt;Node22 -->
<g id="edge38" class="edge">
<title>Node27&#45;&gt;Node22</title>
<path fill="none" stroke="#191970" d="M309.5342,-107.5971C329.0746,-97.558 354.6092,-84.4393 371.7312,-75.6427"/>
<polygon fill="#191970" stroke="#191970" points="307.7817,-104.5625 300.4864,-112.2455 310.9806,-110.7889 307.7817,-104.5625"/>
</g>
<!-- Node27&#45;&gt;Node28 -->
<g id="edge36" class="edge">
<title>Node27&#45;&gt;Node28</title>
<path fill="none" stroke="#191970" d="M248.7513,-114.2944C205.8052,-104.1895 130.4755,-86.4648 83.9956,-75.5284"/>
<polygon fill="#191970" stroke="#191970" points="248.1437,-117.747 258.6796,-116.6305 249.747,-110.9331 248.1437,-117.747"/>
</g>
<!-- Node29 -->
<g id="node22" class="node">
<title>Node29</title>
<g id="a_node22"><a xlink:href="_power_law_profile_8cpp.html" target="_top" xlink:title="PowerLawProfile.cpp">
<polygon fill="#ffffff" stroke="#000000" points="228,-56.5 228,-75.5 337,-75.5 337,-56.5 228,-56.5"/>
<text text-anchor="middle" x="282.5" y="-63.5" font-family="Helvetica,sans-Serif" font-size="10.00" fill="#000000">PowerLawProfile.cpp</text>
</a>
</g>
</g>
<!-- Node27&#45;&gt;Node29 -->
<g id="edge39" class="edge">
<title>Node27&#45;&gt;Node29</title>
<path fill="none" stroke="#191970" d="M281.8543,-102.1575C282.0151,-93.155 282.1979,-82.9199 282.3278,-75.6427"/>
<polygon fill="#191970" stroke="#191970" points="278.3534,-102.1846 281.6742,-112.2455 285.3523,-102.3097 278.3534,-102.1846"/>
</g>
<!-- Node28&#45;&gt;Node14 -->
<g id="edge37" class="edge">
<title>Node28&#45;&gt;Node14</title>
<path fill="none" stroke="#191970" d="M79.9284,-52.9231C108.4461,-42.686 147.4381,-28.6889 173.0326,-19.5011"/>
<polygon fill="#191970" stroke="#191970" points="78.5468,-49.7004 70.3174,-56.3733 80.9119,-56.2887 78.5468,-49.7004"/>
</g>
<!-- Node30&#45;&gt;Node16 -->
<g id="edge41" class="edge">
<title>Node30&#45;&gt;Node16</title>
<path fill="none" stroke="#191970" d="M1079.8072,-111.1006C1109.3118,-102.2125 1145.6728,-89.0381 1154.5,-76 1159.4834,-68.6394 1160.1383,-62.8718 1154.5,-56 1130.0535,-26.2053 1016.3649,-15.3477 958.1115,-11.6934"/>
<polygon fill="#191970" stroke="#191970" points="1078.7243,-107.7707 1070.1138,-113.9441 1080.6947,-114.4876 1078.7243,-107.7707"/>
</g>
<!-- Node31 -->
<g id="node24" class="node">
<title>Node31</title>
<g id="a_node24"><a xlink:href="levelset__ops_8_h.html" target="_top" xlink:title="levelset_ops.H">
<polygon fill="#ffffff" stroke="#000000" points="1063.5,-56.5 1063.5,-75.5 1145.5,-75.5 1145.5,-56.5 1063.5,-56.5"/>
<text text-anchor="middle" x="1104.5" y="-63.5" font-family="Helvetica,sans-Serif" font-size="10.00" fill="#000000">levelset_ops.H</text>
</a>
</g>
</g>
<!-- Node30&#45;&gt;Node31 -->
<g id="edge42" class="edge">
<title>Node30&#45;&gt;Node31</title>
<path fill="none" stroke="#191970" d="M1058.4835,-105.645C1069.7879,-95.9058 1083.747,-83.8795 1093.3076,-75.6427"/>
<polygon fill="#191970" stroke="#191970" points="1056.1138,-103.0668 1050.8221,-112.2455 1060.6827,-108.3701 1056.1138,-103.0668"/>
</g>
<!-- Node31&#45;&gt;Node16 -->
<g id="edge43" class="edge">
<title>Node31&#45;&gt;Node16</title>
<path fill="none" stroke="#191970" d="M1063.5278,-53.3235C1030.3339,-43.0536 984.2942,-28.8093 954.209,-19.5011"/>
<polygon fill="#191970" stroke="#191970" points="1062.7973,-56.7611 1073.385,-56.3733 1064.8663,-50.0739 1062.7973,-56.7611"/>
</g>
<!-- Node32&#45;&gt;Node17 -->
<g id="edge45" class="edge">
<title>Node32&#45;&gt;Node17</title>
<path fill="none" stroke="#191970" d="M549.5,-102.1575C549.5,-93.155 549.5,-82.9199 549.5,-75.6427"/>
<polygon fill="#191970" stroke="#191970" points="546.0001,-102.2455 549.5,-112.2455 553.0001,-102.2456 546.0001,-102.2455"/>
</g>
<!-- Node33&#45;&gt;Node18 -->
<g id="edge47" class="edge">
<title>Node33&#45;&gt;Node18</title>
<path fill="none" stroke="#191970" d="M711.3346,-102.1575C712.6207,-93.155 714.0829,-82.9199 715.1225,-75.6427"/>
<polygon fill="#191970" stroke="#191970" points="707.843,-101.851 709.8935,-112.2455 714.7726,-102.8411 707.843,-101.851"/>
</g>
<!-- Node34&#45;&gt;Node19 -->
<g id="edge49" class="edge">
<title>Node34&#45;&gt;Node19</title>
<path fill="none" stroke="#191970" d="M934.3848,-110.5528C904.5459,-100.2381 861.1816,-85.248 833.1568,-75.5604"/>
<polygon fill="#191970" stroke="#191970" points="933.349,-113.8979 943.9438,-113.8571 935.6361,-107.282 933.349,-113.8979"/>
</g>
<!-- Node35 -->
<g id="node28" class="node">
<title>Node35</title>
<g id="a_node28"><a xlink:href="_one_eq_ksgs_8cpp.html" target="_top" xlink:title="OneEqKsgs.cpp">
<polygon fill="#ffffff" stroke="#000000" points="1201.5,-56.5 1201.5,-75.5 1289.5,-75.5 1289.5,-56.5 1201.5,-56.5"/>
<text text-anchor="middle" x="1245.5" y="-63.5" font-family="Helvetica,sans-Serif" font-size="10.00" fill="#000000">OneEqKsgs.cpp</text>
</a>
</g>
</g>
<!-- Node34&#45;&gt;Node35 -->
<g id="edge50" class="edge">
<title>Node34&#45;&gt;Node35</title>
<path fill="none" stroke="#191970" d="M1000.9256,-112.1067C1076.7461,-93.823 1154.1082,-80.4157 1201.3773,-72.8008"/>
<polygon fill="#191970" stroke="#191970" points="1000.0924,-108.7072 991.208,-114.4793 1001.7528,-115.5074 1000.0924,-108.7072"/>
</g>
<!-- Node36&#45;&gt;Node13 -->
<g id="edge55" class="edge">
<title>Node36&#45;&gt;Node13</title>
<path fill="none" stroke="#191970" d="M306.007,-217.8628C295.434,-209.2896 282.4853,-198.3985 271.5,-188 237.9301,-156.2234 234.9804,-142.7863 200.5,-112 185.1035,-98.253 165.7945,-84.399 152.8519,-75.5415"/>
<polygon fill="#191970" stroke="#191970" points="303.9031,-220.662 313.8941,-224.1877 308.2824,-215.2011 303.9031,-220.662"/>
</g>
<!-- Node36&#45;&gt;Node24 -->
<g id="edge53" class="edge">
<title>Node36&#45;&gt;Node24</title>
<path fill="none" stroke="#191970" d="M378.9045,-226.3177C462.6514,-214.0406 623.4118,-190.4737 684.3121,-181.5459"/>
<polygon fill="#191970" stroke="#191970" points="378.2268,-222.8795 368.8402,-227.7931 379.2422,-229.8055 378.2268,-222.8795"/>
</g>
<!-- Node36&#45;&gt;Node28 -->
<g id="edge56" class="edge">
<title>Node36&#45;&gt;Node28</title>
<path fill="none" stroke="#191970" d="M301.7954,-219.3344C245.1199,-185.6895 106.9996,-103.6959 59.7012,-75.6177"/>
<polygon fill="#191970" stroke="#191970" points="300.0882,-222.3911 310.4738,-224.4862 303.6615,-216.3719 300.0882,-222.3911"/>
</g>
<!-- Node37 -->
<g id="node30" class="node">
<title>Node37</title>
<g id="a_node30"><a xlink:href="_diffusion_ops_8cpp.html" target="_top" xlink:title="DiffusionOps.cpp">
<polygon fill="#ffffff" stroke="#000000" points="280.5,-168.5 280.5,-187.5 372.5,-187.5 372.5,-168.5 280.5,-168.5"/>
<text text-anchor="middle" x="326.5" y="-175.5" font-family="Helvetica,sans-Serif" font-size="10.00" fill="#000000">DiffusionOps.cpp</text>
</a>
</g>
</g>
<!-- Node36&#45;&gt;Node37 -->
<g id="edge54" class="edge">
<title>Node36&#45;&gt;Node37</title>
<path fill="none" stroke="#191970" d="M326.5,-214.1575C326.5,-205.155 326.5,-194.9199 326.5,-187.6427"/>
<polygon fill="#191970" stroke="#191970" points="323.0001,-214.2455 326.5,-224.2455 330.0001,-214.2456 323.0001,-214.2455"/>
</g>
<!-- Node41 -->
<g id="node34" class="node">
<title>Node41</title>
<g id="a_node34"><a xlink:href="_laminar_model_8_h.html" target="_top" xlink:title="LaminarModel.H">
<polygon fill="#ffffff" stroke="#000000" points="1239.5,-168.5 1239.5,-187.5 1327.5,-187.5 1327.5,-168.5 1239.5,-168.5"/>
<text text-anchor="middle" x="1283.5" y="-175.5" font-family="Helvetica,sans-Serif" font-size="10.00" fill="#000000">LaminarModel.H</text>
</a>
</g>
</g>
<!-- Node40&#45;&gt;Node41 -->
<g id="edge62" class="edge">
<title>Node40&#45;&gt;Node41</title>
<path fill="none" stroke="#191970" d="M1191.1858,-271.5345C1200.972,-257.8247 1215.2109,-238.9872 1229.5,-224 1242.5873,-210.2734 1259.4703,-196.4152 1270.8463,-187.5512"/>
<polygon fill="#191970" stroke="#191970" points="1188.0566,-269.9006 1185.1763,-280.0964 1193.7861,-273.9221 1188.0566,-269.9006"/>
</g>
<!-- Node44 -->
<g id="node37" class="node">
<title>Node44</title>
<g id="a_node37"><a xlink:href="_turb_model_base_8_h.html" target="_top" xlink:title="TurbModelBase.H">
<polygon fill="#ffffff" stroke="#000000" points="1082,-224.5 1082,-243.5 1177,-243.5 1177,-224.5 1082,-224.5"/>
<text text-anchor="middle" x="1129.5" y="-231.5" font-family="Helvetica,sans-Serif" font-size="10.00" fill="#000000">TurbModelBase.H</text>
</a>
</g>
</g>
<!-- Node40&#45;&gt;Node44 -->
<g id="edge65" class="edge">
<title>Node40&#45;&gt;Node44</title>
<path fill="none" stroke="#191970" d="M1163.1878,-272.5004C1154.8553,-262.9775 1144.8647,-251.5596 1137.9373,-243.6427"/>
<polygon fill="#191970" stroke="#191970" points="1160.7457,-275.0245 1169.9649,-280.2455 1166.0138,-270.415 1160.7457,-275.0245"/>
</g>
<!-- Node42 -->
<g id="node35" class="node">
<title>Node42</title>
<g id="a_node35"><a xlink:href="_laminar_model_8cpp.html" target="_top" xlink:title="LaminarModel.cpp">
<polygon fill="#ffffff" stroke="#000000" points="1350.5,-112.5 1350.5,-131.5 1446.5,-131.5 1446.5,-112.5 1350.5,-112.5"/>
<text text-anchor="middle" x="1398.5" y="-119.5" font-family="Helvetica,sans-Serif" font-size="10.00" fill="#000000">LaminarModel.cpp</text>
</a>
</g>
</g>
<!-- Node41&#45;&gt;Node42 -->
<g id="edge63" class="edge">
<title>Node41&#45;&gt;Node42</title>
<path fill="none" stroke="#191970" d="M1312.3033,-163.9741C1333.125,-153.8348 1360.6978,-140.408 1378.9888,-131.5011"/>
<polygon fill="#191970" stroke="#191970" points="1310.7276,-160.8484 1303.2692,-168.3733 1313.7922,-167.1419 1310.7276,-160.8484"/>
</g>
<!-- Node43 -->
<g id="node36" class="node">
<title>Node43</title>
<g id="a_node36"><a xlink:href="turbulence__utils_8_h.html" target="_top" xlink:title="turbulence_utils.H">
<polygon fill="#ffffff" stroke="#000000" points="1127,-112.5 1127,-131.5 1222,-131.5 1222,-112.5 1127,-112.5"/>
<text text-anchor="middle" x="1174.5" y="-119.5" font-family="Helvetica,sans-Serif" font-size="10.00" fill="#000000">turbulence_utils.H</text>
</a>
</g>
</g>
<!-- Node41&#45;&gt;Node43 -->
<g id="edge64" class="edge">
<title>Node41&#45;&gt;Node43</title>
<path fill="none" stroke="#191970" d="M1255.4658,-163.5971C1235.9254,-153.558 1210.3908,-140.4393 1193.2688,-131.6427"/>
<polygon fill="#191970" stroke="#191970" points="1254.0194,-166.7889 1264.5136,-168.2455 1257.2183,-160.5625 1254.0194,-166.7889"/>
</g>
<!-- Node45 -->
<g id="node38" class="node">
<title>Node45</title>
<g id="a_node38"><a xlink:href="_one_eq_ksgs_8_h.html" target="_top" xlink:title="OneEqKsgs.H">
<polygon fill="#ffffff" stroke="#000000" points="1039.5,-168.5 1039.5,-187.5 1119.5,-187.5 1119.5,-168.5 1039.5,-168.5"/>
<text text-anchor="middle" x="1079.5" y="-175.5" font-family="Helvetica,sans-Serif" font-size="10.00" fill="#000000">OneEqKsgs.H</text>
</a>
</g>
</g>
<!-- Node44&#45;&gt;Node45 -->
<g id="edge66" class="edge">
<title>Node44&#45;&gt;Node45</title>
<path fill="none" stroke="#191970" d="M1113.8753,-216.5004C1105.3727,-206.9775 1095.1782,-195.5596 1088.1095,-187.6427"/>
<polygon fill="#191970" stroke="#191970" points="1111.5197,-219.1172 1120.7907,-224.2455 1116.7413,-214.4551 1111.5197,-219.1172"/>
</g>
<!-- Node46 -->
<g id="node39" class="node">
<title>Node46</title>
<g id="a_node39"><a xlink:href="_smagorinsky_8_h.html" target="_top" xlink:title="Smagorinsky.H">
<polygon fill="#ffffff" stroke="#000000" points="1137.5,-168.5 1137.5,-187.5 1221.5,-187.5 1221.5,-168.5 1137.5,-168.5"/>
<text text-anchor="middle" x="1179.5" y="-175.5" font-family="Helvetica,sans-Serif" font-size="10.00" fill="#000000">Smagorinsky.H</text>
</a>
</g>
</g>
<!-- Node44&#45;&gt;Node46 -->
<g id="edge68" class="edge">
<title>Node44&#45;&gt;Node46</title>
<path fill="none" stroke="#191970" d="M1145.1247,-216.5004C1153.6273,-206.9775 1163.8218,-195.5596 1170.8905,-187.6427"/>
<polygon fill="#191970" stroke="#191970" points="1142.2587,-214.4551 1138.2093,-224.2455 1147.4803,-219.1172 1142.2587,-214.4551"/>
</g>
<!-- Node45&#45;&gt;Node35 -->
<g id="edge67" class="edge">
<title>Node45&#45;&gt;Node35</title>
<path fill="none" stroke="#191970" d="M1086.7799,-158.4359C1093.1283,-143.8141 1103.6604,-124.3051 1118.5,-112 1142.2379,-92.3164 1175.0989,-80.7171 1201.447,-74.0905"/>
<polygon fill="#191970" stroke="#191970" points="1083.3979,-157.4634 1082.8949,-168.0463 1089.8877,-160.0869 1083.3979,-157.4634"/>
</g>
<!-- Node46&#45;&gt;Node43 -->
<g id="edge70" class="edge">
<title>Node46&#45;&gt;Node43</title>
<path fill="none" stroke="#191970" d="M1177.7283,-158.1575C1176.9246,-149.155 1176.0107,-138.9199 1175.361,-131.6427"/>
<polygon fill="#191970" stroke="#191970" points="1174.2535,-158.5965 1178.6291,-168.2455 1181.2258,-157.9739 1174.2535,-158.5965"/>
</g>
<!-- Node47 -->
<g id="node40" class="node">
<title>Node47</title>
<g id="a_node40"><a xlink:href="_smagorinsky_8cpp.html" target="_top" xlink:title="Smagorinsky.cpp">
<polygon fill="#ffffff" stroke="#000000" points="1240.5,-112.5 1240.5,-131.5 1332.5,-131.5 1332.5,-112.5 1240.5,-112.5"/>
<text text-anchor="middle" x="1286.5" y="-119.5" font-family="Helvetica,sans-Serif" font-size="10.00" fill="#000000">Smagorinsky.cpp</text>
</a>
</g>
</g>
<!-- Node46&#45;&gt;Node47 -->
<g id="edge69" class="edge">
<title>Node46&#45;&gt;Node47</title>
<path fill="none" stroke="#191970" d="M1207.0199,-163.5971C1226.2017,-153.558 1251.2678,-140.4393 1268.0756,-131.6427"/>
<polygon fill="#191970" stroke="#191970" points="1205.375,-160.5075 1198.138,-168.2455 1208.6209,-166.7095 1205.375,-160.5075"/>
</g>
<!-- Node48&#45;&gt;Node35 -->
<g id="edge73" class="edge">
<title>Node48&#45;&gt;Node35</title>
<path fill="none" stroke="#191970" d="M1424.0663,-163.4914C1446.043,-150.41 1470.3464,-130.4504 1455.5,-112 1435.0853,-86.6295 1344.9285,-74.473 1289.593,-69.304"/>
<polygon fill="#191970" stroke="#191970" points="1422.2103,-160.52 1415.2236,-168.4847 1425.6523,-166.6153 1422.2103,-160.52"/>
</g>
<!-- Node48&#45;&gt;Node42 -->
<g id="edge72" class="edge">
<title>Node48&#45;&gt;Node42</title>
<path fill="none" stroke="#191970" d="M1396.563,-158.1575C1397.0453,-149.155 1397.5936,-138.9199 1397.9834,-131.6427"/>
<polygon fill="#191970" stroke="#191970" points="1393.0626,-158.0726 1396.0226,-168.2455 1400.0526,-158.4471 1393.0626,-158.0726"/>
</g>
<!-- Node48&#45;&gt;Node47 -->
<g id="edge74" class="edge">
<title>Node48&#45;&gt;Node47</title>
<path fill="none" stroke="#191970" d="M1367.4658,-163.5971C1347.9254,-153.558 1322.3908,-140.4393 1305.2688,-131.6427"/>
<polygon fill="#191970" stroke="#191970" points="1366.0194,-166.7889 1376.5136,-168.2455 1369.2183,-160.5625 1366.0194,-166.7889"/>
</g>
</g>
</svg>
        <g id="navigator" transform="translate(0 0)" fill="#404254">
                <rect fill="#f2f5e9" fill-opacity="0.5" stroke="#606060" stroke-width=".5" x="0" y="0" width="60" height="60"/>
                <use id="zoomplus" xlink:href="#zoomPlus" x="17" y="9" onmousedown="handleZoom(evt,'in')"/>
                <use id="zoomminus" xlink:href="#zoomMin" x="42" y="9" onmousedown="handleZoom(evt,'out')"/>
                <use id="reset" xlink:href="#resetDef" x="30" y="36" onmousedown="handleReset()"/>
                <g id="arrowUp" xlink:href="#dirArrow" transform="translate(30 24)" onmousedown="handlePan(0,-1)">
                  <use xlink:href="#rim" fill="#404040">
                        <set attributeName="fill" to="#808080" begin="arrowUp.mouseover" end="arrowUp.mouseout"/>
                  </use>
                  <path fill="none" stroke="white" stroke-width="1.5" d="M0,-3.0v7 M-2.5,-0.5L0,-3.0L2.5,-0.5"/>
                </g>
                <g id="arrowRight" xlink:href="#dirArrow" transform="rotate(90) translate(36 -43)" onmousedown="handlePan(1,0)">
                  <use xlink:href="#rim" fill="#404040">
                        <set attributeName="fill" to="#808080" begin="arrowRight.mouseover" end="arrowRight.mouseout"/>
                  </use>
                  <path fill="none" stroke="white" stroke-width="1.5" d="M0,-3.0v7 M-2.5,-0.5L0,-3.0L2.5,-0.5"/>
                </g>
                <g id="arrowDown" xlink:href="#dirArrow" transform="rotate(180) translate(-30 -48)" onmousedown="handlePan(0,1)">
                  <use xlink:href="#rim" fill="#404040">
                        <set attributeName="fill" to="#808080" begin="arrowDown.mouseover" end="arrowDown.mouseout"/>
                  </use>
                  <path fill="none" stroke="white" stroke-width="1.5" d="M0,-3.0v7 M-2.5,-0.5L0,-3.0L2.5,-0.5"/>
                </g>
                <g id="arrowLeft" xlink:href="#dirArrow" transform="rotate(270) translate(-36 17)" onmousedown="handlePan(-1,0)">
                  <use xlink:href="#rim" fill="#404040">
                        <set attributeName="fill" to="#808080" begin="arrowLeft.mouseover" end="arrowLeft.mouseout"/>
                  </use>
                  <path fill="none" stroke="white" stroke-width="1.5" d="M0,-3.0v7 M-2.5,-0.5L0,-3.0L2.5,-0.5"/>
                </g>
        </g>
        <svg viewBox="0 0 15 15" width="100%" height="30px" preserveAspectRatio="xMaxYMin meet">
         <g id="arrow_out" transform="scale(0.3 0.3)">
          <a xlink:href="_turbulence_model_8_h__dep__incl_org.svg" target="_base">
           <rect id="button" ry="5" rx="5" y="6" x="6" height="38" width="38"
                fill="#f2f5e9" fill-opacity="0.5" stroke="#606060" stroke-width="1.0"/>
           <path id="arrow"
             d="M 11.500037,31.436501 C 11.940474,20.09759 22.043105,11.32322 32.158766,21.979434 L 37.068811,17.246167 C 37.068811,17.246167 37.088388,32 37.088388,32 L 22.160133,31.978069 C 22.160133,31.978069 26.997745,27.140456 26.997745,27.140456 C 18.528582,18.264221 13.291696,25.230495 11.500037,31.436501 z"
             style="fill:#404040;"/>
          </a>
         </g>
        </svg>
</svg>
