<?xml version="1.0" encoding="UTF-8" standalone="no"?>
<!DOCTYPE svg PUBLIC "-//W3C//DTD SVG 1.1//EN"
 "http://www.w3.org/Graphics/SVG/1.1/DTD/svg11.dtd">
<!-- Generated by graphviz version 2.40.1 (20161225.0304)
 -->
<!-- Title: amr_wind::ABLWallFunction Pages: 1 -->
<svg width="2200pt" height="595pt"
 viewBox="0.00 0.00 2200.00 595.00" xmlns="http://www.w3.org/2000/svg" xmlns:xlink="http://www.w3.org/1999/xlink">
<g id="graph0" class="graph" transform="scale(1 1) rotate(0) translate(4 591)">
<title>amr_wind::ABLWallFunction</title>
<polygon fill="#ffffff" stroke="transparent" points="-4,4 -4,-591 2196,-591 2196,4 -4,4"/>
<!-- Node1 -->
<g id="node1" class="node">
<title>Node1</title>
<polygon fill="#bfbfbf" stroke="#000000" points="1841,-432.5 1841,-451.5 1981,-451.5 1981,-432.5 1841,-432.5"/>
<text text-anchor="middle" x="1911" y="-439.5" font-family="Helvetica,sans-Serif" font-size="10.00" fill="#000000">amr_wind::ABLWallFunction</text>
</g>
<!-- Node2 -->
<g id="node2" class="node">
<title>Node2</title>
<g id="a_node2"><a xlink:href="classamr__wind_1_1_c_f_d_sim.html" target="_top" xlink:title="Data structures for a CFD simulationCFDSim represents the amr&#45;wind execution environment and manages ...">
<polygon fill="#ffffff" stroke="#000000" points="1608,-355.5 1608,-374.5 1711,-374.5 1711,-355.5 1608,-355.5"/>
<text text-anchor="middle" x="1659.5" y="-362.5" font-family="Helvetica,sans-Serif" font-size="10.00" fill="#000000">amr_wind::CFDSim</text>
</a>
</g>
</g>
<!-- Node2&#45;&gt;Node1 -->
<g id="edge1" class="edge">
<title>Node2&#45;&gt;Node1</title>
<path fill="none" stroke="#9a32cd" stroke-dasharray="5,2" d="M1692.114,-378.3764C1711.4012,-386.055 1736.401,-395.6083 1759,-403 1790.9732,-413.4578 1799.4201,-414.6214 1832,-423 1844.4323,-426.1972 1858.0082,-429.5222 1870.3439,-432.4802"/>
<polygon fill="#9a32cd" stroke="#9a32cd" points="1693.1758,-375.0312 1682.5917,-374.5533 1690.5676,-381.5272 1693.1758,-375.0312"/>
<text text-anchor="middle" x="1786.5" y="-421" font-family="Helvetica,sans-Serif" font-size="10.00" fill="#000000"> m_sim</text>
</g>
<!-- Node4 -->
<g id="node4" class="node">
<title>Node4</title>
<g id="a_node4"><a xlink:href="classamr__wind_1_1_i_o_manager.html" target="_top" xlink:title="Input/Output managerThis class contains infrastructure to output solution fields during the simulatio...">
<polygon fill="#ffffff" stroke="#000000" points="1854.5,-68.5 1854.5,-87.5 1967.5,-87.5 1967.5,-68.5 1854.5,-68.5"/>
<text text-anchor="middle" x="1911" y="-75.5" font-family="Helvetica,sans-Serif" font-size="10.00" fill="#000000">amr_wind::IOManager</text>
</a>
</g>
</g>
<!-- Node2&#45;&gt;Node4 -->
<g id="edge4" class="edge">
<title>Node2&#45;&gt;Node4</title>
<path fill="none" stroke="#9a32cd" stroke-dasharray="5,2" d="M1678.0386,-348.4831C1694.9841,-333.1043 1720.4581,-309.2681 1741,-287 1808.5501,-213.7734 1881.3795,-117.7148 1903.9398,-87.511"/>
<polygon fill="#9a32cd" stroke="#9a32cd" points="1675.5493,-346.0148 1670.4639,-355.3094 1680.2356,-351.2148 1675.5493,-346.0148"/>
<text text-anchor="middle" x="1786.5" y="-269" font-family="Helvetica,sans-Serif" font-size="10.00" fill="#000000"> m_sim</text>
</g>
<!-- Node13 -->
<g id="node13" class="node">
<title>Node13</title>
<g id="a_node13"><a xlink:href="classamr__wind_1_1_post_process_manager.html" target="_top" xlink:title="A collection of post&#45;processing instances that are active during a simulation. ">
<polygon fill="#ffffff" stroke="#000000" points="1832,-394.5 1832,-413.5 1990,-413.5 1990,-394.5 1832,-394.5"/>
<text text-anchor="middle" x="1911" y="-401.5" font-family="Helvetica,sans-Serif" font-size="10.00" fill="#000000">amr_wind::PostProcessManager</text>
</a>
</g>
</g>
<!-- Node2&#45;&gt;Node13 -->
<g id="edge15" class="edge">
<title>Node2&#45;&gt;Node13</title>
<path fill="none" stroke="#9a32cd" stroke-dasharray="5,2" d="M1721.1696,-374.5631C1760.1595,-380.6092 1810.3658,-388.3947 1849.3517,-394.4402"/>
<polygon fill="#9a32cd" stroke="#9a32cd" points="1721.4199,-371.0601 1711.0017,-372.9863 1720.3472,-377.9775 1721.4199,-371.0601"/>
<text text-anchor="middle" x="1786.5" y="-391" font-family="Helvetica,sans-Serif" font-size="10.00" fill="#000000"> m_sim</text>
</g>
<!-- Node14 -->
<g id="node14" class="node">
<title>Node14</title>
<g id="a_node14"><a xlink:href="classamr__wind_1_1pde_1_1_p_d_e_mgr.html" target="_top" xlink:title="PDE systems manager. ">
<polygon fill="#ffffff" stroke="#000000" points="1849,-262.5 1849,-281.5 1973,-281.5 1973,-262.5 1849,-262.5"/>
<text text-anchor="middle" x="1911" y="-269.5" font-family="Helvetica,sans-Serif" font-size="10.00" fill="#000000">amr_wind::pde::PDEMgr</text>
</a>
</g>
</g>
<!-- Node2&#45;&gt;Node14 -->
<g id="edge26" class="edge">
<title>Node2&#45;&gt;Node14</title>
<path fill="none" stroke="#9a32cd" stroke-dasharray="5,2" d="M1704.6225,-352.7013C1735.7254,-343.8072 1777.816,-330.9428 1814,-317 1841.8895,-306.2533 1873.065,-291.2254 1892.3624,-281.5518"/>
<polygon fill="#9a32cd" stroke="#9a32cd" points="1703.5996,-349.3533 1694.9317,-355.4459 1705.507,-356.0884 1703.5996,-349.3533"/>
<text text-anchor="middle" x="1786.5" y="-340" font-family="Helvetica,sans-Serif" font-size="10.00" fill="#000000"> m_sim</text>
</g>
<!-- Node3 -->
<g id="node3" class="node">
<title>Node3</title>
<polygon fill="#ffffff" stroke="#bfbfbf" points="2063,-350 2063,-380 2170,-380 2170,-350 2063,-350"/>
<text text-anchor="start" x="2071" y="-368" font-family="Helvetica,sans-Serif" font-size="10.00" fill="#000000">std::unique_ptr&lt; amr</text>
<text text-anchor="middle" x="2116.5" y="-357" font-family="Helvetica,sans-Serif" font-size="10.00" fill="#000000">_wind::IOManager &gt;</text>
</g>
<!-- Node3&#45;&gt;Node2 -->
<g id="edge2" class="edge">
<title>Node3&#45;&gt;Node2</title>
<path fill="none" stroke="#9a32cd" stroke-dasharray="5,2" d="M2052.4562,-365C1961.0541,-365 1794.9867,-365 1711.0354,-365"/>
<polygon fill="#9a32cd" stroke="#9a32cd" points="2052.6823,-368.5001 2062.6823,-365 2052.6823,-361.5001 2052.6823,-368.5001"/>
<text text-anchor="middle" x="1911" y="-368" font-family="Helvetica,sans-Serif" font-size="10.00" fill="#000000"> m_io_mgr</text>
</g>
<!-- Node4&#45;&gt;Node3 -->
<g id="edge3" class="edge">
<title>Node4&#45;&gt;Node3</title>
<path fill="none" stroke="#9a32cd" stroke-dasharray="5,2" d="M1923.7905,-95.8631C1961.3329,-148.2947 2070.7656,-301.1276 2105.6687,-349.8731"/>
<polygon fill="#9a32cd" stroke="#9a32cd" points="1926.5049,-93.642 1917.8374,-87.549 1920.8134,-97.7173 1926.5049,-93.642"/>
<text text-anchor="middle" x="2015.5" y="-234" font-family="Helvetica,sans-Serif" font-size="10.00" fill="#000000"> ptr</text>
</g>
<!-- Node5 -->
<g id="node5" class="node">
<title>Node5</title>
<polygon fill="#ffffff" stroke="#bfbfbf" points="410,-51.5 410,-70.5 521,-70.5 521,-51.5 410,-51.5"/>
<text text-anchor="middle" x="465.5" y="-58.5" font-family="Helvetica,sans-Serif" font-size="10.00" fill="#000000">std::set&lt; std::string &gt;</text>
</g>
<!-- Node5&#45;&gt;Node4 -->
<g id="edge5" class="edge">
<title>Node5&#45;&gt;Node4</title>
<path fill="none" stroke="#9a32cd" stroke-dasharray="5,2" d="M531.542,-61C594.986,-61 693.5444,-61 779,-61 779,-61 779,-61 1659.5,-61 1726.4571,-61 1803.2136,-67.0723 1854.1395,-71.9586"/>
<polygon fill="#9a32cd" stroke="#9a32cd" points="531.281,-57.5001 521.281,-61 531.2809,-64.5001 531.281,-57.5001"/>
<text text-anchor="middle" x="1233" y="-75" font-family="Helvetica,sans-Serif" font-size="10.00" fill="#000000"> m_chkvars</text>
<text text-anchor="middle" x="1233" y="-64" font-family="Helvetica,sans-Serif" font-size="10.00" fill="#000000">m_pltvars_default</text>
</g>
<!-- Node6 -->
<g id="node6" class="node">
<title>Node6</title>
<g id="a_node6"><a xlink:title="STL class. ">
<polygon fill="#ffffff" stroke="#bfbfbf" points="195.5,-89.5 195.5,-108.5 255.5,-108.5 255.5,-89.5 195.5,-89.5"/>
<text text-anchor="middle" x="225.5" y="-96.5" font-family="Helvetica,sans-Serif" font-size="10.00" fill="#000000">std::string</text>
</a>
</g>
</g>
<!-- Node6&#45;&gt;Node4 -->
<g id="edge10" class="edge">
<title>Node6&#45;&gt;Node4</title>
<path fill="none" stroke="#9a32cd" stroke-dasharray="5,2" d="M246.7863,-83.5228C287.2492,-55.6762 378.9698,0 465.5,0 465.5,0 465.5,0 1659.5,0 1750.9298,0 1853.0039,-47.6074 1893.2863,-68.4357"/>
<polygon fill="#9a32cd" stroke="#9a32cd" points="244.6873,-80.7198 238.5096,-89.3272 248.7066,-86.4509 244.6873,-80.7198"/>
<text text-anchor="middle" x="1075.5" y="-25" font-family="Helvetica,sans-Serif" font-size="10.00" fill="#000000"> m_chk_prefix</text>
<text text-anchor="middle" x="1075.5" y="-14" font-family="Helvetica,sans-Serif" font-size="10.00" fill="#000000">m_plt_prefix</text>
<text text-anchor="middle" x="1075.5" y="-3" font-family="Helvetica,sans-Serif" font-size="10.00" fill="#000000">m_restart_file</text>
</g>
<!-- Node6&#45;&gt;Node5 -->
<g id="edge6" class="edge">
<title>Node6&#45;&gt;Node5</title>
<path fill="none" stroke="#9a32cd" stroke-dasharray="5,2" d="M256.688,-85.7585C268.4868,-81.2904 282.1668,-76.7447 295,-74 332.7391,-65.9286 376.1169,-62.7023 409.6746,-61.4818"/>
<polygon fill="#9a32cd" stroke="#9a32cd" points="255.3088,-82.5399 247.2794,-89.4522 257.8668,-89.0557 255.3088,-82.5399"/>
<text text-anchor="middle" x="343.5" y="-77" font-family="Helvetica,sans-Serif" font-size="10.00" fill="#000000"> keys</text>
</g>
<!-- Node6&#45;&gt;Node14 -->
<g id="edge27" class="edge">
<title>Node6&#45;&gt;Node14</title>
<path fill="none" stroke="#9a32cd" stroke-dasharray="5,2" d="M265.8494,-99.3851C442.2539,-101.705 1162.6975,-117.8031 1741,-228 1789.8145,-237.3017 1845.3866,-252.5964 1879.321,-262.4813"/>
<polygon fill="#9a32cd" stroke="#9a32cd" points="265.768,-95.8839 255.7253,-99.2594 265.6811,-102.8833 265.768,-95.8839"/>
<text text-anchor="middle" x="1075.5" y="-149" font-family="Helvetica,sans-Serif" font-size="10.00" fill="#000000"> m_scheme</text>
</g>
<!-- Node16 -->
<g id="node16" class="node">
<title>Node16</title>
<polygon fill="#ffffff" stroke="#bfbfbf" points="414,-162 414,-192 517,-192 517,-162 414,-162"/>
<text text-anchor="start" x="422" y="-180" font-family="Helvetica,sans-Serif" font-size="10.00" fill="#000000">std::unordered_map</text>
<text text-anchor="middle" x="465.5" y="-169" font-family="Helvetica,sans-Serif" font-size="10.00" fill="#000000">&lt; std::string, int &gt;</text>
</g>
<!-- Node6&#45;&gt;Node16 -->
<g id="edge20" class="edge">
<title>Node6&#45;&gt;Node16</title>
<path fill="none" stroke="#9a32cd" stroke-dasharray="5,2" d="M264.5732,-111.6988C306.7805,-125.4162 374.0011,-147.2629 418.9232,-161.8625"/>
<polygon fill="#9a32cd" stroke="#9a32cd" points="265.5209,-108.3266 254.9287,-108.5643 263.3572,-114.9839 265.5209,-108.3266"/>
<text text-anchor="middle" x="343.5" y="-155" font-family="Helvetica,sans-Serif" font-size="10.00" fill="#000000"> keys</text>
</g>
<!-- Node31 -->
<g id="node31" class="node">
<title>Node31</title>
<polygon fill="#ffffff" stroke="#bfbfbf" points="410.5,-230 410.5,-260 520.5,-260 520.5,-230 410.5,-230"/>
<text text-anchor="start" x="418.5" y="-248" font-family="Helvetica,sans-Serif" font-size="10.00" fill="#000000">std::unordered_map</text>
<text text-anchor="middle" x="465.5" y="-237" font-family="Helvetica,sans-Serif" font-size="10.00" fill="#000000">&lt; std::string, size_t &gt;</text>
</g>
<!-- Node6&#45;&gt;Node31 -->
<g id="edge46" class="edge">
<title>Node6&#45;&gt;Node31</title>
<path fill="none" stroke="#9a32cd" stroke-dasharray="5,2" d="M234.809,-117.7927C246.1125,-138.5723 267.1708,-171.4276 295,-189 332.2968,-212.5505 350.2533,-195.7561 392,-210 407.6501,-215.3398 424.3475,-223.1094 437.866,-229.9724"/>
<polygon fill="#9a32cd" stroke="#9a32cd" points="237.7847,-115.9294 230.0567,-108.6817 231.5782,-119.1667 237.7847,-115.9294"/>
<text text-anchor="middle" x="343.5" y="-213" font-family="Helvetica,sans-Serif" font-size="10.00" fill="#000000"> keys</text>
</g>
<!-- Node7 -->
<g id="node7" class="node">
<title>Node7</title>
<g id="a_node7"><a xlink:title="STL class. ">
<polygon fill="#ffffff" stroke="#bfbfbf" points="0,-84 0,-114 95,-114 95,-84 0,-84"/>
<text text-anchor="start" x="8" y="-102" font-family="Helvetica,sans-Serif" font-size="10.00" fill="#000000">std::basic_string&lt;</text>
<text text-anchor="middle" x="47.5" y="-91" font-family="Helvetica,sans-Serif" font-size="10.00" fill="#000000"> char &gt;</text>
</a>
</g>
</g>
<!-- Node7&#45;&gt;Node6 -->
<g id="edge7" class="edge">
<title>Node7&#45;&gt;Node6</title>
<path fill="none" stroke="#191970" d="M105.5446,-99C135.493,-99 170.7833,-99 195.3,-99"/>
<polygon fill="#191970" stroke="#191970" points="105.2008,-95.5001 95.2007,-99 105.2007,-102.5001 105.2008,-95.5001"/>
</g>
<!-- Node8 -->
<g id="node8" class="node">
<title>Node8</title>
<g id="a_node8"><a xlink:title="STL class. ">
<polygon fill="#ffffff" stroke="#bfbfbf" points="188.5,-8.5 188.5,-27.5 262.5,-27.5 262.5,-8.5 188.5,-8.5"/>
<text text-anchor="middle" x="225.5" y="-15.5" font-family="Helvetica,sans-Serif" font-size="10.00" fill="#000000">std::set&lt; K &gt;</text>
</a>
</g>
</g>
<!-- Node8&#45;&gt;Node5 -->
<g id="edge8" class="edge">
<title>Node8&#45;&gt;Node5</title>
<path fill="none" stroke="#ffa500" stroke-dasharray="5,2" d="M272.7911,-26.473C312.8893,-33.6573 370.3731,-43.9564 412.1151,-51.4352"/>
<polygon fill="#ffa500" stroke="#ffa500" points="273.1972,-22.9901 262.7367,-24.6716 271.9627,-29.8804 273.1972,-22.9901"/>
<text text-anchor="middle" x="343.5" y="-51" font-family="Helvetica,sans-Serif" font-size="10.00" fill="#000000"> &lt; std::string &gt;</text>
</g>
<!-- Node9 -->
<g id="node9" class="node">
<title>Node9</title>
<polygon fill="#ffffff" stroke="#bfbfbf" points="33,-147.5 33,-166.5 62,-166.5 62,-147.5 33,-147.5"/>
<text text-anchor="middle" x="47.5" y="-154.5" font-family="Helvetica,sans-Serif" font-size="10.00" fill="#000000">K</text>
</g>
<!-- Node9&#45;&gt;Node8 -->
<g id="edge9" class="edge">
<title>Node9&#45;&gt;Node8</title>
<path fill="none" stroke="#9a32cd" stroke-dasharray="5,2" d="M69.5992,-141.5711C77.6656,-135.8376 86.8143,-129.2149 95,-123 139.6994,-89.0622 191.1734,-46.6169 213.8011,-27.7812"/>
<polygon fill="#9a32cd" stroke="#9a32cd" points="67.5185,-138.7556 61.3678,-147.3823 71.5557,-144.4741 67.5185,-138.7556"/>
<text text-anchor="middle" x="134.5" y="-113" font-family="Helvetica,sans-Serif" font-size="10.00" fill="#000000"> keys</text>
</g>
<!-- Node17 -->
<g id="node17" class="node">
<title>Node17</title>
<g id="a_node17"><a xlink:title="STL class. ">
<polygon fill="#ffffff" stroke="#bfbfbf" points="174,-196 174,-226 277,-226 277,-196 174,-196"/>
<text text-anchor="start" x="182" y="-214" font-family="Helvetica,sans-Serif" font-size="10.00" fill="#000000">std::unordered_map</text>
<text text-anchor="middle" x="225.5" y="-203" font-family="Helvetica,sans-Serif" font-size="10.00" fill="#000000">&lt; K, T &gt;</text>
</a>
</g>
</g>
<!-- Node9&#45;&gt;Node17 -->
<g id="edge22" class="edge">
<title>Node9&#45;&gt;Node17</title>
<path fill="none" stroke="#9a32cd" stroke-dasharray="5,2" d="M71.7246,-164.349C98.377,-172.4346 141.9363,-185.6492 175.9023,-195.9535"/>
<polygon fill="#9a32cd" stroke="#9a32cd" points="72.6519,-160.9729 62.0665,-161.419 70.6197,-167.6714 72.6519,-160.9729"/>
<text text-anchor="middle" x="134.5" y="-192" font-family="Helvetica,sans-Serif" font-size="10.00" fill="#000000"> keys</text>
</g>
<!-- Node10 -->
<g id="node10" class="node">
<title>Node10</title>
<g id="a_node10"><a xlink:title="STL class. ">
<polygon fill="#ffffff" stroke="#bfbfbf" points="1023,-487.5 1023,-506.5 1128,-506.5 1128,-487.5 1023,-487.5"/>
<text text-anchor="middle" x="1075.5" y="-494.5" font-family="Helvetica,sans-Serif" font-size="10.00" fill="#000000">std::unique_ptr&lt; T &gt;</text>
</a>
</g>
</g>
<!-- Node10&#45;&gt;Node3 -->
<g id="edge11" class="edge">
<title>Node10&#45;&gt;Node3</title>
<path fill="none" stroke="#ffa500" stroke-dasharray="5,2" d="M1122.9773,-508.7046C1135.5813,-511.3095 1149.2378,-513.6862 1162,-515 1224.7793,-521.4627 1240.8913,-515.5519 1304,-515 1380.231,-514.3333 1929.2384,-549.0395 1990,-503 2012.1903,-486.1863 1991.8353,-465.6675 2008,-443 2027.9352,-415.0453 2061.0841,-393.3434 2085.5055,-380.0077"/>
<polygon fill="#ffa500" stroke="#ffa500" points="1123.6449,-505.2682 1113.132,-506.5826 1122.17,-512.111 1123.6449,-505.2682"/>
<text text-anchor="middle" x="1659.5" y="-529" font-family="Helvetica,sans-Serif" font-size="10.00" fill="#000000"> &lt; amr_wind::IOManager &gt;</text>
</g>
<!-- Node12 -->
<g id="node12" class="node">
<title>Node12</title>
<polygon fill="#ffffff" stroke="#bfbfbf" points="2041,-473 2041,-503 2192,-503 2192,-473 2041,-473"/>
<text text-anchor="start" x="2049" y="-491" font-family="Helvetica,sans-Serif" font-size="10.00" fill="#000000">std::unique_ptr&lt; amr</text>
<text text-anchor="middle" x="2116.5" y="-480" font-family="Helvetica,sans-Serif" font-size="10.00" fill="#000000">_wind::PostProcessManager &gt;</text>
</g>
<!-- Node10&#45;&gt;Node12 -->
<g id="edge16" class="edge">
<title>Node10&#45;&gt;Node12</title>
<path fill="none" stroke="#ffa500" stroke-dasharray="5,2" d="M1096.3426,-512.6486C1113.155,-524.4127 1137.8935,-539.8495 1162,-548 1261.0149,-581.4775 1290.9788,-576 1395.5,-576 1395.5,-576 1395.5,-576 1911,-576 1984.158,-576 2060.9972,-528.2882 2096.4318,-503.1277"/>
<polygon fill="#ffa500" stroke="#ffa500" points="1098.0351,-509.5548 1087.8722,-506.5605 1093.9496,-515.2389 1098.0351,-509.5548"/>
<text text-anchor="middle" x="1659.5" y="-579" font-family="Helvetica,sans-Serif" font-size="10.00" fill="#000000"> &lt; amr_wind::PostProcessManager &gt;</text>
</g>
<!-- Node19 -->
<g id="node19" class="node">
<title>Node19</title>
<polygon fill="#ffffff" stroke="#bfbfbf" points="1334.5,-268 1334.5,-298 1456.5,-298 1456.5,-268 1334.5,-268"/>
<text text-anchor="start" x="1342.5" y="-286" font-family="Helvetica,sans-Serif" font-size="10.00" fill="#000000">std::unique_ptr&lt; amr</text>
<text text-anchor="middle" x="1395.5" y="-275" font-family="Helvetica,sans-Serif" font-size="10.00" fill="#000000">_wind::pde::PDEBase &gt;</text>
</g>
<!-- Node10&#45;&gt;Node19 -->
<g id="edge32" class="edge">
<title>Node10&#45;&gt;Node19</title>
<path fill="none" stroke="#ffa500" stroke-dasharray="5,2" d="M1109.9968,-483.1193C1121.7471,-477.2262 1134.3406,-469.4952 1144,-460 1155.6369,-448.5609 1148.5565,-437.2489 1162,-428 1214.56,-391.8396 1255.8412,-448.8432 1304,-407 1325.3378,-388.4605 1306.6381,-369.7281 1322,-346 1334.6958,-326.39 1355.2736,-309.5019 1371.4312,-298.1612"/>
<polygon fill="#ffa500" stroke="#ffa500" points="1108.374,-480.0149 1100.8261,-487.4499 1111.3632,-486.3446 1108.374,-480.0149"/>
<text text-anchor="middle" x="1233" y="-431" font-family="Helvetica,sans-Serif" font-size="10.00" fill="#000000"> &lt; amr_wind::pde::PDEBase &gt;</text>
</g>
<!-- Node24 -->
<g id="node24" class="node">
<title>Node24</title>
<polygon fill="#ffffff" stroke="#bfbfbf" points="1331,-394 1331,-424 1460,-424 1460,-394 1331,-394"/>
<text text-anchor="start" x="1339" y="-412" font-family="Helvetica,sans-Serif" font-size="10.00" fill="#000000">std::unique_ptr&lt; amr</text>
<text text-anchor="middle" x="1395.5" y="-401" font-family="Helvetica,sans-Serif" font-size="10.00" fill="#000000">_wind::OversetManager &gt;</text>
</g>
<!-- Node10&#45;&gt;Node24 -->
<g id="edge38" class="edge">
<title>Node10&#45;&gt;Node24</title>
<path fill="none" stroke="#ffa500" stroke-dasharray="5,2" d="M1104.4372,-483.2752C1120.9652,-475.9523 1142.2685,-467.3687 1162,-462 1223.5596,-445.2505 1242.328,-457.3306 1304,-441 1312.2977,-438.8028 1313.9349,-436.9383 1322,-434 1331.1181,-430.6781 1340.9213,-427.2472 1350.3029,-424.0314"/>
<polygon fill="#ffa500" stroke="#ffa500" points="1102.9734,-480.0959 1095.3056,-487.4073 1105.8592,-486.4733 1102.9734,-480.0959"/>
<text text-anchor="middle" x="1233" y="-465" font-family="Helvetica,sans-Serif" font-size="10.00" fill="#000000"> &lt; amr_wind::OversetManager &gt;</text>
</g>
<!-- Node27 -->
<g id="node27" class="node">
<title>Node27</title>
<polygon fill="#ffffff" stroke="#bfbfbf" points="1322,-443.5 1322,-484.5 1469,-484.5 1469,-443.5 1322,-443.5"/>
<text text-anchor="start" x="1330" y="-472.5" font-family="Helvetica,sans-Serif" font-size="10.00" fill="#000000">std::unique_ptr&lt; amr</text>
<text text-anchor="start" x="1330" y="-461.5" font-family="Helvetica,sans-Serif" font-size="10.00" fill="#000000">_wind::turbulence::Turbulence</text>
<text text-anchor="middle" x="1395.5" y="-450.5" font-family="Helvetica,sans-Serif" font-size="10.00" fill="#000000">Model &gt;</text>
</g>
<!-- Node10&#45;&gt;Node27 -->
<g id="edge43" class="edge">
<title>Node10&#45;&gt;Node27</title>
<path fill="none" stroke="#ffa500" stroke-dasharray="5,2" d="M1138.278,-491.3587C1184.2068,-487.1334 1248.0089,-481.0601 1304,-475 1309.7265,-474.3802 1315.6518,-473.7172 1321.6069,-473.0354"/>
<polygon fill="#ffa500" stroke="#ffa500" points="1137.8137,-487.8865 1128.175,-492.2849 1138.4527,-494.8573 1137.8137,-487.8865"/>
<text text-anchor="start" x="1180" y="-503" font-family="Helvetica,sans-Serif" font-size="10.00" fill="#000000"> &lt; amr_wind::turbulence</text>
<text text-anchor="middle" x="1233" y="-492" font-family="Helvetica,sans-Serif" font-size="10.00" fill="#000000">::TurbulenceModel &gt;</text>
</g>
<!-- Node11 -->
<g id="node11" class="node">
<title>Node11</title>
<polygon fill="#ffffff" stroke="#bfbfbf" points="33,-412.5 33,-431.5 62,-431.5 62,-412.5 33,-412.5"/>
<text text-anchor="middle" x="47.5" y="-419.5" font-family="Helvetica,sans-Serif" font-size="10.00" fill="#000000">T</text>
</g>
<!-- Node11&#45;&gt;Node10 -->
<g id="edge12" class="edge">
<title>Node11&#45;&gt;Node10</title>
<path fill="none" stroke="#9a32cd" stroke-dasharray="5,2" d="M68.7612,-437.5457C100.9657,-459.5145 164.8088,-497 225.5,-497 225.5,-497 225.5,-497 779,-497 864.321,-497 963.4524,-497 1022.7438,-497"/>
<polygon fill="#9a32cd" stroke="#9a32cd" points="70.7476,-434.6639 60.5458,-431.8049 66.738,-440.4019 70.7476,-434.6639"/>
<text text-anchor="middle" x="465.5" y="-500" font-family="Helvetica,sans-Serif" font-size="10.00" fill="#000000"> ptr</text>
</g>
<!-- Node11&#45;&gt;Node17 -->
<g id="edge23" class="edge">
<title>Node11&#45;&gt;Node17</title>
<path fill="none" stroke="#9a32cd" stroke-dasharray="5,2" d="M62.0858,-404.7101C96.1858,-364.2882 180.6605,-264.1524 212.8058,-226.0477"/>
<polygon fill="#9a32cd" stroke="#9a32cd" points="59.3837,-402.4852 55.6108,-412.3855 64.7341,-406.9988 59.3837,-402.4852"/>
<text text-anchor="middle" x="134.5" y="-345" font-family="Helvetica,sans-Serif" font-size="10.00" fill="#000000"> elements</text>
</g>
<!-- Node12&#45;&gt;Node2 -->
<g id="edge13" class="edge">
<title>Node12&#45;&gt;Node2</title>
<path fill="none" stroke="#9a32cd" stroke-dasharray="5,2" d="M2030.4986,-490.114C1954.8972,-488.5178 1843.9883,-477.5577 1759,-433 1725.4595,-415.4154 1689.608,-388.7038 1671.48,-374.5617"/>
<polygon fill="#9a32cd" stroke="#9a32cd" points="2030.8713,-493.6202 2040.9256,-490.2796 2030.9825,-486.6211 2030.8713,-493.6202"/>
<text text-anchor="middle" x="1911" y="-491" font-family="Helvetica,sans-Serif" font-size="10.00" fill="#000000"> m_post_mgr</text>
</g>
<!-- Node13&#45;&gt;Node12 -->
<g id="edge14" class="edge">
<title>Node13&#45;&gt;Node12</title>
<path fill="none" stroke="#9a32cd" stroke-dasharray="5,2" d="M1968.6298,-416.1566C1975.9037,-418.1875 1983.1808,-420.4695 1990,-423 2026.8068,-436.6586 2066.6909,-458.4249 2091.6313,-472.9587"/>
<polygon fill="#9a32cd" stroke="#9a32cd" points="1969.3188,-412.7186 1958.7561,-413.5432 1967.5276,-419.4855 1969.3188,-412.7186"/>
<text text-anchor="middle" x="2015.5" y="-439" font-family="Helvetica,sans-Serif" font-size="10.00" fill="#000000"> ptr</text>
</g>
<!-- Node14&#45;&gt;Node2 -->
<g id="edge17" class="edge">
<title>Node14&#45;&gt;Node2</title>
<path fill="none" stroke="#9a32cd" stroke-dasharray="5,2" d="M1838.6148,-283.3499C1812.9417,-288.6306 1784.1856,-296.0092 1759,-306 1725.9581,-319.1073 1691.0417,-342.2941 1672.6383,-355.3566"/>
<polygon fill="#9a32cd" stroke="#9a32cd" points="1839.5326,-286.7361 1848.6601,-281.3566 1838.1701,-279.87 1839.5326,-286.7361"/>
<text text-anchor="middle" x="1786.5" y="-309" font-family="Helvetica,sans-Serif" font-size="10.00" fill="#000000"> m_pde_mgr</text>
</g>
<!-- Node15 -->
<g id="node15" class="node">
<title>Node15</title>
<g id="a_node15"><a xlink:href="classamr__wind_1_1_coll_mgr.html" target="_top" xlink:title="amr_wind::CollMgr\&lt;\l PDEMgr, PDEBase \&gt;">
<polygon fill="#ffffff" stroke="#000000" points="1017.5,-175 1017.5,-205 1133.5,-205 1133.5,-175 1017.5,-175"/>
<text text-anchor="start" x="1025.5" y="-193" font-family="Helvetica,sans-Serif" font-size="10.00" fill="#000000">amr_wind::CollMgr&lt;</text>
<text text-anchor="middle" x="1075.5" y="-182" font-family="Helvetica,sans-Serif" font-size="10.00" fill="#000000"> PDEMgr, PDEBase &gt;</text>
</a>
</g>
</g>
<!-- Node15&#45;&gt;Node14 -->
<g id="edge18" class="edge">
<title>Node15&#45;&gt;Node14</title>
<path fill="none" stroke="#191970" d="M1143.8147,-194.355C1222.3562,-199.56 1355.1134,-208.9642 1469,-220 1604.7375,-233.1532 1763.4085,-252.8873 1848.8676,-263.8756"/>
<polygon fill="#191970" stroke="#191970" points="1143.7788,-190.8451 1133.5702,-193.6796 1143.3182,-197.83 1143.7788,-190.8451"/>
</g>
<!-- Node16&#45;&gt;Node15 -->
<g id="edge19" class="edge">
<title>Node16&#45;&gt;Node15</title>
<path fill="none" stroke="#9a32cd" stroke-dasharray="5,2" d="M527.0424,-168.0541C604.035,-158.0872 739.882,-144.541 856,-154 911.0397,-158.4836 973.0796,-169.1911 1017.1254,-177.7703"/>
<polygon fill="#9a32cd" stroke="#9a32cd" points="526.4922,-164.5963 517.0351,-169.3725 527.4066,-171.5363 526.4922,-164.5963"/>
<text text-anchor="middle" x="779" y="-157" font-family="Helvetica,sans-Serif" font-size="10.00" fill="#000000"> m_obj_map</text>
</g>
<!-- Node18 -->
<g id="node18" class="node">
<title>Node18</title>
<g id="a_node18"><a xlink:href="classamr__wind_1_1_coll_mgr.html" target="_top" xlink:title="Interface to manage objects of sub&#45;classes based on factory registrationProvides boiler&#45;plate code to...">
<polygon fill="#ffffff" stroke="#000000" points="719.5,-174.5 719.5,-215.5 838.5,-215.5 838.5,-174.5 719.5,-174.5"/>
<text text-anchor="start" x="727.5" y="-203.5" font-family="Helvetica,sans-Serif" font-size="10.00" fill="#000000">amr_wind::CollMgr&lt;</text>
<text text-anchor="start" x="727.5" y="-192.5" font-family="Helvetica,sans-Serif" font-size="10.00" fill="#000000"> Collection, Type, allow</text>
<text text-anchor="middle" x="779" y="-181.5" font-family="Helvetica,sans-Serif" font-size="10.00" fill="#000000">_duplicates &gt;</text>
</a>
</g>
</g>
<!-- Node16&#45;&gt;Node18 -->
<g id="edge25" class="edge">
<title>Node16&#45;&gt;Node18</title>
<path fill="none" stroke="#9a32cd" stroke-dasharray="5,2" d="M527.3584,-180.5517C583.0595,-183.7498 664.3931,-188.4197 719.3904,-191.5774"/>
<polygon fill="#9a32cd" stroke="#9a32cd" points="527.4524,-177.0514 517.2681,-179.9723 527.051,-184.0399 527.4524,-177.0514"/>
<text text-anchor="middle" x="611.5" y="-193" font-family="Helvetica,sans-Serif" font-size="10.00" fill="#000000"> m_obj_map</text>
</g>
<!-- Node33 -->
<g id="node33" class="node">
<title>Node33</title>
<g id="a_node33"><a xlink:href="classamr__wind_1_1_coll_mgr.html" target="_top" xlink:title="amr_wind::CollMgr\&lt;\l PhysicsMgr, Physics \&gt;">
<polygon fill="#ffffff" stroke="#000000" points="1014.5,-224 1014.5,-254 1136.5,-254 1136.5,-224 1014.5,-224"/>
<text text-anchor="start" x="1022.5" y="-242" font-family="Helvetica,sans-Serif" font-size="10.00" fill="#000000">amr_wind::CollMgr&lt;</text>
<text text-anchor="middle" x="1075.5" y="-231" font-family="Helvetica,sans-Serif" font-size="10.00" fill="#000000"> PhysicsMgr, Physics &gt;</text>
</a>
</g>
</g>
<!-- Node16&#45;&gt;Node33 -->
<g id="edge50" class="edge">
<title>Node16&#45;&gt;Node33</title>
<path fill="none" stroke="#9a32cd" stroke-dasharray="5,2" d="M509.1569,-195.6106C518.8437,-199.1801 529.1591,-202.5601 539,-205 707.2644,-246.7186 913.802,-245.7965 1014.4849,-242.1489"/>
<polygon fill="#9a32cd" stroke="#9a32cd" points="510.311,-192.3048 499.7204,-192.0057 507.8129,-198.8439 510.311,-192.3048"/>
<text text-anchor="middle" x="779" y="-246" font-family="Helvetica,sans-Serif" font-size="10.00" fill="#000000"> m_obj_map</text>
</g>
<!-- Node17&#45;&gt;Node16 -->
<g id="edge21" class="edge">
<title>Node17&#45;&gt;Node16</title>
<path fill="none" stroke="#ffa500" stroke-dasharray="5,2" d="M259.4855,-191.2331C270.4567,-185.8573 282.9143,-180.7608 295,-178 334.1024,-169.0676 379.5777,-169.3108 413.7248,-171.5189"/>
<polygon fill="#ffa500" stroke="#ffa500" points="257.5611,-188.2872 250.2734,-195.9774 260.7662,-194.5104 257.5611,-188.2872"/>
<text text-anchor="middle" x="343.5" y="-181" font-family="Helvetica,sans-Serif" font-size="10.00" fill="#000000"> &lt; std::string, int &gt;</text>
</g>
<!-- Node17&#45;&gt;Node31 -->
<g id="edge47" class="edge">
<title>Node17&#45;&gt;Node31</title>
<path fill="none" stroke="#ffa500" stroke-dasharray="5,2" d="M286.9654,-221.7575C289.679,-222.1867 292.3666,-222.6029 295,-223 333.3663,-228.7847 376.7342,-234.3676 410.1304,-238.4618"/>
<polygon fill="#ffa500" stroke="#ffa500" points="287.5071,-218.2997 277.0763,-220.1572 286.3888,-225.2098 287.5071,-218.2997"/>
<text text-anchor="middle" x="343.5" y="-240" font-family="Helvetica,sans-Serif" font-size="10.00" fill="#000000"> &lt; std::string, size_t &gt;</text>
</g>
<!-- Node18&#45;&gt;Node15 -->
<g id="edge24" class="edge">
<title>Node18&#45;&gt;Node15</title>
<path fill="none" stroke="#ffa500" stroke-dasharray="5,2" d="M848.5475,-193.4865C857.1197,-193.3145 865.7607,-193.1481 874,-193 922.2736,-192.1325 977.0558,-191.3285 1017.3017,-190.7716"/>
<polygon fill="#ffa500" stroke="#ffa500" points="848.4708,-189.9872 838.5442,-193.6902 848.6134,-196.9858 848.4708,-189.9872"/>
<text text-anchor="middle" x="931.5" y="-196" font-family="Helvetica,sans-Serif" font-size="10.00" fill="#000000"> &lt; PDEMgr, PDEBase &gt;</text>
</g>
<!-- Node18&#45;&gt;Node33 -->
<g id="edge51" class="edge">
<title>Node18&#45;&gt;Node33</title>
<path fill="none" stroke="#ffa500" stroke-dasharray="5,2" d="M848.7839,-205.3558C899.0642,-212.8173 966.2619,-222.7893 1014.4231,-229.9363"/>
<polygon fill="#ffa500" stroke="#ffa500" points="849.05,-201.857 838.6445,-203.8511 848.0224,-208.7812 849.05,-201.857"/>
<text text-anchor="middle" x="931.5" y="-229" font-family="Helvetica,sans-Serif" font-size="10.00" fill="#000000"> &lt; PhysicsMgr, Physics &gt;</text>
</g>
<!-- Node19&#45;&gt;Node14 -->
<g id="edge28" class="edge">
<title>Node19&#45;&gt;Node14</title>
<path fill="none" stroke="#9a32cd" stroke-dasharray="5,2" d="M1466.8086,-281.4784C1568.2317,-279.3142 1752.4938,-275.3823 1848.7164,-273.329"/>
<polygon fill="#9a32cd" stroke="#9a32cd" points="1466.582,-277.9823 1456.659,-281.695 1466.7314,-284.9807 1466.582,-277.9823"/>
<text text-anchor="middle" x="1659.5" y="-282" font-family="Helvetica,sans-Serif" font-size="10.00" fill="#000000"> m_icns</text>
</g>
<!-- Node20 -->
<g id="node20" class="node">
<title>Node20</title>
<g id="a_node20"><a xlink:href="classamr__wind_1_1pde_1_1_p_d_e_base.html" target="_top" xlink:title="Abstract interface defining a PDE and its solution process withn AMR&#45;WindThe exact behavior is implem...">
<polygon fill="#ffffff" stroke="#000000" points="1010.5,-276.5 1010.5,-295.5 1140.5,-295.5 1140.5,-276.5 1010.5,-276.5"/>
<text text-anchor="middle" x="1075.5" y="-283.5" font-family="Helvetica,sans-Serif" font-size="10.00" fill="#000000">amr_wind::pde::PDEBase</text>
</a>
</g>
</g>
<!-- Node20&#45;&gt;Node19 -->
<g id="edge29" class="edge">
<title>Node20&#45;&gt;Node19</title>
<path fill="none" stroke="#9a32cd" stroke-dasharray="5,2" d="M1150.8459,-285.2936C1206.7512,-284.7695 1282.0219,-284.0639 1334.2459,-283.5743"/>
<polygon fill="#9a32cd" stroke="#9a32cd" points="1150.6092,-281.7956 1140.6425,-285.3893 1150.6749,-288.7953 1150.6092,-281.7956"/>
<text text-anchor="middle" x="1233" y="-289" font-family="Helvetica,sans-Serif" font-size="10.00" fill="#000000"> ptr</text>
</g>
<!-- Node21 -->
<g id="node21" class="node">
<title>Node21</title>
<g id="a_node21"><a xlink:href="structamr__wind_1_1_factory.html" target="_top" xlink:title="amr_wind::Factory\&lt;\l PDEBase, CFDSim &amp;,\l const int \&gt;">
<polygon fill="#ffffff" stroke="#000000" points="719,-281.5 719,-322.5 839,-322.5 839,-281.5 719,-281.5"/>
<text text-anchor="start" x="727" y="-310.5" font-family="Helvetica,sans-Serif" font-size="10.00" fill="#000000">amr_wind::Factory&lt;</text>
<text text-anchor="start" x="727" y="-299.5" font-family="Helvetica,sans-Serif" font-size="10.00" fill="#000000"> PDEBase, CFDSim &amp;,</text>
<text text-anchor="middle" x="779" y="-288.5" font-family="Helvetica,sans-Serif" font-size="10.00" fill="#000000"> const int &gt;</text>
</a>
</g>
</g>
<!-- Node21&#45;&gt;Node20 -->
<g id="edge30" class="edge">
<title>Node21&#45;&gt;Node20</title>
<path fill="none" stroke="#191970" d="M849.1762,-298.2131C898.0404,-295.5762 962.7391,-292.0849 1010.4433,-289.5106"/>
<polygon fill="#191970" stroke="#191970" points="848.798,-294.7283 839.0012,-298.7622 849.1753,-301.7181 848.798,-294.7283"/>
</g>
<!-- Node22 -->
<g id="node22" class="node">
<title>Node22</title>
<g id="a_node22"><a xlink:href="structamr__wind_1_1_factory.html" target="_top" xlink:title="Runtime selection of options based on string keyword lookupFactory provides an automated way to regis...">
<polygon fill="#ffffff" stroke="#000000" points="413.5,-407 413.5,-437 517.5,-437 517.5,-407 413.5,-407"/>
<text text-anchor="start" x="421.5" y="-425" font-family="Helvetica,sans-Serif" font-size="10.00" fill="#000000">amr_wind::Factory&lt;</text>
<text text-anchor="middle" x="465.5" y="-414" font-family="Helvetica,sans-Serif" font-size="10.00" fill="#000000"> Base, Args &gt;</text>
</a>
</g>
</g>
<!-- Node22&#45;&gt;Node21 -->
<g id="edge31" class="edge">
<title>Node22&#45;&gt;Node21</title>
<path fill="none" stroke="#ffa500" stroke-dasharray="5,2" d="M496.8197,-401.5094C509.4734,-394.0482 524.4953,-386.1819 539,-381 600.6557,-358.9729 622.3449,-377.0288 684,-355 706.587,-346.9299 730.1438,-333.8231 748.1494,-322.663"/>
<polygon fill="#ffa500" stroke="#ffa500" points="494.7955,-398.6438 488.0656,-406.8266 498.4295,-404.6266 494.7955,-398.6438"/>
<text text-anchor="start" x="555" y="-395" font-family="Helvetica,sans-Serif" font-size="10.00" fill="#000000"> &lt; PDEBase, CFDSim &amp;,</text>
<text text-anchor="middle" x="611.5" y="-384" font-family="Helvetica,sans-Serif" font-size="10.00" fill="#000000"> const int &gt;</text>
</g>
<!-- Node26 -->
<g id="node26" class="node">
<title>Node26</title>
<g id="a_node26"><a xlink:href="structamr__wind_1_1_factory.html" target="_top" xlink:title="amr_wind::Factory\&lt;\l OversetManager, CFDSim &amp;\&gt;">
<polygon fill="#ffffff" stroke="#000000" points="703,-385 703,-415 855,-415 855,-385 703,-385"/>
<text text-anchor="start" x="711" y="-403" font-family="Helvetica,sans-Serif" font-size="10.00" fill="#000000">amr_wind::Factory&lt;</text>
<text text-anchor="middle" x="779" y="-392" font-family="Helvetica,sans-Serif" font-size="10.00" fill="#000000"> OversetManager, CFDSim &amp;&gt;</text>
</a>
</g>
</g>
<!-- Node22&#45;&gt;Node26 -->
<g id="edge37" class="edge">
<title>Node22&#45;&gt;Node26</title>
<path fill="none" stroke="#ffa500" stroke-dasharray="5,2" d="M527.7209,-417.6336C578.0849,-414.0993 649.2296,-409.1067 702.9678,-405.3356"/>
<polygon fill="#ffa500" stroke="#ffa500" points="527.3505,-414.1509 517.6201,-418.3425 527.8406,-421.1337 527.3505,-414.1509"/>
<text text-anchor="middle" x="611.5" y="-419" font-family="Helvetica,sans-Serif" font-size="10.00" fill="#000000"> &lt; OversetManager, CFDSim &amp;&gt;</text>
</g>
<!-- Node29 -->
<g id="node29" class="node">
<title>Node29</title>
<g id="a_node29"><a xlink:href="structamr__wind_1_1_factory.html" target="_top" xlink:title="amr_wind::Factory\&lt;\l TurbulenceModel, CFDSim &amp;\&gt;">
<polygon fill="#ffffff" stroke="#000000" points="702,-437 702,-467 856,-467 856,-437 702,-437"/>
<text text-anchor="start" x="710" y="-455" font-family="Helvetica,sans-Serif" font-size="10.00" fill="#000000">amr_wind::Factory&lt;</text>
<text text-anchor="middle" x="779" y="-444" font-family="Helvetica,sans-Serif" font-size="10.00" fill="#000000"> TurbulenceModel, CFDSim &amp;&gt;</text>
</a>
</g>
</g>
<!-- Node22&#45;&gt;Node29 -->
<g id="edge42" class="edge">
<title>Node22&#45;&gt;Node29</title>
<path fill="none" stroke="#ffa500" stroke-dasharray="5,2" d="M527.7623,-429.7758C531.5634,-430.2034 535.3322,-430.6151 539,-431 593.3887,-436.7077 654.826,-442.0631 701.9242,-445.9371"/>
<polygon fill="#ffa500" stroke="#ffa500" points="528.0073,-426.281 517.6726,-428.6142 527.2066,-433.2351 528.0073,-426.281"/>
<text text-anchor="start" x="566.5" y="-458" font-family="Helvetica,sans-Serif" font-size="10.00" fill="#000000"> &lt; TurbulenceModel,</text>
<text text-anchor="middle" x="611.5" y="-447" font-family="Helvetica,sans-Serif" font-size="10.00" fill="#000000"> CFDSim &amp;&gt;</text>
</g>
<!-- Node23 -->
<g id="node23" class="node">
<title>Node23</title>
<g id="a_node23"><a xlink:href="classamr__wind_1_1_sim_time.html" target="_top" xlink:title="Time manager for simulations. ">
<polygon fill="#ffffff" stroke="#000000" points="1343.5,-355.5 1343.5,-374.5 1447.5,-374.5 1447.5,-355.5 1343.5,-355.5"/>
<text text-anchor="middle" x="1395.5" y="-362.5" font-family="Helvetica,sans-Serif" font-size="10.00" fill="#000000">amr_wind::SimTime</text>
</a>
</g>
</g>
<!-- Node23&#45;&gt;Node2 -->
<g id="edge33" class="edge">
<title>Node23&#45;&gt;Node2</title>
<path fill="none" stroke="#9a32cd" stroke-dasharray="5,2" d="M1457.7508,-365C1503.4845,-365 1564.8902,-365 1607.9003,-365"/>
<polygon fill="#9a32cd" stroke="#9a32cd" points="1457.6579,-361.5001 1447.6579,-365 1457.6579,-368.5001 1457.6579,-361.5001"/>
<text text-anchor="middle" x="1523.5" y="-368" font-family="Helvetica,sans-Serif" font-size="10.00" fill="#000000"> m_time</text>
</g>
<!-- Node24&#45;&gt;Node2 -->
<g id="edge34" class="edge">
<title>Node24&#45;&gt;Node2</title>
<path fill="none" stroke="#9a32cd" stroke-dasharray="5,2" d="M1470.1602,-396.5566C1514.1635,-389.2227 1568.7191,-380.1302 1607.9493,-373.5918"/>
<polygon fill="#9a32cd" stroke="#9a32cd" points="1469.3702,-393.1399 1460.0817,-398.2364 1470.521,-400.0447 1469.3702,-393.1399"/>
<text text-anchor="middle" x="1523.5" y="-397" font-family="Helvetica,sans-Serif" font-size="10.00" fill="#000000"> m_overset_mgr</text>
</g>
<!-- Node25 -->
<g id="node25" class="node">
<title>Node25</title>
<g id="a_node25"><a xlink:href="classamr__wind_1_1_overset_manager.html" target="_top" xlink:title="Overset interface manager. ">
<polygon fill="#ffffff" stroke="#000000" points="1007,-367.5 1007,-386.5 1144,-386.5 1144,-367.5 1007,-367.5"/>
<text text-anchor="middle" x="1075.5" y="-374.5" font-family="Helvetica,sans-Serif" font-size="10.00" fill="#000000">amr_wind::OversetManager</text>
</a>
</g>
</g>
<!-- Node25&#45;&gt;Node24 -->
<g id="edge35" class="edge">
<title>Node25&#45;&gt;Node24</title>
<path fill="none" stroke="#9a32cd" stroke-dasharray="5,2" d="M1113.469,-364.6064C1160.4298,-351.5185 1241.7785,-336.2889 1304,-364 1314.9243,-368.8653 1312.0161,-377.4171 1322,-384 1327.7388,-387.7839 1334.1081,-391.0523 1340.629,-393.8605"/>
<polygon fill="#9a32cd" stroke="#9a32cd" points="1112.3388,-361.2898 1103.7082,-367.435 1114.2873,-368.0132 1112.3388,-361.2898"/>
<text text-anchor="middle" x="1233" y="-367" font-family="Helvetica,sans-Serif" font-size="10.00" fill="#000000"> ptr</text>
</g>
<!-- Node26&#45;&gt;Node25 -->
<g id="edge36" class="edge">
<title>Node26&#45;&gt;Node25</title>
<path fill="none" stroke="#191970" d="M865.415,-393.2966C910.4925,-389.7999 964.8626,-385.5823 1006.9969,-382.3139"/>
<polygon fill="#191970" stroke="#191970" points="865.0554,-389.8139 855.3561,-394.0769 865.5969,-396.793 865.0554,-389.8139"/>
</g>
<!-- Node27&#45;&gt;Node2 -->
<g id="edge39" class="edge">
<title>Node27&#45;&gt;Node2</title>
<path fill="none" stroke="#9a32cd" stroke-dasharray="5,2" d="M1471.3904,-440.273C1499.4398,-431.0727 1531.3644,-420.0905 1560,-409 1587.8287,-398.222 1619.2079,-383.9876 1639.1545,-374.6688"/>
<polygon fill="#9a32cd" stroke="#9a32cd" points="1470.0654,-437.0236 1461.6423,-443.4502 1472.2347,-443.679 1470.0654,-437.0236"/>
<text text-anchor="middle" x="1523.5" y="-437" font-family="Helvetica,sans-Serif" font-size="10.00" fill="#000000"> m_turbulence</text>
</g>
<!-- Node28 -->
<g id="node28" class="node">
<title>Node28</title>
<g id="a_node28"><a xlink:href="classamr__wind_1_1turbulence_1_1_turbulence_model.html" target="_top" xlink:title="Abstract representation of a turbulence modelThis class is an abstract representation of a turbulence...">
<polygon fill="#ffffff" stroke="#000000" points="1020.5,-420 1020.5,-450 1130.5,-450 1130.5,-420 1020.5,-420"/>
<text text-anchor="start" x="1028.5" y="-438" font-family="Helvetica,sans-Serif" font-size="10.00" fill="#000000">amr_wind::turbulence</text>
<text text-anchor="middle" x="1075.5" y="-427" font-family="Helvetica,sans-Serif" font-size="10.00" fill="#000000">::TurbulenceModel</text>
</a>
</g>
</g>
<!-- Node28&#45;&gt;Node27 -->
<g id="edge40" class="edge">
<title>Node28&#45;&gt;Node27</title>
<path fill="none" stroke="#9a32cd" stroke-dasharray="5,2" d="M1110.3806,-415.1529C1157.8917,-391.029 1243.9042,-357.9695 1304,-396 1319.7914,-405.9933 1308.4283,-421.153 1322,-434 1325.7034,-437.5057 1329.8717,-440.6246 1334.293,-443.3955"/>
<polygon fill="#9a32cd" stroke="#9a32cd" points="1108.6563,-412.1048 1101.4109,-419.8349 1111.8954,-418.3103 1108.6563,-412.1048"/>
<text text-anchor="middle" x="1233" y="-399" font-family="Helvetica,sans-Serif" font-size="10.00" fill="#000000"> ptr</text>
</g>
<!-- Node29&#45;&gt;Node28 -->
<g id="edge41" class="edge">
<title>Node29&#45;&gt;Node28</title>
<path fill="none" stroke="#191970" d="M866.2586,-446.997C916.0875,-444.14 977.0504,-440.6447 1020.29,-438.1655"/>
<polygon fill="#191970" stroke="#191970" points="865.9111,-443.5111 856.1279,-447.5778 866.3119,-450.4996 865.9111,-443.5111"/>
</g>
<!-- Node30 -->
<g id="node30" class="node">
<title>Node30</title>
<g id="a_node30"><a xlink:href="classamr__wind_1_1_field_repo.html" target="_top" xlink:title="Field RepositoryFieldRepo is a database that manages handling of fields used during a simulation...">
<polygon fill="#ffffff" stroke="#000000" points="877,-329.5 877,-348.5 986,-348.5 986,-329.5 877,-329.5"/>
<text text-anchor="middle" x="931.5" y="-336.5" font-family="Helvetica,sans-Serif" font-size="10.00" fill="#000000">amr_wind::FieldRepo</text>
</a>
</g>
</g>
<!-- Node30&#45;&gt;Node2 -->
<g id="edge44" class="edge">
<title>Node30&#45;&gt;Node2</title>
<path fill="none" stroke="#9a32cd" stroke-dasharray="5,2" d="M996.6175,-337.211C1042.7803,-336.0348 1106.1847,-334.6053 1162,-334 1225.1074,-333.3156 1240.9305,-331.7096 1304,-334 1377.4786,-336.6684 1395.7447,-339.6842 1469,-346 1516.0221,-350.0541 1569.4918,-355.4566 1607.7885,-359.4642"/>
<polygon fill="#9a32cd" stroke="#9a32cd" points="996.3567,-333.7165 986.4503,-337.4731 996.5371,-340.7142 996.3567,-333.7165"/>
<text text-anchor="middle" x="1233" y="-337" font-family="Helvetica,sans-Serif" font-size="10.00" fill="#000000"> m_repo</text>
</g>
<!-- Node31&#45;&gt;Node30 -->
<g id="edge45" class="edge">
<title>Node31&#45;&gt;Node30</title>
<path fill="none" stroke="#9a32cd" stroke-dasharray="5,2" d="M505.6645,-264.3265C551.8188,-285.447 630.4264,-318.1239 702,-332 760.8961,-343.4183 829.862,-343.8305 876.7024,-342.231"/>
<polygon fill="#9a32cd" stroke="#9a32cd" points="506.868,-261.027 496.3224,-260.006 503.9296,-267.3804 506.868,-261.027"/>
<text text-anchor="middle" x="611.5" y="-342" font-family="Helvetica,sans-Serif" font-size="10.00" fill="#000000"> m_fid_map</text>
<text text-anchor="middle" x="611.5" y="-331" font-family="Helvetica,sans-Serif" font-size="10.00" fill="#000000">m_int_fid_map</text>
</g>
<!-- Node32 -->
<g id="node32" class="node">
<title>Node32</title>
<g id="a_node32"><a xlink:href="classamr__wind_1_1_physics_mgr.html" target="_top" xlink:title="A collection of Physics models instances that are active during a simulation. ">
<polygon fill="#ffffff" stroke="#000000" points="1337.5,-229.5 1337.5,-248.5 1453.5,-248.5 1453.5,-229.5 1337.5,-229.5"/>
<text text-anchor="middle" x="1395.5" y="-236.5" font-family="Helvetica,sans-Serif" font-size="10.00" fill="#000000">amr_wind::PhysicsMgr</text>
</a>
</g>
</g>
<!-- Node32&#45;&gt;Node2 -->
<g id="edge48" class="edge">
<title>Node32&#45;&gt;Node2</title>
<path fill="none" stroke="#9a32cd" stroke-dasharray="5,2" d="M1447.9652,-251.2057C1455.1027,-253.2595 1462.2798,-255.5342 1469,-258 1539.8665,-284.0025 1615.6699,-334.2354 1645.9128,-355.3157"/>
<polygon fill="#9a32cd" stroke="#9a32cd" points="1448.8737,-247.8257 1438.3033,-248.5449 1447.0151,-254.5745 1448.8737,-247.8257"/>
<text text-anchor="middle" x="1523.5" y="-302" font-family="Helvetica,sans-Serif" font-size="10.00" fill="#000000"> m_physics_mgr</text>
</g>
<!-- Node33&#45;&gt;Node32 -->
<g id="edge49" class="edge">
<title>Node33&#45;&gt;Node32</title>
<path fill="none" stroke="#191970" d="M1146.9031,-239C1204.2689,-239 1283.8255,-239 1337.3522,-239"/>
<polygon fill="#191970" stroke="#191970" points="1146.8206,-235.5001 1136.8206,-239 1146.8206,-242.5001 1146.8206,-235.5001"/>
</g>
<!-- Node34 -->
<g id="node34" class="node">
<title>Node34</title>
<g id="a_node34"><a xlink:href="structamr__wind_1_1_m_o_data.html" target="_top" xlink:title="amr_wind::MOData">
<polygon fill="#ffffff" stroke="#000000" points="1609,-473.5 1609,-492.5 1710,-492.5 1710,-473.5 1609,-473.5"/>
<text text-anchor="middle" x="1659.5" y="-480.5" font-family="Helvetica,sans-Serif" font-size="10.00" fill="#000000">amr_wind::MOData</text>
</a>
</g>
</g>
<!-- Node34&#45;&gt;Node1 -->
<g id="edge52" class="edge">
<title>Node34&#45;&gt;Node1</title>
<path fill="none" stroke="#9a32cd" stroke-dasharray="5,2" d="M1720.0365,-473.1312C1760.2533,-466.575 1812.7738,-458.013 1852.5543,-451.5279"/>
<polygon fill="#9a32cd" stroke="#9a32cd" points="1719.3988,-469.6889 1710.0922,-474.7524 1720.5251,-476.5977 1719.3988,-469.6889"/>
<text text-anchor="middle" x="1786.5" y="-469" font-family="Helvetica,sans-Serif" font-size="10.00" fill="#000000"> m_mo</text>
</g>
</g>
</svg>
