<?xml version="1.0" encoding="UTF-8" standalone="no"?>
<!DOCTYPE svg PUBLIC "-//W3C//DTD SVG 1.1//EN"
 "http://www.w3.org/Graphics/SVG/1.1/DTD/svg11.dtd">
<!-- Generated by graphviz version 2.40.1 (20161225.0304)
 -->
<!-- Title: diffusion.H Pages: 1 -->
<svg width="1059pt" height="308pt"
 viewBox="0.00 0.00 1058.50 308.00" xmlns="http://www.w3.org/2000/svg" xmlns:xlink="http://www.w3.org/1999/xlink">
<g id="graph0" class="graph" transform="scale(1 1) rotate(0) translate(4 304)">
<title>diffusion.H</title>
<polygon fill="#ffffff" stroke="transparent" points="-4,4 -4,-304 1054.5,-304 1054.5,4 -4,4"/>
<!-- Node21 -->
<g id="node1" class="node">
<title>Node21</title>
<polygon fill="#bfbfbf" stroke="#000000" points="338.5,-280.5 338.5,-299.5 402.5,-299.5 402.5,-280.5 338.5,-280.5"/>
<text text-anchor="middle" x="370.5" y="-287.5" font-family="Helvetica,sans-Serif" font-size="10.00" fill="#000000">diffusion.H</text>
</g>
<!-- Node22 -->
<g id="node2" class="node">
<title>Node22</title>
<g id="a_node2"><a xlink:href="incflo__diffusion_8cpp.html" target="_top" xlink:title="incflo_diffusion.cpp">
<polygon fill="#ffffff" stroke="#000000" points="154,-224.5 154,-243.5 255,-243.5 255,-224.5 154,-224.5"/>
<text text-anchor="middle" x="204.5" y="-231.5" font-family="Helvetica,sans-Serif" font-size="10.00" fill="#000000">incflo_diffusion.cpp</text>
</a>
</g>
</g>
<!-- Node21&#45;&gt;Node22 -->
<g id="edge1" class="edge">
<title>Node21&#45;&gt;Node22</title>
<path fill="none" stroke="#191970" d="M332.1333,-277.057C301.7534,-266.8084 260.0181,-252.729 232.664,-243.5011"/>
<polygon fill="#191970" stroke="#191970" points="331.3694,-280.4931 341.9636,-280.3733 333.607,-273.8603 331.3694,-280.4931"/>
</g>
<!-- Node23 -->
<g id="node3" class="node">
<title>Node23</title>
<g id="a_node3"><a xlink:href="_diffusion_ops_8_h.html" target="_top" xlink:title="DiffusionOps.H">
<polygon fill="#ffffff" stroke="#000000" points="273.5,-224.5 273.5,-243.5 357.5,-243.5 357.5,-224.5 273.5,-224.5"/>
<text text-anchor="middle" x="315.5" y="-231.5" font-family="Helvetica,sans-Serif" font-size="10.00" fill="#000000">DiffusionOps.H</text>
</a>
</g>
</g>
<!-- Node21&#45;&gt;Node23 -->
<g id="edge2" class="edge">
<title>Node21&#45;&gt;Node23</title>
<path fill="none" stroke="#191970" d="M353.8774,-273.0751C344.4145,-263.4402 332.9031,-251.7196 324.9705,-243.6427"/>
<polygon fill="#191970" stroke="#191970" points="351.4155,-275.5635 360.9197,-280.2455 356.4097,-270.6585 351.4155,-275.5635"/>
</g>
<!-- Node46 -->
<g id="node26" class="node">
<title>Node46</title>
<g id="a_node26"><a xlink:href="incflo__advance_8cpp.html" target="_top" xlink:title="incflo_advance.cpp">
<polygon fill="#ffffff" stroke="#000000" points="376,-224.5 376,-243.5 477,-243.5 477,-224.5 376,-224.5"/>
<text text-anchor="middle" x="426.5" y="-231.5" font-family="Helvetica,sans-Serif" font-size="10.00" fill="#000000">incflo_advance.cpp</text>
</a>
</g>
</g>
<!-- Node21&#45;&gt;Node46 -->
<g id="edge32" class="edge">
<title>Node21&#45;&gt;Node46</title>
<path fill="none" stroke="#191970" d="M387.4249,-273.0751C397.0598,-263.4402 408.7804,-251.7196 416.8573,-243.6427"/>
<polygon fill="#191970" stroke="#191970" points="384.8507,-270.6996 380.2545,-280.2455 389.8004,-275.6493 384.8507,-270.6996"/>
</g>
<!-- Node47 -->
<g id="node27" class="node">
<title>Node47</title>
<g id="a_node27"><a xlink:href="_a_b_l_wall_function_8cpp.html" target="_top" xlink:title="ABLWallFunction.cpp">
<polygon fill="#ffffff" stroke="#000000" points="495,-224.5 495,-243.5 606,-243.5 606,-224.5 495,-224.5"/>
<text text-anchor="middle" x="550.5" y="-231.5" font-family="Helvetica,sans-Serif" font-size="10.00" fill="#000000">ABLWallFunction.cpp</text>
</a>
</g>
</g>
<!-- Node21&#45;&gt;Node47 -->
<g id="edge33" class="edge">
<title>Node21&#45;&gt;Node47</title>
<path fill="none" stroke="#191970" d="M411.2459,-277.3235C444.2563,-267.0536 490.0417,-252.8093 519.9607,-243.5011"/>
<polygon fill="#191970" stroke="#191970" points="409.9519,-274.0605 401.4431,-280.3733 412.0314,-280.7445 409.9519,-274.0605"/>
</g>
<!-- Node24 -->
<g id="node4" class="node">
<title>Node24</title>
<g id="a_node4"><a xlink:href="_p_d_e_8_h.html" target="_top" xlink:title="PDE.H">
<polygon fill="#ffffff" stroke="#000000" points="460.5,-168.5 460.5,-187.5 508.5,-187.5 508.5,-168.5 460.5,-168.5"/>
<text text-anchor="middle" x="484.5" y="-175.5" font-family="Helvetica,sans-Serif" font-size="10.00" fill="#000000">PDE.H</text>
</a>
</g>
</g>
<!-- Node23&#45;&gt;Node24 -->
<g id="edge3" class="edge">
<title>Node23&#45;&gt;Node24</title>
<path fill="none" stroke="#191970" d="M354.2524,-221.159C386.9757,-210.3157 432.8025,-195.1305 460.468,-185.9633"/>
<polygon fill="#191970" stroke="#191970" points="352.9437,-217.9054 344.5521,-224.3733 355.1455,-224.5501 352.9437,-217.9054"/>
</g>
<!-- Node30 -->
<g id="node10" class="node">
<title>Node30</title>
<g id="a_node10"><a xlink:href="icns__ops_8_h.html" target="_top" xlink:title="icns_ops.H">
<polygon fill="#ffffff" stroke="#000000" points="125.5,-56.5 125.5,-75.5 191.5,-75.5 191.5,-56.5 125.5,-56.5"/>
<text text-anchor="middle" x="158.5" y="-63.5" font-family="Helvetica,sans-Serif" font-size="10.00" fill="#000000">icns_ops.H</text>
</a>
</g>
</g>
<!-- Node23&#45;&gt;Node30 -->
<g id="edge30" class="edge">
<title>Node23&#45;&gt;Node30</title>
<path fill="none" stroke="#191970" d="M299.6052,-216.9915C267.0137,-182.1166 193.5122,-103.4652 167.6844,-75.8279"/>
<polygon fill="#191970" stroke="#191970" points="297.2241,-219.5697 306.6092,-224.4862 302.3385,-214.7902 297.2241,-219.5697"/>
</g>
<!-- Node32 -->
<g id="node12" class="node">
<title>Node32</title>
<g id="a_node12"><a xlink:href="icns__diffusion_8_h.html" target="_top" xlink:title="icns_diffusion.H">
<polygon fill="#ffffff" stroke="#000000" points="210,-56.5 210,-75.5 297,-75.5 297,-56.5 210,-56.5"/>
<text text-anchor="middle" x="253.5" y="-63.5" font-family="Helvetica,sans-Serif" font-size="10.00" fill="#000000">icns_diffusion.H</text>
</a>
</g>
</g>
<!-- Node23&#45;&gt;Node32 -->
<g id="edge31" class="edge">
<title>Node23&#45;&gt;Node32</title>
<path fill="none" stroke="#191970" d="M308.3872,-214.7267C295.1362,-178.8207 267.1113,-102.8822 257.127,-75.8279"/>
<polygon fill="#191970" stroke="#191970" points="305.2431,-216.3165 311.989,-224.4862 311.8102,-213.8929 305.2431,-216.3165"/>
</g>
<!-- Node45 -->
<g id="node25" class="node">
<title>Node45</title>
<g id="a_node25"><a xlink:href="_diffusion_ops_8cpp.html" target="_top" xlink:title="DiffusionOps.cpp">
<polygon fill="#ffffff" stroke="#000000" points="526.5,-168.5 526.5,-187.5 618.5,-187.5 618.5,-168.5 526.5,-168.5"/>
<text text-anchor="middle" x="572.5" y="-175.5" font-family="Helvetica,sans-Serif" font-size="10.00" fill="#000000">DiffusionOps.cpp</text>
</a>
</g>
</g>
<!-- Node23&#45;&gt;Node45 -->
<g id="edge29" class="edge">
<title>Node23&#45;&gt;Node45</title>
<path fill="none" stroke="#191970" d="M367.7032,-222.625C415.0429,-212.3097 484.0412,-197.2751 528.6047,-187.5647"/>
<polygon fill="#191970" stroke="#191970" points="366.6761,-219.2666 357.6505,-224.8154 368.1665,-226.1061 366.6761,-219.2666"/>
</g>
<!-- Node25 -->
<g id="node5" class="node">
<title>Node25</title>
<g id="a_node5"><a xlink:href="density_8_h.html" target="_top" xlink:title="density.H">
<polygon fill="#ffffff" stroke="#000000" points="38,-112.5 38,-131.5 97,-131.5 97,-112.5 38,-112.5"/>
<text text-anchor="middle" x="67.5" y="-119.5" font-family="Helvetica,sans-Serif" font-size="10.00" fill="#000000">density.H</text>
</a>
</g>
</g>
<!-- Node24&#45;&gt;Node25 -->
<g id="edge4" class="edge">
<title>Node24&#45;&gt;Node25</title>
<path fill="none" stroke="#191970" d="M450.2453,-173.3998C370.309,-162.665 172.5416,-136.1063 97.2518,-125.9954"/>
<polygon fill="#191970" stroke="#191970" points="449.901,-176.8849 460.2779,-174.7472 450.8327,-169.9472 449.901,-176.8849"/>
</g>
<!-- Node28 -->
<g id="node8" class="node">
<title>Node28</title>
<g id="a_node8"><a xlink:href="icns_8_h.html" target="_top" xlink:title="icns.H">
<polygon fill="#ffffff" stroke="#000000" points="335,-112.5 335,-131.5 380,-131.5 380,-112.5 335,-112.5"/>
<text text-anchor="middle" x="357.5" y="-119.5" font-family="Helvetica,sans-Serif" font-size="10.00" fill="#000000">icns.H</text>
</a>
</g>
</g>
<!-- Node24&#45;&gt;Node28 -->
<g id="edge8" class="edge">
<title>Node24&#45;&gt;Node28</title>
<path fill="none" stroke="#191970" d="M453.3108,-164.2473C430.2463,-154.0771 399.4288,-140.4883 379.0472,-131.5011"/>
<polygon fill="#191970" stroke="#191970" points="452.1058,-167.5411 462.6679,-168.3733 454.9301,-161.1361 452.1058,-167.5411"/>
</g>
<!-- Node35 -->
<g id="node15" class="node">
<title>Node35</title>
<g id="a_node15"><a xlink:href="levelset_8_h.html" target="_top" xlink:title="levelset.H">
<polygon fill="#ffffff" stroke="#000000" points="550,-112.5 550,-131.5 611,-131.5 611,-112.5 550,-112.5"/>
<text text-anchor="middle" x="580.5" y="-119.5" font-family="Helvetica,sans-Serif" font-size="10.00" fill="#000000">levelset.H</text>
</a>
</g>
</g>
<!-- Node24&#45;&gt;Node35 -->
<g id="edge18" class="edge">
<title>Node24&#45;&gt;Node35</title>
<path fill="none" stroke="#191970" d="M510.1346,-163.0465C527.2159,-153.0824 549.164,-140.2794 563.9697,-131.6427"/>
<polygon fill="#191970" stroke="#191970" points="508.0962,-160.1836 501.2219,-168.2455 511.6233,-166.23 508.0962,-160.1836"/>
</g>
<!-- Node38 -->
<g id="node18" class="node">
<title>Node38</title>
<g id="a_node18"><a xlink:href="_s_d_r_8_h.html" target="_top" xlink:title="SDR.H">
<polygon fill="#ffffff" stroke="#000000" points="671,-112.5 671,-131.5 720,-131.5 720,-112.5 671,-112.5"/>
<text text-anchor="middle" x="695.5" y="-119.5" font-family="Helvetica,sans-Serif" font-size="10.00" fill="#000000">SDR.H</text>
</a>
</g>
</g>
<!-- Node24&#45;&gt;Node38 -->
<g id="edge22" class="edge">
<title>Node24&#45;&gt;Node38</title>
<path fill="none" stroke="#191970" d="M518.2842,-167.8573C578.5188,-151.069 638.2737,-136.0674 670.9404,-128.0057"/>
<polygon fill="#191970" stroke="#191970" points="517.3016,-164.4978 508.6169,-170.5663 519.1904,-171.2381 517.3016,-164.4978"/>
</g>
<!-- Node40 -->
<g id="node20" class="node">
<title>Node40</title>
<g id="a_node20"><a xlink:href="temperature_8_h.html" target="_top" xlink:title="temperature.H">
<polygon fill="#ffffff" stroke="#000000" points="763,-112.5 763,-131.5 842,-131.5 842,-112.5 763,-112.5"/>
<text text-anchor="middle" x="802.5" y="-119.5" font-family="Helvetica,sans-Serif" font-size="10.00" fill="#000000">temperature.H</text>
</a>
</g>
</g>
<!-- Node24&#45;&gt;Node40 -->
<g id="edge24" class="edge">
<title>Node24&#45;&gt;Node40</title>
<path fill="none" stroke="#191970" d="M518.6015,-168.0443C578.2601,-155.1581 699.729,-136.9495 762.8398,-127.728"/>
<polygon fill="#191970" stroke="#191970" points="517.5384,-164.6959 508.55,-170.3047 519.0743,-171.5253 517.5384,-164.6959"/>
</g>
<!-- Node42 -->
<g id="node22" class="node">
<title>Node42</title>
<g id="a_node22"><a xlink:href="_t_k_e_8_h.html" target="_top" xlink:title="TKE.H">
<polygon fill="#ffffff" stroke="#000000" points="893,-112.5 893,-131.5 940,-131.5 940,-112.5 893,-112.5"/>
<text text-anchor="middle" x="916.5" y="-119.5" font-family="Helvetica,sans-Serif" font-size="10.00" fill="#000000">TKE.H</text>
</a>
</g>
</g>
<!-- Node24&#45;&gt;Node42 -->
<g id="edge26" class="edge">
<title>Node24&#45;&gt;Node42</title>
<path fill="none" stroke="#191970" d="M518.3407,-168.1631C665.114,-138.8234 706.0468,-150.743 850.5,-132 864.5212,-130.1807 880.1678,-127.8243 892.7062,-125.8559"/>
<polygon fill="#191970" stroke="#191970" points="517.622,-164.7375 508.5177,-170.156 519.014,-171.5977 517.622,-164.7375"/>
</g>
<!-- Node26 -->
<g id="node6" class="node">
<title>Node26</title>
<g id="a_node6"><a xlink:href="density_8cpp.html" target="_top" xlink:title="density.cpp">
<polygon fill="#ffffff" stroke="#000000" points="0,-.5 0,-19.5 67,-19.5 67,-.5 0,-.5"/>
<text text-anchor="middle" x="33.5" y="-7.5" font-family="Helvetica,sans-Serif" font-size="10.00" fill="#000000">density.cpp</text>
</a>
</g>
</g>
<!-- Node25&#45;&gt;Node26 -->
<g id="edge5" class="edge">
<title>Node25&#45;&gt;Node26</title>
<path fill="none" stroke="#191970" d="M43.5955,-106.2861C33.8842,-98.4665 23.7337,-88.0919 18.5,-76 10.2852,-57.0206 20.4556,-32.9426 27.6143,-19.7472"/>
<polygon fill="#191970" stroke="#191970" points="41.7766,-109.2962 51.882,-112.4791 45.9671,-103.6891 41.7766,-109.2962"/>
</g>
<!-- Node27 -->
<g id="node7" class="node">
<title>Node27</title>
<g id="a_node7"><a xlink:href="density__ops_8_h.html" target="_top" xlink:title="density_ops.H">
<polygon fill="#ffffff" stroke="#000000" points="27.5,-56.5 27.5,-75.5 107.5,-75.5 107.5,-56.5 27.5,-56.5"/>
<text text-anchor="middle" x="67.5" y="-63.5" font-family="Helvetica,sans-Serif" font-size="10.00" fill="#000000">density_ops.H</text>
</a>
</g>
</g>
<!-- Node25&#45;&gt;Node27 -->
<g id="edge6" class="edge">
<title>Node25&#45;&gt;Node27</title>
<path fill="none" stroke="#191970" d="M67.5,-102.1575C67.5,-93.155 67.5,-82.9199 67.5,-75.6427"/>
<polygon fill="#191970" stroke="#191970" points="64.0001,-102.2455 67.5,-112.2455 71.0001,-102.2456 64.0001,-102.2455"/>
</g>
<!-- Node27&#45;&gt;Node26 -->
<g id="edge7" class="edge">
<title>Node27&#45;&gt;Node26</title>
<path fill="none" stroke="#191970" d="M56.3465,-47.6296C50.6753,-38.2887 44.0155,-27.3197 39.3545,-19.6427"/>
<polygon fill="#191970" stroke="#191970" points="53.3961,-49.5141 61.5777,-56.2455 59.3796,-45.8812 53.3961,-49.5141"/>
</g>
<!-- Node29 -->
<g id="node9" class="node">
<title>Node29</title>
<g id="a_node9"><a xlink:href="icns_8cpp.html" target="_top" xlink:title="icns.cpp">
<polygon fill="#ffffff" stroke="#000000" points="263,-.5 263,-19.5 316,-19.5 316,-.5 263,-.5"/>
<text text-anchor="middle" x="289.5" y="-7.5" font-family="Helvetica,sans-Serif" font-size="10.00" fill="#000000">icns.cpp</text>
</a>
</g>
</g>
<!-- Node28&#45;&gt;Node29 -->
<g id="edge9" class="edge">
<title>Node28&#45;&gt;Node29</title>
<path fill="none" stroke="#191970" d="M346.5063,-103.8927C331.8967,-79.8299 306.6125,-38.1853 295.283,-19.5249"/>
<polygon fill="#191970" stroke="#191970" points="343.5208,-105.7195 351.7024,-112.4509 349.5043,-102.0866 343.5208,-105.7195"/>
</g>
<!-- Node28&#45;&gt;Node30 -->
<g id="edge10" class="edge">
<title>Node28&#45;&gt;Node30</title>
<path fill="none" stroke="#191970" d="M324.9392,-112.8371C288.1581,-102.4867 228.6188,-85.7319 191.6122,-75.318"/>
<polygon fill="#191970" stroke="#191970" points="324.0979,-116.2363 334.6722,-115.5761 325.9942,-109.498 324.0979,-116.2363"/>
</g>
<!-- Node28&#45;&gt;Node32 -->
<g id="edge13" class="edge">
<title>Node28&#45;&gt;Node32</title>
<path fill="none" stroke="#191970" d="M330.4971,-107.46C311.8864,-97.4388 287.6701,-84.3993 271.4078,-75.6427"/>
<polygon fill="#191970" stroke="#191970" points="328.9205,-110.5861 339.3846,-112.2455 332.2392,-104.4228 328.9205,-110.5861"/>
</g>
<!-- Node33 -->
<g id="node13" class="node">
<title>Node33</title>
<g id="a_node13"><a xlink:href="icns__bcop_8_h.html" target="_top" xlink:title="icns_bcop.H">
<polygon fill="#ffffff" stroke="#000000" points="354,-56.5 354,-75.5 425,-75.5 425,-56.5 354,-56.5"/>
<text text-anchor="middle" x="389.5" y="-63.5" font-family="Helvetica,sans-Serif" font-size="10.00" fill="#000000">icns_bcop.H</text>
</a>
</g>
</g>
<!-- Node28&#45;&gt;Node33 -->
<g id="edge15" class="edge">
<title>Node28&#45;&gt;Node33</title>
<path fill="none" stroke="#191970" d="M368.1645,-103.3372C373.4654,-94.0605 379.6487,-83.2398 383.9899,-75.6427"/>
<polygon fill="#191970" stroke="#191970" points="364.9966,-101.8266 363.074,-112.2455 371.0743,-105.2996 364.9966,-101.8266"/>
</g>
<!-- Node34 -->
<g id="node14" class="node">
<title>Node34</title>
<g id="a_node14"><a xlink:href="_power_law_profile_8cpp.html" target="_top" xlink:title="PowerLawProfile.cpp">
<polygon fill="#ffffff" stroke="#000000" points="443,-56.5 443,-75.5 552,-75.5 552,-56.5 443,-56.5"/>
<text text-anchor="middle" x="497.5" y="-63.5" font-family="Helvetica,sans-Serif" font-size="10.00" fill="#000000">PowerLawProfile.cpp</text>
</a>
</g>
</g>
<!-- Node28&#45;&gt;Node34 -->
<g id="edge17" class="edge">
<title>Node28&#45;&gt;Node34</title>
<path fill="none" stroke="#191970" d="M389.8922,-109.0431C415.344,-98.8624 450.2299,-84.908 473.2949,-75.682"/>
<polygon fill="#191970" stroke="#191970" points="388.2899,-105.9144 380.305,-112.878 390.8897,-112.4137 388.2899,-105.9144"/>
</g>
<!-- Node30&#45;&gt;Node29 -->
<g id="edge11" class="edge">
<title>Node30&#45;&gt;Node29</title>
<path fill="none" stroke="#191970" d="M190.3534,-52.3833C214.1785,-42.1985 246.1568,-28.5284 267.2742,-19.5011"/>
<polygon fill="#191970" stroke="#191970" points="188.839,-49.2242 181.0197,-56.3733 191.5906,-55.6608 188.839,-49.2242"/>
</g>
<!-- Node31 -->
<g id="node11" class="node">
<title>Node31</title>
<g id="a_node11"><a xlink:href="icns__ops_8cpp.html" target="_top" xlink:title="icns_ops.cpp">
<polygon fill="#ffffff" stroke="#000000" points="121.5,-.5 121.5,-19.5 195.5,-19.5 195.5,-.5 121.5,-.5"/>
<text text-anchor="middle" x="158.5" y="-7.5" font-family="Helvetica,sans-Serif" font-size="10.00" fill="#000000">icns_ops.cpp</text>
</a>
</g>
</g>
<!-- Node30&#45;&gt;Node31 -->
<g id="edge12" class="edge">
<title>Node30&#45;&gt;Node31</title>
<path fill="none" stroke="#191970" d="M158.5,-46.1575C158.5,-37.155 158.5,-26.9199 158.5,-19.6427"/>
<polygon fill="#191970" stroke="#191970" points="155.0001,-46.2455 158.5,-56.2455 162.0001,-46.2456 155.0001,-46.2455"/>
</g>
<!-- Node32&#45;&gt;Node29 -->
<g id="edge14" class="edge">
<title>Node32&#45;&gt;Node29</title>
<path fill="none" stroke="#191970" d="M265.3096,-47.6296C271.3144,-38.2887 278.3659,-27.3197 283.3011,-19.6427"/>
<polygon fill="#191970" stroke="#191970" points="262.2342,-45.9411 259.7707,-56.2455 268.1225,-49.7264 262.2342,-45.9411"/>
</g>
<!-- Node33&#45;&gt;Node29 -->
<g id="edge16" class="edge">
<title>Node33&#45;&gt;Node29</title>
<path fill="none" stroke="#191970" d="M363.2902,-51.3225C345.4283,-41.3198 322.2845,-28.3593 306.7191,-19.6427"/>
<polygon fill="#191970" stroke="#191970" points="361.6461,-54.4132 372.0813,-56.2455 365.0664,-48.3057 361.6461,-54.4132"/>
</g>
<!-- Node36 -->
<g id="node16" class="node">
<title>Node36</title>
<g id="a_node16"><a xlink:href="levelset_8cpp.html" target="_top" xlink:title="levelset.cpp">
<polygon fill="#ffffff" stroke="#000000" points="580,-.5 580,-19.5 649,-19.5 649,-.5 580,-.5"/>
<text text-anchor="middle" x="614.5" y="-7.5" font-family="Helvetica,sans-Serif" font-size="10.00" fill="#000000">levelset.cpp</text>
</a>
</g>
</g>
<!-- Node35&#45;&gt;Node36 -->
<g id="edge19" class="edge">
<title>Node35&#45;&gt;Node36</title>
<path fill="none" stroke="#191970" d="M585.9796,-102.2906C589.6822,-89.1445 594.7447,-71.4955 599.5,-56 603.3444,-43.4726 608.0735,-29.1315 611.1815,-19.8389"/>
<polygon fill="#191970" stroke="#191970" points="582.5511,-101.5549 583.2259,-112.1282 589.292,-103.4419 582.5511,-101.5549"/>
</g>
<!-- Node37 -->
<g id="node17" class="node">
<title>Node37</title>
<g id="a_node17"><a xlink:href="levelset__ops_8_h.html" target="_top" xlink:title="levelset_ops.H">
<polygon fill="#ffffff" stroke="#000000" points="608.5,-56.5 608.5,-75.5 690.5,-75.5 690.5,-56.5 608.5,-56.5"/>
<text text-anchor="middle" x="649.5" y="-63.5" font-family="Helvetica,sans-Serif" font-size="10.00" fill="#000000">levelset_ops.H</text>
</a>
</g>
</g>
<!-- Node35&#45;&gt;Node37 -->
<g id="edge20" class="edge">
<title>Node35&#45;&gt;Node37</title>
<path fill="none" stroke="#191970" d="M600.303,-105.928C612.3636,-96.1397 627.3714,-83.9595 637.6188,-75.6427"/>
<polygon fill="#191970" stroke="#191970" points="598.0779,-103.2262 592.5189,-112.2455 602.4891,-108.6614 598.0779,-103.2262"/>
</g>
<!-- Node37&#45;&gt;Node36 -->
<g id="edge21" class="edge">
<title>Node37&#45;&gt;Node36</title>
<path fill="none" stroke="#191970" d="M638.0185,-47.6296C632.1804,-38.2887 625.3248,-27.3197 620.5267,-19.6427"/>
<polygon fill="#191970" stroke="#191970" points="635.1354,-49.6206 643.4035,-56.2455 641.0714,-45.9105 635.1354,-49.6206"/>
</g>
<!-- Node39 -->
<g id="node19" class="node">
<title>Node39</title>
<g id="a_node19"><a xlink:href="_s_d_r_8cpp.html" target="_top" xlink:title="SDR.cpp">
<polygon fill="#ffffff" stroke="#000000" points="709,-56.5 709,-75.5 766,-75.5 766,-56.5 709,-56.5"/>
<text text-anchor="middle" x="737.5" y="-63.5" font-family="Helvetica,sans-Serif" font-size="10.00" fill="#000000">SDR.cpp</text>
</a>
</g>
</g>
<!-- Node38&#45;&gt;Node39 -->
<g id="edge23" class="edge">
<title>Node38&#45;&gt;Node39</title>
<path fill="none" stroke="#191970" d="M708.8416,-104.2112C715.9396,-94.7472 724.3903,-83.4797 730.268,-75.6427"/>
<polygon fill="#191970" stroke="#191970" points="706.0159,-102.1455 702.8158,-112.2455 711.6159,-106.3455 706.0159,-102.1455"/>
</g>
<!-- Node41 -->
<g id="node21" class="node">
<title>Node41</title>
<g id="a_node21"><a xlink:href="temperature_8cpp.html" target="_top" xlink:title="temperature.cpp">
<polygon fill="#ffffff" stroke="#000000" points="784,-56.5 784,-75.5 871,-75.5 871,-56.5 784,-56.5"/>
<text text-anchor="middle" x="827.5" y="-63.5" font-family="Helvetica,sans-Serif" font-size="10.00" fill="#000000">temperature.cpp</text>
</a>
</g>
</g>
<!-- Node40&#45;&gt;Node41 -->
<g id="edge25" class="edge">
<title>Node40&#45;&gt;Node41</title>
<path fill="none" stroke="#191970" d="M810.9626,-103.0437C815.0745,-93.8331 819.8394,-83.1598 823.1952,-75.6427"/>
<polygon fill="#191970" stroke="#191970" points="807.7352,-101.6874 806.8547,-112.2455 814.1272,-104.541 807.7352,-101.6874"/>
</g>
<!-- Node43 -->
<g id="node23" class="node">
<title>Node43</title>
<g id="a_node23"><a xlink:href="_t_k_e_8cpp.html" target="_top" xlink:title="TKE.cpp">
<polygon fill="#ffffff" stroke="#000000" points="889,-56.5 889,-75.5 944,-75.5 944,-56.5 889,-56.5"/>
<text text-anchor="middle" x="916.5" y="-63.5" font-family="Helvetica,sans-Serif" font-size="10.00" fill="#000000">TKE.cpp</text>
</a>
</g>
</g>
<!-- Node42&#45;&gt;Node43 -->
<g id="edge27" class="edge">
<title>Node42&#45;&gt;Node43</title>
<path fill="none" stroke="#191970" d="M916.5,-102.1575C916.5,-93.155 916.5,-82.9199 916.5,-75.6427"/>
<polygon fill="#191970" stroke="#191970" points="913.0001,-102.2455 916.5,-112.2455 920.0001,-102.2456 913.0001,-102.2455"/>
</g>
<!-- Node44 -->
<g id="node24" class="node">
<title>Node44</title>
<g id="a_node24"><a xlink:href="_one_eq_ksgs_8cpp.html" target="_top" xlink:title="OneEqKsgs.cpp">
<polygon fill="#ffffff" stroke="#000000" points="962.5,-56.5 962.5,-75.5 1050.5,-75.5 1050.5,-56.5 962.5,-56.5"/>
<text text-anchor="middle" x="1006.5" y="-63.5" font-family="Helvetica,sans-Serif" font-size="10.00" fill="#000000">OneEqKsgs.cpp</text>
</a>
</g>
</g>
<!-- Node42&#45;&gt;Node44 -->
<g id="edge28" class="edge">
<title>Node42&#45;&gt;Node44</title>
<path fill="none" stroke="#191970" d="M940.9784,-106.769C956.9266,-96.8456 977.251,-84.1994 991.0028,-75.6427"/>
<polygon fill="#191970" stroke="#191970" points="938.8183,-103.9908 932.1768,-112.2455 942.5165,-109.9342 938.8183,-103.9908"/>
</g>
</g>
</svg>
