<?xml version="1.0" encoding="UTF-8" standalone="no"?>
<!DOCTYPE svg PUBLIC "-//W3C//DTD SVG 1.1//EN"
 "http://www.w3.org/Graphics/SVG/1.1/DTD/svg11.dtd">
<!-- Generated by graphviz version 2.40.1 (20161225.0304)
 -->
<!-- Title: overset Pages: 1 -->
<svg width="136pt" height="295pt"
 viewBox="0.00 0.00 135.61 295.00" xmlns="http://www.w3.org/2000/svg" xmlns:xlink="http://www.w3.org/1999/xlink">
<g id="graph0" class="graph" transform="scale(1 1) rotate(0) translate(4 291)">
<title>overset</title>
<polygon fill="#ffffff" stroke="transparent" points="-4,4 -4,-291 131.6091,-291 131.6091,4 -4,4"/>
<g id="clust1" class="cluster">
<title>clusterdir_d85575251dd712327fe3cf057fa568b4</title>
<g id="a_clust1"><a xlink:href="dir_d85575251dd712327fe3cf057fa568b4.html" target="_top" xlink:title="amr&#45;wind">
<polygon fill="#ddddee" stroke="#000000" points="28,-208 28,-279 98,-279 98,-208 28,-208"/>
<text text-anchor="middle" x="63" y="-267" font-family="Helvetica,sans-Serif" font-size="10.00" fill="#000000">amr&#45;wind</text>
</a>
</g>
</g>
<!-- dir_629222d9fcf2f4ceefae477297f2ec84 -->
<g id="node1" class="node">
<title>dir_629222d9fcf2f4ceefae477297f2ec84</title>
<g id="a_node1"><a xlink:href="dir_629222d9fcf2f4ceefae477297f2ec84.html" target="_top" xlink:title="overset">
<polygon fill="#eeeeff" stroke="#000000" points="90,-252 36,-252 36,-216 90,-216 90,-252"/>
<text text-anchor="middle" x="63" y="-231.5" font-family="Helvetica,sans-Serif" font-size="10.00" fill="#000000">overset</text>
</a>
</g>
</g>
<!-- dir_e4cd57caa88bf1f4e1bf9521bc47c3c0 -->
<g id="node2" class="node">
<title>dir_e4cd57caa88bf1f4e1bf9521bc47c3c0</title>
<g id="a_node2"><a xlink:href="dir_e4cd57caa88bf1f4e1bf9521bc47c3c0.html" target="_top" xlink:title="utilities">
<polygon fill="#ffffff" stroke="#ff0000" points="54,-108 0,-108 0,-72 54,-72 54,-108"/>
<text text-anchor="middle" x="27" y="-87.5" font-family="Helvetica,sans-Serif" font-size="10.00" fill="#000000">utilities</text>
</a>
</g>
</g>
<!-- dir_629222d9fcf2f4ceefae477297f2ec84&#45;&gt;dir_e4cd57caa88bf1f4e1bf9521bc47c3c0 -->
<g id="edge1" class="edge">
<title>dir_629222d9fcf2f4ceefae477297f2ec84&#45;&gt;dir_e4cd57caa88bf1f4e1bf9521bc47c3c0</title>
<path fill="none" stroke="#000000" d="M35.8103,-216.0065C24.3257,-206.7602 12.1942,-194.4006 6,-180 -2.652,-159.8852 3.8887,-135.6394 11.8826,-117.3835"/>
<polygon fill="#000000" stroke="#000000" points="15.1253,-118.7142 16.2538,-108.1796 8.8021,-115.7112 15.1253,-118.7142"/>
<g id="a_edge1&#45;headlabel"><a xlink:href="dir_000028_000005.html" target="_top" xlink:title="1">
<text text-anchor="middle" x="16.1479" y="-120.6793" font-family="Helvetica,sans-Serif" font-size="10.00" fill="#000000">1</text>
</a>
</g>
</g>
<!-- dir_4bb30ed846ea1df1fc4d16874a455d91 -->
<g id="node3" class="node">
<title>dir_4bb30ed846ea1df1fc4d16874a455d91</title>
<g id="a_node3"><a xlink:href="dir_4bb30ed846ea1df1fc4d16874a455d91.html" target="_top" xlink:title="equation_systems">
<polygon fill="#ffffff" stroke="#ff0000" points="111,-180 15,-180 15,-144 111,-144 111,-180"/>
<text text-anchor="middle" x="63" y="-159.5" font-family="Helvetica,sans-Serif" font-size="10.00" fill="#000000">equation_systems</text>
</a>
</g>
</g>
<!-- dir_629222d9fcf2f4ceefae477297f2ec84&#45;&gt;dir_4bb30ed846ea1df1fc4d16874a455d91 -->
<g id="edge2" class="edge">
<title>dir_629222d9fcf2f4ceefae477297f2ec84&#45;&gt;dir_4bb30ed846ea1df1fc4d16874a455d91</title>
<path fill="none" stroke="#000000" d="M63,-215.8314C63,-208.131 63,-198.9743 63,-190.4166"/>
<polygon fill="#000000" stroke="#000000" points="66.5001,-190.4132 63,-180.4133 59.5001,-190.4133 66.5001,-190.4132"/>
<g id="a_edge2&#45;headlabel"><a xlink:href="dir_000028_000002.html" target="_top" xlink:title="1">
<text text-anchor="middle" x="69.3393" y="-191.5079" font-family="Helvetica,sans-Serif" font-size="10.00" fill="#000000">1</text>
</a>
</g>
</g>
<!-- dir_3d3615e9a999cab4f3407307569d6ced -->
<g id="node4" class="node">
<title>dir_3d3615e9a999cab4f3407307569d6ced</title>
<g id="a_node4"><a xlink:href="dir_3d3615e9a999cab4f3407307569d6ced.html" target="_top" xlink:title="core">
<polygon fill="none" stroke="#000000" points="109,-36 55,-36 55,0 109,0 109,-36"/>
<text text-anchor="middle" x="82" y="-15.5" font-family="Helvetica,sans-Serif" font-size="10.00" fill="#000000">core</text>
</a>
</g>
</g>
<!-- dir_629222d9fcf2f4ceefae477297f2ec84&#45;&gt;dir_3d3615e9a999cab4f3407307569d6ced -->
<g id="edge3" class="edge">
<title>dir_629222d9fcf2f4ceefae477297f2ec84&#45;&gt;dir_3d3615e9a999cab4f3407307569d6ced</title>
<path fill="none" stroke="#000000" d="M90.1897,-216.0065C101.6743,-206.7602 113.8058,-194.4006 120,-180 139.4277,-134.8332 116.2262,-78.1177 98.4915,-45.174"/>
<polygon fill="#000000" stroke="#000000" points="101.3801,-43.1681 93.4457,-36.1469 95.2698,-46.5836 101.3801,-43.1681"/>
<g id="a_edge3&#45;headlabel"><a xlink:href="dir_000028_000009.html" target="_top" xlink:title="3">
<text text-anchor="middle" x="105.6123" y="-42.4205" font-family="Helvetica,sans-Serif" font-size="10.00" fill="#000000">3</text>
</a>
</g>
</g>
<!-- dir_e4cd57caa88bf1f4e1bf9521bc47c3c0&#45;&gt;dir_3d3615e9a999cab4f3407307569d6ced -->
<g id="edge4" class="edge">
<title>dir_e4cd57caa88bf1f4e1bf9521bc47c3c0&#45;&gt;dir_3d3615e9a999cab4f3407307569d6ced</title>
<path fill="none" stroke="#000000" d="M40.8788,-71.8314C47.2136,-63.5386 54.8384,-53.557 61.7926,-44.4533"/>
<polygon fill="#000000" stroke="#000000" points="64.6452,-46.4847 67.9343,-36.4133 59.0825,-42.2353 64.6452,-46.4847"/>
<g id="a_edge4&#45;headlabel"><a xlink:href="dir_000005_000009.html" target="_top" xlink:title="10">
<text text-anchor="middle" x="64.7195" y="-48.5647" font-family="Helvetica,sans-Serif" font-size="10.00" fill="#000000">10</text>
</a>
</g>
</g>
<!-- dir_4bb30ed846ea1df1fc4d16874a455d91&#45;&gt;dir_e4cd57caa88bf1f4e1bf9521bc47c3c0 -->
<g id="edge5" class="edge">
<title>dir_4bb30ed846ea1df1fc4d16874a455d91&#45;&gt;dir_e4cd57caa88bf1f4e1bf9521bc47c3c0</title>
<path fill="none" stroke="#000000" d="M53.9157,-143.8314C49.9385,-135.8771 45.1845,-126.369 40.7861,-117.5723"/>
<polygon fill="#000000" stroke="#000000" points="43.8093,-115.7923 36.2066,-108.4133 37.5483,-118.9228 43.8093,-115.7923"/>
<g id="a_edge5&#45;headlabel"><a xlink:href="dir_000002_000005.html" target="_top" xlink:title="10">
<text text-anchor="middle" x="47.9563" y="-115.2377" font-family="Helvetica,sans-Serif" font-size="10.00" fill="#000000">10</text>
</a>
</g>
</g>
<!-- dir_4bb30ed846ea1df1fc4d16874a455d91&#45;&gt;dir_3d3615e9a999cab4f3407307569d6ced -->
<g id="edge6" class="edge">
<title>dir_4bb30ed846ea1df1fc4d16874a455d91&#45;&gt;dir_3d3615e9a999cab4f3407307569d6ced</title>
<path fill="none" stroke="#000000" d="M65.4064,-143.7623C68.6471,-119.201 74.4465,-75.2474 78.2588,-46.3541"/>
<polygon fill="#000000" stroke="#000000" points="81.7749,-46.4616 79.6132,-36.0896 74.8351,-45.5458 81.7749,-46.4616"/>
<g id="a_edge6&#45;headlabel"><a xlink:href="dir_000002_000009.html" target="_top" xlink:title="47">
<text text-anchor="middle" x="84.1197" y="-47.8967" font-family="Helvetica,sans-Serif" font-size="10.00" fill="#000000">47</text>
</a>
</g>
</g>
</g>
</svg>
