<?xml version="1.0" encoding="UTF-8" standalone="no"?>
<!DOCTYPE svg PUBLIC "-//W3C//DTD SVG 1.1//EN"
 "http://www.w3.org/Graphics/SVG/1.1/DTD/svg11.dtd">
<!-- Generated by graphviz version 2.40.1 (20161225.0304)
 -->
<!-- Title: physics Pages: 1 -->
<svg width="339pt" height="447pt"
 viewBox="0.00 0.00 339.49 447.00" xmlns="http://www.w3.org/2000/svg" xmlns:xlink="http://www.w3.org/1999/xlink">
<g id="graph0" class="graph" transform="scale(1 1) rotate(0) translate(4 443)">
<title>physics</title>
<polygon fill="#ffffff" stroke="transparent" points="-4,4 -4,-443 335.4876,-443 335.4876,4 -4,4"/>
<g id="clust1" class="cluster">
<title>clusterdir_d85575251dd712327fe3cf057fa568b4</title>
<g id="a_clust1"><a xlink:href="dir_d85575251dd712327fe3cf057fa568b4.html" target="_top" xlink:title="amr&#45;wind">
<polygon fill="#ddddee" stroke="#000000" points="12,-272 12,-431 180,-431 180,-272 12,-272"/>
<text text-anchor="middle" x="96" y="-419" font-family="Helvetica,sans-Serif" font-size="10.00" fill="#000000">amr&#45;wind</text>
</a>
</g>
</g>
<g id="clust2" class="cluster">
<title>clusterdir_f2c65bfcbdc19ebacbfc0bbbfb0d01b6</title>
<g id="a_clust2"><a xlink:href="dir_f2c65bfcbdc19ebacbfc0bbbfb0d01b6.html" target="_top">
<polygon fill="#eeeeff" stroke="#000000" points="20,-280 20,-404 172,-404 172,-280 20,-280"/>
</a>
</g>
</g>
<!-- dir_f2c65bfcbdc19ebacbfc0bbbfb0d01b6 -->
<g id="node1" class="node">
<title>dir_f2c65bfcbdc19ebacbfc0bbbfb0d01b6</title>
<text text-anchor="middle" x="137" y="-375.5" font-family="Helvetica,sans-Serif" font-size="10.00" fill="#000000">physics</text>
</g>
<!-- dir_112afea7a726e6a1d518c2be02377acb -->
<g id="node3" class="node">
<title>dir_112afea7a726e6a1d518c2be02377acb</title>
<g id="a_node3"><a xlink:href="dir_112afea7a726e6a1d518c2be02377acb.html" target="_top" xlink:title="udfs">
<polygon fill="#ffffff" stroke="#000000" points="82,-324 28,-324 28,-288 82,-288 82,-324"/>
<text text-anchor="middle" x="55" y="-303.5" font-family="Helvetica,sans-Serif" font-size="10.00" fill="#000000">udfs</text>
</a>
</g>
</g>
<!-- dir_f2c65bfcbdc19ebacbfc0bbbfb0d01b6&#45;&gt;dir_112afea7a726e6a1d518c2be02377acb -->
<g id="edge1" class="edge">
<title>dir_f2c65bfcbdc19ebacbfc0bbbfb0d01b6&#45;&gt;dir_112afea7a726e6a1d518c2be02377acb</title>
<path fill="none" stroke="#000000" d="M116.3079,-359.8314C106.3052,-351.0485 94.145,-340.3712 83.3001,-330.8489"/>
<polygon fill="#000000" stroke="#000000" points="85.5092,-328.1308 75.6854,-324.1628 80.8906,-333.3909 85.5092,-328.1308"/>
<g id="a_edge1&#45;headlabel"><a xlink:href="dir_000007_000024.html" target="_top" xlink:title="2">
<text text-anchor="middle" x="90.0836" y="-325.869" font-family="Helvetica,sans-Serif" font-size="10.00" fill="#000000">2</text>
</a>
</g>
</g>
<!-- dir_0c368f76a33d967d5b838b5681461de6 -->
<g id="node4" class="node">
<title>dir_0c368f76a33d967d5b838b5681461de6</title>
<g id="a_node4"><a xlink:href="dir_0c368f76a33d967d5b838b5681461de6.html" target="_top" xlink:title="wind_energy">
<polygon fill="none" stroke="#000000" points="278.5,-324 207.5,-324 207.5,-288 278.5,-288 278.5,-324"/>
<text text-anchor="middle" x="243" y="-303.5" font-family="Helvetica,sans-Serif" font-size="10.00" fill="#000000">wind_energy</text>
</a>
</g>
</g>
<!-- dir_f2c65bfcbdc19ebacbfc0bbbfb0d01b6&#45;&gt;dir_0c368f76a33d967d5b838b5681461de6 -->
<g id="edge2" class="edge">
<title>dir_f2c65bfcbdc19ebacbfc0bbbfb0d01b6&#45;&gt;dir_0c368f76a33d967d5b838b5681461de6</title>
<path fill="none" stroke="#000000" d="M163.7483,-359.8314C177.0553,-350.7927 193.316,-339.7476 207.6375,-330.0198"/>
<polygon fill="#000000" stroke="#000000" points="209.9547,-332.677 216.2603,-324.1628 206.0215,-326.8864 209.9547,-332.677"/>
<g id="a_edge2&#45;headlabel"><a xlink:href="dir_000007_000001.html" target="_top" xlink:title="1">
<text text-anchor="middle" x="208.5765" y="-334.5454" font-family="Helvetica,sans-Serif" font-size="10.00" fill="#000000">1</text>
</a>
</g>
</g>
<!-- dir_e4cd57caa88bf1f4e1bf9521bc47c3c0 -->
<g id="node5" class="node">
<title>dir_e4cd57caa88bf1f4e1bf9521bc47c3c0</title>
<g id="a_node5"><a xlink:href="dir_e4cd57caa88bf1f4e1bf9521bc47c3c0.html" target="_top" xlink:title="utilities">
<polygon fill="#ffffff" stroke="#ff0000" points="318,-180 264,-180 264,-144 318,-144 318,-180"/>
<text text-anchor="middle" x="291" y="-159.5" font-family="Helvetica,sans-Serif" font-size="10.00" fill="#000000">utilities</text>
</a>
</g>
</g>
<!-- dir_f2c65bfcbdc19ebacbfc0bbbfb0d01b6&#45;&gt;dir_e4cd57caa88bf1f4e1bf9521bc47c3c0 -->
<g id="edge3" class="edge">
<title>dir_f2c65bfcbdc19ebacbfc0bbbfb0d01b6&#45;&gt;dir_e4cd57caa88bf1f4e1bf9521bc47c3c0</title>
<path fill="none" stroke="#000000" d="M164.1763,-372.1556C203.519,-363.087 273.2594,-344.5202 288,-324 316.2586,-284.6617 307.8605,-224.953 299.3327,-190.0731"/>
<polygon fill="#000000" stroke="#000000" points="302.6394,-188.884 296.7223,-180.0954 295.8673,-190.6557 302.6394,-188.884"/>
<g id="a_edge3&#45;headlabel"><a xlink:href="dir_000007_000005.html" target="_top" xlink:title="4">
<text text-anchor="middle" x="306.296" y="-189.1429" font-family="Helvetica,sans-Serif" font-size="10.00" fill="#000000">4</text>
</a>
</g>
</g>
<!-- dir_e037da66ad872c58acfc861df6f5c212 -->
<g id="node2" class="node">
<title>dir_e037da66ad872c58acfc861df6f5c212</title>
<g id="a_node2"><a xlink:href="dir_e037da66ad872c58acfc861df6f5c212.html" target="_top" xlink:title="multiphase">
<polygon fill="#ffffff" stroke="#000000" points="92,-396 28,-396 28,-360 92,-360 92,-396"/>
<text text-anchor="middle" x="60" y="-375.5" font-family="Helvetica,sans-Serif" font-size="10.00" fill="#000000">multiphase</text>
</a>
</g>
</g>
<!-- dir_7f7a014517bfe31ea45620a6a947e37b -->
<g id="node6" class="node">
<title>dir_7f7a014517bfe31ea45620a6a947e37b</title>
<g id="a_node6"><a xlink:href="dir_7f7a014517bfe31ea45620a6a947e37b.html" target="_top" xlink:title="fvm">
<polygon fill="none" stroke="#000000" points="225,-108 171,-108 171,-72 225,-72 225,-108"/>
<text text-anchor="middle" x="198" y="-87.5" font-family="Helvetica,sans-Serif" font-size="10.00" fill="#000000">fvm</text>
</a>
</g>
</g>
<!-- dir_e037da66ad872c58acfc861df6f5c212&#45;&gt;dir_7f7a014517bfe31ea45620a6a947e37b -->
<g id="edge6" class="edge">
<title>dir_e037da66ad872c58acfc861df6f5c212&#45;&gt;dir_7f7a014517bfe31ea45620a6a947e37b</title>
<path fill="none" stroke="#000000" d="M72.1444,-359.6163C78.4492,-349.4456 85.8823,-336.389 91,-324 109.9752,-278.0645 100.2656,-261.6145 120,-216 135.7398,-179.6187 160.7881,-141.3881 178.2383,-116.7131"/>
<polygon fill="#000000" stroke="#000000" points="181.3128,-118.4314 184.2923,-108.2642 175.6227,-114.3543 181.3128,-118.4314"/>
<g id="a_edge6&#45;headlabel"><a xlink:href="dir_000012_000011.html" target="_top" xlink:title="2">
<text text-anchor="middle" x="181.5271" y="-120.5071" font-family="Helvetica,sans-Serif" font-size="10.00" fill="#000000">2</text>
</a>
</g>
</g>
<!-- dir_3d3615e9a999cab4f3407307569d6ced -->
<g id="node8" class="node">
<title>dir_3d3615e9a999cab4f3407307569d6ced</title>
<g id="a_node8"><a xlink:href="dir_3d3615e9a999cab4f3407307569d6ced.html" target="_top" xlink:title="core">
<polygon fill="#ffffff" stroke="#ff0000" points="225,-36 171,-36 171,0 225,0 225,-36"/>
<text text-anchor="middle" x="198" y="-15.5" font-family="Helvetica,sans-Serif" font-size="10.00" fill="#000000">core</text>
</a>
</g>
</g>
<!-- dir_e037da66ad872c58acfc861df6f5c212&#45;&gt;dir_3d3615e9a999cab4f3407307569d6ced -->
<g id="edge7" class="edge">
<title>dir_e037da66ad872c58acfc861df6f5c212&#45;&gt;dir_3d3615e9a999cab4f3407307569d6ced</title>
<path fill="none" stroke="#000000" d="M42.9667,-359.8385C34.5614,-349.9372 24.9699,-337.061 19,-324 2.0049,-286.8183 0,-274.8816 0,-234 0,-234 0,-234 0,-162 0,-83.2092 103.8161,-43.0209 161.1014,-26.8427"/>
<polygon fill="#000000" stroke="#000000" points="162.1514,-30.1844 170.8841,-24.1852 160.3163,-23.4292 162.1514,-30.1844"/>
<g id="a_edge7&#45;headlabel"><a xlink:href="dir_000012_000009.html" target="_top" xlink:title="10">
<text text-anchor="middle" x="159.4269" y="-31.3667" font-family="Helvetica,sans-Serif" font-size="10.00" fill="#000000">10</text>
</a>
</g>
</g>
<!-- dir_4bb30ed846ea1df1fc4d16874a455d91 -->
<g id="node7" class="node">
<title>dir_4bb30ed846ea1df1fc4d16874a455d91</title>
<g id="a_node7"><a xlink:href="dir_4bb30ed846ea1df1fc4d16874a455d91.html" target="_top" xlink:title="equation_systems">
<polygon fill="#ffffff" stroke="#ff0000" points="225,-252 129,-252 129,-216 225,-216 225,-252"/>
<text text-anchor="middle" x="177" y="-231.5" font-family="Helvetica,sans-Serif" font-size="10.00" fill="#000000">equation_systems</text>
</a>
</g>
</g>
<!-- dir_112afea7a726e6a1d518c2be02377acb&#45;&gt;dir_4bb30ed846ea1df1fc4d16874a455d91 -->
<g id="edge4" class="edge">
<title>dir_112afea7a726e6a1d518c2be02377acb&#45;&gt;dir_4bb30ed846ea1df1fc4d16874a455d91</title>
<path fill="none" stroke="#000000" d="M82.0758,-290.0209C98.3643,-280.408 119.3846,-268.0025 137.5027,-257.3099"/>
<polygon fill="#000000" stroke="#000000" points="139.2973,-260.3149 146.1305,-252.2181 135.7395,-254.2864 139.2973,-260.3149"/>
<g id="a_edge4&#45;headlabel"><a xlink:href="dir_000024_000002.html" target="_top" xlink:title="1">
<text text-anchor="middle" x="137.6447" y="-262.087" font-family="Helvetica,sans-Serif" font-size="10.00" fill="#000000">1</text>
</a>
</g>
</g>
<!-- dir_112afea7a726e6a1d518c2be02377acb&#45;&gt;dir_3d3615e9a999cab4f3407307569d6ced -->
<g id="edge5" class="edge">
<title>dir_112afea7a726e6a1d518c2be02377acb&#45;&gt;dir_3d3615e9a999cab4f3407307569d6ced</title>
<path fill="none" stroke="#000000" d="M60.3958,-287.7716C72.8739,-247.1391 106.1971,-146.8292 152,-72 157.9442,-62.2888 165.5945,-52.549 172.9434,-44.0677"/>
<polygon fill="#000000" stroke="#000000" points="175.7752,-46.1515 179.8314,-36.3639 170.5569,-41.4858 175.7752,-46.1515"/>
<g id="a_edge5&#45;headlabel"><a xlink:href="dir_000024_000009.html" target="_top" xlink:title="8">
<text text-anchor="middle" x="175.496" y="-48.2237" font-family="Helvetica,sans-Serif" font-size="10.00" fill="#000000">8</text>
</a>
</g>
</g>
<!-- dir_0c368f76a33d967d5b838b5681461de6&#45;&gt;dir_e4cd57caa88bf1f4e1bf9521bc47c3c0 -->
<g id="edge8" class="edge">
<title>dir_0c368f76a33d967d5b838b5681461de6&#45;&gt;dir_e4cd57caa88bf1f4e1bf9521bc47c3c0</title>
<path fill="none" stroke="#000000" d="M251.9518,-287.797C256.8151,-277.461 262.6963,-264.1892 267,-252 274.2009,-231.6052 280.4286,-207.9545 284.7344,-190.0171"/>
<polygon fill="#000000" stroke="#000000" points="288.1647,-190.7189 287.0404,-180.1839 281.3496,-189.1206 288.1647,-190.7189"/>
<g id="a_edge8&#45;headlabel"><a xlink:href="dir_000001_000005.html" target="_top" xlink:title="21">
<text text-anchor="middle" x="290.1084" y="-192.3667" font-family="Helvetica,sans-Serif" font-size="10.00" fill="#000000">21</text>
</a>
</g>
</g>
<!-- dir_0c368f76a33d967d5b838b5681461de6&#45;&gt;dir_7f7a014517bfe31ea45620a6a947e37b -->
<g id="edge9" class="edge">
<title>dir_0c368f76a33d967d5b838b5681461de6&#45;&gt;dir_7f7a014517bfe31ea45620a6a947e37b</title>
<path fill="none" stroke="#000000" d="M242.1436,-287.9342C241.0556,-269.6643 238.72,-240.6774 234,-216 227.4264,-181.631 215.7566,-143.0775 207.4873,-117.7742"/>
<polygon fill="#000000" stroke="#000000" points="210.7543,-116.5062 204.2852,-108.1157 204.1099,-118.7091 210.7543,-116.5062"/>
<g id="a_edge9&#45;headlabel"><a xlink:href="dir_000001_000011.html" target="_top" xlink:title="1">
<text text-anchor="middle" x="214.5804" y="-116.5248" font-family="Helvetica,sans-Serif" font-size="10.00" fill="#000000">1</text>
</a>
</g>
</g>
<!-- dir_0c368f76a33d967d5b838b5681461de6&#45;&gt;dir_4bb30ed846ea1df1fc4d16874a455d91 -->
<g id="edge11" class="edge">
<title>dir_0c368f76a33d967d5b838b5681461de6&#45;&gt;dir_4bb30ed846ea1df1fc4d16874a455d91</title>
<path fill="none" stroke="#000000" d="M220.393,-287.8314C211.8974,-279.454 202.4486,-269.3531 194.4723,-260.1749"/>
<polygon fill="#000000" stroke="#000000" points="197.0349,-257.785 187.9028,-252.4133 191.6918,-262.3074 197.0349,-257.785"/>
<g id="a_edge11&#45;headlabel"><a xlink:href="dir_000001_000002.html" target="_top" xlink:title="3">
<text text-anchor="middle" x="201.5244" y="-256.1945" font-family="Helvetica,sans-Serif" font-size="10.00" fill="#000000">3</text>
</a>
</g>
</g>
<!-- dir_0c368f76a33d967d5b838b5681461de6&#45;&gt;dir_3d3615e9a999cab4f3407307569d6ced -->
<g id="edge10" class="edge">
<title>dir_0c368f76a33d967d5b838b5681461de6&#45;&gt;dir_3d3615e9a999cab4f3407307569d6ced</title>
<path fill="none" stroke="#000000" d="M263.797,-287.8105C294.5114,-258.6125 346.3883,-198.9744 327,-144 310.6772,-97.7176 265.9734,-60.8707 233.7675,-39.2583"/>
<polygon fill="#000000" stroke="#000000" points="235.337,-36.1033 225.0491,-33.5713 231.5125,-41.9662 235.337,-36.1033"/>
<g id="a_edge10&#45;headlabel"><a xlink:href="dir_000001_000009.html" target="_top" xlink:title="7">
<text text-anchor="middle" x="239.8989" y="-33.1891" font-family="Helvetica,sans-Serif" font-size="10.00" fill="#000000">7</text>
</a>
</g>
</g>
<!-- dir_e4cd57caa88bf1f4e1bf9521bc47c3c0&#45;&gt;dir_7f7a014517bfe31ea45620a6a947e37b -->
<g id="edge12" class="edge">
<title>dir_e4cd57caa88bf1f4e1bf9521bc47c3c0&#45;&gt;dir_7f7a014517bfe31ea45620a6a947e37b</title>
<path fill="none" stroke="#000000" d="M267.5322,-143.8314C255.9673,-134.8779 241.8596,-123.9558 229.3817,-114.2955"/>
<polygon fill="#000000" stroke="#000000" points="231.5102,-111.5171 221.4603,-108.1628 227.225,-117.0521 231.5102,-111.5171"/>
<g id="a_edge12&#45;headlabel"><a xlink:href="dir_000005_000011.html" target="_top" xlink:title="1">
<text text-anchor="middle" x="236.0906" y="-108.9725" font-family="Helvetica,sans-Serif" font-size="10.00" fill="#000000">1</text>
</a>
</g>
</g>
<!-- dir_e4cd57caa88bf1f4e1bf9521bc47c3c0&#45;&gt;dir_3d3615e9a999cab4f3407307569d6ced -->
<g id="edge13" class="edge">
<title>dir_e4cd57caa88bf1f4e1bf9521bc47c3c0&#45;&gt;dir_3d3615e9a999cab4f3407307569d6ced</title>
<path fill="none" stroke="#000000" d="M272.9649,-143.9913C259.3595,-125.7658 241.1252,-96.8128 225,-72 219.3188,-63.258 213.0413,-53.7807 207.7658,-45.2418"/>
<polygon fill="#000000" stroke="#000000" points="210.6364,-43.2218 202.5102,-36.4236 204.6233,-46.8056 210.6364,-43.2218"/>
<g id="a_edge13&#45;headlabel"><a xlink:href="dir_000005_000009.html" target="_top" xlink:title="14">
<text text-anchor="middle" x="214.9156" y="-42.356" font-family="Helvetica,sans-Serif" font-size="10.00" fill="#000000">14</text>
</a>
</g>
</g>
<!-- dir_7f7a014517bfe31ea45620a6a947e37b&#45;&gt;dir_3d3615e9a999cab4f3407307569d6ced -->
<g id="edge14" class="edge">
<title>dir_7f7a014517bfe31ea45620a6a947e37b&#45;&gt;dir_3d3615e9a999cab4f3407307569d6ced</title>
<path fill="none" stroke="#000000" d="M198,-71.8314C198,-64.131 198,-54.9743 198,-46.4166"/>
<polygon fill="#000000" stroke="#000000" points="201.5001,-46.4132 198,-36.4133 194.5001,-46.4133 201.5001,-46.4132"/>
<g id="a_edge14&#45;headlabel"><a xlink:href="dir_000011_000009.html" target="_top" xlink:title="1">
<text text-anchor="middle" x="204.3393" y="-47.5079" font-family="Helvetica,sans-Serif" font-size="10.00" fill="#000000">1</text>
</a>
</g>
</g>
<!-- dir_4bb30ed846ea1df1fc4d16874a455d91&#45;&gt;dir_0c368f76a33d967d5b838b5681461de6 -->
<g id="edge16" class="edge">
<title>dir_4bb30ed846ea1df1fc4d16874a455d91&#45;&gt;dir_0c368f76a33d967d5b838b5681461de6</title>
<path fill="none" stroke="#000000" d="M199.6011,-252.1628C208.1616,-260.6038 217.6906,-270.7956 225.706,-280.0303"/>
<polygon fill="#000000" stroke="#000000" points="223.1701,-282.4521 232.2978,-287.8314 228.5169,-277.9341 223.1701,-282.4521"/>
<g id="a_edge16&#45;headlabel"><a xlink:href="dir_000002_000001.html" target="_top" xlink:title="2">
<text text-anchor="middle" x="218.6814" y="-279.039" font-family="Helvetica,sans-Serif" font-size="10.00" fill="#000000">2</text>
</a>
</g>
</g>
<!-- dir_4bb30ed846ea1df1fc4d16874a455d91&#45;&gt;dir_e4cd57caa88bf1f4e1bf9521bc47c3c0 -->
<g id="edge17" class="edge">
<title>dir_4bb30ed846ea1df1fc4d16874a455d91&#45;&gt;dir_e4cd57caa88bf1f4e1bf9521bc47c3c0</title>
<path fill="none" stroke="#000000" d="M205.767,-215.8314C220.7935,-206.3409 239.3223,-194.6386 255.2617,-184.5716"/>
<polygon fill="#000000" stroke="#000000" points="257.2259,-187.4707 263.8119,-179.1715 253.488,-181.5522 257.2259,-187.4707"/>
<g id="a_edge17&#45;headlabel"><a xlink:href="dir_000002_000005.html" target="_top" xlink:title="10">
<text text-anchor="middle" x="255.7029" y="-189.2907" font-family="Helvetica,sans-Serif" font-size="10.00" fill="#000000">10</text>
</a>
</g>
</g>
<!-- dir_4bb30ed846ea1df1fc4d16874a455d91&#45;&gt;dir_7f7a014517bfe31ea45620a6a947e37b -->
<g id="edge18" class="edge">
<title>dir_4bb30ed846ea1df1fc4d16874a455d91&#45;&gt;dir_7f7a014517bfe31ea45620a6a947e37b</title>
<path fill="none" stroke="#000000" d="M179.6597,-215.7623C183.2415,-191.201 189.6514,-147.2474 193.865,-118.3541"/>
<polygon fill="#000000" stroke="#000000" points="197.3821,-118.4901 195.3619,-108.0896 190.4554,-117.4798 197.3821,-118.4901"/>
<g id="a_edge18&#45;headlabel"><a xlink:href="dir_000002_000011.html" target="_top" xlink:title="1">
<text text-anchor="middle" x="199.6731" y="-119.9567" font-family="Helvetica,sans-Serif" font-size="10.00" fill="#000000">1</text>
</a>
</g>
</g>
<!-- dir_4bb30ed846ea1df1fc4d16874a455d91&#45;&gt;dir_3d3615e9a999cab4f3407307569d6ced -->
<g id="edge19" class="edge">
<title>dir_4bb30ed846ea1df1fc4d16874a455d91&#45;&gt;dir_3d3615e9a999cab4f3407307569d6ced</title>
<path fill="none" stroke="#000000" d="M170.8339,-215.5652C161.5927,-185.0167 146.7758,-122.282 162,-72 164.9564,-62.2355 170.3252,-52.6229 176.03,-44.2762"/>
<polygon fill="#000000" stroke="#000000" points="178.9414,-46.2239 182.0095,-36.0831 173.2871,-42.0973 178.9414,-46.2239"/>
<g id="a_edge19&#45;headlabel"><a xlink:href="dir_000002_000009.html" target="_top" xlink:title="47">
<text text-anchor="middle" x="179.1158" y="-48.3013" font-family="Helvetica,sans-Serif" font-size="10.00" fill="#000000">47</text>
</a>
</g>
</g>
<!-- dir_3d3615e9a999cab4f3407307569d6ced&#45;&gt;dir_e4cd57caa88bf1f4e1bf9521bc47c3c0 -->
<g id="edge15" class="edge">
<title>dir_3d3615e9a999cab4f3407307569d6ced&#45;&gt;dir_e4cd57caa88bf1f4e1bf9521bc47c3c0</title>
<path fill="none" stroke="#000000" d="M218.364,-36.4236C226.4221,-46.8286 235.2639,-60.096 243,-72 256.6056,-92.9358 271.7128,-116.8191 281.6343,-134.7191"/>
<polygon fill="#000000" stroke="#000000" points="278.7817,-136.8089 286.5704,-143.9913 284.9607,-133.5195 278.7817,-136.8089"/>
<g id="a_edge15&#45;headlabel"><a xlink:href="dir_000009_000005.html" target="_top" xlink:title="1">
<text text-anchor="middle" x="274.5864" y="-132.4701" font-family="Helvetica,sans-Serif" font-size="10.00" fill="#000000">1</text>
</a>
</g>
</g>
</g>
</svg>
