<?xml version="1.0" encoding="UTF-8" standalone="no"?>
<!DOCTYPE svg PUBLIC "-//W3C//DTD SVG 1.1//EN"
 "http://www.w3.org/Graphics/SVG/1.1/DTD/svg11.dtd">
<!-- Generated by graphviz version 2.40.1 (20161225.0304)
 -->
<!-- Title: wind_energy Pages: 1 -->
<svg width="261pt" height="367pt"
 viewBox="0.00 0.00 261.22 367.00" xmlns="http://www.w3.org/2000/svg" xmlns:xlink="http://www.w3.org/1999/xlink">
<g id="graph0" class="graph" transform="scale(1 1) rotate(0) translate(4 363)">
<title>wind_energy</title>
<polygon fill="#ffffff" stroke="transparent" points="-4,4 -4,-363 257.2161,-363 257.2161,4 -4,4"/>
<g id="clust1" class="cluster">
<title>clusterdir_d85575251dd712327fe3cf057fa568b4</title>
<g id="a_clust1"><a xlink:href="dir_d85575251dd712327fe3cf057fa568b4.html" target="_top" xlink:title="amr&#45;wind">
<polygon fill="#ddddee" stroke="#000000" points="51.2161,-280 51.2161,-351 139.2161,-351 139.2161,-280 51.2161,-280"/>
<text text-anchor="middle" x="95.2161" y="-339" font-family="Helvetica,sans-Serif" font-size="10.00" fill="#000000">amr&#45;wind</text>
</a>
</g>
</g>
<!-- dir_0c368f76a33d967d5b838b5681461de6 -->
<g id="node1" class="node">
<title>dir_0c368f76a33d967d5b838b5681461de6</title>
<g id="a_node1"><a xlink:href="dir_0c368f76a33d967d5b838b5681461de6.html" target="_top" xlink:title="wind_energy">
<polygon fill="#eeeeff" stroke="#000000" points="130.7161,-324 59.7161,-324 59.7161,-288 130.7161,-288 130.7161,-324"/>
<text text-anchor="middle" x="95.2161" y="-303.5" font-family="Helvetica,sans-Serif" font-size="10.00" fill="#000000">wind_energy</text>
</a>
</g>
</g>
<!-- dir_e4cd57caa88bf1f4e1bf9521bc47c3c0 -->
<g id="node2" class="node">
<title>dir_e4cd57caa88bf1f4e1bf9521bc47c3c0</title>
<g id="a_node2"><a xlink:href="dir_e4cd57caa88bf1f4e1bf9521bc47c3c0.html" target="_top" xlink:title="utilities">
<polygon fill="#ffffff" stroke="#ff0000" points="67.2161,-180 13.2161,-180 13.2161,-144 67.2161,-144 67.2161,-180"/>
<text text-anchor="middle" x="40.2161" y="-159.5" font-family="Helvetica,sans-Serif" font-size="10.00" fill="#000000">utilities</text>
</a>
</g>
</g>
<!-- dir_0c368f76a33d967d5b838b5681461de6&#45;&gt;dir_e4cd57caa88bf1f4e1bf9521bc47c3c0 -->
<g id="edge1" class="edge">
<title>dir_0c368f76a33d967d5b838b5681461de6&#45;&gt;dir_e4cd57caa88bf1f4e1bf9521bc47c3c0</title>
<path fill="none" stroke="#000000" d="M88.2504,-287.7623C78.7867,-262.9846 61.7851,-218.4714 50.7555,-189.5939"/>
<polygon fill="#000000" stroke="#000000" points="53.9631,-188.1826 47.1254,-180.0896 47.4238,-190.6803 53.9631,-188.1826"/>
<g id="a_edge1&#45;headlabel"><a xlink:href="dir_000001_000005.html" target="_top" xlink:title="21">
<text text-anchor="middle" x="57.898" y="-188.0275" font-family="Helvetica,sans-Serif" font-size="10.00" fill="#000000">21</text>
</a>
</g>
</g>
<!-- dir_7f7a014517bfe31ea45620a6a947e37b -->
<g id="node3" class="node">
<title>dir_7f7a014517bfe31ea45620a6a947e37b</title>
<g id="a_node3"><a xlink:href="dir_7f7a014517bfe31ea45620a6a947e37b.html" target="_top" xlink:title="fvm">
<polygon fill="none" stroke="#000000" points="131.2161,-108 77.2161,-108 77.2161,-72 131.2161,-72 131.2161,-108"/>
<text text-anchor="middle" x="104.2161" y="-87.5" font-family="Helvetica,sans-Serif" font-size="10.00" fill="#000000">fvm</text>
</a>
</g>
</g>
<!-- dir_0c368f76a33d967d5b838b5681461de6&#45;&gt;dir_7f7a014517bfe31ea45620a6a947e37b -->
<g id="edge2" class="edge">
<title>dir_0c368f76a33d967d5b838b5681461de6&#45;&gt;dir_7f7a014517bfe31ea45620a6a947e37b</title>
<path fill="none" stroke="#000000" d="M95.968,-287.9555C97.5331,-250.3938 101.1514,-163.5541 103.0324,-118.4103"/>
<polygon fill="#000000" stroke="#000000" points="106.5407,-118.2821 103.4601,-108.1451 99.5467,-117.9907 106.5407,-118.2821"/>
<g id="a_edge2&#45;headlabel"><a xlink:href="dir_000001_000011.html" target="_top" xlink:title="1">
<text text-anchor="middle" x="109.2279" y="-119.4918" font-family="Helvetica,sans-Serif" font-size="10.00" fill="#000000">1</text>
</a>
</g>
</g>
<!-- dir_a816a247b59c90f95e41afe29b966a18 -->
<g id="node4" class="node">
<title>dir_a816a247b59c90f95e41afe29b966a18</title>
<g id="a_node4"><a xlink:href="dir_a816a247b59c90f95e41afe29b966a18.html" target="_top" xlink:title="diffusion">
<polygon fill="none" stroke="#000000" points="253.2161,-180 199.2161,-180 199.2161,-144 253.2161,-144 253.2161,-180"/>
<text text-anchor="middle" x="226.2161" y="-159.5" font-family="Helvetica,sans-Serif" font-size="10.00" fill="#000000">diffusion</text>
</a>
</g>
</g>
<!-- dir_0c368f76a33d967d5b838b5681461de6&#45;&gt;dir_a816a247b59c90f95e41afe29b966a18 -->
<g id="edge3" class="edge">
<title>dir_0c368f76a33d967d5b838b5681461de6&#45;&gt;dir_a816a247b59c90f95e41afe29b966a18</title>
<path fill="none" stroke="#000000" d="M130.9135,-302.3788C162.4371,-297.0791 206.6433,-284.042 228.2161,-252 240.2942,-234.0606 238.7308,-209.2193 234.7444,-190.1789"/>
<polygon fill="#000000" stroke="#000000" points="238.1029,-189.1763 232.3516,-180.2784 231.2988,-190.8208 238.1029,-189.1763"/>
<g id="a_edge3&#45;headlabel"><a xlink:href="dir_000001_000015.html" target="_top" xlink:title="1">
<text text-anchor="middle" x="241.7071" y="-189.5034" font-family="Helvetica,sans-Serif" font-size="10.00" fill="#000000">1</text>
</a>
</g>
</g>
<!-- dir_3d3615e9a999cab4f3407307569d6ced -->
<g id="node5" class="node">
<title>dir_3d3615e9a999cab4f3407307569d6ced</title>
<g id="a_node5"><a xlink:href="dir_3d3615e9a999cab4f3407307569d6ced.html" target="_top" xlink:title="core">
<polygon fill="#ffffff" stroke="#ff0000" points="99.2161,-36 45.2161,-36 45.2161,0 99.2161,0 99.2161,-36"/>
<text text-anchor="middle" x="72.2161" y="-15.5" font-family="Helvetica,sans-Serif" font-size="10.00" fill="#000000">core</text>
</a>
</g>
</g>
<!-- dir_0c368f76a33d967d5b838b5681461de6&#45;&gt;dir_3d3615e9a999cab4f3407307569d6ced -->
<g id="edge4" class="edge">
<title>dir_0c368f76a33d967d5b838b5681461de6&#45;&gt;dir_3d3615e9a999cab4f3407307569d6ced</title>
<path fill="none" stroke="#000000" d="M76.0852,-287.6722C53.8277,-264.8886 18.3296,-223.6469 4.2161,-180 -11.7212,-130.7125 23.411,-75.5263 48.8696,-43.9574"/>
<polygon fill="#000000" stroke="#000000" points="51.7166,-46.0078 55.4195,-36.0811 46.3344,-41.5319 51.7166,-46.0078"/>
<g id="a_edge4&#45;headlabel"><a xlink:href="dir_000001_000009.html" target="_top" xlink:title="7">
<text text-anchor="middle" x="51.6012" y="-48.087" font-family="Helvetica,sans-Serif" font-size="10.00" fill="#000000">7</text>
</a>
</g>
</g>
<!-- dir_4bb30ed846ea1df1fc4d16874a455d91 -->
<g id="node6" class="node">
<title>dir_4bb30ed846ea1df1fc4d16874a455d91</title>
<g id="a_node6"><a xlink:href="dir_4bb30ed846ea1df1fc4d16874a455d91.html" target="_top" xlink:title="equation_systems">
<polygon fill="#ffffff" stroke="#ff0000" points="219.2161,-252 123.2161,-252 123.2161,-216 219.2161,-216 219.2161,-252"/>
<text text-anchor="middle" x="171.2161" y="-231.5" font-family="Helvetica,sans-Serif" font-size="10.00" fill="#000000">equation_systems</text>
</a>
</g>
</g>
<!-- dir_0c368f76a33d967d5b838b5681461de6&#45;&gt;dir_4bb30ed846ea1df1fc4d16874a455d91 -->
<g id="edge5" class="edge">
<title>dir_0c368f76a33d967d5b838b5681461de6&#45;&gt;dir_4bb30ed846ea1df1fc4d16874a455d91</title>
<path fill="none" stroke="#000000" d="M114.3941,-287.8314C123.575,-279.1337 134.7168,-268.5783 144.6937,-259.1265"/>
<polygon fill="#000000" stroke="#000000" points="147.1918,-261.5811 152.0443,-252.1628 142.3776,-256.4995 147.1918,-261.5811"/>
<g id="a_edge5&#45;headlabel"><a xlink:href="dir_000001_000002.html" target="_top" xlink:title="3">
<text text-anchor="middle" x="146.535" y="-263.6145" font-family="Helvetica,sans-Serif" font-size="10.00" fill="#000000">3</text>
</a>
</g>
</g>
<!-- dir_e4cd57caa88bf1f4e1bf9521bc47c3c0&#45;&gt;dir_7f7a014517bfe31ea45620a6a947e37b -->
<g id="edge6" class="edge">
<title>dir_e4cd57caa88bf1f4e1bf9521bc47c3c0&#45;&gt;dir_7f7a014517bfe31ea45620a6a947e37b</title>
<path fill="none" stroke="#000000" d="M56.366,-143.8314C63.8878,-135.3694 72.9727,-125.1489 81.1965,-115.8971"/>
<polygon fill="#000000" stroke="#000000" points="83.8211,-118.2127 87.8488,-108.4133 78.5892,-113.5621 83.8211,-118.2127"/>
<g id="a_edge6&#45;headlabel"><a xlink:href="dir_000005_000011.html" target="_top" xlink:title="1">
<text text-anchor="middle" x="83.5551" y="-120.2856" font-family="Helvetica,sans-Serif" font-size="10.00" fill="#000000">1</text>
</a>
</g>
</g>
<!-- dir_e4cd57caa88bf1f4e1bf9521bc47c3c0&#45;&gt;dir_3d3615e9a999cab4f3407307569d6ced -->
<g id="edge7" class="edge">
<title>dir_e4cd57caa88bf1f4e1bf9521bc47c3c0&#45;&gt;dir_3d3615e9a999cab4f3407307569d6ced</title>
<path fill="none" stroke="#000000" d="M39.5958,-143.7623C42.6072,-119.0928 52.1705,-74.8598 60.5279,-45.9731"/>
<polygon fill="#000000" stroke="#000000" points="63.9726,-46.6755 63.5379,-36.0896 57.2762,-44.6361 63.9726,-46.6755"/>
<g id="a_edge7&#45;headlabel"><a xlink:href="dir_000005_000009.html" target="_top" xlink:title="11">
<text text-anchor="middle" x="65.6415" y="-48.4414" font-family="Helvetica,sans-Serif" font-size="10.00" fill="#000000">11</text>
</a>
</g>
</g>
<!-- dir_7f7a014517bfe31ea45620a6a947e37b&#45;&gt;dir_3d3615e9a999cab4f3407307569d6ced -->
<g id="edge8" class="edge">
<title>dir_7f7a014517bfe31ea45620a6a947e37b&#45;&gt;dir_3d3615e9a999cab4f3407307569d6ced</title>
<path fill="none" stroke="#000000" d="M96.1412,-71.8314C92.606,-63.8771 88.3802,-54.369 84.4705,-45.5723"/>
<polygon fill="#000000" stroke="#000000" points="87.6596,-44.1299 80.3998,-36.4133 81.2629,-46.9729 87.6596,-44.1299"/>
<g id="a_edge8&#45;headlabel"><a xlink:href="dir_000011_000009.html" target="_top" xlink:title="1">
<text text-anchor="middle" x="91.714" y="-43.7616" font-family="Helvetica,sans-Serif" font-size="10.00" fill="#000000">1</text>
</a>
</g>
</g>
<!-- dir_a816a247b59c90f95e41afe29b966a18&#45;&gt;dir_3d3615e9a999cab4f3407307569d6ced -->
<g id="edge9" class="edge">
<title>dir_a816a247b59c90f95e41afe29b966a18&#45;&gt;dir_3d3615e9a999cab4f3407307569d6ced</title>
<path fill="none" stroke="#000000" d="M221.9809,-143.9914C216.4958,-124.1425 205.1846,-92.3379 185.2161,-72 164.3301,-50.7276 133.4025,-36.7517 109.1807,-28.3584"/>
<polygon fill="#000000" stroke="#000000" points="110.1877,-25.0051 99.5947,-25.2026 107.9987,-31.6541 110.1877,-25.0051"/>
<g id="a_edge9&#45;headlabel"><a xlink:href="dir_000015_000009.html" target="_top" xlink:title="1">
<text text-anchor="middle" x="114.4898" y="-20.9322" font-family="Helvetica,sans-Serif" font-size="10.00" fill="#000000">1</text>
</a>
</g>
</g>
<!-- dir_3d3615e9a999cab4f3407307569d6ced&#45;&gt;dir_e4cd57caa88bf1f4e1bf9521bc47c3c0 -->
<g id="edge14" class="edge">
<title>dir_3d3615e9a999cab4f3407307569d6ced&#45;&gt;dir_e4cd57caa88bf1f4e1bf9521bc47c3c0</title>
<path fill="none" stroke="#000000" d="M72.8545,-36.0896C69.8693,-60.6805 60.3168,-104.905 51.9547,-133.8531"/>
<polygon fill="#000000" stroke="#000000" points="48.5022,-133.1766 48.9421,-143.7623 55.1996,-135.2127 48.5022,-133.1766"/>
<g id="a_edge14&#45;headlabel"><a xlink:href="dir_000009_000005.html" target="_top" xlink:title="1">
<text text-anchor="middle" x="46.8312" y="-126.4116" font-family="Helvetica,sans-Serif" font-size="10.00" fill="#000000">1</text>
</a>
</g>
</g>
<!-- dir_4bb30ed846ea1df1fc4d16874a455d91&#45;&gt;dir_e4cd57caa88bf1f4e1bf9521bc47c3c0 -->
<g id="edge10" class="edge">
<title>dir_4bb30ed846ea1df1fc4d16874a455d91&#45;&gt;dir_e4cd57caa88bf1f4e1bf9521bc47c3c0</title>
<path fill="none" stroke="#000000" d="M138.1593,-215.8314C119.3145,-205.4739 95.6763,-192.4819 76.3436,-181.8563"/>
<polygon fill="#000000" stroke="#000000" points="77.968,-178.7553 67.5186,-177.0059 74.5963,-184.8898 77.968,-178.7553"/>
<g id="a_edge10&#45;headlabel"><a xlink:href="dir_000002_000005.html" target="_top" xlink:title="10">
<text text-anchor="middle" x="82.4857" y="-175.4985" font-family="Helvetica,sans-Serif" font-size="10.00" fill="#000000">10</text>
</a>
</g>
</g>
<!-- dir_4bb30ed846ea1df1fc4d16874a455d91&#45;&gt;dir_7f7a014517bfe31ea45620a6a947e37b -->
<g id="edge11" class="edge">
<title>dir_4bb30ed846ea1df1fc4d16874a455d91&#45;&gt;dir_7f7a014517bfe31ea45620a6a947e37b</title>
<path fill="none" stroke="#000000" d="M162.7305,-215.7623C151.1517,-190.8764 130.31,-146.0822 116.8794,-117.2165"/>
<polygon fill="#000000" stroke="#000000" points="120.0247,-115.6798 112.6328,-108.0896 113.6781,-118.6328 120.0247,-115.6798"/>
<g id="a_edge11&#45;headlabel"><a xlink:href="dir_000002_000011.html" target="_top" xlink:title="1">
<text text-anchor="middle" x="124.1153" y="-115.2412" font-family="Helvetica,sans-Serif" font-size="10.00" fill="#000000">1</text>
</a>
</g>
</g>
<!-- dir_4bb30ed846ea1df1fc4d16874a455d91&#45;&gt;dir_a816a247b59c90f95e41afe29b966a18 -->
<g id="edge12" class="edge">
<title>dir_4bb30ed846ea1df1fc4d16874a455d91&#45;&gt;dir_a816a247b59c90f95e41afe29b966a18</title>
<path fill="none" stroke="#000000" d="M185.095,-215.8314C191.4297,-207.5386 199.0545,-197.557 206.0087,-188.4533"/>
<polygon fill="#000000" stroke="#000000" points="208.8614,-190.4847 212.1504,-180.4133 203.2987,-186.2353 208.8614,-190.4847"/>
<g id="a_edge12&#45;headlabel"><a xlink:href="dir_000002_000015.html" target="_top" xlink:title="1">
<text text-anchor="middle" x="208.9356" y="-192.5647" font-family="Helvetica,sans-Serif" font-size="10.00" fill="#000000">1</text>
</a>
</g>
</g>
<!-- dir_4bb30ed846ea1df1fc4d16874a455d91&#45;&gt;dir_3d3615e9a999cab4f3407307569d6ced -->
<g id="edge13" class="edge">
<title>dir_4bb30ed846ea1df1fc4d16874a455d91&#45;&gt;dir_3d3615e9a999cab4f3407307569d6ced</title>
<path fill="none" stroke="#000000" d="M171.7176,-215.5298C171.7456,-183.8334 168.0955,-118.053 140.2161,-72 132.2237,-58.7975 119.7489,-47.5187 107.655,-38.7363"/>
<polygon fill="#000000" stroke="#000000" points="109.626,-35.844 99.4029,-33.062 105.6599,-41.612 109.626,-35.844"/>
<g id="a_edge13&#45;headlabel"><a xlink:href="dir_000002_000009.html" target="_top" xlink:title="47">
<text text-anchor="middle" x="114.1967" y="-33.0411" font-family="Helvetica,sans-Serif" font-size="10.00" fill="#000000">47</text>
</a>
</g>
</g>
</g>
</svg>
