<?xml version="1.0" encoding="UTF-8" standalone="no"?>
<!DOCTYPE svg PUBLIC "-//W3C//DTD SVG 1.1//EN"
 "http://www.w3.org/Graphics/SVG/1.1/DTD/svg11.dtd">
<!-- Generated by graphviz version 2.40.1 (20161225.0304)
 -->
<!-- Title: turbulence Pages: 1 -->
<svg width="306pt" height="303pt"
 viewBox="0.00 0.00 306.00 303.00" xmlns="http://www.w3.org/2000/svg" xmlns:xlink="http://www.w3.org/1999/xlink">
<g id="graph0" class="graph" transform="scale(1 1) rotate(0) translate(4 299)">
<title>turbulence</title>
<polygon fill="#ffffff" stroke="transparent" points="-4,4 -4,-299 302,-299 302,4 -4,4"/>
<g id="clust1" class="cluster">
<title>clusterdir_d85575251dd712327fe3cf057fa568b4</title>
<g id="a_clust1"><a xlink:href="dir_d85575251dd712327fe3cf057fa568b4.html" target="_top" xlink:title="amr&#45;wind">
<polygon fill="#ddddee" stroke="#000000" points="100,-128 100,-287 194,-287 194,-128 100,-128"/>
<text text-anchor="middle" x="147" y="-275" font-family="Helvetica,sans-Serif" font-size="10.00" fill="#000000">amr&#45;wind</text>
</a>
</g>
</g>
<g id="clust2" class="cluster">
<title>clusterdir_9ff815a534beac751fa88e427dbab695</title>
<g id="a_clust2"><a xlink:href="dir_9ff815a534beac751fa88e427dbab695.html" target="_top">
<polygon fill="#eeeeff" stroke="#000000" points="108,-136 108,-260 186,-260 186,-136 108,-136"/>
</a>
</g>
</g>
<!-- dir_9ff815a534beac751fa88e427dbab695 -->
<g id="node1" class="node">
<title>dir_9ff815a534beac751fa88e427dbab695</title>
<text text-anchor="middle" x="147" y="-231.5" font-family="Helvetica,sans-Serif" font-size="10.00" fill="#000000">turbulence</text>
</g>
<!-- dir_d4759c65d88ac8462151b54b86eeee49 -->
<g id="node2" class="node">
<title>dir_d4759c65d88ac8462151b54b86eeee49</title>
<g id="a_node2"><a xlink:href="dir_d4759c65d88ac8462151b54b86eeee49.html" target="_top" xlink:title="LES">
<polygon fill="#ffffff" stroke="#000000" points="178,-180 124,-180 124,-144 178,-144 178,-180"/>
<text text-anchor="middle" x="151" y="-159.5" font-family="Helvetica,sans-Serif" font-size="10.00" fill="#000000">LES</text>
</a>
</g>
</g>
<!-- dir_9ff815a534beac751fa88e427dbab695&#45;&gt;dir_d4759c65d88ac8462151b54b86eeee49 -->
<g id="edge2" class="edge">
<title>dir_9ff815a534beac751fa88e427dbab695&#45;&gt;dir_d4759c65d88ac8462151b54b86eeee49</title>
<path fill="none" stroke="#000000" d="M148.0094,-215.8314C148.4372,-208.131 148.9459,-198.9743 149.4213,-190.4166"/>
<polygon fill="#000000" stroke="#000000" points="152.9169,-190.592 149.977,-180.4133 145.9276,-190.2037 152.9169,-190.592"/>
<g id="a_edge2&#45;headlabel"><a xlink:href="dir_000021_000027.html" target="_top" xlink:title="1">
<text text-anchor="middle" x="155.5525" y="-191.8386" font-family="Helvetica,sans-Serif" font-size="10.00" fill="#000000">1</text>
</a>
</g>
</g>
<!-- dir_e4cd57caa88bf1f4e1bf9521bc47c3c0 -->
<g id="node3" class="node">
<title>dir_e4cd57caa88bf1f4e1bf9521bc47c3c0</title>
<g id="a_node3"><a xlink:href="dir_e4cd57caa88bf1f4e1bf9521bc47c3c0.html" target="_top" xlink:title="utilities">
<polygon fill="#ffffff" stroke="#ff0000" points="256,-180 202,-180 202,-144 256,-144 256,-180"/>
<text text-anchor="middle" x="229" y="-159.5" font-family="Helvetica,sans-Serif" font-size="10.00" fill="#000000">utilities</text>
</a>
</g>
</g>
<!-- dir_9ff815a534beac751fa88e427dbab695&#45;&gt;dir_e4cd57caa88bf1f4e1bf9521bc47c3c0 -->
<g id="edge1" class="edge">
<title>dir_9ff815a534beac751fa88e427dbab695&#45;&gt;dir_e4cd57caa88bf1f4e1bf9521bc47c3c0</title>
<path fill="none" stroke="#000000" d="M167.6921,-215.8314C177.6948,-207.0485 189.855,-196.3712 200.6999,-186.8489"/>
<polygon fill="#000000" stroke="#000000" points="203.1094,-189.3909 208.3146,-180.1628 198.4908,-184.1308 203.1094,-189.3909"/>
<g id="a_edge1&#45;headlabel"><a xlink:href="dir_000021_000005.html" target="_top" xlink:title="1">
<text text-anchor="middle" x="202.2817" y="-191.3962" font-family="Helvetica,sans-Serif" font-size="10.00" fill="#000000">1</text>
</a>
</g>
</g>
<!-- dir_7b7e55eaa727ae9c717abfc097345a8f -->
<g id="node7" class="node">
<title>dir_7b7e55eaa727ae9c717abfc097345a8f</title>
<g id="a_node7"><a xlink:href="dir_7b7e55eaa727ae9c717abfc097345a8f.html" target="_top" xlink:title="transport_models">
<polygon fill="none" stroke="#000000" points="92,-180 0,-180 0,-144 92,-144 92,-180"/>
<text text-anchor="middle" x="46" y="-159.5" font-family="Helvetica,sans-Serif" font-size="10.00" fill="#000000">transport_models</text>
</a>
</g>
</g>
<!-- dir_9ff815a534beac751fa88e427dbab695&#45;&gt;dir_7b7e55eaa727ae9c717abfc097345a8f -->
<g id="edge3" class="edge">
<title>dir_9ff815a534beac751fa88e427dbab695&#45;&gt;dir_7b7e55eaa727ae9c717abfc097345a8f</title>
<path fill="none" stroke="#000000" d="M121.5134,-215.8314C108.8341,-206.7927 93.3404,-195.7476 79.6945,-186.0198"/>
<polygon fill="#000000" stroke="#000000" points="81.6529,-183.1176 71.4784,-180.1628 77.5895,-188.8176 81.6529,-183.1176"/>
<g id="a_edge3&#45;headlabel"><a xlink:href="dir_000021_000010.html" target="_top" xlink:title="2">
<text text-anchor="middle" x="86.228" y="-180.3922" font-family="Helvetica,sans-Serif" font-size="10.00" fill="#000000">2</text>
</a>
</g>
</g>
<!-- dir_7f7a014517bfe31ea45620a6a947e37b -->
<g id="node4" class="node">
<title>dir_7f7a014517bfe31ea45620a6a947e37b</title>
<g id="a_node4"><a xlink:href="dir_7f7a014517bfe31ea45620a6a947e37b.html" target="_top" xlink:title="fvm">
<polygon fill="none" stroke="#000000" points="271,-108 217,-108 217,-72 271,-72 271,-108"/>
<text text-anchor="middle" x="244" y="-87.5" font-family="Helvetica,sans-Serif" font-size="10.00" fill="#000000">fvm</text>
</a>
</g>
</g>
<!-- dir_d4759c65d88ac8462151b54b86eeee49&#45;&gt;dir_7f7a014517bfe31ea45620a6a947e37b -->
<g id="edge6" class="edge">
<title>dir_d4759c65d88ac8462151b54b86eeee49&#45;&gt;dir_7f7a014517bfe31ea45620a6a947e37b</title>
<path fill="none" stroke="#000000" d="M173.0999,-143.834C179.48,-138.6648 186.4803,-133.0645 193,-128 198.8151,-123.4828 205.0614,-118.7404 211.1196,-114.1966"/>
<polygon fill="#000000" stroke="#000000" points="213.2839,-116.9487 219.206,-108.1636 209.0979,-111.3381 213.2839,-116.9487"/>
<g id="a_edge6&#45;headlabel"><a xlink:href="dir_000027_000011.html" target="_top" xlink:title="3">
<text text-anchor="middle" x="212.1006" y="-118.8739" font-family="Helvetica,sans-Serif" font-size="10.00" fill="#000000">3</text>
</a>
</g>
</g>
<!-- dir_3d3615e9a999cab4f3407307569d6ced -->
<g id="node5" class="node">
<title>dir_3d3615e9a999cab4f3407307569d6ced</title>
<g id="a_node5"><a xlink:href="dir_3d3615e9a999cab4f3407307569d6ced.html" target="_top" xlink:title="core">
<polygon fill="none" stroke="#000000" points="216,-36 162,-36 162,0 216,0 216,-36"/>
<text text-anchor="middle" x="189" y="-15.5" font-family="Helvetica,sans-Serif" font-size="10.00" fill="#000000">core</text>
</a>
</g>
</g>
<!-- dir_d4759c65d88ac8462151b54b86eeee49&#45;&gt;dir_3d3615e9a999cab4f3407307569d6ced -->
<g id="edge7" class="edge">
<title>dir_d4759c65d88ac8462151b54b86eeee49&#45;&gt;dir_3d3615e9a999cab4f3407307569d6ced</title>
<path fill="none" stroke="#000000" d="M155.8127,-143.7623C162.3227,-119.0928 173.9953,-74.8598 181.6182,-45.9731"/>
<polygon fill="#000000" stroke="#000000" points="185.0589,-46.6517 184.2264,-36.0896 178.2906,-44.8656 185.0589,-46.6517"/>
<g id="a_edge7&#45;headlabel"><a xlink:href="dir_000027_000009.html" target="_top" xlink:title="1">
<text text-anchor="middle" x="186.8871" y="-48.3517" font-family="Helvetica,sans-Serif" font-size="10.00" fill="#000000">1</text>
</a>
</g>
</g>
<!-- dir_4bb30ed846ea1df1fc4d16874a455d91 -->
<g id="node6" class="node">
<title>dir_4bb30ed846ea1df1fc4d16874a455d91</title>
<g id="a_node6"><a xlink:href="dir_4bb30ed846ea1df1fc4d16874a455d91.html" target="_top" xlink:title="equation_systems">
<polygon fill="#ffffff" stroke="#ff0000" points="298,-252 202,-252 202,-216 298,-216 298,-252"/>
<text text-anchor="middle" x="250" y="-231.5" font-family="Helvetica,sans-Serif" font-size="10.00" fill="#000000">equation_systems</text>
</a>
</g>
</g>
<!-- dir_d4759c65d88ac8462151b54b86eeee49&#45;&gt;dir_4bb30ed846ea1df1fc4d16874a455d91 -->
<g id="edge8" class="edge">
<title>dir_d4759c65d88ac8462151b54b86eeee49&#45;&gt;dir_4bb30ed846ea1df1fc4d16874a455d91</title>
<path fill="none" stroke="#000000" d="M175.9739,-180.1628C188.2837,-189.1154 203.3014,-200.0374 216.5851,-209.6982"/>
<polygon fill="#000000" stroke="#000000" points="214.8721,-212.7802 225.0181,-215.8314 218.9894,-207.119 214.8721,-212.7802"/>
<g id="a_edge8&#45;headlabel"><a xlink:href="dir_000027_000002.html" target="_top" xlink:title="2">
<text text-anchor="middle" x="210.2951" y="-210.4622" font-family="Helvetica,sans-Serif" font-size="10.00" fill="#000000">2</text>
</a>
</g>
</g>
<!-- dir_e4cd57caa88bf1f4e1bf9521bc47c3c0&#45;&gt;dir_7f7a014517bfe31ea45620a6a947e37b -->
<g id="edge4" class="edge">
<title>dir_e4cd57caa88bf1f4e1bf9521bc47c3c0&#45;&gt;dir_7f7a014517bfe31ea45620a6a947e37b</title>
<path fill="none" stroke="#000000" d="M232.7851,-143.8314C234.3894,-136.131 236.297,-126.9743 238.0799,-118.4166"/>
<polygon fill="#000000" stroke="#000000" points="241.5507,-118.9169 240.1639,-108.4133 234.6979,-117.4892 241.5507,-118.9169"/>
<g id="a_edge4&#45;headlabel"><a xlink:href="dir_000005_000011.html" target="_top" xlink:title="1">
<text text-anchor="middle" x="243.5972" y="-120.5151" font-family="Helvetica,sans-Serif" font-size="10.00" fill="#000000">1</text>
</a>
</g>
</g>
<!-- dir_e4cd57caa88bf1f4e1bf9521bc47c3c0&#45;&gt;dir_3d3615e9a999cab4f3407307569d6ced -->
<g id="edge5" class="edge">
<title>dir_e4cd57caa88bf1f4e1bf9521bc47c3c0&#45;&gt;dir_3d3615e9a999cab4f3407307569d6ced</title>
<path fill="none" stroke="#000000" d="M221.0528,-143.7644C216.7616,-133.4182 211.6178,-120.147 208,-108 201.9316,-87.6253 197.0366,-64.1032 193.7356,-46.2169"/>
<polygon fill="#000000" stroke="#000000" points="197.1404,-45.3735 191.9348,-36.1457 190.2497,-46.6057 197.1404,-45.3735"/>
<g id="a_edge5&#45;headlabel"><a xlink:href="dir_000005_000009.html" target="_top" xlink:title="10">
<text text-anchor="middle" x="200.568" y="-45.9122" font-family="Helvetica,sans-Serif" font-size="10.00" fill="#000000">10</text>
</a>
</g>
</g>
<!-- dir_7f7a014517bfe31ea45620a6a947e37b&#45;&gt;dir_3d3615e9a999cab4f3407307569d6ced -->
<g id="edge9" class="edge">
<title>dir_7f7a014517bfe31ea45620a6a947e37b&#45;&gt;dir_3d3615e9a999cab4f3407307569d6ced</title>
<path fill="none" stroke="#000000" d="M230.1212,-71.8314C223.7864,-63.5386 216.1616,-53.557 209.2074,-44.4533"/>
<polygon fill="#000000" stroke="#000000" points="211.9175,-42.2353 203.0657,-36.4133 206.3548,-46.4847 211.9175,-42.2353"/>
<g id="a_edge9&#45;headlabel"><a xlink:href="dir_000011_000009.html" target="_top" xlink:title="1">
<text text-anchor="middle" x="216.3558" y="-40.8683" font-family="Helvetica,sans-Serif" font-size="10.00" fill="#000000">1</text>
</a>
</g>
</g>
<!-- dir_4bb30ed846ea1df1fc4d16874a455d91&#45;&gt;dir_9ff815a534beac751fa88e427dbab695 -->
<g id="edge10" class="edge">
<title>dir_4bb30ed846ea1df1fc4d16874a455d91&#45;&gt;dir_9ff815a534beac751fa88e427dbab695</title>
<path fill="none" stroke="#000000" d="M201.8822,-234C197.4761,-234 193.0699,-234 188.6638,-234"/>
<polygon fill="#000000" stroke="#000000" points="188.3828,-230.5001 178.3828,-234 188.3828,-237.5001 188.3828,-230.5001"/>
<g id="a_edge10&#45;headlabel"><a xlink:href="dir_000002_000021.html" target="_top" xlink:title="2">
<text text-anchor="middle" x="191.9774" y="-225.1607" font-family="Helvetica,sans-Serif" font-size="10.00" fill="#000000">2</text>
</a>
</g>
</g>
<!-- dir_4bb30ed846ea1df1fc4d16874a455d91&#45;&gt;dir_e4cd57caa88bf1f4e1bf9521bc47c3c0 -->
<g id="edge11" class="edge">
<title>dir_4bb30ed846ea1df1fc4d16874a455d91&#45;&gt;dir_e4cd57caa88bf1f4e1bf9521bc47c3c0</title>
<path fill="none" stroke="#000000" d="M244.7008,-215.8314C242.4302,-208.0463 239.7254,-198.7729 237.206,-190.1347"/>
<polygon fill="#000000" stroke="#000000" points="240.5306,-189.0332 234.3705,-180.4133 233.8106,-190.9933 240.5306,-189.0332"/>
<g id="a_edge11&#45;headlabel"><a xlink:href="dir_000002_000005.html" target="_top" xlink:title="10">
<text text-anchor="middle" x="244.2627" y="-189.1891" font-family="Helvetica,sans-Serif" font-size="10.00" fill="#000000">10</text>
</a>
</g>
</g>
<!-- dir_4bb30ed846ea1df1fc4d16874a455d91&#45;&gt;dir_7f7a014517bfe31ea45620a6a947e37b -->
<g id="edge12" class="edge">
<title>dir_4bb30ed846ea1df1fc4d16874a455d91&#45;&gt;dir_7f7a014517bfe31ea45620a6a947e37b</title>
<path fill="none" stroke="#000000" d="M256.8634,-215.7531C263.9016,-194.437 272.7986,-158.2351 265,-128 264.0599,-124.3552 262.6875,-120.6864 261.0872,-117.1417"/>
<polygon fill="#000000" stroke="#000000" points="264.1476,-115.4397 256.4593,-108.15 257.9236,-118.6432 264.1476,-115.4397"/>
<g id="a_edge12&#45;headlabel"><a xlink:href="dir_000002_000011.html" target="_top" xlink:title="1">
<text text-anchor="middle" x="268.3171" y="-114.8365" font-family="Helvetica,sans-Serif" font-size="10.00" fill="#000000">1</text>
</a>
</g>
</g>
<!-- dir_4bb30ed846ea1df1fc4d16874a455d91&#45;&gt;dir_3d3615e9a999cab4f3407307569d6ced -->
<g id="edge13" class="edge">
<title>dir_4bb30ed846ea1df1fc4d16874a455d91&#45;&gt;dir_3d3615e9a999cab4f3407307569d6ced</title>
<path fill="none" stroke="#000000" d="M263.3562,-215.5137C269.7508,-205.5235 276.718,-192.6657 280,-180 292.0404,-133.5346 303.751,-113.712 280,-72 268.3604,-51.5583 245.598,-38.0559 225.7517,-29.6651"/>
<polygon fill="#000000" stroke="#000000" points="226.8919,-26.3526 216.3047,-25.9486 224.3292,-32.8667 226.8919,-26.3526"/>
<g id="a_edge13&#45;headlabel"><a xlink:href="dir_000002_000009.html" target="_top" xlink:title="47">
<text text-anchor="middle" x="231.2764" y="-22.5264" font-family="Helvetica,sans-Serif" font-size="10.00" fill="#000000">47</text>
</a>
</g>
</g>
<!-- dir_7b7e55eaa727ae9c717abfc097345a8f&#45;&gt;dir_3d3615e9a999cab4f3407307569d6ced -->
<g id="edge14" class="edge">
<title>dir_7b7e55eaa727ae9c717abfc097345a8f&#45;&gt;dir_3d3615e9a999cab4f3407307569d6ced</title>
<path fill="none" stroke="#000000" d="M64.111,-143.7623C89.3613,-118.3354 135.2506,-72.1253 163.8192,-43.3569"/>
<polygon fill="#000000" stroke="#000000" points="166.4731,-45.6516 171.036,-36.0896 161.5061,-40.7191 166.4731,-45.6516"/>
<g id="a_edge14&#45;headlabel"><a xlink:href="dir_000010_000009.html" target="_top" xlink:title="2">
<text text-anchor="middle" x="165.9548" y="-47.7028" font-family="Helvetica,sans-Serif" font-size="10.00" fill="#000000">2</text>
</a>
</g>
</g>
</g>
</svg>
