<?xml version="1.0" encoding="UTF-8" standalone="no"?>
<!DOCTYPE svg PUBLIC "-//W3C//DTD SVG 1.1//EN"
 "http://www.w3.org/Graphics/SVG/1.1/DTD/svg11.dtd">
<!-- Generated by graphviz version 2.40.1 (20161225.0304)
 -->
<!-- Title: equation_systems Pages: 1 -->
<!--zoomable 547 -->
<svg id="main" version="1.1" xmlns="http://www.w3.org/2000/svg" xmlns:xlink="http://www.w3.org/1999/xlink" xml:space="preserve" onload="init(evt)">
<style type="text/css"><![CDATA[
.edge:hover path { stroke: red; }
.edge:hover polygon { stroke: red; fill: red; }
]]></style>
<script type="text/javascript"><![CDATA[
var edges = document.getElementsByTagName('g');
if (edges && edges.length) {
  for (var i=0;i<edges.length;i++) {
    if (edges[i].id.substr(0,4)=='edge') {
      edges[i].setAttribute('class','edge');
    }
  }
}
]]></script>
        <defs>
                <circle id="rim" cx="0" cy="0" r="7"/>
                <circle id="rim2" cx="0" cy="0" r="3.5"/>
                <g id="zoomPlus">
                        <use xlink:href="#rim" fill="#404040">
                                <set attributeName="fill" to="#808080" begin="zoomplus.mouseover" end="zoomplus.mouseout"/>
                        </use>
                        <path d="M-4,0h8M0,-4v8" fill="none" stroke="white" stroke-width="1.5" pointer-events="none"/>
                </g>
                <g id="zoomMin">
                        <use xlink:href="#rim" fill="#404040">
                                <set attributeName="fill" to="#808080" begin="zoomminus.mouseover" end="zoomminus.mouseout"/>
                        </use>
                        <path d="M-4,0h8" fill="none" stroke="white" stroke-width="1.5" pointer-events="none"/>
                </g>
                <g id="dirArrow">
                        <path fill="none" stroke="white" stroke-width="1.5" d="M0,-3.0v7 M-2.5,-0.5L0,-3.0L2.5,-0.5"/>
                </g>
               <g id="resetDef">
                       <use xlink:href="#rim2" fill="#404040">
                               <set attributeName="fill" to="#808080" begin="reset.mouseover" end="reset.mouseout"/>
                       </use>
               </g>
        </defs>

<script type="text/javascript">
var viewWidth = 742;
var viewHeight = 547;
var sectionId = 'dynsection-0';
</script>
<script xlink:href="svgpan.js"/>
<svg id="graph" class="graph">
<g id="viewport">
<title>equation_systems</title>
<polygon fill="#ffffff" stroke="transparent" points="-4,4 -4,-542.5683 738,-542.5683 738,4 -4,4"/>
<g id="clust1" class="cluster">
<title>clusterdir_d85575251dd712327fe3cf057fa568b4</title>
<g id="a_clust1"><a xlink:href="dir_d85575251dd712327fe3cf057fa568b4.html" target="_top" xlink:title="amr&#45;wind">
<polygon fill="#ddddee" stroke="#000000" points="8,-416 8,-503 582,-503 582,-416 8,-416"/>
<text text-anchor="middle" x="295" y="-491" font-family="Helvetica,sans-Serif" font-size="10.00" fill="#000000">amr&#45;wind</text>
</a>
</g>
</g>
<g id="clust2" class="cluster">
<title>clusterdir_4bb30ed846ea1df1fc4d16874a455d91</title>
<g id="a_clust2"><a xlink:href="dir_4bb30ed846ea1df1fc4d16874a455d91.html" target="_top">
<polygon fill="#eeeeff" stroke="#000000" points="16,-424 16,-476 574,-476 574,-424 16,-424"/>
</a>
</g>
</g>
<!-- dir_4bb30ed846ea1df1fc4d16874a455d91 -->
<g id="node1" class="node">
<title>dir_4bb30ed846ea1df1fc4d16874a455d91</title>
<text text-anchor="middle" x="72" y="-447.5" font-family="Helvetica,sans-Serif" font-size="10.00" fill="#000000">equation_systems</text>
</g>
<!-- dir_9ff815a534beac751fa88e427dbab695 -->
<g id="node8" class="node">
<title>dir_9ff815a534beac751fa88e427dbab695</title>
<g id="a_node8"><a xlink:href="dir_9ff815a534beac751fa88e427dbab695.html" target="_top" xlink:title="turbulence">
<polygon fill="#ffffff" stroke="#ff0000" points="734,-468 672,-468 672,-432 734,-432 734,-468"/>
<text text-anchor="middle" x="703" y="-447.5" font-family="Helvetica,sans-Serif" font-size="10.00" fill="#000000">turbulence</text>
</a>
</g>
</g>
<!-- dir_4bb30ed846ea1df1fc4d16874a455d91&#45;&gt;dir_9ff815a534beac751fa88e427dbab695 -->
<g id="edge30" class="edge">
<title>dir_4bb30ed846ea1df1fc4d16874a455d91&#45;&gt;dir_9ff815a534beac751fa88e427dbab695</title>
<path fill="none" stroke="#000000" d="M82.6803,-468.2516C93.95,-485.5106 113.4688,-510.3106 138,-521 164.2801,-532.4515 628.6174,-534.323 654,-521 671.4612,-511.8348 683.9232,-493.3148 691.9093,-477.4877"/>
<polygon fill="#000000" stroke="#000000" points="695.2391,-478.6296 696.308,-468.0888 688.8991,-475.6624 695.2391,-478.6296"/>
<g id="a_edge30&#45;headlabel"><a xlink:href="dir_000002_000021.html" target="_top" xlink:title="2">
<text text-anchor="middle" x="696.2871" y="-480.5888" font-family="Helvetica,sans-Serif" font-size="10.00" fill="#000000">2</text>
</a>
</g>
</g>
<!-- dir_35ffb1505af3943bdf99903da87524fe -->
<g id="node9" class="node">
<title>dir_35ffb1505af3943bdf99903da87524fe</title>
<g id="a_node9"><a xlink:href="dir_35ffb1505af3943bdf99903da87524fe.html" target="_top" xlink:title="convection">
<polygon fill="none" stroke="#000000" points="654,-468 590,-468 590,-432 654,-432 654,-468"/>
<text text-anchor="middle" x="622" y="-447.5" font-family="Helvetica,sans-Serif" font-size="10.00" fill="#000000">convection</text>
</a>
</g>
</g>
<!-- dir_4bb30ed846ea1df1fc4d16874a455d91&#45;&gt;dir_35ffb1505af3943bdf99903da87524fe -->
<g id="edge31" class="edge">
<title>dir_4bb30ed846ea1df1fc4d16874a455d91&#45;&gt;dir_35ffb1505af3943bdf99903da87524fe</title>
<path fill="none" stroke="#000000" d="M82.6803,-468.2516C93.95,-485.5106 113.4688,-510.3106 138,-521 181.902,-540.1302 526.1911,-542.4649 569,-521 587.2761,-511.8362 600.8613,-493.0489 609.7001,-477.1014"/>
<polygon fill="#000000" stroke="#000000" points="612.8542,-478.622 614.3553,-468.1341 606.6414,-475.3968 612.8542,-478.622"/>
<g id="a_edge31&#45;headlabel"><a xlink:href="dir_000002_000015.html" target="_top" xlink:title="3">
<text text-anchor="middle" x="613.718" y="-480.6205" font-family="Helvetica,sans-Serif" font-size="10.00" fill="#000000">3</text>
</a>
</g>
</g>
<!-- dir_ebb19deee3cd40f4ac122fef25c04ca8 -->
<g id="node11" class="node">
<title>dir_ebb19deee3cd40f4ac122fef25c04ca8</title>
<g id="a_node11"><a xlink:href="dir_ebb19deee3cd40f4ac122fef25c04ca8.html" target="_top" xlink:title="boundary_conditions">
<polygon fill="none" stroke="#000000" points="386,-180 280,-180 280,-144 386,-144 386,-180"/>
<text text-anchor="middle" x="333" y="-159.5" font-family="Helvetica,sans-Serif" font-size="10.00" fill="#000000">boundary_conditions</text>
</a>
</g>
</g>
<!-- dir_4bb30ed846ea1df1fc4d16874a455d91&#45;&gt;dir_ebb19deee3cd40f4ac122fef25c04ca8 -->
<g id="edge32" class="edge">
<title>dir_4bb30ed846ea1df1fc4d16874a455d91&#45;&gt;dir_ebb19deee3cd40f4ac122fef25c04ca8</title>
<path fill="none" stroke="#000000" d="M99.0568,-431.8798C108.2824,-426.2447 118.8384,-420.3708 129,-416 159.1159,-403.0463 174.1872,-416.2105 200,-396 269.9009,-341.2703 309.3016,-238.8956 324.9738,-189.737"/>
<polygon fill="#000000" stroke="#000000" points="328.346,-190.6789 327.9603,-180.0911 321.6592,-188.6085 328.346,-190.6789"/>
<g id="a_edge32&#45;headlabel"><a xlink:href="dir_000002_000006.html" target="_top" xlink:title="1">
<text text-anchor="middle" x="329.9951" y="-192.4524" font-family="Helvetica,sans-Serif" font-size="10.00" fill="#000000">1</text>
</a>
</g>
</g>
<!-- dir_e4cd57caa88bf1f4e1bf9521bc47c3c0 -->
<g id="node12" class="node">
<title>dir_e4cd57caa88bf1f4e1bf9521bc47c3c0</title>
<g id="a_node12"><a xlink:href="dir_e4cd57caa88bf1f4e1bf9521bc47c3c0.html" target="_top" xlink:title="utilities">
<polygon fill="#ffffff" stroke="#ff0000" points="610,-396 556,-396 556,-360 610,-360 610,-396"/>
<text text-anchor="middle" x="583" y="-375.5" font-family="Helvetica,sans-Serif" font-size="10.00" fill="#000000">utilities</text>
</a>
</g>
</g>
<!-- dir_4bb30ed846ea1df1fc4d16874a455d91&#45;&gt;dir_e4cd57caa88bf1f4e1bf9521bc47c3c0 -->
<g id="edge33" class="edge">
<title>dir_4bb30ed846ea1df1fc4d16874a455d91&#45;&gt;dir_e4cd57caa88bf1f4e1bf9521bc47c3c0</title>
<path fill="none" stroke="#000000" d="M96.6345,-431.9707C106.2656,-425.8407 117.6999,-419.6281 129,-416 206.3181,-391.1757 451.6873,-381.7267 545.7784,-378.959"/>
<polygon fill="#000000" stroke="#000000" points="546.0687,-382.4523 555.9648,-378.6683 545.869,-375.4551 546.0687,-382.4523"/>
<g id="a_edge33&#45;headlabel"><a xlink:href="dir_000002_000005.html" target="_top" xlink:title="10">
<text text-anchor="middle" x="542.5565" y="-382.8928" font-family="Helvetica,sans-Serif" font-size="10.00" fill="#000000">10</text>
</a>
</g>
</g>
<!-- dir_a816a247b59c90f95e41afe29b966a18 -->
<g id="node14" class="node">
<title>dir_a816a247b59c90f95e41afe29b966a18</title>
<g id="a_node14"><a xlink:href="dir_a816a247b59c90f95e41afe29b966a18.html" target="_top" xlink:title="diffusion">
<polygon fill="none" stroke="#000000" points="175,-36 121,-36 121,0 175,0 175,-36"/>
<text text-anchor="middle" x="148" y="-15.5" font-family="Helvetica,sans-Serif" font-size="10.00" fill="#000000">diffusion</text>
</a>
</g>
</g>
<!-- dir_4bb30ed846ea1df1fc4d16874a455d91&#45;&gt;dir_a816a247b59c90f95e41afe29b966a18 -->
<g id="edge34" class="edge">
<title>dir_4bb30ed846ea1df1fc4d16874a455d91&#45;&gt;dir_a816a247b59c90f95e41afe29b966a18</title>
<path fill="none" stroke="#000000" d="M77.18,-431.9889C84.5027,-404.8949 97,-351.9269 97,-306 97,-306 97,-306 97,-162 97,-119.3478 117.1267,-73.456 132.0927,-45.2271"/>
<polygon fill="#000000" stroke="#000000" points="135.2132,-46.8153 136.9338,-36.3611 129.0694,-43.4606 135.2132,-46.8153"/>
<g id="a_edge34&#45;headlabel"><a xlink:href="dir_000002_000014.html" target="_top" xlink:title="1">
<text text-anchor="middle" x="135.9825" y="-48.8309" font-family="Helvetica,sans-Serif" font-size="10.00" fill="#000000">1</text>
</a>
</g>
</g>
<!-- dir_70329d5a297148af2b67b1d844b9f654 -->
<g id="node2" class="node">
<title>dir_70329d5a297148af2b67b1d844b9f654</title>
<g id="a_node2"><a xlink:href="dir_70329d5a297148af2b67b1d844b9f654.html" target="_top" xlink:title="density">
<polygon fill="#ffffff" stroke="#000000" points="264,-468 210,-468 210,-432 264,-432 264,-468"/>
<text text-anchor="middle" x="237" y="-447.5" font-family="Helvetica,sans-Serif" font-size="10.00" fill="#000000">density</text>
</a>
</g>
</g>
<!-- dir_3d3615e9a999cab4f3407307569d6ced -->
<g id="node15" class="node">
<title>dir_3d3615e9a999cab4f3407307569d6ced</title>
<g id="a_node15"><a xlink:href="dir_3d3615e9a999cab4f3407307569d6ced.html" target="_top" xlink:title="core">
<polygon fill="none" stroke="#000000" points="403,-252 349,-252 349,-216 403,-216 403,-252"/>
<text text-anchor="middle" x="376" y="-231.5" font-family="Helvetica,sans-Serif" font-size="10.00" fill="#000000">core</text>
</a>
</g>
</g>
<!-- dir_70329d5a297148af2b67b1d844b9f654&#45;&gt;dir_3d3615e9a999cab4f3407307569d6ced -->
<g id="edge5" class="edge">
<title>dir_70329d5a297148af2b67b1d844b9f654&#45;&gt;dir_3d3615e9a999cab4f3407307569d6ced</title>
<path fill="none" stroke="#000000" d="M250.6924,-431.7387C258.328,-421.3844 267.9022,-408.1137 276,-396 307.0957,-349.4832 340.7949,-293.6458 360.0563,-261.1567"/>
<polygon fill="#000000" stroke="#000000" points="363.2459,-262.6389 365.3219,-252.2494 357.22,-259.0767 363.2459,-262.6389"/>
<g id="a_edge5&#45;headlabel"><a xlink:href="dir_000012_000009.html" target="_top" xlink:title="4">
<text text-anchor="middle" x="363.8608" y="-264.6781" font-family="Helvetica,sans-Serif" font-size="10.00" fill="#000000">4</text>
</a>
</g>
</g>
<!-- dir_4012ff34c1bb5bd303e44a1c9cef6c8a -->
<g id="node3" class="node">
<title>dir_4012ff34c1bb5bd303e44a1c9cef6c8a</title>
<g id="a_node3"><a xlink:href="dir_4012ff34c1bb5bd303e44a1c9cef6c8a.html" target="_top" xlink:title="icns">
<polygon fill="#ffffff" stroke="#ff0000" points="566,-468 512,-468 512,-432 566,-432 566,-468"/>
<text text-anchor="middle" x="539" y="-447.5" font-family="Helvetica,sans-Serif" font-size="10.00" fill="#000000">icns</text>
</a>
</g>
</g>
<!-- dir_4012ff34c1bb5bd303e44a1c9cef6c8a&#45;&gt;dir_35ffb1505af3943bdf99903da87524fe -->
<g id="edge21" class="edge">
<title>dir_4012ff34c1bb5bd303e44a1c9cef6c8a&#45;&gt;dir_35ffb1505af3943bdf99903da87524fe</title>
<path fill="none" stroke="#000000" d="M566.2344,-450C570.6455,-450 575.0567,-450 579.4678,-450"/>
<polygon fill="#000000" stroke="#000000" points="579.7605,-453.5001 589.7605,-450 579.7605,-446.5001 579.7605,-453.5001"/>
<g id="a_edge21&#45;headlabel"><a xlink:href="dir_000003_000015.html" target="_top" xlink:title="1">
<text text-anchor="middle" x="576.1659" y="-453.8393" font-family="Helvetica,sans-Serif" font-size="10.00" fill="#000000">1</text>
</a>
</g>
</g>
<!-- dir_0c368f76a33d967d5b838b5681461de6 -->
<g id="node10" class="node">
<title>dir_0c368f76a33d967d5b838b5681461de6</title>
<g id="a_node10"><a xlink:href="dir_0c368f76a33d967d5b838b5681461de6.html" target="_top" xlink:title="wind_energy">
<polygon fill="none" stroke="#000000" points="468.5,-108 397.5,-108 397.5,-72 468.5,-72 468.5,-108"/>
<text text-anchor="middle" x="433" y="-87.5" font-family="Helvetica,sans-Serif" font-size="10.00" fill="#000000">wind_energy</text>
</a>
</g>
</g>
<!-- dir_4012ff34c1bb5bd303e44a1c9cef6c8a&#45;&gt;dir_0c368f76a33d967d5b838b5681461de6 -->
<g id="edge22" class="edge">
<title>dir_4012ff34c1bb5bd303e44a1c9cef6c8a&#45;&gt;dir_0c368f76a33d967d5b838b5681461de6</title>
<path fill="none" stroke="#000000" d="M518.8218,-431.6622C493.1211,-406.1918 452,-357.4069 452,-306 452,-306 452,-306 452,-234 452,-193.5282 444.532,-147.2037 438.96,-118.2725"/>
<polygon fill="#000000" stroke="#000000" points="442.3177,-117.2111 436.9368,-108.0844 435.4517,-118.5746 442.3177,-117.2111"/>
<g id="a_edge22&#45;headlabel"><a xlink:href="dir_000003_000001.html" target="_top" xlink:title="2">
<text text-anchor="middle" x="445.8026" y="-117.6839" font-family="Helvetica,sans-Serif" font-size="10.00" fill="#000000">2</text>
</a>
</g>
</g>
<!-- dir_4012ff34c1bb5bd303e44a1c9cef6c8a&#45;&gt;dir_e4cd57caa88bf1f4e1bf9521bc47c3c0 -->
<g id="edge23" class="edge">
<title>dir_4012ff34c1bb5bd303e44a1c9cef6c8a&#45;&gt;dir_e4cd57caa88bf1f4e1bf9521bc47c3c0</title>
<path fill="none" stroke="#000000" d="M550.1031,-431.8314C555.0674,-423.7079 561.0222,-413.9637 566.4928,-405.0118"/>
<polygon fill="#000000" stroke="#000000" points="569.5194,-406.7712 571.7474,-396.4133 563.5464,-403.121 569.5194,-406.7712"/>
<g id="a_edge23&#45;headlabel"><a xlink:href="dir_000003_000005.html" target="_top" xlink:title="8">
<text text-anchor="middle" x="570.0677" y="-408.8189" font-family="Helvetica,sans-Serif" font-size="10.00" fill="#000000">8</text>
</a>
</g>
</g>
<!-- dir_7f7a014517bfe31ea45620a6a947e37b -->
<g id="node13" class="node">
<title>dir_7f7a014517bfe31ea45620a6a947e37b</title>
<g id="a_node13"><a xlink:href="dir_7f7a014517bfe31ea45620a6a947e37b.html" target="_top" xlink:title="fvm">
<polygon fill="none" stroke="#000000" points="610,-324 556,-324 556,-288 610,-288 610,-324"/>
<text text-anchor="middle" x="583" y="-303.5" font-family="Helvetica,sans-Serif" font-size="10.00" fill="#000000">fvm</text>
</a>
</g>
</g>
<!-- dir_4012ff34c1bb5bd303e44a1c9cef6c8a&#45;&gt;dir_7f7a014517bfe31ea45620a6a947e37b -->
<g id="edge24" class="edge">
<title>dir_4012ff34c1bb5bd303e44a1c9cef6c8a&#45;&gt;dir_7f7a014517bfe31ea45620a6a947e37b</title>
<path fill="none" stroke="#000000" d="M538.0243,-431.8591C537.6144,-413.2787 538.6174,-383.8237 547,-360 550.3862,-350.3761 555.8808,-340.8046 561.5685,-332.4524"/>
<polygon fill="#000000" stroke="#000000" points="564.4802,-334.3984 567.4855,-324.2388 558.8005,-330.3068 564.4802,-334.3984"/>
<g id="a_edge24&#45;headlabel"><a xlink:href="dir_000003_000011.html" target="_top" xlink:title="1">
<text text-anchor="middle" x="564.6829" y="-336.4746" font-family="Helvetica,sans-Serif" font-size="10.00" fill="#000000">1</text>
</a>
</g>
</g>
<!-- dir_4012ff34c1bb5bd303e44a1c9cef6c8a&#45;&gt;dir_3d3615e9a999cab4f3407307569d6ced -->
<g id="edge25" class="edge">
<title>dir_4012ff34c1bb5bd303e44a1c9cef6c8a&#45;&gt;dir_3d3615e9a999cab4f3407307569d6ced</title>
<path fill="none" stroke="#000000" d="M523.1059,-431.9806C517.2606,-426.2189 510.279,-420.2421 503,-416 476.8857,-400.7809 460.0767,-416.6446 438,-396 417.9256,-377.2278 394.9578,-302.8665 383.4282,-261.7312"/>
<polygon fill="#000000" stroke="#000000" points="386.7884,-260.7501 380.7522,-252.0429 380.0411,-262.6139 386.7884,-260.7501"/>
<g id="a_edge25&#45;headlabel"><a xlink:href="dir_000003_000009.html" target="_top" xlink:title="16">
<text text-anchor="middle" x="390.4822" y="-260.959" font-family="Helvetica,sans-Serif" font-size="10.00" fill="#000000">16</text>
</a>
</g>
</g>
<!-- dir_ce0741f9b73f67c263a459724eeecf8b -->
<g id="node4" class="node">
<title>dir_ce0741f9b73f67c263a459724eeecf8b</title>
<g id="a_node4"><a xlink:href="dir_ce0741f9b73f67c263a459724eeecf8b.html" target="_top" xlink:title="levelset">
<polygon fill="#ffffff" stroke="#000000" points="336,-468 282,-468 282,-432 336,-432 336,-468"/>
<text text-anchor="middle" x="309" y="-447.5" font-family="Helvetica,sans-Serif" font-size="10.00" fill="#000000">levelset</text>
</a>
</g>
</g>
<!-- dir_9f8434f21d2c2598f33c85a8b98c6d56 -->
<g id="node5" class="node">
<title>dir_9f8434f21d2c2598f33c85a8b98c6d56</title>
<g id="a_node5"><a xlink:href="dir_9f8434f21d2c2598f33c85a8b98c6d56.html" target="_top" xlink:title="sdr">
<polygon fill="#ffffff" stroke="#000000" points="408,-468 354,-468 354,-432 408,-432 408,-468"/>
<text text-anchor="middle" x="381" y="-447.5" font-family="Helvetica,sans-Serif" font-size="10.00" fill="#000000">sdr</text>
</a>
</g>
</g>
<!-- dir_9f8434f21d2c2598f33c85a8b98c6d56&#45;&gt;dir_3d3615e9a999cab4f3407307569d6ced -->
<g id="edge26" class="edge">
<title>dir_9f8434f21d2c2598f33c85a8b98c6d56&#45;&gt;dir_3d3615e9a999cab4f3407307569d6ced</title>
<path fill="none" stroke="#000000" d="M372.9083,-431.9165C368.7439,-421.6179 364.1082,-408.3436 362,-396 353.9189,-348.6851 355.9281,-335.6144 362,-288 363.0854,-279.4887 365.0962,-270.4011 367.262,-262.1555"/>
<polygon fill="#000000" stroke="#000000" points="370.7045,-262.8414 370.0302,-252.2681 363.9637,-260.9542 370.7045,-262.8414"/>
<g id="a_edge26&#45;headlabel"><a xlink:href="dir_000029_000009.html" target="_top" xlink:title="4">
<text text-anchor="middle" x="372.4696" y="-264.5684" font-family="Helvetica,sans-Serif" font-size="10.00" fill="#000000">4</text>
</a>
</g>
</g>
<!-- dir_c96908905c9887b0bdc2167e5354d30c -->
<g id="node6" class="node">
<title>dir_c96908905c9887b0bdc2167e5354d30c</title>
<g id="a_node6"><a xlink:href="dir_c96908905c9887b0bdc2167e5354d30c.html" target="_top" xlink:title="temperature">
<polygon fill="#ffffff" stroke="#000000" points="494,-468 426,-468 426,-432 494,-432 494,-468"/>
<text text-anchor="middle" x="460" y="-447.5" font-family="Helvetica,sans-Serif" font-size="10.00" fill="#000000">temperature</text>
</a>
</g>
</g>
<!-- dir_c96908905c9887b0bdc2167e5354d30c&#45;&gt;dir_3d3615e9a999cab4f3407307569d6ced -->
<g id="edge8" class="edge">
<title>dir_c96908905c9887b0bdc2167e5354d30c&#45;&gt;dir_3d3615e9a999cab4f3407307569d6ced</title>
<path fill="none" stroke="#000000" d="M436.7437,-431.8498C421.8987,-419.7647 404.6056,-404.5822 400,-396 377.1931,-353.5007 374.0738,-296.1896 374.5646,-262.3592"/>
<polygon fill="#000000" stroke="#000000" points="378.0663,-262.3374 374.8305,-252.2489 371.0687,-262.1534 378.0663,-262.3374"/>
<g id="a_edge8&#45;headlabel"><a xlink:href="dir_000030_000009.html" target="_top" xlink:title="4">
<text text-anchor="middle" x="380.8102" y="-263.5054" font-family="Helvetica,sans-Serif" font-size="10.00" fill="#000000">4</text>
</a>
</g>
</g>
<!-- dir_be932497d8c26b6aa8596ee64638838f -->
<g id="node7" class="node">
<title>dir_be932497d8c26b6aa8596ee64638838f</title>
<g id="a_node7"><a xlink:href="dir_be932497d8c26b6aa8596ee64638838f.html" target="_top" xlink:title="tke">
<polygon fill="#ffffff" stroke="#ff0000" points="192,-468 138,-468 138,-432 192,-432 192,-468"/>
<text text-anchor="middle" x="165" y="-447.5" font-family="Helvetica,sans-Serif" font-size="10.00" fill="#000000">tke</text>
</a>
</g>
</g>
<!-- dir_be932497d8c26b6aa8596ee64638838f&#45;&gt;dir_9ff815a534beac751fa88e427dbab695 -->
<g id="edge6" class="edge">
<title>dir_be932497d8c26b6aa8596ee64638838f&#45;&gt;dir_9ff815a534beac751fa88e427dbab695</title>
<path fill="none" stroke="#000000" d="M170.7294,-468.0384C177.2342,-485.1355 189.6695,-509.8155 210,-521 253.2242,-544.7791 610.3184,-543.928 654,-521 671.4612,-511.8348 683.9232,-493.3148 691.9093,-477.4877"/>
<polygon fill="#000000" stroke="#000000" points="695.2391,-478.6296 696.308,-468.0888 688.8991,-475.6624 695.2391,-478.6296"/>
<g id="a_edge6&#45;headlabel"><a xlink:href="dir_000019_000021.html" target="_top" xlink:title="1">
<text text-anchor="middle" x="696.2871" y="-480.5888" font-family="Helvetica,sans-Serif" font-size="10.00" fill="#000000">1</text>
</a>
</g>
</g>
<!-- dir_be932497d8c26b6aa8596ee64638838f&#45;&gt;dir_3d3615e9a999cab4f3407307569d6ced -->
<g id="edge7" class="edge">
<title>dir_be932497d8c26b6aa8596ee64638838f&#45;&gt;dir_3d3615e9a999cab4f3407307569d6ced</title>
<path fill="none" stroke="#000000" d="M182.5034,-431.7241C188.1398,-426.33 194.5916,-420.6352 201,-416 216.1464,-405.0446 223.8412,-408.205 238,-396 283.446,-356.8252 279.0791,-332.792 319,-288 327.7863,-278.1416 338.0852,-268.0116 347.4937,-259.2273"/>
<polygon fill="#000000" stroke="#000000" points="350.1432,-261.5458 355.1347,-252.2004 345.4048,-256.3933 350.1432,-261.5458"/>
<g id="a_edge7&#45;headlabel"><a xlink:href="dir_000019_000009.html" target="_top" xlink:title="5">
<text text-anchor="middle" x="349.4192" y="-263.5689" font-family="Helvetica,sans-Serif" font-size="10.00" fill="#000000">5</text>
</a>
</g>
</g>
<!-- dir_9ff815a534beac751fa88e427dbab695&#45;&gt;dir_be932497d8c26b6aa8596ee64638838f -->
<g id="edge1" class="edge">
<title>dir_9ff815a534beac751fa88e427dbab695&#45;&gt;dir_be932497d8c26b6aa8596ee64638838f</title>
<path fill="none" stroke="#000000" d="M696.308,-468.0888C688.8808,-485.2242 675.0852,-509.9326 654,-521 610.3184,-543.928 253.2242,-544.7791 210,-521 193.1638,-511.7378 181.7421,-493.2206 174.619,-477.4191"/>
<polygon fill="#000000" stroke="#000000" points="177.7928,-475.9352 170.7294,-468.0384 171.3266,-478.6164 177.7928,-475.9352"/>
<g id="a_edge1&#45;headlabel"><a xlink:href="dir_000021_000019.html" target="_top" xlink:title="1">
<text text-anchor="middle" x="181.7923" y="-475.6682" font-family="Helvetica,sans-Serif" font-size="10.00" fill="#000000">1</text>
</a>
</g>
</g>
<!-- dir_9ff815a534beac751fa88e427dbab695&#45;&gt;dir_e4cd57caa88bf1f4e1bf9521bc47c3c0 -->
<g id="edge2" class="edge">
<title>dir_9ff815a534beac751fa88e427dbab695&#45;&gt;dir_e4cd57caa88bf1f4e1bf9521bc47c3c0</title>
<path fill="none" stroke="#000000" d="M683.8617,-431.9743C677.4985,-426.4716 670.1944,-420.6518 663,-416 655.1559,-410.9281 636.7372,-402.1109 619.5485,-394.246"/>
<polygon fill="#000000" stroke="#000000" points="620.7533,-390.9492 610.2007,-390.0044 617.8609,-397.3237 620.7533,-390.9492"/>
<g id="a_edge2&#45;headlabel"><a xlink:href="dir_000021_000005.html" target="_top" xlink:title="1">
<text text-anchor="middle" x="625.1999" y="-387.349" font-family="Helvetica,sans-Serif" font-size="10.00" fill="#000000">1</text>
</a>
</g>
</g>
<!-- dir_9ff815a534beac751fa88e427dbab695&#45;&gt;dir_7f7a014517bfe31ea45620a6a947e37b -->
<g id="edge3" class="edge">
<title>dir_9ff815a534beac751fa88e427dbab695&#45;&gt;dir_7f7a014517bfe31ea45620a6a947e37b</title>
<path fill="none" stroke="#000000" d="M687.8019,-431.7623C666.7932,-406.5518 628.7586,-360.9103 604.746,-332.0952"/>
<polygon fill="#000000" stroke="#000000" points="607.1653,-329.5312 598.0747,-324.0896 601.7878,-334.0125 607.1653,-329.5312"/>
<g id="a_edge3&#45;headlabel"><a xlink:href="dir_000021_000011.html" target="_top" xlink:title="3">
<text text-anchor="middle" x="611.6477" y="-327.975" font-family="Helvetica,sans-Serif" font-size="10.00" fill="#000000">3</text>
</a>
</g>
</g>
<!-- dir_9ff815a534beac751fa88e427dbab695&#45;&gt;dir_3d3615e9a999cab4f3407307569d6ced -->
<g id="edge4" class="edge">
<title>dir_9ff815a534beac751fa88e427dbab695&#45;&gt;dir_3d3615e9a999cab4f3407307569d6ced</title>
<path fill="none" stroke="#000000" d="M699.0074,-431.8723C690.5465,-397.9563 667.479,-325.0011 619,-288 587.0782,-263.636 473.4434,-246.1881 413.5565,-238.4546"/>
<polygon fill="#000000" stroke="#000000" points="413.7402,-234.95 403.38,-237.1672 412.8617,-241.8946 413.7402,-234.95"/>
<g id="a_edge4&#45;headlabel"><a xlink:href="dir_000021_000009.html" target="_top" xlink:title="5">
<text text-anchor="middle" x="417.6627" y="-230.0842" font-family="Helvetica,sans-Serif" font-size="10.00" fill="#000000">5</text>
</a>
</g>
</g>
<!-- dir_35ffb1505af3943bdf99903da87524fe&#45;&gt;dir_e4cd57caa88bf1f4e1bf9521bc47c3c0 -->
<g id="edge9" class="edge">
<title>dir_35ffb1505af3943bdf99903da87524fe&#45;&gt;dir_e4cd57caa88bf1f4e1bf9521bc47c3c0</title>
<path fill="none" stroke="#000000" d="M612.1587,-431.8314C607.8043,-423.7925 602.5902,-414.1666 597.7831,-405.2918"/>
<polygon fill="#000000" stroke="#000000" points="600.8143,-403.5392 592.9739,-396.4133 594.6592,-406.8732 600.8143,-403.5392"/>
<g id="a_edge9&#45;headlabel"><a xlink:href="dir_000015_000005.html" target="_top" xlink:title="4">
<text text-anchor="middle" x="605.0228" y="-402.8476" font-family="Helvetica,sans-Serif" font-size="10.00" fill="#000000">4</text>
</a>
</g>
</g>
<!-- dir_35ffb1505af3943bdf99903da87524fe&#45;&gt;dir_3d3615e9a999cab4f3407307569d6ced -->
<g id="edge10" class="edge">
<title>dir_35ffb1505af3943bdf99903da87524fe&#45;&gt;dir_3d3615e9a999cab4f3407307569d6ced</title>
<path fill="none" stroke="#000000" d="M599.4398,-431.9792C592.6387,-426.7072 585.0943,-421.0159 578,-416 564.612,-406.5343 559.8957,-406.1262 547,-396 491.0202,-352.0428 432.1181,-292.9757 400.1425,-259.6624"/>
<polygon fill="#000000" stroke="#000000" points="402.424,-256.9835 392.9867,-252.1679 397.3611,-261.8176 402.424,-256.9835"/>
<g id="a_edge10&#45;headlabel"><a xlink:href="dir_000015_000009.html" target="_top" xlink:title="4">
<text text-anchor="middle" x="406.9598" y="-255.1226" font-family="Helvetica,sans-Serif" font-size="10.00" fill="#000000">4</text>
</a>
</g>
</g>
<!-- dir_0c368f76a33d967d5b838b5681461de6&#45;&gt;dir_4bb30ed846ea1df1fc4d16874a455d91 -->
<g id="edge16" class="edge">
<title>dir_0c368f76a33d967d5b838b5681461de6&#45;&gt;dir_4bb30ed846ea1df1fc4d16874a455d91</title>
<path fill="none" stroke="#000000" d="M397.3479,-94.1839C328.946,-104.4056 186,-137.3314 186,-234 186,-306 186,-306 186,-306 186,-356.853 141.7553,-400.2326 108.3936,-425.7139"/>
<polygon fill="#000000" stroke="#000000" points="106.1307,-423.0345 100.1798,-431.8002 110.2982,-428.6587 106.1307,-423.0345"/>
<g id="a_edge16&#45;headlabel"><a xlink:href="dir_000001_000002.html" target="_top" xlink:title="2">
<text text-anchor="middle" x="107.3284" y="-416.1132" font-family="Helvetica,sans-Serif" font-size="10.00" fill="#000000">2</text>
</a>
</g>
</g>
<!-- dir_0c368f76a33d967d5b838b5681461de6&#45;&gt;dir_4012ff34c1bb5bd303e44a1c9cef6c8a -->
<g id="edge12" class="edge">
<title>dir_0c368f76a33d967d5b838b5681461de6&#45;&gt;dir_4012ff34c1bb5bd303e44a1c9cef6c8a</title>
<path fill="none" stroke="#000000" d="M468.6251,-104.0056C490.4005,-113.4996 518.1662,-127.3358 540,-144 600.7552,-190.3701 619.457,-212.9675 634,-288 643.2212,-335.5753 648.1677,-357.3 619,-396 607.5129,-411.2412 596.9379,-405.501 581,-416 576.6079,-418.8933 572.1252,-422.15 567.8023,-425.4721"/>
<polygon fill="#000000" stroke="#000000" points="565.4078,-422.9041 559.7518,-431.8629 569.7601,-428.3866 565.4078,-422.9041"/>
<g id="a_edge12&#45;headlabel"><a xlink:href="dir_000001_000003.html" target="_top" xlink:title="2">
<text text-anchor="middle" x="566.4578" y="-415.9454" font-family="Helvetica,sans-Serif" font-size="10.00" fill="#000000">2</text>
</a>
</g>
</g>
<!-- dir_0c368f76a33d967d5b838b5681461de6&#45;&gt;dir_e4cd57caa88bf1f4e1bf9521bc47c3c0 -->
<g id="edge11" class="edge">
<title>dir_0c368f76a33d967d5b838b5681461de6&#45;&gt;dir_e4cd57caa88bf1f4e1bf9521bc47c3c0</title>
<path fill="none" stroke="#000000" d="M460.7348,-108.0757C504.8425,-138.7632 589.0489,-205.7983 619,-288 624.4775,-303.0332 623.6365,-308.6865 619,-324 616.0436,-333.7645 610.6748,-343.3771 604.97,-351.7238"/>
<polygon fill="#000000" stroke="#000000" points="602.0586,-349.7761 598.9905,-359.9169 607.7129,-353.9027 602.0586,-349.7761"/>
<g id="a_edge11&#45;headlabel"><a xlink:href="dir_000001_000005.html" target="_top" xlink:title="21">
<text text-anchor="middle" x="601.8842" y="-342.6987" font-family="Helvetica,sans-Serif" font-size="10.00" fill="#000000">21</text>
</a>
</g>
</g>
<!-- dir_0c368f76a33d967d5b838b5681461de6&#45;&gt;dir_7f7a014517bfe31ea45620a6a947e37b -->
<g id="edge13" class="edge">
<title>dir_0c368f76a33d967d5b838b5681461de6&#45;&gt;dir_7f7a014517bfe31ea45620a6a947e37b</title>
<path fill="none" stroke="#000000" d="M445.6007,-108.1451C472.1331,-146.3517 533.8487,-235.2222 564.7247,-279.6835"/>
<polygon fill="#000000" stroke="#000000" points="561.8903,-281.7382 570.4691,-287.9555 567.6399,-277.7454 561.8903,-281.7382"/>
<g id="a_edge13&#45;headlabel"><a xlink:href="dir_000001_000011.html" target="_top" xlink:title="1">
<text text-anchor="middle" x="557.5079" y="-277.9052" font-family="Helvetica,sans-Serif" font-size="10.00" fill="#000000">1</text>
</a>
</g>
</g>
<!-- dir_0c368f76a33d967d5b838b5681461de6&#45;&gt;dir_a816a247b59c90f95e41afe29b966a18 -->
<g id="edge14" class="edge">
<title>dir_0c368f76a33d967d5b838b5681461de6&#45;&gt;dir_a816a247b59c90f95e41afe29b966a18</title>
<path fill="none" stroke="#000000" d="M397.4808,-81.0267C343.1173,-67.2928 239.8004,-41.1917 184.7238,-27.2776"/>
<polygon fill="#000000" stroke="#000000" points="185.5765,-23.8831 175.0238,-24.8271 183.8619,-30.6699 185.5765,-23.8831"/>
<g id="a_edge14&#45;headlabel"><a xlink:href="dir_000001_000014.html" target="_top" xlink:title="1">
<text text-anchor="middle" x="189.757" y="-19.5107" font-family="Helvetica,sans-Serif" font-size="10.00" fill="#000000">1</text>
</a>
</g>
</g>
<!-- dir_0c368f76a33d967d5b838b5681461de6&#45;&gt;dir_3d3615e9a999cab4f3407307569d6ced -->
<g id="edge15" class="edge">
<title>dir_0c368f76a33d967d5b838b5681461de6&#45;&gt;dir_3d3615e9a999cab4f3407307569d6ced</title>
<path fill="none" stroke="#000000" d="M425.8395,-108.0896C416.0629,-132.7884 398.4464,-177.2933 386.9911,-206.2331"/>
<polygon fill="#000000" stroke="#000000" points="383.6453,-205.176 383.2191,-215.7623 390.154,-207.7524 383.6453,-205.176"/>
<g id="a_edge15&#45;headlabel"><a xlink:href="dir_000001_000009.html" target="_top" xlink:title="7">
<text text-anchor="middle" x="382.3283" y="-198.2888" font-family="Helvetica,sans-Serif" font-size="10.00" fill="#000000">7</text>
</a>
</g>
</g>
<!-- dir_ebb19deee3cd40f4ac122fef25c04ca8&#45;&gt;dir_0c368f76a33d967d5b838b5681461de6 -->
<g id="edge17" class="edge">
<title>dir_ebb19deee3cd40f4ac122fef25c04ca8&#45;&gt;dir_0c368f76a33d967d5b838b5681461de6</title>
<path fill="none" stroke="#000000" d="M358.2342,-143.8314C370.788,-134.7927 386.1283,-123.7476 399.6391,-114.0198"/>
<polygon fill="#000000" stroke="#000000" points="401.7036,-116.8463 407.7739,-108.1628 397.6134,-111.1655 401.7036,-116.8463"/>
<g id="a_edge17&#45;headlabel"><a xlink:href="dir_000006_000001.html" target="_top" xlink:title="1">
<text text-anchor="middle" x="400.4454" y="-118.7508" font-family="Helvetica,sans-Serif" font-size="10.00" fill="#000000">1</text>
</a>
</g>
</g>
<!-- dir_ebb19deee3cd40f4ac122fef25c04ca8&#45;&gt;dir_3d3615e9a999cab4f3407307569d6ced -->
<g id="edge18" class="edge">
<title>dir_ebb19deee3cd40f4ac122fef25c04ca8&#45;&gt;dir_3d3615e9a999cab4f3407307569d6ced</title>
<path fill="none" stroke="#000000" d="M349.9728,-180.4133C355.5646,-188.484 361.5129,-198.1182 366.4214,-206.9775"/>
<polygon fill="#000000" stroke="#000000" points="363.334,-208.6262 371.1017,-215.8314 369.5226,-205.3549 363.334,-208.6262"/>
<g id="a_edge18&#45;headlabel"><a xlink:href="dir_000006_000009.html" target="_top" xlink:title="4">
<text text-anchor="middle" x="359.144" y="-204.2752" font-family="Helvetica,sans-Serif" font-size="10.00" fill="#000000">4</text>
</a>
</g>
</g>
<!-- dir_e4cd57caa88bf1f4e1bf9521bc47c3c0&#45;&gt;dir_7f7a014517bfe31ea45620a6a947e37b -->
<g id="edge19" class="edge">
<title>dir_e4cd57caa88bf1f4e1bf9521bc47c3c0&#45;&gt;dir_7f7a014517bfe31ea45620a6a947e37b</title>
<path fill="none" stroke="#000000" d="M583,-359.8314C583,-352.131 583,-342.9743 583,-334.4166"/>
<polygon fill="#000000" stroke="#000000" points="586.5001,-334.4132 583,-324.4133 579.5001,-334.4133 586.5001,-334.4132"/>
<g id="a_edge19&#45;headlabel"><a xlink:href="dir_000005_000011.html" target="_top" xlink:title="1">
<text text-anchor="middle" x="589.3393" y="-335.5079" font-family="Helvetica,sans-Serif" font-size="10.00" fill="#000000">1</text>
</a>
</g>
</g>
<!-- dir_e4cd57caa88bf1f4e1bf9521bc47c3c0&#45;&gt;dir_3d3615e9a999cab4f3407307569d6ced -->
<g id="edge20" class="edge">
<title>dir_e4cd57caa88bf1f4e1bf9521bc47c3c0&#45;&gt;dir_3d3615e9a999cab4f3407307569d6ced</title>
<path fill="none" stroke="#000000" d="M570.9523,-359.9357C556.8992,-340.0369 531.9922,-308.1877 504,-288 476.1594,-267.9216 439.7141,-253.4784 412.8358,-244.6103"/>
<polygon fill="#000000" stroke="#000000" points="413.6314,-241.1903 403.0407,-241.4843 411.5032,-247.859 413.6314,-241.1903"/>
<g id="a_edge20&#45;headlabel"><a xlink:href="dir_000005_000009.html" target="_top" xlink:title="11">
<text text-anchor="middle" x="417.9191" y="-237.0783" font-family="Helvetica,sans-Serif" font-size="10.00" fill="#000000">11</text>
</a>
</g>
</g>
<!-- dir_7f7a014517bfe31ea45620a6a947e37b&#45;&gt;dir_3d3615e9a999cab4f3407307569d6ced -->
<g id="edge27" class="edge">
<title>dir_7f7a014517bfe31ea45620a6a947e37b&#45;&gt;dir_3d3615e9a999cab4f3407307569d6ced</title>
<path fill="none" stroke="#000000" d="M555.809,-293.613C551.2309,-291.6571 546.5038,-289.7163 542,-288 498.2423,-271.3245 446.8323,-255.1064 412.9486,-244.8686"/>
<polygon fill="#000000" stroke="#000000" points="413.6076,-241.4122 403.0235,-241.8894 411.5951,-248.1166 413.6076,-241.4122"/>
<g id="a_edge27&#45;headlabel"><a xlink:href="dir_000011_000009.html" target="_top" xlink:title="1">
<text text-anchor="middle" x="417.8667" y="-237.2261" font-family="Helvetica,sans-Serif" font-size="10.00" fill="#000000">1</text>
</a>
</g>
</g>
<!-- dir_a816a247b59c90f95e41afe29b966a18&#45;&gt;dir_3d3615e9a999cab4f3407307569d6ced -->
<g id="edge28" class="edge">
<title>dir_a816a247b59c90f95e41afe29b966a18&#45;&gt;dir_3d3615e9a999cab4f3407307569d6ced</title>
<path fill="none" stroke="#000000" d="M158.0628,-36.1505C176.7461,-68.5239 219.6054,-136.8685 271,-180 291.2886,-197.0266 317.8457,-210.6222 339.1749,-219.9126"/>
<polygon fill="#000000" stroke="#000000" points="337.9915,-223.2121 348.5656,-223.8751 340.7129,-216.7627 337.9915,-223.2121"/>
<g id="a_edge28&#45;headlabel"><a xlink:href="dir_000014_000009.html" target="_top" xlink:title="1">
<text text-anchor="middle" x="333.5759" y="-221.9306" font-family="Helvetica,sans-Serif" font-size="10.00" fill="#000000">1</text>
</a>
</g>
</g>
<!-- dir_3d3615e9a999cab4f3407307569d6ced&#45;&gt;dir_ebb19deee3cd40f4ac122fef25c04ca8 -->
<g id="edge29" class="edge">
<title>dir_3d3615e9a999cab4f3407307569d6ced&#45;&gt;dir_ebb19deee3cd40f4ac122fef25c04ca8</title>
<path fill="none" stroke="#000000" d="M359.1969,-215.8314C353.6125,-207.7925 347.6574,-198.1666 342.7279,-189.2918"/>
<polygon fill="#000000" stroke="#000000" points="345.7973,-187.6089 338.0208,-180.4133 339.6127,-190.8878 345.7973,-187.6089"/>
<g id="a_edge29&#45;headlabel"><a xlink:href="dir_000009_000006.html" target="_top" xlink:title="1">
<text text-anchor="middle" x="349.9895" y="-186.9549" font-family="Helvetica,sans-Serif" font-size="10.00" fill="#000000">1</text>
</a>
</g>
</g>
</g>
</svg>
        <g id="navigator" transform="translate(0 0)" fill="#404254">
                <rect fill="#f2f5e9" fill-opacity="0.5" stroke="#606060" stroke-width=".5" x="0" y="0" width="60" height="60"/>
                <use id="zoomplus" xlink:href="#zoomPlus" x="17" y="9" onmousedown="handleZoom(evt,'in')"/>
                <use id="zoomminus" xlink:href="#zoomMin" x="42" y="9" onmousedown="handleZoom(evt,'out')"/>
                <use id="reset" xlink:href="#resetDef" x="30" y="36" onmousedown="handleReset()"/>
                <g id="arrowUp" xlink:href="#dirArrow" transform="translate(30 24)" onmousedown="handlePan(0,-1)">
                  <use xlink:href="#rim" fill="#404040">
                        <set attributeName="fill" to="#808080" begin="arrowUp.mouseover" end="arrowUp.mouseout"/>
                  </use>
                  <path fill="none" stroke="white" stroke-width="1.5" d="M0,-3.0v7 M-2.5,-0.5L0,-3.0L2.5,-0.5"/>
                </g>
                <g id="arrowRight" xlink:href="#dirArrow" transform="rotate(90) translate(36 -43)" onmousedown="handlePan(1,0)">
                  <use xlink:href="#rim" fill="#404040">
                        <set attributeName="fill" to="#808080" begin="arrowRight.mouseover" end="arrowRight.mouseout"/>
                  </use>
                  <path fill="none" stroke="white" stroke-width="1.5" d="M0,-3.0v7 M-2.5,-0.5L0,-3.0L2.5,-0.5"/>
                </g>
                <g id="arrowDown" xlink:href="#dirArrow" transform="rotate(180) translate(-30 -48)" onmousedown="handlePan(0,1)">
                  <use xlink:href="#rim" fill="#404040">
                        <set attributeName="fill" to="#808080" begin="arrowDown.mouseover" end="arrowDown.mouseout"/>
                  </use>
                  <path fill="none" stroke="white" stroke-width="1.5" d="M0,-3.0v7 M-2.5,-0.5L0,-3.0L2.5,-0.5"/>
                </g>
                <g id="arrowLeft" xlink:href="#dirArrow" transform="rotate(270) translate(-36 17)" onmousedown="handlePan(-1,0)">
                  <use xlink:href="#rim" fill="#404040">
                        <set attributeName="fill" to="#808080" begin="arrowLeft.mouseover" end="arrowLeft.mouseout"/>
                  </use>
                  <path fill="none" stroke="white" stroke-width="1.5" d="M0,-3.0v7 M-2.5,-0.5L0,-3.0L2.5,-0.5"/>
                </g>
        </g>
        <svg viewBox="0 0 15 15" width="100%" height="30px" preserveAspectRatio="xMaxYMin meet">
         <g id="arrow_out" transform="scale(0.3 0.3)">
          <a xlink:href="dir_4bb30ed846ea1df1fc4d16874a455d91_dep_org.svg" target="_base">
           <rect id="button" ry="5" rx="5" y="6" x="6" height="38" width="38"
                fill="#f2f5e9" fill-opacity="0.5" stroke="#606060" stroke-width="1.0"/>
           <path id="arrow"
             d="M 11.500037,31.436501 C 11.940474,20.09759 22.043105,11.32322 32.158766,21.979434 L 37.068811,17.246167 C 37.068811,17.246167 37.088388,32 37.088388,32 L 22.160133,31.978069 C 22.160133,31.978069 26.997745,27.140456 26.997745,27.140456 C 18.528582,18.264221 13.291696,25.230495 11.500037,31.436501 z"
             style="fill:#404040;"/>
          </a>
         </g>
        </svg>
</svg>
