<?xml version="1.0" encoding="UTF-8" standalone="no"?>
<!DOCTYPE svg PUBLIC "-//W3C//DTD SVG 1.1//EN"
 "http://www.w3.org/Graphics/SVG/1.1/DTD/svg11.dtd">
<!-- Generated by graphviz version 2.40.1 (20161225.0304)
 -->
<!-- Title: equation_systems Pages: 1 -->
<!--zoomable 547 -->
<svg id="main" version="1.1" xmlns="http://www.w3.org/2000/svg" xmlns:xlink="http://www.w3.org/1999/xlink" xml:space="preserve" onload="init(evt)">
<style type="text/css"><![CDATA[
.edge:hover path { stroke: red; }
.edge:hover polygon { stroke: red; fill: red; }
]]></style>
<script type="text/javascript"><![CDATA[
var edges = document.getElementsByTagName('g');
if (edges && edges.length) {
  for (var i=0;i<edges.length;i++) {
    if (edges[i].id.substr(0,4)=='edge') {
      edges[i].setAttribute('class','edge');
    }
  }
}
]]></script>
        <defs>
                <circle id="rim" cx="0" cy="0" r="7"/>
                <circle id="rim2" cx="0" cy="0" r="3.5"/>
                <g id="zoomPlus">
                        <use xlink:href="#rim" fill="#404040">
                                <set attributeName="fill" to="#808080" begin="zoomplus.mouseover" end="zoomplus.mouseout"/>
                        </use>
                        <path d="M-4,0h8M0,-4v8" fill="none" stroke="white" stroke-width="1.5" pointer-events="none"/>
                </g>
                <g id="zoomMin">
                        <use xlink:href="#rim" fill="#404040">
                                <set attributeName="fill" to="#808080" begin="zoomminus.mouseover" end="zoomminus.mouseout"/>
                        </use>
                        <path d="M-4,0h8" fill="none" stroke="white" stroke-width="1.5" pointer-events="none"/>
                </g>
                <g id="dirArrow">
                        <path fill="none" stroke="white" stroke-width="1.5" d="M0,-3.0v7 M-2.5,-0.5L0,-3.0L2.5,-0.5"/>
                </g>
               <g id="resetDef">
                       <use xlink:href="#rim2" fill="#404040">
                               <set attributeName="fill" to="#808080" begin="reset.mouseover" end="reset.mouseout"/>
                       </use>
               </g>
        </defs>

<script type="text/javascript">
var viewWidth = 742;
var viewHeight = 547;
var sectionId = 'dynsection-0';
</script>
<script xlink:href="svgpan.js"/>
<svg id="graph" class="graph">
<g id="viewport">
<title>equation_systems</title>
<polygon fill="#ffffff" stroke="transparent" points="-4,4 -4,-542.5683 738,-542.5683 738,4 -4,4"/>
<g id="clust1" class="cluster">
<title>clusterdir_d85575251dd712327fe3cf057fa568b4</title>
<g id="a_clust1"><a xlink:href="dir_d85575251dd712327fe3cf057fa568b4.html" target="_top" xlink:title="amr&#45;wind">
<polygon fill="#ddddee" stroke="#000000" points="8,-416 8,-503 582,-503 582,-416 8,-416"/>
<text text-anchor="middle" x="295" y="-491" font-family="Helvetica,sans-Serif" font-size="10.00" fill="#000000">amr&#45;wind</text>
</a>
</g>
</g>
<g id="clust2" class="cluster">
<title>clusterdir_4bb30ed846ea1df1fc4d16874a455d91</title>
<g id="a_clust2"><a xlink:href="dir_4bb30ed846ea1df1fc4d16874a455d91.html" target="_top">
<polygon fill="#eeeeff" stroke="#000000" points="16,-424 16,-476 574,-476 574,-424 16,-424"/>
</a>
</g>
</g>
<!-- dir_4bb30ed846ea1df1fc4d16874a455d91 -->
<g id="node1" class="node">
<title>dir_4bb30ed846ea1df1fc4d16874a455d91</title>
<text text-anchor="middle" x="72" y="-447.5" font-family="Helvetica,sans-Serif" font-size="10.00" fill="#000000">equation_systems</text>
</g>
<!-- dir_9ff815a534beac751fa88e427dbab695 -->
<g id="node8" class="node">
<title>dir_9ff815a534beac751fa88e427dbab695</title>
<g id="a_node8"><a xlink:href="dir_9ff815a534beac751fa88e427dbab695.html" target="_top" xlink:title="turbulence">
<polygon fill="#ffffff" stroke="#ff0000" points="734,-468 672,-468 672,-432 734,-432 734,-468"/>
<text text-anchor="middle" x="703" y="-447.5" font-family="Helvetica,sans-Serif" font-size="10.00" fill="#000000">turbulence</text>
</a>
</g>
</g>
<!-- dir_4bb30ed846ea1df1fc4d16874a455d91&#45;&gt;dir_9ff815a534beac751fa88e427dbab695 -->
<g id="edge31" class="edge">
<title>dir_4bb30ed846ea1df1fc4d16874a455d91&#45;&gt;dir_9ff815a534beac751fa88e427dbab695</title>
<path fill="none" stroke="#000000" d="M82.6803,-468.2516C93.95,-485.5106 113.4688,-510.3106 138,-521 164.2801,-532.4515 628.6174,-534.323 654,-521 671.4612,-511.8348 683.9232,-493.3148 691.9093,-477.4877"/>
<polygon fill="#000000" stroke="#000000" points="695.2391,-478.6296 696.308,-468.0888 688.8991,-475.6624 695.2391,-478.6296"/>
<g id="a_edge31&#45;headlabel"><a xlink:href="dir_000002_000022.html" target="_top" xlink:title="2">
<text text-anchor="middle" x="696.2871" y="-480.5888" font-family="Helvetica,sans-Serif" font-size="10.00" fill="#000000">2</text>
</a>
</g>
</g>
<!-- dir_35ffb1505af3943bdf99903da87524fe -->
<g id="node9" class="node">
<title>dir_35ffb1505af3943bdf99903da87524fe</title>
<g id="a_node9"><a xlink:href="dir_35ffb1505af3943bdf99903da87524fe.html" target="_top" xlink:title="convection">
<polygon fill="none" stroke="#000000" points="654,-468 590,-468 590,-432 654,-432 654,-468"/>
<text text-anchor="middle" x="622" y="-447.5" font-family="Helvetica,sans-Serif" font-size="10.00" fill="#000000">convection</text>
</a>
</g>
</g>
<!-- dir_4bb30ed846ea1df1fc4d16874a455d91&#45;&gt;dir_35ffb1505af3943bdf99903da87524fe -->
<g id="edge32" class="edge">
<title>dir_4bb30ed846ea1df1fc4d16874a455d91&#45;&gt;dir_35ffb1505af3943bdf99903da87524fe</title>
<path fill="none" stroke="#000000" d="M82.6803,-468.2516C93.95,-485.5106 113.4688,-510.3106 138,-521 181.902,-540.1302 526.1911,-542.4649 569,-521 587.2761,-511.8362 600.8613,-493.0489 609.7001,-477.1014"/>
<polygon fill="#000000" stroke="#000000" points="612.8542,-478.622 614.3553,-468.1341 606.6414,-475.3968 612.8542,-478.622"/>
<g id="a_edge32&#45;headlabel"><a xlink:href="dir_000002_000016.html" target="_top" xlink:title="3">
<text text-anchor="middle" x="613.718" y="-480.6205" font-family="Helvetica,sans-Serif" font-size="10.00" fill="#000000">3</text>
</a>
</g>
</g>
<!-- dir_ebb19deee3cd40f4ac122fef25c04ca8 -->
<g id="node11" class="node">
<title>dir_ebb19deee3cd40f4ac122fef25c04ca8</title>
<g id="a_node11"><a xlink:href="dir_ebb19deee3cd40f4ac122fef25c04ca8.html" target="_top" xlink:title="boundary_conditions">
<polygon fill="none" stroke="#000000" points="348,-180 242,-180 242,-144 348,-144 348,-180"/>
<text text-anchor="middle" x="295" y="-159.5" font-family="Helvetica,sans-Serif" font-size="10.00" fill="#000000">boundary_conditions</text>
</a>
</g>
</g>
<!-- dir_4bb30ed846ea1df1fc4d16874a455d91&#45;&gt;dir_ebb19deee3cd40f4ac122fef25c04ca8 -->
<g id="edge33" class="edge">
<title>dir_4bb30ed846ea1df1fc4d16874a455d91&#45;&gt;dir_ebb19deee3cd40f4ac122fef25c04ca8</title>
<path fill="none" stroke="#000000" d="M102.4351,-431.8602C128.3077,-416.4213 161.3813,-396.6335 162,-396 223.2928,-333.2447 266.2118,-236.6971 284.7449,-189.6628"/>
<polygon fill="#000000" stroke="#000000" points="288.0843,-190.7312 288.4282,-180.142 281.5558,-188.2055 288.0843,-190.7312"/>
<g id="a_edge33&#45;headlabel"><a xlink:href="dir_000002_000006.html" target="_top" xlink:title="1">
<text text-anchor="middle" x="289.4353" y="-192.6081" font-family="Helvetica,sans-Serif" font-size="10.00" fill="#000000">1</text>
</a>
</g>
</g>
<!-- dir_e4cd57caa88bf1f4e1bf9521bc47c3c0 -->
<g id="node12" class="node">
<title>dir_e4cd57caa88bf1f4e1bf9521bc47c3c0</title>
<g id="a_node12"><a xlink:href="dir_e4cd57caa88bf1f4e1bf9521bc47c3c0.html" target="_top" xlink:title="utilities">
<polygon fill="#ffffff" stroke="#ff0000" points="621,-396 567,-396 567,-360 621,-360 621,-396"/>
<text text-anchor="middle" x="594" y="-375.5" font-family="Helvetica,sans-Serif" font-size="10.00" fill="#000000">utilities</text>
</a>
</g>
</g>
<!-- dir_4bb30ed846ea1df1fc4d16874a455d91&#45;&gt;dir_e4cd57caa88bf1f4e1bf9521bc47c3c0 -->
<g id="edge34" class="edge">
<title>dir_4bb30ed846ea1df1fc4d16874a455d91&#45;&gt;dir_e4cd57caa88bf1f4e1bf9521bc47c3c0</title>
<path fill="none" stroke="#000000" d="M96.6306,-431.9587C106.2614,-425.8274 117.6963,-419.617 129,-416 208.4697,-390.5711 461.2019,-381.4599 556.8445,-378.8718"/>
<polygon fill="#000000" stroke="#000000" points="557.0161,-382.3686 566.921,-378.6077 556.8327,-375.371 557.0161,-382.3686"/>
<g id="a_edge34&#45;headlabel"><a xlink:href="dir_000002_000005.html" target="_top" xlink:title="10">
<text text-anchor="middle" x="553.4971" y="-382.8009" font-family="Helvetica,sans-Serif" font-size="10.00" fill="#000000">10</text>
</a>
</g>
</g>
<!-- dir_a816a247b59c90f95e41afe29b966a18 -->
<g id="node14" class="node">
<title>dir_a816a247b59c90f95e41afe29b966a18</title>
<g id="a_node14"><a xlink:href="dir_a816a247b59c90f95e41afe29b966a18.html" target="_top" xlink:title="diffusion">
<polygon fill="none" stroke="#000000" points="137,-36 83,-36 83,0 137,0 137,-36"/>
<text text-anchor="middle" x="110" y="-15.5" font-family="Helvetica,sans-Serif" font-size="10.00" fill="#000000">diffusion</text>
</a>
</g>
</g>
<!-- dir_4bb30ed846ea1df1fc4d16874a455d91&#45;&gt;dir_a816a247b59c90f95e41afe29b966a18 -->
<g id="edge35" class="edge">
<title>dir_4bb30ed846ea1df1fc4d16874a455d91&#45;&gt;dir_a816a247b59c90f95e41afe29b966a18</title>
<path fill="none" stroke="#000000" d="M72,-431.8146C72,-404.4983 72,-351.25 72,-306 72,-306 72,-306 72,-162 72,-120.3681 87.0328,-74.14 98.1881,-45.567"/>
<polygon fill="#000000" stroke="#000000" points="101.4578,-46.817 101.9412,-36.2332 94.9632,-44.2055 101.4578,-46.817"/>
<g id="a_edge35&#45;headlabel"><a xlink:href="dir_000002_000015.html" target="_top" xlink:title="1">
<text text-anchor="middle" x="102.7511" y="-48.7113" font-family="Helvetica,sans-Serif" font-size="10.00" fill="#000000">1</text>
</a>
</g>
</g>
<!-- dir_70329d5a297148af2b67b1d844b9f654 -->
<g id="node2" class="node">
<title>dir_70329d5a297148af2b67b1d844b9f654</title>
<g id="a_node2"><a xlink:href="dir_70329d5a297148af2b67b1d844b9f654.html" target="_top" xlink:title="density">
<polygon fill="#ffffff" stroke="#000000" points="264,-468 210,-468 210,-432 264,-432 264,-468"/>
<text text-anchor="middle" x="237" y="-447.5" font-family="Helvetica,sans-Serif" font-size="10.00" fill="#000000">density</text>
</a>
</g>
</g>
<!-- dir_3d3615e9a999cab4f3407307569d6ced -->
<g id="node15" class="node">
<title>dir_3d3615e9a999cab4f3407307569d6ced</title>
<g id="a_node15"><a xlink:href="dir_3d3615e9a999cab4f3407307569d6ced.html" target="_top" xlink:title="core">
<polygon fill="#ffffff" stroke="#ff0000" points="375,-252 321,-252 321,-216 375,-216 375,-252"/>
<text text-anchor="middle" x="348" y="-231.5" font-family="Helvetica,sans-Serif" font-size="10.00" fill="#000000">core</text>
</a>
</g>
</g>
<!-- dir_70329d5a297148af2b67b1d844b9f654&#45;&gt;dir_3d3615e9a999cab4f3407307569d6ced -->
<g id="edge5" class="edge">
<title>dir_70329d5a297148af2b67b1d844b9f654&#45;&gt;dir_3d3615e9a999cab4f3407307569d6ced</title>
<path fill="none" stroke="#000000" d="M244.6478,-431.6181C257.5403,-401.1458 284.9499,-338.5182 313,-288 318.0716,-278.866 324.1084,-269.1994 329.7284,-260.6082"/>
<polygon fill="#000000" stroke="#000000" points="332.7551,-262.3774 335.3763,-252.1119 326.9256,-258.5022 332.7551,-262.3774"/>
<g id="a_edge5&#45;headlabel"><a xlink:href="dir_000013_000009.html" target="_top" xlink:title="4">
<text text-anchor="middle" x="333.1297" y="-264.4427" font-family="Helvetica,sans-Serif" font-size="10.00" fill="#000000">4</text>
</a>
</g>
</g>
<!-- dir_4012ff34c1bb5bd303e44a1c9cef6c8a -->
<g id="node3" class="node">
<title>dir_4012ff34c1bb5bd303e44a1c9cef6c8a</title>
<g id="a_node3"><a xlink:href="dir_4012ff34c1bb5bd303e44a1c9cef6c8a.html" target="_top" xlink:title="icns">
<polygon fill="#ffffff" stroke="#ff0000" points="566,-468 512,-468 512,-432 566,-432 566,-468"/>
<text text-anchor="middle" x="539" y="-447.5" font-family="Helvetica,sans-Serif" font-size="10.00" fill="#000000">icns</text>
</a>
</g>
</g>
<!-- dir_4012ff34c1bb5bd303e44a1c9cef6c8a&#45;&gt;dir_35ffb1505af3943bdf99903da87524fe -->
<g id="edge21" class="edge">
<title>dir_4012ff34c1bb5bd303e44a1c9cef6c8a&#45;&gt;dir_35ffb1505af3943bdf99903da87524fe</title>
<path fill="none" stroke="#000000" d="M566.2344,-450C570.6455,-450 575.0567,-450 579.4678,-450"/>
<polygon fill="#000000" stroke="#000000" points="579.7605,-453.5001 589.7605,-450 579.7605,-446.5001 579.7605,-453.5001"/>
<g id="a_edge21&#45;headlabel"><a xlink:href="dir_000003_000016.html" target="_top" xlink:title="1">
<text text-anchor="middle" x="576.1659" y="-453.8393" font-family="Helvetica,sans-Serif" font-size="10.00" fill="#000000">1</text>
</a>
</g>
</g>
<!-- dir_0c368f76a33d967d5b838b5681461de6 -->
<g id="node10" class="node">
<title>dir_0c368f76a33d967d5b838b5681461de6</title>
<g id="a_node10"><a xlink:href="dir_0c368f76a33d967d5b838b5681461de6.html" target="_top" xlink:title="wind_energy">
<polygon fill="none" stroke="#000000" points="430.5,-108 359.5,-108 359.5,-72 430.5,-72 430.5,-108"/>
<text text-anchor="middle" x="395" y="-87.5" font-family="Helvetica,sans-Serif" font-size="10.00" fill="#000000">wind_energy</text>
</a>
</g>
</g>
<!-- dir_4012ff34c1bb5bd303e44a1c9cef6c8a&#45;&gt;dir_0c368f76a33d967d5b838b5681461de6 -->
<g id="edge22" class="edge">
<title>dir_4012ff34c1bb5bd303e44a1c9cef6c8a&#45;&gt;dir_0c368f76a33d967d5b838b5681461de6</title>
<path fill="none" stroke="#000000" d="M520.8239,-431.8482C486.1555,-396.8574 414,-322.0974 414,-306 414,-306 414,-306 414,-234 414,-193.5282 406.532,-147.2037 400.96,-118.2725"/>
<polygon fill="#000000" stroke="#000000" points="404.3177,-117.2111 398.9368,-108.0844 397.4517,-118.5746 404.3177,-117.2111"/>
<g id="a_edge22&#45;headlabel"><a xlink:href="dir_000003_000001.html" target="_top" xlink:title="2">
<text text-anchor="middle" x="407.8026" y="-117.6839" font-family="Helvetica,sans-Serif" font-size="10.00" fill="#000000">2</text>
</a>
</g>
</g>
<!-- dir_4012ff34c1bb5bd303e44a1c9cef6c8a&#45;&gt;dir_e4cd57caa88bf1f4e1bf9521bc47c3c0 -->
<g id="edge23" class="edge">
<title>dir_4012ff34c1bb5bd303e44a1c9cef6c8a&#45;&gt;dir_e4cd57caa88bf1f4e1bf9521bc47c3c0</title>
<path fill="none" stroke="#000000" d="M552.8788,-431.8314C559.2136,-423.5386 566.8384,-413.557 573.7926,-404.4533"/>
<polygon fill="#000000" stroke="#000000" points="576.6452,-406.4847 579.9343,-396.4133 571.0825,-402.2353 576.6452,-406.4847"/>
<g id="a_edge23&#45;headlabel"><a xlink:href="dir_000003_000005.html" target="_top" xlink:title="8">
<text text-anchor="middle" x="576.7195" y="-408.5647" font-family="Helvetica,sans-Serif" font-size="10.00" fill="#000000">8</text>
</a>
</g>
</g>
<!-- dir_7f7a014517bfe31ea45620a6a947e37b -->
<g id="node13" class="node">
<title>dir_7f7a014517bfe31ea45620a6a947e37b</title>
<g id="a_node13"><a xlink:href="dir_7f7a014517bfe31ea45620a6a947e37b.html" target="_top" xlink:title="fvm">
<polygon fill="none" stroke="#000000" points="628,-324 574,-324 574,-288 628,-288 628,-324"/>
<text text-anchor="middle" x="601" y="-303.5" font-family="Helvetica,sans-Serif" font-size="10.00" fill="#000000">fvm</text>
</a>
</g>
</g>
<!-- dir_4012ff34c1bb5bd303e44a1c9cef6c8a&#45;&gt;dir_7f7a014517bfe31ea45620a6a947e37b -->
<g id="edge24" class="edge">
<title>dir_4012ff34c1bb5bd303e44a1c9cef6c8a&#45;&gt;dir_7f7a014517bfe31ea45620a6a947e37b</title>
<path fill="none" stroke="#000000" d="M559.0513,-431.7783C565.7303,-426.265 573.4093,-420.4886 581,-416 601.2469,-404.0273 616.8813,-415.5239 630,-396 642.8833,-376.8264 632.8416,-351.5389 621.1847,-332.6518"/>
<polygon fill="#000000" stroke="#000000" points="624.0409,-330.6253 615.6095,-324.2095 618.1997,-334.4829 624.0409,-330.6253"/>
<g id="a_edge24&#45;headlabel"><a xlink:href="dir_000003_000011.html" target="_top" xlink:title="1">
<text text-anchor="middle" x="628.391" y="-329.5602" font-family="Helvetica,sans-Serif" font-size="10.00" fill="#000000">1</text>
</a>
</g>
</g>
<!-- dir_4012ff34c1bb5bd303e44a1c9cef6c8a&#45;&gt;dir_3d3615e9a999cab4f3407307569d6ced -->
<g id="edge25" class="edge">
<title>dir_4012ff34c1bb5bd303e44a1c9cef6c8a&#45;&gt;dir_3d3615e9a999cab4f3407307569d6ced</title>
<path fill="none" stroke="#000000" d="M523.7077,-431.8849C517.8139,-425.9733 510.6478,-419.9264 503,-416 461.5151,-394.7016 434.8739,-426.9585 400,-396 379.8821,-378.1408 362.0678,-303.6852 353.4635,-262.2111"/>
<polygon fill="#000000" stroke="#000000" points="356.8488,-261.2936 351.4304,-252.1891 349.9885,-262.6854 356.8488,-261.2936"/>
<g id="a_edge25&#45;headlabel"><a xlink:href="dir_000003_000009.html" target="_top" xlink:title="16">
<text text-anchor="middle" x="360.3459" y="-261.752" font-family="Helvetica,sans-Serif" font-size="10.00" fill="#000000">16</text>
</a>
</g>
</g>
<!-- dir_ce0741f9b73f67c263a459724eeecf8b -->
<g id="node4" class="node">
<title>dir_ce0741f9b73f67c263a459724eeecf8b</title>
<g id="a_node4"><a xlink:href="dir_ce0741f9b73f67c263a459724eeecf8b.html" target="_top" xlink:title="levelset">
<polygon fill="#ffffff" stroke="#000000" points="336,-468 282,-468 282,-432 336,-432 336,-468"/>
<text text-anchor="middle" x="309" y="-447.5" font-family="Helvetica,sans-Serif" font-size="10.00" fill="#000000">levelset</text>
</a>
</g>
</g>
<!-- dir_9f8434f21d2c2598f33c85a8b98c6d56 -->
<g id="node5" class="node">
<title>dir_9f8434f21d2c2598f33c85a8b98c6d56</title>
<g id="a_node5"><a xlink:href="dir_9f8434f21d2c2598f33c85a8b98c6d56.html" target="_top" xlink:title="sdr">
<polygon fill="#ffffff" stroke="#000000" points="408,-468 354,-468 354,-432 408,-432 408,-468"/>
<text text-anchor="middle" x="381" y="-447.5" font-family="Helvetica,sans-Serif" font-size="10.00" fill="#000000">sdr</text>
</a>
</g>
</g>
<!-- dir_9f8434f21d2c2598f33c85a8b98c6d56&#45;&gt;dir_3d3615e9a999cab4f3407307569d6ced -->
<g id="edge26" class="edge">
<title>dir_9f8434f21d2c2598f33c85a8b98c6d56&#45;&gt;dir_3d3615e9a999cab4f3407307569d6ced</title>
<path fill="none" stroke="#000000" d="M361.7625,-431.8578C345.2688,-416.2907 324.1313,-396.3052 324,-396 305.0338,-351.906 314.0356,-334.9543 324,-288 325.8981,-279.0557 329.3835,-269.7941 333.1209,-261.5203"/>
<polygon fill="#000000" stroke="#000000" points="336.3568,-262.8676 337.5441,-252.3395 330.0505,-259.8294 336.3568,-262.8676"/>
<g id="a_edge26&#45;headlabel"><a xlink:href="dir_000029_000009.html" target="_top" xlink:title="4">
<text text-anchor="middle" x="337.3545" y="-264.8383" font-family="Helvetica,sans-Serif" font-size="10.00" fill="#000000">4</text>
</a>
</g>
</g>
<!-- dir_c96908905c9887b0bdc2167e5354d30c -->
<g id="node6" class="node">
<title>dir_c96908905c9887b0bdc2167e5354d30c</title>
<g id="a_node6"><a xlink:href="dir_c96908905c9887b0bdc2167e5354d30c.html" target="_top" xlink:title="temperature">
<polygon fill="#ffffff" stroke="#000000" points="494,-468 426,-468 426,-432 494,-432 494,-468"/>
<text text-anchor="middle" x="460" y="-447.5" font-family="Helvetica,sans-Serif" font-size="10.00" fill="#000000">temperature</text>
</a>
</g>
</g>
<!-- dir_c96908905c9887b0bdc2167e5354d30c&#45;&gt;dir_3d3615e9a999cab4f3407307569d6ced -->
<g id="edge8" class="edge">
<title>dir_c96908905c9887b0bdc2167e5354d30c&#45;&gt;dir_3d3615e9a999cab4f3407307569d6ced</title>
<path fill="none" stroke="#000000" d="M439.9553,-431.9743C433.02,-426.3455 424.9785,-420.4514 417,-416 394.2857,-403.3271 377.8263,-416.6415 362,-396 332.3461,-357.3236 336.3211,-297.1371 342.0539,-262.0417"/>
<polygon fill="#000000" stroke="#000000" points="345.5332,-262.4681 343.8543,-252.0072 338.6433,-261.2319 345.5332,-262.4681"/>
<g id="a_edge8&#45;headlabel"><a xlink:href="dir_000030_000009.html" target="_top" xlink:title="4">
<text text-anchor="middle" x="347.6932" y="-264.0076" font-family="Helvetica,sans-Serif" font-size="10.00" fill="#000000">4</text>
</a>
</g>
</g>
<!-- dir_be932497d8c26b6aa8596ee64638838f -->
<g id="node7" class="node">
<title>dir_be932497d8c26b6aa8596ee64638838f</title>
<g id="a_node7"><a xlink:href="dir_be932497d8c26b6aa8596ee64638838f.html" target="_top" xlink:title="tke">
<polygon fill="#ffffff" stroke="#ff0000" points="192,-468 138,-468 138,-432 192,-432 192,-468"/>
<text text-anchor="middle" x="165" y="-447.5" font-family="Helvetica,sans-Serif" font-size="10.00" fill="#000000">tke</text>
</a>
</g>
</g>
<!-- dir_be932497d8c26b6aa8596ee64638838f&#45;&gt;dir_9ff815a534beac751fa88e427dbab695 -->
<g id="edge6" class="edge">
<title>dir_be932497d8c26b6aa8596ee64638838f&#45;&gt;dir_9ff815a534beac751fa88e427dbab695</title>
<path fill="none" stroke="#000000" d="M170.7294,-468.0384C177.2342,-485.1355 189.6695,-509.8155 210,-521 253.2242,-544.7791 610.3184,-543.928 654,-521 671.4612,-511.8348 683.9232,-493.3148 691.9093,-477.4877"/>
<polygon fill="#000000" stroke="#000000" points="695.2391,-478.6296 696.308,-468.0888 688.8991,-475.6624 695.2391,-478.6296"/>
<g id="a_edge6&#45;headlabel"><a xlink:href="dir_000020_000022.html" target="_top" xlink:title="1">
<text text-anchor="middle" x="696.2871" y="-480.5888" font-family="Helvetica,sans-Serif" font-size="10.00" fill="#000000">1</text>
</a>
</g>
</g>
<!-- dir_be932497d8c26b6aa8596ee64638838f&#45;&gt;dir_3d3615e9a999cab4f3407307569d6ced -->
<g id="edge7" class="edge">
<title>dir_be932497d8c26b6aa8596ee64638838f&#45;&gt;dir_3d3615e9a999cab4f3407307569d6ced</title>
<path fill="none" stroke="#000000" d="M177.9465,-431.8498C200.0976,-401.1837 247.2237,-337.6103 292,-288 300.8371,-278.2088 311.0811,-268.0297 320.3727,-259.1834"/>
<polygon fill="#000000" stroke="#000000" points="323.0142,-261.5039 327.9018,-252.1038 318.219,-256.4042 323.0142,-261.5039"/>
<g id="a_edge7&#45;headlabel"><a xlink:href="dir_000020_000009.html" target="_top" xlink:title="5">
<text text-anchor="middle" x="322.3404" y="-263.5347" font-family="Helvetica,sans-Serif" font-size="10.00" fill="#000000">5</text>
</a>
</g>
</g>
<!-- dir_9ff815a534beac751fa88e427dbab695&#45;&gt;dir_be932497d8c26b6aa8596ee64638838f -->
<g id="edge1" class="edge">
<title>dir_9ff815a534beac751fa88e427dbab695&#45;&gt;dir_be932497d8c26b6aa8596ee64638838f</title>
<path fill="none" stroke="#000000" d="M696.308,-468.0888C688.8808,-485.2242 675.0852,-509.9326 654,-521 610.3184,-543.928 253.2242,-544.7791 210,-521 193.1638,-511.7378 181.7421,-493.2206 174.619,-477.4191"/>
<polygon fill="#000000" stroke="#000000" points="177.7928,-475.9352 170.7294,-468.0384 171.3266,-478.6164 177.7928,-475.9352"/>
<g id="a_edge1&#45;headlabel"><a xlink:href="dir_000022_000020.html" target="_top" xlink:title="1">
<text text-anchor="middle" x="181.7923" y="-475.6682" font-family="Helvetica,sans-Serif" font-size="10.00" fill="#000000">1</text>
</a>
</g>
</g>
<!-- dir_9ff815a534beac751fa88e427dbab695&#45;&gt;dir_e4cd57caa88bf1f4e1bf9521bc47c3c0 -->
<g id="edge2" class="edge">
<title>dir_9ff815a534beac751fa88e427dbab695&#45;&gt;dir_e4cd57caa88bf1f4e1bf9521bc47c3c0</title>
<path fill="none" stroke="#000000" d="M683.2824,-431.88C677.0089,-426.4922 669.9017,-420.7618 663,-416 652.7109,-408.9011 640.9726,-402.027 630.1318,-396.1222"/>
<polygon fill="#000000" stroke="#000000" points="631.7589,-393.0234 621.2881,-391.4066 628.4653,-399.2001 631.7589,-393.0234"/>
<g id="a_edge2&#45;headlabel"><a xlink:href="dir_000022_000005.html" target="_top" xlink:title="1">
<text text-anchor="middle" x="636.2666" y="-389.7093" font-family="Helvetica,sans-Serif" font-size="10.00" fill="#000000">1</text>
</a>
</g>
</g>
<!-- dir_9ff815a534beac751fa88e427dbab695&#45;&gt;dir_7f7a014517bfe31ea45620a6a947e37b -->
<g id="edge3" class="edge">
<title>dir_9ff815a534beac751fa88e427dbab695&#45;&gt;dir_7f7a014517bfe31ea45620a6a947e37b</title>
<path fill="none" stroke="#000000" d="M692.8103,-431.8996C682.1238,-413.3515 664.4814,-383.9217 647,-360 640.1015,-350.5601 631.9933,-340.6952 624.5213,-332.0187"/>
<polygon fill="#000000" stroke="#000000" points="627.1067,-329.6582 617.8911,-324.431 621.8355,-334.2642 627.1067,-329.6582"/>
<g id="a_edge3&#45;headlabel"><a xlink:href="dir_000022_000011.html" target="_top" xlink:title="3">
<text text-anchor="middle" x="631.6099" y="-327.9968" font-family="Helvetica,sans-Serif" font-size="10.00" fill="#000000">3</text>
</a>
</g>
</g>
<!-- dir_9ff815a534beac751fa88e427dbab695&#45;&gt;dir_3d3615e9a999cab4f3407307569d6ced -->
<g id="edge4" class="edge">
<title>dir_9ff815a534beac751fa88e427dbab695&#45;&gt;dir_3d3615e9a999cab4f3407307569d6ced</title>
<path fill="none" stroke="#000000" d="M701.4439,-431.8533C697.4521,-397.5704 683.607,-323.5429 637,-288 597.9126,-258.1916 454.0423,-242.6694 385.1918,-236.81"/>
<polygon fill="#000000" stroke="#000000" points="385.4606,-233.3204 375.2059,-235.9834 384.8831,-240.2965 385.4606,-233.3204"/>
<g id="a_edge4&#45;headlabel"><a xlink:href="dir_000022_000009.html" target="_top" xlink:title="5">
<text text-anchor="middle" x="389.2772" y="-228.2872" font-family="Helvetica,sans-Serif" font-size="10.00" fill="#000000">5</text>
</a>
</g>
</g>
<!-- dir_35ffb1505af3943bdf99903da87524fe&#45;&gt;dir_e4cd57caa88bf1f4e1bf9521bc47c3c0 -->
<g id="edge9" class="edge">
<title>dir_35ffb1505af3943bdf99903da87524fe&#45;&gt;dir_e4cd57caa88bf1f4e1bf9521bc47c3c0</title>
<path fill="none" stroke="#000000" d="M614.9344,-431.8314C611.874,-423.9617 608.2221,-414.5712 604.8318,-405.8533"/>
<polygon fill="#000000" stroke="#000000" points="608.0473,-404.4647 601.1607,-396.4133 601.5232,-407.0019 608.0473,-404.4647"/>
<g id="a_edge9&#45;headlabel"><a xlink:href="dir_000016_000005.html" target="_top" xlink:title="4">
<text text-anchor="middle" x="611.9963" y="-404.2859" font-family="Helvetica,sans-Serif" font-size="10.00" fill="#000000">4</text>
</a>
</g>
</g>
<!-- dir_35ffb1505af3943bdf99903da87524fe&#45;&gt;dir_3d3615e9a999cab4f3407307569d6ced -->
<g id="edge10" class="edge">
<title>dir_35ffb1505af3943bdf99903da87524fe&#45;&gt;dir_3d3615e9a999cab4f3407307569d6ced</title>
<path fill="none" stroke="#000000" d="M599.1102,-431.9555C550.0522,-393.282 434.729,-302.3703 379.0961,-258.5137"/>
<polygon fill="#000000" stroke="#000000" points="381.0374,-255.5873 371.0174,-252.1451 376.7038,-261.0846 381.0374,-255.5873"/>
<g id="a_edge10&#45;headlabel"><a xlink:href="dir_000016_000009.html" target="_top" xlink:title="4">
<text text-anchor="middle" x="385.6181" y="-253.0829" font-family="Helvetica,sans-Serif" font-size="10.00" fill="#000000">4</text>
</a>
</g>
</g>
<!-- dir_0c368f76a33d967d5b838b5681461de6&#45;&gt;dir_4bb30ed846ea1df1fc4d16874a455d91 -->
<g id="edge16" class="edge">
<title>dir_0c368f76a33d967d5b838b5681461de6&#45;&gt;dir_4bb30ed846ea1df1fc4d16874a455d91</title>
<path fill="none" stroke="#000000" d="M359.3479,-94.1839C290.946,-104.4056 148,-137.3314 148,-234 148,-306 148,-306 148,-306 148,-351.344 118.1616,-396.4001 95.8774,-423.7265"/>
<polygon fill="#000000" stroke="#000000" points="92.9994,-421.7111 89.2456,-431.6186 98.3585,-426.2144 92.9994,-421.7111"/>
<g id="a_edge16&#45;headlabel"><a xlink:href="dir_000001_000002.html" target="_top" xlink:title="3">
<text text-anchor="middle" x="93.1382" y="-414.6325" font-family="Helvetica,sans-Serif" font-size="10.00" fill="#000000">3</text>
</a>
</g>
</g>
<!-- dir_0c368f76a33d967d5b838b5681461de6&#45;&gt;dir_4012ff34c1bb5bd303e44a1c9cef6c8a -->
<g id="edge12" class="edge">
<title>dir_0c368f76a33d967d5b838b5681461de6&#45;&gt;dir_4012ff34c1bb5bd303e44a1c9cef6c8a</title>
<path fill="none" stroke="#000000" d="M407.5636,-108.4723C414.1684,-118.6691 422.0954,-131.7222 428,-144 475.515,-242.8004 514.7593,-367.583 530.9819,-422.2318"/>
<polygon fill="#000000" stroke="#000000" points="527.646,-423.2938 533.8277,-431.8983 534.361,-421.3169 527.646,-423.2938"/>
<g id="a_edge12&#45;headlabel"><a xlink:href="dir_000001_000003.html" target="_top" xlink:title="3">
<text text-anchor="middle" x="523.9072" y="-418.1473" font-family="Helvetica,sans-Serif" font-size="10.00" fill="#000000">3</text>
</a>
</g>
</g>
<!-- dir_0c368f76a33d967d5b838b5681461de6&#45;&gt;dir_e4cd57caa88bf1f4e1bf9521bc47c3c0 -->
<g id="edge11" class="edge">
<title>dir_0c368f76a33d967d5b838b5681461de6&#45;&gt;dir_e4cd57caa88bf1f4e1bf9521bc47c3c0</title>
<path fill="none" stroke="#000000" d="M430.5425,-96.111C479.0744,-105.107 562.6181,-123.1247 585,-144 604.1227,-161.8355 659.0772,-260.834 637,-324 633.4043,-334.2879 626.9372,-344.0807 620.0924,-352.432"/>
<polygon fill="#000000" stroke="#000000" points="617.4498,-350.137 613.4956,-359.9663 622.7164,-354.7483 617.4498,-350.137"/>
<g id="a_edge11&#45;headlabel"><a xlink:href="dir_000001_000005.html" target="_top" xlink:title="21">
<text text-anchor="middle" x="617.6816" y="-343.0623" font-family="Helvetica,sans-Serif" font-size="10.00" fill="#000000">21</text>
</a>
</g>
</g>
<!-- dir_0c368f76a33d967d5b838b5681461de6&#45;&gt;dir_7f7a014517bfe31ea45620a6a947e37b -->
<g id="edge13" class="edge">
<title>dir_0c368f76a33d967d5b838b5681461de6&#45;&gt;dir_7f7a014517bfe31ea45620a6a947e37b</title>
<path fill="none" stroke="#000000" d="M430.5479,-97.423C473.5082,-107.087 542.257,-124.9998 560,-144 594.2741,-180.7027 600.9437,-241.8349 601.669,-277.5812"/>
<polygon fill="#000000" stroke="#000000" points="598.1702,-277.8248 601.7272,-287.8047 605.1701,-277.7849 598.1702,-277.8248"/>
<g id="a_edge13&#45;headlabel"><a xlink:href="dir_000001_000011.html" target="_top" xlink:title="1">
<text text-anchor="middle" x="595.3106" y="-271.7464" font-family="Helvetica,sans-Serif" font-size="10.00" fill="#000000">1</text>
</a>
</g>
</g>
<!-- dir_0c368f76a33d967d5b838b5681461de6&#45;&gt;dir_a816a247b59c90f95e41afe29b966a18 -->
<g id="edge14" class="edge">
<title>dir_0c368f76a33d967d5b838b5681461de6&#45;&gt;dir_a816a247b59c90f95e41afe29b966a18</title>
<path fill="none" stroke="#000000" d="M359.4808,-81.0267C305.1173,-67.2928 201.8004,-41.1917 146.7238,-27.2776"/>
<polygon fill="#000000" stroke="#000000" points="147.5765,-23.8831 137.0238,-24.8271 145.8619,-30.6699 147.5765,-23.8831"/>
<g id="a_edge14&#45;headlabel"><a xlink:href="dir_000001_000015.html" target="_top" xlink:title="1">
<text text-anchor="middle" x="151.757" y="-19.5107" font-family="Helvetica,sans-Serif" font-size="10.00" fill="#000000">1</text>
</a>
</g>
</g>
<!-- dir_0c368f76a33d967d5b838b5681461de6&#45;&gt;dir_3d3615e9a999cab4f3407307569d6ced -->
<g id="edge15" class="edge">
<title>dir_0c368f76a33d967d5b838b5681461de6&#45;&gt;dir_3d3615e9a999cab4f3407307569d6ced</title>
<path fill="none" stroke="#000000" d="M389.0957,-108.0896C381.0343,-132.7884 366.5084,-177.2933 357.0628,-206.2331"/>
<polygon fill="#000000" stroke="#000000" points="353.7282,-205.1698 353.9526,-215.7623 360.3827,-207.3418 353.7282,-205.1698"/>
<g id="a_edge15&#45;headlabel"><a xlink:href="dir_000001_000009.html" target="_top" xlink:title="7">
<text text-anchor="middle" x="352.1443" y="-198.3717" font-family="Helvetica,sans-Serif" font-size="10.00" fill="#000000">7</text>
</a>
</g>
</g>
<!-- dir_ebb19deee3cd40f4ac122fef25c04ca8&#45;&gt;dir_0c368f76a33d967d5b838b5681461de6 -->
<g id="edge17" class="edge">
<title>dir_ebb19deee3cd40f4ac122fef25c04ca8&#45;&gt;dir_0c368f76a33d967d5b838b5681461de6</title>
<path fill="none" stroke="#000000" d="M320.2342,-143.8314C332.788,-134.7927 348.1283,-123.7476 361.6391,-114.0198"/>
<polygon fill="#000000" stroke="#000000" points="363.7036,-116.8463 369.7739,-108.1628 359.6134,-111.1655 363.7036,-116.8463"/>
<g id="a_edge17&#45;headlabel"><a xlink:href="dir_000006_000001.html" target="_top" xlink:title="1">
<text text-anchor="middle" x="362.4454" y="-118.7508" font-family="Helvetica,sans-Serif" font-size="10.00" fill="#000000">1</text>
</a>
</g>
</g>
<!-- dir_ebb19deee3cd40f4ac122fef25c04ca8&#45;&gt;dir_3d3615e9a999cab4f3407307569d6ced -->
<g id="edge18" class="edge">
<title>dir_ebb19deee3cd40f4ac122fef25c04ca8&#45;&gt;dir_3d3615e9a999cab4f3407307569d6ced</title>
<path fill="none" stroke="#000000" d="M314.5302,-180.4133C321.3136,-188.569 328.6828,-198.3212 334.8618,-207.257"/>
<polygon fill="#000000" stroke="#000000" points="332.1189,-209.4525 340.5783,-215.8314 337.9432,-205.5694 332.1189,-209.4525"/>
<g id="a_edge18&#45;headlabel"><a xlink:href="dir_000006_000009.html" target="_top" xlink:title="4">
<text text-anchor="middle" x="327.7626" y="-205.5366" font-family="Helvetica,sans-Serif" font-size="10.00" fill="#000000">4</text>
</a>
</g>
</g>
<!-- dir_e4cd57caa88bf1f4e1bf9521bc47c3c0&#45;&gt;dir_7f7a014517bfe31ea45620a6a947e37b -->
<g id="edge19" class="edge">
<title>dir_e4cd57caa88bf1f4e1bf9521bc47c3c0&#45;&gt;dir_7f7a014517bfe31ea45620a6a947e37b</title>
<path fill="none" stroke="#000000" d="M595.7664,-359.8314C596.515,-352.131 597.4053,-342.9743 598.2373,-334.4166"/>
<polygon fill="#000000" stroke="#000000" points="601.7256,-334.7051 599.2098,-324.4133 594.7585,-334.0276 601.7256,-334.7051"/>
<g id="a_edge19&#45;headlabel"><a xlink:href="dir_000005_000011.html" target="_top" xlink:title="1">
<text text-anchor="middle" x="604.2038" y="-336.0575" font-family="Helvetica,sans-Serif" font-size="10.00" fill="#000000">1</text>
</a>
</g>
</g>
<!-- dir_e4cd57caa88bf1f4e1bf9521bc47c3c0&#45;&gt;dir_3d3615e9a999cab4f3407307569d6ced -->
<g id="edge20" class="edge">
<title>dir_e4cd57caa88bf1f4e1bf9521bc47c3c0&#45;&gt;dir_3d3615e9a999cab4f3407307569d6ced</title>
<path fill="none" stroke="#000000" d="M566.5989,-361.4598C539.3383,-342.3772 496.583,-310.7163 457,-288 433.5105,-274.5196 406.0622,-261.7924 384.4842,-252.0833"/>
<polygon fill="#000000" stroke="#000000" points="385.8793,-248.8732 375.3223,-247.9786 383.0173,-255.2614 385.8793,-248.8732"/>
<g id="a_edge20&#45;headlabel"><a xlink:href="dir_000005_000009.html" target="_top" xlink:title="11">
<text text-anchor="middle" x="390.3206" y="-245.2517" font-family="Helvetica,sans-Serif" font-size="10.00" fill="#000000">11</text>
</a>
</g>
</g>
<!-- dir_7f7a014517bfe31ea45620a6a947e37b&#45;&gt;dir_3d3615e9a999cab4f3407307569d6ced -->
<g id="edge27" class="edge">
<title>dir_7f7a014517bfe31ea45620a6a947e37b&#45;&gt;dir_3d3615e9a999cab4f3407307569d6ced</title>
<path fill="none" stroke="#000000" d="M573.9246,-298.2947C528.3922,-285.3369 436.4342,-259.167 384.9867,-244.5259"/>
<polygon fill="#000000" stroke="#000000" points="385.8393,-241.1296 375.2632,-241.7587 383.9232,-247.8623 385.8393,-241.1296"/>
<g id="a_edge27&#45;headlabel"><a xlink:href="dir_000011_000009.html" target="_top" xlink:title="1">
<text text-anchor="middle" x="390.0738" y="-236.8826" font-family="Helvetica,sans-Serif" font-size="10.00" fill="#000000">1</text>
</a>
</g>
</g>
<!-- dir_a816a247b59c90f95e41afe29b966a18&#45;&gt;dir_3d3615e9a999cab4f3407307569d6ced -->
<g id="edge28" class="edge">
<title>dir_a816a247b59c90f95e41afe29b966a18&#45;&gt;dir_3d3615e9a999cab4f3407307569d6ced</title>
<path fill="none" stroke="#000000" d="M119.7645,-36.0792C138.1264,-68.6423 180.7,-137.6897 233,-180 256.3608,-198.8987 287.4248,-212.9754 311.3781,-222.0104"/>
<polygon fill="#000000" stroke="#000000" points="310.2412,-225.3212 320.8352,-225.4572 312.6383,-218.7444 310.2412,-225.3212"/>
<g id="a_edge28&#45;headlabel"><a xlink:href="dir_000015_000009.html" target="_top" xlink:title="1">
<text text-anchor="middle" x="305.8917" y="-224.258" font-family="Helvetica,sans-Serif" font-size="10.00" fill="#000000">1</text>
</a>
</g>
</g>
<!-- dir_3d3615e9a999cab4f3407307569d6ced&#45;&gt;dir_ebb19deee3cd40f4ac122fef25c04ca8 -->
<g id="edge29" class="edge">
<title>dir_3d3615e9a999cab4f3407307569d6ced&#45;&gt;dir_ebb19deee3cd40f4ac122fef25c04ca8</title>
<path fill="none" stroke="#000000" d="M328.6735,-215.8314C321.8315,-207.6232 314.3732,-197.7606 308.1308,-188.7323"/>
<polygon fill="#000000" stroke="#000000" points="311.0409,-186.7877 302.5782,-180.4133 305.2187,-190.6738 311.0409,-186.7877"/>
<g id="a_edge29&#45;headlabel"><a xlink:href="dir_000009_000006.html" target="_top" xlink:title="1">
<text text-anchor="middle" x="315.398" y="-185.7013" font-family="Helvetica,sans-Serif" font-size="10.00" fill="#000000">1</text>
</a>
</g>
</g>
<!-- dir_3d3615e9a999cab4f3407307569d6ced&#45;&gt;dir_e4cd57caa88bf1f4e1bf9521bc47c3c0 -->
<g id="edge30" class="edge">
<title>dir_3d3615e9a999cab4f3407307569d6ced&#45;&gt;dir_e4cd57caa88bf1f4e1bf9521bc47c3c0</title>
<path fill="none" stroke="#000000" d="M375.0633,-242.0773C401.6127,-251.7921 442.1725,-269.1606 475,-288 509.3544,-307.7156 546.0984,-334.169 569.7023,-353.2891"/>
<polygon fill="#000000" stroke="#000000" points="567.5422,-356.0445 577.4779,-359.7232 572.0048,-350.6514 567.5422,-356.0445"/>
<g id="a_edge30&#45;headlabel"><a xlink:href="dir_000009_000005.html" target="_top" xlink:title="1">
<text text-anchor="middle" x="562.9627" y="-353.4403" font-family="Helvetica,sans-Serif" font-size="10.00" fill="#000000">1</text>
</a>
</g>
</g>
</g>
</svg>
        <g id="navigator" transform="translate(0 0)" fill="#404254">
                <rect fill="#f2f5e9" fill-opacity="0.5" stroke="#606060" stroke-width=".5" x="0" y="0" width="60" height="60"/>
                <use id="zoomplus" xlink:href="#zoomPlus" x="17" y="9" onmousedown="handleZoom(evt,'in')"/>
                <use id="zoomminus" xlink:href="#zoomMin" x="42" y="9" onmousedown="handleZoom(evt,'out')"/>
                <use id="reset" xlink:href="#resetDef" x="30" y="36" onmousedown="handleReset()"/>
                <g id="arrowUp" xlink:href="#dirArrow" transform="translate(30 24)" onmousedown="handlePan(0,-1)">
                  <use xlink:href="#rim" fill="#404040">
                        <set attributeName="fill" to="#808080" begin="arrowUp.mouseover" end="arrowUp.mouseout"/>
                  </use>
                  <path fill="none" stroke="white" stroke-width="1.5" d="M0,-3.0v7 M-2.5,-0.5L0,-3.0L2.5,-0.5"/>
                </g>
                <g id="arrowRight" xlink:href="#dirArrow" transform="rotate(90) translate(36 -43)" onmousedown="handlePan(1,0)">
                  <use xlink:href="#rim" fill="#404040">
                        <set attributeName="fill" to="#808080" begin="arrowRight.mouseover" end="arrowRight.mouseout"/>
                  </use>
                  <path fill="none" stroke="white" stroke-width="1.5" d="M0,-3.0v7 M-2.5,-0.5L0,-3.0L2.5,-0.5"/>
                </g>
                <g id="arrowDown" xlink:href="#dirArrow" transform="rotate(180) translate(-30 -48)" onmousedown="handlePan(0,1)">
                  <use xlink:href="#rim" fill="#404040">
                        <set attributeName="fill" to="#808080" begin="arrowDown.mouseover" end="arrowDown.mouseout"/>
                  </use>
                  <path fill="none" stroke="white" stroke-width="1.5" d="M0,-3.0v7 M-2.5,-0.5L0,-3.0L2.5,-0.5"/>
                </g>
                <g id="arrowLeft" xlink:href="#dirArrow" transform="rotate(270) translate(-36 17)" onmousedown="handlePan(-1,0)">
                  <use xlink:href="#rim" fill="#404040">
                        <set attributeName="fill" to="#808080" begin="arrowLeft.mouseover" end="arrowLeft.mouseout"/>
                  </use>
                  <path fill="none" stroke="white" stroke-width="1.5" d="M0,-3.0v7 M-2.5,-0.5L0,-3.0L2.5,-0.5"/>
                </g>
        </g>
        <svg viewBox="0 0 15 15" width="100%" height="30px" preserveAspectRatio="xMaxYMin meet">
         <g id="arrow_out" transform="scale(0.3 0.3)">
          <a xlink:href="dir_4bb30ed846ea1df1fc4d16874a455d91_dep_org.svg" target="_base">
           <rect id="button" ry="5" rx="5" y="6" x="6" height="38" width="38"
                fill="#f2f5e9" fill-opacity="0.5" stroke="#606060" stroke-width="1.0"/>
           <path id="arrow"
             d="M 11.500037,31.436501 C 11.940474,20.09759 22.043105,11.32322 32.158766,21.979434 L 37.068811,17.246167 C 37.068811,17.246167 37.088388,32 37.088388,32 L 22.160133,31.978069 C 22.160133,31.978069 26.997745,27.140456 26.997745,27.140456 C 18.528582,18.264221 13.291696,25.230495 11.500037,31.436501 z"
             style="fill:#404040;"/>
          </a>
         </g>
        </svg>
</svg>
