<?xml version="1.0" encoding="UTF-8" standalone="no"?>
<!DOCTYPE svg PUBLIC "-//W3C//DTD SVG 1.1//EN"
 "http://www.w3.org/Graphics/SVG/1.1/DTD/svg11.dtd">
<!-- Generated by graphviz version 2.40.1 (20161225.0304)
 -->
<!-- Title: turbulence Pages: 1 -->
<svg width="317pt" height="303pt"
 viewBox="0.00 0.00 316.53 303.00" xmlns="http://www.w3.org/2000/svg" xmlns:xlink="http://www.w3.org/1999/xlink">
<g id="graph0" class="graph" transform="scale(1 1) rotate(0) translate(4 299)">
<title>turbulence</title>
<polygon fill="#ffffff" stroke="transparent" points="-4,4 -4,-299 312.5348,-299 312.5348,4 -4,4"/>
<g id="clust1" class="cluster">
<title>clusterdir_d85575251dd712327fe3cf057fa568b4</title>
<g id="a_clust1"><a xlink:href="dir_d85575251dd712327fe3cf057fa568b4.html" target="_top" xlink:title="amr&#45;wind">
<polygon fill="#ddddee" stroke="#000000" points="100,-128 100,-287 194,-287 194,-128 100,-128"/>
<text text-anchor="middle" x="147" y="-275" font-family="Helvetica,sans-Serif" font-size="10.00" fill="#000000">amr&#45;wind</text>
</a>
</g>
</g>
<g id="clust2" class="cluster">
<title>clusterdir_9ff815a534beac751fa88e427dbab695</title>
<g id="a_clust2"><a xlink:href="dir_9ff815a534beac751fa88e427dbab695.html" target="_top">
<polygon fill="#eeeeff" stroke="#000000" points="108,-136 108,-260 186,-260 186,-136 108,-136"/>
</a>
</g>
</g>
<!-- dir_9ff815a534beac751fa88e427dbab695 -->
<g id="node1" class="node">
<title>dir_9ff815a534beac751fa88e427dbab695</title>
<text text-anchor="middle" x="147" y="-231.5" font-family="Helvetica,sans-Serif" font-size="10.00" fill="#000000">turbulence</text>
</g>
<!-- dir_d4759c65d88ac8462151b54b86eeee49 -->
<g id="node2" class="node">
<title>dir_d4759c65d88ac8462151b54b86eeee49</title>
<g id="a_node2"><a xlink:href="dir_d4759c65d88ac8462151b54b86eeee49.html" target="_top" xlink:title="LES">
<polygon fill="#ffffff" stroke="#000000" points="177,-180 123,-180 123,-144 177,-144 177,-180"/>
<text text-anchor="middle" x="150" y="-159.5" font-family="Helvetica,sans-Serif" font-size="10.00" fill="#000000">LES</text>
</a>
</g>
</g>
<!-- dir_9ff815a534beac751fa88e427dbab695&#45;&gt;dir_d4759c65d88ac8462151b54b86eeee49 -->
<g id="edge2" class="edge">
<title>dir_9ff815a534beac751fa88e427dbab695&#45;&gt;dir_d4759c65d88ac8462151b54b86eeee49</title>
<path fill="none" stroke="#000000" d="M147.757,-215.8314C148.0779,-208.131 148.4594,-198.9743 148.816,-190.4166"/>
<polygon fill="#000000" stroke="#000000" points="152.3133,-190.5503 149.2328,-180.4133 145.3194,-190.2589 152.3133,-190.5503"/>
<g id="a_edge2&#45;headlabel"><a xlink:href="dir_000021_000027.html" target="_top" xlink:title="1">
<text text-anchor="middle" x="155.0006" y="-191.76" font-family="Helvetica,sans-Serif" font-size="10.00" fill="#000000">1</text>
</a>
</g>
</g>
<!-- dir_e4cd57caa88bf1f4e1bf9521bc47c3c0 -->
<g id="node3" class="node">
<title>dir_e4cd57caa88bf1f4e1bf9521bc47c3c0</title>
<g id="a_node3"><a xlink:href="dir_e4cd57caa88bf1f4e1bf9521bc47c3c0.html" target="_top" xlink:title="utilities">
<polygon fill="#ffffff" stroke="#ff0000" points="294,-180 240,-180 240,-144 294,-144 294,-180"/>
<text text-anchor="middle" x="267" y="-159.5" font-family="Helvetica,sans-Serif" font-size="10.00" fill="#000000">utilities</text>
</a>
</g>
</g>
<!-- dir_9ff815a534beac751fa88e427dbab695&#45;&gt;dir_e4cd57caa88bf1f4e1bf9521bc47c3c0 -->
<g id="edge1" class="edge">
<title>dir_9ff815a534beac751fa88e427dbab695&#45;&gt;dir_e4cd57caa88bf1f4e1bf9521bc47c3c0</title>
<path fill="none" stroke="#000000" d="M177.2811,-215.8314C193.5997,-206.0402 213.8421,-193.8947 230.9673,-183.6196"/>
<polygon fill="#000000" stroke="#000000" points="232.827,-186.5855 239.6012,-178.4393 229.2255,-180.5831 232.827,-186.5855"/>
<g id="a_edge1&#45;headlabel"><a xlink:href="dir_000021_000005.html" target="_top" xlink:title="1">
<text text-anchor="middle" x="231.2054" y="-188.3695" font-family="Helvetica,sans-Serif" font-size="10.00" fill="#000000">1</text>
</a>
</g>
</g>
<!-- dir_7b7e55eaa727ae9c717abfc097345a8f -->
<g id="node7" class="node">
<title>dir_7b7e55eaa727ae9c717abfc097345a8f</title>
<g id="a_node7"><a xlink:href="dir_7b7e55eaa727ae9c717abfc097345a8f.html" target="_top" xlink:title="transport_models">
<polygon fill="none" stroke="#000000" points="92,-180 0,-180 0,-144 92,-144 92,-180"/>
<text text-anchor="middle" x="46" y="-159.5" font-family="Helvetica,sans-Serif" font-size="10.00" fill="#000000">transport_models</text>
</a>
</g>
</g>
<!-- dir_9ff815a534beac751fa88e427dbab695&#45;&gt;dir_7b7e55eaa727ae9c717abfc097345a8f -->
<g id="edge3" class="edge">
<title>dir_9ff815a534beac751fa88e427dbab695&#45;&gt;dir_7b7e55eaa727ae9c717abfc097345a8f</title>
<path fill="none" stroke="#000000" d="M121.5134,-215.8314C108.8341,-206.7927 93.3404,-195.7476 79.6945,-186.0198"/>
<polygon fill="#000000" stroke="#000000" points="81.6529,-183.1176 71.4784,-180.1628 77.5895,-188.8176 81.6529,-183.1176"/>
<g id="a_edge3&#45;headlabel"><a xlink:href="dir_000021_000010.html" target="_top" xlink:title="2">
<text text-anchor="middle" x="86.228" y="-180.3922" font-family="Helvetica,sans-Serif" font-size="10.00" fill="#000000">2</text>
</a>
</g>
</g>
<!-- dir_7f7a014517bfe31ea45620a6a947e37b -->
<g id="node4" class="node">
<title>dir_7f7a014517bfe31ea45620a6a947e37b</title>
<g id="a_node4"><a xlink:href="dir_7f7a014517bfe31ea45620a6a947e37b.html" target="_top" xlink:title="fvm">
<polygon fill="none" stroke="#000000" points="231,-108 177,-108 177,-72 231,-72 231,-108"/>
<text text-anchor="middle" x="204" y="-87.5" font-family="Helvetica,sans-Serif" font-size="10.00" fill="#000000">fvm</text>
</a>
</g>
</g>
<!-- dir_d4759c65d88ac8462151b54b86eeee49&#45;&gt;dir_7f7a014517bfe31ea45620a6a947e37b -->
<g id="edge6" class="edge">
<title>dir_d4759c65d88ac8462151b54b86eeee49&#45;&gt;dir_7f7a014517bfe31ea45620a6a947e37b</title>
<path fill="none" stroke="#000000" d="M163.6265,-143.8314C169.846,-135.5386 177.3322,-125.557 184.16,-116.4533"/>
<polygon fill="#000000" stroke="#000000" points="186.99,-118.5133 190.19,-108.4133 181.39,-114.3133 186.99,-118.5133"/>
<g id="a_edge6&#45;headlabel"><a xlink:href="dir_000027_000011.html" target="_top" xlink:title="3">
<text text-anchor="middle" x="187.1047" y="-120.5925" font-family="Helvetica,sans-Serif" font-size="10.00" fill="#000000">3</text>
</a>
</g>
</g>
<!-- dir_3d3615e9a999cab4f3407307569d6ced -->
<g id="node5" class="node">
<title>dir_3d3615e9a999cab4f3407307569d6ced</title>
<g id="a_node5"><a xlink:href="dir_3d3615e9a999cab4f3407307569d6ced.html" target="_top" xlink:title="core">
<polygon fill="#ffffff" stroke="#ff0000" points="263,-36 209,-36 209,0 263,0 263,-36"/>
<text text-anchor="middle" x="236" y="-15.5" font-family="Helvetica,sans-Serif" font-size="10.00" fill="#000000">core</text>
</a>
</g>
</g>
<!-- dir_d4759c65d88ac8462151b54b86eeee49&#45;&gt;dir_3d3615e9a999cab4f3407307569d6ced -->
<g id="edge7" class="edge">
<title>dir_d4759c65d88ac8462151b54b86eeee49&#45;&gt;dir_3d3615e9a999cab4f3407307569d6ced</title>
<path fill="none" stroke="#000000" d="M150.0386,-143.7717C150.8627,-124.5896 154.4569,-94.1627 168,-72 176.0473,-58.8309 188.5331,-47.5587 200.6204,-38.7723"/>
<polygon fill="#000000" stroke="#000000" points="202.6149,-41.6485 208.8654,-33.0938 198.6444,-35.8834 202.6149,-41.6485"/>
<g id="a_edge7&#45;headlabel"><a xlink:href="dir_000027_000009.html" target="_top" xlink:title="1">
<text text-anchor="middle" x="201.265" y="-43.5257" font-family="Helvetica,sans-Serif" font-size="10.00" fill="#000000">1</text>
</a>
</g>
</g>
<!-- dir_4bb30ed846ea1df1fc4d16874a455d91 -->
<g id="node6" class="node">
<title>dir_4bb30ed846ea1df1fc4d16874a455d91</title>
<g id="a_node6"><a xlink:href="dir_4bb30ed846ea1df1fc4d16874a455d91.html" target="_top" xlink:title="equation_systems">
<polygon fill="#ffffff" stroke="#ff0000" points="298,-252 202,-252 202,-216 298,-216 298,-252"/>
<text text-anchor="middle" x="250" y="-231.5" font-family="Helvetica,sans-Serif" font-size="10.00" fill="#000000">equation_systems</text>
</a>
</g>
</g>
<!-- dir_d4759c65d88ac8462151b54b86eeee49&#45;&gt;dir_4bb30ed846ea1df1fc4d16874a455d91 -->
<g id="edge8" class="edge">
<title>dir_d4759c65d88ac8462151b54b86eeee49&#45;&gt;dir_4bb30ed846ea1df1fc4d16874a455d91</title>
<path fill="none" stroke="#000000" d="M175.2261,-180.1628C187.7787,-189.2007 203.1188,-200.2456 216.6305,-209.9739"/>
<polygon fill="#000000" stroke="#000000" points="214.6053,-212.8286 224.7658,-215.8314 218.6955,-207.1479 214.6053,-212.8286"/>
<g id="a_edge8&#45;headlabel"><a xlink:href="dir_000027_000002.html" target="_top" xlink:title="2">
<text text-anchor="middle" x="210.0292" y="-210.5325" font-family="Helvetica,sans-Serif" font-size="10.00" fill="#000000">2</text>
</a>
</g>
</g>
<!-- dir_e4cd57caa88bf1f4e1bf9521bc47c3c0&#45;&gt;dir_7f7a014517bfe31ea45620a6a947e37b -->
<g id="edge4" class="edge">
<title>dir_e4cd57caa88bf1f4e1bf9521bc47c3c0&#45;&gt;dir_7f7a014517bfe31ea45620a6a947e37b</title>
<path fill="none" stroke="#000000" d="M251.1024,-143.8314C243.7722,-135.454 234.934,-125.3531 226.9031,-116.1749"/>
<polygon fill="#000000" stroke="#000000" points="229.3307,-113.6343 220.1116,-108.4133 224.0627,-118.2438 229.3307,-113.6343"/>
<g id="a_edge4&#45;headlabel"><a xlink:href="dir_000005_000011.html" target="_top" xlink:title="1">
<text text-anchor="middle" x="233.8345" y="-111.9698" font-family="Helvetica,sans-Serif" font-size="10.00" fill="#000000">1</text>
</a>
</g>
</g>
<!-- dir_e4cd57caa88bf1f4e1bf9521bc47c3c0&#45;&gt;dir_3d3615e9a999cab4f3407307569d6ced -->
<g id="edge5" class="edge">
<title>dir_e4cd57caa88bf1f4e1bf9521bc47c3c0&#45;&gt;dir_3d3615e9a999cab4f3407307569d6ced</title>
<path fill="none" stroke="#000000" d="M258.4007,-143.7623C250.6534,-119.201 240.9164,-75.2474 236.6066,-46.3541"/>
<polygon fill="#000000" stroke="#000000" points="240.0288,-45.5384 235.236,-36.0896 233.0904,-46.4649 240.0288,-45.5384"/>
<g id="a_edge5&#45;headlabel"><a xlink:href="dir_000005_000009.html" target="_top" xlink:title="11">
<text text-anchor="middle" x="243.3188" y="-46.2256" font-family="Helvetica,sans-Serif" font-size="10.00" fill="#000000">11</text>
</a>
</g>
</g>
<!-- dir_7f7a014517bfe31ea45620a6a947e37b&#45;&gt;dir_3d3615e9a999cab4f3407307569d6ced -->
<g id="edge9" class="edge">
<title>dir_7f7a014517bfe31ea45620a6a947e37b&#45;&gt;dir_3d3615e9a999cab4f3407307569d6ced</title>
<path fill="none" stroke="#000000" d="M212.075,-71.8314C215.6102,-63.8771 219.836,-54.369 223.7456,-45.5723"/>
<polygon fill="#000000" stroke="#000000" points="226.9532,-46.9729 227.8163,-36.4133 220.5565,-44.1299 226.9532,-46.9729"/>
<g id="a_edge9&#45;headlabel"><a xlink:href="dir_000011_000009.html" target="_top" xlink:title="1">
<text text-anchor="middle" x="228.0879" y="-48.9108" font-family="Helvetica,sans-Serif" font-size="10.00" fill="#000000">1</text>
</a>
</g>
</g>
<!-- dir_3d3615e9a999cab4f3407307569d6ced&#45;&gt;dir_e4cd57caa88bf1f4e1bf9521bc47c3c0 -->
<g id="edge14" class="edge">
<title>dir_3d3615e9a999cab4f3407307569d6ced&#45;&gt;dir_e4cd57caa88bf1f4e1bf9521bc47c3c0</title>
<path fill="none" stroke="#000000" d="M244.5526,-36.0896C252.2918,-60.5727 262.0357,-104.5174 266.3673,-133.4713"/>
<polygon fill="#000000" stroke="#000000" points="262.9492,-134.3161 267.747,-143.7623 269.8871,-133.3859 262.9492,-134.3161"/>
<g id="a_edge14&#45;headlabel"><a xlink:href="dir_000009_000005.html" target="_top" xlink:title="1">
<text text-anchor="middle" x="259.6575" y="-128.6306" font-family="Helvetica,sans-Serif" font-size="10.00" fill="#000000">1</text>
</a>
</g>
</g>
<!-- dir_4bb30ed846ea1df1fc4d16874a455d91&#45;&gt;dir_9ff815a534beac751fa88e427dbab695 -->
<g id="edge10" class="edge">
<title>dir_4bb30ed846ea1df1fc4d16874a455d91&#45;&gt;dir_9ff815a534beac751fa88e427dbab695</title>
<path fill="none" stroke="#000000" d="M201.8822,-234C197.4761,-234 193.0699,-234 188.6638,-234"/>
<polygon fill="#000000" stroke="#000000" points="188.3828,-230.5001 178.3828,-234 188.3828,-237.5001 188.3828,-230.5001"/>
<g id="a_edge10&#45;headlabel"><a xlink:href="dir_000002_000021.html" target="_top" xlink:title="2">
<text text-anchor="middle" x="191.9774" y="-225.1607" font-family="Helvetica,sans-Serif" font-size="10.00" fill="#000000">2</text>
</a>
</g>
</g>
<!-- dir_4bb30ed846ea1df1fc4d16874a455d91&#45;&gt;dir_e4cd57caa88bf1f4e1bf9521bc47c3c0 -->
<g id="edge11" class="edge">
<title>dir_4bb30ed846ea1df1fc4d16874a455d91&#45;&gt;dir_e4cd57caa88bf1f4e1bf9521bc47c3c0</title>
<path fill="none" stroke="#000000" d="M254.2898,-215.8314C256.108,-208.131 258.2699,-198.9743 260.2905,-190.4166"/>
<polygon fill="#000000" stroke="#000000" points="263.7608,-190.95 262.6524,-180.4133 256.9481,-189.3414 263.7608,-190.95"/>
<g id="a_edge11&#45;headlabel"><a xlink:href="dir_000002_000005.html" target="_top" xlink:title="10">
<text text-anchor="middle" x="265.6981" y="-192.6008" font-family="Helvetica,sans-Serif" font-size="10.00" fill="#000000">10</text>
</a>
</g>
</g>
<!-- dir_4bb30ed846ea1df1fc4d16874a455d91&#45;&gt;dir_7f7a014517bfe31ea45620a6a947e37b -->
<g id="edge12" class="edge">
<title>dir_4bb30ed846ea1df1fc4d16874a455d91&#45;&gt;dir_7f7a014517bfe31ea45620a6a947e37b</title>
<path fill="none" stroke="#000000" d="M243.2777,-215.5785C239.5416,-205.1741 234.8783,-191.9066 231,-180 224.2425,-159.2542 217.176,-135.6193 211.9679,-117.777"/>
<polygon fill="#000000" stroke="#000000" points="215.281,-116.635 209.1326,-108.0067 208.5584,-118.586 215.281,-116.635"/>
<g id="a_edge12&#45;headlabel"><a xlink:href="dir_000002_000011.html" target="_top" xlink:title="1">
<text text-anchor="middle" x="219.0095" y="-116.796" font-family="Helvetica,sans-Serif" font-size="10.00" fill="#000000">1</text>
</a>
</g>
</g>
<!-- dir_4bb30ed846ea1df1fc4d16874a455d91&#45;&gt;dir_3d3615e9a999cab4f3407307569d6ced -->
<g id="edge13" class="edge">
<title>dir_4bb30ed846ea1df1fc4d16874a455d91&#45;&gt;dir_3d3615e9a999cab4f3407307569d6ced</title>
<path fill="none" stroke="#000000" d="M275.0428,-215.8695C285.812,-206.5148 297.2346,-194.105 303,-180 311.7444,-158.607 308.4692,-150.4546 303,-128 295.2919,-96.3535 274.6637,-65.107 258.3139,-44.0512"/>
<polygon fill="#000000" stroke="#000000" points="261.0432,-41.86 252.0694,-36.2278 255.5722,-46.2268 261.0432,-41.86"/>
<g id="a_edge13&#45;headlabel"><a xlink:href="dir_000002_000009.html" target="_top" xlink:title="47">
<text text-anchor="middle" x="265.5046" y="-40.3982" font-family="Helvetica,sans-Serif" font-size="10.00" fill="#000000">47</text>
</a>
</g>
</g>
<!-- dir_7b7e55eaa727ae9c717abfc097345a8f&#45;&gt;dir_3d3615e9a999cab4f3407307569d6ced -->
<g id="edge15" class="edge">
<title>dir_7b7e55eaa727ae9c717abfc097345a8f&#45;&gt;dir_3d3615e9a999cab4f3407307569d6ced</title>
<path fill="none" stroke="#000000" d="M65.1912,-143.8143C85.5175,-124.9373 118.9048,-95.0081 150,-72 165.875,-60.2537 184.323,-48.448 200.0528,-38.8839"/>
<polygon fill="#000000" stroke="#000000" points="202.193,-41.6811 208.9602,-33.529 198.5864,-35.6817 202.193,-41.6811"/>
<g id="a_edge15&#45;headlabel"><a xlink:href="dir_000010_000009.html" target="_top" xlink:title="2">
<text text-anchor="middle" x="200.5751" y="-43.4665" font-family="Helvetica,sans-Serif" font-size="10.00" fill="#000000">2</text>
</a>
</g>
</g>
</g>
</svg>
