<?xml version="1.0" encoding="UTF-8" standalone="no"?>
<!DOCTYPE svg PUBLIC "-//W3C//DTD SVG 1.1//EN"
 "http://www.w3.org/Graphics/SVG/1.1/DTD/svg11.dtd">
<!-- Generated by graphviz version 2.40.1 (20161225.0304)
 -->
<!-- Title: physics Pages: 1 -->
<svg width="232pt" height="375pt"
 viewBox="0.00 0.00 232.00 375.00" xmlns="http://www.w3.org/2000/svg" xmlns:xlink="http://www.w3.org/1999/xlink">
<g id="graph0" class="graph" transform="scale(1 1) rotate(0) translate(4 371)">
<title>physics</title>
<polygon fill="#ffffff" stroke="transparent" points="-4,4 -4,-371 228,-371 228,4 -4,4"/>
<g id="clust1" class="cluster">
<title>clusterdir_d85575251dd712327fe3cf057fa568b4</title>
<g id="a_clust1"><a xlink:href="dir_d85575251dd712327fe3cf057fa568b4.html" target="_top" xlink:title="amr&#45;wind">
<polygon fill="#ddddee" stroke="#000000" points="8,-272 8,-359 176,-359 176,-272 8,-272"/>
<text text-anchor="middle" x="92" y="-347" font-family="Helvetica,sans-Serif" font-size="10.00" fill="#000000">amr&#45;wind</text>
</a>
</g>
</g>
<g id="clust2" class="cluster">
<title>clusterdir_f2c65bfcbdc19ebacbfc0bbbfb0d01b6</title>
<g id="a_clust2"><a xlink:href="dir_f2c65bfcbdc19ebacbfc0bbbfb0d01b6.html" target="_top">
<polygon fill="#eeeeff" stroke="#000000" points="16,-280 16,-332 168,-332 168,-280 16,-280"/>
</a>
</g>
</g>
<!-- dir_f2c65bfcbdc19ebacbfc0bbbfb0d01b6 -->
<g id="node1" class="node">
<title>dir_f2c65bfcbdc19ebacbfc0bbbfb0d01b6</title>
<text text-anchor="middle" x="133" y="-303.5" font-family="Helvetica,sans-Serif" font-size="10.00" fill="#000000">physics</text>
</g>
<!-- dir_0c368f76a33d967d5b838b5681461de6 -->
<g id="node3" class="node">
<title>dir_0c368f76a33d967d5b838b5681461de6</title>
<g id="a_node3"><a xlink:href="dir_0c368f76a33d967d5b838b5681461de6.html" target="_top" xlink:title="wind_energy">
<polygon fill="none" stroke="#000000" points="168.5,-252 97.5,-252 97.5,-216 168.5,-216 168.5,-252"/>
<text text-anchor="middle" x="133" y="-231.5" font-family="Helvetica,sans-Serif" font-size="10.00" fill="#000000">wind_energy</text>
</a>
</g>
</g>
<!-- dir_f2c65bfcbdc19ebacbfc0bbbfb0d01b6&#45;&gt;dir_0c368f76a33d967d5b838b5681461de6 -->
<g id="edge1" class="edge">
<title>dir_f2c65bfcbdc19ebacbfc0bbbfb0d01b6&#45;&gt;dir_0c368f76a33d967d5b838b5681461de6</title>
<path fill="none" stroke="#000000" d="M133,-287.8314C133,-280.131 133,-270.9743 133,-262.4166"/>
<polygon fill="#000000" stroke="#000000" points="136.5001,-262.4132 133,-252.4133 129.5001,-262.4133 136.5001,-262.4132"/>
<g id="a_edge1&#45;headlabel"><a xlink:href="dir_000007_000001.html" target="_top" xlink:title="1">
<text text-anchor="middle" x="139.3393" y="-263.5079" font-family="Helvetica,sans-Serif" font-size="10.00" fill="#000000">1</text>
</a>
</g>
</g>
<!-- dir_e4cd57caa88bf1f4e1bf9521bc47c3c0 -->
<g id="node4" class="node">
<title>dir_e4cd57caa88bf1f4e1bf9521bc47c3c0</title>
<g id="a_node4"><a xlink:href="dir_e4cd57caa88bf1f4e1bf9521bc47c3c0.html" target="_top" xlink:title="utilities">
<polygon fill="#ffffff" stroke="#ff0000" points="224,-180 170,-180 170,-144 224,-144 224,-180"/>
<text text-anchor="middle" x="197" y="-159.5" font-family="Helvetica,sans-Serif" font-size="10.00" fill="#000000">utilities</text>
</a>
</g>
</g>
<!-- dir_f2c65bfcbdc19ebacbfc0bbbfb0d01b6&#45;&gt;dir_e4cd57caa88bf1f4e1bf9521bc47c3c0 -->
<g id="edge2" class="edge">
<title>dir_f2c65bfcbdc19ebacbfc0bbbfb0d01b6&#45;&gt;dir_e4cd57caa88bf1f4e1bf9521bc47c3c0</title>
<path fill="none" stroke="#000000" d="M151.7023,-287.5293C160.6089,-277.741 170.6724,-265.0595 177,-252 186.4514,-232.4933 191.5001,-208.4395 194.1592,-190.1079"/>
<polygon fill="#000000" stroke="#000000" points="197.6478,-190.4207 195.4639,-180.0534 190.706,-189.5198 197.6478,-190.4207"/>
<g id="a_edge2&#45;headlabel"><a xlink:href="dir_000007_000005.html" target="_top" xlink:title="4">
<text text-anchor="middle" x="200.001" y="-191.8508" font-family="Helvetica,sans-Serif" font-size="10.00" fill="#000000">4</text>
</a>
</g>
</g>
<!-- dir_e037da66ad872c58acfc861df6f5c212 -->
<g id="node2" class="node">
<title>dir_e037da66ad872c58acfc861df6f5c212</title>
<g id="a_node2"><a xlink:href="dir_e037da66ad872c58acfc861df6f5c212.html" target="_top" xlink:title="multiphase">
<polygon fill="#ffffff" stroke="#000000" points="88,-324 24,-324 24,-288 88,-288 88,-324"/>
<text text-anchor="middle" x="56" y="-303.5" font-family="Helvetica,sans-Serif" font-size="10.00" fill="#000000">multiphase</text>
</a>
</g>
</g>
<!-- dir_7f7a014517bfe31ea45620a6a947e37b -->
<g id="node5" class="node">
<title>dir_7f7a014517bfe31ea45620a6a947e37b</title>
<g id="a_node5"><a xlink:href="dir_7f7a014517bfe31ea45620a6a947e37b.html" target="_top" xlink:title="fvm">
<polygon fill="none" stroke="#000000" points="170,-108 116,-108 116,-72 170,-72 170,-108"/>
<text text-anchor="middle" x="143" y="-87.5" font-family="Helvetica,sans-Serif" font-size="10.00" fill="#000000">fvm</text>
</a>
</g>
</g>
<!-- dir_e037da66ad872c58acfc861df6f5c212&#45;&gt;dir_7f7a014517bfe31ea45620a6a947e37b -->
<g id="edge3" class="edge">
<title>dir_e037da66ad872c58acfc861df6f5c212&#45;&gt;dir_7f7a014517bfe31ea45620a6a947e37b</title>
<path fill="none" stroke="#000000" d="M62.0084,-287.9327C68.1817,-269.6616 78.2422,-240.6738 88,-216 101.5609,-181.7096 118.7849,-142.9182 130.3119,-117.5468"/>
<polygon fill="#000000" stroke="#000000" points="133.6122,-118.745 134.5793,-108.1944 127.2439,-115.8392 133.6122,-118.745"/>
<g id="a_edge3&#45;headlabel"><a xlink:href="dir_000012_000011.html" target="_top" xlink:title="2">
<text text-anchor="middle" x="134.7032" y="-120.6939" font-family="Helvetica,sans-Serif" font-size="10.00" fill="#000000">2</text>
</a>
</g>
</g>
<!-- dir_3d3615e9a999cab4f3407307569d6ced -->
<g id="node6" class="node">
<title>dir_3d3615e9a999cab4f3407307569d6ced</title>
<g id="a_node6"><a xlink:href="dir_3d3615e9a999cab4f3407307569d6ced.html" target="_top" xlink:title="core">
<polygon fill="#ffffff" stroke="#ff0000" points="170,-36 116,-36 116,0 170,0 170,-36"/>
<text text-anchor="middle" x="143" y="-15.5" font-family="Helvetica,sans-Serif" font-size="10.00" fill="#000000">core</text>
</a>
</g>
</g>
<!-- dir_e037da66ad872c58acfc861df6f5c212&#45;&gt;dir_3d3615e9a999cab4f3407307569d6ced -->
<g id="edge4" class="edge">
<title>dir_e037da66ad872c58acfc861df6f5c212&#45;&gt;dir_3d3615e9a999cab4f3407307569d6ced</title>
<path fill="none" stroke="#000000" d="M56.1088,-287.7232C57.0105,-246.9927 62.9241,-146.4976 98,-72 102.7273,-61.9597 109.7744,-52.2385 116.8967,-43.8767"/>
<polygon fill="#000000" stroke="#000000" points="119.6095,-46.094 123.6751,-36.3102 114.3956,-41.4232 119.6095,-46.094"/>
<g id="a_edge4&#45;headlabel"><a xlink:href="dir_000012_000009.html" target="_top" xlink:title="10">
<text text-anchor="middle" x="119.3258" y="-48.1658" font-family="Helvetica,sans-Serif" font-size="10.00" fill="#000000">10</text>
</a>
</g>
</g>
<!-- dir_0c368f76a33d967d5b838b5681461de6&#45;&gt;dir_e4cd57caa88bf1f4e1bf9521bc47c3c0 -->
<g id="edge5" class="edge">
<title>dir_0c368f76a33d967d5b838b5681461de6&#45;&gt;dir_e4cd57caa88bf1f4e1bf9521bc47c3c0</title>
<path fill="none" stroke="#000000" d="M149.1499,-215.8314C156.6717,-207.3694 165.7565,-197.1489 173.9804,-187.8971"/>
<polygon fill="#000000" stroke="#000000" points="176.6049,-190.2127 180.6327,-180.4133 171.373,-185.5621 176.6049,-190.2127"/>
<g id="a_edge5&#45;headlabel"><a xlink:href="dir_000001_000005.html" target="_top" xlink:title="21">
<text text-anchor="middle" x="176.3389" y="-192.2856" font-family="Helvetica,sans-Serif" font-size="10.00" fill="#000000">21</text>
</a>
</g>
</g>
<!-- dir_0c368f76a33d967d5b838b5681461de6&#45;&gt;dir_7f7a014517bfe31ea45620a6a947e37b -->
<g id="edge6" class="edge">
<title>dir_0c368f76a33d967d5b838b5681461de6&#45;&gt;dir_7f7a014517bfe31ea45620a6a947e37b</title>
<path fill="none" stroke="#000000" d="M134.2665,-215.7623C135.9721,-191.201 139.0245,-147.2474 141.031,-118.3541"/>
<polygon fill="#000000" stroke="#000000" points="144.5425,-118.3081 141.7438,-108.0896 137.5593,-117.8231 144.5425,-118.3081"/>
<g id="a_edge6&#45;headlabel"><a xlink:href="dir_000001_000011.html" target="_top" xlink:title="1">
<text text-anchor="middle" x="147.126" y="-119.5907" font-family="Helvetica,sans-Serif" font-size="10.00" fill="#000000">1</text>
</a>
</g>
</g>
<!-- dir_0c368f76a33d967d5b838b5681461de6&#45;&gt;dir_3d3615e9a999cab4f3407307569d6ced -->
<g id="edge7" class="edge">
<title>dir_0c368f76a33d967d5b838b5681461de6&#45;&gt;dir_3d3615e9a999cab4f3407307569d6ced</title>
<path fill="none" stroke="#000000" d="M124.7874,-215.6609C112.3289,-185.2499 91.6467,-122.7086 107,-72 109.9564,-62.2355 115.3252,-52.6229 121.03,-44.2762"/>
<polygon fill="#000000" stroke="#000000" points="123.9414,-46.2239 127.0095,-36.0831 118.2871,-42.0973 123.9414,-46.2239"/>
<g id="a_edge7&#45;headlabel"><a xlink:href="dir_000001_000009.html" target="_top" xlink:title="7">
<text text-anchor="middle" x="124.1158" y="-48.3013" font-family="Helvetica,sans-Serif" font-size="10.00" fill="#000000">7</text>
</a>
</g>
</g>
<!-- dir_e4cd57caa88bf1f4e1bf9521bc47c3c0&#45;&gt;dir_7f7a014517bfe31ea45620a6a947e37b -->
<g id="edge8" class="edge">
<title>dir_e4cd57caa88bf1f4e1bf9521bc47c3c0&#45;&gt;dir_7f7a014517bfe31ea45620a6a947e37b</title>
<path fill="none" stroke="#000000" d="M183.3735,-143.8314C177.154,-135.5386 169.6678,-125.557 162.84,-116.4533"/>
<polygon fill="#000000" stroke="#000000" points="165.61,-114.3133 156.81,-108.4133 160.01,-118.5133 165.61,-114.3133"/>
<g id="a_edge8&#45;headlabel"><a xlink:href="dir_000005_000011.html" target="_top" xlink:title="1">
<text text-anchor="middle" x="170.0381" y="-112.9854" font-family="Helvetica,sans-Serif" font-size="10.00" fill="#000000">1</text>
</a>
</g>
</g>
<!-- dir_e4cd57caa88bf1f4e1bf9521bc47c3c0&#45;&gt;dir_3d3615e9a999cab4f3407307569d6ced -->
<g id="edge9" class="edge">
<title>dir_e4cd57caa88bf1f4e1bf9521bc47c3c0&#45;&gt;dir_3d3615e9a999cab4f3407307569d6ced</title>
<path fill="none" stroke="#000000" d="M188.698,-143.8087C184.4059,-125.1881 179.8175,-95.7016 170,-72 166.1369,-62.6736 160.5684,-53.2611 155.3471,-44.9652"/>
<polygon fill="#000000" stroke="#000000" points="158.2468,-43.0028 149.9149,-36.4583 152.347,-46.7702 158.2468,-43.0028"/>
<g id="a_edge9&#45;headlabel"><a xlink:href="dir_000005_000009.html" target="_top" xlink:title="14">
<text text-anchor="middle" x="162.5744" y="-42.0044" font-family="Helvetica,sans-Serif" font-size="10.00" fill="#000000">14</text>
</a>
</g>
</g>
<!-- dir_7f7a014517bfe31ea45620a6a947e37b&#45;&gt;dir_3d3615e9a999cab4f3407307569d6ced -->
<g id="edge10" class="edge">
<title>dir_7f7a014517bfe31ea45620a6a947e37b&#45;&gt;dir_3d3615e9a999cab4f3407307569d6ced</title>
<path fill="none" stroke="#000000" d="M143,-71.8314C143,-64.131 143,-54.9743 143,-46.4166"/>
<polygon fill="#000000" stroke="#000000" points="146.5001,-46.4132 143,-36.4133 139.5001,-46.4133 146.5001,-46.4132"/>
<g id="a_edge10&#45;headlabel"><a xlink:href="dir_000011_000009.html" target="_top" xlink:title="1">
<text text-anchor="middle" x="149.3393" y="-47.5079" font-family="Helvetica,sans-Serif" font-size="10.00" fill="#000000">1</text>
</a>
</g>
</g>
<!-- dir_3d3615e9a999cab4f3407307569d6ced&#45;&gt;dir_e4cd57caa88bf1f4e1bf9521bc47c3c0 -->
<g id="edge11" class="edge">
<title>dir_3d3615e9a999cab4f3407307569d6ced&#45;&gt;dir_e4cd57caa88bf1f4e1bf9521bc47c3c0</title>
<path fill="none" stroke="#000000" d="M165.9667,-36.4583C174.317,-46.4409 182.7396,-59.3002 188,-72 196.1685,-91.7205 200.7169,-115.4457 201.9077,-133.5849"/>
<polygon fill="#000000" stroke="#000000" points="198.4163,-133.9204 202.2206,-143.8087 205.413,-133.7063 198.4163,-133.9204"/>
<g id="a_edge11&#45;headlabel"><a xlink:href="dir_000009_000005.html" target="_top" xlink:title="1">
<text text-anchor="middle" x="195.4685" y="-127.9143" font-family="Helvetica,sans-Serif" font-size="10.00" fill="#000000">1</text>
</a>
</g>
</g>
</g>
</svg>
