<?xml version="1.0" encoding="UTF-8" standalone="no"?>
<!DOCTYPE svg PUBLIC "-//W3C//DTD SVG 1.1//EN"
 "http://www.w3.org/Graphics/SVG/1.1/DTD/svg11.dtd">
<!-- Generated by graphviz version 2.40.1 (20161225.0304)
 -->
<!-- Title: amr&#45;wind Pages: 1 -->
<svg width="725pt" height="652pt"
 viewBox="0.00 0.00 725.49 652.00" xmlns="http://www.w3.org/2000/svg" xmlns:xlink="http://www.w3.org/1999/xlink">
<g id="graph0" class="graph" transform="scale(1 1) rotate(0) translate(4 648)">
<title>amr&#45;wind</title>
<polygon fill="#ffffff" stroke="transparent" points="-4,4 -4,-648 721.4886,-648 721.4886,4 -4,4"/>
<g id="clust1" class="cluster">
<title>clusterdir_d85575251dd712327fe3cf057fa568b4</title>
<g id="a_clust1"><a xlink:href="dir_d85575251dd712327fe3cf057fa568b4.html" target="_top">
<polygon fill="#eeeeff" stroke="#000000" points="8,-8 8,-636 706,-636 706,-8 8,-8"/>
</a>
</g>
</g>
<!-- dir_d85575251dd712327fe3cf057fa568b4 -->
<g id="node1" class="node">
<title>dir_d85575251dd712327fe3cf057fa568b4</title>
<text text-anchor="middle" x="405" y="-607.5" font-family="Helvetica,sans-Serif" font-size="10.00" fill="#000000">amr&#45;wind</text>
</g>
<!-- dir_35ffb1505af3943bdf99903da87524fe -->
<g id="node3" class="node">
<title>dir_35ffb1505af3943bdf99903da87524fe</title>
<g id="a_node3"><a xlink:href="dir_35ffb1505af3943bdf99903da87524fe.html" target="_top" xlink:title="convection">
<polygon fill="#ffffff" stroke="#000000" points="586,-556 522,-556 522,-520 586,-520 586,-556"/>
<text text-anchor="middle" x="554" y="-535.5" font-family="Helvetica,sans-Serif" font-size="10.00" fill="#000000">convection</text>
</a>
</g>
</g>
<!-- dir_d85575251dd712327fe3cf057fa568b4&#45;&gt;dir_35ffb1505af3943bdf99903da87524fe -->
<g id="edge11" class="edge">
<title>dir_d85575251dd712327fe3cf057fa568b4&#45;&gt;dir_35ffb1505af3943bdf99903da87524fe</title>
<path fill="none" stroke="#000000" d="M433.0258,-596.4574C455.5497,-585.5733 487.5101,-570.1294 512.9241,-557.8487"/>
<polygon fill="#000000" stroke="#000000" points="514.4803,-560.984 521.9614,-553.4817 511.4347,-554.6813 514.4803,-560.984"/>
<g id="a_edge11&#45;headlabel"><a xlink:href="dir_000000_000015.html" target="_top" xlink:title="6">
<text text-anchor="middle" x="512.4791" y="-562.6044" font-family="Helvetica,sans-Serif" font-size="10.00" fill="#000000">6</text>
</a>
</g>
</g>
<!-- dir_3d3615e9a999cab4f3407307569d6ced -->
<g id="node4" class="node">
<title>dir_3d3615e9a999cab4f3407307569d6ced</title>
<g id="a_node4"><a xlink:href="dir_3d3615e9a999cab4f3407307569d6ced.html" target="_top" xlink:title="core">
<polygon fill="#ffffff" stroke="#000000" points="386,-484 332,-484 332,-448 386,-448 386,-484"/>
<text text-anchor="middle" x="359" y="-463.5" font-family="Helvetica,sans-Serif" font-size="10.00" fill="#000000">core</text>
</a>
</g>
</g>
<!-- dir_d85575251dd712327fe3cf057fa568b4&#45;&gt;dir_3d3615e9a999cab4f3407307569d6ced -->
<g id="edge16" class="edge">
<title>dir_d85575251dd712327fe3cf057fa568b4&#45;&gt;dir_3d3615e9a999cab4f3407307569d6ced</title>
<path fill="none" stroke="#000000" d="M389.6025,-591.7193C382.1014,-581.7854 373.7049,-568.9159 369,-556 361.792,-536.2124 359.3893,-512.4903 358.7367,-494.3693"/>
<polygon fill="#000000" stroke="#000000" points="362.2317,-494.0852 358.5302,-484.158 355.2332,-494.2267 362.2317,-494.0852"/>
<g id="a_edge16&#45;headlabel"><a xlink:href="dir_000000_000009.html" target="_top" xlink:title="117">
<text text-anchor="middle" x="365.143" y="-495.1217" font-family="Helvetica,sans-Serif" font-size="10.00" fill="#000000">117</text>
</a>
</g>
</g>
<!-- dir_a816a247b59c90f95e41afe29b966a18 -->
<g id="node6" class="node">
<title>dir_a816a247b59c90f95e41afe29b966a18</title>
<g id="a_node6"><a xlink:href="dir_a816a247b59c90f95e41afe29b966a18.html" target="_top" xlink:title="diffusion">
<polygon fill="#ffffff" stroke="#000000" points="348,-196 294,-196 294,-160 348,-160 348,-196"/>
<text text-anchor="middle" x="321" y="-175.5" font-family="Helvetica,sans-Serif" font-size="10.00" fill="#000000">diffusion</text>
</a>
</g>
</g>
<!-- dir_d85575251dd712327fe3cf057fa568b4&#45;&gt;dir_a816a247b59c90f95e41afe29b966a18 -->
<g id="edge14" class="edge">
<title>dir_d85575251dd712327fe3cf057fa568b4&#45;&gt;dir_a816a247b59c90f95e41afe29b966a18</title>
<path fill="none" stroke="#000000" d="M376.6866,-608.0815C318.1346,-603.4632 186.9423,-589.5272 160,-556 68.3612,-441.9637 226.8939,-268.0298 293.5641,-203.367"/>
<polygon fill="#000000" stroke="#000000" points="296.0477,-205.8346 300.8435,-196.3874 291.2031,-200.7819 296.0477,-205.8346"/>
<g id="a_edge14&#45;headlabel"><a xlink:href="dir_000000_000014.html" target="_top" xlink:title="3">
<text text-anchor="middle" x="295.4181" y="-207.8718" font-family="Helvetica,sans-Serif" font-size="10.00" fill="#000000">3</text>
</a>
</g>
</g>
<!-- dir_4bb30ed846ea1df1fc4d16874a455d91 -->
<g id="node7" class="node">
<title>dir_4bb30ed846ea1df1fc4d16874a455d91</title>
<g id="a_node7"><a xlink:href="dir_4bb30ed846ea1df1fc4d16874a455d91.html" target="_top" xlink:title="equation_systems">
<polygon fill="#ffffff" stroke="#ff0000" points="507,-268 411,-268 411,-232 507,-232 507,-268"/>
<text text-anchor="middle" x="459" y="-247.5" font-family="Helvetica,sans-Serif" font-size="10.00" fill="#000000">equation_systems</text>
</a>
</g>
</g>
<!-- dir_d85575251dd712327fe3cf057fa568b4&#45;&gt;dir_4bb30ed846ea1df1fc4d16874a455d91 -->
<g id="edge15" class="edge">
<title>dir_d85575251dd712327fe3cf057fa568b4&#45;&gt;dir_4bb30ed846ea1df1fc4d16874a455d91</title>
<path fill="none" stroke="#000000" d="M433.2171,-606.1532C481.2145,-598.9683 575.467,-581.858 595,-556 664.754,-463.6586 543.7968,-329.9036 486.5416,-274.974"/>
<polygon fill="#000000" stroke="#000000" points="488.9072,-272.3938 479.238,-268.0629 484.0959,-277.4783 488.9072,-272.3938"/>
<g id="a_edge15&#45;headlabel"><a xlink:href="dir_000000_000002.html" target="_top" xlink:title="9">
<text text-anchor="middle" x="493.4696" y="-270.3021" font-family="Helvetica,sans-Serif" font-size="10.00" fill="#000000">9</text>
</a>
</g>
</g>
<!-- dir_629222d9fcf2f4ceefae477297f2ec84 -->
<g id="node10" class="node">
<title>dir_629222d9fcf2f4ceefae477297f2ec84</title>
<g id="a_node10"><a xlink:href="dir_629222d9fcf2f4ceefae477297f2ec84.html" target="_top" xlink:title="overset">
<polygon fill="#ffffff" stroke="#000000" points="432,-556 378,-556 378,-520 432,-520 432,-556"/>
<text text-anchor="middle" x="405" y="-535.5" font-family="Helvetica,sans-Serif" font-size="10.00" fill="#000000">overset</text>
</a>
</g>
</g>
<!-- dir_d85575251dd712327fe3cf057fa568b4&#45;&gt;dir_629222d9fcf2f4ceefae477297f2ec84 -->
<g id="edge9" class="edge">
<title>dir_d85575251dd712327fe3cf057fa568b4&#45;&gt;dir_629222d9fcf2f4ceefae477297f2ec84</title>
<path fill="none" stroke="#000000" d="M405,-591.8314C405,-584.131 405,-574.9743 405,-566.4166"/>
<polygon fill="#000000" stroke="#000000" points="408.5001,-566.4132 405,-556.4133 401.5001,-566.4133 408.5001,-566.4132"/>
<g id="a_edge9&#45;headlabel"><a xlink:href="dir_000000_000028.html" target="_top" xlink:title="2">
<text text-anchor="middle" x="411.3393" y="-567.5079" font-family="Helvetica,sans-Serif" font-size="10.00" fill="#000000">2</text>
</a>
</g>
</g>
<!-- dir_363965ad9f416a72819c4d9abdf3e48c -->
<g id="node12" class="node">
<title>dir_363965ad9f416a72819c4d9abdf3e48c</title>
<g id="a_node12"><a xlink:href="dir_363965ad9f416a72819c4d9abdf3e48c.html" target="_top" xlink:title="prob">
<polygon fill="#ffffff" stroke="#000000" points="678,-556 624,-556 624,-520 678,-520 678,-556"/>
<text text-anchor="middle" x="651" y="-535.5" font-family="Helvetica,sans-Serif" font-size="10.00" fill="#000000">prob</text>
</a>
</g>
</g>
<!-- dir_d85575251dd712327fe3cf057fa568b4&#45;&gt;dir_363965ad9f416a72819c4d9abdf3e48c -->
<g id="edge10" class="edge">
<title>dir_d85575251dd712327fe3cf057fa568b4&#45;&gt;dir_363965ad9f416a72819c4d9abdf3e48c</title>
<path fill="none" stroke="#000000" d="M433.2689,-604.0249C473.1971,-595.2553 548.1436,-577.577 610,-556 611.4221,-555.5039 612.8639,-554.9798 614.3141,-554.4348"/>
<polygon fill="#000000" stroke="#000000" points="615.9022,-557.5694 623.8901,-550.6091 613.3052,-551.0689 615.9022,-557.5694"/>
<g id="a_edge10&#45;headlabel"><a xlink:href="dir_000000_000017.html" target="_top" xlink:title="1">
<text text-anchor="middle" x="613.6175" y="-559.0395" font-family="Helvetica,sans-Serif" font-size="10.00" fill="#000000">1</text>
</a>
</g>
</g>
<!-- dir_9ff815a534beac751fa88e427dbab695 -->
<g id="node16" class="node">
<title>dir_9ff815a534beac751fa88e427dbab695</title>
<g id="a_node16"><a xlink:href="dir_9ff815a534beac751fa88e427dbab695.html" target="_top" xlink:title="turbulence">
<polygon fill="#ffffff" stroke="#ff0000" points="593,-196 531,-196 531,-160 593,-160 593,-196"/>
<text text-anchor="middle" x="562" y="-175.5" font-family="Helvetica,sans-Serif" font-size="10.00" fill="#000000">turbulence</text>
</a>
</g>
</g>
<!-- dir_d85575251dd712327fe3cf057fa568b4&#45;&gt;dir_9ff815a534beac751fa88e427dbab695 -->
<g id="edge8" class="edge">
<title>dir_d85575251dd712327fe3cf057fa568b4&#45;&gt;dir_9ff815a534beac751fa88e427dbab695</title>
<path fill="none" stroke="#000000" d="M433.067,-608.9852C497.8882,-605.9918 654.9217,-594.8038 687,-556 777.1691,-446.9262 643.1521,-270.5363 585.871,-204.2747"/>
<polygon fill="#000000" stroke="#000000" points="588.1876,-201.6074 578.9659,-196.3909 582.9217,-206.2196 588.1876,-201.6074"/>
<g id="a_edge8&#45;headlabel"><a xlink:href="dir_000000_000021.html" target="_top" xlink:title="5">
<text text-anchor="middle" x="592.6918" y="-199.9408" font-family="Helvetica,sans-Serif" font-size="10.00" fill="#000000">5</text>
</a>
</g>
</g>
<!-- dir_e4cd57caa88bf1f4e1bf9521bc47c3c0 -->
<g id="node17" class="node">
<title>dir_e4cd57caa88bf1f4e1bf9521bc47c3c0</title>
<g id="a_node17"><a xlink:href="dir_e4cd57caa88bf1f4e1bf9521bc47c3c0.html" target="_top" xlink:title="utilities">
<polygon fill="#ffffff" stroke="#ff0000" points="295,-124 241,-124 241,-88 295,-88 295,-124"/>
<text text-anchor="middle" x="268" y="-103.5" font-family="Helvetica,sans-Serif" font-size="10.00" fill="#000000">utilities</text>
</a>
</g>
</g>
<!-- dir_d85575251dd712327fe3cf057fa568b4&#45;&gt;dir_e4cd57caa88bf1f4e1bf9521bc47c3c0 -->
<g id="edge13" class="edge">
<title>dir_d85575251dd712327fe3cf057fa568b4&#45;&gt;dir_e4cd57caa88bf1f4e1bf9521bc47c3c0</title>
<path fill="none" stroke="#000000" d="M376.5869,-607.9685C314.8063,-602.9868 170.9827,-588.1526 136,-556 80.8033,-505.2687 89,-468.969 89,-394 89,-394 89,-394 89,-250 89,-177.6844 178.7921,-135.5702 231.184,-117.1524"/>
<polygon fill="#000000" stroke="#000000" points="232.4687,-120.4126 240.8138,-113.8849 230.2194,-113.7838 232.4687,-120.4126"/>
<g id="a_edge13&#45;headlabel"><a xlink:href="dir_000000_000005.html" target="_top" xlink:title="55">
<text text-anchor="middle" x="229.977" y="-121.7563" font-family="Helvetica,sans-Serif" font-size="10.00" fill="#000000">55</text>
</a>
</g>
</g>
<!-- dir_0c368f76a33d967d5b838b5681461de6 -->
<g id="node18" class="node">
<title>dir_0c368f76a33d967d5b838b5681461de6</title>
<g id="a_node18"><a xlink:href="dir_0c368f76a33d967d5b838b5681461de6.html" target="_top" xlink:title="wind_energy">
<polygon fill="#ffffff" stroke="#000000" points="286.5,-340 215.5,-340 215.5,-304 286.5,-304 286.5,-340"/>
<text text-anchor="middle" x="251" y="-319.5" font-family="Helvetica,sans-Serif" font-size="10.00" fill="#000000">wind_energy</text>
</a>
</g>
</g>
<!-- dir_d85575251dd712327fe3cf057fa568b4&#45;&gt;dir_0c368f76a33d967d5b838b5681461de6 -->
<g id="edge12" class="edge">
<title>dir_d85575251dd712327fe3cf057fa568b4&#45;&gt;dir_0c368f76a33d967d5b838b5681461de6</title>
<path fill="none" stroke="#000000" d="M376.9728,-605.097C348.15,-598.6494 303.7982,-584.5999 277,-556 220.229,-495.4122 209.7639,-457.2203 227,-376 228.8981,-367.0557 232.3835,-357.7941 236.1209,-349.5203"/>
<polygon fill="#000000" stroke="#000000" points="239.3568,-350.8676 240.5441,-340.3395 233.0505,-347.8294 239.3568,-350.8676"/>
<g id="a_edge12&#45;headlabel"><a xlink:href="dir_000000_000001.html" target="_top" xlink:title="6">
<text text-anchor="middle" x="240.3545" y="-352.8383" font-family="Helvetica,sans-Serif" font-size="10.00" fill="#000000">6</text>
</a>
</g>
</g>
<!-- dir_ebb19deee3cd40f4ac122fef25c04ca8 -->
<g id="node2" class="node">
<title>dir_ebb19deee3cd40f4ac122fef25c04ca8</title>
<g id="a_node2"><a xlink:href="dir_ebb19deee3cd40f4ac122fef25c04ca8.html" target="_top" xlink:title="boundary_conditions">
<polygon fill="#ffffff" stroke="#000000" points="354,-412 248,-412 248,-376 354,-376 354,-412"/>
<text text-anchor="middle" x="301" y="-391.5" font-family="Helvetica,sans-Serif" font-size="10.00" fill="#000000">boundary_conditions</text>
</a>
</g>
</g>
<!-- dir_ebb19deee3cd40f4ac122fef25c04ca8&#45;&gt;dir_3d3615e9a999cab4f3407307569d6ced -->
<g id="edge34" class="edge">
<title>dir_ebb19deee3cd40f4ac122fef25c04ca8&#45;&gt;dir_3d3615e9a999cab4f3407307569d6ced</title>
<path fill="none" stroke="#000000" d="M321.8089,-412.4133C329.2352,-420.654 337.3728,-430.5245 344.2167,-439.536"/>
<polygon fill="#000000" stroke="#000000" points="341.5727,-441.8484 350.3165,-447.8314 347.2122,-437.7015 341.5727,-441.8484"/>
<g id="a_edge34&#45;headlabel"><a xlink:href="dir_000006_000009.html" target="_top" xlink:title="4">
<text text-anchor="middle" x="337.1558" y="-438.1345" font-family="Helvetica,sans-Serif" font-size="10.00" fill="#000000">4</text>
</a>
</g>
</g>
<!-- dir_ebb19deee3cd40f4ac122fef25c04ca8&#45;&gt;dir_0c368f76a33d967d5b838b5681461de6 -->
<g id="edge33" class="edge">
<title>dir_ebb19deee3cd40f4ac122fef25c04ca8&#45;&gt;dir_0c368f76a33d967d5b838b5681461de6</title>
<path fill="none" stroke="#000000" d="M288.3829,-375.8314C282.6828,-367.6232 275.8337,-357.7606 269.5641,-348.7323"/>
<polygon fill="#000000" stroke="#000000" points="272.3658,-346.6306 263.787,-340.4133 266.6162,-350.6234 272.3658,-346.6306"/>
<g id="a_edge33&#45;headlabel"><a xlink:href="dir_000006_000001.html" target="_top" xlink:title="1">
<text text-anchor="middle" x="276.7482" y="-345.4636" font-family="Helvetica,sans-Serif" font-size="10.00" fill="#000000">1</text>
</a>
</g>
</g>
<!-- dir_35ffb1505af3943bdf99903da87524fe&#45;&gt;dir_3d3615e9a999cab4f3407307569d6ced -->
<g id="edge25" class="edge">
<title>dir_35ffb1505af3943bdf99903da87524fe&#45;&gt;dir_3d3615e9a999cab4f3407307569d6ced</title>
<path fill="none" stroke="#000000" d="M521.8686,-523.6164C518.8828,-522.3637 515.8929,-521.1403 513,-520 473.3991,-504.3905 427.2386,-488.5038 395.8574,-478.0416"/>
<polygon fill="#000000" stroke="#000000" points="396.8084,-474.6696 386.215,-474.8426 394.6042,-481.3135 396.8084,-474.6696"/>
<g id="a_edge25&#45;headlabel"><a xlink:href="dir_000015_000009.html" target="_top" xlink:title="4">
<text text-anchor="middle" x="401.1142" y="-470.6066" font-family="Helvetica,sans-Serif" font-size="10.00" fill="#000000">4</text>
</a>
</g>
</g>
<!-- dir_35ffb1505af3943bdf99903da87524fe&#45;&gt;dir_e4cd57caa88bf1f4e1bf9521bc47c3c0 -->
<g id="edge24" class="edge">
<title>dir_35ffb1505af3943bdf99903da87524fe&#45;&gt;dir_e4cd57caa88bf1f4e1bf9521bc47c3c0</title>
<path fill="none" stroke="#000000" d="M553.6165,-519.9775C552.1006,-462.0203 545.0942,-281.3414 516,-232 470.9698,-155.6325 362.9958,-123.9983 305.5054,-112.2114"/>
<polygon fill="#000000" stroke="#000000" points="305.8702,-108.7166 295.3848,-110.2351 304.5286,-115.5868 305.8702,-108.7166"/>
<g id="a_edge24&#45;headlabel"><a xlink:href="dir_000015_000005.html" target="_top" xlink:title="4">
<text text-anchor="middle" x="309.9423" y="-104.1187" font-family="Helvetica,sans-Serif" font-size="10.00" fill="#000000">4</text>
</a>
</g>
</g>
<!-- dir_3d3615e9a999cab4f3407307569d6ced&#45;&gt;dir_ebb19deee3cd40f4ac122fef25c04ca8 -->
<g id="edge52" class="edge">
<title>dir_3d3615e9a999cab4f3407307569d6ced&#45;&gt;dir_ebb19deee3cd40f4ac122fef25c04ca8</title>
<path fill="none" stroke="#000000" d="M338.4118,-447.8314C330.9998,-439.6232 322.8566,-429.7606 315.9872,-420.7323"/>
<polygon fill="#000000" stroke="#000000" points="318.6069,-418.3873 309.8569,-412.4133 312.9716,-422.5399 318.6069,-418.3873"/>
<g id="a_edge52&#45;headlabel"><a xlink:href="dir_000009_000006.html" target="_top" xlink:title="1">
<text text-anchor="middle" x="323.025" y="-417.0967" font-family="Helvetica,sans-Serif" font-size="10.00" fill="#000000">1</text>
</a>
</g>
</g>
<!-- dir_63a0b6c750cdf58b4c6ba486311e48e1 -->
<g id="node5" class="node">
<title>dir_63a0b6c750cdf58b4c6ba486311e48e1</title>
<g id="a_node5"><a xlink:href="dir_63a0b6c750cdf58b4c6ba486311e48e1.html" target="_top" xlink:title="derive">
<polygon fill="#ffffff" stroke="#000000" points="340,-556 286,-556 286,-520 340,-520 340,-556"/>
<text text-anchor="middle" x="313" y="-535.5" font-family="Helvetica,sans-Serif" font-size="10.00" fill="#000000">derive</text>
</a>
</g>
</g>
<!-- dir_63a0b6c750cdf58b4c6ba486311e48e1&#45;&gt;dir_3d3615e9a999cab4f3407307569d6ced -->
<g id="edge35" class="edge">
<title>dir_63a0b6c750cdf58b4c6ba486311e48e1&#45;&gt;dir_3d3615e9a999cab4f3407307569d6ced</title>
<path fill="none" stroke="#000000" d="M324.6077,-519.8314C329.7978,-511.7079 336.0232,-501.9637 341.7425,-493.0118"/>
<polygon fill="#000000" stroke="#000000" points="344.8015,-494.7246 347.236,-484.4133 338.9026,-490.9559 344.8015,-494.7246"/>
<g id="a_edge35&#45;headlabel"><a xlink:href="dir_000013_000009.html" target="_top" xlink:title="1">
<text text-anchor="middle" x="345.2589" y="-496.7824" font-family="Helvetica,sans-Serif" font-size="10.00" fill="#000000">1</text>
</a>
</g>
</g>
<!-- dir_a816a247b59c90f95e41afe29b966a18&#45;&gt;dir_3d3615e9a999cab4f3407307569d6ced -->
<g id="edge43" class="edge">
<title>dir_a816a247b59c90f95e41afe29b966a18&#45;&gt;dir_3d3615e9a999cab4f3407307569d6ced</title>
<path fill="none" stroke="#000000" d="M326.1679,-196.0858C335.751,-230.6694 355.9433,-308.7249 363,-376 364.6691,-391.9127 363.5914,-396.0109 363,-412 362.6956,-420.2303 362.1311,-429.1517 361.5201,-437.3273"/>
<polygon fill="#000000" stroke="#000000" points="358.013,-437.2781 360.7082,-447.5244 364.991,-437.8338 358.013,-437.2781"/>
<g id="a_edge43&#45;headlabel"><a xlink:href="dir_000014_000009.html" target="_top" xlink:title="1">
<text text-anchor="middle" x="355.4679" y="-430.9695" font-family="Helvetica,sans-Serif" font-size="10.00" fill="#000000">1</text>
</a>
</g>
</g>
<!-- dir_4bb30ed846ea1df1fc4d16874a455d91&#45;&gt;dir_ebb19deee3cd40f4ac122fef25c04ca8 -->
<g id="edge47" class="edge">
<title>dir_4bb30ed846ea1df1fc4d16874a455d91&#45;&gt;dir_ebb19deee3cd40f4ac122fef25c04ca8</title>
<path fill="none" stroke="#000000" d="M439.1517,-268.0896C411.2233,-293.5434 360.2142,-340.0326 328.6036,-368.8423"/>
<polygon fill="#000000" stroke="#000000" points="326.0441,-366.4394 321.0108,-375.7623 330.7594,-371.6131 326.0441,-366.4394"/>
<g id="a_edge47&#45;headlabel"><a xlink:href="dir_000002_000006.html" target="_top" xlink:title="1">
<text text-anchor="middle" x="326.7883" y="-359.4196" font-family="Helvetica,sans-Serif" font-size="10.00" fill="#000000">1</text>
</a>
</g>
</g>
<!-- dir_4bb30ed846ea1df1fc4d16874a455d91&#45;&gt;dir_35ffb1505af3943bdf99903da87524fe -->
<g id="edge45" class="edge">
<title>dir_4bb30ed846ea1df1fc4d16874a455d91&#45;&gt;dir_35ffb1505af3943bdf99903da87524fe</title>
<path fill="none" stroke="#000000" d="M464.9404,-268.0089C481.0322,-316.7922 525.5485,-451.747 544.8626,-510.2991"/>
<polygon fill="#000000" stroke="#000000" points="541.6008,-511.5841 548.0573,-519.9843 548.2485,-509.3912 541.6008,-511.5841"/>
<g id="a_edge45&#45;headlabel"><a xlink:href="dir_000002_000015.html" target="_top" xlink:title="3">
<text text-anchor="middle" x="537.7785" y="-506.5598" font-family="Helvetica,sans-Serif" font-size="10.00" fill="#000000">3</text>
</a>
</g>
</g>
<!-- dir_4bb30ed846ea1df1fc4d16874a455d91&#45;&gt;dir_3d3615e9a999cab4f3407307569d6ced -->
<g id="edge51" class="edge">
<title>dir_4bb30ed846ea1df1fc4d16874a455d91&#45;&gt;dir_3d3615e9a999cab4f3407307569d6ced</title>
<path fill="none" stroke="#000000" d="M453.8889,-268.1717C444.881,-298.8694 424.5875,-362.4884 398,-412 392.9119,-421.4751 386.3737,-431.1926 380.1104,-439.7258"/>
<polygon fill="#000000" stroke="#000000" points="377.2374,-437.7224 374.0027,-447.8114 382.8229,-441.9416 377.2374,-437.7224"/>
<g id="a_edge51&#45;headlabel"><a xlink:href="dir_000002_000009.html" target="_top" xlink:title="47">
<text text-anchor="middle" x="377.1384" y="-430.6428" font-family="Helvetica,sans-Serif" font-size="10.00" fill="#000000">47</text>
</a>
</g>
</g>
<!-- dir_4bb30ed846ea1df1fc4d16874a455d91&#45;&gt;dir_a816a247b59c90f95e41afe29b966a18 -->
<g id="edge50" class="edge">
<title>dir_4bb30ed846ea1df1fc4d16874a455d91&#45;&gt;dir_a816a247b59c90f95e41afe29b966a18</title>
<path fill="none" stroke="#000000" d="M424.1768,-231.8314C403.8197,-221.2103 378.1528,-207.8188 357.5119,-197.0497"/>
<polygon fill="#000000" stroke="#000000" points="358.9039,-193.8282 348.419,-192.3056 355.6659,-200.0343 358.9039,-193.8282"/>
<g id="a_edge50&#45;headlabel"><a xlink:href="dir_000002_000014.html" target="_top" xlink:title="1">
<text text-anchor="middle" x="363.4041" y="-190.4737" font-family="Helvetica,sans-Serif" font-size="10.00" fill="#000000">1</text>
</a>
</g>
</g>
<!-- dir_7f7a014517bfe31ea45620a6a947e37b -->
<g id="node8" class="node">
<title>dir_7f7a014517bfe31ea45620a6a947e37b</title>
<g id="a_node8"><a xlink:href="dir_7f7a014517bfe31ea45620a6a947e37b.html" target="_top" xlink:title="fvm">
<polygon fill="#ffffff" stroke="#000000" points="272,-52 218,-52 218,-16 272,-16 272,-52"/>
<text text-anchor="middle" x="245" y="-31.5" font-family="Helvetica,sans-Serif" font-size="10.00" fill="#000000">fvm</text>
</a>
</g>
</g>
<!-- dir_4bb30ed846ea1df1fc4d16874a455d91&#45;&gt;dir_7f7a014517bfe31ea45620a6a947e37b -->
<g id="edge49" class="edge">
<title>dir_4bb30ed846ea1df1fc4d16874a455d91&#45;&gt;dir_7f7a014517bfe31ea45620a6a947e37b</title>
<path fill="none" stroke="#000000" d="M453.5795,-231.9506C447.1365,-212.6426 434.9473,-181.8526 417,-160 378.6655,-113.3241 319.3213,-74.9602 281.3241,-53.2751"/>
<polygon fill="#000000" stroke="#000000" points="282.5831,-49.9682 272.1496,-48.1264 279.1573,-56.0727 282.5831,-49.9682"/>
<g id="a_edge49&#45;headlabel"><a xlink:href="dir_000002_000011.html" target="_top" xlink:title="1">
<text text-anchor="middle" x="287.1073" y="-46.7513" font-family="Helvetica,sans-Serif" font-size="10.00" fill="#000000">1</text>
</a>
</g>
</g>
<!-- dir_4bb30ed846ea1df1fc4d16874a455d91&#45;&gt;dir_9ff815a534beac751fa88e427dbab695 -->
<g id="edge44" class="edge">
<title>dir_4bb30ed846ea1df1fc4d16874a455d91&#45;&gt;dir_9ff815a534beac751fa88e427dbab695</title>
<path fill="none" stroke="#000000" d="M479.0389,-231.8314C491.3877,-222.5681 507.5175,-211.1975 522.3103,-201.2972"/>
<polygon fill="#000000" stroke="#000000" points="524.4165,-204.1005 530.8268,-195.665 520.5552,-198.2618 524.4165,-204.1005"/>
<g id="a_edge44&#45;headlabel"><a xlink:href="dir_000002_000021.html" target="_top" xlink:title="2">
<text text-anchor="middle" x="522.9844" y="-205.9516" font-family="Helvetica,sans-Serif" font-size="10.00" fill="#000000">2</text>
</a>
</g>
</g>
<!-- dir_4bb30ed846ea1df1fc4d16874a455d91&#45;&gt;dir_e4cd57caa88bf1f4e1bf9521bc47c3c0 -->
<g id="edge48" class="edge">
<title>dir_4bb30ed846ea1df1fc4d16874a455d91&#45;&gt;dir_e4cd57caa88bf1f4e1bf9521bc47c3c0</title>
<path fill="none" stroke="#000000" d="M450.4653,-231.8119C440.2613,-211.8021 421.451,-179.8537 397,-160 369.8059,-137.9189 332.2889,-123.5748 304.723,-115.2605"/>
<polygon fill="#000000" stroke="#000000" points="305.6335,-111.8805 295.0549,-112.467 303.6904,-118.6054 305.6335,-111.8805"/>
<g id="a_edge48&#45;headlabel"><a xlink:href="dir_000002_000005.html" target="_top" xlink:title="10">
<text text-anchor="middle" x="309.875" y="-107.6505" font-family="Helvetica,sans-Serif" font-size="10.00" fill="#000000">10</text>
</a>
</g>
</g>
<!-- dir_4bb30ed846ea1df1fc4d16874a455d91&#45;&gt;dir_0c368f76a33d967d5b838b5681461de6 -->
<g id="edge46" class="edge">
<title>dir_4bb30ed846ea1df1fc4d16874a455d91&#45;&gt;dir_0c368f76a33d967d5b838b5681461de6</title>
<path fill="none" stroke="#000000" d="M412.7367,-268.0714C378.0623,-280.4963 330.9518,-296.7474 296.4659,-308.1496"/>
<polygon fill="#000000" stroke="#000000" points="295.0542,-304.9293 286.6465,-311.3762 297.2394,-311.5795 295.0542,-304.9293"/>
<g id="a_edge46&#45;headlabel"><a xlink:href="dir_000002_000001.html" target="_top" xlink:title="2">
<text text-anchor="middle" x="297.5828" y="-298.6099" font-family="Helvetica,sans-Serif" font-size="10.00" fill="#000000">2</text>
</a>
</g>
</g>
<!-- dir_7f7a014517bfe31ea45620a6a947e37b&#45;&gt;dir_3d3615e9a999cab4f3407307569d6ced -->
<g id="edge42" class="edge">
<title>dir_7f7a014517bfe31ea45620a6a947e37b&#45;&gt;dir_3d3615e9a999cab4f3407307569d6ced</title>
<path fill="none" stroke="#000000" d="M226.166,-52.0844C201.6775,-77.6395 162,-126.9258 162,-178 162,-250 162,-250 162,-250 162,-327.5794 172.3285,-356.9583 227,-412 252.7541,-437.9285 292.6896,-451.909 321.8928,-459.0999"/>
<polygon fill="#000000" stroke="#000000" points="321.2032,-462.5326 331.7339,-461.3687 322.7758,-455.7116 321.2032,-462.5326"/>
<g id="a_edge42&#45;headlabel"><a xlink:href="dir_000011_000009.html" target="_top" xlink:title="1">
<text text-anchor="middle" x="317.0627" y="-461.9919" font-family="Helvetica,sans-Serif" font-size="10.00" fill="#000000">1</text>
</a>
</g>
</g>
<!-- dir_2635c1cadbb62984b11c32cfeb0f45eb -->
<g id="node9" class="node">
<title>dir_2635c1cadbb62984b11c32cfeb0f45eb</title>
<g id="a_node9"><a xlink:href="dir_2635c1cadbb62984b11c32cfeb0f45eb.html" target="_top" xlink:title="mms">
<polygon fill="#ffffff" stroke="#000000" points="504,-556 450,-556 450,-520 504,-520 504,-556"/>
<text text-anchor="middle" x="477" y="-535.5" font-family="Helvetica,sans-Serif" font-size="10.00" fill="#000000">mms</text>
</a>
</g>
</g>
<!-- dir_2635c1cadbb62984b11c32cfeb0f45eb&#45;&gt;dir_3d3615e9a999cab4f3407307569d6ced -->
<g id="edge27" class="edge">
<title>dir_2635c1cadbb62984b11c32cfeb0f45eb&#45;&gt;dir_3d3615e9a999cab4f3407307569d6ced</title>
<path fill="none" stroke="#000000" d="M449.9284,-521.4817C433.7046,-511.5825 412.8715,-498.8707 395.2407,-488.113"/>
<polygon fill="#000000" stroke="#000000" points="396.7137,-484.9117 386.3542,-482.6907 393.0676,-490.8872 396.7137,-484.9117"/>
<g id="a_edge27&#45;headlabel"><a xlink:href="dir_000024_000009.html" target="_top" xlink:title="3">
<text text-anchor="middle" x="401.261" y="-481.8602" font-family="Helvetica,sans-Serif" font-size="10.00" fill="#000000">3</text>
</a>
</g>
</g>
<!-- dir_2635c1cadbb62984b11c32cfeb0f45eb&#45;&gt;dir_4bb30ed846ea1df1fc4d16874a455d91 -->
<g id="edge26" class="edge">
<title>dir_2635c1cadbb62984b11c32cfeb0f45eb&#45;&gt;dir_4bb30ed846ea1df1fc4d16874a455d91</title>
<path fill="none" stroke="#000000" d="M475.874,-519.9843C472.8309,-471.2939 464.4248,-336.7961 460.7536,-278.0573"/>
<polygon fill="#000000" stroke="#000000" points="464.2426,-277.771 460.1256,-268.0089 457.2562,-278.2078 464.2426,-277.771"/>
<g id="a_edge26&#45;headlabel"><a xlink:href="dir_000024_000002.html" target="_top" xlink:title="1">
<text text-anchor="middle" x="467.3005" y="-278.6816" font-family="Helvetica,sans-Serif" font-size="10.00" fill="#000000">1</text>
</a>
</g>
</g>
<!-- dir_629222d9fcf2f4ceefae477297f2ec84&#45;&gt;dir_3d3615e9a999cab4f3407307569d6ced -->
<g id="edge23" class="edge">
<title>dir_629222d9fcf2f4ceefae477297f2ec84&#45;&gt;dir_3d3615e9a999cab4f3407307569d6ced</title>
<path fill="none" stroke="#000000" d="M393.3923,-519.8314C388.2022,-511.7079 381.9768,-501.9637 376.2575,-493.0118"/>
<polygon fill="#000000" stroke="#000000" points="379.0974,-490.9559 370.764,-484.4133 373.1985,-494.7246 379.0974,-490.9559"/>
<g id="a_edge23&#45;headlabel"><a xlink:href="dir_000028_000009.html" target="_top" xlink:title="3">
<text text-anchor="middle" x="383.4253" y="-489.9564" font-family="Helvetica,sans-Serif" font-size="10.00" fill="#000000">3</text>
</a>
</g>
</g>
<!-- dir_629222d9fcf2f4ceefae477297f2ec84&#45;&gt;dir_4bb30ed846ea1df1fc4d16874a455d91 -->
<g id="edge22" class="edge">
<title>dir_629222d9fcf2f4ceefae477297f2ec84&#45;&gt;dir_4bb30ed846ea1df1fc4d16874a455d91</title>
<path fill="none" stroke="#000000" d="M419.2037,-519.5647C426.1041,-509.5884 433.7959,-496.7278 438,-484 450.3873,-446.498 456.0506,-331.8264 458.0743,-278.2002"/>
<polygon fill="#000000" stroke="#000000" points="461.5782,-278.151 458.4417,-268.0311 454.5828,-277.8982 461.5782,-278.151"/>
<g id="a_edge22&#45;headlabel"><a xlink:href="dir_000028_000002.html" target="_top" xlink:title="1">
<text text-anchor="middle" x="464.2859" y="-279.3458" font-family="Helvetica,sans-Serif" font-size="10.00" fill="#000000">1</text>
</a>
</g>
</g>
<!-- dir_629222d9fcf2f4ceefae477297f2ec84&#45;&gt;dir_e4cd57caa88bf1f4e1bf9521bc47c3c0 -->
<g id="edge21" class="edge">
<title>dir_629222d9fcf2f4ceefae477297f2ec84&#45;&gt;dir_e4cd57caa88bf1f4e1bf9521bc47c3c0</title>
<path fill="none" stroke="#000000" d="M405.7522,-519.7481C408.173,-452.2298 413.2671,-217.5521 370,-160 353.9528,-138.6547 326.9684,-124.8986 304.7843,-116.615"/>
<polygon fill="#000000" stroke="#000000" points="305.897,-113.2963 295.3021,-113.2903 303.5807,-119.902 305.897,-113.2963"/>
<g id="a_edge21&#45;headlabel"><a xlink:href="dir_000028_000005.html" target="_top" xlink:title="1">
<text text-anchor="middle" x="310.2286" y="-109.3063" font-family="Helvetica,sans-Serif" font-size="10.00" fill="#000000">1</text>
</a>
</g>
</g>
<!-- dir_f2c65bfcbdc19ebacbfc0bbbfb0d01b6 -->
<g id="node11" class="node">
<title>dir_f2c65bfcbdc19ebacbfc0bbbfb0d01b6</title>
<g id="a_node11"><a xlink:href="dir_f2c65bfcbdc19ebacbfc0bbbfb0d01b6.html" target="_top" xlink:title="physics">
<polygon fill="#ffffff" stroke="#ff0000" points="90,-556 36,-556 36,-520 90,-520 90,-556"/>
<text text-anchor="middle" x="63" y="-535.5" font-family="Helvetica,sans-Serif" font-size="10.00" fill="#000000">physics</text>
</a>
</g>
</g>
<!-- dir_f2c65bfcbdc19ebacbfc0bbbfb0d01b6&#45;&gt;dir_3d3615e9a999cab4f3407307569d6ced -->
<g id="edge20" class="edge">
<title>dir_f2c65bfcbdc19ebacbfc0bbbfb0d01b6&#45;&gt;dir_3d3615e9a999cab4f3407307569d6ced</title>
<path fill="none" stroke="#000000" d="M90.0527,-531.4196C143.2081,-518.4899 261.3494,-489.7528 321.8003,-475.0486"/>
<polygon fill="#000000" stroke="#000000" points="322.7993,-478.4077 331.6888,-472.6433 321.1448,-471.606 322.7993,-478.4077"/>
<g id="a_edge20&#45;headlabel"><a xlink:href="dir_000007_000009.html" target="_top" xlink:title="19">
<text text-anchor="middle" x="319.9776" y="-479.5161" font-family="Helvetica,sans-Serif" font-size="10.00" fill="#000000">19</text>
</a>
</g>
</g>
<!-- dir_f2c65bfcbdc19ebacbfc0bbbfb0d01b6&#45;&gt;dir_7f7a014517bfe31ea45620a6a947e37b -->
<g id="edge19" class="edge">
<title>dir_f2c65bfcbdc19ebacbfc0bbbfb0d01b6&#45;&gt;dir_7f7a014517bfe31ea45620a6a947e37b</title>
<path fill="none" stroke="#000000" d="M53.2446,-519.9518C39.7417,-493.2403 17,-441.2402 17,-394 17,-394 17,-394 17,-178 17,-88.8601 143.1219,-52.6601 207.759,-39.961"/>
<polygon fill="#000000" stroke="#000000" points="208.7647,-43.3336 217.9501,-38.0535 207.4768,-36.4531 208.7647,-43.3336"/>
<g id="a_edge19&#45;headlabel"><a xlink:href="dir_000007_000011.html" target="_top" xlink:title="1">
<text text-anchor="middle" x="205.7538" y="-44.2856" font-family="Helvetica,sans-Serif" font-size="10.00" fill="#000000">1</text>
</a>
</g>
</g>
<!-- dir_f2c65bfcbdc19ebacbfc0bbbfb0d01b6&#45;&gt;dir_e4cd57caa88bf1f4e1bf9521bc47c3c0 -->
<g id="edge18" class="edge">
<title>dir_f2c65bfcbdc19ebacbfc0bbbfb0d01b6&#45;&gt;dir_e4cd57caa88bf1f4e1bf9521bc47c3c0</title>
<path fill="none" stroke="#000000" d="M63.6216,-519.8172C64.5003,-492.504 66,-439.2598 66,-394 66,-394 66,-394 66,-250 66,-209.2078 56.4533,-190.0862 84,-160 103.7406,-138.4396 182.9853,-121.0481 230.8056,-112.2519"/>
<polygon fill="#000000" stroke="#000000" points="231.5662,-115.6713 240.7886,-110.4562 230.3269,-108.7819 231.5662,-115.6713"/>
<g id="a_edge18&#45;headlabel"><a xlink:href="dir_000007_000005.html" target="_top" xlink:title="4">
<text text-anchor="middle" x="228.531" y="-116.602" font-family="Helvetica,sans-Serif" font-size="10.00" fill="#000000">4</text>
</a>
</g>
</g>
<!-- dir_f2c65bfcbdc19ebacbfc0bbbfb0d01b6&#45;&gt;dir_0c368f76a33d967d5b838b5681461de6 -->
<g id="edge17" class="edge">
<title>dir_f2c65bfcbdc19ebacbfc0bbbfb0d01b6&#45;&gt;dir_0c368f76a33d967d5b838b5681461de6</title>
<path fill="none" stroke="#000000" d="M67.8912,-519.9455C77.5121,-487.4221 101.7219,-418.4362 144,-376 161.2566,-358.6789 185.2145,-345.8818 206.0863,-337.1049"/>
<polygon fill="#000000" stroke="#000000" points="207.4495,-340.3292 215.4237,-333.3533 204.8397,-333.8338 207.4495,-340.3292"/>
<g id="a_edge17&#45;headlabel"><a xlink:href="dir_000007_000001.html" target="_top" xlink:title="1">
<text text-anchor="middle" x="205.1725" y="-341.8038" font-family="Helvetica,sans-Serif" font-size="10.00" fill="#000000">1</text>
</a>
</g>
</g>
<!-- dir_d599e6111b2fbf4fd47cd3a4f2a09da4 -->
<g id="node13" class="node">
<title>dir_d599e6111b2fbf4fd47cd3a4f2a09da4</title>
<g id="a_node13"><a xlink:href="dir_d599e6111b2fbf4fd47cd3a4f2a09da4.html" target="_top" xlink:title="projection">
<polygon fill="#ffffff" stroke="#000000" points="227.5,-556 168.5,-556 168.5,-520 227.5,-520 227.5,-556"/>
<text text-anchor="middle" x="198" y="-535.5" font-family="Helvetica,sans-Serif" font-size="10.00" fill="#000000">projection</text>
</a>
</g>
</g>
<!-- dir_d599e6111b2fbf4fd47cd3a4f2a09da4&#45;&gt;dir_3d3615e9a999cab4f3407307569d6ced -->
<g id="edge7" class="edge">
<title>dir_d599e6111b2fbf4fd47cd3a4f2a09da4&#45;&gt;dir_3d3615e9a999cab4f3407307569d6ced</title>
<path fill="none" stroke="#000000" d="M227.5299,-524.7941C254.2816,-512.8306 293.791,-495.1618 322.5104,-482.3183"/>
<polygon fill="#000000" stroke="#000000" points="324.1025,-485.4404 331.8024,-478.1629 321.2448,-479.0503 324.1025,-485.4404"/>
<g id="a_edge7&#45;headlabel"><a xlink:href="dir_000016_000009.html" target="_top" xlink:title="2">
<text text-anchor="middle" x="321.9802" y="-486.9998" font-family="Helvetica,sans-Serif" font-size="10.00" fill="#000000">2</text>
</a>
</g>
</g>
<!-- dir_d599e6111b2fbf4fd47cd3a4f2a09da4&#45;&gt;dir_e4cd57caa88bf1f4e1bf9521bc47c3c0 -->
<g id="edge6" class="edge">
<title>dir_d599e6111b2fbf4fd47cd3a4f2a09da4&#45;&gt;dir_e4cd57caa88bf1f4e1bf9521bc47c3c0</title>
<path fill="none" stroke="#000000" d="M197.1081,-519.9282C195.504,-480.4257 193.4545,-383.5553 207,-304 217.5957,-241.7694 242.3322,-171.8078 256.8414,-133.962"/>
<polygon fill="#000000" stroke="#000000" points="260.2856,-134.7611 260.6422,-124.1722 253.7601,-132.2275 260.2856,-134.7611"/>
<g id="a_edge6&#45;headlabel"><a xlink:href="dir_000016_000005.html" target="_top" xlink:title="1">
<text text-anchor="middle" x="261.6314" y="-136.6396" font-family="Helvetica,sans-Serif" font-size="10.00" fill="#000000">1</text>
</a>
</g>
</g>
<!-- dir_073a3c37bc9e3eb3e412aa8cf4eda4c3 -->
<g id="node14" class="node">
<title>dir_073a3c37bc9e3eb3e412aa8cf4eda4c3</title>
<g id="a_node14"><a xlink:href="dir_073a3c37bc9e3eb3e412aa8cf4eda4c3.html" target="_top" xlink:title="setup">
<polygon fill="#ffffff" stroke="#000000" points="123,-628 69,-628 69,-592 123,-592 123,-628"/>
<text text-anchor="middle" x="96" y="-607.5" font-family="Helvetica,sans-Serif" font-size="10.00" fill="#000000">setup</text>
</a>
</g>
</g>
<!-- dir_073a3c37bc9e3eb3e412aa8cf4eda4c3&#45;&gt;dir_3d3615e9a999cab4f3407307569d6ced -->
<g id="edge41" class="edge">
<title>dir_073a3c37bc9e3eb3e412aa8cf4eda4c3&#45;&gt;dir_3d3615e9a999cab4f3407307569d6ced</title>
<path fill="none" stroke="#000000" d="M123.0671,-602.8636C152.4901,-594.3895 200.2227,-578.512 237,-556 257.3993,-543.5133 258.0699,-534.6186 277,-520 291.5241,-508.7839 308.334,-497.4515 322.9386,-488.0841"/>
<polygon fill="#000000" stroke="#000000" points="325.136,-490.8352 331.7069,-482.5242 321.3873,-484.9235 325.136,-490.8352"/>
<g id="a_edge41&#45;headlabel"><a xlink:href="dir_000018_000009.html" target="_top" xlink:title="1">
<text text-anchor="middle" x="323.6207" y="-492.658" font-family="Helvetica,sans-Serif" font-size="10.00" fill="#000000">1</text>
</a>
</g>
</g>
<!-- dir_073a3c37bc9e3eb3e412aa8cf4eda4c3&#45;&gt;dir_f2c65bfcbdc19ebacbfc0bbbfb0d01b6 -->
<g id="edge38" class="edge">
<title>dir_073a3c37bc9e3eb3e412aa8cf4eda4c3&#45;&gt;dir_f2c65bfcbdc19ebacbfc0bbbfb0d01b6</title>
<path fill="none" stroke="#000000" d="M87.6727,-591.8314C84.027,-583.8771 79.6691,-574.369 75.6373,-565.5723"/>
<polygon fill="#000000" stroke="#000000" points="78.7877,-564.0456 71.4394,-556.4133 72.4243,-566.9622 78.7877,-564.0456"/>
<g id="a_edge38&#45;headlabel"><a xlink:href="dir_000018_000007.html" target="_top" xlink:title="1">
<text text-anchor="middle" x="82.8665" y="-563.6304" font-family="Helvetica,sans-Serif" font-size="10.00" fill="#000000">1</text>
</a>
</g>
</g>
<!-- dir_073a3c37bc9e3eb3e412aa8cf4eda4c3&#45;&gt;dir_e4cd57caa88bf1f4e1bf9521bc47c3c0 -->
<g id="edge40" class="edge">
<title>dir_073a3c37bc9e3eb3e412aa8cf4eda4c3&#45;&gt;dir_e4cd57caa88bf1f4e1bf9521bc47c3c0</title>
<path fill="none" stroke="#000000" d="M68.9555,-596.7621C53.5916,-587.6343 35.7281,-573.914 27,-556 19.992,-541.6164 26.3666,-535.9875 27,-520 29.224,-463.8679 37,-450.1761 37,-394 37,-394 37,-394 37,-250 37,-208.6022 31.6481,-189.1932 61,-160 84.7616,-136.3669 177.8928,-119.2184 230.7799,-111.1565"/>
<polygon fill="#000000" stroke="#000000" points="231.4129,-114.601 240.7882,-109.6661 230.3818,-107.6773 231.4129,-114.601"/>
<g id="a_edge40&#45;headlabel"><a xlink:href="dir_000018_000005.html" target="_top" xlink:title="2">
<text text-anchor="middle" x="228.2757" y="-115.4386" font-family="Helvetica,sans-Serif" font-size="10.00" fill="#000000">2</text>
</a>
</g>
</g>
<!-- dir_073a3c37bc9e3eb3e412aa8cf4eda4c3&#45;&gt;dir_0c368f76a33d967d5b838b5681461de6 -->
<g id="edge39" class="edge">
<title>dir_073a3c37bc9e3eb3e412aa8cf4eda4c3&#45;&gt;dir_0c368f76a33d967d5b838b5681461de6</title>
<path fill="none" stroke="#000000" d="M104.7489,-591.8143C124.0025,-552.0878 171.9248,-454.8031 217,-376 222.1439,-367.0071 228.0667,-357.3785 233.513,-348.7787"/>
<polygon fill="#000000" stroke="#000000" points="236.5227,-350.5689 238.9634,-340.259 230.626,-346.7965 236.5227,-350.5689"/>
<g id="a_edge39&#45;headlabel"><a xlink:href="dir_000018_000001.html" target="_top" xlink:title="1">
<text text-anchor="middle" x="236.9773" y="-352.6269" font-family="Helvetica,sans-Serif" font-size="10.00" fill="#000000">1</text>
</a>
</g>
</g>
<!-- dir_7b7e55eaa727ae9c717abfc097345a8f -->
<g id="node15" class="node">
<title>dir_7b7e55eaa727ae9c717abfc097345a8f</title>
<g id="a_node15"><a xlink:href="dir_7b7e55eaa727ae9c717abfc097345a8f.html" target="_top" xlink:title="transport_models">
<polygon fill="#ffffff" stroke="#000000" points="664,-124 572,-124 572,-88 664,-88 664,-124"/>
<text text-anchor="middle" x="618" y="-103.5" font-family="Helvetica,sans-Serif" font-size="10.00" fill="#000000">transport_models</text>
</a>
</g>
</g>
<!-- dir_7b7e55eaa727ae9c717abfc097345a8f&#45;&gt;dir_3d3615e9a999cab4f3407307569d6ced -->
<g id="edge53" class="edge">
<title>dir_7b7e55eaa727ae9c717abfc097345a8f&#45;&gt;dir_3d3615e9a999cab4f3407307569d6ced</title>
<path fill="none" stroke="#000000" d="M617.6357,-124.1283C616.6194,-142.9586 613.1826,-172.85 602,-196 550.5762,-302.4568 444.1538,-397.7894 390.8619,-441.2005"/>
<polygon fill="#000000" stroke="#000000" points="388.3694,-438.7141 382.7816,-447.7156 392.7632,-444.1634 388.3694,-438.7141"/>
<g id="a_edge53&#45;headlabel"><a xlink:href="dir_000010_000009.html" target="_top" xlink:title="2">
<text text-anchor="middle" x="389.3855" y="-431.7476" font-family="Helvetica,sans-Serif" font-size="10.00" fill="#000000">2</text>
</a>
</g>
</g>
<!-- dir_9ff815a534beac751fa88e427dbab695&#45;&gt;dir_3d3615e9a999cab4f3407307569d6ced -->
<g id="edge3" class="edge">
<title>dir_9ff815a534beac751fa88e427dbab695&#45;&gt;dir_3d3615e9a999cab4f3407307569d6ced</title>
<path fill="none" stroke="#000000" d="M557.8474,-196.0584C553.0672,-214.8317 544.1448,-244.6772 531,-268 491.5518,-337.9928 424.7709,-405.5642 387.0764,-440.8004"/>
<polygon fill="#000000" stroke="#000000" points="384.4561,-438.4566 379.4946,-447.8179 389.211,-443.5938 384.4561,-438.4566"/>
<g id="a_edge3&#45;headlabel"><a xlink:href="dir_000021_000009.html" target="_top" xlink:title="5">
<text text-anchor="middle" x="385.1656" y="-431.4312" font-family="Helvetica,sans-Serif" font-size="10.00" fill="#000000">5</text>
</a>
</g>
</g>
<!-- dir_9ff815a534beac751fa88e427dbab695&#45;&gt;dir_4bb30ed846ea1df1fc4d16874a455d91 -->
<g id="edge4" class="edge">
<title>dir_9ff815a534beac751fa88e427dbab695&#45;&gt;dir_4bb30ed846ea1df1fc4d16874a455d91</title>
<path fill="none" stroke="#000000" d="M541.9689,-196.1628C529.8073,-205.2859 513.9766,-216.4541 499.3673,-226.2489"/>
<polygon fill="#000000" stroke="#000000" points="497.3459,-223.3897 490.9436,-231.8314 501.2128,-229.2246 497.3459,-223.3897"/>
<g id="a_edge4&#45;headlabel"><a xlink:href="dir_000021_000002.html" target="_top" xlink:title="2">
<text text-anchor="middle" x="498.7738" y="-216.5372" font-family="Helvetica,sans-Serif" font-size="10.00" fill="#000000">2</text>
</a>
</g>
</g>
<!-- dir_9ff815a534beac751fa88e427dbab695&#45;&gt;dir_7f7a014517bfe31ea45620a6a947e37b -->
<g id="edge2" class="edge">
<title>dir_9ff815a534beac751fa88e427dbab695&#45;&gt;dir_7f7a014517bfe31ea45620a6a947e37b</title>
<path fill="none" stroke="#000000" d="M557.976,-159.7163C552.4234,-138.9957 540.336,-105.7978 517,-88 480.6472,-60.2746 348.5212,-43.9656 282.7397,-37.394"/>
<polygon fill="#000000" stroke="#000000" points="282.6906,-33.8727 272.3984,-36.3867 282.0119,-40.8397 282.6906,-33.8727"/>
<g id="a_edge2&#45;headlabel"><a xlink:href="dir_000021_000011.html" target="_top" xlink:title="3">
<text text-anchor="middle" x="286.5435" y="-28.8952" font-family="Helvetica,sans-Serif" font-size="10.00" fill="#000000">3</text>
</a>
</g>
</g>
<!-- dir_9ff815a534beac751fa88e427dbab695&#45;&gt;dir_7b7e55eaa727ae9c717abfc097345a8f -->
<g id="edge5" class="edge">
<title>dir_9ff815a534beac751fa88e427dbab695&#45;&gt;dir_7b7e55eaa727ae9c717abfc097345a8f</title>
<path fill="none" stroke="#000000" d="M576.1312,-159.8314C582.5811,-151.5386 590.3445,-141.557 597.4252,-132.4533"/>
<polygon fill="#000000" stroke="#000000" points="600.3019,-134.4556 603.6786,-124.4133 594.7764,-130.158 600.3019,-134.4556"/>
<g id="a_edge5&#45;headlabel"><a xlink:href="dir_000021_000010.html" target="_top" xlink:title="2">
<text text-anchor="middle" x="600.3362" y="-136.5361" font-family="Helvetica,sans-Serif" font-size="10.00" fill="#000000">2</text>
</a>
</g>
</g>
<!-- dir_9ff815a534beac751fa88e427dbab695&#45;&gt;dir_e4cd57caa88bf1f4e1bf9521bc47c3c0 -->
<g id="edge1" class="edge">
<title>dir_9ff815a534beac751fa88e427dbab695&#45;&gt;dir_e4cd57caa88bf1f4e1bf9521bc47c3c0</title>
<path fill="none" stroke="#000000" d="M530.9864,-169.1492C520.2468,-166.1541 508.116,-162.8486 497,-160 429.6385,-142.7377 350.5987,-124.5542 305.2014,-114.3085"/>
<polygon fill="#000000" stroke="#000000" points="305.7512,-110.8447 295.2266,-112.0629 304.2137,-117.6738 305.7512,-110.8447"/>
<g id="a_edge1&#45;headlabel"><a xlink:href="dir_000021_000005.html" target="_top" xlink:title="1">
<text text-anchor="middle" x="309.8816" y="-106.3642" font-family="Helvetica,sans-Serif" font-size="10.00" fill="#000000">1</text>
</a>
</g>
</g>
<!-- dir_e4cd57caa88bf1f4e1bf9521bc47c3c0&#45;&gt;dir_3d3615e9a999cab4f3407307569d6ced -->
<g id="edge37" class="edge">
<title>dir_e4cd57caa88bf1f4e1bf9521bc47c3c0&#45;&gt;dir_3d3615e9a999cab4f3407307569d6ced</title>
<path fill="none" stroke="#000000" d="M295.2586,-114.6256C316.0583,-122.7687 343.3827,-137.1878 357,-160 406.2691,-242.5376 365.5548,-279.9067 368,-376 368.407,-391.9948 369.3197,-396.0545 368,-412 367.3055,-420.3915 366.0138,-429.4422 364.6214,-437.6908"/>
<polygon fill="#000000" stroke="#000000" points="361.1647,-437.1388 362.8413,-447.6001 368.0544,-438.3765 361.1647,-437.1388"/>
<g id="a_edge37&#45;headlabel"><a xlink:href="dir_000005_000009.html" target="_top" xlink:title="10">
<text text-anchor="middle" x="359.0056" y="-430.5988" font-family="Helvetica,sans-Serif" font-size="10.00" fill="#000000">10</text>
</a>
</g>
</g>
<!-- dir_e4cd57caa88bf1f4e1bf9521bc47c3c0&#45;&gt;dir_7f7a014517bfe31ea45620a6a947e37b -->
<g id="edge36" class="edge">
<title>dir_e4cd57caa88bf1f4e1bf9521bc47c3c0&#45;&gt;dir_7f7a014517bfe31ea45620a6a947e37b</title>
<path fill="none" stroke="#000000" d="M262.1961,-87.8314C259.7092,-80.0463 256.7469,-70.7729 253.9875,-62.1347"/>
<polygon fill="#000000" stroke="#000000" points="257.2591,-60.874 250.882,-52.4133 250.591,-63.0041 257.2591,-60.874"/>
<g id="a_edge36&#45;headlabel"><a xlink:href="dir_000005_000011.html" target="_top" xlink:title="1">
<text text-anchor="middle" x="261.0574" y="-60.9342" font-family="Helvetica,sans-Serif" font-size="10.00" fill="#000000">1</text>
</a>
</g>
</g>
<!-- dir_0c368f76a33d967d5b838b5681461de6&#45;&gt;dir_3d3615e9a999cab4f3407307569d6ced -->
<g id="edge31" class="edge">
<title>dir_0c368f76a33d967d5b838b5681461de6&#45;&gt;dir_3d3615e9a999cab4f3407307569d6ced</title>
<path fill="none" stroke="#000000" d="M242.0259,-340.105C233.8359,-359.4606 224.9632,-390.2909 239,-412 257.1735,-440.1069 293.8485,-453.7291 321.8961,-460.24"/>
<polygon fill="#000000" stroke="#000000" points="321.2812,-463.6873 331.7888,-462.3307 322.7286,-456.8386 321.2812,-463.6873"/>
<g id="a_edge31&#45;headlabel"><a xlink:href="dir_000001_000009.html" target="_top" xlink:title="7">
<text text-anchor="middle" x="317.1772" y="-463.222" font-family="Helvetica,sans-Serif" font-size="10.00" fill="#000000">7</text>
</a>
</g>
</g>
<!-- dir_0c368f76a33d967d5b838b5681461de6&#45;&gt;dir_a816a247b59c90f95e41afe29b966a18 -->
<g id="edge30" class="edge">
<title>dir_0c368f76a33d967d5b838b5681461de6&#45;&gt;dir_a816a247b59c90f95e41afe29b966a18</title>
<path fill="none" stroke="#000000" d="M259.8655,-303.7623C271.9628,-278.8764 293.7378,-234.0822 307.7698,-205.2165"/>
<polygon fill="#000000" stroke="#000000" points="310.9822,-206.6135 312.2064,-196.0896 304.6867,-203.5531 310.9822,-206.6135"/>
<g id="a_edge30&#45;headlabel"><a xlink:href="dir_000001_000014.html" target="_top" xlink:title="1">
<text text-anchor="middle" x="311.9643" y="-208.5877" font-family="Helvetica,sans-Serif" font-size="10.00" fill="#000000">1</text>
</a>
</g>
</g>
<!-- dir_0c368f76a33d967d5b838b5681461de6&#45;&gt;dir_4bb30ed846ea1df1fc4d16874a455d91 -->
<g id="edge32" class="edge">
<title>dir_0c368f76a33d967d5b838b5681461de6&#45;&gt;dir_4bb30ed846ea1df1fc4d16874a455d91</title>
<path fill="none" stroke="#000000" d="M286.5904,-307.7751C318.1229,-296.3385 364.5892,-280.2053 401.3843,-267.8928"/>
<polygon fill="#000000" stroke="#000000" points="402.6182,-271.171 410.9993,-264.6896 400.4057,-264.5298 402.6182,-271.171"/>
<g id="a_edge32&#45;headlabel"><a xlink:href="dir_000001_000002.html" target="_top" xlink:title="2">
<text text-anchor="middle" x="400.1053" y="-272.5008" font-family="Helvetica,sans-Serif" font-size="10.00" fill="#000000">2</text>
</a>
</g>
</g>
<!-- dir_0c368f76a33d967d5b838b5681461de6&#45;&gt;dir_7f7a014517bfe31ea45620a6a947e37b -->
<g id="edge29" class="edge">
<title>dir_0c368f76a33d967d5b838b5681461de6&#45;&gt;dir_7f7a014517bfe31ea45620a6a947e37b</title>
<path fill="none" stroke="#000000" d="M247.0515,-303.7495C239.0564,-264.2935 222.4894,-168.1399 232,-88 233.0068,-79.5166 234.8736,-70.4376 236.8847,-62.1913"/>
<polygon fill="#000000" stroke="#000000" points="240.3278,-62.8576 239.4554,-52.2988 233.5528,-61.0971 240.3278,-62.8576"/>
<g id="a_edge29&#45;headlabel"><a xlink:href="dir_000001_000011.html" target="_top" xlink:title="1">
<text text-anchor="middle" x="242.1718" y="-64.5508" font-family="Helvetica,sans-Serif" font-size="10.00" fill="#000000">1</text>
</a>
</g>
</g>
<!-- dir_0c368f76a33d967d5b838b5681461de6&#45;&gt;dir_e4cd57caa88bf1f4e1bf9521bc47c3c0 -->
<g id="edge28" class="edge">
<title>dir_0c368f76a33d967d5b838b5681461de6&#45;&gt;dir_e4cd57caa88bf1f4e1bf9521bc47c3c0</title>
<path fill="none" stroke="#000000" d="M252.4202,-303.9555C255.3827,-266.3144 262.2399,-179.1867 265.7865,-134.1246"/>
<polygon fill="#000000" stroke="#000000" points="269.2764,-134.3889 266.5719,-124.1451 262.298,-133.8396 269.2764,-134.3889"/>
<g id="a_edge28&#45;headlabel"><a xlink:href="dir_000001_000005.html" target="_top" xlink:title="21">
<text text-anchor="middle" x="271.825" y="-135.6952" font-family="Helvetica,sans-Serif" font-size="10.00" fill="#000000">21</text>
</a>
</g>
</g>
</g>
</svg>
