<?xml version="1.0" encoding="UTF-8" standalone="no"?>
<!DOCTYPE svg PUBLIC "-//W3C//DTD SVG 1.1//EN"
 "http://www.w3.org/Graphics/SVG/1.1/DTD/svg11.dtd">
<!-- Generated by graphviz version 2.40.1 (20161225.0304)
 -->
<!-- Title: amr&#45;wind Pages: 1 -->
<svg width="727pt" height="652pt"
 viewBox="0.00 0.00 727.30 652.00" xmlns="http://www.w3.org/2000/svg" xmlns:xlink="http://www.w3.org/1999/xlink">
<g id="graph0" class="graph" transform="scale(1 1) rotate(0) translate(4 648)">
<title>amr&#45;wind</title>
<polygon fill="#ffffff" stroke="transparent" points="-4,4 -4,-648 723.3,-648 723.3,4 -4,4"/>
<g id="clust1" class="cluster">
<title>clusterdir_d85575251dd712327fe3cf057fa568b4</title>
<g id="a_clust1"><a xlink:href="dir_d85575251dd712327fe3cf057fa568b4.html" target="_top">
<polygon fill="#eeeeff" stroke="#000000" points="8,-8 8,-636 706,-636 706,-8 8,-8"/>
</a>
</g>
</g>
<!-- dir_d85575251dd712327fe3cf057fa568b4 -->
<g id="node1" class="node">
<title>dir_d85575251dd712327fe3cf057fa568b4</title>
<text text-anchor="middle" x="431" y="-607.5" font-family="Helvetica,sans-Serif" font-size="10.00" fill="#000000">amr&#45;wind</text>
</g>
<!-- dir_35ffb1505af3943bdf99903da87524fe -->
<g id="node3" class="node">
<title>dir_35ffb1505af3943bdf99903da87524fe</title>
<g id="a_node3"><a xlink:href="dir_35ffb1505af3943bdf99903da87524fe.html" target="_top" xlink:title="convection">
<polygon fill="#ffffff" stroke="#000000" points="586,-556 522,-556 522,-520 586,-520 586,-556"/>
<text text-anchor="middle" x="554" y="-535.5" font-family="Helvetica,sans-Serif" font-size="10.00" fill="#000000">convection</text>
</a>
</g>
</g>
<!-- dir_d85575251dd712327fe3cf057fa568b4&#45;&gt;dir_35ffb1505af3943bdf99903da87524fe -->
<g id="edge11" class="edge">
<title>dir_d85575251dd712327fe3cf057fa568b4&#45;&gt;dir_35ffb1505af3943bdf99903da87524fe</title>
<path fill="none" stroke="#000000" d="M459.2187,-593.4817C475.4052,-584.0067 495.9933,-571.9552 513.843,-561.5065"/>
<polygon fill="#000000" stroke="#000000" points="516.0279,-564.2832 522.8899,-556.2108 512.4916,-558.2421 516.0279,-564.2832"/>
<g id="a_edge11&#45;headlabel"><a xlink:href="dir_000000_000016.html" target="_top" xlink:title="6">
<text text-anchor="middle" x="514.36" y="-566.0494" font-family="Helvetica,sans-Serif" font-size="10.00" fill="#000000">6</text>
</a>
</g>
</g>
<!-- dir_3d3615e9a999cab4f3407307569d6ced -->
<g id="node4" class="node">
<title>dir_3d3615e9a999cab4f3407307569d6ced</title>
<g id="a_node4"><a xlink:href="dir_3d3615e9a999cab4f3407307569d6ced.html" target="_top" xlink:title="core">
<polygon fill="#ffffff" stroke="#ff0000" points="407,-484 353,-484 353,-448 407,-448 407,-484"/>
<text text-anchor="middle" x="380" y="-463.5" font-family="Helvetica,sans-Serif" font-size="10.00" fill="#000000">core</text>
</a>
</g>
</g>
<!-- dir_d85575251dd712327fe3cf057fa568b4&#45;&gt;dir_3d3615e9a999cab4f3407307569d6ced -->
<g id="edge16" class="edge">
<title>dir_d85575251dd712327fe3cf057fa568b4&#45;&gt;dir_3d3615e9a999cab4f3407307569d6ced</title>
<path fill="none" stroke="#000000" d="M431.7697,-591.7275C431.9237,-573.0424 430.3891,-543.5052 421,-520 417.0702,-510.1619 410.8361,-500.567 404.4036,-492.2603"/>
<polygon fill="#000000" stroke="#000000" points="407.0273,-489.9399 397.983,-484.4217 401.612,-494.3756 407.0273,-489.9399"/>
<g id="a_edge16&#45;headlabel"><a xlink:href="dir_000000_000009.html" target="_top" xlink:title="121">
<text text-anchor="middle" x="411.5015" y="-488.4216" font-family="Helvetica,sans-Serif" font-size="10.00" fill="#000000">121</text>
</a>
</g>
</g>
<!-- dir_a816a247b59c90f95e41afe29b966a18 -->
<g id="node6" class="node">
<title>dir_a816a247b59c90f95e41afe29b966a18</title>
<g id="a_node6"><a xlink:href="dir_a816a247b59c90f95e41afe29b966a18.html" target="_top" xlink:title="diffusion">
<polygon fill="#ffffff" stroke="#000000" points="332,-196 278,-196 278,-160 332,-160 332,-196"/>
<text text-anchor="middle" x="305" y="-175.5" font-family="Helvetica,sans-Serif" font-size="10.00" fill="#000000">diffusion</text>
</a>
</g>
</g>
<!-- dir_d85575251dd712327fe3cf057fa568b4&#45;&gt;dir_a816a247b59c90f95e41afe29b966a18 -->
<g id="edge14" class="edge">
<title>dir_d85575251dd712327fe3cf057fa568b4&#45;&gt;dir_a816a247b59c90f95e41afe29b966a18</title>
<path fill="none" stroke="#000000" d="M402.9072,-608.2596C343.3963,-603.9262 207.7981,-590.4146 180,-556 148.3081,-516.7648 148.2425,-481.8175 221,-376 236.1086,-354.0263 254.5429,-362.4077 269,-340 295.6382,-298.7122 302.7614,-240.5392 304.5486,-206.3019"/>
<polygon fill="#000000" stroke="#000000" points="308.055,-206.2111 304.9594,-196.0787 301.0606,-205.93 308.055,-206.2111"/>
<g id="a_edge14&#45;headlabel"><a xlink:href="dir_000000_000015.html" target="_top" xlink:title="3">
<text text-anchor="middle" x="310.7478" y="-207.4168" font-family="Helvetica,sans-Serif" font-size="10.00" fill="#000000">3</text>
</a>
</g>
</g>
<!-- dir_4bb30ed846ea1df1fc4d16874a455d91 -->
<g id="node7" class="node">
<title>dir_4bb30ed846ea1df1fc4d16874a455d91</title>
<g id="a_node7"><a xlink:href="dir_4bb30ed846ea1df1fc4d16874a455d91.html" target="_top" xlink:title="equation_systems">
<polygon fill="#ffffff" stroke="#ff0000" points="530,-268 434,-268 434,-232 530,-232 530,-268"/>
<text text-anchor="middle" x="482" y="-247.5" font-family="Helvetica,sans-Serif" font-size="10.00" fill="#000000">equation_systems</text>
</a>
</g>
</g>
<!-- dir_d85575251dd712327fe3cf057fa568b4&#45;&gt;dir_4bb30ed846ea1df1fc4d16874a455d91 -->
<g id="edge15" class="edge">
<title>dir_d85575251dd712327fe3cf057fa568b4&#45;&gt;dir_4bb30ed846ea1df1fc4d16874a455d91</title>
<path fill="none" stroke="#000000" d="M459.1488,-607.8382C515.99,-602.8268 641.2614,-588.2931 667,-556 743.9651,-459.4352 589.633,-328.1887 516.9763,-274.4567"/>
<polygon fill="#000000" stroke="#000000" points="518.6813,-271.3678 508.5416,-268.2958 514.5524,-277.0205 518.6813,-271.3678"/>
<g id="a_edge15&#45;headlabel"><a xlink:href="dir_000000_000002.html" target="_top" xlink:title="10">
<text text-anchor="middle" x="523.2587" y="-268.6953" font-family="Helvetica,sans-Serif" font-size="10.00" fill="#000000">10</text>
</a>
</g>
</g>
<!-- dir_629222d9fcf2f4ceefae477297f2ec84 -->
<g id="node10" class="node">
<title>dir_629222d9fcf2f4ceefae477297f2ec84</title>
<g id="a_node10"><a xlink:href="dir_629222d9fcf2f4ceefae477297f2ec84.html" target="_top" xlink:title="overset">
<polygon fill="#ffffff" stroke="#000000" points="658,-556 604,-556 604,-520 658,-520 658,-556"/>
<text text-anchor="middle" x="631" y="-535.5" font-family="Helvetica,sans-Serif" font-size="10.00" fill="#000000">overset</text>
</a>
</g>
</g>
<!-- dir_d85575251dd712327fe3cf057fa568b4&#45;&gt;dir_629222d9fcf2f4ceefae477297f2ec84 -->
<g id="edge9" class="edge">
<title>dir_d85575251dd712327fe3cf057fa568b4&#45;&gt;dir_629222d9fcf2f4ceefae477297f2ec84</title>
<path fill="none" stroke="#000000" d="M459.0136,-602.1312C490.1564,-593.0921 541.9999,-577.1793 594.2599,-556.0412"/>
<polygon fill="#000000" stroke="#000000" points="595.7512,-559.2125 603.6734,-552.1776 593.0933,-552.7368 595.7512,-559.2125"/>
<g id="a_edge9&#45;headlabel"><a xlink:href="dir_000000_000028.html" target="_top" xlink:title="2">
<text text-anchor="middle" x="593.5039" y="-560.704" font-family="Helvetica,sans-Serif" font-size="10.00" fill="#000000">2</text>
</a>
</g>
</g>
<!-- dir_363965ad9f416a72819c4d9abdf3e48c -->
<g id="node12" class="node">
<title>dir_363965ad9f416a72819c4d9abdf3e48c</title>
<g id="a_node12"><a xlink:href="dir_363965ad9f416a72819c4d9abdf3e48c.html" target="_top" xlink:title="prob">
<polygon fill="#ffffff" stroke="#000000" points="340,-556 286,-556 286,-520 340,-520 340,-556"/>
<text text-anchor="middle" x="313" y="-535.5" font-family="Helvetica,sans-Serif" font-size="10.00" fill="#000000">prob</text>
</a>
</g>
</g>
<!-- dir_d85575251dd712327fe3cf057fa568b4&#45;&gt;dir_363965ad9f416a72819c4d9abdf3e48c -->
<g id="edge10" class="edge">
<title>dir_d85575251dd712327fe3cf057fa568b4&#45;&gt;dir_363965ad9f416a72819c4d9abdf3e48c</title>
<path fill="none" stroke="#000000" d="M402.7361,-592.7542C386.595,-582.9054 366.1958,-570.4585 348.9269,-559.9215"/>
<polygon fill="#000000" stroke="#000000" points="350.5804,-556.8303 340.2209,-554.6094 346.9343,-562.8058 350.5804,-556.8303"/>
<g id="a_edge10&#45;headlabel"><a xlink:href="dir_000000_000018.html" target="_top" xlink:title="1">
<text text-anchor="middle" x="355.1277" y="-553.7789" font-family="Helvetica,sans-Serif" font-size="10.00" fill="#000000">1</text>
</a>
</g>
</g>
<!-- dir_9ff815a534beac751fa88e427dbab695 -->
<g id="node16" class="node">
<title>dir_9ff815a534beac751fa88e427dbab695</title>
<g id="a_node16"><a xlink:href="dir_9ff815a534beac751fa88e427dbab695.html" target="_top" xlink:title="turbulence">
<polygon fill="#ffffff" stroke="#ff0000" points="650,-196 588,-196 588,-160 650,-160 650,-196"/>
<text text-anchor="middle" x="619" y="-175.5" font-family="Helvetica,sans-Serif" font-size="10.00" fill="#000000">turbulence</text>
</a>
</g>
</g>
<!-- dir_d85575251dd712327fe3cf057fa568b4&#45;&gt;dir_9ff815a534beac751fa88e427dbab695 -->
<g id="edge8" class="edge">
<title>dir_d85575251dd712327fe3cf057fa568b4&#45;&gt;dir_9ff815a534beac751fa88e427dbab695</title>
<path fill="none" stroke="#000000" d="M459.2164,-608.027C518.3051,-603.2706 651.9937,-589.0317 681,-556 770.8954,-453.6292 677.2081,-273.0312 636.1935,-204.9673"/>
<polygon fill="#000000" stroke="#000000" points="638.9882,-202.8291 630.7803,-196.1299 633.019,-206.4855 638.9882,-202.8291"/>
<g id="a_edge8&#45;headlabel"><a xlink:href="dir_000000_000022.html" target="_top" xlink:title="5">
<text text-anchor="middle" x="643.2869" y="-201.9114" font-family="Helvetica,sans-Serif" font-size="10.00" fill="#000000">5</text>
</a>
</g>
</g>
<!-- dir_e4cd57caa88bf1f4e1bf9521bc47c3c0 -->
<g id="node17" class="node">
<title>dir_e4cd57caa88bf1f4e1bf9521bc47c3c0</title>
<g id="a_node17"><a xlink:href="dir_e4cd57caa88bf1f4e1bf9521bc47c3c0.html" target="_top" xlink:title="utilities">
<polygon fill="#ffffff" stroke="#ff0000" points="396,-124 342,-124 342,-88 396,-88 396,-124"/>
<text text-anchor="middle" x="369" y="-103.5" font-family="Helvetica,sans-Serif" font-size="10.00" fill="#000000">utilities</text>
</a>
</g>
</g>
<!-- dir_d85575251dd712327fe3cf057fa568b4&#45;&gt;dir_e4cd57caa88bf1f4e1bf9521bc47c3c0 -->
<g id="edge13" class="edge">
<title>dir_d85575251dd712327fe3cf057fa568b4&#45;&gt;dir_e4cd57caa88bf1f4e1bf9521bc47c3c0</title>
<path fill="none" stroke="#000000" d="M402.9426,-608.1493C318.3902,-602.2898 70.4077,-582.9297 47,-556 25.2742,-531.0053 -28.8443,-339.3958 160,-160 184.5173,-136.7093 278.3327,-119.4205 331.5577,-111.246"/>
<polygon fill="#000000" stroke="#000000" points="332.2596,-114.6799 341.6289,-109.7335 331.22,-107.7575 332.2596,-114.6799"/>
<g id="a_edge13&#45;headlabel"><a xlink:href="dir_000000_000005.html" target="_top" xlink:title="56">
<text text-anchor="middle" x="329.1265" y="-115.5214" font-family="Helvetica,sans-Serif" font-size="10.00" fill="#000000">56</text>
</a>
</g>
</g>
<!-- dir_0c368f76a33d967d5b838b5681461de6 -->
<g id="node18" class="node">
<title>dir_0c368f76a33d967d5b838b5681461de6</title>
<g id="a_node18"><a xlink:href="dir_0c368f76a33d967d5b838b5681461de6.html" target="_top" xlink:title="wind_energy">
<polygon fill="#ffffff" stroke="#000000" points="259.5,-340 188.5,-340 188.5,-304 259.5,-304 259.5,-340"/>
<text text-anchor="middle" x="224" y="-319.5" font-family="Helvetica,sans-Serif" font-size="10.00" fill="#000000">wind_energy</text>
</a>
</g>
</g>
<!-- dir_d85575251dd712327fe3cf057fa568b4&#45;&gt;dir_0c368f76a33d967d5b838b5681461de6 -->
<g id="edge12" class="edge">
<title>dir_d85575251dd712327fe3cf057fa568b4&#45;&gt;dir_0c368f76a33d967d5b838b5681461de6</title>
<path fill="none" stroke="#000000" d="M402.5591,-608.6335C340.0642,-604.974 193.9435,-592.6058 164,-556 113.5039,-494.2688 171.1353,-395.1292 204.1173,-348.2201"/>
<polygon fill="#000000" stroke="#000000" points="206.966,-350.2536 209.9573,-340.0898 201.2807,-346.1698 206.966,-350.2536"/>
<g id="a_edge12&#45;headlabel"><a xlink:href="dir_000000_000001.html" target="_top" xlink:title="6">
<text text-anchor="middle" x="207.175" y="-352.3295" font-family="Helvetica,sans-Serif" font-size="10.00" fill="#000000">6</text>
</a>
</g>
</g>
<!-- dir_ebb19deee3cd40f4ac122fef25c04ca8 -->
<g id="node2" class="node">
<title>dir_ebb19deee3cd40f4ac122fef25c04ca8</title>
<g id="a_node2"><a xlink:href="dir_ebb19deee3cd40f4ac122fef25c04ca8.html" target="_top" xlink:title="boundary_conditions">
<polygon fill="#ffffff" stroke="#000000" points="336,-412 230,-412 230,-376 336,-376 336,-412"/>
<text text-anchor="middle" x="283" y="-391.5" font-family="Helvetica,sans-Serif" font-size="10.00" fill="#000000">boundary_conditions</text>
</a>
</g>
</g>
<!-- dir_ebb19deee3cd40f4ac122fef25c04ca8&#45;&gt;dir_3d3615e9a999cab4f3407307569d6ced -->
<g id="edge34" class="edge">
<title>dir_ebb19deee3cd40f4ac122fef25c04ca8&#45;&gt;dir_3d3615e9a999cab4f3407307569d6ced</title>
<path fill="none" stroke="#000000" d="M313.4212,-412.1628C326.232,-421.0301 340.9433,-431.8295 353.3263,-441.4219"/>
<polygon fill="#000000" stroke="#000000" points="351.4514,-444.4001 361.4752,-447.8314 355.779,-438.8981 351.4514,-444.4001"/>
<g id="a_edge34&#45;headlabel"><a xlink:href="dir_000006_000009.html" target="_top" xlink:title="4">
<text text-anchor="middle" x="346.8707" y="-441.9095" font-family="Helvetica,sans-Serif" font-size="10.00" fill="#000000">4</text>
</a>
</g>
</g>
<!-- dir_ebb19deee3cd40f4ac122fef25c04ca8&#45;&gt;dir_0c368f76a33d967d5b838b5681461de6 -->
<g id="edge33" class="edge">
<title>dir_ebb19deee3cd40f4ac122fef25c04ca8&#45;&gt;dir_0c368f76a33d967d5b838b5681461de6</title>
<path fill="none" stroke="#000000" d="M268.1118,-375.8314C261.247,-367.454 252.9699,-357.3531 245.4489,-348.1749"/>
<polygon fill="#000000" stroke="#000000" points="248.1341,-345.9297 239.0886,-340.4133 242.7197,-350.3665 248.1341,-345.9297"/>
<g id="a_edge33&#45;headlabel"><a xlink:href="dir_000006_000001.html" target="_top" xlink:title="1">
<text text-anchor="middle" x="252.6085" y="-344.4104" font-family="Helvetica,sans-Serif" font-size="10.00" fill="#000000">1</text>
</a>
</g>
</g>
<!-- dir_35ffb1505af3943bdf99903da87524fe&#45;&gt;dir_3d3615e9a999cab4f3407307569d6ced -->
<g id="edge25" class="edge">
<title>dir_35ffb1505af3943bdf99903da87524fe&#45;&gt;dir_3d3615e9a999cab4f3407307569d6ced</title>
<path fill="none" stroke="#000000" d="M521.8078,-523.7653C518.8347,-522.4813 515.8644,-521.21 513,-520 480.4911,-506.2675 443.2512,-491.2043 416.4616,-480.4845"/>
<polygon fill="#000000" stroke="#000000" points="417.6776,-477.2013 407.0927,-476.7421 415.0809,-483.7019 417.6776,-477.2013"/>
<g id="a_edge25&#45;headlabel"><a xlink:href="dir_000016_000009.html" target="_top" xlink:title="4">
<text text-anchor="middle" x="422.0689" y="-473.398" font-family="Helvetica,sans-Serif" font-size="10.00" fill="#000000">4</text>
</a>
</g>
</g>
<!-- dir_35ffb1505af3943bdf99903da87524fe&#45;&gt;dir_e4cd57caa88bf1f4e1bf9521bc47c3c0 -->
<g id="edge24" class="edge">
<title>dir_35ffb1505af3943bdf99903da87524fe&#45;&gt;dir_e4cd57caa88bf1f4e1bf9521bc47c3c0</title>
<path fill="none" stroke="#000000" d="M558.192,-519.6925C568.5716,-469.9166 591.0362,-329.3296 539,-232 509.9762,-177.7133 446.1123,-140.51 405.4531,-121.2849"/>
<polygon fill="#000000" stroke="#000000" points="406.6994,-118.0057 396.1516,-117.0082 403.7751,-124.3657 406.6994,-118.0057"/>
<g id="a_edge24&#45;headlabel"><a xlink:href="dir_000016_000005.html" target="_top" xlink:title="4">
<text text-anchor="middle" x="411.1514" y="-114.4276" font-family="Helvetica,sans-Serif" font-size="10.00" fill="#000000">4</text>
</a>
</g>
</g>
<!-- dir_3d3615e9a999cab4f3407307569d6ced&#45;&gt;dir_ebb19deee3cd40f4ac122fef25c04ca8 -->
<g id="edge52" class="edge">
<title>dir_3d3615e9a999cab4f3407307569d6ced&#45;&gt;dir_ebb19deee3cd40f4ac122fef25c04ca8</title>
<path fill="none" stroke="#000000" d="M352.7525,-450.0209C339.2053,-440.7575 322.9942,-428.901 309.5508,-418.4829"/>
<polygon fill="#000000" stroke="#000000" points="311.6103,-415.6498 301.5866,-412.2181 307.2824,-421.1516 311.6103,-415.6498"/>
<g id="a_edge52&#45;headlabel"><a xlink:href="dir_000009_000006.html" target="_top" xlink:title="1">
<text text-anchor="middle" x="316.1909" y="-413.1406" font-family="Helvetica,sans-Serif" font-size="10.00" fill="#000000">1</text>
</a>
</g>
</g>
<!-- dir_3d3615e9a999cab4f3407307569d6ced&#45;&gt;dir_e4cd57caa88bf1f4e1bf9521bc47c3c0 -->
<g id="edge53" class="edge">
<title>dir_3d3615e9a999cab4f3407307569d6ced&#45;&gt;dir_e4cd57caa88bf1f4e1bf9521bc47c3c0</title>
<path fill="none" stroke="#000000" d="M373.145,-447.8216C368.4995,-420.5143 366,-367.2773 366,-322 366,-322 366,-322 366,-250 366,-209.8412 363.6417,-163.4372 364.0999,-134.4031"/>
<polygon fill="#000000" stroke="#000000" points="367.6054,-134.2812 364.4242,-124.1753 360.6089,-134.0593 367.6054,-134.2812"/>
<g id="a_edge53&#45;headlabel"><a xlink:href="dir_000009_000005.html" target="_top" xlink:title="1">
<text text-anchor="middle" x="370.3294" y="-135.464" font-family="Helvetica,sans-Serif" font-size="10.00" fill="#000000">1</text>
</a>
</g>
</g>
<!-- dir_63a0b6c750cdf58b4c6ba486311e48e1 -->
<g id="node5" class="node">
<title>dir_63a0b6c750cdf58b4c6ba486311e48e1</title>
<g id="a_node5"><a xlink:href="dir_63a0b6c750cdf58b4c6ba486311e48e1.html" target="_top" xlink:title="derive">
<polygon fill="#ffffff" stroke="#000000" points="412,-556 358,-556 358,-520 412,-520 412,-556"/>
<text text-anchor="middle" x="385" y="-535.5" font-family="Helvetica,sans-Serif" font-size="10.00" fill="#000000">derive</text>
</a>
</g>
</g>
<!-- dir_63a0b6c750cdf58b4c6ba486311e48e1&#45;&gt;dir_3d3615e9a999cab4f3407307569d6ced -->
<g id="edge35" class="edge">
<title>dir_63a0b6c750cdf58b4c6ba486311e48e1&#45;&gt;dir_3d3615e9a999cab4f3407307569d6ced</title>
<path fill="none" stroke="#000000" d="M383.7383,-519.8314C383.2035,-512.131 382.5677,-502.9743 381.9734,-494.4166"/>
<polygon fill="#000000" stroke="#000000" points="385.4632,-494.1467 381.2787,-484.4133 378.48,-494.6317 385.4632,-494.1467"/>
<g id="a_edge35&#45;headlabel"><a xlink:href="dir_000014_000009.html" target="_top" xlink:title="1">
<text text-anchor="middle" x="388.5445" y="-495.0361" font-family="Helvetica,sans-Serif" font-size="10.00" fill="#000000">1</text>
</a>
</g>
</g>
<!-- dir_a816a247b59c90f95e41afe29b966a18&#45;&gt;dir_3d3615e9a999cab4f3407307569d6ced -->
<g id="edge43" class="edge">
<title>dir_a816a247b59c90f95e41afe29b966a18&#45;&gt;dir_3d3615e9a999cab4f3407307569d6ced</title>
<path fill="none" stroke="#000000" d="M309.6898,-196.0089C322.3938,-244.7922 357.5383,-379.747 372.7862,-438.2991"/>
<polygon fill="#000000" stroke="#000000" points="369.4012,-439.1891 375.3084,-447.9843 376.1753,-437.425 369.4012,-439.1891"/>
<g id="a_edge43&#45;headlabel"><a xlink:href="dir_000015_000009.html" target="_top" xlink:title="1">
<text text-anchor="middle" x="365.7477" y="-433.926" font-family="Helvetica,sans-Serif" font-size="10.00" fill="#000000">1</text>
</a>
</g>
</g>
<!-- dir_4bb30ed846ea1df1fc4d16874a455d91&#45;&gt;dir_ebb19deee3cd40f4ac122fef25c04ca8 -->
<g id="edge47" class="edge">
<title>dir_4bb30ed846ea1df1fc4d16874a455d91&#45;&gt;dir_ebb19deee3cd40f4ac122fef25c04ca8</title>
<path fill="none" stroke="#000000" d="M457.0012,-268.0896C421.5274,-293.7591 356.4889,-340.8221 316.7596,-369.5709"/>
<polygon fill="#000000" stroke="#000000" points="314.2531,-367.0644 308.2035,-375.7623 318.3568,-372.7354 314.2531,-367.0644"/>
<g id="a_edge47&#45;headlabel"><a xlink:href="dir_000002_000006.html" target="_top" xlink:title="1">
<text text-anchor="middle" x="315.5008" y="-360.157" font-family="Helvetica,sans-Serif" font-size="10.00" fill="#000000">1</text>
</a>
</g>
</g>
<!-- dir_4bb30ed846ea1df1fc4d16874a455d91&#45;&gt;dir_35ffb1505af3943bdf99903da87524fe -->
<g id="edge45" class="edge">
<title>dir_4bb30ed846ea1df1fc4d16874a455d91&#45;&gt;dir_35ffb1505af3943bdf99903da87524fe</title>
<path fill="none" stroke="#000000" d="M486.5022,-268.0089C498.6728,-316.6912 532.2971,-451.1886 546.9836,-509.9345"/>
<polygon fill="#000000" stroke="#000000" points="543.6751,-511.1318 549.4961,-519.9843 550.4661,-509.434 543.6751,-511.1318"/>
<g id="a_edge45&#45;headlabel"><a xlink:href="dir_000002_000016.html" target="_top" xlink:title="3">
<text text-anchor="middle" x="540.0489" y="-505.8331" font-family="Helvetica,sans-Serif" font-size="10.00" fill="#000000">3</text>
</a>
</g>
</g>
<!-- dir_4bb30ed846ea1df1fc4d16874a455d91&#45;&gt;dir_3d3615e9a999cab4f3407307569d6ced -->
<g id="edge51" class="edge">
<title>dir_4bb30ed846ea1df1fc4d16874a455d91&#45;&gt;dir_3d3615e9a999cab4f3407307569d6ced</title>
<path fill="none" stroke="#000000" d="M476.8162,-268.2007C467.6769,-298.9411 447.0741,-362.6213 420,-412 414.7835,-421.514 408.0782,-431.242 401.6543,-439.773"/>
<polygon fill="#000000" stroke="#000000" points="398.7511,-437.8052 395.3896,-447.8527 404.2831,-442.0945 398.7511,-437.8052"/>
<g id="a_edge51&#45;headlabel"><a xlink:href="dir_000002_000009.html" target="_top" xlink:title="47">
<text text-anchor="middle" x="398.7099" y="-430.7247" font-family="Helvetica,sans-Serif" font-size="10.00" fill="#000000">47</text>
</a>
</g>
</g>
<!-- dir_4bb30ed846ea1df1fc4d16874a455d91&#45;&gt;dir_a816a247b59c90f95e41afe29b966a18 -->
<g id="edge50" class="edge">
<title>dir_4bb30ed846ea1df1fc4d16874a455d91&#45;&gt;dir_a816a247b59c90f95e41afe29b966a18</title>
<path fill="none" stroke="#000000" d="M437.3354,-231.8314C407.6536,-219.7574 369.1708,-204.1034 341.3621,-192.7913"/>
<polygon fill="#000000" stroke="#000000" points="342.5846,-189.5102 332.0029,-188.9842 339.947,-195.9943 342.5846,-189.5102"/>
<g id="a_edge50&#45;headlabel"><a xlink:href="dir_000002_000015.html" target="_top" xlink:title="1">
<text text-anchor="middle" x="346.9841" y="-185.7346" font-family="Helvetica,sans-Serif" font-size="10.00" fill="#000000">1</text>
</a>
</g>
</g>
<!-- dir_7f7a014517bfe31ea45620a6a947e37b -->
<g id="node8" class="node">
<title>dir_7f7a014517bfe31ea45620a6a947e37b</title>
<g id="a_node8"><a xlink:href="dir_7f7a014517bfe31ea45620a6a947e37b.html" target="_top" xlink:title="fvm">
<polygon fill="#ffffff" stroke="#000000" points="419,-52 365,-52 365,-16 419,-16 419,-52"/>
<text text-anchor="middle" x="392" y="-31.5" font-family="Helvetica,sans-Serif" font-size="10.00" fill="#000000">fvm</text>
</a>
</g>
</g>
<!-- dir_4bb30ed846ea1df1fc4d16874a455d91&#45;&gt;dir_7f7a014517bfe31ea45620a6a947e37b -->
<g id="edge49" class="edge">
<title>dir_4bb30ed846ea1df1fc4d16874a455d91&#45;&gt;dir_7f7a014517bfe31ea45620a6a947e37b</title>
<path fill="none" stroke="#000000" d="M475.7735,-231.7487C465.274,-201.4642 442.9387,-139.1004 420,-88 416.0408,-79.1802 411.3326,-69.7628 406.9174,-61.3031"/>
<polygon fill="#000000" stroke="#000000" points="409.8895,-59.4368 402.1125,-52.2417 403.7051,-62.7162 409.8895,-59.4368"/>
<g id="a_edge49&#45;headlabel"><a xlink:href="dir_000002_000011.html" target="_top" xlink:title="1">
<text text-anchor="middle" x="414.0818" y="-58.7825" font-family="Helvetica,sans-Serif" font-size="10.00" fill="#000000">1</text>
</a>
</g>
</g>
<!-- dir_4bb30ed846ea1df1fc4d16874a455d91&#45;&gt;dir_9ff815a534beac751fa88e427dbab695 -->
<g id="edge44" class="edge">
<title>dir_4bb30ed846ea1df1fc4d16874a455d91&#45;&gt;dir_9ff815a534beac751fa88e427dbab695</title>
<path fill="none" stroke="#000000" d="M510.6185,-231.8314C530.3606,-220.8959 556.7587,-207.0236 578.6133,-196.1004"/>
<polygon fill="#000000" stroke="#000000" points="580.2601,-199.1906 587.6687,-191.6167 577.154,-192.9174 580.2601,-199.1906"/>
<g id="a_edge44&#45;headlabel"><a xlink:href="dir_000002_000022.html" target="_top" xlink:title="2">
<text text-anchor="middle" x="578.2986" y="-200.83" font-family="Helvetica,sans-Serif" font-size="10.00" fill="#000000">2</text>
</a>
</g>
</g>
<!-- dir_4bb30ed846ea1df1fc4d16874a455d91&#45;&gt;dir_e4cd57caa88bf1f4e1bf9521bc47c3c0 -->
<g id="edge48" class="edge">
<title>dir_4bb30ed846ea1df1fc4d16874a455d91&#45;&gt;dir_e4cd57caa88bf1f4e1bf9521bc47c3c0</title>
<path fill="none" stroke="#000000" d="M467.6885,-231.7623C447.9053,-206.5518 412.0893,-160.9103 389.4774,-132.0952"/>
<polygon fill="#000000" stroke="#000000" points="392.1222,-129.7959 383.1953,-124.0896 386.6153,-134.1173 392.1222,-129.7959"/>
<g id="a_edge48&#45;headlabel"><a xlink:href="dir_000002_000005.html" target="_top" xlink:title="10">
<text text-anchor="middle" x="396.5749" y="-128.371" font-family="Helvetica,sans-Serif" font-size="10.00" fill="#000000">10</text>
</a>
</g>
</g>
<!-- dir_4bb30ed846ea1df1fc4d16874a455d91&#45;&gt;dir_0c368f76a33d967d5b838b5681461de6 -->
<g id="edge46" class="edge">
<title>dir_4bb30ed846ea1df1fc4d16874a455d91&#45;&gt;dir_0c368f76a33d967d5b838b5681461de6</title>
<path fill="none" stroke="#000000" d="M433.9081,-264.984C386.7873,-278.6066 315.656,-298.4074 269.4537,-310.729"/>
<polygon fill="#000000" stroke="#000000" points="268.4735,-307.3679 259.7053,-313.3151 270.2685,-314.1339 268.4735,-307.3679"/>
<g id="a_edge46&#45;headlabel"><a xlink:href="dir_000002_000001.html" target="_top" xlink:title="2">
<text text-anchor="middle" x="271.2199" y="-301.2019" font-family="Helvetica,sans-Serif" font-size="10.00" fill="#000000">2</text>
</a>
</g>
</g>
<!-- dir_7f7a014517bfe31ea45620a6a947e37b&#45;&gt;dir_3d3615e9a999cab4f3407307569d6ced -->
<g id="edge42" class="edge">
<title>dir_7f7a014517bfe31ea45620a6a947e37b&#45;&gt;dir_3d3615e9a999cab4f3407307569d6ced</title>
<path fill="none" stroke="#000000" d="M397.0301,-52.3743C399.7211,-62.7639 402.9031,-76.0323 405,-88 411.9458,-127.6423 415,-137.7538 415,-178 415,-322 415,-322 415,-322 415,-363.245 401.2747,-409.303 391.0142,-437.9717"/>
<polygon fill="#000000" stroke="#000000" points="387.6006,-437.1126 387.4226,-447.7059 394.1678,-439.5357 387.6006,-437.1126"/>
<g id="a_edge42&#45;headlabel"><a xlink:href="dir_000011_000009.html" target="_top" xlink:title="1">
<text text-anchor="middle" x="386.181" y="-430.2574" font-family="Helvetica,sans-Serif" font-size="10.00" fill="#000000">1</text>
</a>
</g>
</g>
<!-- dir_2635c1cadbb62984b11c32cfeb0f45eb -->
<g id="node9" class="node">
<title>dir_2635c1cadbb62984b11c32cfeb0f45eb</title>
<g id="a_node9"><a xlink:href="dir_2635c1cadbb62984b11c32cfeb0f45eb.html" target="_top" xlink:title="mms">
<polygon fill="#ffffff" stroke="#000000" points="504,-556 450,-556 450,-520 504,-520 504,-556"/>
<text text-anchor="middle" x="477" y="-535.5" font-family="Helvetica,sans-Serif" font-size="10.00" fill="#000000">mms</text>
</a>
</g>
</g>
<!-- dir_2635c1cadbb62984b11c32cfeb0f45eb&#45;&gt;dir_3d3615e9a999cab4f3407307569d6ced -->
<g id="edge27" class="edge">
<title>dir_2635c1cadbb62984b11c32cfeb0f45eb&#45;&gt;dir_3d3615e9a999cab4f3407307569d6ced</title>
<path fill="none" stroke="#000000" d="M452.5228,-519.8314C440.4605,-510.8779 425.746,-499.9558 412.7314,-490.2955"/>
<polygon fill="#000000" stroke="#000000" points="414.5852,-487.3127 404.4694,-484.1628 410.413,-492.9335 414.5852,-487.3127"/>
<g id="a_edge27&#45;headlabel"><a xlink:href="dir_000025_000009.html" target="_top" xlink:title="3">
<text text-anchor="middle" x="419.1638" y="-484.6752" font-family="Helvetica,sans-Serif" font-size="10.00" fill="#000000">3</text>
</a>
</g>
</g>
<!-- dir_2635c1cadbb62984b11c32cfeb0f45eb&#45;&gt;dir_4bb30ed846ea1df1fc4d16874a455d91 -->
<g id="edge26" class="edge">
<title>dir_2635c1cadbb62984b11c32cfeb0f45eb&#45;&gt;dir_4bb30ed846ea1df1fc4d16874a455d91</title>
<path fill="none" stroke="#000000" d="M477.3128,-519.9843C478.1581,-471.2939 480.4931,-336.7961 481.5129,-278.0573"/>
<polygon fill="#000000" stroke="#000000" points="485.0131,-278.0682 481.6873,-268.0089 478.0142,-277.9466 485.0131,-278.0682"/>
<g id="a_edge26&#45;headlabel"><a xlink:href="dir_000025_000002.html" target="_top" xlink:title="1">
<text text-anchor="middle" x="487.7897" y="-279.2115" font-family="Helvetica,sans-Serif" font-size="10.00" fill="#000000">1</text>
</a>
</g>
</g>
<!-- dir_629222d9fcf2f4ceefae477297f2ec84&#45;&gt;dir_3d3615e9a999cab4f3407307569d6ced -->
<g id="edge23" class="edge">
<title>dir_629222d9fcf2f4ceefae477297f2ec84&#45;&gt;dir_3d3615e9a999cab4f3407307569d6ced</title>
<path fill="none" stroke="#000000" d="M603.7563,-523.6103C600.8385,-522.3011 597.883,-521.0683 595,-520 534.1948,-497.4689 460.2941,-481.2042 416.8764,-472.7174"/>
<polygon fill="#000000" stroke="#000000" points="417.5254,-469.2781 407.0444,-470.827 416.2037,-476.1522 417.5254,-469.2781"/>
<g id="a_edge23&#45;headlabel"><a xlink:href="dir_000028_000009.html" target="_top" xlink:title="3">
<text text-anchor="middle" x="421.5914" y="-464.6685" font-family="Helvetica,sans-Serif" font-size="10.00" fill="#000000">3</text>
</a>
</g>
</g>
<!-- dir_629222d9fcf2f4ceefae477297f2ec84&#45;&gt;dir_4bb30ed846ea1df1fc4d16874a455d91 -->
<g id="edge22" class="edge">
<title>dir_629222d9fcf2f4ceefae477297f2ec84&#45;&gt;dir_4bb30ed846ea1df1fc4d16874a455d91</title>
<path fill="none" stroke="#000000" d="M621.6794,-519.9843C596.3321,-470.9909 526.037,-335.1186 495.9529,-276.9694"/>
<polygon fill="#000000" stroke="#000000" points="499.0208,-275.2823 491.3171,-268.0089 492.8036,-278.4989 499.0208,-275.2823"/>
<g id="a_edge22&#45;headlabel"><a xlink:href="dir_000028_000002.html" target="_top" xlink:title="1">
<text text-anchor="middle" x="503.1943" y="-274.6703" font-family="Helvetica,sans-Serif" font-size="10.00" fill="#000000">1</text>
</a>
</g>
</g>
<!-- dir_629222d9fcf2f4ceefae477297f2ec84&#45;&gt;dir_e4cd57caa88bf1f4e1bf9521bc47c3c0 -->
<g id="edge21" class="edge">
<title>dir_629222d9fcf2f4ceefae477297f2ec84&#45;&gt;dir_e4cd57caa88bf1f4e1bf9521bc47c3c0</title>
<path fill="none" stroke="#000000" d="M628.8443,-519.869C622.5148,-471.1129 601.1783,-333.9893 551,-232 533.3416,-196.1087 528.5196,-184.6275 497,-160 469.8676,-138.8004 433.1902,-124.4519 406.0514,-115.9061"/>
<polygon fill="#000000" stroke="#000000" points="406.7422,-112.4585 396.1571,-112.9128 404.7151,-119.1586 406.7422,-112.4585"/>
<g id="a_edge21&#45;headlabel"><a xlink:href="dir_000028_000005.html" target="_top" xlink:title="1">
<text text-anchor="middle" x="411.0049" y="-108.2817" font-family="Helvetica,sans-Serif" font-size="10.00" fill="#000000">1</text>
</a>
</g>
</g>
<!-- dir_f2c65bfcbdc19ebacbfc0bbbfb0d01b6 -->
<g id="node11" class="node">
<title>dir_f2c65bfcbdc19ebacbfc0bbbfb0d01b6</title>
<g id="a_node11"><a xlink:href="dir_f2c65bfcbdc19ebacbfc0bbbfb0d01b6.html" target="_top" xlink:title="physics">
<polygon fill="#ffffff" stroke="#ff0000" points="110,-556 56,-556 56,-520 110,-520 110,-556"/>
<text text-anchor="middle" x="83" y="-535.5" font-family="Helvetica,sans-Serif" font-size="10.00" fill="#000000">physics</text>
</a>
</g>
</g>
<!-- dir_f2c65bfcbdc19ebacbfc0bbbfb0d01b6&#45;&gt;dir_3d3615e9a999cab4f3407307569d6ced -->
<g id="edge20" class="edge">
<title>dir_f2c65bfcbdc19ebacbfc0bbbfb0d01b6&#45;&gt;dir_3d3615e9a999cab4f3407307569d6ced</title>
<path fill="none" stroke="#000000" d="M110.1441,-531.4196C163.479,-518.4899 282.0195,-489.7528 342.6746,-475.0486"/>
<polygon fill="#000000" stroke="#000000" points="343.7026,-478.4008 352.5965,-472.6433 342.0534,-471.5979 343.7026,-478.4008"/>
<g id="a_edge20&#45;headlabel"><a xlink:href="dir_000007_000009.html" target="_top" xlink:title="22">
<text text-anchor="middle" x="340.8781" y="-479.507" font-family="Helvetica,sans-Serif" font-size="10.00" fill="#000000">22</text>
</a>
</g>
</g>
<!-- dir_f2c65bfcbdc19ebacbfc0bbbfb0d01b6&#45;&gt;dir_7f7a014517bfe31ea45620a6a947e37b -->
<g id="edge19" class="edge">
<title>dir_f2c65bfcbdc19ebacbfc0bbbfb0d01b6&#45;&gt;dir_7f7a014517bfe31ea45620a6a947e37b</title>
<path fill="none" stroke="#000000" d="M77.4861,-519.5519C69.854,-492.3422 57,-439.7276 57,-394 57,-394 57,-394 57,-178 57,-113.7458 267.6438,-60.8484 354.8667,-41.699"/>
<polygon fill="#000000" stroke="#000000" points="355.8368,-45.0701 364.8693,-39.5325 354.355,-38.2287 355.8368,-45.0701"/>
<g id="a_edge19&#45;headlabel"><a xlink:href="dir_000007_000011.html" target="_top" xlink:title="2">
<text text-anchor="middle" x="352.9247" y="-46.1059" font-family="Helvetica,sans-Serif" font-size="10.00" fill="#000000">2</text>
</a>
</g>
</g>
<!-- dir_f2c65bfcbdc19ebacbfc0bbbfb0d01b6&#45;&gt;dir_e4cd57caa88bf1f4e1bf9521bc47c3c0 -->
<g id="edge18" class="edge">
<title>dir_f2c65bfcbdc19ebacbfc0bbbfb0d01b6&#45;&gt;dir_e4cd57caa88bf1f4e1bf9521bc47c3c0</title>
<path fill="none" stroke="#000000" d="M84.9287,-519.6869C86.9199,-501.4718 90.2567,-472.7471 94,-448 115.6156,-305.0991 135.0671,-253.8224 245,-160 270.3393,-138.3741 305.6775,-124.133 332.1492,-115.7334"/>
<polygon fill="#000000" stroke="#000000" points="333.2694,-119.0512 341.8213,-112.797 331.2358,-112.353 333.2694,-119.0512"/>
<g id="a_edge18&#45;headlabel"><a xlink:href="dir_000007_000005.html" target="_top" xlink:title="4">
<text text-anchor="middle" x="330.6546" y="-120.3122" font-family="Helvetica,sans-Serif" font-size="10.00" fill="#000000">4</text>
</a>
</g>
</g>
<!-- dir_f2c65bfcbdc19ebacbfc0bbbfb0d01b6&#45;&gt;dir_0c368f76a33d967d5b838b5681461de6 -->
<g id="edge17" class="edge">
<title>dir_f2c65bfcbdc19ebacbfc0bbbfb0d01b6&#45;&gt;dir_0c368f76a33d967d5b838b5681461de6</title>
<path fill="none" stroke="#000000" d="M86.7477,-519.7784C95.0757,-479.8836 115.0859,-387.4438 124,-376 131.6727,-366.1499 156.2005,-352.8408 179.0423,-341.9004"/>
<polygon fill="#000000" stroke="#000000" points="180.7792,-344.9513 188.339,-337.5285 177.8002,-338.6168 180.7792,-344.9513"/>
<g id="a_edge17&#45;headlabel"><a xlink:href="dir_000007_000001.html" target="_top" xlink:title="1">
<text text-anchor="middle" x="178.7345" y="-346.5503" font-family="Helvetica,sans-Serif" font-size="10.00" fill="#000000">1</text>
</a>
</g>
</g>
<!-- dir_d599e6111b2fbf4fd47cd3a4f2a09da4 -->
<g id="node13" class="node">
<title>dir_d599e6111b2fbf4fd47cd3a4f2a09da4</title>
<g id="a_node13"><a xlink:href="dir_d599e6111b2fbf4fd47cd3a4f2a09da4.html" target="_top" xlink:title="projection">
<polygon fill="#ffffff" stroke="#000000" points="247.5,-556 188.5,-556 188.5,-520 247.5,-520 247.5,-556"/>
<text text-anchor="middle" x="218" y="-535.5" font-family="Helvetica,sans-Serif" font-size="10.00" fill="#000000">projection</text>
</a>
</g>
</g>
<!-- dir_d599e6111b2fbf4fd47cd3a4f2a09da4&#45;&gt;dir_3d3615e9a999cab4f3407307569d6ced -->
<g id="edge7" class="edge">
<title>dir_d599e6111b2fbf4fd47cd3a4f2a09da4&#45;&gt;dir_3d3615e9a999cab4f3407307569d6ced</title>
<path fill="none" stroke="#000000" d="M247.7133,-524.7941C274.7132,-512.7941 314.6285,-495.054 343.5478,-482.201"/>
<polygon fill="#000000" stroke="#000000" points="345.1825,-485.3046 352.8991,-478.0448 342.3395,-478.9079 345.1825,-485.3046"/>
<g id="a_edge7&#45;headlabel"><a xlink:href="dir_000017_000009.html" target="_top" xlink:title="2">
<text text-anchor="middle" x="343.0508" y="-486.859" font-family="Helvetica,sans-Serif" font-size="10.00" fill="#000000">2</text>
</a>
</g>
</g>
<!-- dir_d599e6111b2fbf4fd47cd3a4f2a09da4&#45;&gt;dir_e4cd57caa88bf1f4e1bf9521bc47c3c0 -->
<g id="edge6" class="edge">
<title>dir_d599e6111b2fbf4fd47cd3a4f2a09da4&#45;&gt;dir_e4cd57caa88bf1f4e1bf9521bc47c3c0</title>
<path fill="none" stroke="#000000" d="M207.9668,-519.8486C188.8298,-483.4735 149,-398.5686 149,-322 149,-322 149,-322 149,-250 149,-203.1222 167.2348,-189.0835 204,-160 241.4361,-130.3857 295.699,-116.7461 331.6433,-110.6498"/>
<polygon fill="#000000" stroke="#000000" points="332.3877,-114.0756 341.7184,-109.0568 331.2945,-107.1615 332.3877,-114.0756"/>
<g id="a_edge6&#45;headlabel"><a xlink:href="dir_000017_000005.html" target="_top" xlink:title="1">
<text text-anchor="middle" x="329.2806" y="-114.9414" font-family="Helvetica,sans-Serif" font-size="10.00" fill="#000000">1</text>
</a>
</g>
</g>
<!-- dir_073a3c37bc9e3eb3e412aa8cf4eda4c3 -->
<g id="node14" class="node">
<title>dir_073a3c37bc9e3eb3e412aa8cf4eda4c3</title>
<g id="a_node14"><a xlink:href="dir_073a3c37bc9e3eb3e412aa8cf4eda4c3.html" target="_top" xlink:title="setup">
<polygon fill="#ffffff" stroke="#000000" points="133,-628 79,-628 79,-592 133,-592 133,-628"/>
<text text-anchor="middle" x="106" y="-607.5" font-family="Helvetica,sans-Serif" font-size="10.00" fill="#000000">setup</text>
</a>
</g>
</g>
<!-- dir_073a3c37bc9e3eb3e412aa8cf4eda4c3&#45;&gt;dir_3d3615e9a999cab4f3407307569d6ced -->
<g id="edge41" class="edge">
<title>dir_073a3c37bc9e3eb3e412aa8cf4eda4c3&#45;&gt;dir_3d3615e9a999cab4f3407307569d6ced</title>
<path fill="none" stroke="#000000" d="M133.1664,-606.2298C165.8414,-600.4664 220.803,-586.7099 257,-556 270.957,-544.1588 263.9018,-532.7847 277,-520 295.7946,-501.6553 322.0823,-488.0112 343.396,-479.0271"/>
<polygon fill="#000000" stroke="#000000" points="344.8352,-482.2205 352.794,-475.227 342.2111,-475.731 344.8352,-482.2205"/>
<g id="a_edge41&#45;headlabel"><a xlink:href="dir_000019_000009.html" target="_top" xlink:title="1">
<text text-anchor="middle" x="342.567" y="-483.7002" font-family="Helvetica,sans-Serif" font-size="10.00" fill="#000000">1</text>
</a>
</g>
</g>
<!-- dir_073a3c37bc9e3eb3e412aa8cf4eda4c3&#45;&gt;dir_f2c65bfcbdc19ebacbfc0bbbfb0d01b6 -->
<g id="edge38" class="edge">
<title>dir_073a3c37bc9e3eb3e412aa8cf4eda4c3&#45;&gt;dir_f2c65bfcbdc19ebacbfc0bbbfb0d01b6</title>
<path fill="none" stroke="#000000" d="M100.1961,-591.8314C97.7092,-584.0463 94.7469,-574.7729 91.9875,-566.1347"/>
<polygon fill="#000000" stroke="#000000" points="95.2591,-564.874 88.882,-556.4133 88.591,-567.0041 95.2591,-564.874"/>
<g id="a_edge38&#45;headlabel"><a xlink:href="dir_000019_000007.html" target="_top" xlink:title="1">
<text text-anchor="middle" x="99.0574" y="-564.9342" font-family="Helvetica,sans-Serif" font-size="10.00" fill="#000000">1</text>
</a>
</g>
</g>
<!-- dir_073a3c37bc9e3eb3e412aa8cf4eda4c3&#45;&gt;dir_e4cd57caa88bf1f4e1bf9521bc47c3c0 -->
<g id="edge40" class="edge">
<title>dir_073a3c37bc9e3eb3e412aa8cf4eda4c3&#45;&gt;dir_e4cd57caa88bf1f4e1bf9521bc47c3c0</title>
<path fill="none" stroke="#000000" d="M78.6698,-598.3627C61.1857,-589.4207 39.6675,-575.3135 28,-556 7.1629,-521.5077 17,-506.2977 17,-466 17,-466 17,-466 17,-250 17,-188.8731 66.3327,-187.3493 121,-160 190.3509,-125.3047 281.5492,-112.7923 331.7851,-108.3601"/>
<polygon fill="#000000" stroke="#000000" points="332.1809,-111.8394 341.8606,-107.5319 331.6074,-104.863 332.1809,-111.8394"/>
<g id="a_edge40&#45;headlabel"><a xlink:href="dir_000019_000005.html" target="_top" xlink:title="2">
<text text-anchor="middle" x="328.831" y="-112.4636" font-family="Helvetica,sans-Serif" font-size="10.00" fill="#000000">2</text>
</a>
</g>
</g>
<!-- dir_073a3c37bc9e3eb3e412aa8cf4eda4c3&#45;&gt;dir_0c368f76a33d967d5b838b5681461de6 -->
<g id="edge39" class="edge">
<title>dir_073a3c37bc9e3eb3e412aa8cf4eda4c3&#45;&gt;dir_0c368f76a33d967d5b838b5681461de6</title>
<path fill="none" stroke="#000000" d="M110.4924,-591.5152C113.0152,-581.091 116.2081,-567.8249 119,-556 137.9488,-475.7445 120.5847,-446.1079 164,-376 170.7442,-365.1093 180.3217,-355.1114 189.8492,-346.7571"/>
<polygon fill="#000000" stroke="#000000" points="192.341,-349.2364 197.7774,-340.1426 187.8566,-343.8614 192.341,-349.2364"/>
<g id="a_edge39&#45;headlabel"><a xlink:href="dir_000019_000001.html" target="_top" xlink:title="1">
<text text-anchor="middle" x="191.3998" y="-351.2193" font-family="Helvetica,sans-Serif" font-size="10.00" fill="#000000">1</text>
</a>
</g>
</g>
<!-- dir_7b7e55eaa727ae9c717abfc097345a8f -->
<g id="node15" class="node">
<title>dir_7b7e55eaa727ae9c717abfc097345a8f</title>
<g id="a_node15"><a xlink:href="dir_7b7e55eaa727ae9c717abfc097345a8f.html" target="_top" xlink:title="transport_models">
<polygon fill="#ffffff" stroke="#000000" points="681,-124 589,-124 589,-88 681,-88 681,-124"/>
<text text-anchor="middle" x="635" y="-103.5" font-family="Helvetica,sans-Serif" font-size="10.00" fill="#000000">transport_models</text>
</a>
</g>
</g>
<!-- dir_7b7e55eaa727ae9c717abfc097345a8f&#45;&gt;dir_3d3615e9a999cab4f3407307569d6ced -->
<g id="edge54" class="edge">
<title>dir_7b7e55eaa727ae9c717abfc097345a8f&#45;&gt;dir_3d3615e9a999cab4f3407307569d6ced</title>
<path fill="none" stroke="#000000" d="M646.6596,-124.08C657.0481,-142.6119 669.1601,-172.029 659,-196 608.9827,-314.0076 479.3426,-405.6707 415.9568,-445.0198"/>
<polygon fill="#000000" stroke="#000000" points="413.8025,-442.235 407.103,-450.4427 417.4586,-448.2043 413.8025,-442.235"/>
<g id="a_edge54&#45;headlabel"><a xlink:href="dir_000010_000009.html" target="_top" xlink:title="2">
<text text-anchor="middle" x="415.3848" y="-435.4363" font-family="Helvetica,sans-Serif" font-size="10.00" fill="#000000">2</text>
</a>
</g>
</g>
<!-- dir_9ff815a534beac751fa88e427dbab695&#45;&gt;dir_3d3615e9a999cab4f3407307569d6ced -->
<g id="edge3" class="edge">
<title>dir_9ff815a534beac751fa88e427dbab695&#45;&gt;dir_3d3615e9a999cab4f3407307569d6ced</title>
<path fill="none" stroke="#000000" d="M606.4323,-196.216C593.6106,-214.6028 572.9599,-243.6787 554,-268 502.6047,-333.9285 489.2084,-350.1238 433,-412 424.3054,-421.5713 414.4609,-431.7661 405.6364,-440.6898"/>
<polygon fill="#000000" stroke="#000000" points="403.0873,-438.2894 398.5114,-447.8451 408.0476,-443.2287 403.0873,-438.2894"/>
<g id="a_edge3&#45;headlabel"><a xlink:href="dir_000022_000009.html" target="_top" xlink:title="5">
<text text-anchor="middle" x="403.6118" y="-431.2389" font-family="Helvetica,sans-Serif" font-size="10.00" fill="#000000">5</text>
</a>
</g>
</g>
<!-- dir_9ff815a534beac751fa88e427dbab695&#45;&gt;dir_4bb30ed846ea1df1fc4d16874a455d91 -->
<g id="edge4" class="edge">
<title>dir_9ff815a534beac751fa88e427dbab695&#45;&gt;dir_4bb30ed846ea1df1fc4d16874a455d91</title>
<path fill="none" stroke="#000000" d="M590.392,-196.1628C573.3835,-205.5843 551.432,-217.187 531.7018,-227.2055"/>
<polygon fill="#000000" stroke="#000000" points="529.8781,-224.2052 522.5233,-231.8314 533.0285,-230.4562 529.8781,-224.2052"/>
<g id="a_edge4&#45;headlabel"><a xlink:href="dir_000022_000002.html" target="_top" xlink:title="2">
<text text-anchor="middle" x="531.8102" y="-217.552" font-family="Helvetica,sans-Serif" font-size="10.00" fill="#000000">2</text>
</a>
</g>
</g>
<!-- dir_9ff815a534beac751fa88e427dbab695&#45;&gt;dir_7f7a014517bfe31ea45620a6a947e37b -->
<g id="edge2" class="edge">
<title>dir_9ff815a534beac751fa88e427dbab695&#45;&gt;dir_7f7a014517bfe31ea45620a6a947e37b</title>
<path fill="none" stroke="#000000" d="M591.4351,-159.8723C563.4801,-141.5542 518.911,-112.5307 480,-88 462.8562,-77.192 443.6907,-65.3978 427.6332,-55.5966"/>
<polygon fill="#000000" stroke="#000000" points="429.4255,-52.5901 419.0647,-50.3754 425.783,-58.5678 429.4255,-52.5901"/>
<g id="a_edge2&#45;headlabel"><a xlink:href="dir_000022_000011.html" target="_top" xlink:title="3">
<text text-anchor="middle" x="433.9725" y="-49.5359" font-family="Helvetica,sans-Serif" font-size="10.00" fill="#000000">3</text>
</a>
</g>
</g>
<!-- dir_9ff815a534beac751fa88e427dbab695&#45;&gt;dir_7b7e55eaa727ae9c717abfc097345a8f -->
<g id="edge5" class="edge">
<title>dir_9ff815a534beac751fa88e427dbab695&#45;&gt;dir_7b7e55eaa727ae9c717abfc097345a8f</title>
<path fill="none" stroke="#000000" d="M623.0375,-159.8314C624.7487,-152.131 626.7835,-142.9743 628.6852,-134.4166"/>
<polygon fill="#000000" stroke="#000000" points="632.1554,-134.9344 630.9082,-124.4133 625.3221,-133.4159 632.1554,-134.9344"/>
<g id="a_edge5&#45;headlabel"><a xlink:href="dir_000022_000010.html" target="_top" xlink:title="2">
<text text-anchor="middle" x="634.1474" y="-136.5593" font-family="Helvetica,sans-Serif" font-size="10.00" fill="#000000">2</text>
</a>
</g>
</g>
<!-- dir_9ff815a534beac751fa88e427dbab695&#45;&gt;dir_e4cd57caa88bf1f4e1bf9521bc47c3c0 -->
<g id="edge1" class="edge">
<title>dir_9ff815a534beac751fa88e427dbab695&#45;&gt;dir_e4cd57caa88bf1f4e1bf9521bc47c3c0</title>
<path fill="none" stroke="#000000" d="M587.7105,-164.9133C583.1443,-163.1706 578.4742,-161.4779 574,-160 516.1707,-140.8979 447.4484,-123.9282 406.0779,-114.3155"/>
<polygon fill="#000000" stroke="#000000" points="406.7031,-110.868 396.1726,-112.0333 405.1314,-117.6892 406.7031,-110.868"/>
<g id="a_edge1&#45;headlabel"><a xlink:href="dir_000022_000005.html" target="_top" xlink:title="1">
<text text-anchor="middle" x="410.8434" y="-106.4082" font-family="Helvetica,sans-Serif" font-size="10.00" fill="#000000">1</text>
</a>
</g>
</g>
<!-- dir_e4cd57caa88bf1f4e1bf9521bc47c3c0&#45;&gt;dir_3d3615e9a999cab4f3407307569d6ced -->
<g id="edge37" class="edge">
<title>dir_e4cd57caa88bf1f4e1bf9521bc47c3c0&#45;&gt;dir_3d3615e9a999cab4f3407307569d6ced</title>
<path fill="none" stroke="#000000" d="M376.0622,-124.1753C381.0006,-151.4787 384,-204.7107 384,-250 384,-322 384,-322 384,-322 384,-362.1482 385.9653,-408.5549 385.2138,-437.5924"/>
<polygon fill="#000000" stroke="#000000" points="381.707,-437.6832 384.783,-447.8216 388.7008,-437.9778 381.707,-437.6832"/>
<g id="a_edge37&#45;headlabel"><a xlink:href="dir_000005_000009.html" target="_top" xlink:title="11">
<text text-anchor="middle" x="379.0214" y="-431.4723" font-family="Helvetica,sans-Serif" font-size="10.00" fill="#000000">11</text>
</a>
</g>
</g>
<!-- dir_e4cd57caa88bf1f4e1bf9521bc47c3c0&#45;&gt;dir_7f7a014517bfe31ea45620a6a947e37b -->
<g id="edge36" class="edge">
<title>dir_e4cd57caa88bf1f4e1bf9521bc47c3c0&#45;&gt;dir_7f7a014517bfe31ea45620a6a947e37b</title>
<path fill="none" stroke="#000000" d="M374.8039,-87.8314C377.2908,-80.0463 380.2531,-70.7729 383.0125,-62.1347"/>
<polygon fill="#000000" stroke="#000000" points="386.409,-63.0041 386.118,-52.4133 379.7409,-60.874 386.409,-63.0041"/>
<g id="a_edge36&#45;headlabel"><a xlink:href="dir_000005_000011.html" target="_top" xlink:title="1">
<text text-anchor="middle" x="388.0199" y="-64.7922" font-family="Helvetica,sans-Serif" font-size="10.00" fill="#000000">1</text>
</a>
</g>
</g>
<!-- dir_0c368f76a33d967d5b838b5681461de6&#45;&gt;dir_3d3615e9a999cab4f3407307569d6ced -->
<g id="edge31" class="edge">
<title>dir_0c368f76a33d967d5b838b5681461de6&#45;&gt;dir_3d3615e9a999cab4f3407307569d6ced</title>
<path fill="none" stroke="#000000" d="M217.4372,-340.0829C211.5653,-359.7045 205.9762,-391.031 221,-412 235.3916,-432.0867 300.4454,-449.25 342.7538,-458.5534"/>
<polygon fill="#000000" stroke="#000000" points="342.2022,-462.0147 352.7141,-460.6917 343.6715,-455.1706 342.2022,-462.0147"/>
<g id="a_edge31&#45;headlabel"><a xlink:href="dir_000001_000009.html" target="_top" xlink:title="7">
<text text-anchor="middle" x="338.0917" y="-461.5363" font-family="Helvetica,sans-Serif" font-size="10.00" fill="#000000">7</text>
</a>
</g>
</g>
<!-- dir_0c368f76a33d967d5b838b5681461de6&#45;&gt;dir_a816a247b59c90f95e41afe29b966a18 -->
<g id="edge30" class="edge">
<title>dir_0c368f76a33d967d5b838b5681461de6&#45;&gt;dir_a816a247b59c90f95e41afe29b966a18</title>
<path fill="none" stroke="#000000" d="M234.0759,-303.6865C244.1208,-285.4712 260.0239,-256.7463 274,-232 278.919,-223.2905 284.332,-213.8221 289.2394,-205.2814"/>
<polygon fill="#000000" stroke="#000000" points="292.3631,-206.8706 294.3186,-196.4578 286.2964,-203.3784 292.3631,-206.8706"/>
<g id="a_edge30&#45;headlabel"><a xlink:href="dir_000001_000015.html" target="_top" xlink:title="1">
<text text-anchor="middle" x="293.0305" y="-208.9024" font-family="Helvetica,sans-Serif" font-size="10.00" fill="#000000">1</text>
</a>
</g>
</g>
<!-- dir_0c368f76a33d967d5b838b5681461de6&#45;&gt;dir_4bb30ed846ea1df1fc4d16874a455d91 -->
<g id="edge32" class="edge">
<title>dir_0c368f76a33d967d5b838b5681461de6&#45;&gt;dir_4bb30ed846ea1df1fc4d16874a455d91</title>
<path fill="none" stroke="#000000" d="M259.5207,-310.6708C302.0289,-298.2333 373.5621,-278.226 424.0739,-264.6154"/>
<polygon fill="#000000" stroke="#000000" points="425.1305,-267.9557 433.8812,-261.9826 423.3156,-261.1951 425.1305,-267.9557"/>
<g id="a_edge32&#45;headlabel"><a xlink:href="dir_000001_000002.html" target="_top" xlink:title="3">
<text text-anchor="middle" x="422.3949" y="-269.1298" font-family="Helvetica,sans-Serif" font-size="10.00" fill="#000000">3</text>
</a>
</g>
</g>
<!-- dir_0c368f76a33d967d5b838b5681461de6&#45;&gt;dir_7f7a014517bfe31ea45620a6a947e37b -->
<g id="edge29" class="edge">
<title>dir_0c368f76a33d967d5b838b5681461de6&#45;&gt;dir_7f7a014517bfe31ea45620a6a947e37b</title>
<path fill="none" stroke="#000000" d="M221.591,-303.7742C218.343,-271.8754 215.9407,-205.0403 245,-160 273.6886,-115.5342 322.6853,-78.1071 356.1628,-55.8779"/>
<polygon fill="#000000" stroke="#000000" points="358.273,-58.6804 364.7403,-50.2885 354.4513,-52.8157 358.273,-58.6804"/>
<g id="a_edge29&#45;headlabel"><a xlink:href="dir_000001_000011.html" target="_top" xlink:title="1">
<text text-anchor="middle" x="356.8115" y="-60.5217" font-family="Helvetica,sans-Serif" font-size="10.00" fill="#000000">1</text>
</a>
</g>
</g>
<!-- dir_0c368f76a33d967d5b838b5681461de6&#45;&gt;dir_e4cd57caa88bf1f4e1bf9521bc47c3c0 -->
<g id="edge28" class="edge">
<title>dir_0c368f76a33d967d5b838b5681461de6&#45;&gt;dir_e4cd57caa88bf1f4e1bf9521bc47c3c0</title>
<path fill="none" stroke="#000000" d="M224.5347,-303.8945C226.3798,-271.5926 234.4161,-203.3573 269,-160 285.1109,-139.802 310.9039,-126.1384 332.2589,-117.6089"/>
<polygon fill="#000000" stroke="#000000" points="333.5856,-120.8493 341.7077,-114.0462 331.1159,-114.2994 333.5856,-120.8493"/>
<g id="a_edge28&#45;headlabel"><a xlink:href="dir_000001_000005.html" target="_top" xlink:title="21">
<text text-anchor="middle" x="331.2238" y="-122.2741" font-family="Helvetica,sans-Serif" font-size="10.00" fill="#000000">21</text>
</a>
</g>
</g>
</g>
</svg>
