<?xml version="1.0" encoding="UTF-8" standalone="no"?>
<!DOCTYPE svg PUBLIC "-//W3C//DTD SVG 1.1//EN"
 "http://www.w3.org/Graphics/SVG/1.1/DTD/svg11.dtd">
<!-- Generated by graphviz version 2.40.1 (20161225.0304)
 -->
<!-- Title: icns Pages: 1 -->
<svg width="290pt" height="411pt"
 viewBox="0.00 0.00 289.92 411.00" xmlns="http://www.w3.org/2000/svg" xmlns:xlink="http://www.w3.org/1999/xlink">
<g id="graph0" class="graph" transform="scale(1 1) rotate(0) translate(4 407)">
<title>icns</title>
<polygon fill="#ffffff" stroke="transparent" points="-4,4 -4,-407 285.9186,-407 285.9186,4 -4,4"/>
<g id="clust1" class="cluster">
<title>clusterdir_4bb30ed846ea1df1fc4d16874a455d91</title>
<g id="a_clust1"><a xlink:href="dir_4bb30ed846ea1df1fc4d16874a455d91.html" target="_top" xlink:title="equation_systems">
<polygon fill="#ddddee" stroke="#000000" points="42.9186,-272 42.9186,-359 222.9186,-359 222.9186,-272 42.9186,-272"/>
<text text-anchor="middle" x="132.9186" y="-347" font-family="Helvetica,sans-Serif" font-size="10.00" fill="#000000">equation_systems</text>
</a>
</g>
</g>
<g id="clust2" class="cluster">
<title>clusterdir_4012ff34c1bb5bd303e44a1c9cef6c8a</title>
<g id="a_clust2"><a xlink:href="dir_4012ff34c1bb5bd303e44a1c9cef6c8a.html" target="_top">
<polygon fill="#eeeeff" stroke="#000000" points="50.9186,-280 50.9186,-332 214.9186,-332 214.9186,-280 50.9186,-280"/>
</a>
</g>
</g>
<!-- dir_4012ff34c1bb5bd303e44a1c9cef6c8a -->
<g id="node1" class="node">
<title>dir_4012ff34c1bb5bd303e44a1c9cef6c8a</title>
<text text-anchor="middle" x="85.9186" y="-303.5" font-family="Helvetica,sans-Serif" font-size="10.00" fill="#000000">icns</text>
</g>
<!-- dir_35ffb1505af3943bdf99903da87524fe -->
<g id="node3" class="node">
<title>dir_35ffb1505af3943bdf99903da87524fe</title>
<g id="a_node3"><a xlink:href="dir_35ffb1505af3943bdf99903da87524fe.html" target="_top" xlink:title="convection">
<polygon fill="none" stroke="#000000" points="177.9186,-252 113.9186,-252 113.9186,-216 177.9186,-216 177.9186,-252"/>
<text text-anchor="middle" x="145.9186" y="-231.5" font-family="Helvetica,sans-Serif" font-size="10.00" fill="#000000">convection</text>
</a>
</g>
</g>
<!-- dir_4012ff34c1bb5bd303e44a1c9cef6c8a&#45;&gt;dir_35ffb1505af3943bdf99903da87524fe -->
<g id="edge13" class="edge">
<title>dir_4012ff34c1bb5bd303e44a1c9cef6c8a&#45;&gt;dir_35ffb1505af3943bdf99903da87524fe</title>
<path fill="none" stroke="#000000" d="M101.0592,-287.8314C108.0403,-279.454 116.4577,-269.3531 124.1062,-260.1749"/>
<polygon fill="#000000" stroke="#000000" points="126.8611,-262.3362 130.5742,-252.4133 121.4836,-257.8548 126.8611,-262.3362"/>
<g id="a_edge13&#45;headlabel"><a xlink:href="dir_000003_000015.html" target="_top" xlink:title="1">
<text text-anchor="middle" x="126.7411" y="-264.4152" font-family="Helvetica,sans-Serif" font-size="10.00" fill="#000000">1</text>
</a>
</g>
</g>
<!-- dir_e4cd57caa88bf1f4e1bf9521bc47c3c0 -->
<g id="node5" class="node">
<title>dir_e4cd57caa88bf1f4e1bf9521bc47c3c0</title>
<g id="a_node5"><a xlink:href="dir_e4cd57caa88bf1f4e1bf9521bc47c3c0.html" target="_top" xlink:title="utilities">
<polygon fill="#ffffff" stroke="#ff0000" points="129.9186,-180 75.9186,-180 75.9186,-144 129.9186,-144 129.9186,-180"/>
<text text-anchor="middle" x="102.9186" y="-159.5" font-family="Helvetica,sans-Serif" font-size="10.00" fill="#000000">utilities</text>
</a>
</g>
</g>
<!-- dir_4012ff34c1bb5bd303e44a1c9cef6c8a&#45;&gt;dir_e4cd57caa88bf1f4e1bf9521bc47c3c0 -->
<g id="edge14" class="edge">
<title>dir_4012ff34c1bb5bd303e44a1c9cef6c8a&#45;&gt;dir_e4cd57caa88bf1f4e1bf9521bc47c3c0</title>
<path fill="none" stroke="#000000" d="M88.0717,-287.7623C90.9713,-263.201 96.1602,-219.2474 99.5713,-190.3541"/>
<polygon fill="#000000" stroke="#000000" points="103.0864,-190.431 100.783,-180.0896 96.1347,-189.6103 103.0864,-190.431"/>
<g id="a_edge14&#45;headlabel"><a xlink:href="dir_000003_000005.html" target="_top" xlink:title="8">
<text text-anchor="middle" x="105.4847" y="-191.8337" font-family="Helvetica,sans-Serif" font-size="10.00" fill="#000000">8</text>
</a>
</g>
</g>
<!-- dir_7f7a014517bfe31ea45620a6a947e37b -->
<g id="node6" class="node">
<title>dir_7f7a014517bfe31ea45620a6a947e37b</title>
<g id="a_node6"><a xlink:href="dir_7f7a014517bfe31ea45620a6a947e37b.html" target="_top" xlink:title="fvm">
<polygon fill="none" stroke="#000000" points="78.9186,-108 24.9186,-108 24.9186,-72 78.9186,-72 78.9186,-108"/>
<text text-anchor="middle" x="51.9186" y="-87.5" font-family="Helvetica,sans-Serif" font-size="10.00" fill="#000000">fvm</text>
</a>
</g>
</g>
<!-- dir_4012ff34c1bb5bd303e44a1c9cef6c8a&#45;&gt;dir_7f7a014517bfe31ea45620a6a947e37b -->
<g id="edge15" class="edge">
<title>dir_4012ff34c1bb5bd303e44a1c9cef6c8a&#45;&gt;dir_7f7a014517bfe31ea45620a6a947e37b</title>
<path fill="none" stroke="#000000" d="M83.0783,-287.9555C77.1533,-250.3144 63.4387,-163.1867 56.3456,-118.1246"/>
<polygon fill="#000000" stroke="#000000" points="59.7872,-117.4792 54.7748,-108.1451 52.8724,-118.5677 59.7872,-117.4792"/>
<g id="a_edge15&#45;headlabel"><a xlink:href="dir_000003_000011.html" target="_top" xlink:title="1">
<text text-anchor="middle" x="63.1508" y="-118.0886" font-family="Helvetica,sans-Serif" font-size="10.00" fill="#000000">1</text>
</a>
</g>
</g>
<!-- dir_3d3615e9a999cab4f3407307569d6ced -->
<g id="node7" class="node">
<title>dir_3d3615e9a999cab4f3407307569d6ced</title>
<g id="a_node7"><a xlink:href="dir_3d3615e9a999cab4f3407307569d6ced.html" target="_top" xlink:title="core">
<polygon fill="none" stroke="#000000" points="168.9186,-36 114.9186,-36 114.9186,0 168.9186,0 168.9186,-36"/>
<text text-anchor="middle" x="141.9186" y="-15.5" font-family="Helvetica,sans-Serif" font-size="10.00" fill="#000000">core</text>
</a>
</g>
</g>
<!-- dir_4012ff34c1bb5bd303e44a1c9cef6c8a&#45;&gt;dir_3d3615e9a999cab4f3407307569d6ced -->
<g id="edge16" class="edge">
<title>dir_4012ff34c1bb5bd303e44a1c9cef6c8a&#45;&gt;dir_3d3615e9a999cab4f3407307569d6ced</title>
<path fill="none" stroke="#000000" d="M70.8757,-287.7822C38.5638,-246.3128 -30.8839,-142.9778 15.9186,-72 35.4902,-42.3189 75.1258,-28.89 104.7444,-22.8526"/>
<polygon fill="#000000" stroke="#000000" points="105.5524,-26.2628 114.7539,-21.0109 104.2856,-19.3784 105.5524,-26.2628"/>
<g id="a_edge16&#45;headlabel"><a xlink:href="dir_000003_000009.html" target="_top" xlink:title="16">
<text text-anchor="middle" x="102.5309" y="-27.2056" font-family="Helvetica,sans-Serif" font-size="10.00" fill="#000000">16</text>
</a>
</g>
</g>
<!-- dir_5d2cf0e24161a778738de20190787a10 -->
<g id="node2" class="node">
<title>dir_5d2cf0e24161a778738de20190787a10</title>
<g id="a_node2"><a xlink:href="dir_5d2cf0e24161a778738de20190787a10.html" target="_top" xlink:title="source_terms">
<polygon fill="#ffffff" stroke="#000000" points="206.9186,-324 130.9186,-324 130.9186,-288 206.9186,-288 206.9186,-324"/>
<text text-anchor="middle" x="168.9186" y="-303.5" font-family="Helvetica,sans-Serif" font-size="10.00" fill="#000000">source_terms</text>
</a>
</g>
</g>
<!-- dir_0c368f76a33d967d5b838b5681461de6 -->
<g id="node4" class="node">
<title>dir_0c368f76a33d967d5b838b5681461de6</title>
<g id="a_node4"><a xlink:href="dir_0c368f76a33d967d5b838b5681461de6.html" target="_top" xlink:title="wind_energy">
<polygon fill="none" stroke="#000000" points="121.4186,-403 50.4186,-403 50.4186,-367 121.4186,-367 121.4186,-403"/>
<text text-anchor="middle" x="85.9186" y="-382.5" font-family="Helvetica,sans-Serif" font-size="10.00" fill="#000000">wind_energy</text>
</a>
</g>
</g>
<!-- dir_5d2cf0e24161a778738de20190787a10&#45;&gt;dir_0c368f76a33d967d5b838b5681461de6 -->
<g id="edge1" class="edge">
<title>dir_5d2cf0e24161a778738de20190787a10&#45;&gt;dir_0c368f76a33d967d5b838b5681461de6</title>
<path fill="none" stroke="#000000" d="M146.7641,-324.0839C136.7093,-334.7743 124.7744,-348.274 112.9186,-359 112.3612,-359.5043 111.794,-360.0079 111.2191,-360.5101"/>
<polygon fill="#000000" stroke="#000000" points="108.9577,-357.8385 103.478,-366.9062 113.4164,-363.2348 108.9577,-357.8385"/>
<g id="a_edge1&#45;headlabel"><a xlink:href="dir_000004_000001.html" target="_top" xlink:title="2">
<text text-anchor="middle" x="109.9203" y="-350.8601" font-family="Helvetica,sans-Serif" font-size="10.00" fill="#000000">2</text>
</a>
</g>
</g>
<!-- dir_5d2cf0e24161a778738de20190787a10&#45;&gt;dir_e4cd57caa88bf1f4e1bf9521bc47c3c0 -->
<g id="edge2" class="edge">
<title>dir_5d2cf0e24161a778738de20190787a10&#45;&gt;dir_e4cd57caa88bf1f4e1bf9521bc47c3c0</title>
<path fill="none" stroke="#000000" d="M179.4203,-287.6723C188.7945,-268.6794 199.2883,-238.6571 186.9186,-216 176.8249,-197.5117 157.391,-184.4091 139.7564,-175.7446"/>
<polygon fill="#000000" stroke="#000000" points="140.7651,-172.3573 130.2153,-171.3815 137.854,-178.7233 140.7651,-172.3573"/>
<g id="a_edge2&#45;headlabel"><a xlink:href="dir_000004_000005.html" target="_top" xlink:title="7">
<text text-anchor="middle" x="145.2149" y="-168.77" font-family="Helvetica,sans-Serif" font-size="10.00" fill="#000000">7</text>
</a>
</g>
</g>
<!-- dir_5d2cf0e24161a778738de20190787a10&#45;&gt;dir_3d3615e9a999cab4f3407307569d6ced -->
<g id="edge3" class="edge">
<title>dir_5d2cf0e24161a778738de20190787a10&#45;&gt;dir_3d3615e9a999cab4f3407307569d6ced</title>
<path fill="none" stroke="#000000" d="M184.0326,-287.7768C191.2735,-277.8586 199.171,-264.9858 202.9186,-252 207.3551,-236.6274 205.3006,-231.8217 202.9186,-216 193.4808,-153.3105 168.1244,-83.0895 153.2421,-45.4223"/>
<polygon fill="#000000" stroke="#000000" points="156.4889,-44.115 149.5221,-36.1328 149.9905,-46.7173 156.4889,-44.115"/>
<g id="a_edge3&#45;headlabel"><a xlink:href="dir_000004_000009.html" target="_top" xlink:title="10">
<text text-anchor="middle" x="160.4609" y="-43.8965" font-family="Helvetica,sans-Serif" font-size="10.00" fill="#000000">10</text>
</a>
</g>
</g>
<!-- dir_35ffb1505af3943bdf99903da87524fe&#45;&gt;dir_e4cd57caa88bf1f4e1bf9521bc47c3c0 -->
<g id="edge4" class="edge">
<title>dir_35ffb1505af3943bdf99903da87524fe&#45;&gt;dir_e4cd57caa88bf1f4e1bf9521bc47c3c0</title>
<path fill="none" stroke="#000000" d="M135.0679,-215.8314C130.2164,-207.7079 124.397,-197.9637 119.0507,-189.0118"/>
<polygon fill="#000000" stroke="#000000" points="122.0478,-187.2041 113.9154,-180.4133 116.038,-190.7933 122.0478,-187.2041"/>
<g id="a_edge4&#45;headlabel"><a xlink:href="dir_000015_000005.html" target="_top" xlink:title="4">
<text text-anchor="middle" x="126.3285" y="-186.3344" font-family="Helvetica,sans-Serif" font-size="10.00" fill="#000000">4</text>
</a>
</g>
</g>
<!-- dir_35ffb1505af3943bdf99903da87524fe&#45;&gt;dir_3d3615e9a999cab4f3407307569d6ced -->
<g id="edge5" class="edge">
<title>dir_35ffb1505af3943bdf99903da87524fe&#45;&gt;dir_3d3615e9a999cab4f3407307569d6ced</title>
<path fill="none" stroke="#000000" d="M145.5845,-215.9555C144.8889,-178.3938 143.2807,-91.5541 142.4447,-46.4103"/>
<polygon fill="#000000" stroke="#000000" points="145.9393,-46.0785 142.2546,-36.1451 138.9405,-46.2082 145.9393,-46.0785"/>
<g id="a_edge5&#45;headlabel"><a xlink:href="dir_000015_000009.html" target="_top" xlink:title="4">
<text text-anchor="middle" x="148.8445" y="-47.12" font-family="Helvetica,sans-Serif" font-size="10.00" fill="#000000">4</text>
</a>
</g>
</g>
<!-- dir_0c368f76a33d967d5b838b5681461de6&#45;&gt;dir_4012ff34c1bb5bd303e44a1c9cef6c8a -->
<g id="edge8" class="edge">
<title>dir_0c368f76a33d967d5b838b5681461de6&#45;&gt;dir_4012ff34c1bb5bd303e44a1c9cef6c8a</title>
<path fill="none" stroke="#000000" d="M85.9186,-366.6772C85.9186,-357.1053 85.9186,-345.1777 85.9186,-334.4371"/>
<polygon fill="#000000" stroke="#000000" points="89.4187,-334.2234 85.9186,-324.2234 82.4187,-334.2234 89.4187,-334.2234"/>
<g id="a_edge8&#45;headlabel"><a xlink:href="dir_000001_000003.html" target="_top" xlink:title="2">
<text text-anchor="middle" x="92.2579" y="-335.318" font-family="Helvetica,sans-Serif" font-size="10.00" fill="#000000">2</text>
</a>
</g>
</g>
<!-- dir_0c368f76a33d967d5b838b5681461de6&#45;&gt;dir_5d2cf0e24161a778738de20190787a10 -->
<g id="edge6" class="edge">
<title>dir_0c368f76a33d967d5b838b5681461de6&#45;&gt;dir_5d2cf0e24161a778738de20190787a10</title>
<path fill="none" stroke="#000000" d="M121.3271,-366.9062C124.6952,-364.3593 127.9457,-361.6896 130.9186,-359 139.9031,-350.8717 148.933,-341.1506 156.1298,-332.2662"/>
<polygon fill="#000000" stroke="#000000" points="159.0971,-334.1485 162.407,-324.0839 153.5432,-329.8877 159.0971,-334.1485"/>
<g id="a_edge6&#45;headlabel"><a xlink:href="dir_000001_000004.html" target="_top" xlink:title="2">
<text text-anchor="middle" x="159.1619" y="-336.2287" font-family="Helvetica,sans-Serif" font-size="10.00" fill="#000000">2</text>
</a>
</g>
</g>
<!-- dir_0c368f76a33d967d5b838b5681461de6&#45;&gt;dir_e4cd57caa88bf1f4e1bf9521bc47c3c0 -->
<g id="edge7" class="edge">
<title>dir_0c368f76a33d967d5b838b5681461de6&#45;&gt;dir_e4cd57caa88bf1f4e1bf9521bc47c3c0</title>
<path fill="none" stroke="#000000" d="M52.7578,-366.8352C50.4626,-364.4777 48.4545,-361.8699 46.9186,-359 28.6734,-324.9086 37.8986,-309.5999 46.9186,-272 54.2235,-241.55 71.4346,-210.0223 84.8631,-188.5682"/>
<polygon fill="#000000" stroke="#000000" points="87.8915,-190.3293 90.3466,-180.0228 82.0002,-186.5488 87.8915,-190.3293"/>
<g id="a_edge7&#45;headlabel"><a xlink:href="dir_000001_000005.html" target="_top" xlink:title="21">
<text text-anchor="middle" x="88.3399" y="-192.388" font-family="Helvetica,sans-Serif" font-size="10.00" fill="#000000">21</text>
</a>
</g>
</g>
<!-- dir_0c368f76a33d967d5b838b5681461de6&#45;&gt;dir_7f7a014517bfe31ea45620a6a947e37b -->
<g id="edge9" class="edge">
<title>dir_0c368f76a33d967d5b838b5681461de6&#45;&gt;dir_7f7a014517bfe31ea45620a6a947e37b</title>
<path fill="none" stroke="#000000" d="M50.166,-374.737C42.9367,-370.9698 36.2368,-365.8718 31.9186,-359 -15.9682,-282.795 19.3173,-169.4009 39.8838,-117.605"/>
<polygon fill="#000000" stroke="#000000" points="43.2267,-118.6772 43.7719,-108.0964 36.7474,-116.0278 43.2267,-118.6772"/>
<g id="a_edge9&#45;headlabel"><a xlink:href="dir_000001_000011.html" target="_top" xlink:title="1">
<text text-anchor="middle" x="44.4943" y="-120.579" font-family="Helvetica,sans-Serif" font-size="10.00" fill="#000000">1</text>
</a>
</g>
</g>
<!-- dir_0c368f76a33d967d5b838b5681461de6&#45;&gt;dir_3d3615e9a999cab4f3407307569d6ced -->
<g id="edge10" class="edge">
<title>dir_0c368f76a33d967d5b838b5681461de6&#45;&gt;dir_3d3615e9a999cab4f3407307569d6ced</title>
<path fill="none" stroke="#000000" d="M121.6722,-381.5694C155.7149,-377.6825 203.9178,-370.3683 218.9186,-359 268.5014,-321.4239 281.9186,-296.2127 281.9186,-234 281.9186,-234 281.9186,-234 281.9186,-162 281.9186,-102.5164 219.7467,-58.364 178.2652,-35.5252"/>
<polygon fill="#000000" stroke="#000000" points="179.7147,-32.3315 169.2444,-30.7116 176.4192,-38.5073 179.7147,-32.3315"/>
<g id="a_edge10&#45;headlabel"><a xlink:href="dir_000001_000009.html" target="_top" xlink:title="7">
<text text-anchor="middle" x="184.2226" y="-29.0187" font-family="Helvetica,sans-Serif" font-size="10.00" fill="#000000">7</text>
</a>
</g>
</g>
<!-- dir_e4cd57caa88bf1f4e1bf9521bc47c3c0&#45;&gt;dir_7f7a014517bfe31ea45620a6a947e37b -->
<g id="edge11" class="edge">
<title>dir_e4cd57caa88bf1f4e1bf9521bc47c3c0&#45;&gt;dir_7f7a014517bfe31ea45620a6a947e37b</title>
<path fill="none" stroke="#000000" d="M90.0492,-143.8314C84.2351,-135.6232 77.249,-125.7606 70.854,-116.7323"/>
<polygon fill="#000000" stroke="#000000" points="73.5977,-114.5505 64.9614,-108.4133 67.8855,-118.5966 73.5977,-114.5505"/>
<g id="a_edge11&#45;headlabel"><a xlink:href="dir_000005_000011.html" target="_top" xlink:title="1">
<text text-anchor="middle" x="77.9923" y="-113.3426" font-family="Helvetica,sans-Serif" font-size="10.00" fill="#000000">1</text>
</a>
</g>
</g>
<!-- dir_e4cd57caa88bf1f4e1bf9521bc47c3c0&#45;&gt;dir_3d3615e9a999cab4f3407307569d6ced -->
<g id="edge12" class="edge">
<title>dir_e4cd57caa88bf1f4e1bf9521bc47c3c0&#45;&gt;dir_3d3615e9a999cab4f3407307569d6ced</title>
<path fill="none" stroke="#000000" d="M107.858,-143.7623C114.5393,-119.0928 126.5191,-74.8598 134.3426,-45.9731"/>
<polygon fill="#000000" stroke="#000000" points="137.7834,-46.6569 137.0193,-36.0896 131.0268,-44.8269 137.7834,-46.6569"/>
<g id="a_edge12&#45;headlabel"><a xlink:href="dir_000005_000009.html" target="_top" xlink:title="10">
<text text-anchor="middle" x="139.5843" y="-48.3687" font-family="Helvetica,sans-Serif" font-size="10.00" fill="#000000">10</text>
</a>
</g>
</g>
<!-- dir_7f7a014517bfe31ea45620a6a947e37b&#45;&gt;dir_3d3615e9a999cab4f3407307569d6ced -->
<g id="edge17" class="edge">
<title>dir_7f7a014517bfe31ea45620a6a947e37b&#45;&gt;dir_3d3615e9a999cab4f3407307569d6ced</title>
<path fill="none" stroke="#000000" d="M74.6294,-71.8314C85.7146,-62.9632 99.214,-52.1637 111.2038,-42.5718"/>
<polygon fill="#000000" stroke="#000000" points="113.5928,-45.1429 119.2151,-36.1628 109.2199,-39.6768 113.5928,-45.1429"/>
<g id="a_edge17&#45;headlabel"><a xlink:href="dir_000011_000009.html" target="_top" xlink:title="1">
<text text-anchor="middle" x="112.5596" y="-47.1055" font-family="Helvetica,sans-Serif" font-size="10.00" fill="#000000">1</text>
</a>
</g>
</g>
</g>
</svg>
