<?xml version="1.0" encoding="UTF-8" standalone="no"?>
<!DOCTYPE svg PUBLIC "-//W3C//DTD SVG 1.1//EN"
 "http://www.w3.org/Graphics/SVG/1.1/DTD/svg11.dtd">
<!-- Generated by graphviz version 2.40.1 (20161225.0304)
 -->
<!-- Title: wind_energy Pages: 1 -->
<svg width="261pt" height="367pt"
 viewBox="0.00 0.00 260.85 367.00" xmlns="http://www.w3.org/2000/svg" xmlns:xlink="http://www.w3.org/1999/xlink">
<g id="graph0" class="graph" transform="scale(1 1) rotate(0) translate(4 363)">
<title>wind_energy</title>
<polygon fill="#ffffff" stroke="transparent" points="-4,4 -4,-363 256.8461,-363 256.8461,4 -4,4"/>
<g id="clust1" class="cluster">
<title>clusterdir_d85575251dd712327fe3cf057fa568b4</title>
<g id="a_clust1"><a xlink:href="dir_d85575251dd712327fe3cf057fa568b4.html" target="_top" xlink:title="amr&#45;wind">
<polygon fill="#ddddee" stroke="#000000" points="50.8461,-280 50.8461,-351 138.8461,-351 138.8461,-280 50.8461,-280"/>
<text text-anchor="middle" x="94.8461" y="-339" font-family="Helvetica,sans-Serif" font-size="10.00" fill="#000000">amr&#45;wind</text>
</a>
</g>
</g>
<!-- dir_0c368f76a33d967d5b838b5681461de6 -->
<g id="node1" class="node">
<title>dir_0c368f76a33d967d5b838b5681461de6</title>
<g id="a_node1"><a xlink:href="dir_0c368f76a33d967d5b838b5681461de6.html" target="_top" xlink:title="wind_energy">
<polygon fill="#eeeeff" stroke="#000000" points="130.3461,-324 59.3461,-324 59.3461,-288 130.3461,-288 130.3461,-324"/>
<text text-anchor="middle" x="94.8461" y="-303.5" font-family="Helvetica,sans-Serif" font-size="10.00" fill="#000000">wind_energy</text>
</a>
</g>
</g>
<!-- dir_e4cd57caa88bf1f4e1bf9521bc47c3c0 -->
<g id="node2" class="node">
<title>dir_e4cd57caa88bf1f4e1bf9521bc47c3c0</title>
<g id="a_node2"><a xlink:href="dir_e4cd57caa88bf1f4e1bf9521bc47c3c0.html" target="_top" xlink:title="utilities">
<polygon fill="#ffffff" stroke="#ff0000" points="66.8461,-180 12.8461,-180 12.8461,-144 66.8461,-144 66.8461,-180"/>
<text text-anchor="middle" x="39.8461" y="-159.5" font-family="Helvetica,sans-Serif" font-size="10.00" fill="#000000">utilities</text>
</a>
</g>
</g>
<!-- dir_0c368f76a33d967d5b838b5681461de6&#45;&gt;dir_e4cd57caa88bf1f4e1bf9521bc47c3c0 -->
<g id="edge1" class="edge">
<title>dir_0c368f76a33d967d5b838b5681461de6&#45;&gt;dir_e4cd57caa88bf1f4e1bf9521bc47c3c0</title>
<path fill="none" stroke="#000000" d="M87.8804,-287.7623C78.4167,-262.9846 61.4151,-218.4714 50.3855,-189.5939"/>
<polygon fill="#000000" stroke="#000000" points="53.5931,-188.1826 46.7554,-180.0896 47.0538,-190.6803 53.5931,-188.1826"/>
<g id="a_edge1&#45;headlabel"><a xlink:href="dir_000001_000005.html" target="_top" xlink:title="21">
<text text-anchor="middle" x="57.528" y="-188.0275" font-family="Helvetica,sans-Serif" font-size="10.00" fill="#000000">21</text>
</a>
</g>
</g>
<!-- dir_7f7a014517bfe31ea45620a6a947e37b -->
<g id="node3" class="node">
<title>dir_7f7a014517bfe31ea45620a6a947e37b</title>
<g id="a_node3"><a xlink:href="dir_7f7a014517bfe31ea45620a6a947e37b.html" target="_top" xlink:title="fvm">
<polygon fill="none" stroke="#000000" points="121.8461,-108 67.8461,-108 67.8461,-72 121.8461,-72 121.8461,-108"/>
<text text-anchor="middle" x="94.8461" y="-87.5" font-family="Helvetica,sans-Serif" font-size="10.00" fill="#000000">fvm</text>
</a>
</g>
</g>
<!-- dir_0c368f76a33d967d5b838b5681461de6&#45;&gt;dir_7f7a014517bfe31ea45620a6a947e37b -->
<g id="edge2" class="edge">
<title>dir_0c368f76a33d967d5b838b5681461de6&#45;&gt;dir_7f7a014517bfe31ea45620a6a947e37b</title>
<path fill="none" stroke="#000000" d="M94.8461,-287.9555C94.8461,-250.3938 94.8461,-163.5541 94.8461,-118.4103"/>
<polygon fill="#000000" stroke="#000000" points="98.3462,-118.145 94.8461,-108.1451 91.3462,-118.1451 98.3462,-118.145"/>
<g id="a_edge2&#45;headlabel"><a xlink:href="dir_000001_000011.html" target="_top" xlink:title="1">
<text text-anchor="middle" x="101.1854" y="-119.2397" font-family="Helvetica,sans-Serif" font-size="10.00" fill="#000000">1</text>
</a>
</g>
</g>
<!-- dir_a816a247b59c90f95e41afe29b966a18 -->
<g id="node4" class="node">
<title>dir_a816a247b59c90f95e41afe29b966a18</title>
<g id="a_node4"><a xlink:href="dir_a816a247b59c90f95e41afe29b966a18.html" target="_top" xlink:title="diffusion">
<polygon fill="none" stroke="#000000" points="252.8461,-180 198.8461,-180 198.8461,-144 252.8461,-144 252.8461,-180"/>
<text text-anchor="middle" x="225.8461" y="-159.5" font-family="Helvetica,sans-Serif" font-size="10.00" fill="#000000">diffusion</text>
</a>
</g>
</g>
<!-- dir_0c368f76a33d967d5b838b5681461de6&#45;&gt;dir_a816a247b59c90f95e41afe29b966a18 -->
<g id="edge3" class="edge">
<title>dir_0c368f76a33d967d5b838b5681461de6&#45;&gt;dir_a816a247b59c90f95e41afe29b966a18</title>
<path fill="none" stroke="#000000" d="M130.5435,-302.3788C162.0671,-297.0791 206.2733,-284.042 227.8461,-252 239.9242,-234.0606 238.3608,-209.2193 234.3744,-190.1789"/>
<polygon fill="#000000" stroke="#000000" points="237.7329,-189.1763 231.9816,-180.2784 230.9288,-190.8208 237.7329,-189.1763"/>
<g id="a_edge3&#45;headlabel"><a xlink:href="dir_000001_000014.html" target="_top" xlink:title="1">
<text text-anchor="middle" x="241.3371" y="-189.5034" font-family="Helvetica,sans-Serif" font-size="10.00" fill="#000000">1</text>
</a>
</g>
</g>
<!-- dir_3d3615e9a999cab4f3407307569d6ced -->
<g id="node5" class="node">
<title>dir_3d3615e9a999cab4f3407307569d6ced</title>
<g id="a_node5"><a xlink:href="dir_3d3615e9a999cab4f3407307569d6ced.html" target="_top" xlink:title="core">
<polygon fill="none" stroke="#000000" points="121.8461,-36 67.8461,-36 67.8461,0 121.8461,0 121.8461,-36"/>
<text text-anchor="middle" x="94.8461" y="-15.5" font-family="Helvetica,sans-Serif" font-size="10.00" fill="#000000">core</text>
</a>
</g>
</g>
<!-- dir_0c368f76a33d967d5b838b5681461de6&#45;&gt;dir_3d3615e9a999cab4f3407307569d6ced -->
<g id="edge4" class="edge">
<title>dir_0c368f76a33d967d5b838b5681461de6&#45;&gt;dir_3d3615e9a999cab4f3407307569d6ced</title>
<path fill="none" stroke="#000000" d="M75.7152,-287.6722C53.4577,-264.8886 17.9596,-223.6469 3.8461,-180 -13.0145,-127.8572 32.5751,-73.5795 65.1561,-42.962"/>
<polygon fill="#000000" stroke="#000000" points="67.6802,-45.3967 72.7023,-36.0678 62.9587,-40.2288 67.6802,-45.3967"/>
<g id="a_edge4&#45;headlabel"><a xlink:href="dir_000001_000009.html" target="_top" xlink:title="7">
<text text-anchor="middle" x="66.9414" y="-47.4174" font-family="Helvetica,sans-Serif" font-size="10.00" fill="#000000">7</text>
</a>
</g>
</g>
<!-- dir_4bb30ed846ea1df1fc4d16874a455d91 -->
<g id="node6" class="node">
<title>dir_4bb30ed846ea1df1fc4d16874a455d91</title>
<g id="a_node6"><a xlink:href="dir_4bb30ed846ea1df1fc4d16874a455d91.html" target="_top" xlink:title="equation_systems">
<polygon fill="#ffffff" stroke="#ff0000" points="218.8461,-252 122.8461,-252 122.8461,-216 218.8461,-216 218.8461,-252"/>
<text text-anchor="middle" x="170.8461" y="-231.5" font-family="Helvetica,sans-Serif" font-size="10.00" fill="#000000">equation_systems</text>
</a>
</g>
</g>
<!-- dir_0c368f76a33d967d5b838b5681461de6&#45;&gt;dir_4bb30ed846ea1df1fc4d16874a455d91 -->
<g id="edge5" class="edge">
<title>dir_0c368f76a33d967d5b838b5681461de6&#45;&gt;dir_4bb30ed846ea1df1fc4d16874a455d91</title>
<path fill="none" stroke="#000000" d="M114.0242,-287.8314C123.205,-279.1337 134.3468,-268.5783 144.3237,-259.1265"/>
<polygon fill="#000000" stroke="#000000" points="146.8218,-261.5811 151.6743,-252.1628 142.0076,-256.4995 146.8218,-261.5811"/>
<g id="a_edge5&#45;headlabel"><a xlink:href="dir_000001_000002.html" target="_top" xlink:title="2">
<text text-anchor="middle" x="146.165" y="-263.6145" font-family="Helvetica,sans-Serif" font-size="10.00" fill="#000000">2</text>
</a>
</g>
</g>
<!-- dir_e4cd57caa88bf1f4e1bf9521bc47c3c0&#45;&gt;dir_7f7a014517bfe31ea45620a6a947e37b -->
<g id="edge6" class="edge">
<title>dir_e4cd57caa88bf1f4e1bf9521bc47c3c0&#45;&gt;dir_7f7a014517bfe31ea45620a6a947e37b</title>
<path fill="none" stroke="#000000" d="M53.725,-143.8314C60.0597,-135.5386 67.6845,-125.557 74.6387,-116.4533"/>
<polygon fill="#000000" stroke="#000000" points="77.4914,-118.4847 80.7805,-108.4133 71.9287,-114.2353 77.4914,-118.4847"/>
<g id="a_edge6&#45;headlabel"><a xlink:href="dir_000005_000011.html" target="_top" xlink:title="1">
<text text-anchor="middle" x="77.5656" y="-120.5647" font-family="Helvetica,sans-Serif" font-size="10.00" fill="#000000">1</text>
</a>
</g>
</g>
<!-- dir_e4cd57caa88bf1f4e1bf9521bc47c3c0&#45;&gt;dir_3d3615e9a999cab4f3407307569d6ced -->
<g id="edge7" class="edge">
<title>dir_e4cd57caa88bf1f4e1bf9521bc47c3c0&#45;&gt;dir_3d3615e9a999cab4f3407307569d6ced</title>
<path fill="none" stroke="#000000" d="M41.6366,-143.8083C43.9349,-125.1875 48.8806,-95.7008 58.8461,-72 62.8006,-62.5953 68.4613,-53.0879 74.1267,-44.727"/>
<polygon fill="#000000" stroke="#000000" points="77.042,-46.6664 79.9609,-36.4815 71.3277,-42.6231 77.042,-46.6664"/>
<g id="a_edge7&#45;headlabel"><a xlink:href="dir_000005_000009.html" target="_top" xlink:title="11">
<text text-anchor="middle" x="77.2836" y="-48.7406" font-family="Helvetica,sans-Serif" font-size="10.00" fill="#000000">11</text>
</a>
</g>
</g>
<!-- dir_7f7a014517bfe31ea45620a6a947e37b&#45;&gt;dir_3d3615e9a999cab4f3407307569d6ced -->
<g id="edge8" class="edge">
<title>dir_7f7a014517bfe31ea45620a6a947e37b&#45;&gt;dir_3d3615e9a999cab4f3407307569d6ced</title>
<path fill="none" stroke="#000000" d="M94.8461,-71.8314C94.8461,-64.131 94.8461,-54.9743 94.8461,-46.4166"/>
<polygon fill="#000000" stroke="#000000" points="98.3462,-46.4132 94.8461,-36.4133 91.3462,-46.4133 98.3462,-46.4132"/>
<g id="a_edge8&#45;headlabel"><a xlink:href="dir_000011_000009.html" target="_top" xlink:title="1">
<text text-anchor="middle" x="101.1854" y="-47.5079" font-family="Helvetica,sans-Serif" font-size="10.00" fill="#000000">1</text>
</a>
</g>
</g>
<!-- dir_a816a247b59c90f95e41afe29b966a18&#45;&gt;dir_3d3615e9a999cab4f3407307569d6ced -->
<g id="edge9" class="edge">
<title>dir_a816a247b59c90f95e41afe29b966a18&#45;&gt;dir_3d3615e9a999cab4f3407307569d6ced</title>
<path fill="none" stroke="#000000" d="M221.1403,-143.9787C215.2937,-124.411 203.716,-93.1315 184.8461,-72 170.17,-55.5649 149.2781,-42.6079 131.3169,-33.5101"/>
<polygon fill="#000000" stroke="#000000" points="132.7647,-30.3224 122.2399,-29.1063 129.7092,-36.6203 132.7647,-30.3224"/>
<g id="a_edge9&#45;headlabel"><a xlink:href="dir_000014_000009.html" target="_top" xlink:title="1">
<text text-anchor="middle" x="137.2381" y="-26.8369" font-family="Helvetica,sans-Serif" font-size="10.00" fill="#000000">1</text>
</a>
</g>
</g>
<!-- dir_4bb30ed846ea1df1fc4d16874a455d91&#45;&gt;dir_e4cd57caa88bf1f4e1bf9521bc47c3c0 -->
<g id="edge10" class="edge">
<title>dir_4bb30ed846ea1df1fc4d16874a455d91&#45;&gt;dir_e4cd57caa88bf1f4e1bf9521bc47c3c0</title>
<path fill="none" stroke="#000000" d="M137.7893,-215.8314C118.9445,-205.4739 95.3063,-192.4819 75.9736,-181.8563"/>
<polygon fill="#000000" stroke="#000000" points="77.598,-178.7553 67.1486,-177.0059 74.2263,-184.8898 77.598,-178.7553"/>
<g id="a_edge10&#45;headlabel"><a xlink:href="dir_000002_000005.html" target="_top" xlink:title="10">
<text text-anchor="middle" x="82.1157" y="-175.4985" font-family="Helvetica,sans-Serif" font-size="10.00" fill="#000000">10</text>
</a>
</g>
</g>
<!-- dir_4bb30ed846ea1df1fc4d16874a455d91&#45;&gt;dir_7f7a014517bfe31ea45620a6a947e37b -->
<g id="edge11" class="edge">
<title>dir_4bb30ed846ea1df1fc4d16874a455d91&#45;&gt;dir_7f7a014517bfe31ea45620a6a947e37b</title>
<path fill="none" stroke="#000000" d="M161.2207,-215.7623C148.0865,-190.8764 124.4451,-146.0822 109.2104,-117.2165"/>
<polygon fill="#000000" stroke="#000000" points="112.1564,-115.2998 104.3934,-108.0896 105.9657,-118.5671 112.1564,-115.2998"/>
<g id="a_edge11&#45;headlabel"><a xlink:href="dir_000002_000011.html" target="_top" xlink:title="1">
<text text-anchor="middle" x="116.3452" y="-114.6536" font-family="Helvetica,sans-Serif" font-size="10.00" fill="#000000">1</text>
</a>
</g>
</g>
<!-- dir_4bb30ed846ea1df1fc4d16874a455d91&#45;&gt;dir_a816a247b59c90f95e41afe29b966a18 -->
<g id="edge12" class="edge">
<title>dir_4bb30ed846ea1df1fc4d16874a455d91&#45;&gt;dir_a816a247b59c90f95e41afe29b966a18</title>
<path fill="none" stroke="#000000" d="M184.725,-215.8314C191.0597,-207.5386 198.6845,-197.557 205.6387,-188.4533"/>
<polygon fill="#000000" stroke="#000000" points="208.4914,-190.4847 211.7805,-180.4133 202.9287,-186.2353 208.4914,-190.4847"/>
<g id="a_edge12&#45;headlabel"><a xlink:href="dir_000002_000014.html" target="_top" xlink:title="1">
<text text-anchor="middle" x="208.5656" y="-192.5647" font-family="Helvetica,sans-Serif" font-size="10.00" fill="#000000">1</text>
</a>
</g>
</g>
<!-- dir_4bb30ed846ea1df1fc4d16874a455d91&#45;&gt;dir_3d3615e9a999cab4f3407307569d6ced -->
<g id="edge13" class="edge">
<title>dir_4bb30ed846ea1df1fc4d16874a455d91&#45;&gt;dir_3d3615e9a999cab4f3407307569d6ced</title>
<path fill="none" stroke="#000000" d="M168.4556,-215.8419C163.9648,-185.1642 152.6901,-121.574 130.8461,-72 126.6649,-62.5109 120.8374,-52.8655 115.0876,-44.4026"/>
<polygon fill="#000000" stroke="#000000" points="117.8263,-42.2134 109.1962,-36.0675 112.1101,-46.2538 117.8263,-42.2134"/>
<g id="a_edge13&#45;headlabel"><a xlink:href="dir_000002_000009.html" target="_top" xlink:title="47">
<text text-anchor="middle" x="122.2196" y="-41.0099" font-family="Helvetica,sans-Serif" font-size="10.00" fill="#000000">47</text>
</a>
</g>
</g>
</g>
</svg>
