<?xml version="1.0" encoding="UTF-8" standalone="no"?>
<!DOCTYPE svg PUBLIC "-//W3C//DTD SVG 1.1//EN"
 "http://www.w3.org/Graphics/SVG/1.1/DTD/svg11.dtd">
<!-- Generated by graphviz version 2.40.1 (20161225.0304)
 -->
<!-- Title: equation_systems Pages: 1 -->
<!--zoomable 547 -->
<svg id="main" version="1.1" xmlns="http://www.w3.org/2000/svg" xmlns:xlink="http://www.w3.org/1999/xlink" xml:space="preserve" onload="init(evt)">
<style type="text/css"><![CDATA[
.edge:hover path { stroke: red; }
.edge:hover polygon { stroke: red; fill: red; }
]]></style>
<script type="text/javascript"><![CDATA[
var edges = document.getElementsByTagName('g');
if (edges && edges.length) {
  for (var i=0;i<edges.length;i++) {
    if (edges[i].id.substr(0,4)=='edge') {
      edges[i].setAttribute('class','edge');
    }
  }
}
]]></script>
        <defs>
                <circle id="rim" cx="0" cy="0" r="7"/>
                <circle id="rim2" cx="0" cy="0" r="3.5"/>
                <g id="zoomPlus">
                        <use xlink:href="#rim" fill="#404040">
                                <set attributeName="fill" to="#808080" begin="zoomplus.mouseover" end="zoomplus.mouseout"/>
                        </use>
                        <path d="M-4,0h8M0,-4v8" fill="none" stroke="white" stroke-width="1.5" pointer-events="none"/>
                </g>
                <g id="zoomMin">
                        <use xlink:href="#rim" fill="#404040">
                                <set attributeName="fill" to="#808080" begin="zoomminus.mouseover" end="zoomminus.mouseout"/>
                        </use>
                        <path d="M-4,0h8" fill="none" stroke="white" stroke-width="1.5" pointer-events="none"/>
                </g>
                <g id="dirArrow">
                        <path fill="none" stroke="white" stroke-width="1.5" d="M0,-3.0v7 M-2.5,-0.5L0,-3.0L2.5,-0.5"/>
                </g>
               <g id="resetDef">
                       <use xlink:href="#rim2" fill="#404040">
                               <set attributeName="fill" to="#808080" begin="reset.mouseover" end="reset.mouseout"/>
                       </use>
               </g>
        </defs>

<script type="text/javascript">
var viewWidth = 742;
var viewHeight = 547;
var sectionId = 'dynsection-0';
</script>
<script xlink:href="svgpan.js"/>
<svg id="graph" class="graph">
<g id="viewport">
<title>equation_systems</title>
<polygon fill="#ffffff" stroke="transparent" points="-4,4 -4,-543.0432 738,-543.0432 738,4 -4,4"/>
<g id="clust1" class="cluster">
<title>clusterdir_d85575251dd712327fe3cf057fa568b4</title>
<g id="a_clust1"><a xlink:href="dir_d85575251dd712327fe3cf057fa568b4.html" target="_top" xlink:title="amr&#45;wind">
<polygon fill="#ddddee" stroke="#000000" points="152,-416 152,-503 726,-503 726,-416 152,-416"/>
<text text-anchor="middle" x="439" y="-491" font-family="Helvetica,sans-Serif" font-size="10.00" fill="#000000">amr&#45;wind</text>
</a>
</g>
</g>
<g id="clust2" class="cluster">
<title>clusterdir_4bb30ed846ea1df1fc4d16874a455d91</title>
<g id="a_clust2"><a xlink:href="dir_4bb30ed846ea1df1fc4d16874a455d91.html" target="_top">
<polygon fill="#eeeeff" stroke="#000000" points="160,-424 160,-476 718,-476 718,-424 160,-424"/>
</a>
</g>
</g>
<!-- dir_4bb30ed846ea1df1fc4d16874a455d91 -->
<g id="node1" class="node">
<title>dir_4bb30ed846ea1df1fc4d16874a455d91</title>
<text text-anchor="middle" x="662" y="-447.5" font-family="Helvetica,sans-Serif" font-size="10.00" fill="#000000">equation_systems</text>
</g>
<!-- dir_9ff815a534beac751fa88e427dbab695 -->
<g id="node8" class="node">
<title>dir_9ff815a534beac751fa88e427dbab695</title>
<g id="a_node8"><a xlink:href="dir_9ff815a534beac751fa88e427dbab695.html" target="_top" xlink:title="turbulence">
<polygon fill="#ffffff" stroke="#ff0000" points="62,-468 0,-468 0,-432 62,-432 62,-468"/>
<text text-anchor="middle" x="31" y="-447.5" font-family="Helvetica,sans-Serif" font-size="10.00" fill="#000000">turbulence</text>
</a>
</g>
</g>
<!-- dir_4bb30ed846ea1df1fc4d16874a455d91&#45;&gt;dir_9ff815a534beac751fa88e427dbab695 -->
<g id="edge32" class="edge">
<title>dir_4bb30ed846ea1df1fc4d16874a455d91&#45;&gt;dir_9ff815a534beac751fa88e427dbab695</title>
<path fill="none" stroke="#000000" d="M651.3197,-468.2516C640.05,-485.5106 620.5312,-510.3106 596,-521 569.7199,-532.4515 105.3826,-534.323 80,-521 62.5388,-511.8348 50.0768,-493.3148 42.0907,-477.4877"/>
<polygon fill="#000000" stroke="#000000" points="45.1009,-475.6624 37.692,-468.0888 38.7609,-478.6296 45.1009,-475.6624"/>
<g id="a_edge32&#45;headlabel"><a xlink:href="dir_000002_000022.html" target="_top" xlink:title="2">
<text text-anchor="middle" x="49.1961" y="-475.2146" font-family="Helvetica,sans-Serif" font-size="10.00" fill="#000000">2</text>
</a>
</g>
</g>
<!-- dir_35ffb1505af3943bdf99903da87524fe -->
<g id="node9" class="node">
<title>dir_35ffb1505af3943bdf99903da87524fe</title>
<g id="a_node9"><a xlink:href="dir_35ffb1505af3943bdf99903da87524fe.html" target="_top" xlink:title="convection">
<polygon fill="none" stroke="#000000" points="144,-468 80,-468 80,-432 144,-432 144,-468"/>
<text text-anchor="middle" x="112" y="-447.5" font-family="Helvetica,sans-Serif" font-size="10.00" fill="#000000">convection</text>
</a>
</g>
</g>
<!-- dir_4bb30ed846ea1df1fc4d16874a455d91&#45;&gt;dir_35ffb1505af3943bdf99903da87524fe -->
<g id="edge33" class="edge">
<title>dir_4bb30ed846ea1df1fc4d16874a455d91&#45;&gt;dir_35ffb1505af3943bdf99903da87524fe</title>
<path fill="none" stroke="#000000" d="M651.3197,-468.2516C640.05,-485.5106 620.5312,-510.3106 596,-521 552.098,-540.1302 207.8089,-542.4649 165,-521 146.7239,-511.8362 133.1387,-493.0489 124.2999,-477.1014"/>
<polygon fill="#000000" stroke="#000000" points="127.3586,-475.3968 119.6447,-468.1341 121.1458,-478.622 127.3586,-475.3968"/>
<g id="a_edge33&#45;headlabel"><a xlink:href="dir_000002_000016.html" target="_top" xlink:title="3">
<text text-anchor="middle" x="131.5347" y="-474.7789" font-family="Helvetica,sans-Serif" font-size="10.00" fill="#000000">3</text>
</a>
</g>
</g>
<!-- dir_ebb19deee3cd40f4ac122fef25c04ca8 -->
<g id="node11" class="node">
<title>dir_ebb19deee3cd40f4ac122fef25c04ca8</title>
<g id="a_node11"><a xlink:href="dir_ebb19deee3cd40f4ac122fef25c04ca8.html" target="_top" xlink:title="boundary_conditions">
<polygon fill="none" stroke="#000000" points="507,-180 401,-180 401,-144 507,-144 507,-180"/>
<text text-anchor="middle" x="454" y="-159.5" font-family="Helvetica,sans-Serif" font-size="10.00" fill="#000000">boundary_conditions</text>
</a>
</g>
</g>
<!-- dir_4bb30ed846ea1df1fc4d16874a455d91&#45;&gt;dir_ebb19deee3cd40f4ac122fef25c04ca8 -->
<g id="edge34" class="edge">
<title>dir_4bb30ed846ea1df1fc4d16874a455d91&#45;&gt;dir_ebb19deee3cd40f4ac122fef25c04ca8</title>
<path fill="none" stroke="#000000" d="M642.8483,-431.766C632.6298,-421.6391 620.1135,-408.5767 610,-396 553.0123,-325.1332 496.3725,-233.5224 469.7393,-188.8635"/>
<polygon fill="#000000" stroke="#000000" points="472.6351,-186.8849 464.5222,-180.0708 466.615,-190.4569 472.6351,-186.8849"/>
<g id="a_edge34&#45;headlabel"><a xlink:href="dir_000002_000006.html" target="_top" xlink:title="2">
<text text-anchor="middle" x="476.9111" y="-186.0275" font-family="Helvetica,sans-Serif" font-size="10.00" fill="#000000">2</text>
</a>
</g>
</g>
<!-- dir_e4cd57caa88bf1f4e1bf9521bc47c3c0 -->
<g id="node12" class="node">
<title>dir_e4cd57caa88bf1f4e1bf9521bc47c3c0</title>
<g id="a_node12"><a xlink:href="dir_e4cd57caa88bf1f4e1bf9521bc47c3c0.html" target="_top" xlink:title="utilities">
<polygon fill="#ffffff" stroke="#ff0000" points="216,-396 162,-396 162,-360 216,-360 216,-396"/>
<text text-anchor="middle" x="189" y="-375.5" font-family="Helvetica,sans-Serif" font-size="10.00" fill="#000000">utilities</text>
</a>
</g>
</g>
<!-- dir_4bb30ed846ea1df1fc4d16874a455d91&#45;&gt;dir_e4cd57caa88bf1f4e1bf9521bc47c3c0 -->
<g id="edge35" class="edge">
<title>dir_4bb30ed846ea1df1fc4d16874a455d91&#45;&gt;dir_e4cd57caa88bf1f4e1bf9521bc47c3c0</title>
<path fill="none" stroke="#000000" d="M637.0696,-431.8382C627.4959,-425.7713 616.1767,-419.6353 605,-416 534.9996,-393.2319 314.4389,-382.6783 226.1101,-379.2843"/>
<polygon fill="#000000" stroke="#000000" points="226.1371,-375.7829 216.0129,-378.9055 225.8746,-382.778 226.1371,-375.7829"/>
<g id="a_edge35&#45;headlabel"><a xlink:href="dir_000002_000005.html" target="_top" xlink:title="10">
<text text-anchor="middle" x="229.8355" y="-370.5803" font-family="Helvetica,sans-Serif" font-size="10.00" fill="#000000">10</text>
</a>
</g>
</g>
<!-- dir_a816a247b59c90f95e41afe29b966a18 -->
<g id="node14" class="node">
<title>dir_a816a247b59c90f95e41afe29b966a18</title>
<g id="a_node14"><a xlink:href="dir_a816a247b59c90f95e41afe29b966a18.html" target="_top" xlink:title="diffusion">
<polygon fill="none" stroke="#000000" points="481,-36 427,-36 427,0 481,0 481,-36"/>
<text text-anchor="middle" x="454" y="-15.5" font-family="Helvetica,sans-Serif" font-size="10.00" fill="#000000">diffusion</text>
</a>
</g>
</g>
<!-- dir_4bb30ed846ea1df1fc4d16874a455d91&#45;&gt;dir_a816a247b59c90f95e41afe29b966a18 -->
<g id="edge36" class="edge">
<title>dir_4bb30ed846ea1df1fc4d16874a455d91&#45;&gt;dir_a816a247b59c90f95e41afe29b966a18</title>
<path fill="none" stroke="#000000" d="M662,-431.8146C662,-404.4983 662,-351.25 662,-306 662,-306 662,-306 662,-162 662,-79.7931 550.8103,-40.8183 491.0214,-25.8031"/>
<polygon fill="#000000" stroke="#000000" points="491.7341,-22.3747 481.1924,-23.434 490.0938,-29.1798 491.7341,-22.3747"/>
<g id="a_edge36&#45;headlabel"><a xlink:href="dir_000002_000015.html" target="_top" xlink:title="1">
<text text-anchor="middle" x="495.8939" y="-17.9567" font-family="Helvetica,sans-Serif" font-size="10.00" fill="#000000">1</text>
</a>
</g>
</g>
<!-- dir_70329d5a297148af2b67b1d844b9f654 -->
<g id="node2" class="node">
<title>dir_70329d5a297148af2b67b1d844b9f654</title>
<g id="a_node2"><a xlink:href="dir_70329d5a297148af2b67b1d844b9f654.html" target="_top" xlink:title="density">
<polygon fill="#ffffff" stroke="#000000" points="524,-468 470,-468 470,-432 524,-432 524,-468"/>
<text text-anchor="middle" x="497" y="-447.5" font-family="Helvetica,sans-Serif" font-size="10.00" fill="#000000">density</text>
</a>
</g>
</g>
<!-- dir_3d3615e9a999cab4f3407307569d6ced -->
<g id="node15" class="node">
<title>dir_3d3615e9a999cab4f3407307569d6ced</title>
<g id="a_node15"><a xlink:href="dir_3d3615e9a999cab4f3407307569d6ced.html" target="_top" xlink:title="core">
<polygon fill="#ffffff" stroke="#ff0000" points="322,-252 268,-252 268,-216 322,-216 322,-252"/>
<text text-anchor="middle" x="295" y="-231.5" font-family="Helvetica,sans-Serif" font-size="10.00" fill="#000000">core</text>
</a>
</g>
</g>
<!-- dir_70329d5a297148af2b67b1d844b9f654&#45;&gt;dir_3d3615e9a999cab4f3407307569d6ced -->
<g id="edge5" class="edge">
<title>dir_70329d5a297148af2b67b1d844b9f654&#45;&gt;dir_3d3615e9a999cab4f3407307569d6ced</title>
<path fill="none" stroke="#000000" d="M479.9799,-431.9102C474.2639,-426.404 467.6451,-420.5984 461,-416 444.328,-404.4629 435.7174,-408.8072 420,-396 407.091,-385.4812 346.0365,-303.4672 314.287,-260.3301"/>
<polygon fill="#000000" stroke="#000000" points="317.0934,-258.2384 308.3508,-252.2537 311.4531,-262.3842 317.0934,-258.2384"/>
<g id="a_edge5&#45;headlabel"><a xlink:href="dir_000013_000009.html" target="_top" xlink:title="4">
<text text-anchor="middle" x="321.51" y="-256.9533" font-family="Helvetica,sans-Serif" font-size="10.00" fill="#000000">4</text>
</a>
</g>
</g>
<!-- dir_4012ff34c1bb5bd303e44a1c9cef6c8a -->
<g id="node3" class="node">
<title>dir_4012ff34c1bb5bd303e44a1c9cef6c8a</title>
<g id="a_node3"><a xlink:href="dir_4012ff34c1bb5bd303e44a1c9cef6c8a.html" target="_top" xlink:title="icns">
<polygon fill="#ffffff" stroke="#ff0000" points="596,-468 542,-468 542,-432 596,-432 596,-468"/>
<text text-anchor="middle" x="569" y="-447.5" font-family="Helvetica,sans-Serif" font-size="10.00" fill="#000000">icns</text>
</a>
</g>
</g>
<!-- dir_4012ff34c1bb5bd303e44a1c9cef6c8a&#45;&gt;dir_35ffb1505af3943bdf99903da87524fe -->
<g id="edge21" class="edge">
<title>dir_4012ff34c1bb5bd303e44a1c9cef6c8a&#45;&gt;dir_35ffb1505af3943bdf99903da87524fe</title>
<path fill="none" stroke="#000000" d="M563.2706,-468.0384C556.7658,-485.1355 544.3305,-509.8155 524,-521 489.0507,-540.2268 200.6576,-538.8791 165,-521 146.7239,-511.8362 133.1387,-493.0489 124.2999,-477.1014"/>
<polygon fill="#000000" stroke="#000000" points="127.3586,-475.3968 119.6447,-468.1341 121.1458,-478.622 127.3586,-475.3968"/>
<g id="a_edge21&#45;headlabel"><a xlink:href="dir_000003_000016.html" target="_top" xlink:title="1">
<text text-anchor="middle" x="131.5347" y="-474.7789" font-family="Helvetica,sans-Serif" font-size="10.00" fill="#000000">1</text>
</a>
</g>
</g>
<!-- dir_0c368f76a33d967d5b838b5681461de6 -->
<g id="node10" class="node">
<title>dir_0c368f76a33d967d5b838b5681461de6</title>
<g id="a_node10"><a xlink:href="dir_0c368f76a33d967d5b838b5681461de6.html" target="_top" xlink:title="wind_energy">
<polygon fill="none" stroke="#000000" points="489.5,-108 418.5,-108 418.5,-72 489.5,-72 489.5,-108"/>
<text text-anchor="middle" x="454" y="-87.5" font-family="Helvetica,sans-Serif" font-size="10.00" fill="#000000">wind_energy</text>
</a>
</g>
</g>
<!-- dir_4012ff34c1bb5bd303e44a1c9cef6c8a&#45;&gt;dir_0c368f76a33d967d5b838b5681461de6 -->
<g id="edge22" class="edge">
<title>dir_4012ff34c1bb5bd303e44a1c9cef6c8a&#45;&gt;dir_0c368f76a33d967d5b838b5681461de6</title>
<path fill="none" stroke="#000000" d="M572.5224,-431.8955C577.5018,-404.6824 586,-351.5642 586,-306 586,-306 586,-306 586,-234 586,-189.0781 570.3335,-177.1339 540,-144 528.367,-131.293 513.0843,-120.4188 498.6332,-111.8297"/>
<polygon fill="#000000" stroke="#000000" points="500.2032,-108.6959 489.7828,-106.781 496.7347,-114.7762 500.2032,-108.6959"/>
<g id="a_edge22&#45;headlabel"><a xlink:href="dir_000003_000001.html" target="_top" xlink:title="2">
<text text-anchor="middle" x="504.7323" y="-105.5107" font-family="Helvetica,sans-Serif" font-size="10.00" fill="#000000">2</text>
</a>
</g>
</g>
<!-- dir_4012ff34c1bb5bd303e44a1c9cef6c8a&#45;&gt;dir_ebb19deee3cd40f4ac122fef25c04ca8 -->
<g id="edge23" class="edge">
<title>dir_4012ff34c1bb5bd303e44a1c9cef6c8a&#45;&gt;dir_ebb19deee3cd40f4ac122fef25c04ca8</title>
<path fill="none" stroke="#000000" d="M551.4966,-431.7241C545.8602,-426.33 539.4084,-420.6352 533,-416 517.8536,-405.0446 506.9588,-411.1439 496,-396 450.7666,-333.4924 449.1988,-237.4978 451.6449,-190.2537"/>
<polygon fill="#000000" stroke="#000000" points="455.1463,-190.3369 452.2708,-180.1397 448.1597,-189.9044 455.1463,-190.3369"/>
<g id="a_edge23&#45;headlabel"><a xlink:href="dir_000003_000006.html" target="_top" xlink:title="1">
<text text-anchor="middle" x="457.7582" y="-191.6" font-family="Helvetica,sans-Serif" font-size="10.00" fill="#000000">1</text>
</a>
</g>
</g>
<!-- dir_4012ff34c1bb5bd303e44a1c9cef6c8a&#45;&gt;dir_e4cd57caa88bf1f4e1bf9521bc47c3c0 -->
<g id="edge24" class="edge">
<title>dir_4012ff34c1bb5bd303e44a1c9cef6c8a&#45;&gt;dir_e4cd57caa88bf1f4e1bf9521bc47c3c0</title>
<path fill="none" stroke="#000000" d="M554.2304,-431.8896C548.2895,-425.8284 540.9579,-419.6827 533,-416 505.6116,-403.3253 309.3416,-387.1404 226.1331,-380.7612"/>
<polygon fill="#000000" stroke="#000000" points="226.3359,-377.2666 216.0991,-379.9976 225.8046,-384.2465 226.3359,-377.2666"/>
<g id="a_edge24&#45;headlabel"><a xlink:href="dir_000003_000005.html" target="_top" xlink:title="8">
<text text-anchor="middle" x="230.1356" y="-372.2083" font-family="Helvetica,sans-Serif" font-size="10.00" fill="#000000">8</text>
</a>
</g>
</g>
<!-- dir_7f7a014517bfe31ea45620a6a947e37b -->
<g id="node13" class="node">
<title>dir_7f7a014517bfe31ea45620a6a947e37b</title>
<g id="a_node13"><a xlink:href="dir_7f7a014517bfe31ea45620a6a947e37b.html" target="_top" xlink:title="fvm">
<polygon fill="none" stroke="#000000" points="122,-324 68,-324 68,-288 122,-288 122,-324"/>
<text text-anchor="middle" x="95" y="-303.5" font-family="Helvetica,sans-Serif" font-size="10.00" fill="#000000">fvm</text>
</a>
</g>
</g>
<!-- dir_4012ff34c1bb5bd303e44a1c9cef6c8a&#45;&gt;dir_7f7a014517bfe31ea45620a6a947e37b -->
<g id="edge25" class="edge">
<title>dir_4012ff34c1bb5bd303e44a1c9cef6c8a&#45;&gt;dir_7f7a014517bfe31ea45620a6a947e37b</title>
<path fill="none" stroke="#000000" d="M554.6888,-431.998C548.7008,-425.7918 541.2184,-419.5204 533,-416 455.2698,-382.7039 226.1534,-438.4169 153,-396 129.4001,-382.316 113.7974,-354.7436 104.7786,-333.7036"/>
<polygon fill="#000000" stroke="#000000" points="107.9658,-332.2484 100.9834,-324.2798 101.4725,-334.8634 107.9658,-332.2484"/>
<g id="a_edge25&#45;headlabel"><a xlink:href="dir_000003_000011.html" target="_top" xlink:title="1">
<text text-anchor="middle" x="111.9422" y="-332.0221" font-family="Helvetica,sans-Serif" font-size="10.00" fill="#000000">1</text>
</a>
</g>
</g>
<!-- dir_4012ff34c1bb5bd303e44a1c9cef6c8a&#45;&gt;dir_3d3615e9a999cab4f3407307569d6ced -->
<g id="edge26" class="edge">
<title>dir_4012ff34c1bb5bd303e44a1c9cef6c8a&#45;&gt;dir_3d3615e9a999cab4f3407307569d6ced</title>
<path fill="none" stroke="#000000" d="M553.1962,-431.8221C547.3582,-426.0477 540.358,-420.1034 533,-416 502.8704,-399.1974 487.3676,-414.1016 458,-396 430.6646,-379.151 385.2472,-310.1513 362,-288 351.2079,-277.7166 338.6499,-267.2459 327.3423,-258.296"/>
<polygon fill="#000000" stroke="#000000" points="329.4084,-255.4687 319.3726,-252.0723 325.1,-260.9857 329.4084,-255.4687"/>
<g id="a_edge26&#45;headlabel"><a xlink:href="dir_000003_000009.html" target="_top" xlink:title="16">
<text text-anchor="middle" x="333.9889" y="-252.9433" font-family="Helvetica,sans-Serif" font-size="10.00" fill="#000000">16</text>
</a>
</g>
</g>
<!-- dir_ce0741f9b73f67c263a459724eeecf8b -->
<g id="node4" class="node">
<title>dir_ce0741f9b73f67c263a459724eeecf8b</title>
<g id="a_node4"><a xlink:href="dir_ce0741f9b73f67c263a459724eeecf8b.html" target="_top" xlink:title="levelset">
<polygon fill="#ffffff" stroke="#000000" points="452,-468 398,-468 398,-432 452,-432 452,-468"/>
<text text-anchor="middle" x="425" y="-447.5" font-family="Helvetica,sans-Serif" font-size="10.00" fill="#000000">levelset</text>
</a>
</g>
</g>
<!-- dir_9f8434f21d2c2598f33c85a8b98c6d56 -->
<g id="node5" class="node">
<title>dir_9f8434f21d2c2598f33c85a8b98c6d56</title>
<g id="a_node5"><a xlink:href="dir_9f8434f21d2c2598f33c85a8b98c6d56.html" target="_top" xlink:title="sdr">
<polygon fill="#ffffff" stroke="#000000" points="222,-468 168,-468 168,-432 222,-432 222,-468"/>
<text text-anchor="middle" x="195" y="-447.5" font-family="Helvetica,sans-Serif" font-size="10.00" fill="#000000">sdr</text>
</a>
</g>
</g>
<!-- dir_9f8434f21d2c2598f33c85a8b98c6d56&#45;&gt;dir_3d3615e9a999cab4f3407307569d6ced -->
<g id="edge27" class="edge">
<title>dir_9f8434f21d2c2598f33c85a8b98c6d56&#45;&gt;dir_3d3615e9a999cab4f3407307569d6ced</title>
<path fill="none" stroke="#000000" d="M213.2979,-431.9185C218.8579,-426.6448 225.0683,-420.9678 231,-416 242.4488,-406.4116 249.8298,-408.5004 258,-396 284.9175,-354.816 292.3916,-296.6085 294.3821,-262.3366"/>
<polygon fill="#000000" stroke="#000000" points="297.8896,-262.2527 294.8534,-252.1023 290.897,-261.9307 297.8896,-262.2527"/>
<g id="a_edge27&#45;headlabel"><a xlink:href="dir_000030_000009.html" target="_top" xlink:title="4">
<text text-anchor="middle" x="300.5606" y="-263.4741" font-family="Helvetica,sans-Serif" font-size="10.00" fill="#000000">4</text>
</a>
</g>
</g>
<!-- dir_c96908905c9887b0bdc2167e5354d30c -->
<g id="node6" class="node">
<title>dir_c96908905c9887b0bdc2167e5354d30c</title>
<g id="a_node6"><a xlink:href="dir_c96908905c9887b0bdc2167e5354d30c.html" target="_top" xlink:title="temperature">
<polygon fill="#ffffff" stroke="#000000" points="308,-468 240,-468 240,-432 308,-432 308,-468"/>
<text text-anchor="middle" x="274" y="-447.5" font-family="Helvetica,sans-Serif" font-size="10.00" fill="#000000">temperature</text>
</a>
</g>
</g>
<!-- dir_c96908905c9887b0bdc2167e5354d30c&#45;&gt;dir_3d3615e9a999cab4f3407307569d6ced -->
<g id="edge8" class="edge">
<title>dir_c96908905c9887b0bdc2167e5354d30c&#45;&gt;dir_3d3615e9a999cab4f3407307569d6ced</title>
<path fill="none" stroke="#000000" d="M283.5908,-431.5602C288.3499,-421.373 293.5869,-408.3186 296,-396 305.0351,-349.8762 301.8484,-294.9391 298.546,-262.3487"/>
<polygon fill="#000000" stroke="#000000" points="302.0026,-261.7596 297.4391,-252.198 295.0438,-262.5185 302.0026,-261.7596"/>
<g id="a_edge8&#45;headlabel"><a xlink:href="dir_000031_000009.html" target="_top" xlink:title="4">
<text text-anchor="middle" x="305.2147" y="-262.5253" font-family="Helvetica,sans-Serif" font-size="10.00" fill="#000000">4</text>
</a>
</g>
</g>
<!-- dir_be932497d8c26b6aa8596ee64638838f -->
<g id="node7" class="node">
<title>dir_be932497d8c26b6aa8596ee64638838f</title>
<g id="a_node7"><a xlink:href="dir_be932497d8c26b6aa8596ee64638838f.html" target="_top" xlink:title="tke">
<polygon fill="#ffffff" stroke="#ff0000" points="380,-468 326,-468 326,-432 380,-432 380,-468"/>
<text text-anchor="middle" x="353" y="-447.5" font-family="Helvetica,sans-Serif" font-size="10.00" fill="#000000">tke</text>
</a>
</g>
</g>
<!-- dir_be932497d8c26b6aa8596ee64638838f&#45;&gt;dir_9ff815a534beac751fa88e427dbab695 -->
<g id="edge6" class="edge">
<title>dir_be932497d8c26b6aa8596ee64638838f&#45;&gt;dir_9ff815a534beac751fa88e427dbab695</title>
<path fill="none" stroke="#000000" d="M347.2706,-468.0384C340.7658,-485.1355 328.3305,-509.8155 308,-521 263.6076,-545.4218 124.8622,-544.5476 80,-521 62.5388,-511.8348 50.0768,-493.3148 42.0907,-477.4877"/>
<polygon fill="#000000" stroke="#000000" points="45.1009,-475.6624 37.692,-468.0888 38.7609,-478.6296 45.1009,-475.6624"/>
<g id="a_edge6&#45;headlabel"><a xlink:href="dir_000020_000022.html" target="_top" xlink:title="1">
<text text-anchor="middle" x="49.1961" y="-475.2146" font-family="Helvetica,sans-Serif" font-size="10.00" fill="#000000">1</text>
</a>
</g>
</g>
<!-- dir_be932497d8c26b6aa8596ee64638838f&#45;&gt;dir_3d3615e9a999cab4f3407307569d6ced -->
<g id="edge7" class="edge">
<title>dir_be932497d8c26b6aa8596ee64638838f&#45;&gt;dir_3d3615e9a999cab4f3407307569d6ced</title>
<path fill="none" stroke="#000000" d="M349.5061,-431.827C343.5345,-401.655 330.4964,-339.4493 315,-288 312.3889,-279.3308 309.1223,-270.0374 305.9907,-261.6463"/>
<polygon fill="#000000" stroke="#000000" points="309.2599,-260.3962 302.4239,-252.3018 302.7201,-262.8925 309.2599,-260.3962"/>
<g id="a_edge7&#45;headlabel"><a xlink:href="dir_000020_000009.html" target="_top" xlink:title="5">
<text text-anchor="middle" x="313.1943" y="-260.242" font-family="Helvetica,sans-Serif" font-size="10.00" fill="#000000">5</text>
</a>
</g>
</g>
<!-- dir_9ff815a534beac751fa88e427dbab695&#45;&gt;dir_be932497d8c26b6aa8596ee64638838f -->
<g id="edge1" class="edge">
<title>dir_9ff815a534beac751fa88e427dbab695&#45;&gt;dir_be932497d8c26b6aa8596ee64638838f</title>
<path fill="none" stroke="#000000" d="M37.692,-468.0888C45.1192,-485.2242 58.9148,-509.9326 80,-521 124.8622,-544.5476 263.6076,-545.4218 308,-521 324.8362,-511.7378 336.2579,-493.2206 343.381,-477.4191"/>
<polygon fill="#000000" stroke="#000000" points="346.6734,-478.6164 347.2706,-468.0384 340.2072,-475.9352 346.6734,-478.6164"/>
<g id="a_edge1&#45;headlabel"><a xlink:href="dir_000022_000020.html" target="_top" xlink:title="1">
<text text-anchor="middle" x="347.9194" y="-480.5243" font-family="Helvetica,sans-Serif" font-size="10.00" fill="#000000">1</text>
</a>
</g>
</g>
<!-- dir_9ff815a534beac751fa88e427dbab695&#45;&gt;dir_e4cd57caa88bf1f4e1bf9521bc47c3c0 -->
<g id="edge2" class="edge">
<title>dir_9ff815a534beac751fa88e427dbab695&#45;&gt;dir_e4cd57caa88bf1f4e1bf9521bc47c3c0</title>
<path fill="none" stroke="#000000" d="M49.3852,-431.7456C55.8192,-426.1015 63.3554,-420.2562 71,-416 96.3386,-401.8924 127.6957,-392.108 151.7151,-386.0043"/>
<polygon fill="#000000" stroke="#000000" points="152.6355,-389.3825 161.521,-383.6119 150.9763,-382.582 152.6355,-389.3825"/>
<g id="a_edge2&#45;headlabel"><a xlink:href="dir_000022_000005.html" target="_top" xlink:title="1">
<text text-anchor="middle" x="149.8163" y="-390.4928" font-family="Helvetica,sans-Serif" font-size="10.00" fill="#000000">1</text>
</a>
</g>
</g>
<!-- dir_9ff815a534beac751fa88e427dbab695&#45;&gt;dir_7f7a014517bfe31ea45620a6a947e37b -->
<g id="edge3" class="edge">
<title>dir_9ff815a534beac751fa88e427dbab695&#45;&gt;dir_7f7a014517bfe31ea45620a6a947e37b</title>
<path fill="none" stroke="#000000" d="M39.1056,-431.7623C50.1179,-406.9846 69.9016,-362.4714 82.7361,-333.5939"/>
<polygon fill="#000000" stroke="#000000" points="86.0971,-334.6492 86.9602,-324.0896 79.7004,-331.8062 86.0971,-334.6492"/>
<g id="a_edge3&#45;headlabel"><a xlink:href="dir_000022_000011.html" target="_top" xlink:title="3">
<text text-anchor="middle" x="87.2318" y="-336.5872" font-family="Helvetica,sans-Serif" font-size="10.00" fill="#000000">3</text>
</a>
</g>
</g>
<!-- dir_9ff815a534beac751fa88e427dbab695&#45;&gt;dir_3d3615e9a999cab4f3407307569d6ced -->
<g id="edge4" class="edge">
<title>dir_9ff815a534beac751fa88e427dbab695&#45;&gt;dir_3d3615e9a999cab4f3407307569d6ced</title>
<path fill="none" stroke="#000000" d="M28.2769,-431.8863C24.3873,-398.6432 21.4044,-327.6744 59,-288 85.8639,-259.6508 198.0953,-244.0037 257.5929,-237.5566"/>
<polygon fill="#000000" stroke="#000000" points="258.13,-241.0195 267.7097,-236.4941 257.3988,-234.0578 258.13,-241.0195"/>
<g id="a_edge4&#45;headlabel"><a xlink:href="dir_000022_000009.html" target="_top" xlink:title="5">
<text text-anchor="middle" x="254.8516" y="-241.7187" font-family="Helvetica,sans-Serif" font-size="10.00" fill="#000000">5</text>
</a>
</g>
</g>
<!-- dir_35ffb1505af3943bdf99903da87524fe&#45;&gt;dir_e4cd57caa88bf1f4e1bf9521bc47c3c0 -->
<g id="edge9" class="edge">
<title>dir_35ffb1505af3943bdf99903da87524fe&#45;&gt;dir_e4cd57caa88bf1f4e1bf9521bc47c3c0</title>
<path fill="none" stroke="#000000" d="M131.4304,-431.8314C140.732,-423.1337 152.0204,-412.5783 162.1286,-403.1265"/>
<polygon fill="#000000" stroke="#000000" points="164.6621,-405.5493 169.5759,-396.1628 159.8811,-400.4363 164.6621,-405.5493"/>
<g id="a_edge9&#45;headlabel"><a xlink:href="dir_000016_000005.html" target="_top" xlink:title="4">
<text text-anchor="middle" x="163.9757" y="-407.5782" font-family="Helvetica,sans-Serif" font-size="10.00" fill="#000000">4</text>
</a>
</g>
</g>
<!-- dir_35ffb1505af3943bdf99903da87524fe&#45;&gt;dir_3d3615e9a999cab4f3407307569d6ced -->
<g id="edge10" class="edge">
<title>dir_35ffb1505af3943bdf99903da87524fe&#45;&gt;dir_3d3615e9a999cab4f3407307569d6ced</title>
<path fill="none" stroke="#000000" d="M132.3953,-431.6764C139.4841,-426.0278 147.7373,-420.1972 156,-416 184.4667,-401.5396 201.0489,-417.114 225,-396 245.9755,-377.5091 272.6265,-303.028 286.1959,-261.8006"/>
<polygon fill="#000000" stroke="#000000" points="289.5896,-262.6821 289.3525,-252.0899 282.9325,-260.5181 289.5896,-262.6821"/>
<g id="a_edge10&#45;headlabel"><a xlink:href="dir_000016_000009.html" target="_top" xlink:title="4">
<text text-anchor="middle" x="291.1786" y="-264.4783" font-family="Helvetica,sans-Serif" font-size="10.00" fill="#000000">4</text>
</a>
</g>
</g>
<!-- dir_0c368f76a33d967d5b838b5681461de6&#45;&gt;dir_4bb30ed846ea1df1fc4d16874a455d91 -->
<g id="edge16" class="edge">
<title>dir_0c368f76a33d967d5b838b5681461de6&#45;&gt;dir_4bb30ed846ea1df1fc4d16874a455d91</title>
<path fill="none" stroke="#000000" d="M489.6376,-101.9696C539.487,-121.2322 624,-164.1843 624,-234 624,-306 624,-306 624,-306 624,-347.6319 639.0328,-393.86 650.1881,-422.433"/>
<polygon fill="#000000" stroke="#000000" points="646.9632,-423.7945 653.9412,-431.7668 653.4578,-421.183 646.9632,-423.7945"/>
<g id="a_edge16&#45;headlabel"><a xlink:href="dir_000001_000002.html" target="_top" xlink:title="3">
<text text-anchor="middle" x="642.9879" y="-419.0186" font-family="Helvetica,sans-Serif" font-size="10.00" fill="#000000">3</text>
</a>
</g>
</g>
<!-- dir_0c368f76a33d967d5b838b5681461de6&#45;&gt;dir_4012ff34c1bb5bd303e44a1c9cef6c8a -->
<g id="edge12" class="edge">
<title>dir_0c368f76a33d967d5b838b5681461de6&#45;&gt;dir_4012ff34c1bb5bd303e44a1c9cef6c8a</title>
<path fill="none" stroke="#000000" d="M480.3595,-108.0216C492.6047,-117.5182 506.5182,-130.0788 516,-144 539.8985,-179.0875 548,-191.5468 548,-234 548,-306 548,-306 548,-306 548,-346.7271 556.327,-393.2616 562.4939,-422.1405"/>
<polygon fill="#000000" stroke="#000000" points="559.0823,-422.9232 564.6488,-431.9379 565.9189,-421.4194 559.0823,-422.9232"/>
<g id="a_edge12&#45;headlabel"><a xlink:href="dir_000001_000003.html" target="_top" xlink:title="3">
<text text-anchor="middle" x="555.5372" y="-417.5224" font-family="Helvetica,sans-Serif" font-size="10.00" fill="#000000">3</text>
</a>
</g>
</g>
<!-- dir_0c368f76a33d967d5b838b5681461de6&#45;&gt;dir_e4cd57caa88bf1f4e1bf9521bc47c3c0 -->
<g id="edge11" class="edge">
<title>dir_0c368f76a33d967d5b838b5681461de6&#45;&gt;dir_e4cd57caa88bf1f4e1bf9521bc47c3c0</title>
<path fill="none" stroke="#000000" d="M418.3991,-106.3928C397.8655,-116.357 371.8655,-129.857 350,-144 306.6963,-172.0097 294.993,-179.0641 259,-216 231.0837,-244.6476 220.9341,-251.3107 205,-288 196.4917,-307.591 192.5072,-331.4579 190.6416,-349.6901"/>
<polygon fill="#000000" stroke="#000000" points="187.1509,-349.4329 189.7699,-359.6989 194.1245,-350.0404 187.1509,-349.4329"/>
<g id="a_edge11&#45;headlabel"><a xlink:href="dir_000001_000005.html" target="_top" xlink:title="21">
<text text-anchor="middle" x="184.6341" y="-343.1055" font-family="Helvetica,sans-Serif" font-size="10.00" fill="#000000">21</text>
</a>
</g>
</g>
<!-- dir_0c368f76a33d967d5b838b5681461de6&#45;&gt;dir_7f7a014517bfe31ea45620a6a947e37b -->
<g id="edge13" class="edge">
<title>dir_0c368f76a33d967d5b838b5681461de6&#45;&gt;dir_7f7a014517bfe31ea45620a6a947e37b</title>
<path fill="none" stroke="#000000" d="M418.4185,-91.281C344.2618,-94.6851 176.6798,-106.4388 136,-144 98.9116,-178.2451 93.2993,-240.7783 93.5091,-277.325"/>
<polygon fill="#000000" stroke="#000000" points="90.0195,-277.8499 93.7328,-287.7727 97.0179,-277.7001 90.0195,-277.8499"/>
<g id="a_edge13&#45;headlabel"><a xlink:href="dir_000001_000011.html" target="_top" xlink:title="1">
<text text-anchor="middle" x="87.104" y="-271.8169" font-family="Helvetica,sans-Serif" font-size="10.00" fill="#000000">1</text>
</a>
</g>
</g>
<!-- dir_0c368f76a33d967d5b838b5681461de6&#45;&gt;dir_a816a247b59c90f95e41afe29b966a18 -->
<g id="edge14" class="edge">
<title>dir_0c368f76a33d967d5b838b5681461de6&#45;&gt;dir_a816a247b59c90f95e41afe29b966a18</title>
<path fill="none" stroke="#000000" d="M454,-71.8314C454,-64.131 454,-54.9743 454,-46.4166"/>
<polygon fill="#000000" stroke="#000000" points="457.5001,-46.4132 454,-36.4133 450.5001,-46.4133 457.5001,-46.4132"/>
<g id="a_edge14&#45;headlabel"><a xlink:href="dir_000001_000015.html" target="_top" xlink:title="1">
<text text-anchor="middle" x="460.3393" y="-47.5079" font-family="Helvetica,sans-Serif" font-size="10.00" fill="#000000">1</text>
</a>
</g>
</g>
<!-- dir_0c368f76a33d967d5b838b5681461de6&#45;&gt;dir_3d3615e9a999cab4f3407307569d6ced -->
<g id="edge15" class="edge">
<title>dir_0c368f76a33d967d5b838b5681461de6&#45;&gt;dir_3d3615e9a999cab4f3407307569d6ced</title>
<path fill="none" stroke="#000000" d="M432.9063,-108.0841C420.8454,-118.4958 405.4813,-131.8803 392,-144 367.8691,-165.6937 340.8367,-190.8473 321.4509,-209.0385"/>
<polygon fill="#000000" stroke="#000000" points="319.0502,-206.4916 314.1598,-215.8903 323.8439,-211.5927 319.0502,-206.4916"/>
<g id="a_edge15&#45;headlabel"><a xlink:href="dir_000001_000009.html" target="_top" xlink:title="7">
<text text-anchor="middle" x="319.7252" y="-199.461" font-family="Helvetica,sans-Serif" font-size="10.00" fill="#000000">7</text>
</a>
</g>
</g>
<!-- dir_ebb19deee3cd40f4ac122fef25c04ca8&#45;&gt;dir_0c368f76a33d967d5b838b5681461de6 -->
<g id="edge17" class="edge">
<title>dir_ebb19deee3cd40f4ac122fef25c04ca8&#45;&gt;dir_0c368f76a33d967d5b838b5681461de6</title>
<path fill="none" stroke="#000000" d="M454,-143.8314C454,-136.131 454,-126.9743 454,-118.4166"/>
<polygon fill="#000000" stroke="#000000" points="457.5001,-118.4132 454,-108.4133 450.5001,-118.4133 457.5001,-118.4132"/>
<g id="a_edge17&#45;headlabel"><a xlink:href="dir_000006_000001.html" target="_top" xlink:title="1">
<text text-anchor="middle" x="460.3393" y="-119.5079" font-family="Helvetica,sans-Serif" font-size="10.00" fill="#000000">1</text>
</a>
</g>
</g>
<!-- dir_ebb19deee3cd40f4ac122fef25c04ca8&#45;&gt;dir_3d3615e9a999cab4f3407307569d6ced -->
<g id="edge18" class="edge">
<title>dir_ebb19deee3cd40f4ac122fef25c04ca8&#45;&gt;dir_3d3615e9a999cab4f3407307569d6ced</title>
<path fill="none" stroke="#000000" d="M420.1263,-180.0282C394.117,-192.356 358.393,-208.4655 331.7052,-219.8656"/>
<polygon fill="#000000" stroke="#000000" points="330.163,-216.7177 322.3165,-223.8369 332.89,-223.1647 330.163,-216.7177"/>
<g id="a_edge18&#45;headlabel"><a xlink:href="dir_000006_000009.html" target="_top" xlink:title="8">
<text text-anchor="middle" x="332.3675" y="-210.2024" font-family="Helvetica,sans-Serif" font-size="10.00" fill="#000000">8</text>
</a>
</g>
</g>
<!-- dir_e4cd57caa88bf1f4e1bf9521bc47c3c0&#45;&gt;dir_7f7a014517bfe31ea45620a6a947e37b -->
<g id="edge19" class="edge">
<title>dir_e4cd57caa88bf1f4e1bf9521bc47c3c0&#45;&gt;dir_7f7a014517bfe31ea45620a6a947e37b</title>
<path fill="none" stroke="#000000" d="M165.2798,-359.8314C153.5906,-350.8779 139.3312,-339.9558 126.7191,-330.2955"/>
<polygon fill="#000000" stroke="#000000" points="128.7797,-327.4651 118.7126,-324.1628 124.5231,-333.0222 128.7797,-327.4651"/>
<g id="a_edge19&#45;headlabel"><a xlink:href="dir_000005_000011.html" target="_top" xlink:title="1">
<text text-anchor="middle" x="133.3598" y="-324.8968" font-family="Helvetica,sans-Serif" font-size="10.00" fill="#000000">1</text>
</a>
</g>
</g>
<!-- dir_e4cd57caa88bf1f4e1bf9521bc47c3c0&#45;&gt;dir_3d3615e9a999cab4f3407307569d6ced -->
<g id="edge20" class="edge">
<title>dir_e4cd57caa88bf1f4e1bf9521bc47c3c0&#45;&gt;dir_3d3615e9a999cab4f3407307569d6ced</title>
<path fill="none" stroke="#000000" d="M187.8965,-359.8012C192.0314,-340.6437 204.0066,-310.2373 221,-288 231.3765,-274.4216 245.7676,-262.0198 259.2195,-252.5351"/>
<polygon fill="#000000" stroke="#000000" points="261.5107,-255.2131 267.872,-246.7406 257.6156,-249.3969 261.5107,-255.2131"/>
<g id="a_edge20&#45;headlabel"><a xlink:href="dir_000005_000009.html" target="_top" xlink:title="14">
<text text-anchor="middle" x="260.1039" y="-257.0724" font-family="Helvetica,sans-Serif" font-size="10.00" fill="#000000">14</text>
</a>
</g>
</g>
<!-- dir_7f7a014517bfe31ea45620a6a947e37b&#45;&gt;dir_3d3615e9a999cab4f3407307569d6ced -->
<g id="edge28" class="edge">
<title>dir_7f7a014517bfe31ea45620a6a947e37b&#45;&gt;dir_3d3615e9a999cab4f3407307569d6ced</title>
<path fill="none" stroke="#000000" d="M122.3898,-296.1397C157.6973,-283.429 219.2063,-261.2857 258.468,-247.1515"/>
<polygon fill="#000000" stroke="#000000" points="259.7177,-250.4216 267.941,-243.7412 257.3466,-243.8354 259.7177,-250.4216"/>
<g id="a_edge28&#45;headlabel"><a xlink:href="dir_000011_000009.html" target="_top" xlink:title="1">
<text text-anchor="middle" x="257.2972" y="-251.8105" font-family="Helvetica,sans-Serif" font-size="10.00" fill="#000000">1</text>
</a>
</g>
</g>
<!-- dir_a816a247b59c90f95e41afe29b966a18&#45;&gt;dir_3d3615e9a999cab4f3407307569d6ced -->
<g id="edge29" class="edge">
<title>dir_a816a247b59c90f95e41afe29b966a18&#45;&gt;dir_3d3615e9a999cab4f3407307569d6ced</title>
<path fill="none" stroke="#000000" d="M437.6423,-36.1312C416.3978,-60.0457 378.6477,-103.812 350,-144 335.4272,-164.4432 320.6885,-188.8031 310.1413,-207.021"/>
<polygon fill="#000000" stroke="#000000" points="306.9683,-205.5185 305.0309,-215.9347 313.0411,-209.0001 306.9683,-205.5185"/>
<g id="a_edge29&#45;headlabel"><a xlink:href="dir_000015_000009.html" target="_top" xlink:title="1">
<text text-anchor="middle" x="306.293" y="-198.4879" font-family="Helvetica,sans-Serif" font-size="10.00" fill="#000000">1</text>
</a>
</g>
</g>
<!-- dir_3d3615e9a999cab4f3407307569d6ced&#45;&gt;dir_ebb19deee3cd40f4ac122fef25c04ca8 -->
<g id="edge30" class="edge">
<title>dir_3d3615e9a999cab4f3407307569d6ced&#45;&gt;dir_ebb19deee3cd40f4ac122fef25c04ca8</title>
<path fill="none" stroke="#000000" d="M322.3522,-219.0816C343.3701,-208.9932 372.9487,-195.4946 398.7847,-184.157"/>
<polygon fill="#000000" stroke="#000000" points="400.345,-187.2949 408.1111,-180.088 397.5458,-180.8789 400.345,-187.2949"/>
<g id="a_edge30&#45;headlabel"><a xlink:href="dir_000009_000006.html" target="_top" xlink:title="1">
<text text-anchor="middle" x="398.1857" y="-188.8346" font-family="Helvetica,sans-Serif" font-size="10.00" fill="#000000">1</text>
</a>
</g>
</g>
<!-- dir_3d3615e9a999cab4f3407307569d6ced&#45;&gt;dir_e4cd57caa88bf1f4e1bf9521bc47c3c0 -->
<g id="edge31" class="edge">
<title>dir_3d3615e9a999cab4f3407307569d6ced&#45;&gt;dir_e4cd57caa88bf1f4e1bf9521bc47c3c0</title>
<path fill="none" stroke="#000000" d="M275.9813,-252.1664C264.1428,-261.6972 249.5115,-274.2449 239,-288 224.529,-306.9364 213.6971,-331.7968 205.3776,-350.5901"/>
<polygon fill="#000000" stroke="#000000" points="202.1454,-349.2443 201.2501,-359.8012 208.5334,-352.1068 202.1454,-349.2443"/>
<g id="a_edge31&#45;headlabel"><a xlink:href="dir_000009_000005.html" target="_top" xlink:title="1">
<text text-anchor="middle" x="201.0242" y="-342.3029" font-family="Helvetica,sans-Serif" font-size="10.00" fill="#000000">1</text>
</a>
</g>
</g>
</g>
</svg>
        <g id="navigator" transform="translate(0 0)" fill="#404254">
                <rect fill="#f2f5e9" fill-opacity="0.5" stroke="#606060" stroke-width=".5" x="0" y="0" width="60" height="60"/>
                <use id="zoomplus" xlink:href="#zoomPlus" x="17" y="9" onmousedown="handleZoom(evt,'in')"/>
                <use id="zoomminus" xlink:href="#zoomMin" x="42" y="9" onmousedown="handleZoom(evt,'out')"/>
                <use id="reset" xlink:href="#resetDef" x="30" y="36" onmousedown="handleReset()"/>
                <g id="arrowUp" xlink:href="#dirArrow" transform="translate(30 24)" onmousedown="handlePan(0,-1)">
                  <use xlink:href="#rim" fill="#404040">
                        <set attributeName="fill" to="#808080" begin="arrowUp.mouseover" end="arrowUp.mouseout"/>
                  </use>
                  <path fill="none" stroke="white" stroke-width="1.5" d="M0,-3.0v7 M-2.5,-0.5L0,-3.0L2.5,-0.5"/>
                </g>
                <g id="arrowRight" xlink:href="#dirArrow" transform="rotate(90) translate(36 -43)" onmousedown="handlePan(1,0)">
                  <use xlink:href="#rim" fill="#404040">
                        <set attributeName="fill" to="#808080" begin="arrowRight.mouseover" end="arrowRight.mouseout"/>
                  </use>
                  <path fill="none" stroke="white" stroke-width="1.5" d="M0,-3.0v7 M-2.5,-0.5L0,-3.0L2.5,-0.5"/>
                </g>
                <g id="arrowDown" xlink:href="#dirArrow" transform="rotate(180) translate(-30 -48)" onmousedown="handlePan(0,1)">
                  <use xlink:href="#rim" fill="#404040">
                        <set attributeName="fill" to="#808080" begin="arrowDown.mouseover" end="arrowDown.mouseout"/>
                  </use>
                  <path fill="none" stroke="white" stroke-width="1.5" d="M0,-3.0v7 M-2.5,-0.5L0,-3.0L2.5,-0.5"/>
                </g>
                <g id="arrowLeft" xlink:href="#dirArrow" transform="rotate(270) translate(-36 17)" onmousedown="handlePan(-1,0)">
                  <use xlink:href="#rim" fill="#404040">
                        <set attributeName="fill" to="#808080" begin="arrowLeft.mouseover" end="arrowLeft.mouseout"/>
                  </use>
                  <path fill="none" stroke="white" stroke-width="1.5" d="M0,-3.0v7 M-2.5,-0.5L0,-3.0L2.5,-0.5"/>
                </g>
        </g>
        <svg viewBox="0 0 15 15" width="100%" height="30px" preserveAspectRatio="xMaxYMin meet">
         <g id="arrow_out" transform="scale(0.3 0.3)">
          <a xlink:href="dir_4bb30ed846ea1df1fc4d16874a455d91_dep_org.svg" target="_base">
           <rect id="button" ry="5" rx="5" y="6" x="6" height="38" width="38"
                fill="#f2f5e9" fill-opacity="0.5" stroke="#606060" stroke-width="1.0"/>
           <path id="arrow"
             d="M 11.500037,31.436501 C 11.940474,20.09759 22.043105,11.32322 32.158766,21.979434 L 37.068811,17.246167 C 37.068811,17.246167 37.088388,32 37.088388,32 L 22.160133,31.978069 C 22.160133,31.978069 26.997745,27.140456 26.997745,27.140456 C 18.528582,18.264221 13.291696,25.230495 11.500037,31.436501 z"
             style="fill:#404040;"/>
          </a>
         </g>
        </svg>
</svg>
