<?xml version="1.0" encoding="UTF-8" standalone="no"?>
<!DOCTYPE svg PUBLIC "-//W3C//DTD SVG 1.1//EN"
 "http://www.w3.org/Graphics/SVG/1.1/DTD/svg11.dtd">
<!-- Generated by graphviz version 2.40.1 (20161225.0304)
 -->
<!-- Title: icns Pages: 1 -->
<svg width="403pt" height="469pt"
 viewBox="0.00 0.00 402.62 469.32" xmlns="http://www.w3.org/2000/svg" xmlns:xlink="http://www.w3.org/1999/xlink">
<g id="graph0" class="graph" transform="scale(1 1) rotate(0) translate(4 465.3222)">
<title>icns</title>
<polygon fill="#ffffff" stroke="transparent" points="-4,4 -4,-465.3222 398.6199,-465.3222 398.6199,4 -4,4"/>
<g id="clust1" class="cluster">
<title>clusterdir_4bb30ed846ea1df1fc4d16874a455d91</title>
<g id="a_clust1"><a xlink:href="dir_4bb30ed846ea1df1fc4d16874a455d91.html" target="_top" xlink:title="equation_systems">
<polygon fill="#ddddee" stroke="#000000" points="126.6199,-344 126.6199,-431 306.6199,-431 306.6199,-344 126.6199,-344"/>
<text text-anchor="middle" x="216.6199" y="-419" font-family="Helvetica,sans-Serif" font-size="10.00" fill="#000000">equation_systems</text>
</a>
</g>
</g>
<g id="clust2" class="cluster">
<title>clusterdir_4012ff34c1bb5bd303e44a1c9cef6c8a</title>
<g id="a_clust2"><a xlink:href="dir_4012ff34c1bb5bd303e44a1c9cef6c8a.html" target="_top">
<polygon fill="#eeeeff" stroke="#000000" points="134.6199,-352 134.6199,-404 298.6199,-404 298.6199,-352 134.6199,-352"/>
</a>
</g>
</g>
<!-- dir_4012ff34c1bb5bd303e44a1c9cef6c8a -->
<g id="node1" class="node">
<title>dir_4012ff34c1bb5bd303e44a1c9cef6c8a</title>
<text text-anchor="middle" x="263.6199" y="-375.5" font-family="Helvetica,sans-Serif" font-size="10.00" fill="#000000">icns</text>
</g>
<!-- dir_35ffb1505af3943bdf99903da87524fe -->
<g id="node3" class="node">
<title>dir_35ffb1505af3943bdf99903da87524fe</title>
<g id="a_node3"><a xlink:href="dir_35ffb1505af3943bdf99903da87524fe.html" target="_top" xlink:title="convection">
<polygon fill="none" stroke="#000000" points="118.6199,-396 54.6199,-396 54.6199,-360 118.6199,-360 118.6199,-396"/>
<text text-anchor="middle" x="86.6199" y="-375.5" font-family="Helvetica,sans-Serif" font-size="10.00" fill="#000000">convection</text>
</a>
</g>
</g>
<!-- dir_4012ff34c1bb5bd303e44a1c9cef6c8a&#45;&gt;dir_35ffb1505af3943bdf99903da87524fe -->
<g id="edge15" class="edge">
<title>dir_4012ff34c1bb5bd303e44a1c9cef6c8a&#45;&gt;dir_35ffb1505af3943bdf99903da87524fe</title>
<path fill="none" stroke="#000000" d="M257.8904,-396.0384C251.3857,-413.1355 238.9504,-437.8155 218.6199,-449 187.8567,-465.9239 171.0065,-464.7376 139.6199,-449 121.3438,-439.8362 107.7586,-421.0489 98.9198,-405.1014"/>
<polygon fill="#000000" stroke="#000000" points="101.9784,-403.3968 94.2646,-396.1341 95.7657,-406.622 101.9784,-403.3968"/>
<g id="a_edge15&#45;headlabel"><a xlink:href="dir_000003_000016.html" target="_top" xlink:title="1">
<text text-anchor="middle" x="106.1545" y="-402.7789" font-family="Helvetica,sans-Serif" font-size="10.00" fill="#000000">1</text>
</a>
</g>
</g>
<!-- dir_ebb19deee3cd40f4ac122fef25c04ca8 -->
<g id="node5" class="node">
<title>dir_ebb19deee3cd40f4ac122fef25c04ca8</title>
<g id="a_node5"><a xlink:href="dir_ebb19deee3cd40f4ac122fef25c04ca8.html" target="_top" xlink:title="boundary_conditions">
<polygon fill="none" stroke="#000000" points="286.6199,-108 180.6199,-108 180.6199,-72 286.6199,-72 286.6199,-108"/>
<text text-anchor="middle" x="233.6199" y="-87.5" font-family="Helvetica,sans-Serif" font-size="10.00" fill="#000000">boundary_conditions</text>
</a>
</g>
</g>
<!-- dir_4012ff34c1bb5bd303e44a1c9cef6c8a&#45;&gt;dir_ebb19deee3cd40f4ac122fef25c04ca8 -->
<g id="edge16" class="edge">
<title>dir_4012ff34c1bb5bd303e44a1c9cef6c8a&#45;&gt;dir_ebb19deee3cd40f4ac122fef25c04ca8</title>
<path fill="none" stroke="#000000" d="M286.327,-359.9059C296.5453,-350.3922 307.6359,-337.838 313.6199,-324 332.6918,-279.8956 332.6703,-261.9513 318.6199,-216 306.7661,-177.2324 278.5268,-139.6165 257.838,-115.7322"/>
<polygon fill="#000000" stroke="#000000" points="260.3964,-113.342 251.1458,-108.1769 255.1564,-117.9834 260.3964,-113.342"/>
<g id="a_edge16&#45;headlabel"><a xlink:href="dir_000003_000006.html" target="_top" xlink:title="1">
<text text-anchor="middle" x="264.9052" y="-111.6502" font-family="Helvetica,sans-Serif" font-size="10.00" fill="#000000">1</text>
</a>
</g>
</g>
<!-- dir_e4cd57caa88bf1f4e1bf9521bc47c3c0 -->
<g id="node6" class="node">
<title>dir_e4cd57caa88bf1f4e1bf9521bc47c3c0</title>
<g id="a_node6"><a xlink:href="dir_e4cd57caa88bf1f4e1bf9521bc47c3c0.html" target="_top" xlink:title="utilities">
<polygon fill="#ffffff" stroke="#ff0000" points="180.6199,-324 126.6199,-324 126.6199,-288 180.6199,-288 180.6199,-324"/>
<text text-anchor="middle" x="153.6199" y="-303.5" font-family="Helvetica,sans-Serif" font-size="10.00" fill="#000000">utilities</text>
</a>
</g>
</g>
<!-- dir_4012ff34c1bb5bd303e44a1c9cef6c8a&#45;&gt;dir_e4cd57caa88bf1f4e1bf9521bc47c3c0 -->
<g id="edge17" class="edge">
<title>dir_4012ff34c1bb5bd303e44a1c9cef6c8a&#45;&gt;dir_e4cd57caa88bf1f4e1bf9521bc47c3c0</title>
<path fill="none" stroke="#000000" d="M246.5426,-359.992C240.8236,-354.4901 234.2174,-348.6665 227.6199,-344 215.9691,-335.7593 202.2875,-328.2187 189.8786,-322.0655"/>
<polygon fill="#000000" stroke="#000000" points="191.2206,-318.8272 180.6922,-317.642 188.1836,-325.134 191.2206,-318.8272"/>
<g id="a_edge17&#45;headlabel"><a xlink:href="dir_000003_000005.html" target="_top" xlink:title="8">
<text text-anchor="middle" x="195.6911" y="-315.3285" font-family="Helvetica,sans-Serif" font-size="10.00" fill="#000000">8</text>
</a>
</g>
</g>
<!-- dir_7f7a014517bfe31ea45620a6a947e37b -->
<g id="node7" class="node">
<title>dir_7f7a014517bfe31ea45620a6a947e37b</title>
<g id="a_node7"><a xlink:href="dir_7f7a014517bfe31ea45620a6a947e37b.html" target="_top" xlink:title="fvm">
<polygon fill="none" stroke="#000000" points="290.6199,-252 236.6199,-252 236.6199,-216 290.6199,-216 290.6199,-252"/>
<text text-anchor="middle" x="263.6199" y="-231.5" font-family="Helvetica,sans-Serif" font-size="10.00" fill="#000000">fvm</text>
</a>
</g>
</g>
<!-- dir_4012ff34c1bb5bd303e44a1c9cef6c8a&#45;&gt;dir_7f7a014517bfe31ea45620a6a947e37b -->
<g id="edge18" class="edge">
<title>dir_4012ff34c1bb5bd303e44a1c9cef6c8a&#45;&gt;dir_7f7a014517bfe31ea45620a6a947e37b</title>
<path fill="none" stroke="#000000" d="M263.6199,-359.7623C263.6199,-335.201 263.6199,-291.2474 263.6199,-262.3541"/>
<polygon fill="#000000" stroke="#000000" points="267.12,-262.0896 263.6199,-252.0896 260.12,-262.0897 267.12,-262.0896"/>
<g id="a_edge18&#45;headlabel"><a xlink:href="dir_000003_000011.html" target="_top" xlink:title="1">
<text text-anchor="middle" x="269.9592" y="-263.1842" font-family="Helvetica,sans-Serif" font-size="10.00" fill="#000000">1</text>
</a>
</g>
</g>
<!-- dir_3d3615e9a999cab4f3407307569d6ced -->
<g id="node8" class="node">
<title>dir_3d3615e9a999cab4f3407307569d6ced</title>
<g id="a_node8"><a xlink:href="dir_3d3615e9a999cab4f3407307569d6ced.html" target="_top" xlink:title="core">
<polygon fill="#ffffff" stroke="#ff0000" points="235.6199,-180 181.6199,-180 181.6199,-144 235.6199,-144 235.6199,-180"/>
<text text-anchor="middle" x="208.6199" y="-159.5" font-family="Helvetica,sans-Serif" font-size="10.00" fill="#000000">core</text>
</a>
</g>
</g>
<!-- dir_4012ff34c1bb5bd303e44a1c9cef6c8a&#45;&gt;dir_3d3615e9a999cab4f3407307569d6ced -->
<g id="edge19" class="edge">
<title>dir_4012ff34c1bb5bd303e44a1c9cef6c8a&#45;&gt;dir_3d3615e9a999cab4f3407307569d6ced</title>
<path fill="none" stroke="#000000" d="M275.5637,-359.7449C294.4431,-328.3732 326.4213,-263.0692 299.6199,-216 287.9803,-195.5583 265.2179,-182.0559 245.3716,-173.6651"/>
<polygon fill="#000000" stroke="#000000" points="246.5118,-170.3526 235.9246,-169.9486 243.949,-176.8667 246.5118,-170.3526"/>
<g id="a_edge19&#45;headlabel"><a xlink:href="dir_000003_000009.html" target="_top" xlink:title="16">
<text text-anchor="middle" x="250.8962" y="-166.5264" font-family="Helvetica,sans-Serif" font-size="10.00" fill="#000000">16</text>
</a>
</g>
</g>
<!-- dir_5d2cf0e24161a778738de20190787a10 -->
<g id="node2" class="node">
<title>dir_5d2cf0e24161a778738de20190787a10</title>
<g id="a_node2"><a xlink:href="dir_5d2cf0e24161a778738de20190787a10.html" target="_top" xlink:title="source_terms">
<polygon fill="#ffffff" stroke="#000000" points="218.6199,-396 142.6199,-396 142.6199,-360 218.6199,-360 218.6199,-396"/>
<text text-anchor="middle" x="180.6199" y="-375.5" font-family="Helvetica,sans-Serif" font-size="10.00" fill="#000000">source_terms</text>
</a>
</g>
</g>
<!-- dir_0c368f76a33d967d5b838b5681461de6 -->
<g id="node4" class="node">
<title>dir_0c368f76a33d967d5b838b5681461de6</title>
<g id="a_node4"><a xlink:href="dir_0c368f76a33d967d5b838b5681461de6.html" target="_top" xlink:title="wind_energy">
<polygon fill="none" stroke="#000000" points="188.1199,-36 117.1199,-36 117.1199,0 188.1199,0 188.1199,-36"/>
<text text-anchor="middle" x="152.6199" y="-15.5" font-family="Helvetica,sans-Serif" font-size="10.00" fill="#000000">wind_energy</text>
</a>
</g>
</g>
<!-- dir_5d2cf0e24161a778738de20190787a10&#45;&gt;dir_0c368f76a33d967d5b838b5681461de6 -->
<g id="edge1" class="edge">
<title>dir_5d2cf0e24161a778738de20190787a10&#45;&gt;dir_0c368f76a33d967d5b838b5681461de6</title>
<path fill="none" stroke="#000000" d="M156.6037,-359.8634C147.8685,-354.022 137.6661,-348.0253 127.6199,-344 84.3325,-326.6559 58.7091,-355.8205 24.6199,-324 -5.6424,-295.7517 .6199,-275.3978 .6199,-234 .6199,-234 .6199,-234 .6199,-162 .6199,-120.6022 -2.5553,-103.2296 24.6199,-72 45.7007,-47.774 79.4787,-34.1406 107.0434,-26.6346"/>
<polygon fill="#000000" stroke="#000000" points="108.0506,-29.9901 116.8827,-24.1382 106.329,-23.205 108.0506,-29.9901"/>
<g id="a_edge1&#45;headlabel"><a xlink:href="dir_000004_000001.html" target="_top" xlink:title="2">
<text text-anchor="middle" x="105.2646" y="-31.1261" font-family="Helvetica,sans-Serif" font-size="10.00" fill="#000000">2</text>
</a>
</g>
</g>
<!-- dir_5d2cf0e24161a778738de20190787a10&#45;&gt;dir_e4cd57caa88bf1f4e1bf9521bc47c3c0 -->
<g id="edge2" class="edge">
<title>dir_5d2cf0e24161a778738de20190787a10&#45;&gt;dir_e4cd57caa88bf1f4e1bf9521bc47c3c0</title>
<path fill="none" stroke="#000000" d="M173.8066,-359.8314C170.8555,-351.9617 167.3341,-342.5712 164.0649,-333.8533"/>
<polygon fill="#000000" stroke="#000000" points="167.3133,-332.5476 160.5249,-324.4133 160.759,-335.0055 167.3133,-332.5476"/>
<g id="a_edge2&#45;headlabel"><a xlink:href="dir_000004_000005.html" target="_top" xlink:title="7">
<text text-anchor="middle" x="171.2339" y="-332.4164" font-family="Helvetica,sans-Serif" font-size="10.00" fill="#000000">7</text>
</a>
</g>
</g>
<!-- dir_5d2cf0e24161a778738de20190787a10&#45;&gt;dir_3d3615e9a999cab4f3407307569d6ced -->
<g id="edge3" class="edge">
<title>dir_5d2cf0e24161a778738de20190787a10&#45;&gt;dir_3d3615e9a999cab4f3407307569d6ced</title>
<path fill="none" stroke="#000000" d="M183.9238,-359.5398C185.731,-349.1234 187.9375,-335.8567 189.6199,-324 196.2678,-277.1476 202.3327,-222.4332 205.7429,-190.0852"/>
<polygon fill="#000000" stroke="#000000" points="209.2368,-190.3257 206.7947,-180.0161 202.2747,-189.5984 209.2368,-190.3257"/>
<g id="a_edge3&#45;headlabel"><a xlink:href="dir_000004_000009.html" target="_top" xlink:title="10">
<text text-anchor="middle" x="211.6873" y="-191.6958" font-family="Helvetica,sans-Serif" font-size="10.00" fill="#000000">10</text>
</a>
</g>
</g>
<!-- dir_35ffb1505af3943bdf99903da87524fe&#45;&gt;dir_e4cd57caa88bf1f4e1bf9521bc47c3c0 -->
<g id="edge4" class="edge">
<title>dir_35ffb1505af3943bdf99903da87524fe&#45;&gt;dir_e4cd57caa88bf1f4e1bf9521bc47c3c0</title>
<path fill="none" stroke="#000000" d="M103.5268,-359.8314C111.4012,-351.3694 120.9119,-341.1489 129.5212,-331.8971"/>
<polygon fill="#000000" stroke="#000000" points="132.2352,-334.1183 136.4853,-324.4133 127.1107,-329.3497 132.2352,-334.1183"/>
<g id="a_edge4&#45;headlabel"><a xlink:href="dir_000016_000005.html" target="_top" xlink:title="4">
<text text-anchor="middle" x="131.865" y="-336.184" font-family="Helvetica,sans-Serif" font-size="10.00" fill="#000000">4</text>
</a>
</g>
</g>
<!-- dir_35ffb1505af3943bdf99903da87524fe&#45;&gt;dir_3d3615e9a999cab4f3407307569d6ced -->
<g id="edge5" class="edge">
<title>dir_35ffb1505af3943bdf99903da87524fe&#45;&gt;dir_3d3615e9a999cab4f3407307569d6ced</title>
<path fill="none" stroke="#000000" d="M91.1963,-359.7738C96.2643,-341.1255 105.3665,-311.6172 117.6199,-288 136.935,-250.772 166.341,-212.3026 186.4645,-187.8226"/>
<polygon fill="#000000" stroke="#000000" points="189.2014,-190.0054 192.9052,-180.079 183.8196,-185.5291 189.2014,-190.0054"/>
<g id="a_edge5&#45;headlabel"><a xlink:href="dir_000016_000009.html" target="_top" xlink:title="4">
<text text-anchor="middle" x="189.0858" y="-192.0846" font-family="Helvetica,sans-Serif" font-size="10.00" fill="#000000">4</text>
</a>
</g>
</g>
<!-- dir_0c368f76a33d967d5b838b5681461de6&#45;&gt;dir_4012ff34c1bb5bd303e44a1c9cef6c8a -->
<g id="edge8" class="edge">
<title>dir_0c368f76a33d967d5b838b5681461de6&#45;&gt;dir_4012ff34c1bb5bd303e44a1c9cef6c8a</title>
<path fill="none" stroke="#000000" d="M188.3278,-22.5583C255.6442,-33.363 394.6199,-67.1547 394.6199,-162 394.6199,-234 394.6199,-234 394.6199,-234 394.6199,-290.6327 338.4937,-334.8227 299.7169,-358.595"/>
<polygon fill="#000000" stroke="#000000" points="297.5726,-355.7978 290.7632,-363.9146 301.1481,-361.8158 297.5726,-355.7978"/>
<g id="a_edge8&#45;headlabel"><a xlink:href="dir_000001_000003.html" target="_top" xlink:title="3">
<text text-anchor="middle" x="299.2127" y="-349.0209" font-family="Helvetica,sans-Serif" font-size="10.00" fill="#000000">3</text>
</a>
</g>
</g>
<!-- dir_0c368f76a33d967d5b838b5681461de6&#45;&gt;dir_5d2cf0e24161a778738de20190787a10 -->
<g id="edge6" class="edge">
<title>dir_0c368f76a33d967d5b838b5681461de6&#45;&gt;dir_5d2cf0e24161a778738de20190787a10</title>
<path fill="none" stroke="#000000" d="M124.4401,-36.1998C90.6814,-60.4685 38.6199,-106.8374 38.6199,-162 38.6199,-234 38.6199,-234 38.6199,-234 38.6199,-264.9413 105.9279,-321.5339 147.8639,-353.7909"/>
<polygon fill="#000000" stroke="#000000" points="145.81,-356.6262 155.8854,-359.9031 150.0526,-351.0583 145.81,-356.6262"/>
<g id="a_edge6&#45;headlabel"><a xlink:href="dir_000001_000004.html" target="_top" xlink:title="3">
<text text-anchor="middle" x="141.23" y="-354.206" font-family="Helvetica,sans-Serif" font-size="10.00" fill="#000000">3</text>
</a>
</g>
</g>
<!-- dir_0c368f76a33d967d5b838b5681461de6&#45;&gt;dir_e4cd57caa88bf1f4e1bf9521bc47c3c0 -->
<g id="edge7" class="edge">
<title>dir_0c368f76a33d967d5b838b5681461de6&#45;&gt;dir_e4cd57caa88bf1f4e1bf9521bc47c3c0</title>
<path fill="none" stroke="#000000" d="M152.6824,-36.0089C152.8515,-84.6912 153.3185,-219.1886 153.5224,-277.9345"/>
<polygon fill="#000000" stroke="#000000" points="150.0225,-277.9966 153.5573,-287.9843 157.0225,-277.9722 150.0225,-277.9966"/>
<g id="a_edge7&#45;headlabel"><a xlink:href="dir_000001_000005.html" target="_top" xlink:title="21">
<text text-anchor="middle" x="147.1709" y="-271.9118" font-family="Helvetica,sans-Serif" font-size="10.00" fill="#000000">21</text>
</a>
</g>
</g>
<!-- dir_0c368f76a33d967d5b838b5681461de6&#45;&gt;dir_7f7a014517bfe31ea45620a6a947e37b -->
<g id="edge9" class="edge">
<title>dir_0c368f76a33d967d5b838b5681461de6&#45;&gt;dir_7f7a014517bfe31ea45620a6a947e37b</title>
<path fill="none" stroke="#000000" d="M188.2273,-26.5221C226.3455,-36.4508 283.057,-53.8272 295.6199,-72 323.8579,-112.8476 299.233,-172.5847 280.3536,-206.9485"/>
<polygon fill="#000000" stroke="#000000" points="277.1444,-205.5108 275.2298,-215.9312 283.2247,-208.9792 277.1444,-205.5108"/>
<g id="a_edge9&#45;headlabel"><a xlink:href="dir_000001_000011.html" target="_top" xlink:title="1">
<text text-anchor="middle" x="276.4591" y="-198.4817" font-family="Helvetica,sans-Serif" font-size="10.00" fill="#000000">1</text>
</a>
</g>
</g>
<!-- dir_0c368f76a33d967d5b838b5681461de6&#45;&gt;dir_3d3615e9a999cab4f3407307569d6ced -->
<g id="edge10" class="edge">
<title>dir_0c368f76a33d967d5b838b5681461de6&#45;&gt;dir_3d3615e9a999cab4f3407307569d6ced</title>
<path fill="none" stroke="#000000" d="M154.3482,-36.218C156.597,-54.8598 161.5039,-84.363 171.6199,-108 175.6686,-117.4603 181.4821,-126.984 187.3054,-135.3426"/>
<polygon fill="#000000" stroke="#000000" points="184.588,-137.5566 193.304,-143.5801 190.2466,-133.4359 184.588,-137.5566"/>
<g id="a_edge10&#45;headlabel"><a xlink:href="dir_000001_000009.html" target="_top" xlink:title="7">
<text text-anchor="middle" x="180.1768" y="-133.8222" font-family="Helvetica,sans-Serif" font-size="10.00" fill="#000000">7</text>
</a>
</g>
</g>
<!-- dir_ebb19deee3cd40f4ac122fef25c04ca8&#45;&gt;dir_0c368f76a33d967d5b838b5681461de6 -->
<g id="edge11" class="edge">
<title>dir_ebb19deee3cd40f4ac122fef25c04ca8&#45;&gt;dir_0c368f76a33d967d5b838b5681461de6</title>
<path fill="none" stroke="#000000" d="M213.1802,-71.8314C203.2994,-63.0485 191.2875,-52.3712 180.5748,-42.8489"/>
<polygon fill="#000000" stroke="#000000" points="182.8525,-40.1906 173.0531,-36.1628 178.2019,-45.4224 182.8525,-40.1906"/>
<g id="a_edge11&#45;headlabel"><a xlink:href="dir_000006_000001.html" target="_top" xlink:title="1">
<text text-anchor="middle" x="187.4254" y="-37.9566" font-family="Helvetica,sans-Serif" font-size="10.00" fill="#000000">1</text>
</a>
</g>
</g>
<!-- dir_ebb19deee3cd40f4ac122fef25c04ca8&#45;&gt;dir_3d3615e9a999cab4f3407307569d6ced -->
<g id="edge12" class="edge">
<title>dir_ebb19deee3cd40f4ac122fef25c04ca8&#45;&gt;dir_3d3615e9a999cab4f3407307569d6ced</title>
<path fill="none" stroke="#000000" d="M233.2024,-108.4133C231.2145,-116.3141 228.1534,-125.7132 224.7806,-134.417"/>
<polygon fill="#000000" stroke="#000000" points="221.4743,-133.2532 220.8808,-143.8314 227.9414,-135.9321 221.4743,-133.2532"/>
<g id="a_edge12&#45;headlabel"><a xlink:href="dir_000006_000009.html" target="_top" xlink:title="8">
<text text-anchor="middle" x="220.2268" y="-126.3456" font-family="Helvetica,sans-Serif" font-size="10.00" fill="#000000">8</text>
</a>
</g>
</g>
<!-- dir_e4cd57caa88bf1f4e1bf9521bc47c3c0&#45;&gt;dir_7f7a014517bfe31ea45620a6a947e37b -->
<g id="edge13" class="edge">
<title>dir_e4cd57caa88bf1f4e1bf9521bc47c3c0&#45;&gt;dir_7f7a014517bfe31ea45620a6a947e37b</title>
<path fill="none" stroke="#000000" d="M180.8109,-288.2022C194.9577,-278.9425 212.4356,-267.5025 227.6829,-257.5224"/>
<polygon fill="#000000" stroke="#000000" points="229.9102,-260.2476 236.3604,-251.8425 226.0766,-254.3907 229.9102,-260.2476"/>
<g id="a_edge13&#45;headlabel"><a xlink:href="dir_000005_000011.html" target="_top" xlink:title="1">
<text text-anchor="middle" x="228.4576" y="-262.0918" font-family="Helvetica,sans-Serif" font-size="10.00" fill="#000000">1</text>
</a>
</g>
</g>
<!-- dir_e4cd57caa88bf1f4e1bf9521bc47c3c0&#45;&gt;dir_3d3615e9a999cab4f3407307569d6ced -->
<g id="edge14" class="edge">
<title>dir_e4cd57caa88bf1f4e1bf9521bc47c3c0&#45;&gt;dir_3d3615e9a999cab4f3407307569d6ced</title>
<path fill="none" stroke="#000000" d="M155.9125,-287.7623C162.9252,-262.8764 179.785,-218.0822 192.8042,-189.2165"/>
<polygon fill="#000000" stroke="#000000" points="196.0055,-190.6326 197.0524,-180.0896 189.6593,-187.6787 196.0055,-190.6326"/>
<g id="a_edge14&#45;headlabel"><a xlink:href="dir_000005_000009.html" target="_top" xlink:title="14">
<text text-anchor="middle" x="197.0628" y="-192.5896" font-family="Helvetica,sans-Serif" font-size="10.00" fill="#000000">14</text>
</a>
</g>
</g>
<!-- dir_7f7a014517bfe31ea45620a6a947e37b&#45;&gt;dir_3d3615e9a999cab4f3407307569d6ced -->
<g id="edge20" class="edge">
<title>dir_7f7a014517bfe31ea45620a6a947e37b&#45;&gt;dir_3d3615e9a999cab4f3407307569d6ced</title>
<path fill="none" stroke="#000000" d="M249.7411,-215.8314C243.4063,-207.5386 235.7815,-197.557 228.8273,-188.4533"/>
<polygon fill="#000000" stroke="#000000" points="231.5374,-186.2353 222.6856,-180.4133 225.9747,-190.4847 231.5374,-186.2353"/>
<g id="a_edge20&#45;headlabel"><a xlink:href="dir_000011_000009.html" target="_top" xlink:title="1">
<text text-anchor="middle" x="235.9757" y="-184.8683" font-family="Helvetica,sans-Serif" font-size="10.00" fill="#000000">1</text>
</a>
</g>
</g>
<!-- dir_3d3615e9a999cab4f3407307569d6ced&#45;&gt;dir_ebb19deee3cd40f4ac122fef25c04ca8 -->
<g id="edge21" class="edge">
<title>dir_3d3615e9a999cab4f3407307569d6ced&#45;&gt;dir_ebb19deee3cd40f4ac122fef25c04ca8</title>
<path fill="none" stroke="#000000" d="M208.976,-143.8314C210.9416,-135.9617 213.9884,-126.5712 217.3546,-117.8533"/>
<polygon fill="#000000" stroke="#000000" points="220.6709,-118.9922 221.2504,-108.4133 214.2002,-116.3219 220.6709,-118.9922"/>
<g id="a_edge21&#45;headlabel"><a xlink:href="dir_000009_000006.html" target="_top" xlink:title="1">
<text text-anchor="middle" x="221.9242" y="-120.8981" font-family="Helvetica,sans-Serif" font-size="10.00" fill="#000000">1</text>
</a>
</g>
</g>
<!-- dir_3d3615e9a999cab4f3407307569d6ced&#45;&gt;dir_e4cd57caa88bf1f4e1bf9521bc47c3c0 -->
<g id="edge22" class="edge">
<title>dir_3d3615e9a999cab4f3407307569d6ced&#45;&gt;dir_e4cd57caa88bf1f4e1bf9521bc47c3c0</title>
<path fill="none" stroke="#000000" d="M206.3689,-180.0896C199.3954,-204.8962 182.5476,-249.6824 169.5132,-278.6113"/>
<polygon fill="#000000" stroke="#000000" points="166.3009,-277.2188 165.2588,-287.7623 172.6485,-280.1699 166.3009,-277.2188"/>
<g id="a_edge22&#45;headlabel"><a xlink:href="dir_000009_000005.html" target="_top" xlink:title="1">
<text text-anchor="middle" x="165.2416" y="-270.2623" font-family="Helvetica,sans-Serif" font-size="10.00" fill="#000000">1</text>
</a>
</g>
</g>
</g>
</svg>
