<?xml version="1.0" encoding="UTF-8" standalone="no"?>
<!DOCTYPE svg PUBLIC "-//W3C//DTD SVG 1.1//EN"
 "http://www.w3.org/Graphics/SVG/1.1/DTD/svg11.dtd">
<!-- Generated by graphviz version 2.40.1 (20161225.0304)
 -->
<!-- Title: icns Pages: 1 -->
<svg width="341pt" height="411pt"
 viewBox="0.00 0.00 341.28 411.00" xmlns="http://www.w3.org/2000/svg" xmlns:xlink="http://www.w3.org/1999/xlink">
<g id="graph0" class="graph" transform="scale(1 1) rotate(0) translate(4 407)">
<title>icns</title>
<polygon fill="#ffffff" stroke="transparent" points="-4,4 -4,-407 337.2785,-407 337.2785,4 -4,4"/>
<g id="clust1" class="cluster">
<title>clusterdir_4bb30ed846ea1df1fc4d16874a455d91</title>
<g id="a_clust1"><a xlink:href="dir_4bb30ed846ea1df1fc4d16874a455d91.html" target="_top" xlink:title="equation_systems">
<polygon fill="#ddddee" stroke="#000000" points="21.2785,-272 21.2785,-359 201.2785,-359 201.2785,-272 21.2785,-272"/>
<text text-anchor="middle" x="111.2785" y="-347" font-family="Helvetica,sans-Serif" font-size="10.00" fill="#000000">equation_systems</text>
</a>
</g>
</g>
<g id="clust2" class="cluster">
<title>clusterdir_4012ff34c1bb5bd303e44a1c9cef6c8a</title>
<g id="a_clust2"><a xlink:href="dir_4012ff34c1bb5bd303e44a1c9cef6c8a.html" target="_top">
<polygon fill="#eeeeff" stroke="#000000" points="29.2785,-280 29.2785,-332 193.2785,-332 193.2785,-280 29.2785,-280"/>
</a>
</g>
</g>
<!-- dir_4012ff34c1bb5bd303e44a1c9cef6c8a -->
<g id="node1" class="node">
<title>dir_4012ff34c1bb5bd303e44a1c9cef6c8a</title>
<text text-anchor="middle" x="64.2785" y="-303.5" font-family="Helvetica,sans-Serif" font-size="10.00" fill="#000000">icns</text>
</g>
<!-- dir_35ffb1505af3943bdf99903da87524fe -->
<g id="node3" class="node">
<title>dir_35ffb1505af3943bdf99903da87524fe</title>
<g id="a_node3"><a xlink:href="dir_35ffb1505af3943bdf99903da87524fe.html" target="_top" xlink:title="convection">
<polygon fill="none" stroke="#000000" points="77.2785,-252 13.2785,-252 13.2785,-216 77.2785,-216 77.2785,-252"/>
<text text-anchor="middle" x="45.2785" y="-231.5" font-family="Helvetica,sans-Serif" font-size="10.00" fill="#000000">convection</text>
</a>
</g>
</g>
<!-- dir_4012ff34c1bb5bd303e44a1c9cef6c8a&#45;&gt;dir_35ffb1505af3943bdf99903da87524fe -->
<g id="edge13" class="edge">
<title>dir_4012ff34c1bb5bd303e44a1c9cef6c8a&#45;&gt;dir_35ffb1505af3943bdf99903da87524fe</title>
<path fill="none" stroke="#000000" d="M59.484,-287.8314C57.4296,-280.0463 54.9825,-270.7729 52.7029,-262.1347"/>
<polygon fill="#000000" stroke="#000000" points="56.0733,-261.1892 50.1375,-252.4133 49.305,-262.9753 56.0733,-261.1892"/>
<g id="a_edge13&#45;headlabel"><a xlink:href="dir_000003_000016.html" target="_top" xlink:title="1">
<text text-anchor="middle" x="59.7357" y="-261.4404" font-family="Helvetica,sans-Serif" font-size="10.00" fill="#000000">1</text>
</a>
</g>
</g>
<!-- dir_e4cd57caa88bf1f4e1bf9521bc47c3c0 -->
<g id="node5" class="node">
<title>dir_e4cd57caa88bf1f4e1bf9521bc47c3c0</title>
<g id="a_node5"><a xlink:href="dir_e4cd57caa88bf1f4e1bf9521bc47c3c0.html" target="_top" xlink:title="utilities">
<polygon fill="#ffffff" stroke="#ff0000" points="148.2785,-180 94.2785,-180 94.2785,-144 148.2785,-144 148.2785,-180"/>
<text text-anchor="middle" x="121.2785" y="-159.5" font-family="Helvetica,sans-Serif" font-size="10.00" fill="#000000">utilities</text>
</a>
</g>
</g>
<!-- dir_4012ff34c1bb5bd303e44a1c9cef6c8a&#45;&gt;dir_e4cd57caa88bf1f4e1bf9521bc47c3c0 -->
<g id="edge14" class="edge">
<title>dir_4012ff34c1bb5bd303e44a1c9cef6c8a&#45;&gt;dir_e4cd57caa88bf1f4e1bf9521bc47c3c0</title>
<path fill="none" stroke="#000000" d="M71.8864,-287.5351C76.1574,-277.1172 81.5605,-263.8506 86.2785,-252 94.5206,-231.2974 103.6389,-207.8314 110.5018,-190.0522"/>
<polygon fill="#000000" stroke="#000000" points="113.928,-190.8948 114.2583,-180.3051 107.3962,-188.3775 113.928,-190.8948"/>
<g id="a_edge14&#45;headlabel"><a xlink:href="dir_000003_000005.html" target="_top" xlink:title="8">
<text text-anchor="middle" x="115.2847" y="-192.77" font-family="Helvetica,sans-Serif" font-size="10.00" fill="#000000">8</text>
</a>
</g>
</g>
<!-- dir_7f7a014517bfe31ea45620a6a947e37b -->
<g id="node6" class="node">
<title>dir_7f7a014517bfe31ea45620a6a947e37b</title>
<g id="a_node6"><a xlink:href="dir_7f7a014517bfe31ea45620a6a947e37b.html" target="_top" xlink:title="fvm">
<polygon fill="none" stroke="#000000" points="212.2785,-108 158.2785,-108 158.2785,-72 212.2785,-72 212.2785,-108"/>
<text text-anchor="middle" x="185.2785" y="-87.5" font-family="Helvetica,sans-Serif" font-size="10.00" fill="#000000">fvm</text>
</a>
</g>
</g>
<!-- dir_4012ff34c1bb5bd303e44a1c9cef6c8a&#45;&gt;dir_7f7a014517bfe31ea45620a6a947e37b -->
<g id="edge15" class="edge">
<title>dir_4012ff34c1bb5bd303e44a1c9cef6c8a&#45;&gt;dir_7f7a014517bfe31ea45620a6a947e37b</title>
<path fill="none" stroke="#000000" d="M79.3086,-287.739C87.7065,-277.3848 98.264,-264.1141 107.2785,-252 130.5365,-220.7447 140.1817,-215.0075 157.2785,-180 166.9883,-160.1182 174.2523,-136.1309 178.9454,-117.9216"/>
<polygon fill="#000000" stroke="#000000" points="182.3457,-118.7509 181.349,-108.203 175.5504,-117.0703 182.3457,-118.7509"/>
<g id="a_edge15&#45;headlabel"><a xlink:href="dir_000003_000011.html" target="_top" xlink:title="1">
<text text-anchor="middle" x="184.239" y="-120.422" font-family="Helvetica,sans-Serif" font-size="10.00" fill="#000000">1</text>
</a>
</g>
</g>
<!-- dir_3d3615e9a999cab4f3407307569d6ced -->
<g id="node7" class="node">
<title>dir_3d3615e9a999cab4f3407307569d6ced</title>
<g id="a_node7"><a xlink:href="dir_3d3615e9a999cab4f3407307569d6ced.html" target="_top" xlink:title="core">
<polygon fill="#ffffff" stroke="#ff0000" points="148.2785,-36 94.2785,-36 94.2785,0 148.2785,0 148.2785,-36"/>
<text text-anchor="middle" x="121.2785" y="-15.5" font-family="Helvetica,sans-Serif" font-size="10.00" fill="#000000">core</text>
</a>
</g>
</g>
<!-- dir_4012ff34c1bb5bd303e44a1c9cef6c8a&#45;&gt;dir_3d3615e9a999cab4f3407307569d6ced -->
<g id="edge16" class="edge">
<title>dir_4012ff34c1bb5bd303e44a1c9cef6c8a&#45;&gt;dir_3d3615e9a999cab4f3407307569d6ced</title>
<path fill="none" stroke="#000000" d="M37.2625,-289.479C24.7315,-280.1877 11.1203,-267.3624 4.2785,-252 -2.2309,-237.384 .1834,-231.4671 4.2785,-216 22.2541,-148.1068 70.7645,-80.0349 99.3621,-44.083"/>
<polygon fill="#000000" stroke="#000000" points="102.2711,-46.0515 105.83,-36.0723 96.8248,-41.6541 102.2711,-46.0515"/>
<g id="a_edge16&#45;headlabel"><a xlink:href="dir_000003_000009.html" target="_top" xlink:title="16">
<text text-anchor="middle" x="102.2221" y="-48.1319" font-family="Helvetica,sans-Serif" font-size="10.00" fill="#000000">16</text>
</a>
</g>
</g>
<!-- dir_5d2cf0e24161a778738de20190787a10 -->
<g id="node2" class="node">
<title>dir_5d2cf0e24161a778738de20190787a10</title>
<g id="a_node2"><a xlink:href="dir_5d2cf0e24161a778738de20190787a10.html" target="_top" xlink:title="source_terms">
<polygon fill="#ffffff" stroke="#000000" points="185.2785,-324 109.2785,-324 109.2785,-288 185.2785,-288 185.2785,-324"/>
<text text-anchor="middle" x="147.2785" y="-303.5" font-family="Helvetica,sans-Serif" font-size="10.00" fill="#000000">source_terms</text>
</a>
</g>
</g>
<!-- dir_0c368f76a33d967d5b838b5681461de6 -->
<g id="node4" class="node">
<title>dir_0c368f76a33d967d5b838b5681461de6</title>
<g id="a_node4"><a xlink:href="dir_0c368f76a33d967d5b838b5681461de6.html" target="_top" xlink:title="wind_energy">
<polygon fill="none" stroke="#000000" points="254.7785,-403 183.7785,-403 183.7785,-367 254.7785,-367 254.7785,-403"/>
<text text-anchor="middle" x="219.2785" y="-382.5" font-family="Helvetica,sans-Serif" font-size="10.00" fill="#000000">wind_energy</text>
</a>
</g>
</g>
<!-- dir_5d2cf0e24161a778738de20190787a10&#45;&gt;dir_0c368f76a33d967d5b838b5681461de6 -->
<g id="edge1" class="edge">
<title>dir_5d2cf0e24161a778738de20190787a10&#45;&gt;dir_0c368f76a33d967d5b838b5681461de6</title>
<path fill="none" stroke="#000000" d="M158.0963,-324.2234C166.5753,-334.6749 178.4921,-347.959 189.6221,-359.4405"/>
<polygon fill="#000000" stroke="#000000" points="187.2583,-362.0278 196.7785,-366.6772 192.2357,-357.1057 187.2583,-362.0278"/>
<g id="a_edge1&#45;headlabel"><a xlink:href="dir_000004_000001.html" target="_top" xlink:title="2">
<text text-anchor="middle" x="182.712" y="-358.9683" font-family="Helvetica,sans-Serif" font-size="10.00" fill="#000000">2</text>
</a>
</g>
</g>
<!-- dir_5d2cf0e24161a778738de20190787a10&#45;&gt;dir_e4cd57caa88bf1f4e1bf9521bc47c3c0 -->
<g id="edge2" class="edge">
<title>dir_5d2cf0e24161a778738de20190787a10&#45;&gt;dir_e4cd57caa88bf1f4e1bf9521bc47c3c0</title>
<path fill="none" stroke="#000000" d="M143.9856,-287.7623C139.5314,-263.0928 131.5448,-218.8598 126.3292,-189.9731"/>
<polygon fill="#000000" stroke="#000000" points="129.7659,-189.3086 124.5447,-180.0896 122.8773,-190.5524 129.7659,-189.3086"/>
<g id="a_edge2&#45;headlabel"><a xlink:href="dir_000004_000005.html" target="_top" xlink:title="7">
<text text-anchor="middle" x="133.1986" y="-189.8415" font-family="Helvetica,sans-Serif" font-size="10.00" fill="#000000">7</text>
</a>
</g>
</g>
<!-- dir_5d2cf0e24161a778738de20190787a10&#45;&gt;dir_3d3615e9a999cab4f3407307569d6ced -->
<g id="edge3" class="edge">
<title>dir_5d2cf0e24161a778738de20190787a10&#45;&gt;dir_3d3615e9a999cab4f3407307569d6ced</title>
<path fill="none" stroke="#000000" d="M162.6191,-287.8131C195.2111,-246.8409 264.9325,-145.1853 221.2785,-72 207.6314,-49.1208 180.5626,-35.3542 158.0261,-27.4522"/>
<polygon fill="#000000" stroke="#000000" points="158.9691,-24.0786 148.377,-24.3189 156.8072,-30.7364 158.9691,-24.0786"/>
<g id="a_edge3&#45;headlabel"><a xlink:href="dir_000004_000009.html" target="_top" xlink:title="10">
<text text-anchor="middle" x="163.2649" y="-19.9883" font-family="Helvetica,sans-Serif" font-size="10.00" fill="#000000">10</text>
</a>
</g>
</g>
<!-- dir_35ffb1505af3943bdf99903da87524fe&#45;&gt;dir_e4cd57caa88bf1f4e1bf9521bc47c3c0 -->
<g id="edge4" class="edge">
<title>dir_35ffb1505af3943bdf99903da87524fe&#45;&gt;dir_e4cd57caa88bf1f4e1bf9521bc47c3c0</title>
<path fill="none" stroke="#000000" d="M64.4565,-215.8314C73.6373,-207.1337 84.7791,-196.5783 94.756,-187.1265"/>
<polygon fill="#000000" stroke="#000000" points="97.2542,-189.5811 102.1066,-180.1628 92.4399,-184.4995 97.2542,-189.5811"/>
<g id="a_edge4&#45;headlabel"><a xlink:href="dir_000016_000005.html" target="_top" xlink:title="4">
<text text-anchor="middle" x="96.5974" y="-191.6145" font-family="Helvetica,sans-Serif" font-size="10.00" fill="#000000">4</text>
</a>
</g>
</g>
<!-- dir_35ffb1505af3943bdf99903da87524fe&#45;&gt;dir_3d3615e9a999cab4f3407307569d6ced -->
<g id="edge5" class="edge">
<title>dir_35ffb1505af3943bdf99903da87524fe&#45;&gt;dir_3d3615e9a999cab4f3407307569d6ced</title>
<path fill="none" stroke="#000000" d="M51.6275,-215.9555C64.8995,-178.235 95.657,-90.8188 111.483,-45.8399"/>
<polygon fill="#000000" stroke="#000000" points="114.8766,-46.7399 114.8941,-36.1451 108.2734,-44.4165 114.8766,-46.7399"/>
<g id="a_edge5&#45;headlabel"><a xlink:href="dir_000016_000009.html" target="_top" xlink:title="4">
<text text-anchor="middle" x="116.3619" y="-48.5731" font-family="Helvetica,sans-Serif" font-size="10.00" fill="#000000">4</text>
</a>
</g>
</g>
<!-- dir_0c368f76a33d967d5b838b5681461de6&#45;&gt;dir_4012ff34c1bb5bd303e44a1c9cef6c8a -->
<g id="edge8" class="edge">
<title>dir_0c368f76a33d967d5b838b5681461de6&#45;&gt;dir_4012ff34c1bb5bd303e44a1c9cef6c8a</title>
<path fill="none" stroke="#000000" d="M183.4965,-380.1613C153.5679,-375.5796 113.6793,-368.0626 100.2785,-359 90.7124,-352.5307 82.9844,-342.5918 77.177,-333.0614"/>
<polygon fill="#000000" stroke="#000000" points="80.1406,-331.1902 72.2002,-324.1758 74.0333,-334.6109 80.1406,-331.1902"/>
<g id="a_edge8&#45;headlabel"><a xlink:href="dir_000001_000003.html" target="_top" xlink:title="3">
<text text-anchor="middle" x="84.3743" y="-330.4389" font-family="Helvetica,sans-Serif" font-size="10.00" fill="#000000">3</text>
</a>
</g>
</g>
<!-- dir_0c368f76a33d967d5b838b5681461de6&#45;&gt;dir_5d2cf0e24161a778738de20190787a10 -->
<g id="edge6" class="edge">
<title>dir_0c368f76a33d967d5b838b5681461de6&#45;&gt;dir_5d2cf0e24161a778738de20190787a10</title>
<path fill="none" stroke="#000000" d="M208.38,-366.6772C199.8793,-356.2079 187.9541,-342.9206 176.8291,-331.4505"/>
<polygon fill="#000000" stroke="#000000" points="179.1996,-328.87 169.678,-324.2234 174.2237,-333.7935 179.1996,-328.87"/>
<g id="a_edge6&#45;headlabel"><a xlink:href="dir_000001_000004.html" target="_top" xlink:title="3">
<text text-anchor="middle" x="183.7461" y="-326.9281" font-family="Helvetica,sans-Serif" font-size="10.00" fill="#000000">3</text>
</a>
</g>
</g>
<!-- dir_0c368f76a33d967d5b838b5681461de6&#45;&gt;dir_e4cd57caa88bf1f4e1bf9521bc47c3c0 -->
<g id="edge7" class="edge">
<title>dir_0c368f76a33d967d5b838b5681461de6&#45;&gt;dir_e4cd57caa88bf1f4e1bf9521bc47c3c0</title>
<path fill="none" stroke="#000000" d="M218.035,-366.7191C215.9624,-343.8025 210.616,-303.6838 197.2785,-272 184.0807,-240.6482 161.088,-209.1442 143.8395,-187.9363"/>
<polygon fill="#000000" stroke="#000000" points="146.3868,-185.5249 137.3106,-180.0593 140.9974,-189.992 146.3868,-185.5249"/>
<g id="a_edge7&#45;headlabel"><a xlink:href="dir_000001_000005.html" target="_top" xlink:title="21">
<text text-anchor="middle" x="150.8667" y="-183.9806" font-family="Helvetica,sans-Serif" font-size="10.00" fill="#000000">21</text>
</a>
</g>
</g>
<!-- dir_0c368f76a33d967d5b838b5681461de6&#45;&gt;dir_7f7a014517bfe31ea45620a6a947e37b -->
<g id="edge9" class="edge">
<title>dir_0c368f76a33d967d5b838b5681461de6&#45;&gt;dir_7f7a014517bfe31ea45620a6a947e37b</title>
<path fill="none" stroke="#000000" d="M220.5884,-366.9452C221.9454,-344.5962 223.4606,-305.3969 220.2785,-272 215.0372,-216.9916 201.0772,-153.8824 192.4549,-118.2961"/>
<polygon fill="#000000" stroke="#000000" points="195.7528,-117.05 189.9659,-108.1751 188.9553,-118.7217 195.7528,-117.05"/>
<g id="a_edge9&#45;headlabel"><a xlink:href="dir_000001_000011.html" target="_top" xlink:title="1">
<text text-anchor="middle" x="199.3683" y="-117.3626" font-family="Helvetica,sans-Serif" font-size="10.00" fill="#000000">1</text>
</a>
</g>
</g>
<!-- dir_0c368f76a33d967d5b838b5681461de6&#45;&gt;dir_3d3615e9a999cab4f3407307569d6ced -->
<g id="edge10" class="edge">
<title>dir_0c368f76a33d967d5b838b5681461de6&#45;&gt;dir_3d3615e9a999cab4f3407307569d6ced</title>
<path fill="none" stroke="#000000" d="M245.7189,-366.915C279.3957,-341.5032 333.2785,-291.8114 333.2785,-234 333.2785,-234 333.2785,-234 333.2785,-162 333.2785,-78.5109 219.3774,-40.0478 158.5512,-25.4599"/>
<polygon fill="#000000" stroke="#000000" points="159.0897,-21.9925 148.5598,-23.1638 157.5218,-28.8147 159.0897,-21.9925"/>
<g id="a_edge10&#45;headlabel"><a xlink:href="dir_000001_000009.html" target="_top" xlink:title="7">
<text text-anchor="middle" x="163.2289" y="-17.5304" font-family="Helvetica,sans-Serif" font-size="10.00" fill="#000000">7</text>
</a>
</g>
</g>
<!-- dir_e4cd57caa88bf1f4e1bf9521bc47c3c0&#45;&gt;dir_7f7a014517bfe31ea45620a6a947e37b -->
<g id="edge11" class="edge">
<title>dir_e4cd57caa88bf1f4e1bf9521bc47c3c0&#45;&gt;dir_7f7a014517bfe31ea45620a6a947e37b</title>
<path fill="none" stroke="#000000" d="M137.4284,-143.8314C144.9502,-135.3694 154.035,-125.1489 162.2588,-115.8971"/>
<polygon fill="#000000" stroke="#000000" points="164.8834,-118.2127 168.9111,-108.4133 159.6515,-113.5621 164.8834,-118.2127"/>
<g id="a_edge11&#45;headlabel"><a xlink:href="dir_000005_000011.html" target="_top" xlink:title="1">
<text text-anchor="middle" x="164.6174" y="-120.2856" font-family="Helvetica,sans-Serif" font-size="10.00" fill="#000000">1</text>
</a>
</g>
</g>
<!-- dir_e4cd57caa88bf1f4e1bf9521bc47c3c0&#45;&gt;dir_3d3615e9a999cab4f3407307569d6ced -->
<g id="edge12" class="edge">
<title>dir_e4cd57caa88bf1f4e1bf9521bc47c3c0&#45;&gt;dir_3d3615e9a999cab4f3407307569d6ced</title>
<path fill="none" stroke="#000000" d="M116.6053,-143.7623C114.1455,-119.201 113.8708,-75.2474 115.7811,-46.3541"/>
<polygon fill="#000000" stroke="#000000" points="119.2937,-46.3416 116.6202,-36.0896 112.3169,-45.7712 119.2937,-46.3416"/>
<g id="a_edge12&#45;headlabel"><a xlink:href="dir_000005_000009.html" target="_top" xlink:title="11">
<text text-anchor="middle" x="121.8307" y="-47.6556" font-family="Helvetica,sans-Serif" font-size="10.00" fill="#000000">11</text>
</a>
</g>
</g>
<!-- dir_7f7a014517bfe31ea45620a6a947e37b&#45;&gt;dir_3d3615e9a999cab4f3407307569d6ced -->
<g id="edge17" class="edge">
<title>dir_7f7a014517bfe31ea45620a6a947e37b&#45;&gt;dir_3d3615e9a999cab4f3407307569d6ced</title>
<path fill="none" stroke="#000000" d="M169.1286,-71.8314C161.6068,-63.3694 152.522,-53.1489 144.2981,-43.8971"/>
<polygon fill="#000000" stroke="#000000" points="146.9054,-41.5621 137.6458,-36.4133 141.6736,-46.2127 146.9054,-41.5621"/>
<g id="a_edge17&#45;headlabel"><a xlink:href="dir_000011_000009.html" target="_top" xlink:title="1">
<text text-anchor="middle" x="151.4156" y="-39.8624" font-family="Helvetica,sans-Serif" font-size="10.00" fill="#000000">1</text>
</a>
</g>
</g>
<!-- dir_3d3615e9a999cab4f3407307569d6ced&#45;&gt;dir_e4cd57caa88bf1f4e1bf9521bc47c3c0 -->
<g id="edge18" class="edge">
<title>dir_3d3615e9a999cab4f3407307569d6ced&#45;&gt;dir_e4cd57caa88bf1f4e1bf9521bc47c3c0</title>
<path fill="none" stroke="#000000" d="M125.9368,-36.0896C128.4054,-60.5727 128.6889,-104.5174 126.7874,-133.4713"/>
<polygon fill="#000000" stroke="#000000" points="123.2727,-133.5118 125.9517,-143.7623 130.2497,-134.0785 123.2727,-133.5118"/>
<g id="a_edge18&#45;headlabel"><a xlink:href="dir_000009_000005.html" target="_top" xlink:title="1">
<text text-anchor="middle" x="120.7336" y="-127.1992" font-family="Helvetica,sans-Serif" font-size="10.00" fill="#000000">1</text>
</a>
</g>
</g>
</g>
</svg>
