<?xml version="1.0" encoding="UTF-8" standalone="no"?>
<!DOCTYPE svg PUBLIC "-//W3C//DTD SVG 1.1//EN"
 "http://www.w3.org/Graphics/SVG/1.1/DTD/svg11.dtd">
<!-- Generated by graphviz version 2.40.1 (20161225.0304)
 -->
<!-- Title: fvm.H Pages: 1 -->
<svg width="1954pt" height="375pt"
 viewBox="0.00 0.00 1953.50 375.00" xmlns="http://www.w3.org/2000/svg" xmlns:xlink="http://www.w3.org/1999/xlink">
<g id="graph0" class="graph" transform="scale(1 1) rotate(0) translate(4 371)">
<title>fvm.H</title>
<polygon fill="#ffffff" stroke="transparent" points="-4,4 -4,-371 1949.5,-371 1949.5,4 -4,4"/>
<!-- Node0 -->
<g id="node1" class="node">
<title>Node0</title>
<polygon fill="#bfbfbf" stroke="#000000" points="1499.5,-347.5 1499.5,-366.5 1543.5,-366.5 1543.5,-347.5 1499.5,-347.5"/>
<text text-anchor="middle" x="1521.5" y="-354.5" font-family="Helvetica,sans-Serif" font-size="10.00" fill="#000000">fvm.H</text>
</g>
<!-- Node1 -->
<g id="node2" class="node">
<title>Node1</title>
<g id="a_node2"><a xlink:href="curvature_8_h.html" target="_top" xlink:title="amr&#45;wind/fvm/curvature.H">
<polygon fill="#ffffff" stroke="#000000" points="1092.5,-286 1092.5,-305 1222.5,-305 1222.5,-286 1092.5,-286"/>
<text text-anchor="middle" x="1157.5" y="-293" font-family="Helvetica,sans-Serif" font-size="10.00" fill="#000000">amr&#45;wind/fvm/curvature.H</text>
</a>
</g>
</g>
<!-- Node0&#45;&gt;Node1 -->
<g id="edge1" class="edge">
<title>Node0&#45;&gt;Node1</title>
<path fill="none" stroke="#191970" d="M1499.2433,-353.8508C1450.5629,-346.8792 1331.0194,-329.3041 1231.5,-311 1224.9081,-309.7876 1218.0017,-308.4422 1211.1687,-307.065"/>
<polygon fill="#191970" stroke="#191970" points="1211.7536,-303.6123 1201.255,-305.0365 1210.3503,-310.4702 1211.7536,-303.6123"/>
</g>
<!-- Node28 -->
<g id="node29" class="node">
<title>Node28</title>
<g id="a_node29"><a xlink:href="divergence_8_h.html" target="_top" xlink:title="amr&#45;wind/fvm/divergence.H">
<polygon fill="#ffffff" stroke="#000000" points="1666,-286 1666,-305 1803,-305 1803,-286 1666,-286"/>
<text text-anchor="middle" x="1734.5" y="-293" font-family="Helvetica,sans-Serif" font-size="10.00" fill="#000000">amr&#45;wind/fvm/divergence.H</text>
</a>
</g>
</g>
<!-- Node0&#45;&gt;Node28 -->
<g id="edge45" class="edge">
<title>Node0&#45;&gt;Node28</title>
<path fill="none" stroke="#191970" d="M1543.8922,-350.5347C1578.8459,-340.4424 1646.9857,-320.7682 1691.6097,-307.8838"/>
<polygon fill="#191970" stroke="#191970" points="1692.6698,-311.2208 1701.3065,-305.0841 1690.728,-304.4955 1692.6698,-311.2208"/>
</g>
<!-- Node30 -->
<g id="node31" class="node">
<title>Node30</title>
<g id="a_node31"><a xlink:href="gradient_8_h.html" target="_top" xlink:title="amr&#45;wind/fvm/gradient.H">
<polygon fill="#ffffff" stroke="#000000" points="1821.5,-286 1821.5,-305 1945.5,-305 1945.5,-286 1821.5,-286"/>
<text text-anchor="middle" x="1883.5" y="-293" font-family="Helvetica,sans-Serif" font-size="10.00" fill="#000000">amr&#45;wind/fvm/gradient.H</text>
</a>
</g>
</g>
<!-- Node0&#45;&gt;Node30 -->
<g id="edge50" class="edge">
<title>Node0&#45;&gt;Node30</title>
<path fill="none" stroke="#191970" d="M1543.7644,-353.8927C1592.4602,-347.0036 1712.0319,-329.5811 1811.5,-311 1817.7688,-309.829 1824.3278,-308.5259 1830.826,-307.1867"/>
<polygon fill="#191970" stroke="#191970" points="1831.8683,-310.5443 1840.937,-305.0663 1830.4315,-303.6934 1831.8683,-310.5443"/>
</g>
<!-- Node31 -->
<g id="node32" class="node">
<title>Node31</title>
<g id="a_node32"><a xlink:href="laplacian_8_h.html" target="_top" xlink:title="amr&#45;wind/fvm/laplacian.H">
<polygon fill="#ffffff" stroke="#000000" points="1240.5,-286 1240.5,-305 1368.5,-305 1368.5,-286 1240.5,-286"/>
<text text-anchor="middle" x="1304.5" y="-293" font-family="Helvetica,sans-Serif" font-size="10.00" fill="#000000">amr&#45;wind/fvm/laplacian.H</text>
</a>
</g>
</g>
<!-- Node0&#45;&gt;Node31 -->
<g id="edge55" class="edge">
<title>Node0&#45;&gt;Node31</title>
<path fill="none" stroke="#191970" d="M1499.4987,-350.7646C1464.0632,-340.7218 1393.6975,-320.7795 1347.8945,-307.7984"/>
<polygon fill="#191970" stroke="#191970" points="1348.8077,-304.4195 1338.2323,-305.0601 1346.899,-311.1542 1348.8077,-304.4195"/>
</g>
<!-- Node32 -->
<g id="node33" class="node">
<title>Node32</title>
<g id="a_node33"><a xlink:href="strainrate_8_h.html" target="_top" xlink:title="amr&#45;wind/fvm/strainrate.H">
<polygon fill="#ffffff" stroke="#000000" points="1386.5,-286 1386.5,-305 1516.5,-305 1516.5,-286 1386.5,-286"/>
<text text-anchor="middle" x="1451.5" y="-293" font-family="Helvetica,sans-Serif" font-size="10.00" fill="#000000">amr&#45;wind/fvm/strainrate.H</text>
</a>
</g>
</g>
<!-- Node0&#45;&gt;Node32 -->
<g id="edge57" class="edge">
<title>Node0&#45;&gt;Node32</title>
<path fill="none" stroke="#191970" d="M1510.5625,-347.3906C1499.838,-337.9683 1483.2713,-323.4134 1470.4099,-312.1137"/>
<polygon fill="#191970" stroke="#191970" points="1472.4143,-309.2158 1462.5917,-305.2449 1467.7941,-314.4745 1472.4143,-309.2158"/>
</g>
<!-- Node33 -->
<g id="node34" class="node">
<title>Node33</title>
<g id="a_node34"><a xlink:href="vorticity__mag_8_h.html" target="_top" xlink:title="amr&#45;wind/fvm/vorticity\l_mag.H">
<polygon fill="#ffffff" stroke="#000000" points="1535,-280.5 1535,-310.5 1648,-310.5 1648,-280.5 1535,-280.5"/>
<text text-anchor="start" x="1543" y="-298.5" font-family="Helvetica,sans-Serif" font-size="10.00" fill="#000000">amr&#45;wind/fvm/vorticity</text>
<text text-anchor="middle" x="1591.5" y="-287.5" font-family="Helvetica,sans-Serif" font-size="10.00" fill="#000000">_mag.H</text>
</a>
</g>
</g>
<!-- Node0&#45;&gt;Node33 -->
<g id="edge59" class="edge">
<title>Node0&#45;&gt;Node33</title>
<path fill="none" stroke="#191970" d="M1532.4375,-347.3906C1541.5603,-339.3756 1554.9103,-327.6466 1566.6112,-317.3666"/>
<polygon fill="#191970" stroke="#191970" points="1569.1737,-319.7742 1574.3761,-310.5446 1564.5535,-314.5155 1569.1737,-319.7742"/>
</g>
<!-- Node2 -->
<g id="node3" class="node">
<title>Node2</title>
<g id="a_node3"><a xlink:href="fvm__utils_8_h.html" target="_top" xlink:title="amr&#45;wind/fvm/fvm_utils.H">
<polygon fill="#ffffff" stroke="#000000" points="1465,-224.5 1465,-243.5 1594,-243.5 1594,-224.5 1465,-224.5"/>
<text text-anchor="middle" x="1529.5" y="-231.5" font-family="Helvetica,sans-Serif" font-size="10.00" fill="#000000">amr&#45;wind/fvm/fvm_utils.H</text>
</a>
</g>
</g>
<!-- Node1&#45;&gt;Node2 -->
<g id="edge2" class="edge">
<title>Node1&#45;&gt;Node2</title>
<path fill="none" stroke="#191970" d="M1201.2494,-285.9333C1211.1758,-283.875 1221.6851,-281.7841 1231.5,-280 1307.2101,-266.2376 1394.2277,-253.1134 1454.6048,-244.4321"/>
<polygon fill="#191970" stroke="#191970" points="1455.4058,-247.8532 1464.8086,-242.9707 1454.4134,-240.9239 1455.4058,-247.8532"/>
</g>
<!-- Node3 -->
<g id="node4" class="node">
<title>Node3</title>
<g id="a_node4"><a xlink:href="_field_repo_8_h.html" target="_top" xlink:title="amr&#45;wind/core/FieldRepo.H">
<polygon fill="#ffffff" stroke="#000000" points="970.5,-168.5 970.5,-187.5 1106.5,-187.5 1106.5,-168.5 970.5,-168.5"/>
<text text-anchor="middle" x="1038.5" y="-175.5" font-family="Helvetica,sans-Serif" font-size="10.00" fill="#000000">amr&#45;wind/core/FieldRepo.H</text>
</a>
</g>
</g>
<!-- Node2&#45;&gt;Node3 -->
<g id="edge3" class="edge">
<title>Node2&#45;&gt;Node3</title>
<path fill="none" stroke="#191970" d="M1464.8054,-226.6214C1375.1438,-216.3952 1213.2817,-197.9344 1116.8761,-186.939"/>
<polygon fill="#191970" stroke="#191970" points="1117.2252,-183.4562 1106.893,-185.8004 1116.4319,-190.4111 1117.2252,-183.4562"/>
</g>
<!-- Node22 -->
<g id="node23" class="node">
<title>Node22</title>
<g id="a_node23"><a xlink:href="stencils_8_h.html" target="_top" xlink:title="Second&#45;order finite volume discretization stencil coefficients. ">
<polygon fill="#ffffff" stroke="#000000" points="1468,-168.5 1468,-187.5 1591,-187.5 1591,-168.5 1468,-168.5"/>
<text text-anchor="middle" x="1529.5" y="-175.5" font-family="Helvetica,sans-Serif" font-size="10.00" fill="#000000">amr&#45;wind/fvm/stencils.H</text>
</a>
</g>
</g>
<!-- Node2&#45;&gt;Node22 -->
<g id="edge39" class="edge">
<title>Node2&#45;&gt;Node22</title>
<path fill="none" stroke="#191970" d="M1529.5,-224.2455C1529.5,-216.9382 1529.5,-206.6944 1529.5,-197.7046"/>
<polygon fill="#191970" stroke="#191970" points="1533.0001,-197.6426 1529.5,-187.6427 1526.0001,-197.6427 1533.0001,-197.6426"/>
</g>
<!-- Node27 -->
<g id="node28" class="node">
<title>Node27</title>
<polygon fill="#ffffff" stroke="#bfbfbf" points="1609,-168.5 1609,-187.5 1704,-187.5 1704,-168.5 1609,-168.5"/>
<text text-anchor="middle" x="1656.5" y="-175.5" font-family="Helvetica,sans-Serif" font-size="10.00" fill="#000000">AMReX_MFIter.H</text>
</g>
<!-- Node2&#45;&gt;Node27 -->
<g id="edge44" class="edge">
<title>Node2&#45;&gt;Node27</title>
<path fill="none" stroke="#191970" d="M1551.3321,-224.3733C1571.8103,-215.3435 1602.6399,-201.7494 1625.6319,-191.6111"/>
<polygon fill="#191970" stroke="#191970" points="1627.215,-194.7383 1634.9528,-187.5011 1624.3907,-188.3333 1627.215,-194.7383"/>
</g>
<!-- Node4 -->
<g id="node5" class="node">
<title>Node4</title>
<polygon fill="#ffffff" stroke="#bfbfbf" points="434,-.5 434,-19.5 475,-19.5 475,-.5 434,-.5"/>
<text text-anchor="middle" x="454.5" y="-7.5" font-family="Helvetica,sans-Serif" font-size="10.00" fill="#000000">string</text>
</g>
<!-- Node3&#45;&gt;Node4 -->
<g id="edge4" class="edge">
<title>Node3&#45;&gt;Node4</title>
<path fill="none" stroke="#191970" d="M970.2609,-175.6656C888.2973,-171.6435 747.1361,-160.8223 629.5,-132 562.4011,-115.5599 534.747,-123.4108 484.5,-76 471.3688,-63.61 463.5344,-44.3843 459.1834,-29.8728"/>
<polygon fill="#191970" stroke="#191970" points="462.4761,-28.638 456.5053,-19.8859 455.715,-30.4512 462.4761,-28.638"/>
</g>
<!-- Node5 -->
<g id="node6" class="node">
<title>Node5</title>
<polygon fill="#ffffff" stroke="#bfbfbf" points="996,-56.5 996,-75.5 1079,-75.5 1079,-56.5 996,-56.5"/>
<text text-anchor="middle" x="1037.5" y="-63.5" font-family="Helvetica,sans-Serif" font-size="10.00" fill="#000000">unordered_map</text>
</g>
<!-- Node3&#45;&gt;Node5 -->
<g id="edge5" class="edge">
<title>Node3&#45;&gt;Node5</title>
<path fill="none" stroke="#191970" d="M1038.4147,-168.4509C1038.2516,-150.184 1037.8925,-109.9553 1037.6759,-85.6976"/>
<polygon fill="#191970" stroke="#191970" points="1041.1743,-85.4932 1037.585,-75.5249 1034.1746,-85.5558 1041.1743,-85.4932"/>
</g>
<!-- Node6 -->
<g id="node7" class="node">
<title>Node6</title>
<g id="a_node7"><a xlink:href="_field_desc_types_8_h.html" target="_top" xlink:title="amr&#45;wind/core/FieldDescTypes.H">
<polygon fill="#ffffff" stroke="#000000" points="975,-.5 975,-19.5 1138,-19.5 1138,-.5 975,-.5"/>
<text text-anchor="middle" x="1056.5" y="-7.5" font-family="Helvetica,sans-Serif" font-size="10.00" fill="#000000">amr&#45;wind/core/FieldDescTypes.H</text>
</a>
</g>
</g>
<!-- Node3&#45;&gt;Node6 -->
<g id="edge6" class="edge">
<title>Node3&#45;&gt;Node6</title>
<path fill="none" stroke="#191970" d="M1106.6576,-168.5228C1142.515,-161.7001 1186.4015,-150.3637 1222.5,-132 1257.0909,-114.4033 1273.0645,-111.1575 1289.5,-76 1293.2644,-67.9476 1295.144,-62.8672 1289.5,-56 1271.4709,-34.0635 1205.3986,-22.4162 1148.1971,-16.3364"/>
<polygon fill="#191970" stroke="#191970" points="1148.3046,-12.8293 1138.002,-15.3004 1147.5969,-19.7935 1148.3046,-12.8293"/>
</g>
<!-- Node7 -->
<g id="node8" class="node">
<title>Node7</title>
<g id="a_node8"><a xlink:href="_field_utils_8_h.html" target="_top" xlink:title="amr&#45;wind/core/FieldUtils.H">
<polygon fill="#ffffff" stroke="#000000" points="1338,-56.5 1338,-75.5 1471,-75.5 1471,-56.5 1338,-56.5"/>
<text text-anchor="middle" x="1404.5" y="-63.5" font-family="Helvetica,sans-Serif" font-size="10.00" fill="#000000">amr&#45;wind/core/FieldUtils.H</text>
</a>
</g>
</g>
<!-- Node3&#45;&gt;Node7 -->
<g id="edge7" class="edge">
<title>Node3&#45;&gt;Node7</title>
<path fill="none" stroke="#191970" d="M1106.6338,-171.1129C1178.2862,-163.1461 1285.7766,-148.9308 1323.5,-132 1349.1488,-120.4885 1373.4296,-98.7251 1388.5981,-83.3421"/>
<polygon fill="#191970" stroke="#191970" points="1391.2711,-85.6112 1395.6586,-75.9675 1386.2149,-80.7703 1391.2711,-85.6112"/>
</g>
<!-- Node8 -->
<g id="node9" class="node">
<title>Node8</title>
<polygon fill="#ffffff" stroke="#bfbfbf" points="193.5,-.5 193.5,-19.5 297.5,-19.5 297.5,-.5 193.5,-.5"/>
<text text-anchor="middle" x="245.5" y="-7.5" font-family="Helvetica,sans-Serif" font-size="10.00" fill="#000000">AMReX_MultiFab.H</text>
</g>
<!-- Node3&#45;&gt;Node8 -->
<g id="edge37" class="edge">
<title>Node3&#45;&gt;Node8</title>
<path fill="none" stroke="#191970" d="M970.2484,-177.1284C792.2766,-174.4217 317.2063,-164.2998 163.5,-132 94.6742,-117.537 55.4735,-133.8644 15.5,-76 10.4477,-68.6865 9.8645,-62.8742 15.5,-56 36.3358,-30.5844 122.3336,-18.9314 183.0387,-13.7899"/>
<polygon fill="#191970" stroke="#191970" points="183.6169,-17.2547 193.3029,-12.9615 183.0537,-10.2774 183.6169,-17.2547"/>
</g>
<!-- Node10 -->
<g id="node11" class="node">
<title>Node10</title>
<g id="a_node11"><a xlink:href="_field_8_h.html" target="_top" xlink:title="amr&#45;wind/core/Field.H">
<polygon fill="#ffffff" stroke="#000000" points="639,-112.5 639,-131.5 752,-131.5 752,-112.5 639,-112.5"/>
<text text-anchor="middle" x="695.5" y="-119.5" font-family="Helvetica,sans-Serif" font-size="10.00" fill="#000000">amr&#45;wind/core/Field.H</text>
</a>
</g>
</g>
<!-- Node3&#45;&gt;Node10 -->
<g id="edge11" class="edge">
<title>Node3&#45;&gt;Node10</title>
<path fill="none" stroke="#191970" d="M979.9259,-168.4369C919.446,-158.5626 825.237,-143.1815 761.9962,-132.8565"/>
<polygon fill="#191970" stroke="#191970" points="762.5555,-129.4016 752.1222,-131.2444 761.4275,-136.3101 762.5555,-129.4016"/>
</g>
<!-- Node17 -->
<g id="node18" class="node">
<title>Node17</title>
<g id="a_node18"><a xlink:href="_int_field_8_h.html" target="_top" xlink:title="amr&#45;wind/core/IntField.H">
<polygon fill="#ffffff" stroke="#000000" points="1068.5,-112.5 1068.5,-131.5 1192.5,-131.5 1192.5,-112.5 1068.5,-112.5"/>
<text text-anchor="middle" x="1130.5" y="-119.5" font-family="Helvetica,sans-Serif" font-size="10.00" fill="#000000">amr&#45;wind/core/IntField.H</text>
</a>
</g>
</g>
<!-- Node3&#45;&gt;Node17 -->
<g id="edge25" class="edge">
<title>Node3&#45;&gt;Node17</title>
<path fill="none" stroke="#191970" d="M1054.5252,-168.2455C1068.6408,-159.6534 1089.4263,-147.0014 1105.6899,-137.1018"/>
<polygon fill="#191970" stroke="#191970" points="1107.9363,-139.8319 1114.6585,-131.6427 1104.2966,-133.8525 1107.9363,-139.8319"/>
</g>
<!-- Node18 -->
<g id="node19" class="node">
<title>Node18</title>
<polygon fill="#ffffff" stroke="#bfbfbf" points="1174,-56.5 1174,-75.5 1281,-75.5 1281,-56.5 1174,-56.5"/>
<text text-anchor="middle" x="1227.5" y="-63.5" font-family="Helvetica,sans-Serif" font-size="10.00" fill="#000000">AMReX_iMultiFab.H</text>
</g>
<!-- Node3&#45;&gt;Node18 -->
<g id="edge38" class="edge">
<title>Node3&#45;&gt;Node18</title>
<path fill="none" stroke="#191970" d="M1090.783,-168.4801C1131.9942,-160.0434 1185.1448,-146.7932 1201.5,-132 1214.7465,-120.0187 1221.3288,-100.4299 1224.5462,-85.6988"/>
<polygon fill="#191970" stroke="#191970" points="1228.0393,-86.0552 1226.4054,-75.5871 1221.1547,-84.7893 1228.0393,-86.0552"/>
</g>
<!-- Node19 -->
<g id="node20" class="node">
<title>Node19</title>
<g id="a_node20"><a xlink:href="_scratch_field_8_h.html" target="_top" xlink:title="amr&#45;wind/core/ScratchField.H">
<polygon fill="#ffffff" stroke="#000000" points="172.5,-112.5 172.5,-131.5 318.5,-131.5 318.5,-112.5 172.5,-112.5"/>
<text text-anchor="middle" x="245.5" y="-119.5" font-family="Helvetica,sans-Serif" font-size="10.00" fill="#000000">amr&#45;wind/core/ScratchField.H</text>
</a>
</g>
</g>
<!-- Node3&#45;&gt;Node19 -->
<g id="edge29" class="edge">
<title>Node3&#45;&gt;Node19</title>
<path fill="none" stroke="#191970" d="M970.2029,-173.177C825.0857,-162.9291 486.4534,-139.0156 328.8898,-127.8888"/>
<polygon fill="#191970" stroke="#191970" points="328.9989,-124.3879 318.7772,-127.1747 328.5058,-131.3705 328.9989,-124.3879"/>
</g>
<!-- Node21 -->
<g id="node22" class="node">
<title>Node21</title>
<polygon fill="#ffffff" stroke="#bfbfbf" points="904.5,-112.5 904.5,-131.5 1010.5,-131.5 1010.5,-112.5 904.5,-112.5"/>
<text text-anchor="middle" x="957.5" y="-119.5" font-family="Helvetica,sans-Serif" font-size="10.00" fill="#000000">AMReX_AmrCore.H</text>
</g>
<!-- Node3&#45;&gt;Node21 -->
<g id="edge36" class="edge">
<title>Node3&#45;&gt;Node21</title>
<path fill="none" stroke="#191970" d="M1024.3909,-168.2455C1012.0791,-159.7337 994.0042,-147.2375 979.7462,-137.3801"/>
<polygon fill="#191970" stroke="#191970" points="981.6634,-134.4506 971.4474,-131.6427 977.6826,-140.2085 981.6634,-134.4506"/>
</g>
<!-- Node7&#45;&gt;Node6 -->
<g id="edge8" class="edge">
<title>Node7&#45;&gt;Node6</title>
<path fill="none" stroke="#191970" d="M1345.0721,-56.4369C1284.2634,-46.6516 1189.8476,-31.4582 1125.7072,-21.1368"/>
<polygon fill="#191970" stroke="#191970" points="1126.1119,-17.657 1115.6828,-19.5237 1124.9997,-24.5681 1126.1119,-17.657"/>
</g>
<!-- Node7&#45;&gt;Node8 -->
<g id="edge9" class="edge">
<title>Node7&#45;&gt;Node8</title>
<path fill="none" stroke="#191970" d="M1337.9507,-59.6991C1322.0841,-58.3392 1305.1995,-57.0088 1289.5,-56 905.5146,-31.3272 808.821,-38.7317 424.5,-20 385.7615,-18.1119 342.3247,-15.6926 307.9419,-13.7065"/>
<polygon fill="#191970" stroke="#191970" points="307.7632,-10.1904 297.5772,-13.1051 307.3577,-17.1786 307.7632,-10.1904"/>
</g>
<!-- Node9 -->
<g id="node10" class="node">
<title>Node9</title>
<polygon fill="#ffffff" stroke="#bfbfbf" points="1346.5,-.5 1346.5,-19.5 1462.5,-19.5 1462.5,-.5 1346.5,-.5"/>
<text text-anchor="middle" x="1404.5" y="-7.5" font-family="Helvetica,sans-Serif" font-size="10.00" fill="#000000">AMReX_Interpolater.H</text>
</g>
<!-- Node7&#45;&gt;Node9 -->
<g id="edge10" class="edge">
<title>Node7&#45;&gt;Node9</title>
<path fill="none" stroke="#191970" d="M1404.5,-56.2455C1404.5,-48.9382 1404.5,-38.6944 1404.5,-29.7046"/>
<polygon fill="#191970" stroke="#191970" points="1408.0001,-29.6426 1404.5,-19.6427 1401.0001,-29.6427 1408.0001,-29.6426"/>
</g>
<!-- Node10&#45;&gt;Node4 -->
<g id="edge12" class="edge">
<title>Node10&#45;&gt;Node4</title>
<path fill="none" stroke="#191970" d="M638.9251,-116.8706C600.6431,-111.3235 550.1981,-99.8171 511.5,-76 492.0667,-64.0396 475.7586,-43.2855 465.6317,-28.2379"/>
<polygon fill="#191970" stroke="#191970" points="468.5115,-26.2454 460.1524,-19.7357 462.6275,-30.0374 468.5115,-26.2454"/>
</g>
<!-- Node10&#45;&gt;Node5 -->
<g id="edge14" class="edge">
<title>Node10&#45;&gt;Node5</title>
<path fill="none" stroke="#191970" d="M752.2538,-113.167C809.9955,-104.1108 902.0447,-89.483 981.5,-76 982.9605,-75.7522 984.4422,-75.499 985.9374,-75.2421"/>
<polygon fill="#191970" stroke="#191970" points="986.671,-78.6671 995.924,-73.5065 985.4724,-71.7705 986.671,-78.6671"/>
</g>
<!-- Node10&#45;&gt;Node6 -->
<g id="edge19" class="edge">
<title>Node10&#45;&gt;Node6</title>
<path fill="none" stroke="#191970" d="M752.1217,-117.7053C804.4769,-112.35 883.7367,-100.6882 948.5,-76 965.8569,-69.3834 1007.3924,-42.7204 1033.6004,-25.3747"/>
<polygon fill="#191970" stroke="#191970" points="1035.7792,-28.129 1042.1665,-19.6761 1031.9019,-22.3009 1035.7792,-28.129"/>
</g>
<!-- Node10&#45;&gt;Node8 -->
<g id="edge15" class="edge">
<title>Node10&#45;&gt;Node8</title>
<path fill="none" stroke="#191970" d="M647.9808,-112.4163C605.1033,-103.5846 540.3732,-89.7942 484.5,-76 415.0513,-58.8543 335.0561,-36.1573 287.4711,-22.341"/>
<polygon fill="#191970" stroke="#191970" points="288.4041,-18.9674 277.8244,-19.5327 286.4475,-25.6884 288.4041,-18.9674"/>
</g>
<!-- Node11 -->
<g id="node12" class="node">
<title>Node11</title>
<polygon fill="#ffffff" stroke="#bfbfbf" points="520.5,-56.5 520.5,-75.5 572.5,-75.5 572.5,-56.5 520.5,-56.5"/>
<text text-anchor="middle" x="546.5" y="-63.5" font-family="Helvetica,sans-Serif" font-size="10.00" fill="#000000">memory</text>
</g>
<!-- Node10&#45;&gt;Node11 -->
<g id="edge13" class="edge">
<title>Node10&#45;&gt;Node11</title>
<path fill="none" stroke="#191970" d="M669.886,-112.3733C645.4313,-103.1822 608.3946,-89.2624 581.2791,-79.0713"/>
<polygon fill="#191970" stroke="#191970" points="582.3719,-75.7431 571.7798,-75.5011 579.9091,-82.2956 582.3719,-75.7431"/>
</g>
<!-- Node12 -->
<g id="node13" class="node">
<title>Node12</title>
<polygon fill="#ffffff" stroke="#bfbfbf" points="591,-56.5 591,-75.5 690,-75.5 690,-56.5 591,-56.5"/>
<text text-anchor="middle" x="640.5" y="-63.5" font-family="Helvetica,sans-Serif" font-size="10.00" fill="#000000">AMReX_BCRec.H</text>
</g>
<!-- Node10&#45;&gt;Node12 -->
<g id="edge16" class="edge">
<title>Node10&#45;&gt;Node12</title>
<path fill="none" stroke="#191970" d="M685.9197,-112.2455C677.9542,-104.1352 666.4359,-92.4075 656.9921,-82.7919"/>
<polygon fill="#191970" stroke="#191970" points="659.4747,-80.3247 649.9705,-75.6427 654.4805,-85.2297 659.4747,-80.3247"/>
</g>
<!-- Node13 -->
<g id="node14" class="node">
<title>Node13</title>
<polygon fill="#ffffff" stroke="#bfbfbf" points="708,-56.5 708,-75.5 793,-75.5 793,-56.5 708,-56.5"/>
<text text-anchor="middle" x="750.5" y="-63.5" font-family="Helvetica,sans-Serif" font-size="10.00" fill="#000000">AMReX_Gpu.H</text>
</g>
<!-- Node10&#45;&gt;Node13 -->
<g id="edge17" class="edge">
<title>Node10&#45;&gt;Node13</title>
<path fill="none" stroke="#191970" d="M705.0803,-112.2455C713.0458,-104.1352 724.5641,-92.4075 734.0079,-82.7919"/>
<polygon fill="#191970" stroke="#191970" points="736.5195,-85.2297 741.0295,-75.6427 731.5253,-80.3247 736.5195,-85.2297"/>
</g>
<!-- Node14 -->
<g id="node15" class="node">
<title>Node14</title>
<g id="a_node15"><a xlink:href="incflo__enums_8_h.html" target="_top" xlink:title="amr&#45;wind/incflo_enums.H">
<polygon fill="#ffffff" stroke="#000000" points="811.5,-56.5 811.5,-75.5 939.5,-75.5 939.5,-56.5 811.5,-56.5"/>
<text text-anchor="middle" x="875.5" y="-63.5" font-family="Helvetica,sans-Serif" font-size="10.00" fill="#000000">amr&#45;wind/incflo_enums.H</text>
</a>
</g>
</g>
<!-- Node10&#45;&gt;Node14 -->
<g id="edge18" class="edge">
<title>Node10&#45;&gt;Node14</title>
<path fill="none" stroke="#191970" d="M726.4431,-112.3733C756.5039,-103.021 802.3026,-88.7725 835.1978,-78.5385"/>
<polygon fill="#191970" stroke="#191970" points="836.4519,-81.8139 844.9607,-75.5011 834.3723,-75.1299 836.4519,-81.8139"/>
</g>
<!-- Node15 -->
<g id="node16" class="node">
<title>Node15</title>
<g id="a_node16"><a xlink:href="_view_field_8_h.html" target="_top" xlink:title="amr&#45;wind/core/ViewField.H">
<polygon fill="#ffffff" stroke="#000000" points="178.5,-56.5 178.5,-75.5 312.5,-75.5 312.5,-56.5 178.5,-56.5"/>
<text text-anchor="middle" x="245.5" y="-63.5" font-family="Helvetica,sans-Serif" font-size="10.00" fill="#000000">amr&#45;wind/core/ViewField.H</text>
</a>
</g>
</g>
<!-- Node10&#45;&gt;Node15 -->
<g id="edge20" class="edge">
<title>Node10&#45;&gt;Node15</title>
<path fill="none" stroke="#191970" d="M638.9628,-114.9643C559.0682,-105.0218 412.8652,-86.8277 322.9323,-75.636"/>
<polygon fill="#191970" stroke="#191970" points="323.1478,-72.1359 312.7921,-74.3741 322.2833,-79.0823 323.1478,-72.1359"/>
</g>
<!-- Node15&#45;&gt;Node4 -->
<g id="edge21" class="edge">
<title>Node15&#45;&gt;Node4</title>
<path fill="none" stroke="#191970" d="M281.4284,-56.3733C321.6473,-45.5969 386.1283,-28.3197 423.9932,-18.1741"/>
<polygon fill="#191970" stroke="#191970" points="425.1716,-21.4819 433.925,-15.5129 423.3598,-14.7204 425.1716,-21.4819"/>
</g>
<!-- Node15&#45;&gt;Node6 -->
<g id="edge22" class="edge">
<title>Node15&#45;&gt;Node6</title>
<path fill="none" stroke="#191970" d="M312.5575,-61.3696C457.4353,-51.3657 799.8592,-27.7212 964.6963,-16.3391"/>
<polygon fill="#191970" stroke="#191970" points="965.0778,-19.8212 974.8129,-15.6405 964.5956,-12.8378 965.0778,-19.8212"/>
</g>
<!-- Node15&#45;&gt;Node8 -->
<g id="edge23" class="edge">
<title>Node15&#45;&gt;Node8</title>
<path fill="none" stroke="#191970" d="M245.5,-56.2455C245.5,-48.9382 245.5,-38.6944 245.5,-29.7046"/>
<polygon fill="#191970" stroke="#191970" points="249.0001,-29.6426 245.5,-19.6427 242.0001,-29.6427 249.0001,-29.6426"/>
</g>
<!-- Node16 -->
<g id="node17" class="node">
<title>Node16</title>
<polygon fill="#ffffff" stroke="#bfbfbf" points="0,-.5 0,-19.5 95,-19.5 95,-.5 0,-.5"/>
<text text-anchor="middle" x="47.5" y="-7.5" font-family="Helvetica,sans-Serif" font-size="10.00" fill="#000000">AMReX_Vector.H</text>
</g>
<!-- Node15&#45;&gt;Node16 -->
<g id="edge24" class="edge">
<title>Node15&#45;&gt;Node16</title>
<path fill="none" stroke="#191970" d="M211.4626,-56.3733C178.1106,-46.9404 127.1473,-32.5265 90.8998,-22.2747"/>
<polygon fill="#191970" stroke="#191970" points="91.6684,-18.8548 81.0933,-19.5011 89.7632,-25.5906 91.6684,-18.8548"/>
</g>
<!-- Node17&#45;&gt;Node4 -->
<g id="edge26" class="edge">
<title>Node17&#45;&gt;Node4</title>
<path fill="none" stroke="#191970" d="M1127.3524,-112.3084C1121.9051,-97.2872 1109.1734,-68.7848 1087.5,-56 1035.3298,-25.2256 605.7804,-13.3803 485.6236,-10.6507"/>
<polygon fill="#191970" stroke="#191970" points="485.371,-7.1444 475.2958,-10.4214 485.2156,-14.1426 485.371,-7.1444"/>
</g>
<!-- Node17&#45;&gt;Node6 -->
<g id="edge27" class="edge">
<title>Node17&#45;&gt;Node6</title>
<path fill="none" stroke="#191970" d="M1131.4757,-112.2541C1132.3565,-98.6333 1132.1754,-73.6 1121.5,-56 1113.4229,-42.6837 1099.8671,-32.1793 1087.2186,-24.5907"/>
<polygon fill="#191970" stroke="#191970" points="1088.6967,-21.4072 1078.2603,-19.5819 1085.2805,-27.517 1088.6967,-21.4072"/>
</g>
<!-- Node17&#45;&gt;Node18 -->
<g id="edge28" class="edge">
<title>Node17&#45;&gt;Node18</title>
<path fill="none" stroke="#191970" d="M1147.3961,-112.2455C1162.418,-103.5731 1184.6043,-90.7645 1201.821,-80.825"/>
<polygon fill="#191970" stroke="#191970" points="1203.8871,-83.6737 1210.7975,-75.6427 1200.3872,-77.6114 1203.8871,-83.6737"/>
</g>
<!-- Node19&#45;&gt;Node4 -->
<g id="edge30" class="edge">
<title>Node19&#45;&gt;Node4</title>
<path fill="none" stroke="#191970" d="M263.3192,-112.4509C300.106,-92.7375 384.6221,-47.4465 427.9004,-24.2543"/>
<polygon fill="#191970" stroke="#191970" points="429.5649,-27.3333 436.7259,-19.5249 426.2585,-21.1634 429.5649,-27.3333"/>
</g>
<!-- Node19&#45;&gt;Node6 -->
<g id="edge31" class="edge">
<title>Node19&#45;&gt;Node6</title>
<path fill="none" stroke="#191970" d="M277.0963,-112.4223C326.5787,-97.8193 425.5912,-70.1908 511.5,-56 669.4177,-29.9144 855.6607,-18.2374 964.4619,-13.3038"/>
<polygon fill="#191970" stroke="#191970" points="964.9109,-16.7874 974.7458,-12.8472 964.6003,-9.7943 964.9109,-16.7874"/>
</g>
<!-- Node19&#45;&gt;Node8 -->
<g id="edge33" class="edge">
<title>Node19&#45;&gt;Node8</title>
<path fill="none" stroke="#191970" d="M172.4209,-116.6466C115.1509,-110.7519 42.1364,-98.8939 23.5,-76 17.8884,-69.1064 17.8884,-62.8936 23.5,-56 43.3077,-31.6672 124.5439,-19.8012 183.0154,-14.3113"/>
<polygon fill="#191970" stroke="#191970" points="183.636,-17.7698 193.2832,-13.3901 183.0104,-10.7978 183.636,-17.7698"/>
</g>
<!-- Node19&#45;&gt;Node15 -->
<g id="edge32" class="edge">
<title>Node19&#45;&gt;Node15</title>
<path fill="none" stroke="#191970" d="M245.5,-112.2455C245.5,-104.9382 245.5,-94.6944 245.5,-85.7046"/>
<polygon fill="#191970" stroke="#191970" points="249.0001,-85.6426 245.5,-75.6427 242.0001,-85.6427 249.0001,-85.6426"/>
</g>
<!-- Node19&#45;&gt;Node16 -->
<g id="edge34" class="edge">
<title>Node19&#45;&gt;Node16</title>
<path fill="none" stroke="#191970" d="M172.4735,-117.2703C112.7807,-111.7014 35.1531,-99.9729 15.5,-76 3.3749,-61.2098 16.4905,-41.0575 29.4041,-26.9253"/>
<polygon fill="#191970" stroke="#191970" points="31.9132,-29.3654 36.3959,-19.7656 26.9051,-24.4747 31.9132,-29.3654"/>
</g>
<!-- Node20 -->
<g id="node21" class="node">
<title>Node20</title>
<polygon fill="#ffffff" stroke="#bfbfbf" points="32.5,-56.5 32.5,-75.5 160.5,-75.5 160.5,-56.5 32.5,-56.5"/>
<text text-anchor="middle" x="96.5" y="-63.5" font-family="Helvetica,sans-Serif" font-size="10.00" fill="#000000">AMReX_PhysBCFunct.H</text>
</g>
<!-- Node19&#45;&gt;Node20 -->
<g id="edge35" class="edge">
<title>Node19&#45;&gt;Node20</title>
<path fill="none" stroke="#191970" d="M219.886,-112.3733C195.4313,-103.1822 158.3946,-89.2624 131.2791,-79.0713"/>
<polygon fill="#191970" stroke="#191970" points="132.3719,-75.7431 121.7798,-75.5011 129.9091,-82.2956 132.3719,-75.7431"/>
</g>
<!-- Node23 -->
<g id="node24" class="node">
<title>Node23</title>
<polygon fill="#ffffff" stroke="#bfbfbf" points="1376,-112.5 1376,-131.5 1469,-131.5 1469,-112.5 1376,-112.5"/>
<text text-anchor="middle" x="1422.5" y="-119.5" font-family="Helvetica,sans-Serif" font-size="10.00" fill="#000000">AMReX_REAL.H</text>
</g>
<!-- Node22&#45;&gt;Node23 -->
<g id="edge40" class="edge">
<title>Node22&#45;&gt;Node23</title>
<path fill="none" stroke="#191970" d="M1510.862,-168.2455C1494.0614,-159.4527 1469.1366,-146.4079 1450.0382,-136.4125"/>
<polygon fill="#191970" stroke="#191970" points="1451.4073,-133.1787 1440.9244,-131.6427 1448.1614,-139.3807 1451.4073,-133.1787"/>
</g>
<!-- Node24 -->
<g id="node25" class="node">
<title>Node24</title>
<polygon fill="#ffffff" stroke="#bfbfbf" points="1487.5,-112.5 1487.5,-131.5 1571.5,-131.5 1571.5,-112.5 1487.5,-112.5"/>
<text text-anchor="middle" x="1529.5" y="-119.5" font-family="Helvetica,sans-Serif" font-size="10.00" fill="#000000">AMReX_Box.H</text>
</g>
<!-- Node22&#45;&gt;Node24 -->
<g id="edge41" class="edge">
<title>Node22&#45;&gt;Node24</title>
<path fill="none" stroke="#191970" d="M1529.5,-168.2455C1529.5,-160.9382 1529.5,-150.6944 1529.5,-141.7046"/>
<polygon fill="#191970" stroke="#191970" points="1533.0001,-141.6426 1529.5,-131.6427 1526.0001,-141.6427 1533.0001,-141.6426"/>
</g>
<!-- Node25 -->
<g id="node26" class="node">
<title>Node25</title>
<polygon fill="#ffffff" stroke="#bfbfbf" points="1589.5,-112.5 1589.5,-131.5 1703.5,-131.5 1703.5,-112.5 1589.5,-112.5"/>
<text text-anchor="middle" x="1646.5" y="-119.5" font-family="Helvetica,sans-Serif" font-size="10.00" fill="#000000">AMReX_Orientation.H</text>
</g>
<!-- Node22&#45;&gt;Node25 -->
<g id="edge42" class="edge">
<title>Node22&#45;&gt;Node25</title>
<path fill="none" stroke="#191970" d="M1549.613,-168.3733C1568.3103,-159.4241 1596.3744,-145.9917 1617.4934,-135.8835"/>
<polygon fill="#191970" stroke="#191970" points="1619.1405,-138.9755 1626.6494,-131.5011 1616.1183,-132.6614 1619.1405,-138.9755"/>
</g>
<!-- Node26 -->
<g id="node27" class="node">
<title>Node26</title>
<polygon fill="#ffffff" stroke="#bfbfbf" points="1721.5,-112.5 1721.5,-131.5 1831.5,-131.5 1831.5,-112.5 1721.5,-112.5"/>
<text text-anchor="middle" x="1776.5" y="-119.5" font-family="Helvetica,sans-Serif" font-size="10.00" fill="#000000">AMReX_Geometry.H</text>
</g>
<!-- Node22&#45;&gt;Node26 -->
<g id="edge43" class="edge">
<title>Node22&#45;&gt;Node26</title>
<path fill="none" stroke="#191970" d="M1571.6802,-168.4369C1613.9523,-158.8529 1679.1062,-144.0812 1724.5417,-133.78"/>
<polygon fill="#191970" stroke="#191970" points="1725.5152,-137.1482 1734.4938,-131.5237 1723.9674,-130.3215 1725.5152,-137.1482"/>
</g>
<!-- Node28&#45;&gt;Node2 -->
<g id="edge46" class="edge">
<title>Node28&#45;&gt;Node2</title>
<path fill="none" stroke="#191970" d="M1702.4688,-285.8906C1667.1154,-275.2846 1610.0843,-258.1753 1571.2522,-246.5257"/>
<polygon fill="#191970" stroke="#191970" points="1571.8903,-243.0631 1561.3063,-243.5419 1569.8788,-249.7678 1571.8903,-243.0631"/>
</g>
<!-- Node28&#45;&gt;Node26 -->
<g id="edge48" class="edge">
<title>Node28&#45;&gt;Node26</title>
<path fill="none" stroke="#191970" d="M1736.7884,-285.7804C1740.0332,-272.0206 1746.17,-246.0771 1751.5,-224 1758.4318,-195.2883 1766.6018,-162.0688 1771.6671,-141.5443"/>
<polygon fill="#191970" stroke="#191970" points="1775.1338,-142.1047 1774.1341,-131.5571 1768.3381,-140.4259 1775.1338,-142.1047"/>
</g>
<!-- Node28&#45;&gt;Node27 -->
<g id="edge49" class="edge">
<title>Node28&#45;&gt;Node27</title>
<path fill="none" stroke="#191970" d="M1728.1169,-285.8845C1715.1474,-266.3471 1685.5234,-221.7211 1668.7215,-196.4106"/>
<polygon fill="#191970" stroke="#191970" points="1671.4179,-194.1441 1662.9713,-187.7484 1665.5859,-198.0155 1671.4179,-194.1441"/>
</g>
<!-- Node29 -->
<g id="node30" class="node">
<title>Node29</title>
<polygon fill="#ffffff" stroke="#bfbfbf" points="1761,-224.5 1761,-243.5 1856,-243.5 1856,-224.5 1761,-224.5"/>
<text text-anchor="middle" x="1808.5" y="-231.5" font-family="Helvetica,sans-Serif" font-size="10.00" fill="#000000">AMReX_Array4.H</text>
</g>
<!-- Node28&#45;&gt;Node29 -->
<g id="edge47" class="edge">
<title>Node28&#45;&gt;Node29</title>
<path fill="none" stroke="#191970" d="M1746.0625,-285.8906C1757.5079,-276.3786 1775.2473,-261.6357 1788.897,-250.2917"/>
<polygon fill="#191970" stroke="#191970" points="1791.3208,-252.8283 1796.7745,-243.7449 1786.8467,-247.4447 1791.3208,-252.8283"/>
</g>
<!-- Node30&#45;&gt;Node2 -->
<g id="edge51" class="edge">
<title>Node30&#45;&gt;Node2</title>
<path fill="none" stroke="#191970" d="M1840.9312,-285.9648C1831.2732,-283.9049 1821.0485,-281.8054 1811.5,-280 1741.264,-266.7201 1660.7491,-253.8158 1603.7804,-245.0717"/>
<polygon fill="#191970" stroke="#191970" points="1604.1951,-241.5945 1593.7809,-243.5425 1603.1369,-248.5141 1604.1951,-241.5945"/>
</g>
<!-- Node30&#45;&gt;Node26 -->
<g id="edge53" class="edge">
<title>Node30&#45;&gt;Node26</title>
<path fill="none" stroke="#191970" d="M1886.2761,-285.7587C1889.7927,-271.5241 1894.3952,-244.5063 1885.5,-224 1868.6167,-185.0782 1828.7557,-154.2261 1802.2068,-137.0383"/>
<polygon fill="#191970" stroke="#191970" points="1803.7628,-133.8829 1793.4307,-131.5378 1800.0452,-139.8142 1803.7628,-133.8829"/>
</g>
<!-- Node30&#45;&gt;Node27 -->
<g id="edge54" class="edge">
<title>Node30&#45;&gt;Node27</title>
<path fill="none" stroke="#191970" d="M1883.8848,-285.5954C1883.9111,-270.1371 1881.5589,-240.3557 1864.5,-224 1843.3079,-203.6814 1768.3987,-190.8724 1714.5528,-184.0735"/>
<polygon fill="#191970" stroke="#191970" points="1714.7755,-180.5747 1704.4243,-182.8334 1713.9248,-187.5228 1714.7755,-180.5747"/>
</g>
<!-- Node30&#45;&gt;Node29 -->
<g id="edge52" class="edge">
<title>Node30&#45;&gt;Node29</title>
<path fill="none" stroke="#191970" d="M1871.7813,-285.8906C1860.1812,-276.3786 1842.2021,-261.6357 1828.3679,-250.2917"/>
<polygon fill="#191970" stroke="#191970" points="1830.336,-247.3792 1820.384,-243.7449 1825.8974,-252.7921 1830.336,-247.3792"/>
</g>
<!-- Node31&#45;&gt;Node2 -->
<g id="edge56" class="edge">
<title>Node31&#45;&gt;Node2</title>
<path fill="none" stroke="#191970" d="M1339.6563,-285.8906C1378.7889,-275.1944 1442.121,-257.8836 1484.7582,-246.2294"/>
<polygon fill="#191970" stroke="#191970" points="1485.8673,-249.5547 1494.5906,-243.5419 1484.0216,-242.8024 1485.8673,-249.5547"/>
</g>
<!-- Node32&#45;&gt;Node2 -->
<g id="edge58" class="edge">
<title>Node32&#45;&gt;Node2</title>
<path fill="none" stroke="#191970" d="M1463.6875,-285.8906C1475.937,-276.2324 1495.0263,-261.1812 1509.4977,-249.771"/>
<polygon fill="#191970" stroke="#191970" points="1511.7124,-252.4819 1517.3981,-243.5419 1507.3783,-246.985 1511.7124,-252.4819"/>
</g>
<!-- Node33&#45;&gt;Node2 -->
<g id="edge60" class="edge">
<title>Node33&#45;&gt;Node2</title>
<path fill="none" stroke="#191970" d="M1576.1742,-280.2977C1567.2093,-271.4052 1555.8712,-260.1586 1546.6149,-250.9769"/>
<polygon fill="#191970" stroke="#191970" points="1548.9915,-248.4045 1539.427,-243.8469 1544.0618,-253.3742 1548.9915,-248.4045"/>
</g>
</g>
</svg>
