<?xml version="1.0" encoding="UTF-8" standalone="no"?>
<!DOCTYPE svg PUBLIC "-//W3C//DTD SVG 1.1//EN"
 "http://www.w3.org/Graphics/SVG/1.1/DTD/svg11.dtd">
<!-- Generated by graphviz version 2.40.1 (20161225.0304)
 -->
<!-- Title: fvm_utils.H Pages: 1 -->
<svg width="741pt" height="196pt"
 viewBox="0.00 0.00 741.00 196.00" xmlns="http://www.w3.org/2000/svg" xmlns:xlink="http://www.w3.org/1999/xlink">
<g id="graph0" class="graph" transform="scale(1 1) rotate(0) translate(4 192)">
<title>fvm_utils.H</title>
<polygon fill="#ffffff" stroke="transparent" points="-4,4 -4,-192 737,-192 737,4 -4,4"/>
<!-- Node26 -->
<g id="node1" class="node">
<title>Node26</title>
<polygon fill="#bfbfbf" stroke="#000000" points="280.5,-168.5 280.5,-187.5 347.5,-187.5 347.5,-168.5 280.5,-168.5"/>
<text text-anchor="middle" x="314" y="-175.5" font-family="Helvetica,sans-Serif" font-size="10.00" fill="#000000">fvm_utils.H</text>
</g>
<!-- Node27 -->
<g id="node2" class="node">
<title>Node27</title>
<g id="a_node2"><a xlink:href="divergence_8_h.html" target="_top" xlink:title="divergence.H">
<polygon fill="#ffffff" stroke="#000000" points="0,-112.5 0,-131.5 74,-131.5 74,-112.5 0,-112.5"/>
<text text-anchor="middle" x="37" y="-119.5" font-family="Helvetica,sans-Serif" font-size="10.00" fill="#000000">divergence.H</text>
</a>
</g>
</g>
<!-- Node26&#45;&gt;Node27 -->
<g id="edge1" class="edge">
<title>Node26&#45;&gt;Node27</title>
<path fill="none" stroke="#191970" d="M270.2666,-169.5277C223.7772,-160.4662 148.1314,-145.5634 83,-132 80.1196,-131.4002 77.1397,-130.7713 74.1452,-130.1334"/>
<polygon fill="#191970" stroke="#191970" points="269.8126,-173.0049 280.2972,-171.4803 271.1502,-166.1339 269.8126,-173.0049"/>
</g>
<!-- Node31 -->
<g id="node6" class="node">
<title>Node31</title>
<g id="a_node6"><a xlink:href="curvature_8_h.html" target="_top" xlink:title="curvature.H">
<polygon fill="#ffffff" stroke="#000000" points="366,-112.5 366,-131.5 434,-131.5 434,-112.5 366,-112.5"/>
<text text-anchor="middle" x="400" y="-119.5" font-family="Helvetica,sans-Serif" font-size="10.00" fill="#000000">curvature.H</text>
</a>
</g>
</g>
<!-- Node26&#45;&gt;Node31 -->
<g id="edge5" class="edge">
<title>Node26&#45;&gt;Node31</title>
<path fill="none" stroke="#191970" d="M337.3905,-162.769C352.6299,-152.8456 372.0509,-140.1994 385.1916,-131.6427"/>
<polygon fill="#191970" stroke="#191970" points="335.4502,-159.8558 328.9801,-168.2455 339.2699,-165.7218 335.4502,-159.8558"/>
</g>
<!-- Node32 -->
<g id="node7" class="node">
<title>Node32</title>
<g id="a_node7"><a xlink:href="gradient_8_h.html" target="_top" xlink:title="gradient.H">
<polygon fill="#ffffff" stroke="#000000" points="452,-112.5 452,-131.5 514,-131.5 514,-112.5 452,-112.5"/>
<text text-anchor="middle" x="483" y="-119.5" font-family="Helvetica,sans-Serif" font-size="10.00" fill="#000000">gradient.H</text>
</a>
</g>
</g>
<!-- Node26&#45;&gt;Node32 -->
<g id="edge7" class="edge">
<title>Node26&#45;&gt;Node32</title>
<path fill="none" stroke="#191970" d="M352.6573,-165.1905C383.6193,-154.9309 426.3574,-140.7691 454.327,-131.5011"/>
<polygon fill="#191970" stroke="#191970" points="351.4437,-161.9054 343.0521,-168.3733 353.6455,-168.5501 351.4437,-161.9054"/>
</g>
<!-- Node36 -->
<g id="node11" class="node">
<title>Node36</title>
<g id="a_node11"><a xlink:href="laplacian_8_h.html" target="_top" xlink:title="laplacian.H">
<polygon fill="#ffffff" stroke="#000000" points="92.5,-112.5 92.5,-131.5 157.5,-131.5 157.5,-112.5 92.5,-112.5"/>
<text text-anchor="middle" x="125" y="-119.5" font-family="Helvetica,sans-Serif" font-size="10.00" fill="#000000">laplacian.H</text>
</a>
</g>
</g>
<!-- Node26&#45;&gt;Node36 -->
<g id="edge12" class="edge">
<title>Node26&#45;&gt;Node36</title>
<path fill="none" stroke="#191970" d="M271.6643,-165.4561C236.9706,-155.1765 188.6166,-140.8494 157.0663,-131.5011"/>
<polygon fill="#191970" stroke="#191970" points="270.9274,-168.8881 281.5097,-168.3733 272.9161,-162.1765 270.9274,-168.8881"/>
</g>
<!-- Node37 -->
<g id="node12" class="node">
<title>Node37</title>
<g id="a_node12"><a xlink:href="strainrate_8_h.html" target="_top" xlink:title="strainrate.H">
<polygon fill="#ffffff" stroke="#000000" points="541,-112.5 541,-131.5 609,-131.5 609,-112.5 541,-112.5"/>
<text text-anchor="middle" x="575" y="-119.5" font-family="Helvetica,sans-Serif" font-size="10.00" fill="#000000">strainrate.H</text>
</a>
</g>
</g>
<!-- Node26&#45;&gt;Node37 -->
<g id="edge14" class="edge">
<title>Node26&#45;&gt;Node37</title>
<path fill="none" stroke="#191970" d="M357.4172,-168.6844C408.8903,-157.6404 493.6123,-139.4625 540.7133,-129.3565"/>
<polygon fill="#191970" stroke="#191970" points="356.6301,-165.2736 347.5869,-170.7936 358.0986,-172.1178 356.6301,-165.2736"/>
</g>
<!-- Node39 -->
<g id="node14" class="node">
<title>Node39</title>
<g id="a_node14"><a xlink:href="vorticity__mag_8_h.html" target="_top" xlink:title="vorticity_mag.H">
<polygon fill="#ffffff" stroke="#000000" points="176,-112.5 176,-131.5 262,-131.5 262,-112.5 176,-112.5"/>
<text text-anchor="middle" x="219" y="-119.5" font-family="Helvetica,sans-Serif" font-size="10.00" fill="#000000">vorticity_mag.H</text>
</a>
</g>
</g>
<!-- Node26&#45;&gt;Node39 -->
<g id="edge18" class="edge">
<title>Node26&#45;&gt;Node39</title>
<path fill="none" stroke="#191970" d="M288.6324,-163.0465C271.729,-153.0824 250.0096,-140.2794 235.3581,-131.6427"/>
<polygon fill="#191970" stroke="#191970" points="287.0602,-166.1825 297.4523,-168.2455 290.6149,-160.1522 287.0602,-166.1825"/>
</g>
<!-- Node40 -->
<g id="node15" class="node">
<title>Node40</title>
<g id="a_node15"><a xlink:href="qcriterion_8_h.html" target="_top" xlink:title="qcriterion.H">
<polygon fill="#ffffff" stroke="#000000" points="280.5,-112.5 280.5,-131.5 347.5,-131.5 347.5,-112.5 280.5,-112.5"/>
<text text-anchor="middle" x="314" y="-119.5" font-family="Helvetica,sans-Serif" font-size="10.00" fill="#000000">qcriterion.H</text>
</a>
</g>
</g>
<!-- Node26&#45;&gt;Node40 -->
<g id="edge20" class="edge">
<title>Node26&#45;&gt;Node40</title>
<path fill="none" stroke="#191970" d="M314,-158.1575C314,-149.155 314,-138.9199 314,-131.6427"/>
<polygon fill="#191970" stroke="#191970" points="310.5001,-158.2455 314,-168.2455 317.5001,-158.2456 310.5001,-158.2455"/>
</g>
<!-- Node28 -->
<g id="node3" class="node">
<title>Node28</title>
<g id="a_node3"><a xlink:href="icns__ops_8cpp.html" target="_top" xlink:title="icns_ops.cpp">
<polygon fill="#ffffff" stroke="#000000" points="0,-56.5 0,-75.5 74,-75.5 74,-56.5 0,-56.5"/>
<text text-anchor="middle" x="37" y="-63.5" font-family="Helvetica,sans-Serif" font-size="10.00" fill="#000000">icns_ops.cpp</text>
</a>
</g>
</g>
<!-- Node27&#45;&gt;Node28 -->
<g id="edge2" class="edge">
<title>Node27&#45;&gt;Node28</title>
<path fill="none" stroke="#191970" d="M37,-102.1575C37,-93.155 37,-82.9199 37,-75.6427"/>
<polygon fill="#191970" stroke="#191970" points="33.5001,-102.2455 37,-112.2455 40.5001,-102.2456 33.5001,-102.2455"/>
</g>
<!-- Node29 -->
<g id="node4" class="node">
<title>Node29</title>
<g id="a_node4"><a xlink:href="fvm_8_h.html" target="_top" xlink:title="fvm.H">
<polygon fill="#ffffff" stroke="#000000" points="269,-56.5 269,-75.5 313,-75.5 313,-56.5 269,-56.5"/>
<text text-anchor="middle" x="291" y="-63.5" font-family="Helvetica,sans-Serif" font-size="10.00" fill="#000000">fvm.H</text>
</a>
</g>
</g>
<!-- Node27&#45;&gt;Node29 -->
<g id="edge3" class="edge">
<title>Node27&#45;&gt;Node29</title>
<path fill="none" stroke="#191970" d="M84.0585,-111.6249C139.0256,-99.5062 227.6609,-79.9645 268.7568,-70.904"/>
<polygon fill="#191970" stroke="#191970" points="83.2177,-108.2261 74.2058,-113.7971 84.7249,-115.062 83.2177,-108.2261"/>
</g>
<!-- Node30 -->
<g id="node5" class="node">
<title>Node30</title>
<g id="a_node5"><a xlink:href="_derived_qty_defs_8cpp.html" target="_top" xlink:title="DerivedQtyDefs.cpp">
<polygon fill="#ffffff" stroke="#000000" points="238,-.5 238,-19.5 344,-19.5 344,-.5 238,-.5"/>
<text text-anchor="middle" x="291" y="-7.5" font-family="Helvetica,sans-Serif" font-size="10.00" fill="#000000">DerivedQtyDefs.cpp</text>
</a>
</g>
</g>
<!-- Node29&#45;&gt;Node30 -->
<g id="edge4" class="edge">
<title>Node29&#45;&gt;Node30</title>
<path fill="none" stroke="#191970" d="M291,-46.1575C291,-37.155 291,-26.9199 291,-19.6427"/>
<polygon fill="#191970" stroke="#191970" points="287.5001,-46.2455 291,-56.2455 294.5001,-46.2456 287.5001,-46.2455"/>
</g>
<!-- Node31&#45;&gt;Node29 -->
<g id="edge6" class="edge">
<title>Node31&#45;&gt;Node29</title>
<path fill="none" stroke="#191970" d="M371.9658,-107.5971C352.4254,-97.558 326.8908,-84.4393 309.7688,-75.6427"/>
<polygon fill="#191970" stroke="#191970" points="370.5194,-110.7889 381.0136,-112.2455 373.7183,-104.5625 370.5194,-110.7889"/>
</g>
<!-- Node32&#45;&gt;Node29 -->
<g id="edge8" class="edge">
<title>Node32&#45;&gt;Node29</title>
<path fill="none" stroke="#191970" d="M442.1007,-110.7253C409.4922,-101.6372 362.7065,-88.3769 322,-76 319.1866,-75.1446 316.237,-74.2241 313.3228,-73.3002"/>
<polygon fill="#191970" stroke="#191970" points="441.1709,-114.0994 451.743,-113.4062 443.046,-107.3553 441.1709,-114.0994"/>
</g>
<!-- Node33 -->
<g id="node8" class="node">
<title>Node33</title>
<g id="a_node8"><a xlink:href="_zalesak_disk_8cpp.html" target="_top" xlink:title="ZalesakDisk.cpp">
<polygon fill="#ffffff" stroke="#000000" points="331,-56.5 331,-75.5 421,-75.5 421,-56.5 331,-56.5"/>
<text text-anchor="middle" x="376" y="-63.5" font-family="Helvetica,sans-Serif" font-size="10.00" fill="#000000">ZalesakDisk.cpp</text>
</a>
</g>
</g>
<!-- Node32&#45;&gt;Node33 -->
<g id="edge9" class="edge">
<title>Node32&#45;&gt;Node33</title>
<path fill="none" stroke="#191970" d="M455.4801,-107.5971C436.2983,-97.558 411.2322,-84.4393 394.4244,-75.6427"/>
<polygon fill="#191970" stroke="#191970" points="453.8791,-110.7095 464.362,-112.2455 457.125,-104.5075 453.8791,-110.7095"/>
</g>
<!-- Node34 -->
<g id="node9" class="node">
<title>Node34</title>
<g id="a_node9"><a xlink:href="_one_eq_ksgs_8cpp.html" target="_top" xlink:title="OneEqKsgs.cpp">
<polygon fill="#ffffff" stroke="#000000" points="535,-56.5 535,-75.5 623,-75.5 623,-56.5 535,-56.5"/>
<text text-anchor="middle" x="579" y="-63.5" font-family="Helvetica,sans-Serif" font-size="10.00" fill="#000000">OneEqKsgs.cpp</text>
</a>
</g>
</g>
<!-- Node32&#45;&gt;Node34 -->
<g id="edge10" class="edge">
<title>Node32&#45;&gt;Node34</title>
<path fill="none" stroke="#191970" d="M508.6346,-107.0465C525.7159,-97.0824 547.664,-84.2794 562.4697,-75.6427"/>
<polygon fill="#191970" stroke="#191970" points="506.5962,-104.1836 499.7219,-112.2455 510.1233,-110.23 506.5962,-104.1836"/>
</g>
<!-- Node35 -->
<g id="node10" class="node">
<title>Node35</title>
<g id="a_node10"><a xlink:href="_a_b_l_stats_8cpp.html" target="_top" xlink:title="ABLStats.cpp">
<polygon fill="#ffffff" stroke="#000000" points="439.5,-56.5 439.5,-75.5 516.5,-75.5 516.5,-56.5 439.5,-56.5"/>
<text text-anchor="middle" x="478" y="-63.5" font-family="Helvetica,sans-Serif" font-size="10.00" fill="#000000">ABLStats.cpp</text>
</a>
</g>
</g>
<!-- Node32&#45;&gt;Node35 -->
<g id="edge11" class="edge">
<title>Node32&#45;&gt;Node35</title>
<path fill="none" stroke="#191970" d="M481.2283,-102.1575C480.4246,-93.155 479.5107,-82.9199 478.861,-75.6427"/>
<polygon fill="#191970" stroke="#191970" points="477.7535,-102.5965 482.1291,-112.2455 484.7258,-101.9739 477.7535,-102.5965"/>
</g>
<!-- Node36&#45;&gt;Node29 -->
<g id="edge13" class="edge">
<title>Node36&#45;&gt;Node29</title>
<path fill="none" stroke="#191970" d="M163.2371,-109.1007C195.9821,-98.0542 241.9899,-82.5335 268.9304,-73.4452"/>
<polygon fill="#191970" stroke="#191970" points="161.893,-105.8603 153.5364,-112.3733 164.1306,-112.4931 161.893,-105.8603"/>
</g>
<!-- Node37&#45;&gt;Node29 -->
<g id="edge15" class="edge">
<title>Node37&#45;&gt;Node29</title>
<path fill="none" stroke="#191970" d="M531.0337,-113.5041C528.3159,-112.9916 525.6212,-112.4868 523,-112 433.7706,-95.4303 410.0527,-97.9809 322,-76 319.1469,-75.2878 316.1739,-74.4523 313.2473,-73.573"/>
<polygon fill="#191970" stroke="#191970" points="530.4093,-116.948 540.8868,-115.3752 531.7154,-110.0709 530.4093,-116.948"/>
</g>
<!-- Node37&#45;&gt;Node34 -->
<g id="edge16" class="edge">
<title>Node37&#45;&gt;Node34</title>
<path fill="none" stroke="#191970" d="M576.4173,-102.1575C577.0604,-93.155 577.7914,-82.9199 578.3112,-75.6427"/>
<polygon fill="#191970" stroke="#191970" points="572.9182,-102.0216 575.6967,-112.2455 579.9004,-102.5204 572.9182,-102.0216"/>
</g>
<!-- Node38 -->
<g id="node13" class="node">
<title>Node38</title>
<g id="a_node13"><a xlink:href="_smagorinsky_8cpp.html" target="_top" xlink:title="Smagorinsky.cpp">
<polygon fill="#ffffff" stroke="#000000" points="641,-56.5 641,-75.5 733,-75.5 733,-56.5 641,-56.5"/>
<text text-anchor="middle" x="687" y="-63.5" font-family="Helvetica,sans-Serif" font-size="10.00" fill="#000000">Smagorinsky.cpp</text>
</a>
</g>
</g>
<!-- Node37&#45;&gt;Node38 -->
<g id="edge17" class="edge">
<title>Node37&#45;&gt;Node38</title>
<path fill="none" stroke="#191970" d="M603.3263,-107.8368C623.5721,-97.7139 650.2642,-84.3679 667.9978,-75.5011"/>
<polygon fill="#191970" stroke="#191970" points="601.6325,-104.7706 594.2535,-112.3733 604.763,-111.0316 601.6325,-104.7706"/>
</g>
<!-- Node39&#45;&gt;Node29 -->
<g id="edge19" class="edge">
<title>Node39&#45;&gt;Node29</title>
<path fill="none" stroke="#191970" d="M239.664,-105.928C252.2489,-96.1397 267.9092,-83.9595 278.6023,-75.6427"/>
<polygon fill="#191970" stroke="#191970" points="237.2862,-103.3434 231.5414,-112.2455 241.5838,-108.8688 237.2862,-103.3434"/>
</g>
<!-- Node40&#45;&gt;Node29 -->
<g id="edge21" class="edge">
<title>Node40&#45;&gt;Node29</title>
<path fill="none" stroke="#191970" d="M306.0934,-102.7493C302.3383,-93.6064 298.0149,-83.0798 294.9604,-75.6427"/>
<polygon fill="#191970" stroke="#191970" points="302.9569,-104.3251 309.9937,-112.2455 309.432,-101.6656 302.9569,-104.3251"/>
</g>
</g>
</svg>
