<?xml version="1.0" encoding="UTF-8" standalone="no"?>
<!DOCTYPE svg PUBLIC "-//W3C//DTD SVG 1.1//EN"
 "http://www.w3.org/Graphics/SVG/1.1/DTD/svg11.dtd">
<!-- Generated by graphviz version 2.40.1 (20161225.0304)
 -->
<!-- Title: icns.H Pages: 1 -->
<svg width="411pt" height="140pt"
 viewBox="0.00 0.00 410.77 140.00" xmlns="http://www.w3.org/2000/svg" xmlns:xlink="http://www.w3.org/1999/xlink">
<g id="graph0" class="graph" transform="scale(1 1) rotate(0) translate(4 136)">
<title>icns.H</title>
<polygon fill="#ffffff" stroke="transparent" points="-4,4 -4,-136 406.7704,-136 406.7704,4 -4,4"/>
<!-- Node58 -->
<g id="node1" class="node">
<title>Node58</title>
<polygon fill="#bfbfbf" stroke="#000000" points="132.7704,-112.5 132.7704,-131.5 177.7704,-131.5 177.7704,-112.5 132.7704,-112.5"/>
<text text-anchor="middle" x="155.2704" y="-119.5" font-family="Helvetica,sans-Serif" font-size="10.00" fill="#000000">icns.H</text>
</g>
<!-- Node59 -->
<g id="node2" class="node">
<title>Node59</title>
<g id="a_node2"><a xlink:href="icns_8cpp.html" target="_top" xlink:title="icns.cpp">
<polygon fill="#ffffff" stroke="#000000" points="80.7704,-.5 80.7704,-19.5 133.7704,-19.5 133.7704,-.5 80.7704,-.5"/>
<text text-anchor="middle" x="107.2704" y="-7.5" font-family="Helvetica,sans-Serif" font-size="10.00" fill="#000000">icns.cpp</text>
</a>
</g>
</g>
<!-- Node58&#45;&gt;Node59 -->
<g id="edge1" class="edge">
<title>Node58&#45;&gt;Node59</title>
<path fill="none" stroke="#191970" d="M122.6344,-116.6086C82.8822,-109.2988 19.2802,-94.9501 5.2704,-76 -17.4876,-45.2168 43.2957,-24.9077 80.6009,-15.6943"/>
<polygon fill="#191970" stroke="#191970" points="122.2084,-120.0878 132.6676,-118.3979 123.4374,-113.1965 122.2084,-120.0878"/>
</g>
<!-- Node60 -->
<g id="node3" class="node">
<title>Node60</title>
<g id="a_node3"><a xlink:href="icns__ops_8_h.html" target="_top" xlink:title="icns_ops.H">
<polygon fill="#ffffff" stroke="#000000" points="209.2704,-56.5 209.2704,-75.5 275.2704,-75.5 275.2704,-56.5 209.2704,-56.5"/>
<text text-anchor="middle" x="242.2704" y="-63.5" font-family="Helvetica,sans-Serif" font-size="10.00" fill="#000000">icns_ops.H</text>
</a>
</g>
</g>
<!-- Node58&#45;&gt;Node60 -->
<g id="edge2" class="edge">
<title>Node58&#45;&gt;Node60</title>
<path fill="none" stroke="#191970" d="M178.9328,-106.769C194.3495,-96.8456 213.9963,-84.1994 227.2898,-75.6427"/>
<polygon fill="#191970" stroke="#191970" points="176.9389,-103.89 170.4246,-112.2455 180.7276,-109.7761 176.9389,-103.89"/>
</g>
<!-- Node62 -->
<g id="node5" class="node">
<title>Node62</title>
<g id="a_node5"><a xlink:href="icns__diffusion_8_h.html" target="_top" xlink:title="icns_diffusion.H">
<polygon fill="#ffffff" stroke="#000000" points="14.7704,-56.5 14.7704,-75.5 101.7704,-75.5 101.7704,-56.5 14.7704,-56.5"/>
<text text-anchor="middle" x="58.2704" y="-63.5" font-family="Helvetica,sans-Serif" font-size="10.00" fill="#000000">icns_diffusion.H</text>
</a>
</g>
</g>
<!-- Node58&#45;&gt;Node62 -->
<g id="edge5" class="edge">
<title>Node58&#45;&gt;Node62</title>
<path fill="none" stroke="#191970" d="M129.3687,-107.0465C112.1095,-97.0824 89.9328,-84.2794 74.9729,-75.6427"/>
<polygon fill="#191970" stroke="#191970" points="127.9639,-110.2768 138.3743,-112.2455 131.4638,-104.2146 127.9639,-110.2768"/>
</g>
<!-- Node63 -->
<g id="node6" class="node">
<title>Node63</title>
<g id="a_node6"><a xlink:href="icns__bcop_8_h.html" target="_top" xlink:title="icns_bcop.H">
<polygon fill="#ffffff" stroke="#000000" points="119.7704,-56.5 119.7704,-75.5 190.7704,-75.5 190.7704,-56.5 119.7704,-56.5"/>
<text text-anchor="middle" x="155.2704" y="-63.5" font-family="Helvetica,sans-Serif" font-size="10.00" fill="#000000">icns_bcop.H</text>
</a>
</g>
</g>
<!-- Node58&#45;&gt;Node63 -->
<g id="edge7" class="edge">
<title>Node58&#45;&gt;Node63</title>
<path fill="none" stroke="#191970" d="M155.2704,-102.1575C155.2704,-93.155 155.2704,-82.9199 155.2704,-75.6427"/>
<polygon fill="#191970" stroke="#191970" points="151.7705,-102.2455 155.2704,-112.2455 158.7705,-102.2456 151.7705,-102.2455"/>
</g>
<!-- Node64 -->
<g id="node7" class="node">
<title>Node64</title>
<g id="a_node7"><a xlink:href="_power_law_profile_8cpp.html" target="_top" xlink:title="PowerLawProfile.cpp">
<polygon fill="#ffffff" stroke="#000000" points="293.7704,-56.5 293.7704,-75.5 402.7704,-75.5 402.7704,-56.5 293.7704,-56.5"/>
<text text-anchor="middle" x="348.2704" y="-63.5" font-family="Helvetica,sans-Serif" font-size="10.00" fill="#000000">PowerLawProfile.cpp</text>
</a>
</g>
</g>
<!-- Node58&#45;&gt;Node64 -->
<g id="edge9" class="edge">
<title>Node58&#45;&gt;Node64</title>
<path fill="none" stroke="#191970" d="M187.624,-112.6124C223.0577,-102.3311 279.582,-85.9303 315.2698,-75.5753"/>
<polygon fill="#191970" stroke="#191970" points="186.4162,-109.3184 177.7876,-115.4665 188.3669,-116.0412 186.4162,-109.3184"/>
</g>
<!-- Node60&#45;&gt;Node59 -->
<g id="edge3" class="edge">
<title>Node60&#45;&gt;Node59</title>
<path fill="none" stroke="#191970" d="M209.7712,-52.5189C185.1849,-42.3201 152.0338,-28.5685 130.1749,-19.5011"/>
<polygon fill="#191970" stroke="#191970" points="208.4851,-55.7745 219.063,-56.3733 211.1673,-49.3087 208.4851,-55.7745"/>
</g>
<!-- Node61 -->
<g id="node4" class="node">
<title>Node61</title>
<g id="a_node4"><a xlink:href="icns__ops_8cpp.html" target="_top" xlink:title="icns_ops.cpp">
<polygon fill="#ffffff" stroke="#000000" points="205.2704,-.5 205.2704,-19.5 279.2704,-19.5 279.2704,-.5 205.2704,-.5"/>
<text text-anchor="middle" x="242.2704" y="-7.5" font-family="Helvetica,sans-Serif" font-size="10.00" fill="#000000">icns_ops.cpp</text>
</a>
</g>
</g>
<!-- Node60&#45;&gt;Node61 -->
<g id="edge4" class="edge">
<title>Node60&#45;&gt;Node61</title>
<path fill="none" stroke="#191970" d="M242.2704,-46.1575C242.2704,-37.155 242.2704,-26.9199 242.2704,-19.6427"/>
<polygon fill="#191970" stroke="#191970" points="238.7705,-46.2455 242.2704,-56.2455 245.7705,-46.2456 238.7705,-46.2455"/>
</g>
<!-- Node62&#45;&gt;Node59 -->
<g id="edge6" class="edge">
<title>Node62&#45;&gt;Node59</title>
<path fill="none" stroke="#191970" d="M73.5825,-48.5004C81.9151,-38.9775 91.9057,-27.5596 98.833,-19.6427"/>
<polygon fill="#191970" stroke="#191970" points="70.7566,-46.415 66.8055,-56.2455 76.0246,-51.0245 70.7566,-46.415"/>
</g>
<!-- Node63&#45;&gt;Node59 -->
<g id="edge8" class="edge">
<title>Node63&#45;&gt;Node59</title>
<path fill="none" stroke="#191970" d="M140.2707,-48.5004C132.1082,-38.9775 122.3215,-27.5596 115.5355,-19.6427"/>
<polygon fill="#191970" stroke="#191970" points="137.7441,-50.9307 146.9094,-56.2455 143.0589,-46.3752 137.7441,-50.9307"/>
</g>
</g>
</svg>
