<?xml version="1.0" encoding="UTF-8" standalone="no"?>
<!DOCTYPE svg PUBLIC "-//W3C//DTD SVG 1.1//EN"
 "http://www.w3.org/Graphics/SVG/1.1/DTD/svg11.dtd">
<!-- Generated by graphviz version 2.40.1 (20161225.0304)
 -->
<!-- Title: incflo_godunov_advection.cpp Pages: 1 -->
<!--zoomable 352 -->
<svg id="main" version="1.1" xmlns="http://www.w3.org/2000/svg" xmlns:xlink="http://www.w3.org/1999/xlink" xml:space="preserve" onload="init(evt)">
<style type="text/css"><![CDATA[
.edge:hover path { stroke: red; }
.edge:hover polygon { stroke: red; fill: red; }
]]></style>
<script type="text/javascript"><![CDATA[
var edges = document.getElementsByTagName('g');
if (edges && edges.length) {
  for (var i=0;i<edges.length;i++) {
    if (edges[i].id.substr(0,4)=='edge') {
      edges[i].setAttribute('class','edge');
    }
  }
}
]]></script>
        <defs>
                <circle id="rim" cx="0" cy="0" r="7"/>
                <circle id="rim2" cx="0" cy="0" r="3.5"/>
                <g id="zoomPlus">
                        <use xlink:href="#rim" fill="#404040">
                                <set attributeName="fill" to="#808080" begin="zoomplus.mouseover" end="zoomplus.mouseout"/>
                        </use>
                        <path d="M-4,0h8M0,-4v8" fill="none" stroke="white" stroke-width="1.5" pointer-events="none"/>
                </g>
                <g id="zoomMin">
                        <use xlink:href="#rim" fill="#404040">
                                <set attributeName="fill" to="#808080" begin="zoomminus.mouseover" end="zoomminus.mouseout"/>
                        </use>
                        <path d="M-4,0h8" fill="none" stroke="white" stroke-width="1.5" pointer-events="none"/>
                </g>
                <g id="dirArrow">
                        <path fill="none" stroke="white" stroke-width="1.5" d="M0,-3.0v7 M-2.5,-0.5L0,-3.0L2.5,-0.5"/>
                </g>
               <g id="resetDef">
                       <use xlink:href="#rim2" fill="#404040">
                               <set attributeName="fill" to="#808080" begin="reset.mouseover" end="reset.mouseout"/>
                       </use>
               </g>
        </defs>

<script type="text/javascript">
var viewWidth = 1635;
var viewHeight = 352;
var sectionId = 'dynsection-0';
</script>
<script xlink:href="svgpan.js"/>
<svg id="graph" class="graph">
<g id="viewport">
<title>incflo_godunov_advection.cpp</title>
<polygon fill="#ffffff" stroke="transparent" points="-4,4 -4,-348 1630.9028,-348 1630.9028,4 -4,4"/>
<!-- Node0 -->
<g id="node1" class="node">
<title>Node0</title>
<polygon fill="#bfbfbf" stroke="#000000" points="242,-324.5 242,-343.5 390,-343.5 390,-324.5 242,-324.5"/>
<text text-anchor="middle" x="316" y="-331.5" font-family="Helvetica,sans-Serif" font-size="10.00" fill="#000000">incflo_godunov_advection.cpp</text>
</g>
<!-- Node1 -->
<g id="node2" class="node">
<title>Node1</title>
<g id="a_node2"><a xlink:href="incflo__godunov__plm_8_h.html" target="_top" xlink:title="amr&#45;wind/convection\l/incflo_godunov_plm.H">
<polygon fill="#ffffff" stroke="#000000" points="19,-129 19,-159 135,-159 135,-129 19,-129"/>
<text text-anchor="start" x="27" y="-147" font-family="Helvetica,sans-Serif" font-size="10.00" fill="#000000">amr&#45;wind/convection</text>
<text text-anchor="middle" x="77" y="-136" font-family="Helvetica,sans-Serif" font-size="10.00" fill="#000000">/incflo_godunov_plm.H</text>
</a>
</g>
</g>
<!-- Node0&#45;&gt;Node1 -->
<g id="edge1" class="edge">
<title>Node0&#45;&gt;Node1</title>
<path fill="none" stroke="#191970" d="M303.8194,-324.3167C266.9653,-295.0184 156.0099,-206.8112 104.2011,-165.6243"/>
<polygon fill="#191970" stroke="#191970" points="106.1273,-162.6843 96.1214,-159.2011 101.7712,-168.1638 106.1273,-162.6843"/>
</g>
<!-- Node6 -->
<g id="node7" class="node">
<title>Node6</title>
<g id="a_node7"><a xlink:href="incflo__godunov__ppm_8_h.html" target="_top" xlink:title="amr&#45;wind/convection\l/incflo_godunov_ppm.H">
<polygon fill="#ffffff" stroke="#000000" points="280.5,-129 280.5,-159 399.5,-159 399.5,-129 280.5,-129"/>
<text text-anchor="start" x="288.5" y="-147" font-family="Helvetica,sans-Serif" font-size="10.00" fill="#000000">amr&#45;wind/convection</text>
<text text-anchor="middle" x="340" y="-136" font-family="Helvetica,sans-Serif" font-size="10.00" fill="#000000">/incflo_godunov_ppm.H</text>
</a>
</g>
</g>
<!-- Node0&#45;&gt;Node6 -->
<g id="edge6" class="edge">
<title>Node0&#45;&gt;Node6</title>
<path fill="none" stroke="#191970" d="M317.2232,-324.3167C320.8172,-295.8641 331.4289,-211.8545 336.8035,-169.306"/>
<polygon fill="#191970" stroke="#191970" points="340.299,-169.5609 338.0799,-159.2011 333.3542,-168.6836 340.299,-169.5609"/>
</g>
<!-- Node7 -->
<g id="node8" class="node">
<title>Node7</title>
<g id="a_node8"><a xlink:href="incflo__godunov__ppm__nolim_8_h.html" target="_top" xlink:title="amr&#45;wind/convection\l/incflo_godunov_ppm\l_nolim.H">
<polygon fill="#ffffff" stroke="#000000" points="153.5,-123.5 153.5,-164.5 262.5,-164.5 262.5,-123.5 153.5,-123.5"/>
<text text-anchor="start" x="161.5" y="-152.5" font-family="Helvetica,sans-Serif" font-size="10.00" fill="#000000">amr&#45;wind/convection</text>
<text text-anchor="start" x="161.5" y="-141.5" font-family="Helvetica,sans-Serif" font-size="10.00" fill="#000000">/incflo_godunov_ppm</text>
<text text-anchor="middle" x="208" y="-130.5" font-family="Helvetica,sans-Serif" font-size="10.00" fill="#000000">_nolim.H</text>
</a>
</g>
</g>
<!-- Node0&#45;&gt;Node7 -->
<g id="edge9" class="edge">
<title>Node0&#45;&gt;Node7</title>
<path fill="none" stroke="#191970" d="M310.4958,-324.3167C294.8449,-296.7827 249.6202,-217.2208 224.7986,-173.5532"/>
<polygon fill="#191970" stroke="#191970" points="227.8142,-171.7755 219.8296,-164.8114 221.7286,-175.2347 227.8142,-171.7755"/>
</g>
<!-- Node8 -->
<g id="node9" class="node">
<title>Node8</title>
<g id="a_node9"><a xlink:href="_godunov_8_h.html" target="_top" xlink:title="amr&#45;wind/convection\l/Godunov.H">
<polygon fill="#ffffff" stroke="#000000" points="344.5,-257.5 344.5,-287.5 451.5,-287.5 451.5,-257.5 344.5,-257.5"/>
<text text-anchor="start" x="352.5" y="-275.5" font-family="Helvetica,sans-Serif" font-size="10.00" fill="#000000">amr&#45;wind/convection</text>
<text text-anchor="middle" x="398" y="-264.5" font-family="Helvetica,sans-Serif" font-size="10.00" fill="#000000">/Godunov.H</text>
</a>
</g>
</g>
<!-- Node0&#45;&gt;Node8 -->
<g id="edge12" class="edge">
<title>Node0&#45;&gt;Node8</title>
<path fill="none" stroke="#191970" d="M328.8125,-324.3906C339.7047,-316.2215 355.7412,-304.1941 369.6331,-293.7752"/>
<polygon fill="#191970" stroke="#191970" points="372.0405,-296.3446 377.9405,-287.5446 367.8405,-290.7446 372.0405,-296.3446"/>
</g>
<!-- Node26 -->
<g id="node27" class="node">
<title>Node26</title>
<polygon fill="#ffffff" stroke="#bfbfbf" points="470,-263 470,-282 580,-282 580,-263 470,-263"/>
<text text-anchor="middle" x="525" y="-270" font-family="Helvetica,sans-Serif" font-size="10.00" fill="#000000">AMReX_Geometry.H</text>
</g>
<!-- Node0&#45;&gt;Node26 -->
<g id="edge49" class="edge">
<title>Node0&#45;&gt;Node26</title>
<path fill="none" stroke="#191970" d="M348.6563,-324.3906C384.8528,-313.7395 443.3386,-296.5296 482.9375,-284.8772"/>
<polygon fill="#191970" stroke="#191970" points="483.9678,-288.2225 492.5731,-282.0419 481.9917,-281.5072 483.9678,-288.2225"/>
</g>
<!-- Node2 -->
<g id="node3" class="node">
<title>Node2</title>
<g id="a_node3"><a xlink:href="incflo__convection___k_8_h.html" target="_top" xlink:title="amr&#45;wind/convection\l/incflo_convection_K.H">
<polygon fill="#ffffff" stroke="#000000" points="0,-56.5 0,-86.5 118,-86.5 118,-56.5 0,-56.5"/>
<text text-anchor="start" x="8" y="-74.5" font-family="Helvetica,sans-Serif" font-size="10.00" fill="#000000">amr&#45;wind/convection</text>
<text text-anchor="middle" x="59" y="-63.5" font-family="Helvetica,sans-Serif" font-size="10.00" fill="#000000">/incflo_convection_K.H</text>
</a>
</g>
</g>
<!-- Node1&#45;&gt;Node2 -->
<g id="edge2" class="edge">
<title>Node1&#45;&gt;Node2</title>
<path fill="none" stroke="#191970" d="M73.2704,-128.978C70.9293,-119.5487 67.8537,-107.1606 65.1574,-96.3005"/>
<polygon fill="#191970" stroke="#191970" points="68.5314,-95.3648 62.7248,-86.5028 61.7376,-97.0515 68.5314,-95.3648"/>
</g>
<!-- Node4 -->
<g id="node5" class="node">
<title>Node4</title>
<polygon fill="#ffffff" stroke="#bfbfbf" points="253.5,-62 253.5,-81 338.5,-81 338.5,-62 253.5,-62"/>
<text text-anchor="middle" x="296" y="-69" font-family="Helvetica,sans-Serif" font-size="10.00" fill="#000000">AMReX_Gpu.H</text>
</g>
<!-- Node1&#45;&gt;Node4 -->
<g id="edge4" class="edge">
<title>Node1&#45;&gt;Node4</title>
<path fill="none" stroke="#191970" d="M122.3769,-128.978C162.2849,-115.7664 219.7383,-96.7465 257.4591,-84.259"/>
<polygon fill="#191970" stroke="#191970" points="258.6788,-87.5421 267.0721,-81.0766 256.4788,-80.8968 258.6788,-87.5421"/>
</g>
<!-- Node5 -->
<g id="node6" class="node">
<title>Node5</title>
<polygon fill="#ffffff" stroke="#bfbfbf" points="136.5,-62 136.5,-81 235.5,-81 235.5,-62 136.5,-62"/>
<text text-anchor="middle" x="186" y="-69" font-family="Helvetica,sans-Serif" font-size="10.00" fill="#000000">AMReX_BCRec.H</text>
</g>
<!-- Node1&#45;&gt;Node5 -->
<g id="edge5" class="edge">
<title>Node1&#45;&gt;Node5</title>
<path fill="none" stroke="#191970" d="M99.5849,-128.978C118.1263,-116.6453 144.2771,-99.2514 162.9456,-86.8344"/>
<polygon fill="#191970" stroke="#191970" points="165.0549,-89.635 171.4429,-81.1825 161.1781,-83.8065 165.0549,-89.635"/>
</g>
<!-- Node3 -->
<g id="node4" class="node">
<title>Node3</title>
<polygon fill="#ffffff" stroke="#bfbfbf" points="2.5,-.5 2.5,-19.5 115.5,-19.5 115.5,-.5 2.5,-.5"/>
<text text-anchor="middle" x="59" y="-7.5" font-family="Helvetica,sans-Serif" font-size="10.00" fill="#000000">AMReX_FArrayBox.H</text>
</g>
<!-- Node2&#45;&gt;Node3 -->
<g id="edge3" class="edge">
<title>Node2&#45;&gt;Node3</title>
<path fill="none" stroke="#191970" d="M59,-56.2977C59,-48.3834 59,-38.6043 59,-30.0759"/>
<polygon fill="#191970" stroke="#191970" points="62.5001,-29.8469 59,-19.8469 55.5001,-29.847 62.5001,-29.8469"/>
</g>
<!-- Node6&#45;&gt;Node4 -->
<g id="edge7" class="edge">
<title>Node6&#45;&gt;Node4</title>
<path fill="none" stroke="#191970" d="M330.8832,-128.978C324.0506,-117.7198 314.6584,-102.2439 307.3408,-90.1866"/>
<polygon fill="#191970" stroke="#191970" points="310.186,-88.1286 302.0056,-81.3957 304.2018,-91.7604 310.186,-88.1286"/>
</g>
<!-- Node6&#45;&gt;Node5 -->
<g id="edge8" class="edge">
<title>Node6&#45;&gt;Node5</title>
<path fill="none" stroke="#191970" d="M308.0911,-128.978C280.9423,-116.1969 242.2466,-97.9797 215.738,-85.5"/>
<polygon fill="#191970" stroke="#191970" points="217.1053,-82.2753 206.567,-81.1825 214.1237,-88.6086 217.1053,-82.2753"/>
</g>
<!-- Node7&#45;&gt;Node4 -->
<g id="edge10" class="edge">
<title>Node7&#45;&gt;Node4</title>
<path fill="none" stroke="#191970" d="M232.9819,-123.4183C246.8207,-112.017 263.7676,-98.0551 276.6004,-87.4826"/>
<polygon fill="#191970" stroke="#191970" points="278.8728,-90.1453 284.3654,-81.0853 274.4218,-84.7427 278.8728,-90.1453"/>
</g>
<!-- Node7&#45;&gt;Node5 -->
<g id="edge11" class="edge">
<title>Node7&#45;&gt;Node5</title>
<path fill="none" stroke="#191970" d="M201.7545,-123.4183C198.6573,-113.2115 194.9373,-100.9524 191.89,-90.9102"/>
<polygon fill="#191970" stroke="#191970" points="195.1617,-89.6382 188.9087,-81.0853 188.4633,-91.6708 195.1617,-89.6382"/>
</g>
<!-- Node9 -->
<g id="node10" class="node">
<title>Node9</title>
<g id="a_node10"><a xlink:href="_field_repo_8_h.html" target="_top" xlink:title="amr&#45;wind/core/FieldRepo.H">
<polygon fill="#ffffff" stroke="#000000" points="952,-201.5 952,-220.5 1088,-220.5 1088,-201.5 952,-201.5"/>
<text text-anchor="middle" x="1020" y="-208.5" font-family="Helvetica,sans-Serif" font-size="10.00" fill="#000000">amr&#45;wind/core/FieldRepo.H</text>
</a>
</g>
</g>
<!-- Node8&#45;&gt;Node9 -->
<g id="edge13" class="edge">
<title>Node8&#45;&gt;Node9</title>
<path fill="none" stroke="#191970" d="M451.8401,-258.656C454.9293,-258.0482 457.9985,-257.4895 461,-257 630.9138,-229.2877 832.7512,-217.9128 941.3787,-213.527"/>
<polygon fill="#191970" stroke="#191970" points="941.7416,-217.0155 951.5959,-213.124 941.4657,-210.0209 941.7416,-217.0155"/>
</g>
<!-- Node10 -->
<g id="node11" class="node">
<title>Node10</title>
<polygon fill="#ffffff" stroke="#bfbfbf" points="1359.5,-.5 1359.5,-19.5 1400.5,-19.5 1400.5,-.5 1359.5,-.5"/>
<text text-anchor="middle" x="1380" y="-7.5" font-family="Helvetica,sans-Serif" font-size="10.00" fill="#000000">string</text>
</g>
<!-- Node9&#45;&gt;Node10 -->
<g id="edge14" class="edge">
<title>Node9&#45;&gt;Node10</title>
<path fill="none" stroke="#191970" d="M1088.3281,-208.4292C1202.2342,-203.4816 1425.757,-190.7678 1500,-165 1560.4459,-144.0208 1590.3753,-143.1779 1621,-87 1627.5946,-74.9029 1629.7817,-66.6164 1621,-56 1594.6743,-24.1743 1469.9329,-14.1692 1410.9904,-11.1885"/>
<polygon fill="#191970" stroke="#191970" points="1410.9419,-7.6824 1400.7888,-10.71 1410.6138,-14.6747 1410.9419,-7.6824"/>
</g>
<!-- Node11 -->
<g id="node12" class="node">
<title>Node11</title>
<polygon fill="#ffffff" stroke="#bfbfbf" points="1040.5,-62 1040.5,-81 1123.5,-81 1123.5,-62 1040.5,-62"/>
<text text-anchor="middle" x="1082" y="-69" font-family="Helvetica,sans-Serif" font-size="10.00" fill="#000000">unordered_map</text>
</g>
<!-- Node9&#45;&gt;Node11 -->
<g id="edge15" class="edge">
<title>Node9&#45;&gt;Node11</title>
<path fill="none" stroke="#191970" d="M1088.0836,-208.3366C1155.657,-204.0931 1252.4623,-193.1441 1276,-165 1287.9754,-150.681 1287.4125,-137.7716 1276,-123 1237.2469,-72.8405 1199.2129,-103.4547 1138,-87 1133.9997,-85.9247 1129.842,-84.7955 1125.6801,-83.6575"/>
<polygon fill="#191970" stroke="#191970" points="1126.6041,-80.2817 1116.0341,-81.0071 1124.7494,-87.0315 1126.6041,-80.2817"/>
</g>
<!-- Node12 -->
<g id="node13" class="node">
<title>Node12</title>
<g id="a_node13"><a xlink:href="_field_desc_types_8_h.html" target="_top" xlink:title="amr&#45;wind/core/FieldDescTypes.H">
<polygon fill="#ffffff" stroke="#000000" points="1019.5,-.5 1019.5,-19.5 1182.5,-19.5 1182.5,-.5 1019.5,-.5"/>
<text text-anchor="middle" x="1101" y="-7.5" font-family="Helvetica,sans-Serif" font-size="10.00" fill="#000000">amr&#45;wind/core/FieldDescTypes.H</text>
</a>
</g>
</g>
<!-- Node9&#45;&gt;Node12 -->
<g id="edge16" class="edge">
<title>Node9&#45;&gt;Node12</title>
<path fill="none" stroke="#191970" d="M1040.3265,-201.3852C1055.7022,-193.3342 1076.5627,-180.656 1091,-165 1117.6915,-136.0555 1123.3746,-125.1782 1133,-87 1136.3682,-73.6403 1137.1229,-69.1464 1133,-56 1129.7504,-45.6383 1123.2506,-35.5669 1116.9529,-27.5026"/>
<polygon fill="#191970" stroke="#191970" points="1119.4619,-25.047 1110.3618,-19.6212 1114.0921,-29.5376 1119.4619,-25.047"/>
</g>
<!-- Node13 -->
<g id="node14" class="node">
<title>Node13</title>
<g id="a_node14"><a xlink:href="_field_utils_8_h.html" target="_top" xlink:title="amr&#45;wind/core/FieldUtils.H">
<polygon fill="#ffffff" stroke="#000000" points="356.5,-62 356.5,-81 489.5,-81 489.5,-62 356.5,-62"/>
<text text-anchor="middle" x="423" y="-69" font-family="Helvetica,sans-Serif" font-size="10.00" fill="#000000">amr&#45;wind/core/FieldUtils.H</text>
</a>
</g>
</g>
<!-- Node9&#45;&gt;Node13 -->
<g id="edge17" class="edge">
<title>Node9&#45;&gt;Node13</title>
<path fill="none" stroke="#191970" d="M951.9626,-207.7728C820.9208,-201.1447 542.9578,-184.9321 504,-165 471.1897,-148.2131 445.9699,-111.9179 432.9076,-89.8117"/>
<polygon fill="#191970" stroke="#191970" points="435.906,-88.0038 427.9221,-81.039 429.8201,-91.4625 435.906,-88.0038"/>
</g>
<!-- Node14 -->
<g id="node15" class="node">
<title>Node14</title>
<polygon fill="#ffffff" stroke="#bfbfbf" points="650,-.5 650,-19.5 754,-19.5 754,-.5 650,-.5"/>
<text text-anchor="middle" x="702" y="-7.5" font-family="Helvetica,sans-Serif" font-size="10.00" fill="#000000">AMReX_MultiFab.H</text>
</g>
<!-- Node9&#45;&gt;Node14 -->
<g id="edge47" class="edge">
<title>Node9&#45;&gt;Node14</title>
<path fill="none" stroke="#191970" d="M951.7331,-207.0173C886.4618,-201.8411 785.8562,-190.2637 702,-165 624.3337,-141.6012 580.4027,-155.5256 537,-87 509.7142,-43.9202 582.3323,-24.5582 639.7829,-16.1288"/>
<polygon fill="#191970" stroke="#191970" points="640.515,-19.5611 649.9422,-14.726 639.5574,-12.6269 640.515,-19.5611"/>
</g>
<!-- Node16 -->
<g id="node17" class="node">
<title>Node16</title>
<g id="a_node17"><a xlink:href="_field_8_h.html" target="_top" xlink:title="amr&#45;wind/core/Field.H">
<polygon fill="#ffffff" stroke="#000000" points="710.5,-134.5 710.5,-153.5 823.5,-153.5 823.5,-134.5 710.5,-134.5"/>
<text text-anchor="middle" x="767" y="-141.5" font-family="Helvetica,sans-Serif" font-size="10.00" fill="#000000">amr&#45;wind/core/Field.H</text>
</a>
</g>
</g>
<!-- Node9&#45;&gt;Node16 -->
<g id="edge21" class="edge">
<title>Node9&#45;&gt;Node16</title>
<path fill="none" stroke="#191970" d="M984.02,-201.4717C939.094,-189.5743 862.1805,-169.2059 813.0129,-156.1852"/>
<polygon fill="#191970" stroke="#191970" points="813.8283,-152.7806 803.2655,-153.6039 812.0363,-159.5473 813.8283,-152.7806"/>
</g>
<!-- Node21 -->
<g id="node22" class="node">
<title>Node21</title>
<g id="a_node22"><a xlink:href="_int_field_8_h.html" target="_top" xlink:title="amr&#45;wind/core/IntField.H">
<polygon fill="#ffffff" stroke="#000000" points="958,-134.5 958,-153.5 1082,-153.5 1082,-134.5 958,-134.5"/>
<text text-anchor="middle" x="1020" y="-141.5" font-family="Helvetica,sans-Serif" font-size="10.00" fill="#000000">amr&#45;wind/core/IntField.H</text>
</a>
</g>
</g>
<!-- Node9&#45;&gt;Node21 -->
<g id="edge35" class="edge">
<title>Node9&#45;&gt;Node21</title>
<path fill="none" stroke="#191970" d="M1020,-201.4005C1020,-191.649 1020,-176.2597 1020,-163.8695"/>
<polygon fill="#191970" stroke="#191970" points="1023.5001,-163.5816 1020,-153.5817 1016.5001,-163.5817 1023.5001,-163.5816"/>
</g>
<!-- Node22 -->
<g id="node23" class="node">
<title>Node22</title>
<polygon fill="#ffffff" stroke="#bfbfbf" points="876.5,-62 876.5,-81 983.5,-81 983.5,-62 876.5,-62"/>
<text text-anchor="middle" x="930" y="-69" font-family="Helvetica,sans-Serif" font-size="10.00" fill="#000000">AMReX_iMultiFab.H</text>
</g>
<!-- Node9&#45;&gt;Node22 -->
<g id="edge48" class="edge">
<title>Node9&#45;&gt;Node22</title>
<path fill="none" stroke="#191970" d="M995.927,-201.3655C980.1543,-193.8075 960.4142,-181.749 949,-165 933.9582,-142.928 930.3272,-111.5652 929.7,-91.3729"/>
<polygon fill="#191970" stroke="#191970" points="933.1983,-91.1505 929.6106,-81.1817 926.1986,-91.212 933.1983,-91.1505"/>
</g>
<!-- Node23 -->
<g id="node24" class="node">
<title>Node23</title>
<g id="a_node24"><a xlink:href="_scratch_field_8_h.html" target="_top" xlink:title="amr&#45;wind/core/ScratchField.H">
<polygon fill="#ffffff" stroke="#000000" points="1345,-134.5 1345,-153.5 1491,-153.5 1491,-134.5 1345,-134.5"/>
<text text-anchor="middle" x="1418" y="-141.5" font-family="Helvetica,sans-Serif" font-size="10.00" fill="#000000">amr&#45;wind/core/ScratchField.H</text>
</a>
</g>
</g>
<!-- Node9&#45;&gt;Node23 -->
<g id="edge39" class="edge">
<title>Node9&#45;&gt;Node23</title>
<path fill="none" stroke="#191970" d="M1083.5245,-201.4956C1142.1458,-192.5808 1231.5673,-178.6179 1309,-165 1325.6612,-162.0698 1343.7122,-158.68 1360.2409,-155.4903"/>
<polygon fill="#191970" stroke="#191970" points="1361.1598,-158.8774 1370.3097,-153.536 1359.8259,-152.0056 1361.1598,-158.8774"/>
</g>
<!-- Node25 -->
<g id="node26" class="node">
<title>Node25</title>
<polygon fill="#ffffff" stroke="#bfbfbf" points="1161,-134.5 1161,-153.5 1267,-153.5 1267,-134.5 1161,-134.5"/>
<text text-anchor="middle" x="1214" y="-141.5" font-family="Helvetica,sans-Serif" font-size="10.00" fill="#000000">AMReX_AmrCore.H</text>
</g>
<!-- Node9&#45;&gt;Node25 -->
<g id="edge46" class="edge">
<title>Node9&#45;&gt;Node25</title>
<path fill="none" stroke="#191970" d="M1047.7955,-201.4005C1081.6496,-189.7086 1138.9707,-169.9122 1176.6547,-156.8976"/>
<polygon fill="#191970" stroke="#191970" points="1177.9465,-160.1544 1186.2561,-153.5817 1175.6613,-153.5379 1177.9465,-160.1544"/>
</g>
<!-- Node13&#45;&gt;Node12 -->
<g id="edge18" class="edge">
<title>Node13&#45;&gt;Node12</title>
<path fill="none" stroke="#191970" d="M488.6346,-61.9622C504.4517,-59.8336 521.3131,-57.7049 537,-56 702.9792,-37.9609 897.1392,-23.6003 1008.9189,-15.984"/>
<polygon fill="#191970" stroke="#191970" points="1009.4033,-19.4593 1019.1435,-15.2906 1008.9295,-12.4754 1009.4033,-19.4593"/>
</g>
<!-- Node13&#45;&gt;Node14 -->
<g id="edge19" class="edge">
<title>Node13&#45;&gt;Node14</title>
<path fill="none" stroke="#191970" d="M466.2876,-61.9581C515.4642,-51.1181 595.7424,-33.4224 648.723,-21.7439"/>
<polygon fill="#191970" stroke="#191970" points="649.5987,-25.1349 658.6108,-19.5643 648.0918,-18.299 649.5987,-25.1349"/>
</g>
<!-- Node15 -->
<g id="node16" class="node">
<title>Node15</title>
<polygon fill="#ffffff" stroke="#bfbfbf" points="365,-.5 365,-19.5 481,-19.5 481,-.5 365,-.5"/>
<text text-anchor="middle" x="423" y="-7.5" font-family="Helvetica,sans-Serif" font-size="10.00" fill="#000000">AMReX_Interpolater.H</text>
</g>
<!-- Node13&#45;&gt;Node15 -->
<g id="edge20" class="edge">
<title>Node13&#45;&gt;Node15</title>
<path fill="none" stroke="#191970" d="M423,-61.8906C423,-53.3657 423,-40.6392 423,-29.9235"/>
<polygon fill="#191970" stroke="#191970" points="426.5001,-29.7448 423,-19.7449 419.5001,-29.7449 426.5001,-29.7448"/>
</g>
<!-- Node16&#45;&gt;Node4 -->
<g id="edge27" class="edge">
<title>Node16&#45;&gt;Node4</title>
<path fill="none" stroke="#191970" d="M710.268,-139.0881C629.2674,-131.4419 476.0962,-114.631 348,-87 343.8044,-86.095 339.455,-85.0211 335.1396,-83.8672"/>
<polygon fill="#191970" stroke="#191970" points="335.7946,-80.4155 325.2201,-81.0712 333.8955,-87.153 335.7946,-80.4155"/>
</g>
<!-- Node16&#45;&gt;Node5 -->
<g id="edge26" class="edge">
<title>Node16&#45;&gt;Node5</title>
<path fill="none" stroke="#191970" d="M710.4746,-140.6765C614.1068,-134.3794 412.1136,-118.4344 244,-87 238.8806,-86.0428 233.5499,-84.8687 228.2855,-83.5988"/>
<polygon fill="#191970" stroke="#191970" points="228.8701,-80.1363 218.3165,-81.0708 227.1493,-86.9216 228.8701,-80.1363"/>
</g>
<!-- Node16&#45;&gt;Node10 -->
<g id="edge22" class="edge">
<title>Node16&#45;&gt;Node10</title>
<path fill="none" stroke="#191970" d="M777.4941,-134.1946C801.1175,-112.2195 857.2504,-60.585 868,-56 912.2513,-37.1256 1245.1767,-17.4129 1349.1048,-11.6637"/>
<polygon fill="#191970" stroke="#191970" points="1349.4622,-15.1494 1359.2553,-11.1064 1349.0784,-8.1599 1349.4622,-15.1494"/>
</g>
<!-- Node16&#45;&gt;Node11 -->
<g id="edge24" class="edge">
<title>Node16&#45;&gt;Node11</title>
<path fill="none" stroke="#191970" d="M808.5047,-134.4473C865.7131,-121.2803 968.7375,-97.5683 1030.702,-83.3067"/>
<polygon fill="#191970" stroke="#191970" points="1031.6938,-86.67 1040.6539,-81.0162 1030.1237,-79.8484 1031.6938,-86.67"/>
</g>
<!-- Node16&#45;&gt;Node12 -->
<g id="edge29" class="edge">
<title>Node16&#45;&gt;Node12</title>
<path fill="none" stroke="#191970" d="M762.1145,-134.4073C753.8052,-116.586 739.6105,-78.1721 759,-56 775.3311,-37.3252 913.704,-23.5591 1009.3538,-16.1675"/>
<polygon fill="#191970" stroke="#191970" points="1009.6356,-19.6563 1019.3409,-15.4068 1009.1039,-12.6765 1009.6356,-19.6563"/>
</g>
<!-- Node16&#45;&gt;Node14 -->
<g id="edge25" class="edge">
<title>Node16&#45;&gt;Node14</title>
<path fill="none" stroke="#191970" d="M758.3789,-134.1371C749.2422,-123.2498 734.9262,-104.888 726,-87 716.7039,-68.3709 710.1102,-45.4065 706.2156,-29.4271"/>
<polygon fill="#191970" stroke="#191970" points="709.6112,-28.5755 703.9506,-19.6196 702.7907,-30.1507 709.6112,-28.5755"/>
</g>
<!-- Node17 -->
<g id="node18" class="node">
<title>Node17</title>
<polygon fill="#ffffff" stroke="#bfbfbf" points="768,-62 768,-81 820,-81 820,-62 768,-62"/>
<text text-anchor="middle" x="794" y="-69" font-family="Helvetica,sans-Serif" font-size="10.00" fill="#000000">memory</text>
</g>
<!-- Node16&#45;&gt;Node17 -->
<g id="edge23" class="edge">
<title>Node16&#45;&gt;Node17</title>
<path fill="none" stroke="#191970" d="M770.6413,-134.2223C774.7707,-123.1343 781.6059,-104.7806 786.8183,-90.7841"/>
<polygon fill="#191970" stroke="#191970" points="790.2062,-91.7155 790.4164,-81.1228 783.6464,-89.2725 790.2062,-91.7155"/>
</g>
<!-- Node18 -->
<g id="node19" class="node">
<title>Node18</title>
<g id="a_node19"><a xlink:href="incflo__enums_8_h.html" target="_top" xlink:title="amr&#45;wind/incflo_enums.H">
<polygon fill="#ffffff" stroke="#000000" points="546,-62 546,-81 674,-81 674,-62 546,-62"/>
<text text-anchor="middle" x="610" y="-69" font-family="Helvetica,sans-Serif" font-size="10.00" fill="#000000">amr&#45;wind/incflo_enums.H</text>
</a>
</g>
</g>
<!-- Node16&#45;&gt;Node18 -->
<g id="edge28" class="edge">
<title>Node16&#45;&gt;Node18</title>
<path fill="none" stroke="#191970" d="M746.1516,-134.3726C719.0557,-121.8601 671.5359,-99.9162 640.4156,-85.5454"/>
<polygon fill="#191970" stroke="#191970" points="641.4807,-82.1822 630.9346,-81.1673 638.546,-88.5373 641.4807,-82.1822"/>
</g>
<!-- Node19 -->
<g id="node20" class="node">
<title>Node19</title>
<g id="a_node20"><a xlink:href="_view_field_8_h.html" target="_top" xlink:title="amr&#45;wind/core/ViewField.H">
<polygon fill="#ffffff" stroke="#000000" points="1218,-62 1218,-81 1352,-81 1352,-62 1218,-62"/>
<text text-anchor="middle" x="1285" y="-69" font-family="Helvetica,sans-Serif" font-size="10.00" fill="#000000">amr&#45;wind/core/ViewField.H</text>
</a>
</g>
</g>
<!-- Node16&#45;&gt;Node19 -->
<g id="edge30" class="edge">
<title>Node16&#45;&gt;Node19</title>
<path fill="none" stroke="#191970" d="M823.9168,-136.0338C917.2292,-122.9737 1102.8495,-96.994 1207.8841,-82.2932"/>
<polygon fill="#191970" stroke="#191970" points="1208.3731,-85.759 1217.7914,-80.9066 1207.4028,-78.8266 1208.3731,-85.759"/>
</g>
<!-- Node19&#45;&gt;Node10 -->
<g id="edge31" class="edge">
<title>Node19&#45;&gt;Node10</title>
<path fill="none" stroke="#191970" d="M1299.8438,-61.8906C1315.0418,-52.0519 1338.8848,-36.6167 1356.6206,-25.1351"/>
<polygon fill="#191970" stroke="#191970" points="1358.768,-27.9144 1365.2605,-19.5419 1354.9639,-22.0382 1358.768,-27.9144"/>
</g>
<!-- Node19&#45;&gt;Node12 -->
<g id="edge32" class="edge">
<title>Node19&#45;&gt;Node12</title>
<path fill="none" stroke="#191970" d="M1256.25,-61.8906C1224.7883,-51.3749 1174.1992,-34.466 1139.3686,-22.8243"/>
<polygon fill="#191970" stroke="#191970" points="1140.1419,-19.3925 1129.5481,-19.5419 1137.9228,-26.0315 1140.1419,-19.3925"/>
</g>
<!-- Node19&#45;&gt;Node14 -->
<g id="edge33" class="edge">
<title>Node19&#45;&gt;Node14</title>
<path fill="none" stroke="#191970" d="M1217.7054,-62.3684C1200.8355,-60.1802 1182.7659,-57.9225 1166,-56 1022.4964,-39.5448 853.6171,-23.6805 764.4542,-15.5778"/>
<polygon fill="#191970" stroke="#191970" points="764.5199,-12.0695 754.2447,-14.6523 763.8879,-19.0409 764.5199,-12.0695"/>
</g>
<!-- Node20 -->
<g id="node21" class="node">
<title>Node20</title>
<polygon fill="#ffffff" stroke="#bfbfbf" points="1524.5,-.5 1524.5,-19.5 1619.5,-19.5 1619.5,-.5 1524.5,-.5"/>
<text text-anchor="middle" x="1572" y="-7.5" font-family="Helvetica,sans-Serif" font-size="10.00" fill="#000000">AMReX_Vector.H</text>
</g>
<!-- Node19&#45;&gt;Node20 -->
<g id="edge34" class="edge">
<title>Node19&#45;&gt;Node20</title>
<path fill="none" stroke="#191970" d="M1329.5289,-61.9581C1380.2207,-51.0956 1463.0391,-33.3488 1517.5349,-21.6711"/>
<polygon fill="#191970" stroke="#191970" points="1518.322,-25.082 1527.3667,-19.5643 1516.8553,-18.2373 1518.322,-25.082"/>
</g>
<!-- Node21&#45;&gt;Node10 -->
<g id="edge36" class="edge">
<title>Node21&#45;&gt;Node10</title>
<path fill="none" stroke="#191970" d="M1079.6249,-134.4542C1176.6927,-118.8563 1358.4201,-89.3902 1361,-87 1376.6509,-72.4999 1380.3163,-47.3426 1380.7715,-29.7419"/>
<polygon fill="#191970" stroke="#191970" points="1384.2712,-29.6669 1380.7098,-19.6886 1377.2713,-29.7099 1384.2712,-29.6669"/>
</g>
<!-- Node21&#45;&gt;Node12 -->
<g id="edge37" class="edge">
<title>Node21&#45;&gt;Node12</title>
<path fill="none" stroke="#191970" d="M1018.8826,-134.4207C1017.3766,-117.2795 1016.459,-80.8346 1032,-56 1040.5634,-42.3157 1054.8619,-31.7942 1068.2291,-24.29"/>
<polygon fill="#191970" stroke="#191970" points="1070.0104,-27.3083 1077.2525,-19.5751 1066.7686,-21.1042 1070.0104,-27.3083"/>
</g>
<!-- Node21&#45;&gt;Node22 -->
<g id="edge38" class="edge">
<title>Node21&#45;&gt;Node22</title>
<path fill="none" stroke="#191970" d="M1007.8622,-134.2223C993.0182,-122.2646 967.6844,-101.8569 949.9574,-87.5768"/>
<polygon fill="#191970" stroke="#191970" points="951.9287,-84.6704 941.9455,-81.1228 947.5374,-90.1217 951.9287,-84.6704"/>
</g>
<!-- Node23&#45;&gt;Node10 -->
<g id="edge40" class="edge">
<title>Node23&#45;&gt;Node10</title>
<path fill="none" stroke="#191970" d="M1422.9672,-134.2844C1430.796,-117.546 1443.9459,-82.5168 1432,-56 1426.4303,-43.6369 1415.7137,-33.2563 1405.4494,-25.5033"/>
<polygon fill="#191970" stroke="#191970" points="1407.2549,-22.4948 1397.0567,-19.623 1403.2382,-28.2277 1407.2549,-22.4948"/>
</g>
<!-- Node23&#45;&gt;Node12 -->
<g id="edge41" class="edge">
<title>Node23&#45;&gt;Node12</title>
<path fill="none" stroke="#191970" d="M1414.7681,-134.4495C1407.9891,-115.99 1390.43,-75.5166 1361,-56 1333.7574,-37.934 1256.1725,-25.7204 1192.793,-18.4455"/>
<polygon fill="#191970" stroke="#191970" points="1193.0805,-14.9559 1182.7528,-17.3202 1192.3007,-21.9124 1193.0805,-14.9559"/>
</g>
<!-- Node23&#45;&gt;Node14 -->
<g id="edge43" class="edge">
<title>Node23&#45;&gt;Node14</title>
<path fill="none" stroke="#191970" d="M1377.4976,-134.4989C1335.0708,-124.1881 1266.704,-106.5572 1209,-87 1174.4507,-75.2905 1168.3742,-64.9124 1133,-56 1064.8329,-38.8255 866.5994,-22.2183 764.4573,-14.4981"/>
<polygon fill="#191970" stroke="#191970" points="764.5167,-10.9928 754.2828,-13.7345 763.9928,-17.9732 764.5167,-10.9928"/>
</g>
<!-- Node23&#45;&gt;Node19 -->
<g id="edge42" class="edge">
<title>Node23&#45;&gt;Node19</title>
<path fill="none" stroke="#191970" d="M1400.3386,-134.3726C1377.6828,-122.0226 1338.1718,-100.4846 1311.8002,-86.1091"/>
<polygon fill="#191970" stroke="#191970" points="1313.1898,-82.8804 1302.7344,-81.1673 1309.8395,-89.0266 1313.1898,-82.8804"/>
</g>
<!-- Node23&#45;&gt;Node20 -->
<g id="edge44" class="edge">
<title>Node23&#45;&gt;Node20</title>
<path fill="none" stroke="#191970" d="M1482.447,-134.491C1535.3306,-125.2145 1604.1407,-109.2452 1621,-87 1636.3252,-66.779 1613.3084,-41.7288 1593.9188,-25.8019"/>
<polygon fill="#191970" stroke="#191970" points="1595.9874,-22.9765 1585.9534,-19.5753 1591.6763,-28.4915 1595.9874,-22.9765"/>
</g>
<!-- Node24 -->
<g id="node25" class="node">
<title>Node24</title>
<polygon fill="#ffffff" stroke="#bfbfbf" points="1484,-62 1484,-81 1612,-81 1612,-62 1484,-62"/>
<text text-anchor="middle" x="1548" y="-69" font-family="Helvetica,sans-Serif" font-size="10.00" fill="#000000">AMReX_PhysBCFunct.H</text>
</g>
<!-- Node23&#45;&gt;Node24 -->
<g id="edge45" class="edge">
<title>Node23&#45;&gt;Node24</title>
<path fill="none" stroke="#191970" d="M1435.263,-134.3726C1457.4078,-122.0226 1496.0276,-100.4846 1521.8043,-86.1091"/>
<polygon fill="#191970" stroke="#191970" points="1523.6367,-89.0948 1530.6656,-81.1673 1520.2272,-82.9812 1523.6367,-89.0948"/>
</g>
</g>
</svg>
        <g id="navigator" transform="translate(0 0)" fill="#404254">
                <rect fill="#f2f5e9" fill-opacity="0.5" stroke="#606060" stroke-width=".5" x="0" y="0" width="60" height="60"/>
                <use id="zoomplus" xlink:href="#zoomPlus" x="17" y="9" onmousedown="handleZoom(evt,'in')"/>
                <use id="zoomminus" xlink:href="#zoomMin" x="42" y="9" onmousedown="handleZoom(evt,'out')"/>
                <use id="reset" xlink:href="#resetDef" x="30" y="36" onmousedown="handleReset()"/>
                <g id="arrowUp" xlink:href="#dirArrow" transform="translate(30 24)" onmousedown="handlePan(0,-1)">
                  <use xlink:href="#rim" fill="#404040">
                        <set attributeName="fill" to="#808080" begin="arrowUp.mouseover" end="arrowUp.mouseout"/>
                  </use>
                  <path fill="none" stroke="white" stroke-width="1.5" d="M0,-3.0v7 M-2.5,-0.5L0,-3.0L2.5,-0.5"/>
                </g>
                <g id="arrowRight" xlink:href="#dirArrow" transform="rotate(90) translate(36 -43)" onmousedown="handlePan(1,0)">
                  <use xlink:href="#rim" fill="#404040">
                        <set attributeName="fill" to="#808080" begin="arrowRight.mouseover" end="arrowRight.mouseout"/>
                  </use>
                  <path fill="none" stroke="white" stroke-width="1.5" d="M0,-3.0v7 M-2.5,-0.5L0,-3.0L2.5,-0.5"/>
                </g>
                <g id="arrowDown" xlink:href="#dirArrow" transform="rotate(180) translate(-30 -48)" onmousedown="handlePan(0,1)">
                  <use xlink:href="#rim" fill="#404040">
                        <set attributeName="fill" to="#808080" begin="arrowDown.mouseover" end="arrowDown.mouseout"/>
                  </use>
                  <path fill="none" stroke="white" stroke-width="1.5" d="M0,-3.0v7 M-2.5,-0.5L0,-3.0L2.5,-0.5"/>
                </g>
                <g id="arrowLeft" xlink:href="#dirArrow" transform="rotate(270) translate(-36 17)" onmousedown="handlePan(-1,0)">
                  <use xlink:href="#rim" fill="#404040">
                        <set attributeName="fill" to="#808080" begin="arrowLeft.mouseover" end="arrowLeft.mouseout"/>
                  </use>
                  <path fill="none" stroke="white" stroke-width="1.5" d="M0,-3.0v7 M-2.5,-0.5L0,-3.0L2.5,-0.5"/>
                </g>
        </g>
        <svg viewBox="0 0 15 15" width="100%" height="30px" preserveAspectRatio="xMaxYMin meet">
         <g id="arrow_out" transform="scale(0.3 0.3)">
          <a xlink:href="incflo__godunov__advection_8cpp__incl_org.svg" target="_base">
           <rect id="button" ry="5" rx="5" y="6" x="6" height="38" width="38"
                fill="#f2f5e9" fill-opacity="0.5" stroke="#606060" stroke-width="1.0"/>
           <path id="arrow"
             d="M 11.500037,31.436501 C 11.940474,20.09759 22.043105,11.32322 32.158766,21.979434 L 37.068811,17.246167 C 37.068811,17.246167 37.088388,32 37.088388,32 L 22.160133,31.978069 C 22.160133,31.978069 26.997745,27.140456 26.997745,27.140456 C 18.528582,18.264221 13.291696,25.230495 11.500037,31.436501 z"
             style="fill:#404040;"/>
          </a>
         </g>
        </svg>
</svg>
