<?xml version="1.0" encoding="UTF-8" standalone="no"?>
<!DOCTYPE svg PUBLIC "-//W3C//DTD SVG 1.1//EN"
 "http://www.w3.org/Graphics/SVG/1.1/DTD/svg11.dtd">
<!-- Generated by graphviz version 2.40.1 (20161225.0304)
 -->
<!-- Title: incflo_enums.H Pages: 1 -->
<svg width="2738pt" height="263pt"
 viewBox="0.00 0.00 2737.50 263.00" xmlns="http://www.w3.org/2000/svg" xmlns:xlink="http://www.w3.org/1999/xlink">
<g id="graph0" class="graph" transform="scale(1 1) rotate(0) translate(4 259)">
<title>incflo_enums.H</title>
<polygon fill="#ffffff" stroke="transparent" points="-4,4 -4,-259 2733.5,-259 2733.5,4 -4,4"/>
<!-- Node1 -->
<g id="node1" class="node">
<title>Node1</title>
<polygon fill="#bfbfbf" stroke="#000000" points="2039.5,-235.5 2039.5,-254.5 2124.5,-254.5 2124.5,-235.5 2039.5,-235.5"/>
<text text-anchor="middle" x="2082" y="-242.5" font-family="Helvetica,sans-Serif" font-size="10.00" fill="#000000">incflo_enums.H</text>
</g>
<!-- Node2 -->
<g id="node2" class="node">
<title>Node2</title>
<g id="a_node2"><a xlink:href="_field_8_h.html" target="_top" xlink:title="Field.H">
<polygon fill="#ffffff" stroke="#000000" points="971,-179.5 971,-198.5 1019,-198.5 1019,-179.5 971,-179.5"/>
<text text-anchor="middle" x="995" y="-186.5" font-family="Helvetica,sans-Serif" font-size="10.00" fill="#000000">Field.H</text>
</a>
</g>
</g>
<!-- Node1&#45;&gt;Node2 -->
<g id="edge1" class="edge">
<title>Node1&#45;&gt;Node2</title>
<path fill="none" stroke="#191970" d="M2029.3804,-242.2891C1834.1804,-232.2328 1155.7271,-197.2803 1019.0878,-190.241"/>
<polygon fill="#191970" stroke="#191970" points="2029.2214,-245.7855 2039.3883,-242.8047 2029.5817,-238.7948 2029.2214,-245.7855"/>
</g>
<!-- Node3 -->
<g id="node3" class="node">
<title>Node3</title>
<g id="a_node3"><a xlink:href="_b_c_interface_8_h.html" target="_top" xlink:title="BCInterface.H">
<polygon fill="#ffffff" stroke="#000000" points="491,-123.5 491,-142.5 571,-142.5 571,-123.5 491,-123.5"/>
<text text-anchor="middle" x="531" y="-130.5" font-family="Helvetica,sans-Serif" font-size="10.00" fill="#000000">BCInterface.H</text>
</a>
</g>
</g>
<!-- Node1&#45;&gt;Node3 -->
<g id="edge64" class="edge">
<title>Node1&#45;&gt;Node3</title>
<path fill="none" stroke="#191970" d="M2029.2251,-243.5658C1836.8125,-238.2226 1173.1901,-218.7623 962,-199 791.154,-183.0129 749.018,-172.6118 580,-143 577.0923,-142.4906 574.0927,-141.9401 571.0768,-141.3684"/>
<polygon fill="#191970" stroke="#191970" points="2029.2683,-247.0683 2039.3613,-243.8463 2029.462,-240.071 2029.2683,-247.0683"/>
</g>
<!-- Node18 -->
<g id="node8" class="node">
<title>Node18</title>
<g id="a_node8"><a xlink:href="incflo_8_h.html" target="_top" xlink:title="incflo.H">
<polygon fill="#ffffff" stroke="#000000" points="1974,-67.5 1974,-86.5 2024,-86.5 2024,-67.5 1974,-67.5"/>
<text text-anchor="middle" x="1999" y="-74.5" font-family="Helvetica,sans-Serif" font-size="10.00" fill="#000000">incflo.H</text>
</a>
</g>
</g>
<!-- Node1&#45;&gt;Node18 -->
<g id="edge65" class="edge">
<title>Node1&#45;&gt;Node18</title>
<path fill="none" stroke="#191970" d="M2078.7752,-225.047C2074.058,-199.8642 2063.6231,-155.8717 2044,-123 2035.4103,-108.6109 2021.4371,-95.2912 2011.3383,-86.7278"/>
<polygon fill="#191970" stroke="#191970" points="2075.3785,-225.9409 2080.5527,-235.1863 2082.2733,-224.7321 2075.3785,-225.9409"/>
</g>
<!-- Node81 -->
<g id="node29" class="node">
<title>Node81</title>
<g id="a_node29"><a xlink:href="_p_d_e_base_8cpp.html" target="_top" xlink:title="PDEBase.cpp">
<polygon fill="#ffffff" stroke="#000000" points="2057.5,-67.5 2057.5,-86.5 2136.5,-86.5 2136.5,-67.5 2057.5,-67.5"/>
<text text-anchor="middle" x="2097" y="-74.5" font-family="Helvetica,sans-Serif" font-size="10.00" fill="#000000">PDEBase.cpp</text>
</a>
</g>
</g>
<!-- Node1&#45;&gt;Node81 -->
<g id="edge71" class="edge">
<title>Node1&#45;&gt;Node81</title>
<path fill="none" stroke="#191970" d="M2083.7625,-225.2601C2086.9851,-189.1669 2093.7174,-113.7656 2096.1225,-86.8279"/>
<polygon fill="#191970" stroke="#191970" points="2080.2527,-225.2146 2082.8494,-235.4862 2087.225,-225.8372 2080.2527,-225.2146"/>
</g>
<!-- Node175 -->
<g id="node49" class="node">
<title>Node175</title>
<g id="a_node49"><a xlink:href="_p_d_e_base_8_h.html" target="_top" xlink:title="PDEBase.H">
<polygon fill="#ffffff" stroke="#ff0000" points="2129.5,-123.5 2129.5,-142.5 2200.5,-142.5 2200.5,-123.5 2129.5,-123.5"/>
<text text-anchor="middle" x="2165" y="-130.5" font-family="Helvetica,sans-Serif" font-size="10.00" fill="#000000">PDEBase.H</text>
</a>
</g>
</g>
<!-- Node1&#45;&gt;Node175 -->
<g id="edge66" class="edge">
<title>Node1&#45;&gt;Node175</title>
<path fill="none" stroke="#191970" d="M2095.1828,-227.2111C2112.9776,-203.1989 2144.0515,-161.2679 2157.9414,-142.5249"/>
<polygon fill="#191970" stroke="#191970" points="2092.2186,-225.3327 2089.0765,-235.4509 2097.8426,-229.5005 2092.2186,-225.3327"/>
</g>
<!-- Node62 -->
<g id="node50" class="node">
<title>Node62</title>
<g id="a_node50"><a xlink:href="_comp_r_h_s_ops_8_h.html" target="_top" xlink:title="CompRHSOps.H">
<polygon fill="#ffffff" stroke="#ff0000" points="2167.5,-179.5 2167.5,-198.5 2260.5,-198.5 2260.5,-179.5 2167.5,-179.5"/>
<text text-anchor="middle" x="2214" y="-186.5" font-family="Helvetica,sans-Serif" font-size="10.00" fill="#000000">CompRHSOps.H</text>
</a>
</g>
</g>
<!-- Node1&#45;&gt;Node62 -->
<g id="edge70" class="edge">
<title>Node1&#45;&gt;Node62</title>
<path fill="none" stroke="#191970" d="M2114.0965,-231.3833C2138.1035,-221.1985 2170.3259,-207.5284 2191.6045,-198.5011"/>
<polygon fill="#191970" stroke="#191970" points="2112.5305,-228.2457 2104.6916,-235.3733 2115.2644,-234.6897 2112.5305,-228.2457"/>
</g>
<!-- Node2&#45;&gt;Node3 -->
<g id="edge2" class="edge">
<title>Node2&#45;&gt;Node3</title>
<path fill="none" stroke="#191970" d="M960.3623,-186.233C888.9573,-180.2932 720.316,-165.0478 580,-143 577.0838,-142.5418 574.0779,-142.0289 571.0576,-141.4839"/>
<polygon fill="#191970" stroke="#191970" points="960.3197,-189.7413 970.5732,-187.0739 960.8942,-182.7649 960.3197,-189.7413"/>
</g>
<!-- Node5 -->
<g id="node5" class="node">
<title>Node5</title>
<g id="a_node5"><a xlink:href="_field_8cpp.html" target="_top" xlink:title="Field.cpp">
<polygon fill="#ffffff" stroke="#000000" points="1698,-67.5 1698,-86.5 1754,-86.5 1754,-67.5 1698,-67.5"/>
<text text-anchor="middle" x="1726" y="-74.5" font-family="Helvetica,sans-Serif" font-size="10.00" fill="#000000">Field.cpp</text>
</a>
</g>
</g>
<!-- Node2&#45;&gt;Node5 -->
<g id="edge44" class="edge">
<title>Node2&#45;&gt;Node5</title>
<path fill="none" stroke="#191970" d="M1029.5177,-188.2169C1174.8646,-184.7549 1730.7747,-169.7961 1756,-143 1771.5292,-126.5038 1750.3889,-100.576 1736.4682,-86.6352"/>
<polygon fill="#191970" stroke="#191970" points="1029.3067,-184.7208 1019.3919,-188.4552 1029.4715,-191.7189 1029.3067,-184.7208"/>
</g>
<!-- Node14 -->
<g id="node7" class="node">
<title>Node14</title>
<g id="a_node7"><a xlink:href="_field_repo_8_h.html" target="_top" xlink:title="FieldRepo.H">
<polygon fill="#ffffff" stroke="#ff0000" points="1963.5,-123.5 1963.5,-142.5 2034.5,-142.5 2034.5,-123.5 1963.5,-123.5"/>
<text text-anchor="middle" x="1999" y="-130.5" font-family="Helvetica,sans-Serif" font-size="10.00" fill="#000000">FieldRepo.H</text>
</a>
</g>
</g>
<!-- Node2&#45;&gt;Node14 -->
<g id="edge6" class="edge">
<title>Node2&#45;&gt;Node14</title>
<path fill="none" stroke="#191970" d="M1029.4803,-188.0283C1178.2078,-183.7304 1765.5703,-165.6369 1949,-143 1953.6565,-142.4253 1958.528,-141.66 1963.3259,-140.8076"/>
<polygon fill="#191970" stroke="#191970" points="1029.0472,-184.5392 1019.1518,-188.3249 1029.2482,-191.5363 1029.0472,-184.5392"/>
</g>
<!-- Node130 -->
<g id="node28" class="node">
<title>Node130</title>
<g id="a_node28"><a xlink:href="_view_field_8cpp.html" target="_top" xlink:title="ViewField.cpp">
<polygon fill="#ffffff" stroke="#000000" points="1878,-67.5 1878,-86.5 1956,-86.5 1956,-67.5 1878,-67.5"/>
<text text-anchor="middle" x="1917" y="-74.5" font-family="Helvetica,sans-Serif" font-size="10.00" fill="#000000">ViewField.cpp</text>
</a>
</g>
</g>
<!-- Node2&#45;&gt;Node130 -->
<g id="edge50" class="edge">
<title>Node2&#45;&gt;Node130</title>
<path fill="none" stroke="#191970" d="M1029.6228,-188.5809C1193.5024,-186.4329 1884.6405,-175.4688 1916,-143 1930.4893,-127.9982 1924.8821,-100.9685 1920.4297,-86.5956"/>
<polygon fill="#191970" stroke="#191970" points="1029.1301,-185.0868 1019.1759,-188.7151 1029.2201,-192.0863 1029.1301,-185.0868"/>
</g>
<!-- Node162 -->
<g id="node30" class="node">
<title>Node162</title>
<g id="a_node30"><a xlink:href="_a_b_l_field_init_8_h.html" target="_top" xlink:title="ABLFieldInit.H">
<polygon fill="#ffffff" stroke="#ff0000" points="0,-67.5 0,-86.5 80,-86.5 80,-67.5 0,-67.5"/>
<text text-anchor="middle" x="40" y="-74.5" font-family="Helvetica,sans-Serif" font-size="10.00" fill="#000000">ABLFieldInit.H</text>
</a>
</g>
</g>
<!-- Node2&#45;&gt;Node162 -->
<g id="edge31" class="edge">
<title>Node2&#45;&gt;Node162</title>
<path fill="none" stroke="#191970" d="M960.5354,-188.8497C825.0038,-187.9834 328.6944,-182.1477 177,-143 129.7078,-130.7953 79.2218,-101.7629 54.8556,-86.5978"/>
<polygon fill="#191970" stroke="#191970" points="960.7182,-192.3507 970.7387,-188.9097 960.7595,-185.3509 960.7182,-192.3507"/>
</g>
<!-- Node46 -->
<g id="node31" class="node">
<title>Node46</title>
<g id="a_node31"><a xlink:href="_field_plane_averaging_8_h.html" target="_top" xlink:title="FieldPlaneAveraging.H">
<polygon fill="#ffffff" stroke="#ff0000" points="205,-123.5 205,-142.5 321,-142.5 321,-123.5 205,-123.5"/>
<text text-anchor="middle" x="263" y="-130.5" font-family="Helvetica,sans-Serif" font-size="10.00" fill="#000000">FieldPlaneAveraging.H</text>
</a>
</g>
</g>
<!-- Node2&#45;&gt;Node46 -->
<g id="edge33" class="edge">
<title>Node2&#45;&gt;Node46</title>
<path fill="none" stroke="#191970" d="M960.7972,-187.4435C863.0153,-182.8154 573.95,-167.8913 335,-143 330.4813,-142.5293 325.8096,-141.9932 321.1173,-141.4194"/>
<polygon fill="#191970" stroke="#191970" points="960.8219,-190.9484 970.9748,-187.9205 961.1497,-183.9561 960.8219,-190.9484"/>
</g>
<!-- Node47 -->
<g id="node32" class="node">
<title>Node47</title>
<g id="a_node32"><a xlink:href="_second_moment_averaging_8_h.html" target="_top" xlink:title="SecondMomentAveraging.H">
<polygon fill="#ffffff" stroke="#ff0000" points="98.5,-67.5 98.5,-86.5 237.5,-86.5 237.5,-67.5 98.5,-67.5"/>
<text text-anchor="middle" x="168" y="-74.5" font-family="Helvetica,sans-Serif" font-size="10.00" fill="#000000">SecondMomentAveraging.H</text>
</a>
</g>
</g>
<!-- Node2&#45;&gt;Node47 -->
<g id="edge42" class="edge">
<title>Node2&#45;&gt;Node47</title>
<path fill="none" stroke="#191970" d="M960.5032,-188.0253C811.313,-183.6814 227.6905,-165.3164 196,-143 177.2748,-129.8138 171.0022,-101.487 168.9551,-86.5963"/>
<polygon fill="#191970" stroke="#191970" points="960.7751,-191.5345 970.872,-188.3249 960.9773,-184.5374 960.7751,-191.5345"/>
</g>
<!-- Node49 -->
<g id="node33" class="node">
<title>Node49</title>
<g id="a_node33"><a xlink:href="_third_moment_averaging_8_h.html" target="_top" xlink:title="ThirdMomentAveraging.H">
<polygon fill="#ffffff" stroke="#ff0000" points="294,-67.5 294,-86.5 422,-86.5 422,-67.5 294,-67.5"/>
<text text-anchor="middle" x="358" y="-74.5" font-family="Helvetica,sans-Serif" font-size="10.00" fill="#000000">ThirdMomentAveraging.H</text>
</a>
</g>
</g>
<!-- Node2&#45;&gt;Node49 -->
<g id="edge43" class="edge">
<title>Node2&#45;&gt;Node49</title>
<path fill="none" stroke="#191970" d="M960.7401,-188.2909C857.489,-185.8065 550.6825,-175.7861 457,-143 420.93,-130.3766 385.2915,-101.5306 368.2977,-86.5011"/>
<polygon fill="#191970" stroke="#191970" points="960.8402,-191.794 970.9188,-188.527 961.0026,-184.7959 960.8402,-191.794"/>
</g>
<!-- Node52 -->
<g id="node34" class="node">
<title>Node52</title>
<g id="a_node34"><a xlink:href="_a_b_l_boundary_plane_8_h.html" target="_top" xlink:title="ABLBoundaryPlane.H">
<polygon fill="#ffffff" stroke="#ff0000" points="478,-67.5 478,-86.5 590,-86.5 590,-67.5 478,-67.5"/>
<text text-anchor="middle" x="534" y="-74.5" font-family="Helvetica,sans-Serif" font-size="10.00" fill="#000000">ABLBoundaryPlane.H</text>
</a>
</g>
</g>
<!-- Node2&#45;&gt;Node52 -->
<g id="edge40" class="edge">
<title>Node2&#45;&gt;Node52</title>
<path fill="none" stroke="#191970" d="M960.9367,-188.6449C849.2639,-187.1317 499.4574,-179.493 466,-143 446.766,-122.0209 484.5822,-99.2554 511.1255,-86.6988"/>
<polygon fill="#191970" stroke="#191970" points="960.9379,-192.1451 970.9817,-188.773 961.0272,-185.1457 960.9379,-192.1451"/>
</g>
<!-- Node164 -->
<g id="node35" class="node">
<title>Node164</title>
<g id="a_node35"><a xlink:href="_field_fill_patch_ops_8_h.html" target="_top" xlink:title="FieldFillPatchOps.H">
<polygon fill="#ffffff" stroke="#ff0000" points="1803,-123.5 1803,-142.5 1907,-142.5 1907,-123.5 1803,-123.5"/>
<text text-anchor="middle" x="1855" y="-130.5" font-family="Helvetica,sans-Serif" font-size="10.00" fill="#000000">FieldFillPatchOps.H</text>
</a>
</g>
</g>
<!-- Node2&#45;&gt;Node164 -->
<g id="edge45" class="edge">
<title>Node2&#45;&gt;Node164</title>
<path fill="none" stroke="#191970" d="M1029.3062,-188.1464C1139.7511,-185.1561 1495.9447,-173.6238 1789,-143 1793.4953,-142.5303 1798.1527,-141.9715 1802.8184,-141.3619"/>
<polygon fill="#191970" stroke="#191970" points="1029.0054,-184.6531 1019.1017,-188.4171 1029.1911,-191.6506 1029.0054,-184.6531"/>
</g>
<!-- Node165 -->
<g id="node36" class="node">
<title>Node165</title>
<g id="a_node36"><a xlink:href="field__ops_8_h.html" target="_top" xlink:title="field_ops.H">
<polygon fill="#ffffff" stroke="#ff0000" points="942,-67.5 942,-86.5 1008,-86.5 1008,-67.5 942,-67.5"/>
<text text-anchor="middle" x="975" y="-74.5" font-family="Helvetica,sans-Serif" font-size="10.00" fill="#000000">field_ops.H</text>
</a>
</g>
</g>
<!-- Node2&#45;&gt;Node165 -->
<g id="edge47" class="edge">
<title>Node2&#45;&gt;Node165</title>
<path fill="none" stroke="#191970" d="M960.5252,-188.5396C850.6884,-186.7196 514.2634,-178.2859 482,-143 476.0018,-136.4399 476.0137,-129.5709 482,-123 497.5404,-105.9421 833.9313,-85.1327 941.9351,-78.8694"/>
<polygon fill="#191970" stroke="#191970" points="960.6705,-192.0423 970.7244,-188.7002 960.7808,-185.0431 960.6705,-192.0423"/>
</g>
<!-- Node83 -->
<g id="node37" class="node">
<title>Node83</title>
<g id="a_node37"><a xlink:href="_m_m_s_8_h.html" target="_top" xlink:title="MMS.H">
<polygon fill="#ffffff" stroke="#ff0000" points="589,-123.5 589,-142.5 639,-142.5 639,-123.5 589,-123.5"/>
<text text-anchor="middle" x="614" y="-130.5" font-family="Helvetica,sans-Serif" font-size="10.00" fill="#000000">MMS.H</text>
</a>
</g>
</g>
<!-- Node2&#45;&gt;Node83 -->
<g id="edge51" class="edge">
<title>Node2&#45;&gt;Node83</title>
<path fill="none" stroke="#191970" d="M960.6982,-186.2208C898.0735,-180.7563 761.238,-167.0085 648,-143 645.1109,-142.3875 642.1099,-141.6531 639.1405,-140.864"/>
<polygon fill="#191970" stroke="#191970" points="960.5407,-189.72 970.803,-187.0864 961.1382,-182.7456 960.5407,-189.72"/>
</g>
<!-- Node166 -->
<g id="node38" class="node">
<title>Node166</title>
<g id="a_node38"><a xlink:href="_boussinesq_bubble_8_h.html" target="_top" xlink:title="BoussinesqBubble.H">
<polygon fill="#ffffff" stroke="#ff0000" points="634,-67.5 634,-86.5 742,-86.5 742,-67.5 634,-67.5"/>
<text text-anchor="middle" x="688" y="-74.5" font-family="Helvetica,sans-Serif" font-size="10.00" fill="#000000">BoussinesqBubble.H</text>
</a>
</g>
</g>
<!-- Node2&#45;&gt;Node166 -->
<g id="edge52" class="edge">
<title>Node2&#45;&gt;Node166</title>
<path fill="none" stroke="#191970" d="M960.3669,-188.5879C849.218,-186.9101 506.8241,-178.8499 474,-143 467.9974,-136.444 468.414,-129.9144 474,-123 484.0749,-110.5294 573.8543,-94.5117 633.8813,-85.042"/>
<polygon fill="#191970" stroke="#191970" points="960.6324,-192.0919 970.6813,-188.735 960.7323,-185.0926 960.6324,-192.0919"/>
</g>
<!-- Node87 -->
<g id="node39" class="node">
<title>Node87</title>
<g id="a_node39"><a xlink:href="_convecting_taylor_vortex_8_h.html" target="_top" xlink:title="ConvectingTaylorVortex.H">
<polygon fill="#ffffff" stroke="#ff0000" points="657,-123.5 657,-142.5 789,-142.5 789,-123.5 657,-123.5"/>
<text text-anchor="middle" x="723" y="-130.5" font-family="Helvetica,sans-Serif" font-size="10.00" fill="#000000">ConvectingTaylorVortex.H</text>
</a>
</g>
</g>
<!-- Node2&#45;&gt;Node87 -->
<g id="edge54" class="edge">
<title>Node2&#45;&gt;Node87</title>
<path fill="none" stroke="#191970" d="M960.8849,-181.9763C912.4642,-172.0073 823.6652,-153.7252 769.3253,-142.5376"/>
<polygon fill="#191970" stroke="#191970" points="960.3614,-185.4419 970.8618,-184.0304 961.7731,-178.5857 960.3614,-185.4419"/>
</g>
<!-- Node89 -->
<g id="node40" class="node">
<title>Node89</title>
<g id="a_node40"><a xlink:href="_ekman_spiral_8_h.html" target="_top" xlink:title="EkmanSpiral.H">
<polygon fill="#ffffff" stroke="#ff0000" points="807.5,-123.5 807.5,-142.5 890.5,-142.5 890.5,-123.5 807.5,-123.5"/>
<text text-anchor="middle" x="849" y="-130.5" font-family="Helvetica,sans-Serif" font-size="10.00" fill="#000000">EkmanSpiral.H</text>
</a>
</g>
</g>
<!-- Node2&#45;&gt;Node89 -->
<g id="edge55" class="edge">
<title>Node2&#45;&gt;Node89</title>
<path fill="none" stroke="#191970" d="M961.2314,-176.0476C934.6443,-165.8499 898.1802,-151.8636 874.1243,-142.6367"/>
<polygon fill="#191970" stroke="#191970" points="960.3009,-179.4393 970.8911,-179.7527 962.8078,-172.9036 960.3009,-179.4393"/>
</g>
<!-- Node167 -->
<g id="node41" class="node">
<title>Node167</title>
<g id="a_node41"><a xlink:href="_free_stream_8_h.html" target="_top" xlink:title="FreeStream.H">
<polygon fill="#ffffff" stroke="#ff0000" points="909,-123.5 909,-142.5 987,-142.5 987,-123.5 909,-123.5"/>
<text text-anchor="middle" x="948" y="-130.5" font-family="Helvetica,sans-Serif" font-size="10.00" fill="#000000">FreeStream.H</text>
</a>
</g>
</g>
<!-- Node2&#45;&gt;Node167 -->
<g id="edge56" class="edge">
<title>Node2&#45;&gt;Node167</title>
<path fill="none" stroke="#191970" d="M980.3128,-171.5004C972.3204,-161.9775 962.7375,-150.5596 956.093,-142.6427"/>
<polygon fill="#191970" stroke="#191970" points="977.7036,-173.8358 986.8132,-179.2455 983.0654,-169.3357 977.7036,-173.8358"/>
</g>
<!-- Node168 -->
<g id="node42" class="node">
<title>Node168</title>
<g id="a_node42"><a xlink:href="_dam_break_8_h.html" target="_top" xlink:title="DamBreak.H">
<polygon fill="#ffffff" stroke="#ff0000" points="1005,-123.5 1005,-142.5 1079,-142.5 1079,-123.5 1005,-123.5"/>
<text text-anchor="middle" x="1042" y="-130.5" font-family="Helvetica,sans-Serif" font-size="10.00" fill="#000000">DamBreak.H</text>
</a>
</g>
</g>
<!-- Node2&#45;&gt;Node168 -->
<g id="edge57" class="edge">
<title>Node2&#45;&gt;Node168</title>
<path fill="none" stroke="#191970" d="M1009.6872,-171.5004C1017.6796,-161.9775 1027.2625,-150.5596 1033.907,-142.6427"/>
<polygon fill="#191970" stroke="#191970" points="1006.9346,-169.3357 1003.1868,-179.2455 1012.2964,-173.8358 1006.9346,-169.3357"/>
</g>
<!-- Node169 -->
<g id="node43" class="node">
<title>Node169</title>
<g id="a_node43"><a xlink:href="_multi_phase_8_h.html" target="_top" xlink:title="MultiPhase.H">
<polygon fill="#ffffff" stroke="#ff0000" points="1097,-123.5 1097,-142.5 1173,-142.5 1173,-123.5 1097,-123.5"/>
<text text-anchor="middle" x="1135" y="-130.5" font-family="Helvetica,sans-Serif" font-size="10.00" fill="#000000">MultiPhase.H</text>
</a>
</g>
</g>
<!-- Node2&#45;&gt;Node169 -->
<g id="edge58" class="edge">
<title>Node2&#45;&gt;Node169</title>
<path fill="none" stroke="#191970" d="M1028.3649,-175.6541C1053.8952,-165.4419 1088.4784,-151.6086 1111.2472,-142.5011"/>
<polygon fill="#191970" stroke="#191970" points="1027.0517,-172.4096 1019.0669,-179.3733 1029.6515,-178.909 1027.0517,-172.4096"/>
</g>
<!-- Node170 -->
<g id="node44" class="node">
<title>Node170</title>
<g id="a_node44"><a xlink:href="_vortex_patch_8_h.html" target="_top" xlink:title="VortexPatch.H">
<polygon fill="#ffffff" stroke="#ff0000" points="1191.5,-123.5 1191.5,-142.5 1272.5,-142.5 1272.5,-123.5 1191.5,-123.5"/>
<text text-anchor="middle" x="1232" y="-130.5" font-family="Helvetica,sans-Serif" font-size="10.00" fill="#000000">VortexPatch.H</text>
</a>
</g>
</g>
<!-- Node2&#45;&gt;Node170 -->
<g id="edge59" class="edge">
<title>Node2&#45;&gt;Node170</title>
<path fill="none" stroke="#191970" d="M1029.0044,-180.9652C1072.0182,-170.8016 1145.9868,-153.3238 1191.7658,-142.5068"/>
<polygon fill="#191970" stroke="#191970" points="1027.9562,-177.6164 1019.0291,-183.3222 1029.566,-184.4288 1027.9562,-177.6164"/>
</g>
<!-- Node171 -->
<g id="node45" class="node">
<title>Node171</title>
<g id="a_node45"><a xlink:href="_zalesak_disk_8_h.html" target="_top" xlink:title="ZalesakDisk.H">
<polygon fill="#ffffff" stroke="#ff0000" points="1291,-123.5 1291,-142.5 1373,-142.5 1373,-123.5 1291,-123.5"/>
<text text-anchor="middle" x="1332" y="-130.5" font-family="Helvetica,sans-Serif" font-size="10.00" fill="#000000">ZalesakDisk.H</text>
</a>
</g>
</g>
<!-- Node2&#45;&gt;Node171 -->
<g id="edge60" class="edge">
<title>Node2&#45;&gt;Node171</title>
<path fill="none" stroke="#191970" d="M1029.1552,-183.8923C1082.8526,-175.7754 1190.2589,-159.1887 1281,-143 1284.1977,-142.4295 1287.5046,-141.8217 1290.8267,-141.1984"/>
<polygon fill="#191970" stroke="#191970" points="1028.5192,-180.4486 1019.1527,-185.4002 1029.5627,-187.3704 1028.5192,-180.4486"/>
</g>
<!-- Node172 -->
<g id="node46" class="node">
<title>Node172</title>
<g id="a_node46"><a xlink:href="_rayleigh_taylor_8_h.html" target="_top" xlink:title="RayleighTaylor.H">
<polygon fill="#ffffff" stroke="#ff0000" points="1391,-123.5 1391,-142.5 1483,-142.5 1483,-123.5 1391,-123.5"/>
<text text-anchor="middle" x="1437" y="-130.5" font-family="Helvetica,sans-Serif" font-size="10.00" fill="#000000">RayleighTaylor.H</text>
</a>
</g>
</g>
<!-- Node2&#45;&gt;Node172 -->
<g id="edge61" class="edge">
<title>Node2&#45;&gt;Node172</title>
<path fill="none" stroke="#191970" d="M1029.1417,-185.6552C1096.6947,-178.8797 1252.1175,-162.5077 1382,-143 1384.8793,-142.5676 1387.839,-142.0991 1390.8208,-141.6091"/>
<polygon fill="#191970" stroke="#191970" points="1028.675,-182.1843 1019.0716,-186.6593 1029.3696,-189.1498 1028.675,-182.1843"/>
</g>
<!-- Node173 -->
<g id="node47" class="node">
<title>Node173</title>
<g id="a_node47"><a xlink:href="_taylor_green_vortex_8_h.html" target="_top" xlink:title="TaylorGreenVortex.H">
<polygon fill="#ffffff" stroke="#ff0000" points="1501.5,-123.5 1501.5,-142.5 1610.5,-142.5 1610.5,-123.5 1501.5,-123.5"/>
<text text-anchor="middle" x="1556" y="-130.5" font-family="Helvetica,sans-Serif" font-size="10.00" fill="#000000">TaylorGreenVortex.H</text>
</a>
</g>
</g>
<!-- Node2&#45;&gt;Node173 -->
<g id="edge62" class="edge">
<title>Node2&#45;&gt;Node173</title>
<path fill="none" stroke="#191970" d="M1029.1917,-186.5782C1109.9092,-180.6989 1318.5591,-164.555 1492,-143 1495.0132,-142.6255 1498.1028,-142.2188 1501.219,-141.7908"/>
<polygon fill="#191970" stroke="#191970" points="1028.8293,-183.0951 1019.1079,-187.3075 1029.3344,-190.0769 1028.8293,-183.0951"/>
</g>
<!-- Node174 -->
<g id="node48" class="node">
<title>Node174</title>
<g id="a_node48"><a xlink:href="_sampling_container_8cpp.html" target="_top" xlink:title="SamplingContainer.cpp">
<polygon fill="#ffffff" stroke="#000000" points="1629,-123.5 1629,-142.5 1747,-142.5 1747,-123.5 1629,-123.5"/>
<text text-anchor="middle" x="1688" y="-130.5" font-family="Helvetica,sans-Serif" font-size="10.00" fill="#000000">SamplingContainer.cpp</text>
</a>
</g>
</g>
<!-- Node2&#45;&gt;Node174 -->
<g id="edge63" class="edge">
<title>Node2&#45;&gt;Node174</title>
<path fill="none" stroke="#191970" d="M1029.2447,-187.3237C1123.5031,-182.5267 1394.6669,-167.494 1619,-143 1622.2489,-142.6453 1625.5799,-142.2541 1628.9398,-141.8382"/>
<polygon fill="#191970" stroke="#191970" points="1028.9589,-183.8336 1019.1478,-187.8327 1029.3114,-190.8247 1028.9589,-183.8336"/>
</g>
<!-- Node4 -->
<g id="node4" class="node">
<title>Node4</title>
<g id="a_node4"><a xlink:href="_b_c_interface_8cpp.html" target="_top" xlink:title="BCInterface.cpp">
<polygon fill="#ffffff" stroke="#000000" points="1772,-67.5 1772,-86.5 1860,-86.5 1860,-67.5 1772,-67.5"/>
<text text-anchor="middle" x="1816" y="-74.5" font-family="Helvetica,sans-Serif" font-size="10.00" fill="#000000">BCInterface.cpp</text>
</a>
</g>
</g>
<!-- Node3&#45;&gt;Node4 -->
<g id="edge3" class="edge">
<title>Node3&#45;&gt;Node4</title>
<path fill="none" stroke="#191970" d="M581.0949,-123.0877C1104.2561,-63.2188 1243.3888,-143.5761 1763,-87 1765.8857,-86.6858 1768.8497,-86.3011 1771.8307,-85.8675"/>
<polygon fill="#191970" stroke="#191970" points="580.5533,-119.6269 571.0215,-124.2523 581.3573,-126.5805 580.5533,-119.6269"/>
</g>
<!-- Node3&#45;&gt;Node5 -->
<g id="edge4" class="edge">
<title>Node3&#45;&gt;Node5</title>
<path fill="none" stroke="#191970" d="M581.2896,-123.1582C734.5194,-107.9057 1536.6992,-82.8027 1697.813,-77.8588"/>
<polygon fill="#191970" stroke="#191970" points="580.5839,-119.7145 571.0253,-124.2843 581.3474,-126.6728 580.5839,-119.7145"/>
</g>
<!-- Node6 -->
<g id="node6" class="node">
<title>Node6</title>
<g id="a_node6"><a xlink:href="_b_c_ops_8_h.html" target="_top" xlink:title="BCOps.H">
<polygon fill="#ffffff" stroke="#ff0000" points="1026.5,-67.5 1026.5,-86.5 1085.5,-86.5 1085.5,-67.5 1026.5,-67.5"/>
<text text-anchor="middle" x="1056" y="-74.5" font-family="Helvetica,sans-Serif" font-size="10.00" fill="#000000">BCOps.H</text>
</a>
</g>
</g>
<!-- Node3&#45;&gt;Node6 -->
<g id="edge5" class="edge">
<title>Node3&#45;&gt;Node6</title>
<path fill="none" stroke="#191970" d="M580.9756,-123.0242C774.6871,-96.2435 828.0086,-118.7802 1017,-87 1020.033,-86.49 1023.1754,-85.8599 1026.3002,-85.166"/>
<polygon fill="#191970" stroke="#191970" points="580.4577,-119.5625 571.0436,-124.4232 581.4341,-126.4941 580.4577,-119.5625"/>
</g>
<!-- Node14&#45;&gt;Node4 -->
<g id="edge7" class="edge">
<title>Node14&#45;&gt;Node4</title>
<path fill="none" stroke="#191970" d="M1957.575,-120.3235C1924.0144,-110.0536 1877.466,-95.8093 1847.0483,-86.5011"/>
<polygon fill="#191970" stroke="#191970" points="1956.9547,-123.7938 1967.5412,-123.3733 1959.0031,-117.1002 1956.9547,-123.7938"/>
</g>
<!-- Node14&#45;&gt;Node5 -->
<g id="edge28" class="edge">
<title>Node14&#45;&gt;Node5</title>
<path fill="none" stroke="#191970" d="M1953.2346,-125.0806C1905.5377,-116.5931 1828.7239,-102.2664 1763,-87 1760.1481,-86.3376 1757.1836,-85.6074 1754.2293,-84.8524"/>
<polygon fill="#191970" stroke="#191970" points="1952.7908,-128.5563 1963.2477,-126.8526 1954.0107,-121.6634 1952.7908,-128.5563"/>
</g>
<!-- Node14&#45;&gt;Node18 -->
<g id="edge8" class="edge">
<title>Node14&#45;&gt;Node18</title>
<path fill="none" stroke="#191970" d="M1999,-113.1575C1999,-104.155 1999,-93.9199 1999,-86.6427"/>
<polygon fill="#191970" stroke="#191970" points="1995.5001,-113.2455 1999,-123.2455 2002.5001,-113.2456 1995.5001,-113.2455"/>
</g>
<!-- Node14&#45;&gt;Node130 -->
<g id="edge29" class="edge">
<title>Node14&#45;&gt;Node130</title>
<path fill="none" stroke="#191970" d="M1976.289,-117.49C1961.8212,-107.6096 1943.532,-95.1194 1931.1196,-86.6427"/>
<polygon fill="#191970" stroke="#191970" points="1974.4848,-120.4962 1984.7167,-123.2455 1978.4325,-114.7156 1974.4848,-120.4962"/>
</g>
<!-- Node14&#45;&gt;Node81 -->
<g id="edge30" class="edge">
<title>Node14&#45;&gt;Node81</title>
<path fill="none" stroke="#191970" d="M2025.1686,-118.0465C2042.6058,-108.0824 2065.0111,-95.2794 2080.1253,-86.6427"/>
<polygon fill="#191970" stroke="#191970" points="2023.0162,-115.2453 2016.0703,-123.2455 2026.4892,-121.323 2023.0162,-115.2453"/>
</g>
<!-- Node19 -->
<g id="node9" class="node">
<title>Node19</title>
<g id="a_node9"><a xlink:href="incflo__set__velocity__bcs_8cpp.html" target="_top" xlink:title="incflo_set_velocity\l_bcs.cpp">
<polygon fill="#ffffff" stroke="#000000" points="2115,-.5 2115,-30.5 2213,-30.5 2213,-.5 2115,-.5"/>
<text text-anchor="start" x="2123" y="-18.5" font-family="Helvetica,sans-Serif" font-size="10.00" fill="#000000">incflo_set_velocity</text>
<text text-anchor="middle" x="2164" y="-7.5" font-family="Helvetica,sans-Serif" font-size="10.00" fill="#000000">_bcs.cpp</text>
</a>
</g>
</g>
<!-- Node18&#45;&gt;Node19 -->
<g id="edge9" class="edge">
<title>Node18&#45;&gt;Node19</title>
<path fill="none" stroke="#191970" d="M2033.5987,-64.1041C2059.8529,-54.3185 2096.0094,-40.842 2123.5919,-30.5612"/>
<polygon fill="#191970" stroke="#191970" points="2032.2078,-60.8873 2024.0599,-67.6595 2034.6526,-67.4465 2032.2078,-60.8873"/>
</g>
<!-- Node20 -->
<g id="node10" class="node">
<title>Node20</title>
<g id="a_node10"><a xlink:href="derive_8cpp.html" target="_top" xlink:title="derive.cpp">
<polygon fill="#ffffff" stroke="#000000" points="2231,-6 2231,-25 2293,-25 2293,-6 2231,-6"/>
<text text-anchor="middle" x="2262" y="-13" font-family="Helvetica,sans-Serif" font-size="10.00" fill="#000000">derive.cpp</text>
</a>
</g>
</g>
<!-- Node18&#45;&gt;Node20 -->
<g id="edge10" class="edge">
<title>Node18&#45;&gt;Node20</title>
<path fill="none" stroke="#191970" d="M2034.0207,-69.9347C2094.5089,-57.709 2212.994,-33.6537 2222,-31 2227.7151,-29.316 2233.7645,-27.1708 2239.3812,-25.0171"/>
<polygon fill="#191970" stroke="#191970" points="2033.2464,-66.5203 2024.1375,-71.9313 2034.6326,-73.3817 2033.2464,-66.5203"/>
</g>
<!-- Node21 -->
<g id="node11" class="node">
<title>Node21</title>
<g id="a_node11"><a xlink:href="incflo__diffusion_8cpp.html" target="_top" xlink:title="incflo_diffusion.cpp">
<polygon fill="#ffffff" stroke="#000000" points="2311.5,-6 2311.5,-25 2412.5,-25 2412.5,-6 2311.5,-6"/>
<text text-anchor="middle" x="2362" y="-13" font-family="Helvetica,sans-Serif" font-size="10.00" fill="#000000">incflo_diffusion.cpp</text>
</a>
</g>
</g>
<!-- Node18&#45;&gt;Node21 -->
<g id="edge11" class="edge">
<title>Node18&#45;&gt;Node21</title>
<path fill="none" stroke="#191970" d="M2034.1331,-69.7156C2039.1157,-68.7577 2044.1817,-67.824 2049,-67 2160.9519,-47.8553 2190.6214,-53.2386 2302,-31 2310.4403,-29.3148 2319.4648,-27.1691 2327.8841,-25.0154"/>
<polygon fill="#191970" stroke="#191970" points="2033.2627,-66.3197 2024.1286,-71.6881 2034.6168,-73.1875 2033.2627,-66.3197"/>
</g>
<!-- Node22 -->
<g id="node12" class="node">
<title>Node22</title>
<g id="a_node12"><a xlink:href="incflo_8cpp.html" target="_top" xlink:title="incflo.cpp">
<polygon fill="#ffffff" stroke="#000000" points="2670.5,-6 2670.5,-25 2729.5,-25 2729.5,-6 2670.5,-6"/>
<text text-anchor="middle" x="2700" y="-13" font-family="Helvetica,sans-Serif" font-size="10.00" fill="#000000">incflo.cpp</text>
</a>
</g>
</g>
<!-- Node18&#45;&gt;Node22 -->
<g id="edge12" class="edge">
<title>Node18&#45;&gt;Node22</title>
<path fill="none" stroke="#191970" d="M2034.0779,-69.3472C2039.0688,-68.4446 2044.1518,-67.6244 2049,-67 2319.2385,-32.1985 2395.0096,-90.0688 2661,-31 2667.1169,-29.6416 2673.5254,-27.4466 2679.3391,-25.1305"/>
<polygon fill="#191970" stroke="#191970" points="2033.2229,-65.9476 2024.0674,-71.2792 2034.5495,-72.8207 2033.2229,-65.9476"/>
</g>
<!-- Node23 -->
<g id="node13" class="node">
<title>Node23</title>
<g id="a_node13"><a xlink:href="incflo__advance_8cpp.html" target="_top" xlink:title="incflo_advance.cpp">
<polygon fill="#ffffff" stroke="#000000" points="1812.5,-6 1812.5,-25 1913.5,-25 1913.5,-6 1812.5,-6"/>
<text text-anchor="middle" x="1863" y="-13" font-family="Helvetica,sans-Serif" font-size="10.00" fill="#000000">incflo_advance.cpp</text>
</a>
</g>
</g>
<!-- Node18&#45;&gt;Node23 -->
<g id="edge13" class="edge">
<title>Node18&#45;&gt;Node23</title>
<path fill="none" stroke="#191970" d="M1968.4598,-63.1895C1942.7648,-51.5701 1906.6972,-35.2601 1884.1008,-25.0419"/>
<polygon fill="#191970" stroke="#191970" points="1967.1962,-66.4593 1977.75,-67.3906 1970.0805,-60.0811 1967.1962,-66.4593"/>
</g>
<!-- Node24 -->
<g id="node14" class="node">
<title>Node24</title>
<g id="a_node14"><a xlink:href="incflo__compute__dt_8cpp.html" target="_top" xlink:title="incflo_compute_dt.cpp">
<polygon fill="#ffffff" stroke="#000000" points="2430.5,-6 2430.5,-25 2545.5,-25 2545.5,-6 2430.5,-6"/>
<text text-anchor="middle" x="2488" y="-13" font-family="Helvetica,sans-Serif" font-size="10.00" fill="#000000">incflo_compute_dt.cpp</text>
</a>
</g>
</g>
<!-- Node18&#45;&gt;Node24 -->
<g id="edge14" class="edge">
<title>Node18&#45;&gt;Node24</title>
<path fill="none" stroke="#191970" d="M2034.1011,-69.5146C2039.0885,-68.5869 2044.1644,-67.715 2049,-67 2213.7566,-42.6374 2257.6715,-58.1 2422,-31 2431.5228,-29.4296 2441.7167,-27.2749 2451.1747,-25.0714"/>
<polygon fill="#191970" stroke="#191970" points="2033.2389,-66.1167 2024.0931,-71.465 2034.5779,-72.9874 2033.2389,-66.1167"/>
</g>
<!-- Node25 -->
<g id="node15" class="node">
<title>Node25</title>
<g id="a_node15"><a xlink:href="incflo__regrid_8cpp.html" target="_top" xlink:title="incflo_regrid.cpp">
<polygon fill="#ffffff" stroke="#000000" points="2564,-6 2564,-25 2652,-25 2652,-6 2564,-6"/>
<text text-anchor="middle" x="2608" y="-13" font-family="Helvetica,sans-Serif" font-size="10.00" fill="#000000">incflo_regrid.cpp</text>
</a>
</g>
</g>
<!-- Node18&#45;&gt;Node25 -->
<g id="edge15" class="edge">
<title>Node18&#45;&gt;Node25</title>
<path fill="none" stroke="#191970" d="M2034.0852,-69.4021C2039.075,-68.4913 2044.1557,-67.6541 2049,-67 2272.4298,-36.8319 2333.0959,-70.8693 2555,-31 2563.0204,-29.559 2571.5577,-27.3661 2579.3844,-25.0795"/>
<polygon fill="#191970" stroke="#191970" points="2033.2278,-66.003 2024.0754,-71.3402 2034.5584,-72.8754 2033.2278,-66.003"/>
</g>
<!-- Node26 -->
<g id="node16" class="node">
<title>Node26</title>
<g id="a_node16"><a xlink:href="incflo__tagging_8cpp.html" target="_top" xlink:title="incflo_tagging.cpp">
<polygon fill="#ffffff" stroke="#000000" points="1155.5,-6 1155.5,-25 1250.5,-25 1250.5,-6 1155.5,-6"/>
<text text-anchor="middle" x="1203" y="-13" font-family="Helvetica,sans-Serif" font-size="10.00" fill="#000000">incflo_tagging.cpp</text>
</a>
</g>
</g>
<!-- Node18&#45;&gt;Node26 -->
<g id="edge16" class="edge">
<title>Node18&#45;&gt;Node26</title>
<path fill="none" stroke="#191970" d="M1963.7292,-67.1881C1653.8327,-15.7796 1566.4924,-79.916 1260,-31 1251.1895,-29.5938 1241.7842,-27.3533 1233.206,-25.0079"/>
<polygon fill="#191970" stroke="#191970" points="1963.461,-70.6922 1973.9038,-68.904 1964.6251,-63.7897 1963.461,-70.6922"/>
</g>
<!-- Node27 -->
<g id="node17" class="node">
<title>Node27</title>
<g id="a_node17"><a xlink:href="main_8cpp.html" target="_top" xlink:title="main.cpp">
<polygon fill="#ffffff" stroke="#000000" points="1269,-6 1269,-25 1325,-25 1325,-6 1269,-6"/>
<text text-anchor="middle" x="1297" y="-13" font-family="Helvetica,sans-Serif" font-size="10.00" fill="#000000">main.cpp</text>
</a>
</g>
</g>
<!-- Node18&#45;&gt;Node27 -->
<g id="edge17" class="edge">
<title>Node18&#45;&gt;Node27</title>
<path fill="none" stroke="#191970" d="M1963.9413,-67.2191C1686.3077,-20.7972 1604.4963,-93.4367 1334,-31 1328.164,-29.6529 1322.0735,-27.4617 1316.558,-25.1455"/>
<polygon fill="#191970" stroke="#191970" points="1963.4542,-70.6866 1973.9009,-68.9212 1964.6334,-63.7866 1963.4542,-70.6866"/>
</g>
<!-- Node28 -->
<g id="node18" class="node">
<title>Node28</title>
<g id="a_node18"><a xlink:href="prob__bc_8cpp.html" target="_top" xlink:title="prob_bc.cpp">
<polygon fill="#ffffff" stroke="#000000" points="1343,-6 1343,-25 1413,-25 1413,-6 1343,-6"/>
<text text-anchor="middle" x="1378" y="-13" font-family="Helvetica,sans-Serif" font-size="10.00" fill="#000000">prob_bc.cpp</text>
</a>
</g>
</g>
<!-- Node18&#45;&gt;Node28 -->
<g id="edge18" class="edge">
<title>Node18&#45;&gt;Node28</title>
<path fill="none" stroke="#191970" d="M1963.8641,-67.1848C1724.9888,-26.1062 1655.6844,-78.9665 1422,-31 1415.1771,-29.5995 1407.9728,-27.3908 1401.4133,-25.0748"/>
<polygon fill="#191970" stroke="#191970" points="1963.4413,-70.6641 1973.8962,-68.9477 1964.6529,-63.7697 1963.4413,-70.6641"/>
</g>
<!-- Node29 -->
<g id="node19" class="node">
<title>Node29</title>
<g id="a_node19"><a xlink:href="prob__init__fluid_8cpp.html" target="_top" xlink:title="prob_init_fluid.cpp">
<polygon fill="#ffffff" stroke="#000000" points="1431.5,-6 1431.5,-25 1526.5,-25 1526.5,-6 1431.5,-6"/>
<text text-anchor="middle" x="1479" y="-13" font-family="Helvetica,sans-Serif" font-size="10.00" fill="#000000">prob_init_fluid.cpp</text>
</a>
</g>
</g>
<!-- Node18&#45;&gt;Node29 -->
<g id="edge19" class="edge">
<title>Node18&#45;&gt;Node29</title>
<path fill="none" stroke="#191970" d="M1963.8918,-67.1493C1774.6445,-32.8698 1720.5646,-64.1494 1535,-31 1526.6583,-29.5098 1517.7616,-27.3288 1509.5722,-25.0706"/>
<polygon fill="#191970" stroke="#191970" points="1963.4174,-70.6209 1973.8871,-68.9975 1964.6902,-63.7376 1963.4174,-70.6209"/>
</g>
<!-- Node30 -->
<g id="node20" class="node">
<title>Node30</title>
<g id="a_node20"><a xlink:href="incflo__apply__nodal__projection_8cpp.html" target="_top" xlink:title="incflo_apply_nodal\l_projection.cpp">
<polygon fill="#ffffff" stroke="#000000" points="949.5,-.5 949.5,-30.5 1046.5,-30.5 1046.5,-.5 949.5,-.5"/>
<text text-anchor="start" x="957.5" y="-18.5" font-family="Helvetica,sans-Serif" font-size="10.00" fill="#000000">incflo_apply_nodal</text>
<text text-anchor="middle" x="998" y="-7.5" font-family="Helvetica,sans-Serif" font-size="10.00" fill="#000000">_projection.cpp</text>
</a>
</g>
</g>
<!-- Node18&#45;&gt;Node30 -->
<g id="edge20" class="edge">
<title>Node18&#45;&gt;Node30</title>
<path fill="none" stroke="#191970" d="M1963.9924,-67.2382C1603.8358,-8.0701 1506.0684,-57.744 1146,-31 1112.7644,-28.5314 1075.4437,-24.6149 1046.5941,-21.3366"/>
<polygon fill="#191970" stroke="#191970" points="1963.4692,-70.6991 1973.9073,-68.8835 1964.6152,-63.7936 1963.4692,-70.6991"/>
</g>
<!-- Node31 -->
<g id="node21" class="node">
<title>Node31</title>
<g id="a_node21"><a xlink:href="init_8cpp.html" target="_top" xlink:title="init.cpp">
<polygon fill="#ffffff" stroke="#000000" points="773,-6 773,-25 821,-25 821,-6 773,-6"/>
<text text-anchor="middle" x="797" y="-13" font-family="Helvetica,sans-Serif" font-size="10.00" fill="#000000">init.cpp</text>
</a>
</g>
</g>
<!-- Node18&#45;&gt;Node31 -->
<g id="edge21" class="edge">
<title>Node18&#45;&gt;Node31</title>
<path fill="none" stroke="#191970" d="M1963.8828,-67.2389C1513.247,4.8717 1391.3404,-63.3435 940,-31 898.1547,-28.0013 849.6464,-22.2631 821.2415,-18.6724"/>
<polygon fill="#191970" stroke="#191970" points="1963.4814,-70.7193 1973.9114,-68.858 1964.5972,-63.8088 1963.4814,-70.7193"/>
</g>
<!-- Node32 -->
<g id="node22" class="node">
<title>Node32</title>
<g id="a_node22"><a xlink:href="set__background__pressure_8cpp.html" target="_top" xlink:title="set_background_pressure.cpp">
<polygon fill="#ffffff" stroke="#000000" points="1544.5,-6 1544.5,-25 1691.5,-25 1691.5,-6 1544.5,-6"/>
<text text-anchor="middle" x="1618" y="-13" font-family="Helvetica,sans-Serif" font-size="10.00" fill="#000000">set_background_pressure.cpp</text>
</a>
</g>
</g>
<!-- Node18&#45;&gt;Node32 -->
<g id="edge22" class="edge">
<title>Node18&#45;&gt;Node32</title>
<path fill="none" stroke="#191970" d="M1963.8373,-67.0144C1847.4263,-42.6215 1814.7087,-49.3589 1701,-31 1690.0017,-29.2243 1678.2185,-27.1368 1667.0857,-25.0792"/>
<polygon fill="#191970" stroke="#191970" points="1963.3477,-70.4885 1973.8572,-69.1466 1964.8048,-63.6418 1963.3477,-70.4885"/>
</g>
<!-- Node33 -->
<g id="node23" class="node">
<title>Node33</title>
<g id="a_node23"><a xlink:href="diagnostics_8cpp.html" target="_top" xlink:title="diagnostics.cpp">
<polygon fill="#ffffff" stroke="#000000" points="1709.5,-6 1709.5,-25 1794.5,-25 1794.5,-6 1709.5,-6"/>
<text text-anchor="middle" x="1752" y="-13" font-family="Helvetica,sans-Serif" font-size="10.00" fill="#000000">diagnostics.cpp</text>
</a>
</g>
</g>
<!-- Node18&#45;&gt;Node33 -->
<g id="edge23" class="edge">
<title>Node18&#45;&gt;Node33</title>
<path fill="none" stroke="#191970" d="M1963.8427,-66.8296C1892.2784,-48.6818 1871.9057,-48.6895 1804,-31 1797.0718,-29.1952 1789.6742,-27.0959 1782.6965,-25.036"/>
<polygon fill="#191970" stroke="#191970" points="1963.2441,-70.2894 1973.8005,-69.387 1964.9855,-63.5094 1963.2441,-70.2894"/>
</g>
<!-- Node34 -->
<g id="node24" class="node">
<title>Node34</title>
<g id="a_node24"><a xlink:href="_field_plane_averaging_8cpp.html" target="_top" xlink:title="FieldPlaneAveraging.cpp">
<polygon fill="#ffffff" stroke="#000000" points="414.5,-6 414.5,-25 539.5,-25 539.5,-6 414.5,-6"/>
<text text-anchor="middle" x="477" y="-13" font-family="Helvetica,sans-Serif" font-size="10.00" fill="#000000">FieldPlaneAveraging.cpp</text>
</a>
</g>
</g>
<!-- Node18&#45;&gt;Node34 -->
<g id="edge24" class="edge">
<title>Node18&#45;&gt;Node34</title>
<path fill="none" stroke="#191970" d="M1963.7546,-67.2642C1685.007,-25.4017 1027.5172,-42.0638 764,-31 686.7246,-27.7556 597.8129,-22.7578 539.6842,-19.3192"/>
<polygon fill="#191970" stroke="#191970" points="1963.4949,-70.7658 1973.9138,-68.8432 1964.57,-63.8489 1963.4949,-70.7658"/>
</g>
<!-- Node35 -->
<g id="node25" class="node">
<title>Node35</title>
<g id="a_node25"><a xlink:href="io_8cpp.html" target="_top" xlink:title="io.cpp">
<polygon fill="#ffffff" stroke="#000000" points="1931.5,-6 1931.5,-25 1974.5,-25 1974.5,-6 1931.5,-6"/>
<text text-anchor="middle" x="1953" y="-13" font-family="Helvetica,sans-Serif" font-size="10.00" fill="#000000">io.cpp</text>
</a>
</g>
</g>
<!-- Node18&#45;&gt;Node35 -->
<g id="edge25" class="edge">
<title>Node18&#45;&gt;Node35</title>
<path fill="none" stroke="#191970" d="M1985.7209,-59.2465C1977.4417,-48.1775 1967.1031,-34.3552 1960.2888,-25.2449"/>
<polygon fill="#191970" stroke="#191970" points="1983.0201,-61.4792 1991.8125,-67.3906 1988.6256,-57.2864 1983.0201,-61.4792"/>
</g>
<!-- Node36 -->
<g id="node26" class="node">
<title>Node36</title>
<g id="a_node26"><a xlink:href="_plane_averaging_8cpp.html" target="_top" xlink:title="PlaneAveraging.cpp">
<polygon fill="#ffffff" stroke="#000000" points="1993,-6 1993,-25 2097,-25 2097,-6 1993,-6"/>
<text text-anchor="middle" x="2045" y="-13" font-family="Helvetica,sans-Serif" font-size="10.00" fill="#000000">PlaneAveraging.cpp</text>
</a>
</g>
</g>
<!-- Node18&#45;&gt;Node36 -->
<g id="edge26" class="edge">
<title>Node18&#45;&gt;Node36</title>
<path fill="none" stroke="#191970" d="M2012.2791,-59.2465C2020.5583,-48.1775 2030.8969,-34.3552 2037.7112,-25.2449"/>
<polygon fill="#191970" stroke="#191970" points="2009.3744,-57.2864 2006.1875,-67.3906 2014.9799,-61.4792 2009.3744,-57.2864"/>
</g>
<!-- Node37 -->
<g id="node27" class="node">
<title>Node37</title>
<g id="a_node27"><a xlink:href="_a_b_l_8cpp.html" target="_top" xlink:title="ABL.cpp">
<polygon fill="#ffffff" stroke="#000000" points="304,-6 304,-25 358,-25 358,-6 304,-6"/>
<text text-anchor="middle" x="331" y="-13" font-family="Helvetica,sans-Serif" font-size="10.00" fill="#000000">ABL.cpp</text>
</a>
</g>
</g>
<!-- Node18&#45;&gt;Node37 -->
<g id="edge27" class="edge">
<title>Node18&#45;&gt;Node37</title>
<path fill="none" stroke="#191970" d="M1963.9991,-67.3156C1606.2239,-14.6684 746.2817,-70.343 405,-31 389.3524,-29.1961 372.1147,-25.6776 358.2157,-22.4483"/>
<polygon fill="#191970" stroke="#191970" points="1963.5045,-70.7806 1973.917,-68.8233 1964.5566,-63.8601 1963.5045,-70.7806"/>
</g>
<!-- Node162&#45;&gt;Node37 -->
<g id="edge32" class="edge">
<title>Node162&#45;&gt;Node37</title>
<path fill="none" stroke="#191970" d="M90.0939,-66.4131C151.9857,-53.3329 255.0663,-31.5478 303.8368,-21.2407"/>
<polygon fill="#191970" stroke="#191970" points="89.2169,-63.0211 80.1568,-68.5133 90.6644,-69.8698 89.2169,-63.0211"/>
</g>
<!-- Node46&#45;&gt;Node34 -->
<g id="edge38" class="edge">
<title>Node46&#45;&gt;Node34</title>
<path fill="none" stroke="#191970" d="M331.1522,-125.8293C363.8301,-119.6761 402.0586,-108.243 431,-87 452.8941,-70.9297 467.0791,-41.0235 473.3263,-25.4724"/>
<polygon fill="#191970" stroke="#191970" points="330.4502,-122.3989 321.2055,-127.5744 331.6599,-129.2936 330.4502,-122.3989"/>
</g>
<!-- Node46&#45;&gt;Node37 -->
<g id="edge39" class="edge">
<title>Node46&#45;&gt;Node37</title>
<path fill="none" stroke="#191970" d="M267.3184,-113.3081C270.8276,-99.7011 276.5871,-81.5112 285,-67 294.5003,-50.6133 309.796,-34.8365 320.1145,-25.1588"/>
<polygon fill="#191970" stroke="#191970" points="263.9035,-112.5401 264.9789,-123.0802 270.7111,-114.1699 263.9035,-112.5401"/>
</g>
<!-- Node46&#45;&gt;Node47 -->
<g id="edge34" class="edge">
<title>Node46&#45;&gt;Node47</title>
<path fill="none" stroke="#191970" d="M237.6324,-118.0465C220.729,-108.0824 199.0096,-95.2794 184.3581,-86.6427"/>
<polygon fill="#191970" stroke="#191970" points="236.0602,-121.1825 246.4523,-123.2455 239.6149,-115.1522 236.0602,-121.1825"/>
</g>
<!-- Node46&#45;&gt;Node49 -->
<g id="edge36" class="edge">
<title>Node46&#45;&gt;Node49</title>
<path fill="none" stroke="#191970" d="M288.3676,-118.0465C305.271,-108.0824 326.9904,-95.2794 341.6419,-86.6427"/>
<polygon fill="#191970" stroke="#191970" points="286.3851,-115.1522 279.5477,-123.2455 289.9398,-121.1825 286.3851,-115.1522"/>
</g>
<!-- Node47&#45;&gt;Node37 -->
<g id="edge35" class="edge">
<title>Node47&#45;&gt;Node37</title>
<path fill="none" stroke="#191970" d="M202.9871,-63.7993C233.8711,-52.1468 278.1504,-35.4402 305.7101,-25.0419"/>
<polygon fill="#191970" stroke="#191970" points="201.5894,-60.5858 193.4688,-67.3906 204.0605,-67.1351 201.5894,-60.5858"/>
</g>
<!-- Node49&#45;&gt;Node37 -->
<g id="edge37" class="edge">
<title>Node49&#45;&gt;Node37</title>
<path fill="none" stroke="#191970" d="M349.6229,-57.9189C344.8688,-47.0901 339.1195,-33.9944 335.2782,-25.2449"/>
<polygon fill="#191970" stroke="#191970" points="346.5565,-59.6412 353.7813,-67.3906 352.966,-56.8272 346.5565,-59.6412"/>
</g>
<!-- Node52&#45;&gt;Node37 -->
<g id="edge41" class="edge">
<title>Node52&#45;&gt;Node37</title>
<path fill="none" stroke="#191970" d="M492.5278,-64.4358C452.4016,-52.2793 392.7396,-34.2044 358.2721,-23.7622"/>
<polygon fill="#191970" stroke="#191970" points="491.696,-67.8408 502.2813,-67.3906 493.7256,-61.1415 491.696,-67.8408"/>
</g>
<!-- Node164&#45;&gt;Node5 -->
<g id="edge46" class="edge">
<title>Node164&#45;&gt;Node5</title>
<path fill="none" stroke="#191970" d="M1823.6329,-119.3833C1800.1716,-109.1985 1768.6815,-95.5284 1747.8865,-86.5011"/>
<polygon fill="#191970" stroke="#191970" points="1822.2574,-122.6017 1832.8241,-123.3733 1825.0449,-116.1806 1822.2574,-122.6017"/>
</g>
<!-- Node165&#45;&gt;Node23 -->
<g id="edge48" class="edge">
<title>Node165&#45;&gt;Node23</title>
<path fill="none" stroke="#191970" d="M1018.4428,-67.0552C1365.5463,-19.4718 1461.1528,-83.2754 1804,-31 1813.1086,-29.6112 1822.8403,-27.3762 1831.7196,-25.0305"/>
<polygon fill="#191970" stroke="#191970" points="1017.7843,-63.6131 1008.3625,-68.4586 1018.7496,-70.5462 1017.7843,-63.6131"/>
</g>
<!-- Node165&#45;&gt;Node30 -->
<g id="edge49" class="edge">
<title>Node165&#45;&gt;Node30</title>
<path fill="none" stroke="#191970" d="M982.1257,-57.9464C985.4233,-49.129 989.2848,-38.8037 992.3736,-30.5446"/>
<polygon fill="#191970" stroke="#191970" points="978.8185,-56.7982 978.5938,-67.3906 985.375,-59.2502 978.8185,-56.7982"/>
</g>
<!-- Node166&#45;&gt;Node31 -->
<g id="edge53" class="edge">
<title>Node166&#45;&gt;Node31</title>
<path fill="none" stroke="#191970" d="M713.8498,-62.415C734.3391,-50.8546 762.3769,-35.035 780.0883,-25.0419"/>
<polygon fill="#191970" stroke="#191970" points="712.0207,-59.4283 705.0313,-67.3906 715.4605,-65.5249 712.0207,-59.4283"/>
</g>
<!-- Node175&#45;&gt;Node22 -->
<g id="edge68" class="edge">
<title>Node175&#45;&gt;Node22</title>
<path fill="none" stroke="#191970" d="M2210.6538,-126.3617C2298.8606,-112.9347 2498.3518,-79.6348 2661,-31 2666.5845,-29.3301 2672.4872,-27.1903 2677.964,-25.0372"/>
<polygon fill="#191970" stroke="#191970" points="2210.0745,-122.9094 2200.709,-127.8628 2211.1194,-129.831 2210.0745,-122.9094"/>
</g>
<!-- Node175&#45;&gt;Node23 -->
<g id="edge69" class="edge">
<title>Node175&#45;&gt;Node23</title>
<path fill="none" stroke="#191970" d="M2164.6794,-113.0137C2163.317,-98.1279 2158.9407,-78.4712 2146,-67 2070.8733,-.4043 2021.2628,-51.5775 1923,-31 1914.7864,-29.28 1906.0079,-27.1691 1897.7713,-25.0654"/>
<polygon fill="#191970" stroke="#191970" points="2161.1978,-113.4531 2165.2258,-123.2524 2168.1879,-113.0801 2161.1978,-113.4531"/>
</g>
<!-- Node175&#45;&gt;Node81 -->
<g id="edge67" class="edge">
<title>Node175&#45;&gt;Node81</title>
<path fill="none" stroke="#191970" d="M2145.1404,-116.645C2133.3142,-106.9058 2118.7108,-94.8795 2108.709,-86.6427"/>
<polygon fill="#191970" stroke="#191970" points="2143.211,-119.5902 2153.1553,-123.2455 2147.661,-114.1867 2143.211,-119.5902"/>
</g>
</g>
</svg>
