<?xml version="1.0" encoding="UTF-8" standalone="no"?>
<!DOCTYPE svg PUBLIC "-//W3C//DTD SVG 1.1//EN"
 "http://www.w3.org/Graphics/SVG/1.1/DTD/svg11.dtd">
<!-- Generated by graphviz version 2.40.1 (20161225.0304)
 -->
<!-- Title: incflo_MAC_projection.cpp Pages: 1 -->
<svg width="1953pt" height="319pt"
 viewBox="0.00 0.00 1952.50 319.00" xmlns="http://www.w3.org/2000/svg" xmlns:xlink="http://www.w3.org/1999/xlink">
<g id="graph0" class="graph" transform="scale(1 1) rotate(0) translate(4 315)">
<title>incflo_MAC_projection.cpp</title>
<polygon fill="#ffffff" stroke="transparent" points="-4,4 -4,-315 1948.5,-315 1948.5,4 -4,4"/>
<!-- Node0 -->
<g id="node1" class="node">
<title>Node0</title>
<polygon fill="#bfbfbf" stroke="#000000" points="432.5,-291.5 432.5,-310.5 566.5,-310.5 566.5,-291.5 432.5,-291.5"/>
<text text-anchor="middle" x="499.5" y="-298.5" font-family="Helvetica,sans-Serif" font-size="10.00" fill="#000000">incflo_MAC_projection.cpp</text>
</g>
<!-- Node1 -->
<g id="node2" class="node">
<title>Node1</title>
<polygon fill="#ffffff" stroke="#bfbfbf" points="0,-168.5 0,-187.5 93,-187.5 93,-168.5 0,-168.5"/>
<text text-anchor="middle" x="46.5" y="-175.5" font-family="Helvetica,sans-Serif" font-size="10.00" fill="#000000">AMReX_REAL.H</text>
</g>
<!-- Node0&#45;&gt;Node1 -->
<g id="edge1" class="edge">
<title>Node0&#45;&gt;Node1</title>
<path fill="none" stroke="#191970" d="M432.2395,-298.4913C315.1938,-293.4768 83.9379,-280.4468 57.5,-255 42.4243,-240.4894 41.5687,-215.3344 43.2421,-197.737"/>
<polygon fill="#191970" stroke="#191970" points="46.7304,-198.0527 44.5444,-187.6859 39.7884,-197.1532 46.7304,-198.0527"/>
</g>
<!-- Node2 -->
<g id="node3" class="node">
<title>Node2</title>
<polygon fill="#ffffff" stroke="#bfbfbf" points="66.5,-230 66.5,-249 162.5,-249 162.5,-230 66.5,-230"/>
<text text-anchor="middle" x="114.5" y="-237" font-family="Helvetica,sans-Serif" font-size="10.00" fill="#000000">AMReX_BLFort.H</text>
</g>
<!-- Node0&#45;&gt;Node2 -->
<g id="edge2" class="edge">
<title>Node0&#45;&gt;Node2</title>
<path fill="none" stroke="#191970" d="M432.4881,-294.1089C365.8989,-286.6741 261.061,-273.3809 171.5,-255 166.7282,-254.0207 161.7649,-252.8711 156.8453,-251.6483"/>
<polygon fill="#191970" stroke="#191970" points="157.4424,-248.1875 146.8841,-249.0663 155.6859,-254.9635 157.4424,-248.1875"/>
</g>
<!-- Node3 -->
<g id="node4" class="node">
<title>Node3</title>
<polygon fill="#ffffff" stroke="#bfbfbf" points="181,-230 181,-249 282,-249 282,-230 181,-230"/>
<text text-anchor="middle" x="231.5" y="-237" font-family="Helvetica,sans-Serif" font-size="10.00" fill="#000000">AMReX_SPACE.H</text>
</g>
<!-- Node0&#45;&gt;Node3 -->
<g id="edge3" class="edge">
<title>Node0&#45;&gt;Node3</title>
<path fill="none" stroke="#191970" d="M453.7151,-291.4772C411.2901,-282.522 346.4807,-268.5082 290.5,-255 286.0956,-253.9372 281.5156,-252.7968 276.9416,-251.6343"/>
<polygon fill="#191970" stroke="#191970" points="277.5657,-248.1809 267.0087,-249.0759 275.8196,-254.9596 277.5657,-248.1809"/>
</g>
<!-- Node4 -->
<g id="node5" class="node">
<title>Node4</title>
<polygon fill="#ffffff" stroke="#bfbfbf" points="300,-230 300,-249 419,-249 419,-230 300,-230"/>
<text text-anchor="middle" x="359.5" y="-237" font-family="Helvetica,sans-Serif" font-size="10.00" fill="#000000">AMReX_MultiFabUtil.H</text>
</g>
<!-- Node0&#45;&gt;Node4 -->
<g id="edge4" class="edge">
<title>Node0&#45;&gt;Node4</title>
<path fill="none" stroke="#191970" d="M477.625,-291.3906C454.2004,-281.1005 416.8404,-264.6888 390.4159,-253.0809"/>
<polygon fill="#191970" stroke="#191970" points="391.7846,-249.8594 381.2214,-249.0419 388.9693,-256.2683 391.7846,-249.8594"/>
</g>
<!-- Node5 -->
<g id="node6" class="node">
<title>Node5</title>
<polygon fill="#ffffff" stroke="#bfbfbf" points="437,-230 437,-249 562,-249 562,-230 437,-230"/>
<text text-anchor="middle" x="499.5" y="-237" font-family="Helvetica,sans-Serif" font-size="10.00" fill="#000000">AMReX_MacProjector.H</text>
</g>
<!-- Node0&#45;&gt;Node5 -->
<g id="edge5" class="edge">
<title>Node0&#45;&gt;Node5</title>
<path fill="none" stroke="#191970" d="M499.5,-291.3906C499.5,-282.8657 499.5,-270.1392 499.5,-259.4235"/>
<polygon fill="#191970" stroke="#191970" points="503.0001,-259.2448 499.5,-249.2449 496.0001,-259.2449 503.0001,-259.2448"/>
</g>
<!-- Node6 -->
<g id="node7" class="node">
<title>Node6</title>
<polygon fill="#ffffff" stroke="#bfbfbf" points="1654,-.5 1654,-19.5 1749,-19.5 1749,-.5 1654,-.5"/>
<text text-anchor="middle" x="1701.5" y="-7.5" font-family="Helvetica,sans-Serif" font-size="10.00" fill="#000000">AMReX_Vector.H</text>
</g>
<!-- Node0&#45;&gt;Node6 -->
<g id="edge6" class="edge">
<title>Node0&#45;&gt;Node6</title>
<path fill="none" stroke="#191970" d="M566.6074,-297.8953C824.7689,-285.5161 1739.5,-237.4581 1739.5,-178 1739.5,-178 1739.5,-178 1739.5,-122 1739.5,-87.6118 1723.2366,-50.2832 1711.989,-28.5791"/>
<polygon fill="#191970" stroke="#191970" points="1714.931,-26.6605 1707.107,-19.5166 1708.7683,-29.9804 1714.931,-26.6605"/>
</g>
<!-- Node7 -->
<g id="node8" class="node">
<title>Node7</title>
<g id="a_node8"><a xlink:href="mac__projection_8_h.html" target="_top" xlink:title="amr&#45;wind/convection\l/mac_projection.H">
<polygon fill="#ffffff" stroke="#000000" points="753,-224.5 753,-254.5 860,-254.5 860,-224.5 753,-224.5"/>
<text text-anchor="start" x="761" y="-242.5" font-family="Helvetica,sans-Serif" font-size="10.00" fill="#000000">amr&#45;wind/convection</text>
<text text-anchor="middle" x="806.5" y="-231.5" font-family="Helvetica,sans-Serif" font-size="10.00" fill="#000000">/mac_projection.H</text>
</a>
</g>
</g>
<!-- Node0&#45;&gt;Node7 -->
<g id="edge7" class="edge">
<title>Node0&#45;&gt;Node7</title>
<path fill="none" stroke="#191970" d="M554.9114,-291.4482C602.2539,-283.0844 672.3984,-270.2138 742.9715,-255.0471"/>
<polygon fill="#191970" stroke="#191970" points="743.8968,-258.428 752.9302,-252.892 742.4162,-251.5863 743.8968,-258.428"/>
</g>
<!-- Node26 -->
<g id="node27" class="node">
<title>Node26</title>
<g id="a_node27"><a xlink:href="_m_l_m_g_options_8_h.html" target="_top" xlink:title="amr&#45;wind/core/MLMGOptions.H">
<polygon fill="#ffffff" stroke="#000000" points="580,-230 580,-249 735,-249 735,-230 580,-230"/>
<text text-anchor="middle" x="657.5" y="-237" font-family="Helvetica,sans-Serif" font-size="10.00" fill="#000000">amr&#45;wind/core/MLMGOptions.H</text>
</a>
</g>
</g>
<!-- Node0&#45;&gt;Node26 -->
<g id="edge44" class="edge">
<title>Node0&#45;&gt;Node26</title>
<path fill="none" stroke="#191970" d="M524.1875,-291.3906C550.8557,-281.0103 593.5282,-264.4004 623.3911,-252.7766"/>
<polygon fill="#191970" stroke="#191970" points="624.9365,-255.9309 632.9859,-249.0419 622.3973,-249.4076 624.9365,-255.9309"/>
</g>
<!-- Node29 -->
<g id="node30" class="node">
<title>Node29</title>
<g id="a_node30"><a xlink:href="console__io_8_h.html" target="_top" xlink:title="amr&#45;wind/utilities\l/console_io.H">
<polygon fill="#ffffff" stroke="#000000" points="1767.5,-224.5 1767.5,-254.5 1857.5,-254.5 1857.5,-224.5 1767.5,-224.5"/>
<text text-anchor="start" x="1775.5" y="-242.5" font-family="Helvetica,sans-Serif" font-size="10.00" fill="#000000">amr&#45;wind/utilities</text>
<text text-anchor="middle" x="1812.5" y="-231.5" font-family="Helvetica,sans-Serif" font-size="10.00" fill="#000000">/console_io.H</text>
</a>
</g>
</g>
<!-- Node0&#45;&gt;Node29 -->
<g id="edge49" class="edge">
<title>Node0&#45;&gt;Node29</title>
<path fill="none" stroke="#191970" d="M566.6822,-300.4847C792.2606,-298.4491 1521.4205,-289.3129 1753.5,-255 1754.767,-254.8127 1756.046,-254.6084 1757.333,-254.3893"/>
<polygon fill="#191970" stroke="#191970" points="1758.1434,-257.7974 1767.2907,-252.4517 1756.8063,-250.9263 1758.1434,-257.7974"/>
</g>
<!-- Node8 -->
<g id="node9" class="node">
<title>Node8</title>
<g id="a_node9"><a xlink:href="_field_repo_8_h.html" target="_top" xlink:title="amr&#45;wind/core/FieldRepo.H">
<polygon fill="#ffffff" stroke="#000000" points="736.5,-168.5 736.5,-187.5 872.5,-187.5 872.5,-168.5 736.5,-168.5"/>
<text text-anchor="middle" x="804.5" y="-175.5" font-family="Helvetica,sans-Serif" font-size="10.00" fill="#000000">amr&#45;wind/core/FieldRepo.H</text>
</a>
</g>
</g>
<!-- Node7&#45;&gt;Node8 -->
<g id="edge8" class="edge">
<title>Node7&#45;&gt;Node8</title>
<path fill="none" stroke="#191970" d="M806.0056,-224.2977C805.7482,-216.3834 805.4302,-206.6043 805.1529,-198.0759"/>
<polygon fill="#191970" stroke="#191970" points="808.6435,-197.7279 804.8202,-187.8469 801.6472,-197.9554 808.6435,-197.7279"/>
</g>
<!-- Node9 -->
<g id="node10" class="node">
<title>Node9</title>
<polygon fill="#ffffff" stroke="#bfbfbf" points="474,-.5 474,-19.5 515,-19.5 515,-.5 474,-.5"/>
<text text-anchor="middle" x="494.5" y="-7.5" font-family="Helvetica,sans-Serif" font-size="10.00" fill="#000000">string</text>
</g>
<!-- Node8&#45;&gt;Node9 -->
<g id="edge9" class="edge">
<title>Node8&#45;&gt;Node9</title>
<path fill="none" stroke="#191970" d="M736.439,-169.1656C732.7407,-168.754 729.0761,-168.3622 725.5,-168 620.6214,-157.3777 349.8561,-172.4244 252.5,-132 217.2835,-117.3773 203.3898,-110.6632 187.5,-76 183.7959,-67.9196 181.699,-62.735 187.5,-56 205.4349,-35.1776 389.6787,-18.3343 463.8319,-12.3478"/>
<polygon fill="#191970" stroke="#191970" points="464.2496,-15.8257 473.9408,-11.5441 463.6948,-8.8477 464.2496,-15.8257"/>
</g>
<!-- Node10 -->
<g id="node11" class="node">
<title>Node10</title>
<polygon fill="#ffffff" stroke="#bfbfbf" points="399,-56.5 399,-75.5 482,-75.5 482,-56.5 399,-56.5"/>
<text text-anchor="middle" x="440.5" y="-63.5" font-family="Helvetica,sans-Serif" font-size="10.00" fill="#000000">unordered_map</text>
</g>
<!-- Node8&#45;&gt;Node10 -->
<g id="edge10" class="edge">
<title>Node8&#45;&gt;Node10</title>
<path fill="none" stroke="#191970" d="M773.4656,-168.4509C707.785,-148.2415 554.7426,-101.1516 481.2767,-78.5467"/>
<polygon fill="#191970" stroke="#191970" points="482.043,-75.1206 471.4559,-75.5249 479.9844,-81.811 482.043,-75.1206"/>
</g>
<!-- Node11 -->
<g id="node12" class="node">
<title>Node11</title>
<g id="a_node12"><a xlink:href="_field_desc_types_8_h.html" target="_top" xlink:title="amr&#45;wind/core/FieldDescTypes.H">
<polygon fill="#ffffff" stroke="#000000" points="1046,-.5 1046,-19.5 1209,-19.5 1209,-.5 1046,-.5"/>
<text text-anchor="middle" x="1127.5" y="-7.5" font-family="Helvetica,sans-Serif" font-size="10.00" fill="#000000">amr&#45;wind/core/FieldDescTypes.H</text>
</a>
</g>
</g>
<!-- Node8&#45;&gt;Node11 -->
<g id="edge11" class="edge">
<title>Node8&#45;&gt;Node11</title>
<path fill="none" stroke="#191970" d="M823.5957,-168.4277C859.259,-150.5135 938.3644,-110.6035 1004.5,-76 1038.0106,-58.4666 1076.375,-37.7826 1101.2215,-24.3054"/>
<polygon fill="#191970" stroke="#191970" points="1102.9263,-27.3625 1110.044,-19.5146 1099.5858,-21.2109 1102.9263,-27.3625"/>
</g>
<!-- Node12 -->
<g id="node13" class="node">
<title>Node12</title>
<g id="a_node13"><a xlink:href="_field_utils_8_h.html" target="_top" xlink:title="amr&#45;wind/core/FieldUtils.H">
<polygon fill="#ffffff" stroke="#000000" points="1502,-56.5 1502,-75.5 1635,-75.5 1635,-56.5 1502,-56.5"/>
<text text-anchor="middle" x="1568.5" y="-63.5" font-family="Helvetica,sans-Serif" font-size="10.00" fill="#000000">amr&#45;wind/core/FieldUtils.H</text>
</a>
</g>
</g>
<!-- Node8&#45;&gt;Node12 -->
<g id="edge12" class="edge">
<title>Node8&#45;&gt;Node12</title>
<path fill="none" stroke="#191970" d="M872.6475,-174.5431C1001.8535,-167.6465 1277.8938,-151.1808 1371.5,-132 1431.184,-119.7702 1497.8688,-94.9473 1536.3345,-79.4728"/>
<polygon fill="#191970" stroke="#191970" points="1538.0008,-82.5735 1545.9454,-75.5639 1535.3636,-76.0893 1538.0008,-82.5735"/>
</g>
<!-- Node13 -->
<g id="node14" class="node">
<title>Node13</title>
<polygon fill="#ffffff" stroke="#bfbfbf" points="1392.5,-.5 1392.5,-19.5 1496.5,-19.5 1496.5,-.5 1392.5,-.5"/>
<text text-anchor="middle" x="1444.5" y="-7.5" font-family="Helvetica,sans-Serif" font-size="10.00" fill="#000000">AMReX_MultiFab.H</text>
</g>
<!-- Node8&#45;&gt;Node13 -->
<g id="edge42" class="edge">
<title>Node8&#45;&gt;Node13</title>
<path fill="none" stroke="#191970" d="M872.8131,-175.1272C1064.4535,-166.3344 1596.2692,-136.6244 1643.5,-76 1648.9629,-68.9879 1649.0325,-62.9573 1643.5,-56 1634.8255,-45.0916 1561.7538,-30.2328 1506.6516,-20.3896"/>
<polygon fill="#191970" stroke="#191970" points="1507.048,-16.9055 1496.5915,-18.6121 1505.83,-23.7987 1507.048,-16.9055"/>
</g>
<!-- Node15 -->
<g id="node16" class="node">
<title>Node15</title>
<g id="a_node16"><a xlink:href="_field_8_h.html" target="_top" xlink:title="amr&#45;wind/core/Field.H">
<polygon fill="#ffffff" stroke="#000000" points="748,-112.5 748,-131.5 861,-131.5 861,-112.5 748,-112.5"/>
<text text-anchor="middle" x="804.5" y="-119.5" font-family="Helvetica,sans-Serif" font-size="10.00" fill="#000000">amr&#45;wind/core/Field.H</text>
</a>
</g>
</g>
<!-- Node8&#45;&gt;Node15 -->
<g id="edge16" class="edge">
<title>Node8&#45;&gt;Node15</title>
<path fill="none" stroke="#191970" d="M804.5,-168.2455C804.5,-160.9382 804.5,-150.6944 804.5,-141.7046"/>
<polygon fill="#191970" stroke="#191970" points="808.0001,-141.6426 804.5,-131.6427 801.0001,-141.6427 808.0001,-141.6426"/>
</g>
<!-- Node21 -->
<g id="node22" class="node">
<title>Node21</title>
<g id="a_node22"><a xlink:href="_int_field_8_h.html" target="_top" xlink:title="amr&#45;wind/core/IntField.H">
<polygon fill="#ffffff" stroke="#000000" points="402.5,-112.5 402.5,-131.5 526.5,-131.5 526.5,-112.5 402.5,-112.5"/>
<text text-anchor="middle" x="464.5" y="-119.5" font-family="Helvetica,sans-Serif" font-size="10.00" fill="#000000">amr&#45;wind/core/IntField.H</text>
</a>
</g>
</g>
<!-- Node8&#45;&gt;Node21 -->
<g id="edge30" class="edge">
<title>Node8&#45;&gt;Node21</title>
<path fill="none" stroke="#191970" d="M746.4382,-168.4369C687.1497,-158.6717 595.1616,-143.5207 532.5035,-133.2006"/>
<polygon fill="#191970" stroke="#191970" points="532.7582,-129.6954 522.3223,-131.5237 531.6205,-136.6024 532.7582,-129.6954"/>
</g>
<!-- Node22 -->
<g id="node23" class="node">
<title>Node22</title>
<polygon fill="#ffffff" stroke="#bfbfbf" points="197,-56.5 197,-75.5 304,-75.5 304,-56.5 197,-56.5"/>
<text text-anchor="middle" x="250.5" y="-63.5" font-family="Helvetica,sans-Serif" font-size="10.00" fill="#000000">AMReX_iMultiFab.H</text>
</g>
<!-- Node8&#45;&gt;Node22 -->
<g id="edge43" class="edge">
<title>Node8&#45;&gt;Node22</title>
<path fill="none" stroke="#191970" d="M736.4377,-169.1778C732.7398,-168.763 729.0756,-168.3672 725.5,-168 674.9416,-162.8073 308.8709,-164.141 269.5,-132 256.104,-121.064 251.7883,-101.3361 250.5639,-86.288"/>
<polygon fill="#191970" stroke="#191970" points="254.045,-85.7613 250.131,-75.916 247.0511,-86.0532 254.045,-85.7613"/>
</g>
<!-- Node23 -->
<g id="node24" class="node">
<title>Node23</title>
<g id="a_node24"><a xlink:href="_scratch_field_8_h.html" target="_top" xlink:title="amr&#45;wind/core/ScratchField.H">
<polygon fill="#ffffff" stroke="#000000" points="1216.5,-112.5 1216.5,-131.5 1362.5,-131.5 1362.5,-112.5 1216.5,-112.5"/>
<text text-anchor="middle" x="1289.5" y="-119.5" font-family="Helvetica,sans-Serif" font-size="10.00" fill="#000000">amr&#45;wind/core/ScratchField.H</text>
</a>
</g>
</g>
<!-- Node8&#45;&gt;Node23 -->
<g id="edge34" class="edge">
<title>Node8&#45;&gt;Node23</title>
<path fill="none" stroke="#191970" d="M872.7037,-170.1249C960.1819,-160.0244 1111.824,-142.5152 1206.0815,-131.6318"/>
<polygon fill="#191970" stroke="#191970" points="1206.6179,-135.0932 1216.1505,-130.4692 1205.815,-128.1394 1206.6179,-135.0932"/>
</g>
<!-- Node25 -->
<g id="node26" class="node">
<title>Node25</title>
<polygon fill="#ffffff" stroke="#bfbfbf" points="278.5,-112.5 278.5,-131.5 384.5,-131.5 384.5,-112.5 278.5,-112.5"/>
<text text-anchor="middle" x="331.5" y="-119.5" font-family="Helvetica,sans-Serif" font-size="10.00" fill="#000000">AMReX_AmrCore.H</text>
</g>
<!-- Node8&#45;&gt;Node25 -->
<g id="edge41" class="edge">
<title>Node8&#45;&gt;Node25</title>
<path fill="none" stroke="#191970" d="M736.4238,-169.3042C732.7295,-168.8569 729.0699,-168.4195 725.5,-168 581.4044,-151.069 542.3309,-151.7813 394.9091,-132.133"/>
<polygon fill="#191970" stroke="#191970" points="394.9497,-128.6071 384.573,-130.7459 394.0186,-135.5449 394.9497,-128.6071"/>
</g>
<!-- Node12&#45;&gt;Node11 -->
<g id="edge13" class="edge">
<title>Node12&#45;&gt;Node11</title>
<path fill="none" stroke="#191970" d="M1501.5216,-57.4948C1424.1867,-47.6745 1296.8345,-31.5028 1212.5621,-20.8015"/>
<polygon fill="#191970" stroke="#191970" points="1212.866,-17.3121 1202.5048,-19.5244 1211.9842,-24.2563 1212.866,-17.3121"/>
</g>
<!-- Node12&#45;&gt;Node13 -->
<g id="edge14" class="edge">
<title>Node12&#45;&gt;Node13</title>
<path fill="none" stroke="#191970" d="M1547.1836,-56.3733C1527.2784,-47.3838 1497.3564,-33.8706 1474.94,-23.7471"/>
<polygon fill="#191970" stroke="#191970" points="1476.0925,-20.4272 1465.5382,-19.5011 1473.2113,-26.8068 1476.0925,-20.4272"/>
</g>
<!-- Node14 -->
<g id="node15" class="node">
<title>Node14</title>
<polygon fill="#ffffff" stroke="#bfbfbf" points="1514.5,-.5 1514.5,-19.5 1630.5,-19.5 1630.5,-.5 1514.5,-.5"/>
<text text-anchor="middle" x="1572.5" y="-7.5" font-family="Helvetica,sans-Serif" font-size="10.00" fill="#000000">AMReX_Interpolater.H</text>
</g>
<!-- Node12&#45;&gt;Node14 -->
<g id="edge15" class="edge">
<title>Node12&#45;&gt;Node14</title>
<path fill="none" stroke="#191970" d="M1569.1967,-56.2455C1569.7187,-48.9382 1570.4504,-38.6944 1571.0925,-29.7046"/>
<polygon fill="#191970" stroke="#191970" points="1574.5898,-29.8667 1571.8112,-19.6427 1567.6076,-29.3679 1574.5898,-29.8667"/>
</g>
<!-- Node15&#45;&gt;Node9 -->
<g id="edge17" class="edge">
<title>Node15&#45;&gt;Node9</title>
<path fill="none" stroke="#191970" d="M774.0526,-112.4985C747.6091,-103.9274 708.4863,-90.4746 675.5,-76 658.0233,-68.3311 655.0946,-63.3944 637.5,-56 599.6483,-40.0924 554.269,-26.353 524.9369,-18.1315"/>
<polygon fill="#191970" stroke="#191970" points="525.8408,-14.7501 515.2697,-15.459 523.9756,-21.4971 525.8408,-14.7501"/>
</g>
<!-- Node15&#45;&gt;Node10 -->
<g id="edge19" class="edge">
<title>Node15&#45;&gt;Node10</title>
<path fill="none" stroke="#191970" d="M747.827,-114.4991C687.1752,-106.2856 587.8969,-92.3082 492.3471,-76.0796"/>
<polygon fill="#191970" stroke="#191970" points="492.6655,-72.5833 482.2187,-74.3483 491.486,-79.4832 492.6655,-72.5833"/>
</g>
<!-- Node15&#45;&gt;Node11 -->
<g id="edge24" class="edge">
<title>Node15&#45;&gt;Node11</title>
<path fill="none" stroke="#191970" d="M842.271,-112.4507C875.1291,-103.8493 923.8725,-90.3789 965.5,-76 1012.0654,-59.9154 1064.6654,-37.7142 1096.9545,-23.6066"/>
<polygon fill="#191970" stroke="#191970" points="1098.5461,-26.7303 1106.294,-19.5039 1095.7308,-20.3214 1098.5461,-26.7303"/>
</g>
<!-- Node15&#45;&gt;Node13 -->
<g id="edge20" class="edge">
<title>Node15&#45;&gt;Node13</title>
<path fill="none" stroke="#191970" d="M845.4769,-112.4703C905.2634,-98.7752 1020.0136,-73.2789 1118.5,-56 1209.8809,-39.9677 1316.4396,-25.7731 1382.1925,-17.5311"/>
<polygon fill="#191970" stroke="#191970" points="1382.8965,-20.9705 1392.3865,-16.26 1382.0303,-14.0243 1382.8965,-20.9705"/>
</g>
<!-- Node16 -->
<g id="node17" class="node">
<title>Node16</title>
<polygon fill="#ffffff" stroke="#bfbfbf" points="684.5,-56.5 684.5,-75.5 736.5,-75.5 736.5,-56.5 684.5,-56.5"/>
<text text-anchor="middle" x="710.5" y="-63.5" font-family="Helvetica,sans-Serif" font-size="10.00" fill="#000000">memory</text>
</g>
<!-- Node15&#45;&gt;Node16 -->
<g id="edge18" class="edge">
<title>Node15&#45;&gt;Node16</title>
<path fill="none" stroke="#191970" d="M788.1264,-112.2455C773.5692,-103.5731 752.069,-90.7645 735.3848,-80.825"/>
<polygon fill="#191970" stroke="#191970" points="737.0683,-77.7539 726.6859,-75.6427 733.4856,-83.7676 737.0683,-77.7539"/>
</g>
<!-- Node17 -->
<g id="node18" class="node">
<title>Node17</title>
<polygon fill="#ffffff" stroke="#bfbfbf" points="755,-56.5 755,-75.5 854,-75.5 854,-56.5 755,-56.5"/>
<text text-anchor="middle" x="804.5" y="-63.5" font-family="Helvetica,sans-Serif" font-size="10.00" fill="#000000">AMReX_BCRec.H</text>
</g>
<!-- Node15&#45;&gt;Node17 -->
<g id="edge21" class="edge">
<title>Node15&#45;&gt;Node17</title>
<path fill="none" stroke="#191970" d="M804.5,-112.2455C804.5,-104.9382 804.5,-94.6944 804.5,-85.7046"/>
<polygon fill="#191970" stroke="#191970" points="808.0001,-85.6426 804.5,-75.6427 801.0001,-85.6427 808.0001,-85.6426"/>
</g>
<!-- Node18 -->
<g id="node19" class="node">
<title>Node18</title>
<polygon fill="#ffffff" stroke="#bfbfbf" points="872,-56.5 872,-75.5 957,-75.5 957,-56.5 872,-56.5"/>
<text text-anchor="middle" x="914.5" y="-63.5" font-family="Helvetica,sans-Serif" font-size="10.00" fill="#000000">AMReX_Gpu.H</text>
</g>
<!-- Node15&#45;&gt;Node18 -->
<g id="edge22" class="edge">
<title>Node15&#45;&gt;Node18</title>
<path fill="none" stroke="#191970" d="M823.6605,-112.2455C841.0111,-103.4125 866.7901,-90.2887 886.4583,-80.2758"/>
<polygon fill="#191970" stroke="#191970" points="888.2353,-83.2986 895.559,-75.6427 885.0595,-77.0605 888.2353,-83.2986"/>
</g>
<!-- Node19 -->
<g id="node20" class="node">
<title>Node19</title>
<g id="a_node20"><a xlink:href="incflo__enums_8_h.html" target="_top" xlink:title="amr&#45;wind/incflo_enums.H">
<polygon fill="#ffffff" stroke="#000000" points="500.5,-56.5 500.5,-75.5 628.5,-75.5 628.5,-56.5 500.5,-56.5"/>
<text text-anchor="middle" x="564.5" y="-63.5" font-family="Helvetica,sans-Serif" font-size="10.00" fill="#000000">amr&#45;wind/incflo_enums.H</text>
</a>
</g>
</g>
<!-- Node15&#45;&gt;Node19 -->
<g id="edge23" class="edge">
<title>Node15&#45;&gt;Node19</title>
<path fill="none" stroke="#191970" d="M763.5152,-112.4369C722.5274,-102.8731 659.3996,-88.1432 615.2643,-77.845"/>
<polygon fill="#191970" stroke="#191970" points="615.8495,-74.3876 605.3157,-75.5237 614.2588,-81.2045 615.8495,-74.3876"/>
</g>
<!-- Node20 -->
<g id="node21" class="node">
<title>Node20</title>
<g id="a_node21"><a xlink:href="_view_field_8_h.html" target="_top" xlink:title="amr&#45;wind/core/ViewField.H">
<polygon fill="#ffffff" stroke="#000000" points="1127.5,-56.5 1127.5,-75.5 1261.5,-75.5 1261.5,-56.5 1127.5,-56.5"/>
<text text-anchor="middle" x="1194.5" y="-63.5" font-family="Helvetica,sans-Serif" font-size="10.00" fill="#000000">amr&#45;wind/core/ViewField.H</text>
</a>
</g>
</g>
<!-- Node15&#45;&gt;Node20 -->
<g id="edge25" class="edge">
<title>Node15&#45;&gt;Node20</title>
<path fill="none" stroke="#191970" d="M861.2093,-113.8571C929.0418,-104.1171 1042.8717,-87.7723 1118.3305,-76.9372"/>
<polygon fill="#191970" stroke="#191970" points="1118.8537,-80.398 1128.2547,-75.5121 1117.8587,-73.4691 1118.8537,-80.398"/>
</g>
<!-- Node20&#45;&gt;Node6 -->
<g id="edge29" class="edge">
<title>Node20&#45;&gt;Node6</title>
<path fill="none" stroke="#191970" d="M1261.7656,-59.5209C1367.5999,-49.2463 1568.2764,-29.4173 1639.5,-20 1640.9524,-19.808 1642.4232,-19.6085 1643.9065,-19.403"/>
<polygon fill="#191970" stroke="#191970" points="1644.4159,-22.8658 1653.8128,-17.9721 1643.4152,-15.9377 1644.4159,-22.8658"/>
</g>
<!-- Node20&#45;&gt;Node9 -->
<g id="edge26" class="edge">
<title>Node20&#45;&gt;Node9</title>
<path fill="none" stroke="#191970" d="M1127.3811,-60.6305C979.6476,-48.8118 631.0772,-20.9262 525.4019,-12.4721"/>
<polygon fill="#191970" stroke="#191970" points="525.3621,-8.9579 515.1148,-11.6492 524.8038,-15.9356 525.3621,-8.9579"/>
</g>
<!-- Node20&#45;&gt;Node11 -->
<g id="edge27" class="edge">
<title>Node20&#45;&gt;Node11</title>
<path fill="none" stroke="#191970" d="M1182.8295,-56.2455C1172.9339,-47.9746 1158.5373,-35.9416 1146.9099,-26.2232"/>
<polygon fill="#191970" stroke="#191970" points="1148.9542,-23.3703 1139.0368,-19.6427 1144.465,-28.7413 1148.9542,-23.3703"/>
</g>
<!-- Node20&#45;&gt;Node13 -->
<g id="edge28" class="edge">
<title>Node20&#45;&gt;Node13</title>
<path fill="none" stroke="#191970" d="M1237.1925,-56.4369C1280.0679,-46.8328 1346.2005,-32.0191 1392.2002,-21.7152"/>
<polygon fill="#191970" stroke="#191970" points="1392.9905,-25.1249 1401.9836,-19.5237 1391.4604,-18.2942 1392.9905,-25.1249"/>
</g>
<!-- Node21&#45;&gt;Node9 -->
<g id="edge31" class="edge">
<title>Node21&#45;&gt;Node9</title>
<path fill="none" stroke="#191970" d="M419.1243,-112.4827C381.2313,-102.352 336.3922,-83.898 356.5,-56 369.2006,-38.3789 427.1424,-23.669 463.7911,-15.9142"/>
<polygon fill="#191970" stroke="#191970" points="464.8669,-19.2663 473.9577,-13.8249 463.4578,-12.4096 464.8669,-19.2663"/>
</g>
<!-- Node21&#45;&gt;Node11 -->
<g id="edge32" class="edge">
<title>Node21&#45;&gt;Node11</title>
<path fill="none" stroke="#191970" d="M439.2289,-112.4748C410.1884,-100.1909 369.0124,-77.8044 389.5,-56 411.3059,-32.7927 842.7855,-17.9232 1035.6833,-12.4105"/>
<polygon fill="#191970" stroke="#191970" points="1035.9081,-15.9056 1045.8048,-12.1236 1035.7096,-8.9084 1035.9081,-15.9056"/>
</g>
<!-- Node21&#45;&gt;Node22 -->
<g id="edge33" class="edge">
<title>Node21&#45;&gt;Node22</title>
<path fill="none" stroke="#191970" d="M427.7121,-112.3733C391.4339,-102.8799 335.8764,-88.3415 296.6554,-78.0781"/>
<polygon fill="#191970" stroke="#191970" points="297.3682,-74.6468 286.8079,-75.5011 295.596,-81.4188 297.3682,-74.6468"/>
</g>
<!-- Node23&#45;&gt;Node6 -->
<g id="edge39" class="edge">
<title>Node23&#45;&gt;Node6</title>
<path fill="none" stroke="#191970" d="M1362.8592,-118.5328C1451.9935,-113.2821 1596.3242,-101.134 1643.5,-76 1664.0137,-65.0708 1680.6555,-43.7696 1690.7671,-28.3154"/>
<polygon fill="#191970" stroke="#191970" points="1693.8828,-29.933 1696.1953,-19.5936 1687.9398,-26.2342 1693.8828,-29.933"/>
</g>
<!-- Node23&#45;&gt;Node9 -->
<g id="edge35" class="edge">
<title>Node23&#45;&gt;Node9</title>
<path fill="none" stroke="#191970" d="M1249.5814,-112.4771C1188.6603,-98.2606 1068.6755,-71.5043 965.5,-56 800.5545,-31.2135 601.0123,-16.8106 525.4794,-11.9105"/>
<polygon fill="#191970" stroke="#191970" points="525.4569,-8.402 515.2539,-11.2564 525.01,-15.3877 525.4569,-8.402"/>
</g>
<!-- Node23&#45;&gt;Node11 -->
<g id="edge36" class="edge">
<title>Node23&#45;&gt;Node11</title>
<path fill="none" stroke="#191970" d="M1289.4208,-112.0774C1288.7639,-97.7786 1285.4399,-71.4092 1270.5,-56 1257.9429,-43.0484 1217.1962,-30.6613 1182.3947,-22.0109"/>
<polygon fill="#191970" stroke="#191970" points="1182.8386,-18.5172 1172.2953,-19.5615 1181.1886,-25.32 1182.8386,-18.5172"/>
</g>
<!-- Node23&#45;&gt;Node13 -->
<g id="edge38" class="edge">
<title>Node23&#45;&gt;Node13</title>
<path fill="none" stroke="#191970" d="M1352.678,-112.4368C1393.7443,-104.7818 1441.911,-92.5787 1454.5,-76 1464.6514,-62.6313 1460.1144,-43.2623 1454.2604,-28.9625"/>
<polygon fill="#191970" stroke="#191970" points="1457.3147,-27.2269 1449.9563,-19.6042 1450.9551,-30.1519 1457.3147,-27.2269"/>
</g>
<!-- Node23&#45;&gt;Node20 -->
<g id="edge37" class="edge">
<title>Node23&#45;&gt;Node20</title>
<path fill="none" stroke="#191970" d="M1272.9523,-112.2455C1258.2401,-103.5731 1236.5112,-90.7645 1219.6495,-80.825"/>
<polygon fill="#191970" stroke="#191970" points="1221.2502,-77.7057 1210.8581,-75.6427 1217.6954,-83.736 1221.2502,-77.7057"/>
</g>
<!-- Node24 -->
<g id="node25" class="node">
<title>Node24</title>
<polygon fill="#ffffff" stroke="#bfbfbf" points="1317.5,-56.5 1317.5,-75.5 1445.5,-75.5 1445.5,-56.5 1317.5,-56.5"/>
<text text-anchor="middle" x="1381.5" y="-63.5" font-family="Helvetica,sans-Serif" font-size="10.00" fill="#000000">AMReX_PhysBCFunct.H</text>
</g>
<!-- Node23&#45;&gt;Node24 -->
<g id="edge40" class="edge">
<title>Node23&#45;&gt;Node24</title>
<path fill="none" stroke="#191970" d="M1305.5252,-112.2455C1319.6408,-103.6534 1340.4263,-91.0014 1356.6899,-81.1018"/>
<polygon fill="#191970" stroke="#191970" points="1358.9363,-83.8319 1365.6585,-75.6427 1355.2966,-77.8525 1358.9363,-83.8319"/>
</g>
<!-- Node26&#45;&gt;Node1 -->
<g id="edge46" class="edge">
<title>Node26&#45;&gt;Node1</title>
<path fill="none" stroke="#191970" d="M608.8538,-229.9729C596.3885,-227.7686 582.978,-225.6024 570.5,-224 369.7375,-198.2182 317.6764,-210.3236 116.5,-188 112.1266,-187.5147 107.6056,-186.9693 103.0641,-186.39"/>
<polygon fill="#191970" stroke="#191970" points="103.5107,-182.9187 93.1383,-185.0783 102.5935,-189.8584 103.5107,-182.9187"/>
</g>
<!-- Node26&#45;&gt;Node9 -->
<g id="edge45" class="edge">
<title>Node26&#45;&gt;Node9</title>
<path fill="none" stroke="#191970" d="M608.0465,-229.9806C498.4238,-208.5429 242.1674,-156.4506 210.5,-132 188.1511,-114.7443 187.3734,-103.386 180.5,-76 178.3361,-67.3785 174.688,-62.7255 180.5,-56 198.9126,-34.6934 388.1806,-18.0802 463.6655,-12.253"/>
<polygon fill="#191970" stroke="#191970" points="464.237,-15.7198 473.9431,-11.4722 463.7067,-8.7399 464.237,-15.7198"/>
</g>
<!-- Node27 -->
<g id="node28" class="node">
<title>Node27</title>
<polygon fill="#ffffff" stroke="#bfbfbf" points="600.5,-168.5 600.5,-187.5 716.5,-187.5 716.5,-168.5 600.5,-168.5"/>
<text text-anchor="middle" x="658.5" y="-175.5" font-family="Helvetica,sans-Serif" font-size="10.00" fill="#000000">AMReX_ParmParse.H</text>
</g>
<!-- Node26&#45;&gt;Node27 -->
<g id="edge47" class="edge">
<title>Node26&#45;&gt;Node27</title>
<path fill="none" stroke="#191970" d="M657.6563,-229.8906C657.7949,-221.3657 658.0018,-208.6392 658.176,-197.9235"/>
<polygon fill="#191970" stroke="#191970" points="661.6784,-197.8005 658.3415,-187.7449 654.6793,-197.6866 661.6784,-197.8005"/>
</g>
<!-- Node28 -->
<g id="node29" class="node">
<title>Node28</title>
<polygon fill="#ffffff" stroke="#bfbfbf" points="476.5,-168.5 476.5,-187.5 582.5,-187.5 582.5,-168.5 476.5,-168.5"/>
<text text-anchor="middle" x="529.5" y="-175.5" font-family="Helvetica,sans-Serif" font-size="10.00" fill="#000000">AMReX_MLLinOp.H</text>
</g>
<!-- Node26&#45;&gt;Node28 -->
<g id="edge48" class="edge">
<title>Node26&#45;&gt;Node28</title>
<path fill="none" stroke="#191970" d="M637.5,-229.8906C616.2711,-219.6908 582.5238,-203.4763 558.404,-191.8875"/>
<polygon fill="#191970" stroke="#191970" points="559.8889,-188.7179 549.3596,-187.5419 556.8574,-195.0275 559.8889,-188.7179"/>
</g>
<!-- Node30 -->
<g id="node31" class="node">
<title>Node30</title>
<polygon fill="#ffffff" stroke="#bfbfbf" points="1776.5,-168.5 1776.5,-187.5 1830.5,-187.5 1830.5,-168.5 1776.5,-168.5"/>
<text text-anchor="middle" x="1803.5" y="-175.5" font-family="Helvetica,sans-Serif" font-size="10.00" fill="#000000">iostream</text>
</g>
<!-- Node29&#45;&gt;Node30 -->
<g id="edge50" class="edge">
<title>Node29&#45;&gt;Node30</title>
<path fill="none" stroke="#191970" d="M1810.2753,-224.2977C1809.1041,-216.2945 1807.6538,-206.3843 1806.3959,-197.7889"/>
<polygon fill="#191970" stroke="#191970" points="1809.8522,-197.2347 1804.941,-187.8469 1802.926,-198.2484 1809.8522,-197.2347"/>
</g>
<!-- Node31 -->
<g id="node32" class="node">
<title>Node31</title>
<polygon fill="#ffffff" stroke="#bfbfbf" points="1848.5,-168.5 1848.5,-187.5 1944.5,-187.5 1944.5,-168.5 1848.5,-168.5"/>
<text text-anchor="middle" x="1896.5" y="-175.5" font-family="Helvetica,sans-Serif" font-size="10.00" fill="#000000">AMReX_MLMG.H</text>
</g>
<!-- Node29&#45;&gt;Node31 -->
<g id="edge51" class="edge">
<title>Node29&#45;&gt;Node31</title>
<path fill="none" stroke="#191970" d="M1833.2641,-224.2977C1845.8958,-215.0495 1862.0053,-203.2551 1874.8031,-193.8853"/>
<polygon fill="#191970" stroke="#191970" points="1877.0495,-196.5784 1883.0505,-187.8469 1872.9143,-190.9303 1877.0495,-196.5784"/>
</g>
</g>
</svg>
