<?xml version="1.0" encoding="UTF-8" standalone="no"?>
<!DOCTYPE svg PUBLIC "-//W3C//DTD SVG 1.1//EN"
 "http://www.w3.org/Graphics/SVG/1.1/DTD/svg11.dtd">
<!-- Generated by graphviz version 2.40.1 (20161225.0304)
 -->
<!-- Title: Graphical Class Hierarchy Pages: 1 -->
<svg width="199pt" height="284pt"
 viewBox="0.00 0.00 199.00 284.00" xmlns="http://www.w3.org/2000/svg" xmlns:xlink="http://www.w3.org/1999/xlink">
<g id="graph0" class="graph" transform="scale(1 1) rotate(0) translate(4 280)">
<title>Graphical Class Hierarchy</title>
<polygon fill="#ffffff" stroke="transparent" points="-4,4 -4,-280 195,-280 195,4 -4,4"/>
<!-- Node90 -->
<g id="node1" class="node">
<title>Node90</title>
<polygon fill="#ffffff" stroke="#bfbfbf" points="0,-128 0,-147 53,-147 53,-128 0,-128"/>
<text text-anchor="middle" x="26.5" y="-135" font-family="Helvetica,sans-Serif" font-size="10.00" fill="#000000">Register</text>
</g>
<!-- Node0 -->
<g id="node2" class="node">
<title>Node0</title>
<g id="a_node2"><a xlink:href="structamr__wind_1_1derived_1_1_divergence.html" target="_top" xlink:title="amr_wind::derived::\lDivergence">
<polygon fill="#ffffff" stroke="#000000" points="89,-245.5 89,-275.5 191,-275.5 191,-245.5 89,-245.5"/>
<text text-anchor="start" x="97" y="-263.5" font-family="Helvetica,sans-Serif" font-size="10.00" fill="#000000">amr_wind::derived::</text>
<text text-anchor="middle" x="140" y="-252.5" font-family="Helvetica,sans-Serif" font-size="10.00" fill="#000000">Divergence</text>
</a>
</g>
</g>
<!-- Node90&#45;&gt;Node0 -->
<g id="edge1" class="edge">
<title>Node90&#45;&gt;Node0</title>
<path fill="none" stroke="#191970" d="M34.4473,-156.4041C44.4154,-178.174 63.3605,-213.8415 89,-236.5 92.8129,-239.8696 97.1811,-242.8606 101.7216,-245.4877"/>
<polygon fill="#191970" stroke="#191970" points="37.6322,-154.9521 30.3958,-147.2135 31.227,-157.7757 37.6322,-154.9521"/>
</g>
<!-- Node92 -->
<g id="node3" class="node">
<title>Node92</title>
<g id="a_node3"><a xlink:href="structamr__wind_1_1derived_1_1_field_components.html" target="_top" xlink:title="amr_wind::derived::\lFieldComponents">
<polygon fill="#ffffff" stroke="#000000" points="89,-196.5 89,-226.5 191,-226.5 191,-196.5 89,-196.5"/>
<text text-anchor="start" x="97" y="-214.5" font-family="Helvetica,sans-Serif" font-size="10.00" fill="#000000">amr_wind::derived::</text>
<text text-anchor="middle" x="140" y="-203.5" font-family="Helvetica,sans-Serif" font-size="10.00" fill="#000000">FieldComponents</text>
</a>
</g>
</g>
<!-- Node90&#45;&gt;Node92 -->
<g id="edge2" class="edge">
<title>Node90&#45;&gt;Node92</title>
<path fill="none" stroke="#191970" d="M44.5523,-153.8307C56.5998,-164.2412 73.094,-177.5877 89,-187.5 94.066,-190.657 99.6134,-193.6722 105.1252,-196.4339"/>
<polygon fill="#191970" stroke="#191970" points="46.8034,-151.1494 36.984,-147.1707 42.1791,-156.4045 46.8034,-151.1494"/>
</g>
<!-- Node93 -->
<g id="node4" class="node">
<title>Node93</title>
<g id="a_node4"><a xlink:href="structamr__wind_1_1derived_1_1_gradient.html" target="_top" xlink:title="amr_wind::derived::\lGradient">
<polygon fill="#ffffff" stroke="#000000" points="89,-147.5 89,-177.5 191,-177.5 191,-147.5 89,-147.5"/>
<text text-anchor="start" x="97" y="-165.5" font-family="Helvetica,sans-Serif" font-size="10.00" fill="#000000">amr_wind::derived::</text>
<text text-anchor="middle" x="140" y="-154.5" font-family="Helvetica,sans-Serif" font-size="10.00" fill="#000000">Gradient</text>
</a>
</g>
</g>
<!-- Node90&#45;&gt;Node93 -->
<g id="edge3" class="edge">
<title>Node90&#45;&gt;Node93</title>
<path fill="none" stroke="#191970" d="M63.0276,-145.5457C71.1748,-147.3403 79.9616,-149.2757 88.5828,-151.1746"/>
<polygon fill="#191970" stroke="#191970" points="63.6295,-142.0945 53.1107,-143.3614 62.1237,-148.9306 63.6295,-142.0945"/>
</g>
<!-- Node94 -->
<g id="node5" class="node">
<title>Node94</title>
<g id="a_node5"><a xlink:href="structamr__wind_1_1derived_1_1_laplacian.html" target="_top" xlink:title="amr_wind::derived::\lLaplacian">
<polygon fill="#ffffff" stroke="#000000" points="89,-98.5 89,-128.5 191,-128.5 191,-98.5 89,-98.5"/>
<text text-anchor="start" x="97" y="-116.5" font-family="Helvetica,sans-Serif" font-size="10.00" fill="#000000">amr_wind::derived::</text>
<text text-anchor="middle" x="140" y="-105.5" font-family="Helvetica,sans-Serif" font-size="10.00" fill="#000000">Laplacian</text>
</a>
</g>
</g>
<!-- Node90&#45;&gt;Node94 -->
<g id="edge4" class="edge">
<title>Node90&#45;&gt;Node94</title>
<path fill="none" stroke="#191970" d="M63.0276,-129.7761C71.1748,-128.0534 79.9616,-126.1953 88.5828,-124.3724"/>
<polygon fill="#191970" stroke="#191970" points="62.1703,-126.3799 53.1107,-131.8731 63.6185,-133.2285 62.1703,-126.3799"/>
</g>
<!-- Node95 -->
<g id="node6" class="node">
<title>Node95</title>
<g id="a_node6"><a xlink:href="structamr__wind_1_1derived_1_1_strain_rate_mag.html" target="_top" xlink:title="amr_wind::derived::\lStrainRateMag">
<polygon fill="#ffffff" stroke="#000000" points="89,-49.5 89,-79.5 191,-79.5 191,-49.5 89,-49.5"/>
<text text-anchor="start" x="97" y="-67.5" font-family="Helvetica,sans-Serif" font-size="10.00" fill="#000000">amr_wind::derived::</text>
<text text-anchor="middle" x="140" y="-56.5" font-family="Helvetica,sans-Serif" font-size="10.00" fill="#000000">StrainRateMag</text>
</a>
</g>
</g>
<!-- Node90&#45;&gt;Node95 -->
<g id="edge5" class="edge">
<title>Node90&#45;&gt;Node95</title>
<path fill="none" stroke="#191970" d="M45.4932,-121.3195C57.5249,-111.4799 73.6582,-99.0194 89,-89.5 94.6138,-86.0167 100.7825,-82.6443 106.8311,-79.5633"/>
<polygon fill="#191970" stroke="#191970" points="42.9797,-118.8575 37.527,-127.9416 47.4544,-124.2405 42.9797,-118.8575"/>
</g>
<!-- Node96 -->
<g id="node7" class="node">
<title>Node96</title>
<g id="a_node7"><a xlink:href="structamr__wind_1_1derived_1_1_vorticity_mag.html" target="_top" xlink:title="amr_wind::derived::\lVorticityMag">
<polygon fill="#ffffff" stroke="#000000" points="89,-.5 89,-30.5 191,-30.5 191,-.5 89,-.5"/>
<text text-anchor="start" x="97" y="-18.5" font-family="Helvetica,sans-Serif" font-size="10.00" fill="#000000">amr_wind::derived::</text>
<text text-anchor="middle" x="140" y="-7.5" font-family="Helvetica,sans-Serif" font-size="10.00" fill="#000000">VorticityMag</text>
</a>
</g>
</g>
<!-- Node90&#45;&gt;Node96 -->
<g id="edge6" class="edge">
<title>Node90&#45;&gt;Node96</title>
<path fill="none" stroke="#191970" d="M34.8982,-118.4357C45.0876,-97.1248 64.0472,-62.7006 89,-40.5 93.1992,-36.764 98.0568,-33.4522 103.0715,-30.5611"/>
<polygon fill="#191970" stroke="#191970" points="31.6203,-117.1862 30.6128,-127.7331 37.9775,-120.1165 31.6203,-117.1862"/>
</g>
</g>
</svg>
