<?xml version="1.0" encoding="UTF-8" standalone="no"?>
<!DOCTYPE svg PUBLIC "-//W3C//DTD SVG 1.1//EN"
 "http://www.w3.org/Graphics/SVG/1.1/DTD/svg11.dtd">
<!-- Generated by graphviz version 2.40.1 (20161225.0304)
 -->
<!-- Title: Graphical Class Hierarchy Pages: 1 -->
<svg width="256pt" height="180pt"
 viewBox="0.00 0.00 256.00 180.00" xmlns="http://www.w3.org/2000/svg" xmlns:xlink="http://www.w3.org/1999/xlink">
<g id="graph0" class="graph" transform="scale(1 1) rotate(0) translate(4 176)">
<title>Graphical Class Hierarchy</title>
<polygon fill="#ffffff" stroke="transparent" points="-4,4 -4,-176 252,-176 252,4 -4,4"/>
<!-- Node94 -->
<g id="node1" class="node">
<title>Node94</title>
<polygon fill="#ffffff" stroke="#bfbfbf" points="0,-76.5 0,-95.5 53,-95.5 53,-76.5 0,-76.5"/>
<text text-anchor="middle" x="26.5" y="-83.5" font-family="Helvetica,sans-Serif" font-size="10.00" fill="#000000">Register</text>
</g>
<!-- Node0 -->
<g id="node2" class="node">
<title>Node0</title>
<g id="a_node2"><a xlink:href="classamr__wind_1_1_cart_box_refinement.html" target="_top" xlink:title="Static refinement with Cartesian&#45;aligned bounding boxesImplements tagging functionality for nested re...">
<polygon fill="#ffffff" stroke="#000000" points="93,-152.5 93,-171.5 244,-171.5 244,-152.5 93,-152.5"/>
<text text-anchor="middle" x="168.5" y="-159.5" font-family="Helvetica,sans-Serif" font-size="10.00" fill="#000000">amr_wind::CartBoxRefinement</text>
</a>
</g>
</g>
<!-- Node94&#45;&gt;Node0 -->
<g id="edge1" class="edge">
<title>Node94&#45;&gt;Node0</title>
<path fill="none" stroke="#191970" d="M41.0986,-103.4014C52.7812,-116.218 70.2627,-133.0779 89,-143 96.2738,-146.8518 104.3324,-149.9335 112.4469,-152.3963"/>
<polygon fill="#191970" stroke="#191970" points="43.5366,-100.8737 34.304,-95.6766 38.2805,-105.4969 43.5366,-100.8737"/>
</g>
<!-- Node96 -->
<g id="node3" class="node">
<title>Node96</title>
<g id="a_node3"><a xlink:href="classamr__wind_1_1_field_refinement.html" target="_top" xlink:title="AMR refinement using a given field (e.g., density)``` tagging.labels = t1 tagging/t1.type = FieldRefinement tagging/t1.field_name = density ">
<polygon fill="#ffffff" stroke="#000000" points="100.5,-114.5 100.5,-133.5 236.5,-133.5 236.5,-114.5 100.5,-114.5"/>
<text text-anchor="middle" x="168.5" y="-121.5" font-family="Helvetica,sans-Serif" font-size="10.00" fill="#000000">amr_wind::FieldRefinement</text>
</a>
</g>
</g>
<!-- Node94&#45;&gt;Node96 -->
<g id="edge2" class="edge">
<title>Node94&#45;&gt;Node96</title>
<path fill="none" stroke="#191970" d="M62.8704,-97.4621C71.4132,-100.0416 80.5035,-102.6955 89,-105 101.0524,-108.269 114.2129,-111.5357 126.2954,-114.4153"/>
<polygon fill="#191970" stroke="#191970" points="63.7481,-94.0706 53.1617,-94.4936 61.7012,-100.7647 63.7481,-94.0706"/>
</g>
<!-- Node97 -->
<g id="node4" class="node">
<title>Node97</title>
<g id="a_node4"><a xlink:href="classamr__wind_1_1_geometry_refinement.html" target="_top" xlink:title="AMR based on geometric shapes. ">
<polygon fill="#ffffff" stroke="#000000" points="89.5,-76.5 89.5,-95.5 247.5,-95.5 247.5,-76.5 89.5,-76.5"/>
<text text-anchor="middle" x="168.5" y="-83.5" font-family="Helvetica,sans-Serif" font-size="10.00" fill="#000000">amr_wind::GeometryRefinement</text>
</a>
</g>
</g>
<!-- Node94&#45;&gt;Node97 -->
<g id="edge3" class="edge">
<title>Node94&#45;&gt;Node97</title>
<path fill="none" stroke="#191970" d="M63.3805,-86C71.4984,-86 80.397,-86 89.4729,-86"/>
<polygon fill="#191970" stroke="#191970" points="63.2091,-82.5001 53.2091,-86 63.2091,-89.5001 63.2091,-82.5001"/>
</g>
<!-- Node98 -->
<g id="node5" class="node">
<title>Node98</title>
<g id="a_node5"><a xlink:href="classamr__wind_1_1_overset_refinement.html" target="_top" xlink:title="amr_wind::OversetRefinement">
<polygon fill="#ffffff" stroke="#000000" points="94,-38.5 94,-57.5 243,-57.5 243,-38.5 94,-38.5"/>
<text text-anchor="middle" x="168.5" y="-45.5" font-family="Helvetica,sans-Serif" font-size="10.00" fill="#000000">amr_wind::OversetRefinement</text>
</a>
</g>
</g>
<!-- Node94&#45;&gt;Node98 -->
<g id="edge4" class="edge">
<title>Node94&#45;&gt;Node98</title>
<path fill="none" stroke="#191970" d="M62.8704,-74.5379C71.4132,-71.9584 80.5035,-69.3045 89,-67 101.0524,-63.731 114.2129,-60.4643 126.2954,-57.5847"/>
<polygon fill="#191970" stroke="#191970" points="61.7012,-71.2353 53.1617,-77.5064 63.7481,-77.9294 61.7012,-71.2353"/>
</g>
<!-- Node99 -->
<g id="node6" class="node">
<title>Node99</title>
<g id="a_node6"><a xlink:href="classamr__wind_1_1_q_criterion_refinement.html" target="_top" xlink:title="AMR refinement using Q criterion``` tagging.labels = qc1 tagging/qc1.type = QCriterionRefinement tagg...">
<polygon fill="#ffffff" stroke="#000000" points="89,-.5 89,-19.5 248,-19.5 248,-.5 89,-.5"/>
<text text-anchor="middle" x="168.5" y="-7.5" font-family="Helvetica,sans-Serif" font-size="10.00" fill="#000000">amr_wind::QCriterionRefinement</text>
</a>
</g>
</g>
<!-- Node94&#45;&gt;Node99 -->
<g id="edge5" class="edge">
<title>Node94&#45;&gt;Node99</title>
<path fill="none" stroke="#191970" d="M41.0986,-68.5986C52.7812,-55.782 70.2627,-38.9221 89,-29 96.2738,-25.1482 104.3324,-22.0665 112.4469,-19.6037"/>
<polygon fill="#191970" stroke="#191970" points="38.2805,-66.5031 34.304,-76.3234 43.5366,-71.1263 38.2805,-66.5031"/>
</g>
</g>
</svg>
