<?xml version="1.0" encoding="UTF-8" standalone="no"?>
<!DOCTYPE svg PUBLIC "-//W3C//DTD SVG 1.1//EN"
 "http://www.w3.org/Graphics/SVG/1.1/DTD/svg11.dtd">
<!-- Generated by graphviz version 2.40.1 (20161225.0304)
 -->
<!-- Title: Graphical Class Hierarchy Pages: 1 -->
<svg width="199pt" height="235pt"
 viewBox="0.00 0.00 199.00 235.00" xmlns="http://www.w3.org/2000/svg" xmlns:xlink="http://www.w3.org/1999/xlink">
<g id="graph0" class="graph" transform="scale(1 1) rotate(0) translate(4 231)">
<title>Graphical Class Hierarchy</title>
<polygon fill="#ffffff" stroke="transparent" points="-4,4 -4,-231 195,-231 195,4 -4,4"/>
<!-- Node78 -->
<g id="node1" class="node">
<title>Node78</title>
<polygon fill="#ffffff" stroke="#bfbfbf" points="0,-104 0,-123 53,-123 53,-104 0,-104"/>
<text text-anchor="middle" x="26.5" y="-111" font-family="Helvetica,sans-Serif" font-size="10.00" fill="#000000">Register</text>
</g>
<!-- Node0 -->
<g id="node2" class="node">
<title>Node0</title>
<g id="a_node2"><a xlink:href="structamr__wind_1_1derived_1_1_divergence.html" target="_top" xlink:title="amr_wind::derived::\lDivergence">
<polygon fill="#ffffff" stroke="#000000" points="89,-196.5 89,-226.5 191,-226.5 191,-196.5 89,-196.5"/>
<text text-anchor="start" x="97" y="-214.5" font-family="Helvetica,sans-Serif" font-size="10.00" fill="#000000">amr_wind::derived::</text>
<text text-anchor="middle" x="140" y="-203.5" font-family="Helvetica,sans-Serif" font-size="10.00" fill="#000000">Divergence</text>
</a>
</g>
</g>
<!-- Node78&#45;&gt;Node0 -->
<g id="edge1" class="edge">
<title>Node78&#45;&gt;Node0</title>
<path fill="none" stroke="#191970" d="M38.6174,-131.9314C50.0572,-148.2132 68.4818,-171.751 89,-187.5 93.2694,-190.777 98.0583,-193.7537 102.9465,-196.4079"/>
<polygon fill="#191970" stroke="#191970" points="41.2534,-129.5847 32.7259,-123.2971 35.4712,-133.5302 41.2534,-129.5847"/>
</g>
<!-- Node80 -->
<g id="node3" class="node">
<title>Node80</title>
<g id="a_node3"><a xlink:href="structamr__wind_1_1derived_1_1_gradient.html" target="_top" xlink:title="amr_wind::derived::\lGradient">
<polygon fill="#ffffff" stroke="#000000" points="89,-147.5 89,-177.5 191,-177.5 191,-147.5 89,-147.5"/>
<text text-anchor="start" x="97" y="-165.5" font-family="Helvetica,sans-Serif" font-size="10.00" fill="#000000">amr_wind::derived::</text>
<text text-anchor="middle" x="140" y="-154.5" font-family="Helvetica,sans-Serif" font-size="10.00" fill="#000000">Gradient</text>
</a>
</g>
</g>
<!-- Node78&#45;&gt;Node80 -->
<g id="edge2" class="edge">
<title>Node78&#45;&gt;Node80</title>
<path fill="none" stroke="#191970" d="M58.216,-127.1924C72.7515,-133.4676 90.0273,-140.9259 104.9475,-147.3672"/>
<polygon fill="#191970" stroke="#191970" points="59.2216,-123.8143 48.6534,-123.064 56.4471,-130.241 59.2216,-123.8143"/>
</g>
<!-- Node81 -->
<g id="node4" class="node">
<title>Node81</title>
<g id="a_node4"><a xlink:href="structamr__wind_1_1derived_1_1_laplacian.html" target="_top" xlink:title="amr_wind::derived::\lLaplacian">
<polygon fill="#ffffff" stroke="#000000" points="89,-98.5 89,-128.5 191,-128.5 191,-98.5 89,-98.5"/>
<text text-anchor="start" x="97" y="-116.5" font-family="Helvetica,sans-Serif" font-size="10.00" fill="#000000">amr_wind::derived::</text>
<text text-anchor="middle" x="140" y="-105.5" font-family="Helvetica,sans-Serif" font-size="10.00" fill="#000000">Laplacian</text>
</a>
</g>
</g>
<!-- Node78&#45;&gt;Node81 -->
<g id="edge3" class="edge">
<title>Node78&#45;&gt;Node81</title>
<path fill="none" stroke="#191970" d="M63.2994,-113.5C71.37,-113.5 80.0574,-113.5 88.5828,-113.5"/>
<polygon fill="#191970" stroke="#191970" points="63.1107,-110.0001 53.1107,-113.5 63.1107,-117.0001 63.1107,-110.0001"/>
</g>
<!-- Node82 -->
<g id="node5" class="node">
<title>Node82</title>
<g id="a_node5"><a xlink:href="structamr__wind_1_1derived_1_1_strain_rate_mag.html" target="_top" xlink:title="amr_wind::derived::\lStrainRateMag">
<polygon fill="#ffffff" stroke="#000000" points="89,-49.5 89,-79.5 191,-79.5 191,-49.5 89,-49.5"/>
<text text-anchor="start" x="97" y="-67.5" font-family="Helvetica,sans-Serif" font-size="10.00" fill="#000000">amr_wind::derived::</text>
<text text-anchor="middle" x="140" y="-56.5" font-family="Helvetica,sans-Serif" font-size="10.00" fill="#000000">StrainRateMag</text>
</a>
</g>
</g>
<!-- Node78&#45;&gt;Node82 -->
<g id="edge4" class="edge">
<title>Node78&#45;&gt;Node82</title>
<path fill="none" stroke="#191970" d="M58.216,-99.8076C72.7515,-93.5324 90.0273,-86.0741 104.9475,-79.6328"/>
<polygon fill="#191970" stroke="#191970" points="56.4471,-96.759 48.6534,-103.936 59.2216,-103.1857 56.4471,-96.759"/>
</g>
<!-- Node83 -->
<g id="node6" class="node">
<title>Node83</title>
<g id="a_node6"><a xlink:href="structamr__wind_1_1derived_1_1_vorticity_mag.html" target="_top" xlink:title="amr_wind::derived::\lVorticityMag">
<polygon fill="#ffffff" stroke="#000000" points="89,-.5 89,-30.5 191,-30.5 191,-.5 89,-.5"/>
<text text-anchor="start" x="97" y="-18.5" font-family="Helvetica,sans-Serif" font-size="10.00" fill="#000000">amr_wind::derived::</text>
<text text-anchor="middle" x="140" y="-7.5" font-family="Helvetica,sans-Serif" font-size="10.00" fill="#000000">VorticityMag</text>
</a>
</g>
</g>
<!-- Node78&#45;&gt;Node83 -->
<g id="edge5" class="edge">
<title>Node78&#45;&gt;Node83</title>
<path fill="none" stroke="#191970" d="M38.7291,-95.405C50.2437,-79.4017 68.7153,-56.2188 89,-40.5 93.7546,-36.8156 99.139,-33.4676 104.5831,-30.5049"/>
<polygon fill="#191970" stroke="#191970" points="35.659,-93.6875 32.7923,-103.8871 41.3939,-97.7014 35.659,-93.6875"/>
</g>
</g>
</svg>
