<?xml version="1.0" encoding="UTF-8" standalone="no"?>
<!DOCTYPE svg PUBLIC "-//W3C//DTD SVG 1.1//EN"
 "http://www.w3.org/Graphics/SVG/1.1/DTD/svg11.dtd">
<!-- Generated by graphviz version 2.40.1 (20161225.0304)
 -->
<!-- Title: Graphical Class Hierarchy Pages: 1 -->
<svg width="255pt" height="142pt"
 viewBox="0.00 0.00 255.00 142.00" xmlns="http://www.w3.org/2000/svg" xmlns:xlink="http://www.w3.org/1999/xlink">
<g id="graph0" class="graph" transform="scale(1 1) rotate(0) translate(4 138)">
<title>Graphical Class Hierarchy</title>
<polygon fill="#ffffff" stroke="transparent" points="-4,4 -4,-138 251,-138 251,4 -4,4"/>
<!-- Node100 -->
<g id="node1" class="node">
<title>Node100</title>
<polygon fill="#ffffff" stroke="#bfbfbf" points="0,-57.5 0,-76.5 53,-76.5 53,-57.5 0,-57.5"/>
<text text-anchor="middle" x="26.5" y="-64.5" font-family="Helvetica,sans-Serif" font-size="10.00" fill="#000000">Register</text>
</g>
<!-- Node0 -->
<g id="node2" class="node">
<title>Node0</title>
<g id="a_node2"><a xlink:href="classamr__wind_1_1_cart_box_refinement.html" target="_top" xlink:title="Static refinement with Cartesian&#45;aligned bounding boxesImplements tagging functionality for nested re...">
<polygon fill="#ffffff" stroke="#000000" points="92.5,-114.5 92.5,-133.5 243.5,-133.5 243.5,-114.5 92.5,-114.5"/>
<text text-anchor="middle" x="168" y="-121.5" font-family="Helvetica,sans-Serif" font-size="10.00" fill="#000000">amr_wind::CartBoxRefinement</text>
</a>
</g>
</g>
<!-- Node100&#45;&gt;Node0 -->
<g id="edge1" class="edge">
<title>Node100&#45;&gt;Node0</title>
<path fill="none" stroke="#191970" d="M48.3119,-82.5718C59.9297,-90.2569 74.7344,-99.1168 89,-105 98.1286,-108.7647 108.1717,-111.8911 117.9467,-114.4469"/>
<polygon fill="#191970" stroke="#191970" points="49.9845,-79.4763 39.7491,-76.7396 46.0439,-85.2618 49.9845,-79.4763"/>
</g>
<!-- Node102 -->
<g id="node3" class="node">
<title>Node102</title>
<g id="a_node3"><a xlink:href="classamr__wind_1_1_field_refinement.html" target="_top" xlink:title="AMR refinement using a given field (e.g., density)``` tagging.labels = t1 tagging/t1.type = FieldRefinement tagging/t1.field_name = density ">
<polygon fill="#ffffff" stroke="#000000" points="100,-76.5 100,-95.5 236,-95.5 236,-76.5 100,-76.5"/>
<text text-anchor="middle" x="168" y="-83.5" font-family="Helvetica,sans-Serif" font-size="10.00" fill="#000000">amr_wind::FieldRefinement</text>
</a>
</g>
</g>
<!-- Node100&#45;&gt;Node102 -->
<g id="edge2" class="edge">
<title>Node100&#45;&gt;Node102</title>
<path fill="none" stroke="#191970" d="M63.3276,-71.9451C74.5065,-73.4461 87.1655,-75.1459 99.7207,-76.8318"/>
<polygon fill="#191970" stroke="#191970" points="63.4919,-68.4358 53.1151,-70.5738 62.5603,-75.3735 63.4919,-68.4358"/>
</g>
<!-- Node103 -->
<g id="node4" class="node">
<title>Node103</title>
<g id="a_node4"><a xlink:href="classamr__wind_1_1_geometry_refinement.html" target="_top" xlink:title="AMR based on geometric shapes. ">
<polygon fill="#ffffff" stroke="#000000" points="89,-38.5 89,-57.5 247,-57.5 247,-38.5 89,-38.5"/>
<text text-anchor="middle" x="168" y="-45.5" font-family="Helvetica,sans-Serif" font-size="10.00" fill="#000000">amr_wind::GeometryRefinement</text>
</a>
</g>
</g>
<!-- Node100&#45;&gt;Node103 -->
<g id="edge3" class="edge">
<title>Node100&#45;&gt;Node103</title>
<path fill="none" stroke="#191970" d="M63.0738,-62.089C73.5165,-60.6868 85.2665,-59.1091 97.0249,-57.5302"/>
<polygon fill="#191970" stroke="#191970" points="62.5603,-58.6265 53.1151,-63.4262 63.4919,-65.5642 62.5603,-58.6265"/>
</g>
<!-- Node104 -->
<g id="node5" class="node">
<title>Node104</title>
<g id="a_node5"><a xlink:href="classamr__wind_1_1_overset_refinement.html" target="_top" xlink:title="amr_wind::OversetRefinement">
<polygon fill="#ffffff" stroke="#000000" points="93.5,-.5 93.5,-19.5 242.5,-19.5 242.5,-.5 93.5,-.5"/>
<text text-anchor="middle" x="168" y="-7.5" font-family="Helvetica,sans-Serif" font-size="10.00" fill="#000000">amr_wind::OversetRefinement</text>
</a>
</g>
</g>
<!-- Node100&#45;&gt;Node104 -->
<g id="edge4" class="edge">
<title>Node100&#45;&gt;Node104</title>
<path fill="none" stroke="#191970" d="M48.3119,-51.4282C59.9297,-43.7431 74.7344,-34.8832 89,-29 98.1286,-25.2353 108.1717,-22.1089 117.9467,-19.5531"/>
<polygon fill="#191970" stroke="#191970" points="46.0439,-48.7382 39.7491,-57.2604 49.9845,-54.5237 46.0439,-48.7382"/>
</g>
</g>
</svg>
