<?xml version="1.0" encoding="UTF-8" standalone="no"?>
<!DOCTYPE svg PUBLIC "-//W3C//DTD SVG 1.1//EN"
 "http://www.w3.org/Graphics/SVG/1.1/DTD/svg11.dtd">
<!-- Generated by graphviz version 2.40.1 (20161225.0304)
 -->
<!-- Title: io_utils.H Pages: 1 -->
<svg width="406pt" height="84pt"
 viewBox="0.00 0.00 405.50 84.00" xmlns="http://www.w3.org/2000/svg" xmlns:xlink="http://www.w3.org/1999/xlink">
<g id="graph0" class="graph" transform="scale(1 1) rotate(0) translate(4 80)">
<title>io_utils.H</title>
<polygon fill="#ffffff" stroke="transparent" points="-4,4 -4,-80 401.5,-80 401.5,4 -4,4"/>
<!-- Node6 -->
<g id="node1" class="node">
<title>Node6</title>
<polygon fill="#bfbfbf" stroke="#000000" points="186,-56.5 186,-75.5 244,-75.5 244,-56.5 186,-56.5"/>
<text text-anchor="middle" x="215" y="-63.5" font-family="Helvetica,sans-Serif" font-size="10.00" fill="#000000">io_utils.H</text>
</g>
<!-- Node7 -->
<g id="node2" class="node">
<title>Node7</title>
<g id="a_node2"><a xlink:href="_derived_quantity_8cpp.html" target="_top" xlink:title="DerivedQuantity.cpp">
<polygon fill="#ffffff" stroke="#000000" points="0,-.5 0,-19.5 106,-19.5 106,-.5 0,-.5"/>
<text text-anchor="middle" x="53" y="-7.5" font-family="Helvetica,sans-Serif" font-size="10.00" fill="#000000">DerivedQuantity.cpp</text>
</a>
</g>
</g>
<!-- Node6&#45;&gt;Node7 -->
<g id="edge1" class="edge">
<title>Node6&#45;&gt;Node7</title>
<path fill="none" stroke="#191970" d="M177.5578,-53.057C147.9099,-42.8084 107.1804,-28.729 80.4854,-19.5011"/>
<polygon fill="#191970" stroke="#191970" points="176.5564,-56.414 187.1512,-56.3733 178.8435,-49.7982 176.5564,-56.414"/>
</g>
<!-- Node8 -->
<g id="node3" class="node">
<title>Node8</title>
<g id="a_node3"><a xlink:href="_i_o_manager_8cpp.html" target="_top" xlink:title="IOManager.cpp">
<polygon fill="#ffffff" stroke="#000000" points="124.5,-.5 124.5,-19.5 207.5,-19.5 207.5,-.5 124.5,-.5"/>
<text text-anchor="middle" x="166" y="-7.5" font-family="Helvetica,sans-Serif" font-size="10.00" fill="#000000">IOManager.cpp</text>
</a>
</g>
</g>
<!-- Node6&#45;&gt;Node8 -->
<g id="edge2" class="edge">
<title>Node6&#45;&gt;Node8</title>
<path fill="none" stroke="#191970" d="M199.6878,-48.5004C191.3553,-38.9775 181.3647,-27.5596 174.4373,-19.6427"/>
<polygon fill="#191970" stroke="#191970" points="197.2457,-51.0245 206.4649,-56.2455 202.5138,-46.415 197.2457,-51.0245"/>
</g>
<!-- Node9 -->
<g id="node4" class="node">
<title>Node9</title>
<g id="a_node4"><a xlink:href="_sampling_8cpp.html" target="_top" xlink:title="Sampling.cpp">
<polygon fill="#ffffff" stroke="#000000" points="226,-.5 226,-19.5 302,-19.5 302,-.5 226,-.5"/>
<text text-anchor="middle" x="264" y="-7.5" font-family="Helvetica,sans-Serif" font-size="10.00" fill="#000000">Sampling.cpp</text>
</a>
</g>
</g>
<!-- Node6&#45;&gt;Node9 -->
<g id="edge3" class="edge">
<title>Node6&#45;&gt;Node9</title>
<path fill="none" stroke="#191970" d="M230.3122,-48.5004C238.6447,-38.9775 248.6353,-27.5596 255.5627,-19.6427"/>
<polygon fill="#191970" stroke="#191970" points="227.4862,-46.415 223.5351,-56.2455 232.7543,-51.0245 227.4862,-46.415"/>
</g>
<!-- Node10 -->
<g id="node5" class="node">
<title>Node10</title>
<g id="a_node5"><a xlink:href="_a_b_l_stats_8cpp.html" target="_top" xlink:title="ABLStats.cpp">
<polygon fill="#ffffff" stroke="#000000" points="320.5,-.5 320.5,-19.5 397.5,-19.5 397.5,-.5 320.5,-.5"/>
<text text-anchor="middle" x="359" y="-7.5" font-family="Helvetica,sans-Serif" font-size="10.00" fill="#000000">ABLStats.cpp</text>
</a>
</g>
</g>
<!-- Node6&#45;&gt;Node10 -->
<g id="edge4" class="edge">
<title>Node6&#45;&gt;Node10</title>
<path fill="none" stroke="#191970" d="M249.3182,-52.6541C275.578,-42.4419 311.1492,-28.6086 334.5685,-19.5011"/>
<polygon fill="#191970" stroke="#191970" points="247.806,-49.4867 239.7545,-56.3733 250.3431,-56.0108 247.806,-49.4867"/>
</g>
</g>
</svg>
