<?xml version="1.0" encoding="UTF-8" standalone="no"?>
<!DOCTYPE svg PUBLIC "-//W3C//DTD SVG 1.1//EN"
 "http://www.w3.org/Graphics/SVG/1.1/DTD/svg11.dtd">
<!-- Generated by graphviz version 2.40.1 (20161225.0304)
 -->
<!-- Title: stencils.H Pages: 1 -->
<svg width="660pt" height="252pt"
 viewBox="0.00 0.00 660.00 252.00" xmlns="http://www.w3.org/2000/svg" xmlns:xlink="http://www.w3.org/1999/xlink">
<g id="graph0" class="graph" transform="scale(1 1) rotate(0) translate(4 248)">
<title>stencils.H</title>
<polygon fill="#ffffff" stroke="transparent" points="-4,4 -4,-248 656,-248 656,4 -4,4"/>
<!-- Node5 -->
<g id="node1" class="node">
<title>Node5</title>
<polygon fill="#bfbfbf" stroke="#000000" points="227.5,-224.5 227.5,-243.5 288.5,-243.5 288.5,-224.5 227.5,-224.5"/>
<text text-anchor="middle" x="258" y="-231.5" font-family="Helvetica,sans-Serif" font-size="10.00" fill="#000000">stencils.H</text>
</g>
<!-- Node6 -->
<g id="node2" class="node">
<title>Node6</title>
<g id="a_node2"><a xlink:href="fvm__utils_8_h.html" target="_top" xlink:title="fvm_utils.H">
<polygon fill="#ffffff" stroke="#000000" points="224.5,-168.5 224.5,-187.5 291.5,-187.5 291.5,-168.5 224.5,-168.5"/>
<text text-anchor="middle" x="258" y="-175.5" font-family="Helvetica,sans-Serif" font-size="10.00" fill="#000000">fvm_utils.H</text>
</a>
</g>
</g>
<!-- Node5&#45;&gt;Node6 -->
<g id="edge1" class="edge">
<title>Node5&#45;&gt;Node6</title>
<path fill="none" stroke="#191970" d="M258,-214.1575C258,-205.155 258,-194.9199 258,-187.6427"/>
<polygon fill="#191970" stroke="#191970" points="254.5001,-214.2455 258,-224.2455 261.5001,-214.2456 254.5001,-214.2455"/>
</g>
<!-- Node7 -->
<g id="node3" class="node">
<title>Node7</title>
<g id="a_node3"><a xlink:href="divergence_8_h.html" target="_top" xlink:title="divergence.H">
<polygon fill="#ffffff" stroke="#000000" points="0,-112.5 0,-131.5 74,-131.5 74,-112.5 0,-112.5"/>
<text text-anchor="middle" x="37" y="-119.5" font-family="Helvetica,sans-Serif" font-size="10.00" fill="#000000">divergence.H</text>
</a>
</g>
</g>
<!-- Node6&#45;&gt;Node7 -->
<g id="edge2" class="edge">
<title>Node6&#45;&gt;Node7</title>
<path fill="none" stroke="#191970" d="M214.7392,-167.038C173.8103,-156.6669 113.0246,-141.2641 74.2105,-131.4289"/>
<polygon fill="#191970" stroke="#191970" points="213.8815,-170.4312 224.4349,-169.4948 215.601,-163.6457 213.8815,-170.4312"/>
</g>
<!-- Node11 -->
<g id="node7" class="node">
<title>Node11</title>
<g id="a_node7"><a xlink:href="curvature_8_h.html" target="_top" xlink:title="curvature.H">
<polygon fill="#ffffff" stroke="#000000" points="92,-112.5 92,-131.5 160,-131.5 160,-112.5 92,-112.5"/>
<text text-anchor="middle" x="126" y="-119.5" font-family="Helvetica,sans-Serif" font-size="10.00" fill="#000000">curvature.H</text>
</a>
</g>
</g>
<!-- Node6&#45;&gt;Node11 -->
<g id="edge6" class="edge">
<title>Node6&#45;&gt;Node11</title>
<path fill="none" stroke="#191970" d="M225.9035,-164.3833C201.8965,-154.1985 169.6741,-140.5284 148.3955,-131.5011"/>
<polygon fill="#191970" stroke="#191970" points="224.7356,-167.6897 235.3084,-168.3733 227.4695,-161.2457 224.7356,-167.6897"/>
</g>
<!-- Node12 -->
<g id="node8" class="node">
<title>Node12</title>
<g id="a_node8"><a xlink:href="gradient_8_h.html" target="_top" xlink:title="gradient.H">
<polygon fill="#ffffff" stroke="#000000" points="366,-112.5 366,-131.5 428,-131.5 428,-112.5 366,-112.5"/>
<text text-anchor="middle" x="397" y="-119.5" font-family="Helvetica,sans-Serif" font-size="10.00" fill="#000000">gradient.H</text>
</a>
</g>
</g>
<!-- Node6&#45;&gt;Node12 -->
<g id="edge8" class="edge">
<title>Node6&#45;&gt;Node12</title>
<path fill="none" stroke="#191970" d="M291.4621,-164.5189C316.7769,-154.3201 350.9103,-140.5685 373.4169,-131.5011"/>
<polygon fill="#191970" stroke="#191970" points="289.8626,-161.3899 281.895,-168.3733 292.4784,-167.8827 289.8626,-161.3899"/>
</g>
<!-- Node16 -->
<g id="node12" class="node">
<title>Node16</title>
<g id="a_node12"><a xlink:href="laplacian_8_h.html" target="_top" xlink:title="laplacian.H">
<polygon fill="#ffffff" stroke="#000000" points="178.5,-112.5 178.5,-131.5 243.5,-131.5 243.5,-112.5 178.5,-112.5"/>
<text text-anchor="middle" x="211" y="-119.5" font-family="Helvetica,sans-Serif" font-size="10.00" fill="#000000">laplacian.H</text>
</a>
</g>
</g>
<!-- Node6&#45;&gt;Node16 -->
<g id="edge13" class="edge">
<title>Node6&#45;&gt;Node16</title>
<path fill="none" stroke="#191970" d="M243.3128,-160.5004C235.3204,-150.9775 225.7375,-139.5596 219.093,-131.6427"/>
<polygon fill="#191970" stroke="#191970" points="240.7036,-162.8358 249.8132,-168.2455 246.0654,-158.3357 240.7036,-162.8358"/>
</g>
<!-- Node17 -->
<g id="node13" class="node">
<title>Node17</title>
<g id="a_node13"><a xlink:href="strainrate_8_h.html" target="_top" xlink:title="strainrate.H">
<polygon fill="#ffffff" stroke="#000000" points="455,-112.5 455,-131.5 523,-131.5 523,-112.5 455,-112.5"/>
<text text-anchor="middle" x="489" y="-119.5" font-family="Helvetica,sans-Serif" font-size="10.00" fill="#000000">strainrate.H</text>
</a>
</g>
</g>
<!-- Node6&#45;&gt;Node17 -->
<g id="edge15" class="edge">
<title>Node6&#45;&gt;Node17</title>
<path fill="none" stroke="#191970" d="M301.5372,-167.4455C346.0572,-156.6528 414.2897,-140.1116 454.9937,-130.2439"/>
<polygon fill="#191970" stroke="#191970" points="300.4833,-164.0996 291.5894,-169.8571 302.1325,-170.9025 300.4833,-164.0996"/>
</g>
<!-- Node19 -->
<g id="node15" class="node">
<title>Node19</title>
<g id="a_node15"><a xlink:href="vorticity__mag_8_h.html" target="_top" xlink:title="vorticity_mag.H">
<polygon fill="#ffffff" stroke="#000000" points="262,-112.5 262,-131.5 348,-131.5 348,-112.5 262,-112.5"/>
<text text-anchor="middle" x="305" y="-119.5" font-family="Helvetica,sans-Serif" font-size="10.00" fill="#000000">vorticity_mag.H</text>
</a>
</g>
</g>
<!-- Node6&#45;&gt;Node19 -->
<g id="edge19" class="edge">
<title>Node6&#45;&gt;Node19</title>
<path fill="none" stroke="#191970" d="M272.6872,-160.5004C280.6796,-150.9775 290.2625,-139.5596 296.907,-131.6427"/>
<polygon fill="#191970" stroke="#191970" points="269.9346,-158.3357 266.1868,-168.2455 275.2964,-162.8358 269.9346,-158.3357"/>
</g>
<!-- Node8 -->
<g id="node4" class="node">
<title>Node8</title>
<g id="a_node4"><a xlink:href="icns__ops_8cpp.html" target="_top" xlink:title="icns_ops.cpp">
<polygon fill="#ffffff" stroke="#000000" points="0,-56.5 0,-75.5 74,-75.5 74,-56.5 0,-56.5"/>
<text text-anchor="middle" x="37" y="-63.5" font-family="Helvetica,sans-Serif" font-size="10.00" fill="#000000">icns_ops.cpp</text>
</a>
</g>
</g>
<!-- Node7&#45;&gt;Node8 -->
<g id="edge3" class="edge">
<title>Node7&#45;&gt;Node8</title>
<path fill="none" stroke="#191970" d="M37,-102.1575C37,-93.155 37,-82.9199 37,-75.6427"/>
<polygon fill="#191970" stroke="#191970" points="33.5001,-102.2455 37,-112.2455 40.5001,-102.2456 33.5001,-102.2455"/>
</g>
<!-- Node9 -->
<g id="node5" class="node">
<title>Node9</title>
<g id="a_node5"><a xlink:href="fvm_8_h.html" target="_top" xlink:title="fvm.H">
<polygon fill="#ffffff" stroke="#000000" points="188,-56.5 188,-75.5 232,-75.5 232,-56.5 188,-56.5"/>
<text text-anchor="middle" x="210" y="-63.5" font-family="Helvetica,sans-Serif" font-size="10.00" fill="#000000">fvm.H</text>
</a>
</g>
</g>
<!-- Node7&#45;&gt;Node9 -->
<g id="edge4" class="edge">
<title>Node7&#45;&gt;Node9</title>
<path fill="none" stroke="#191970" d="M76.4949,-109.2155C110.9616,-98.0587 159.7277,-82.2731 187.7843,-73.1912"/>
<polygon fill="#191970" stroke="#191970" points="75.1758,-105.9636 66.7398,-112.3733 77.3316,-112.6234 75.1758,-105.9636"/>
</g>
<!-- Node10 -->
<g id="node6" class="node">
<title>Node10</title>
<g id="a_node6"><a xlink:href="_derived_qty_defs_8cpp.html" target="_top" xlink:title="DerivedQtyDefs.cpp">
<polygon fill="#ffffff" stroke="#000000" points="157,-.5 157,-19.5 263,-19.5 263,-.5 157,-.5"/>
<text text-anchor="middle" x="210" y="-7.5" font-family="Helvetica,sans-Serif" font-size="10.00" fill="#000000">DerivedQtyDefs.cpp</text>
</a>
</g>
</g>
<!-- Node9&#45;&gt;Node10 -->
<g id="edge5" class="edge">
<title>Node9&#45;&gt;Node10</title>
<path fill="none" stroke="#191970" d="M210,-46.1575C210,-37.155 210,-26.9199 210,-19.6427"/>
<polygon fill="#191970" stroke="#191970" points="206.5001,-46.2455 210,-56.2455 213.5001,-46.2456 206.5001,-46.2455"/>
</g>
<!-- Node11&#45;&gt;Node9 -->
<g id="edge7" class="edge">
<title>Node11&#45;&gt;Node9</title>
<path fill="none" stroke="#191970" d="M149.2649,-106.49C164.0856,-96.6096 182.8209,-84.1194 195.536,-75.6427"/>
<polygon fill="#191970" stroke="#191970" points="147.0107,-103.7863 140.6317,-112.2455 150.8937,-109.6107 147.0107,-103.7863"/>
</g>
<!-- Node12&#45;&gt;Node9 -->
<g id="edge9" class="edge">
<title>Node12&#45;&gt;Node9</title>
<path fill="none" stroke="#191970" d="M356.1039,-110.2475C324.5862,-101.116 279.9526,-88.0236 241,-76 238.1902,-75.1327 235.2428,-74.2051 232.3297,-73.2776"/>
<polygon fill="#191970" stroke="#191970" points="355.2735,-113.6507 365.8522,-113.0667 357.2183,-106.9263 355.2735,-113.6507"/>
</g>
<!-- Node13 -->
<g id="node9" class="node">
<title>Node13</title>
<g id="a_node9"><a xlink:href="_zalesak_disk_8cpp.html" target="_top" xlink:title="ZalesakDisk.cpp">
<polygon fill="#ffffff" stroke="#000000" points="250,-56.5 250,-75.5 340,-75.5 340,-56.5 250,-56.5"/>
<text text-anchor="middle" x="295" y="-63.5" font-family="Helvetica,sans-Serif" font-size="10.00" fill="#000000">ZalesakDisk.cpp</text>
</a>
</g>
</g>
<!-- Node12&#45;&gt;Node13 -->
<g id="edge10" class="edge">
<title>Node12&#45;&gt;Node13</title>
<path fill="none" stroke="#191970" d="M370.266,-107.3225C352.0468,-97.3198 328.4402,-84.3593 312.5634,-75.6427"/>
<polygon fill="#191970" stroke="#191970" points="368.7827,-110.5009 379.233,-112.2455 372.1516,-104.3649 368.7827,-110.5009"/>
</g>
<!-- Node14 -->
<g id="node10" class="node">
<title>Node14</title>
<g id="a_node10"><a xlink:href="_one_eq_ksgs_8cpp.html" target="_top" xlink:title="OneEqKsgs.cpp">
<polygon fill="#ffffff" stroke="#000000" points="454,-56.5 454,-75.5 542,-75.5 542,-56.5 454,-56.5"/>
<text text-anchor="middle" x="498" y="-63.5" font-family="Helvetica,sans-Serif" font-size="10.00" fill="#000000">OneEqKsgs.cpp</text>
</a>
</g>
</g>
<!-- Node12&#45;&gt;Node14 -->
<g id="edge11" class="edge">
<title>Node12&#45;&gt;Node14</title>
<path fill="none" stroke="#191970" d="M423.4719,-107.3225C441.5125,-97.3198 464.8877,-84.3593 480.6087,-75.6427"/>
<polygon fill="#191970" stroke="#191970" points="421.6413,-104.3354 414.5929,-112.2455 425.0357,-110.4574 421.6413,-104.3354"/>
</g>
<!-- Node15 -->
<g id="node11" class="node">
<title>Node15</title>
<g id="a_node11"><a xlink:href="_a_b_l_stats_8cpp.html" target="_top" xlink:title="ABLStats.cpp">
<polygon fill="#ffffff" stroke="#000000" points="358.5,-56.5 358.5,-75.5 435.5,-75.5 435.5,-56.5 358.5,-56.5"/>
<text text-anchor="middle" x="397" y="-63.5" font-family="Helvetica,sans-Serif" font-size="10.00" fill="#000000">ABLStats.cpp</text>
</a>
</g>
</g>
<!-- Node12&#45;&gt;Node15 -->
<g id="edge12" class="edge">
<title>Node12&#45;&gt;Node15</title>
<path fill="none" stroke="#191970" d="M397,-102.1575C397,-93.155 397,-82.9199 397,-75.6427"/>
<polygon fill="#191970" stroke="#191970" points="393.5001,-102.2455 397,-112.2455 400.5001,-102.2456 393.5001,-102.2455"/>
</g>
<!-- Node16&#45;&gt;Node9 -->
<g id="edge14" class="edge">
<title>Node16&#45;&gt;Node9</title>
<path fill="none" stroke="#191970" d="M210.6457,-102.1575C210.4849,-93.155 210.3021,-82.9199 210.1722,-75.6427"/>
<polygon fill="#191970" stroke="#191970" points="207.1477,-102.3097 210.8258,-112.2455 214.1466,-102.1846 207.1477,-102.3097"/>
</g>
<!-- Node17&#45;&gt;Node9 -->
<g id="edge16" class="edge">
<title>Node17&#45;&gt;Node9</title>
<path fill="none" stroke="#191970" d="M445.0311,-113.5177C442.3139,-113.0018 439.6201,-112.4926 437,-112 349.9564,-95.6369 326.8836,-97.6413 241,-76 238.1485,-75.2815 235.1764,-74.4422 232.2503,-73.561"/>
<polygon fill="#191970" stroke="#191970" points="444.404,-116.9612 454.8827,-115.3968 445.7156,-110.0851 444.404,-116.9612"/>
</g>
<!-- Node17&#45;&gt;Node14 -->
<g id="edge17" class="edge">
<title>Node17&#45;&gt;Node14</title>
<path fill="none" stroke="#191970" d="M492.189,-102.1575C493.6358,-93.155 495.2807,-82.9199 496.4503,-75.6427"/>
<polygon fill="#191970" stroke="#191970" points="488.6989,-101.8168 490.5677,-112.2455 495.6102,-102.9276 488.6989,-101.8168"/>
</g>
<!-- Node18 -->
<g id="node14" class="node">
<title>Node18</title>
<g id="a_node14"><a xlink:href="_smagorinsky_8cpp.html" target="_top" xlink:title="Smagorinsky.cpp">
<polygon fill="#ffffff" stroke="#000000" points="560,-56.5 560,-75.5 652,-75.5 652,-56.5 560,-56.5"/>
<text text-anchor="middle" x="606" y="-63.5" font-family="Helvetica,sans-Serif" font-size="10.00" fill="#000000">Smagorinsky.cpp</text>
</a>
</g>
</g>
<!-- Node17&#45;&gt;Node18 -->
<g id="edge18" class="edge">
<title>Node17&#45;&gt;Node18</title>
<path fill="none" stroke="#191970" d="M518.3042,-107.9741C539.488,-97.8348 567.5403,-84.408 586.1494,-75.5011"/>
<polygon fill="#191970" stroke="#191970" points="516.622,-104.8989 509.113,-112.3733 519.6441,-111.2129 516.622,-104.8989"/>
</g>
<!-- Node19&#45;&gt;Node9 -->
<g id="edge20" class="edge">
<title>Node19&#45;&gt;Node9</title>
<path fill="none" stroke="#191970" d="M279.6324,-107.0465C262.729,-97.0824 241.0096,-84.2794 226.3581,-75.6427"/>
<polygon fill="#191970" stroke="#191970" points="278.0602,-110.1825 288.4523,-112.2455 281.6149,-104.1522 278.0602,-110.1825"/>
</g>
</g>
</svg>
