<?xml version="1.0" encoding="UTF-8" standalone="no"?>
<!DOCTYPE svg PUBLIC "-//W3C//DTD SVG 1.1//EN"
 "http://www.w3.org/Graphics/SVG/1.1/DTD/svg11.dtd">
<!-- Generated by graphviz version 2.40.1 (20161225.0304)
 -->
<!-- Title: amr_wind::pde::AdvectionOp&lt; ICNS, fvm::Godunov &gt; Pages: 1 -->
<svg width="298pt" height="542pt"
 viewBox="0.00 0.00 298.00 542.00" xmlns="http://www.w3.org/2000/svg" xmlns:xlink="http://www.w3.org/1999/xlink">
<g id="graph0" class="graph" transform="scale(1 1) rotate(0) translate(4 538)">
<title>amr_wind::pde::AdvectionOp&lt; ICNS, fvm::Godunov &gt;</title>
<polygon fill="#ffffff" stroke="transparent" points="-4,4 -4,-538 294,-538 294,4 -4,4"/>
<!-- Node1 -->
<g id="node1" class="node">
<title>Node1</title>
<polygon fill="#bfbfbf" stroke="#000000" points="0,-.5 0,-30.5 140,-30.5 140,-.5 0,-.5"/>
<text text-anchor="start" x="8" y="-18.5" font-family="Helvetica,sans-Serif" font-size="10.00" fill="#000000">amr_wind::pde::Advection</text>
<text text-anchor="middle" x="70" y="-7.5" font-family="Helvetica,sans-Serif" font-size="10.00" fill="#000000">Op&lt; ICNS, fvm::Godunov &gt;</text>
</g>
<!-- Node2 -->
<g id="node2" class="node">
<title>Node2</title>
<g id="a_node2"><a xlink:href="classamr__wind_1_1_field.html" target="_top" xlink:title="Computational fieldThis is an abstraction of a collection of MultiFabs over multiple levels...">
<polygon fill="#ffffff" stroke="#000000" points="62,-202.5 62,-221.5 148,-221.5 148,-202.5 62,-202.5"/>
<text text-anchor="middle" x="105" y="-209.5" font-family="Helvetica,sans-Serif" font-size="10.00" fill="#000000">amr_wind::Field</text>
</a>
</g>
</g>
<!-- Node2&#45;&gt;Node1 -->
<g id="edge1" class="edge">
<title>Node2&#45;&gt;Node1</title>
<path fill="none" stroke="#9a32cd" stroke-dasharray="5,2" d="M99.006,-192.519C93.0245,-172.3239 84.0218,-139.7442 79,-111 74.0991,-82.9477 71.7299,-49.7611 70.6968,-30.8158"/>
<polygon fill="#9a32cd" stroke="#9a32cd" points="95.7358,-193.7976 101.9737,-202.3614 102.4378,-191.7767 95.7358,-193.7976"/>
<text text-anchor="middle" x="95.5" y="-103" font-family="Helvetica,sans-Serif" font-size="10.00" fill="#000000"> u_mac</text>
<text text-anchor="middle" x="95.5" y="-92" font-family="Helvetica,sans-Serif" font-size="10.00" fill="#000000">v_mac</text>
<text text-anchor="middle" x="95.5" y="-81" font-family="Helvetica,sans-Serif" font-size="10.00" fill="#000000">w_mac</text>
</g>
<!-- Node10 -->
<g id="node10" class="node">
<title>Node10</title>
<g id="a_node10"><a xlink:href="structamr__wind_1_1pde_1_1_p_d_e_fields.html" target="_top" xlink:title="Collection of fields related to a PDEEvery PDE requires a common set of fields, e.g., the transported variable (scalar or vector), advection, diffusion, source, and effective viscosity fields. ">
<polygon fill="#ffffff" stroke="#000000" points="121,-85 121,-104 255,-104 255,-85 121,-85"/>
<text text-anchor="middle" x="188" y="-92" font-family="Helvetica,sans-Serif" font-size="10.00" fill="#000000">amr_wind::pde::PDEFields</text>
</a>
</g>
</g>
<!-- Node2&#45;&gt;Node10 -->
<g id="edge12" class="edge">
<title>Node2&#45;&gt;Node10</title>
<path fill="none" stroke="#9a32cd" stroke-dasharray="5,2" d="M105.9523,-192.2165C107.7462,-174.0934 112.8145,-147.3691 127,-129 135.7006,-117.7334 149.1899,-109.5589 161.2733,-104.0035"/>
<polygon fill="#9a32cd" stroke="#9a32cd" points="102.4585,-192.0054 105.2063,-202.2377 109.4391,-192.5251 102.4585,-192.0054"/>
<text text-anchor="middle" x="150" y="-176" font-family="Helvetica,sans-Serif" font-size="10.00" fill="#000000"> src_term</text>
<text text-anchor="middle" x="150" y="-165" font-family="Helvetica,sans-Serif" font-size="10.00" fill="#000000">field</text>
<text text-anchor="middle" x="150" y="-154" font-family="Helvetica,sans-Serif" font-size="10.00" fill="#000000">diff_term</text>
<text text-anchor="middle" x="150" y="-143" font-family="Helvetica,sans-Serif" font-size="10.00" fill="#000000">mueff</text>
<text text-anchor="middle" x="150" y="-132" font-family="Helvetica,sans-Serif" font-size="10.00" fill="#000000">conv_term</text>
</g>
<!-- Node3 -->
<g id="node3" class="node">
<title>Node3</title>
<g id="a_node3"><a xlink:title="STL class. ">
<polygon fill="#ffffff" stroke="#bfbfbf" points="68,-431 68,-450 128,-450 128,-431 68,-431"/>
<text text-anchor="middle" x="98" y="-438" font-family="Helvetica,sans-Serif" font-size="10.00" fill="#000000">std::string</text>
</a>
</g>
</g>
<!-- Node3&#45;&gt;Node1 -->
<g id="edge10" class="edge">
<title>Node3&#45;&gt;Node1</title>
<path fill="none" stroke="#9a32cd" stroke-dasharray="5,2" d="M70.2873,-425.7564C49.279,-412.3563 24,-390.4293 24,-362.5 24,-362.5 24,-362.5 24,-94.5 24,-69.5826 41.3012,-45.515 54.6827,-30.6266"/>
<polygon fill="#9a32cd" stroke="#9a32cd" points="68.5711,-428.8085 78.9432,-430.9698 72.1828,-422.8122 68.5711,-428.8085"/>
<text text-anchor="middle" x="56" y="-243" font-family="Helvetica,sans-Serif" font-size="10.00" fill="#000000"> godunov_type</text>
</g>
<!-- Node3&#45;&gt;Node2 -->
<g id="edge2" class="edge">
<title>Node3&#45;&gt;Node2</title>
<path fill="none" stroke="#9a32cd" stroke-dasharray="5,2" d="M98.6016,-420.8634C100.0431,-373.8087 103.6531,-255.9671 104.7069,-221.5681"/>
<polygon fill="#9a32cd" stroke="#9a32cd" points="95.0998,-420.87 98.2919,-430.9726 102.0965,-421.0844 95.0998,-420.87"/>
<text text-anchor="middle" x="123.5" y="-315.5" font-family="Helvetica,sans-Serif" font-size="10.00" fill="#000000"> m_name</text>
</g>
<!-- Node6 -->
<g id="node6" class="node">
<title>Node6</title>
<polygon fill="#ffffff" stroke="#bfbfbf" points="131,-347.5 131,-377.5 241,-377.5 241,-347.5 131,-347.5"/>
<text text-anchor="start" x="139" y="-365.5" font-family="Helvetica,sans-Serif" font-size="10.00" fill="#000000">std::unordered_map</text>
<text text-anchor="middle" x="186" y="-354.5" font-family="Helvetica,sans-Serif" font-size="10.00" fill="#000000">&lt; std::string, size_t &gt;</text>
</g>
<!-- Node3&#45;&gt;Node6 -->
<g id="edge6" class="edge">
<title>Node3&#45;&gt;Node6</title>
<path fill="none" stroke="#9a32cd" stroke-dasharray="5,2" d="M116.6184,-423.9973C132.0259,-410.3407 153.7434,-391.0911 168.7583,-377.7824"/>
<polygon fill="#9a32cd" stroke="#9a32cd" points="113.9524,-421.6833 108.7905,-430.9357 118.5956,-426.9218 113.9524,-421.6833"/>
<text text-anchor="middle" x="160.5" y="-399" font-family="Helvetica,sans-Serif" font-size="10.00" fill="#000000"> keys</text>
</g>
<!-- Node4 -->
<g id="node4" class="node">
<title>Node4</title>
<g id="a_node4"><a xlink:title="STL class. ">
<polygon fill="#ffffff" stroke="#bfbfbf" points="50.5,-503.5 50.5,-533.5 145.5,-533.5 145.5,-503.5 50.5,-503.5"/>
<text text-anchor="start" x="58.5" y="-521.5" font-family="Helvetica,sans-Serif" font-size="10.00" fill="#000000">std::basic_string&lt;</text>
<text text-anchor="middle" x="98" y="-510.5" font-family="Helvetica,sans-Serif" font-size="10.00" fill="#000000"> char &gt;</text>
</a>
</g>
</g>
<!-- Node4&#45;&gt;Node3 -->
<g id="edge3" class="edge">
<title>Node4&#45;&gt;Node3</title>
<path fill="none" stroke="#191970" d="M98,-493.3962C98,-478.6331 98,-460.8138 98,-450.0839"/>
<polygon fill="#191970" stroke="#191970" points="94.5001,-493.4608 98,-503.4608 101.5001,-493.4609 94.5001,-493.4608"/>
</g>
<!-- Node5 -->
<g id="node5" class="node">
<title>Node5</title>
<g id="a_node5"><a xlink:href="classamr__wind_1_1_field_repo.html" target="_top" xlink:title="Field RepositoryFieldRepo is a database that manages handling of fields used during a simulation...">
<polygon fill="#ffffff" stroke="#000000" points="131.5,-269.5 131.5,-288.5 240.5,-288.5 240.5,-269.5 131.5,-269.5"/>
<text text-anchor="middle" x="186" y="-276.5" font-family="Helvetica,sans-Serif" font-size="10.00" fill="#000000">amr_wind::FieldRepo</text>
</a>
</g>
</g>
<!-- Node5&#45;&gt;Node2 -->
<g id="edge4" class="edge">
<title>Node5&#45;&gt;Node2</title>
<path fill="none" stroke="#9a32cd" stroke-dasharray="5,2" d="M156.4386,-264.4231C149.7334,-260.5008 142.8663,-255.9553 137,-251 126.83,-242.4094 117.4556,-230.2711 111.5174,-221.8265"/>
<polygon fill="#9a32cd" stroke="#9a32cd" points="154.928,-267.5872 165.3726,-269.3652 158.3164,-261.462 154.928,-267.5872"/>
<text text-anchor="middle" x="155" y="-243" font-family="Helvetica,sans-Serif" font-size="10.00" fill="#000000"> m_repo</text>
</g>
<!-- Node5&#45;&gt;Node10 -->
<g id="edge13" class="edge">
<title>Node5&#45;&gt;Node10</title>
<path fill="none" stroke="#9a32cd" stroke-dasharray="5,2" d="M186.2151,-259.1587C186.6422,-219.7567 187.5831,-132.9547 187.8963,-104.0641"/>
<polygon fill="#9a32cd" stroke="#9a32cd" points="182.7134,-259.3029 186.1047,-269.3402 189.713,-259.3788 182.7134,-259.3029"/>
<text text-anchor="middle" x="198" y="-209.5" font-family="Helvetica,sans-Serif" font-size="10.00" fill="#000000"> repo</text>
</g>
<!-- Node6&#45;&gt;Node5 -->
<g id="edge5" class="edge">
<title>Node6&#45;&gt;Node5</title>
<path fill="none" stroke="#9a32cd" stroke-dasharray="5,2" d="M186,-337.1022C186,-320.6775 186,-300.2426 186,-288.5023"/>
<polygon fill="#9a32cd" stroke="#9a32cd" points="182.5001,-337.1848 186,-347.1848 189.5001,-337.1848 182.5001,-337.1848"/>
<text text-anchor="middle" x="218" y="-321" font-family="Helvetica,sans-Serif" font-size="10.00" fill="#000000"> m_fid_map</text>
<text text-anchor="middle" x="218" y="-310" font-family="Helvetica,sans-Serif" font-size="10.00" fill="#000000">m_int_fid_map</text>
</g>
<!-- Node7 -->
<g id="node7" class="node">
<title>Node7</title>
<g id="a_node7"><a xlink:title="STL class. ">
<polygon fill="#ffffff" stroke="#bfbfbf" points="146.5,-425.5 146.5,-455.5 249.5,-455.5 249.5,-425.5 146.5,-425.5"/>
<text text-anchor="start" x="154.5" y="-443.5" font-family="Helvetica,sans-Serif" font-size="10.00" fill="#000000">std::unordered_map</text>
<text text-anchor="middle" x="198" y="-432.5" font-family="Helvetica,sans-Serif" font-size="10.00" fill="#000000">&lt; K, T &gt;</text>
</a>
</g>
</g>
<!-- Node7&#45;&gt;Node6 -->
<g id="edge7" class="edge">
<title>Node7&#45;&gt;Node6</title>
<path fill="none" stroke="#ffa500" stroke-dasharray="5,2" d="M194.1211,-415.2875C192.2183,-402.9187 189.9887,-388.4264 188.3476,-377.7592"/>
<polygon fill="#ffa500" stroke="#ffa500" points="190.7063,-416.1093 195.6863,-425.4608 197.6249,-415.0449 190.7063,-416.1093"/>
<text text-anchor="middle" x="241.5" y="-399" font-family="Helvetica,sans-Serif" font-size="10.00" fill="#000000"> &lt; std::string, size_t &gt;</text>
</g>
<!-- Node8 -->
<g id="node8" class="node">
<title>Node8</title>
<polygon fill="#ffffff" stroke="#bfbfbf" points="173.5,-509 173.5,-528 202.5,-528 202.5,-509 173.5,-509"/>
<text text-anchor="middle" x="188" y="-516" font-family="Helvetica,sans-Serif" font-size="10.00" fill="#000000">K</text>
</g>
<!-- Node8&#45;&gt;Node7 -->
<g id="edge8" class="edge">
<title>Node8&#45;&gt;Node7</title>
<path fill="none" stroke="#9a32cd" stroke-dasharray="5,2" d="M187.4311,-498.6592C187.4741,-490.9293 187.85,-482.0175 189,-474 189.8721,-467.9196 191.4781,-461.3663 193.0946,-455.6822"/>
<polygon fill="#9a32cd" stroke="#9a32cd" points="183.9341,-498.94 187.555,-508.8968 190.9336,-498.8552 183.9341,-498.94"/>
<text text-anchor="middle" x="201.5" y="-477" font-family="Helvetica,sans-Serif" font-size="10.00" fill="#000000"> keys</text>
</g>
<!-- Node9 -->
<g id="node9" class="node">
<title>Node9</title>
<polygon fill="#ffffff" stroke="#bfbfbf" points="221.5,-509 221.5,-528 250.5,-528 250.5,-509 221.5,-509"/>
<text text-anchor="middle" x="236" y="-516" font-family="Helvetica,sans-Serif" font-size="10.00" fill="#000000">T</text>
</g>
<!-- Node9&#45;&gt;Node7 -->
<g id="edge9" class="edge">
<title>Node9&#45;&gt;Node7</title>
<path fill="none" stroke="#9a32cd" stroke-dasharray="5,2" d="M226.8271,-499.6714C220.2739,-486.2202 211.5688,-468.3517 205.4453,-455.7824"/>
<polygon fill="#9a32cd" stroke="#9a32cd" points="223.8142,-501.4787 231.3405,-508.9357 230.1072,-498.4128 223.8142,-501.4787"/>
<text text-anchor="middle" x="241.5" y="-477" font-family="Helvetica,sans-Serif" font-size="10.00" fill="#000000"> elements</text>
</g>
<!-- Node10&#45;&gt;Node1 -->
<g id="edge11" class="edge">
<title>Node10&#45;&gt;Node1</title>
<path fill="none" stroke="#9a32cd" stroke-dasharray="5,2" d="M164.9592,-79.0744C144.07,-65.0892 113.4587,-44.5952 92.6817,-30.6852"/>
<polygon fill="#9a32cd" stroke="#9a32cd" points="163.2741,-82.1581 173.5309,-84.813 167.1684,-76.3414 163.2741,-82.1581"/>
<text text-anchor="middle" x="150.5" y="-52" font-family="Helvetica,sans-Serif" font-size="10.00" fill="#000000"> fields</text>
</g>
</g>
</svg>
