<?xml version="1.0" encoding="UTF-8" standalone="no"?>
<!DOCTYPE svg PUBLIC "-//W3C//DTD SVG 1.1//EN"
 "http://www.w3.org/Graphics/SVG/1.1/DTD/svg11.dtd">
<!-- Generated by graphviz version 2.40.1 (20161225.0304)
 -->
<!-- Title: amr_wind::Factory&lt; Base, Args &gt; Pages: 1 -->
<svg width="1374pt" height="838pt"
 viewBox="0.00 0.00 1374.00 837.87" xmlns="http://www.w3.org/2000/svg" xmlns:xlink="http://www.w3.org/1999/xlink">
<g id="graph0" class="graph" transform="scale(1 1) rotate(0) translate(4 833.866)">
<title>amr_wind::Factory&lt; Base, Args &gt;</title>
<polygon fill="#ffffff" stroke="transparent" points="-4,4 -4,-833.866 1370,-833.866 1370,4 -4,4"/>
<!-- Node0 -->
<g id="node1" class="node">
<title>Node0</title>
<polygon fill="#bfbfbf" stroke="#000000" points="0,-388.866 0,-418.866 104,-418.866 104,-388.866 0,-388.866"/>
<text text-anchor="start" x="8" y="-406.866" font-family="Helvetica,sans-Serif" font-size="10.00" fill="#000000">amr_wind::Factory&lt;</text>
<text text-anchor="middle" x="52" y="-395.866" font-family="Helvetica,sans-Serif" font-size="10.00" fill="#000000"> Base, Args &gt;</text>
</g>
<!-- Node1 -->
<g id="node2" class="node">
<title>Node1</title>
<g id="a_node2"><a xlink:href="structamr__wind_1_1_factory.html" target="_top" xlink:title="amr_wind::Factory\&lt;\l PDEBase, CFDSim &amp;,\l const int \&gt;">
<polygon fill="#ffffff" stroke="#000000" points="305,-777.366 305,-818.366 425,-818.366 425,-777.366 305,-777.366"/>
<text text-anchor="start" x="313" y="-806.366" font-family="Helvetica,sans-Serif" font-size="10.00" fill="#000000">amr_wind::Factory&lt;</text>
<text text-anchor="start" x="313" y="-795.366" font-family="Helvetica,sans-Serif" font-size="10.00" fill="#000000"> PDEBase, CFDSim &amp;,</text>
<text text-anchor="middle" x="365" y="-784.366" font-family="Helvetica,sans-Serif" font-size="10.00" fill="#000000"> const int &gt;</text>
</a>
</g>
</g>
<!-- Node0&#45;&gt;Node1 -->
<g id="edge1" class="edge">
<title>Node0&#45;&gt;Node1</title>
<path fill="none" stroke="#ffa500" stroke-dasharray="5,2" d="M53.2684,-429.216C57.5081,-503.0781 73.754,-715.7905 122,-761.866 170.1142,-807.8156 249.8244,-811.1323 304.7562,-806.7121"/>
<polygon fill="#ffa500" stroke="#ffa500" points="56.7495,-428.7735 52.7077,-418.9799 49.76,-429.1564 56.7495,-428.7735"/>
<text text-anchor="start" x="138" y="-821.866" font-family="Helvetica,sans-Serif" font-size="10.00" fill="#000000"> &lt; PDEBase, CFDSim &amp;,</text>
<text text-anchor="middle" x="194.5" y="-810.866" font-family="Helvetica,sans-Serif" font-size="10.00" fill="#000000"> const int &gt;</text>
</g>
<!-- Node3 -->
<g id="node4" class="node">
<title>Node3</title>
<g id="a_node4"><a xlink:href="structamr__wind_1_1_factory.html" target="_top" xlink:title="amr_wind::Factory\&lt;\l TemperatureSource,\l const CFDSim &amp;\&gt;">
<polygon fill="#ffffff" stroke="#000000" points="311,-717.366 311,-758.366 419,-758.366 419,-717.366 311,-717.366"/>
<text text-anchor="start" x="319" y="-746.366" font-family="Helvetica,sans-Serif" font-size="10.00" fill="#000000">amr_wind::Factory&lt;</text>
<text text-anchor="start" x="319" y="-735.366" font-family="Helvetica,sans-Serif" font-size="10.00" fill="#000000"> TemperatureSource,</text>
<text text-anchor="middle" x="365" y="-724.366" font-family="Helvetica,sans-Serif" font-size="10.00" fill="#000000"> const CFDSim &amp;&gt;</text>
</a>
</g>
</g>
<!-- Node0&#45;&gt;Node3 -->
<g id="edge3" class="edge">
<title>Node0&#45;&gt;Node3</title>
<path fill="none" stroke="#ffa500" stroke-dasharray="5,2" d="M54.1763,-429.3197C60.3818,-495.4967 80.457,-670.4139 122,-707.866 148.915,-732.1305 247.7675,-737.3812 310.7957,-738.1819"/>
<polygon fill="#ffa500" stroke="#ffa500" points="57.6269,-428.6165 53.2371,-418.9739 50.6556,-429.2494 57.6269,-428.6165"/>
<text text-anchor="start" x="144" y="-749.866" font-family="Helvetica,sans-Serif" font-size="10.00" fill="#000000"> &lt; TemperatureSource,</text>
<text text-anchor="middle" x="194.5" y="-738.866" font-family="Helvetica,sans-Serif" font-size="10.00" fill="#000000"> const CFDSim &amp;&gt;</text>
</g>
<!-- Node5 -->
<g id="node6" class="node">
<title>Node5</title>
<g id="a_node6"><a xlink:href="structamr__wind_1_1_factory.html" target="_top" xlink:title="amr_wind::Factory\&lt;\l DerivedQty, const FieldRepo\l &amp;, std::vector\&lt; std::string \&gt; &amp;\&gt;">
<polygon fill="#ffffff" stroke="#000000" points="287,-657.366 287,-698.366 443,-698.366 443,-657.366 287,-657.366"/>
<text text-anchor="start" x="295" y="-686.366" font-family="Helvetica,sans-Serif" font-size="10.00" fill="#000000">amr_wind::Factory&lt;</text>
<text text-anchor="start" x="295" y="-675.366" font-family="Helvetica,sans-Serif" font-size="10.00" fill="#000000"> DerivedQty, const FieldRepo</text>
<text text-anchor="middle" x="365" y="-664.366" font-family="Helvetica,sans-Serif" font-size="10.00" fill="#000000"> &amp;, std::vector&lt; std::string &gt; &amp;&gt;</text>
</a>
</g>
</g>
<!-- Node0&#45;&gt;Node5 -->
<g id="edge5" class="edge">
<title>Node0&#45;&gt;Node5</title>
<path fill="none" stroke="#ffa500" stroke-dasharray="5,2" d="M55.9855,-429.1363C65.2079,-484.2756 89.721,-612.7059 122,-640.866 146.1175,-661.906 225.3998,-670.9927 286.9205,-674.9103"/>
<polygon fill="#ffa500" stroke="#ffa500" points="59.4181,-428.4396 54.3471,-419.1371 52.5102,-429.5715 59.4181,-428.4396"/>
<text text-anchor="start" x="139.5" y="-697.866" font-family="Helvetica,sans-Serif" font-size="10.00" fill="#000000"> &lt; DerivedQty, const</text>
<text text-anchor="start" x="139.5" y="-686.866" font-family="Helvetica,sans-Serif" font-size="10.00" fill="#000000"> FieldRepo &amp;, std::vector</text>
<text text-anchor="middle" x="194.5" y="-675.866" font-family="Helvetica,sans-Serif" font-size="10.00" fill="#000000">&lt; std::string &gt; &amp;&gt;</text>
</g>
<!-- Node7 -->
<g id="node8" class="node">
<title>Node7</title>
<g id="a_node8"><a xlink:href="structamr__wind_1_1_factory.html" target="_top" xlink:title="amr_wind::Factory\&lt;\l MomentumSource, const\l CFDSim &amp;\&gt;">
<polygon fill="#ffffff" stroke="#000000" points="300.5,-597.366 300.5,-638.366 429.5,-638.366 429.5,-597.366 300.5,-597.366"/>
<text text-anchor="start" x="308.5" y="-626.366" font-family="Helvetica,sans-Serif" font-size="10.00" fill="#000000">amr_wind::Factory&lt;</text>
<text text-anchor="start" x="308.5" y="-615.366" font-family="Helvetica,sans-Serif" font-size="10.00" fill="#000000"> MomentumSource, const</text>
<text text-anchor="middle" x="365" y="-604.366" font-family="Helvetica,sans-Serif" font-size="10.00" fill="#000000"> CFDSim &amp;&gt;</text>
</a>
</g>
</g>
<!-- Node0&#45;&gt;Node7 -->
<g id="edge7" class="edge">
<title>Node0&#45;&gt;Node7</title>
<path fill="none" stroke="#ffa500" stroke-dasharray="5,2" d="M53.716,-428.9905C57.9236,-469.3088 72.3935,-547.8733 122,-586.866 148.8745,-607.9904 237.8122,-614.8087 300.274,-616.9581"/>
<polygon fill="#ffa500" stroke="#ffa500" points="57.1919,-428.5662 52.7983,-418.9253 50.2208,-429.2018 57.1919,-428.5662"/>
<text text-anchor="start" x="133.5" y="-628.866" font-family="Helvetica,sans-Serif" font-size="10.00" fill="#000000"> &lt; MomentumSource, const</text>
<text text-anchor="middle" x="194.5" y="-617.866" font-family="Helvetica,sans-Serif" font-size="10.00" fill="#000000"> CFDSim &amp;&gt;</text>
</g>
<!-- Node9 -->
<g id="node10" class="node">
<title>Node9</title>
<g id="a_node10"><a xlink:href="structamr__wind_1_1_factory.html" target="_top" xlink:title="amr_wind::Factory\&lt;\l SourceTerm, const CFDSim &amp;\&gt;">
<polygon fill="#ffffff" stroke="#000000" points="285,-547.866 285,-577.866 445,-577.866 445,-547.866 285,-547.866"/>
<text text-anchor="start" x="293" y="-565.866" font-family="Helvetica,sans-Serif" font-size="10.00" fill="#000000">amr_wind::Factory&lt;</text>
<text text-anchor="middle" x="365" y="-554.866" font-family="Helvetica,sans-Serif" font-size="10.00" fill="#000000"> SourceTerm, const CFDSim &amp;&gt;</text>
</a>
</g>
</g>
<!-- Node0&#45;&gt;Node9 -->
<g id="edge9" class="edge">
<title>Node0&#45;&gt;Node9</title>
<path fill="none" stroke="#ffa500" stroke-dasharray="5,2" d="M57.5772,-428.9372C65.8929,-459.8984 84.73,-511.5618 122,-536.866 147.8441,-554.4127 224.3538,-560.3759 284.6934,-562.2759"/>
<polygon fill="#ffa500" stroke="#ffa500" points="60.8933,-427.7718 55.0617,-418.9263 54.1043,-429.4778 60.8933,-427.7718"/>
<text text-anchor="start" x="146.5" y="-574.866" font-family="Helvetica,sans-Serif" font-size="10.00" fill="#000000"> &lt; SourceTerm, const</text>
<text text-anchor="middle" x="194.5" y="-563.866" font-family="Helvetica,sans-Serif" font-size="10.00" fill="#000000"> CFDSim &amp;&gt;</text>
</g>
<!-- Node11 -->
<g id="node12" class="node">
<title>Node11</title>
<g id="a_node12"><a xlink:href="structamr__wind_1_1_factory.html" target="_top" xlink:title="amr_wind::Factory\&lt;\l PostProcessBase, CFDSim\l &amp;, const std::string &amp;\&gt;">
<polygon fill="#ffffff" stroke="#000000" points="293.5,-487.366 293.5,-528.366 436.5,-528.366 436.5,-487.366 293.5,-487.366"/>
<text text-anchor="start" x="301.5" y="-516.366" font-family="Helvetica,sans-Serif" font-size="10.00" fill="#000000">amr_wind::Factory&lt;</text>
<text text-anchor="start" x="301.5" y="-505.366" font-family="Helvetica,sans-Serif" font-size="10.00" fill="#000000"> PostProcessBase, CFDSim</text>
<text text-anchor="middle" x="365" y="-494.366" font-family="Helvetica,sans-Serif" font-size="10.00" fill="#000000"> &amp;, const std::string &amp;&gt;</text>
</a>
</g>
</g>
<!-- Node0&#45;&gt;Node11 -->
<g id="edge11" class="edge">
<title>Node0&#45;&gt;Node11</title>
<path fill="none" stroke="#ffa500" stroke-dasharray="5,2" d="M68.8097,-427.3283C81.5306,-443.1895 100.4538,-463.1317 122,-473.866 151.2637,-488.4452 232.8,-497.7648 293.4013,-502.8905"/>
<polygon fill="#ffa500" stroke="#ffa500" points="71.2817,-424.8023 62.4034,-419.0207 65.7384,-429.077 71.2817,-424.8023"/>
<text text-anchor="start" x="145.5" y="-524.866" font-family="Helvetica,sans-Serif" font-size="10.00" fill="#000000"> &lt; PostProcessBase,</text>
<text text-anchor="start" x="145.5" y="-513.866" font-family="Helvetica,sans-Serif" font-size="10.00" fill="#000000"> CFDSim &amp;, const std</text>
<text text-anchor="middle" x="194.5" y="-502.866" font-family="Helvetica,sans-Serif" font-size="10.00" fill="#000000">::string &amp;&gt;</text>
</g>
<!-- Node13 -->
<g id="node14" class="node">
<title>Node13</title>
<g id="a_node14"><a xlink:href="structamr__wind_1_1_factory.html" target="_top" xlink:title="amr_wind::Factory\&lt;\l SDRSource, const CFDSim &amp;\&gt;">
<polygon fill="#ffffff" stroke="#000000" points="285.5,-437.866 285.5,-467.866 444.5,-467.866 444.5,-437.866 285.5,-437.866"/>
<text text-anchor="start" x="293.5" y="-455.866" font-family="Helvetica,sans-Serif" font-size="10.00" fill="#000000">amr_wind::Factory&lt;</text>
<text text-anchor="middle" x="365" y="-444.866" font-family="Helvetica,sans-Serif" font-size="10.00" fill="#000000"> SDRSource, const CFDSim &amp;&gt;</text>
</a>
</g>
</g>
<!-- Node0&#45;&gt;Node13 -->
<g id="edge13" class="edge">
<title>Node0&#45;&gt;Node13</title>
<path fill="none" stroke="#ffa500" stroke-dasharray="5,2" d="M98.5359,-422.2626C106.2793,-424.8078 114.2976,-427.1376 122,-428.866 175.7734,-440.9323 237.5965,-446.9327 285.427,-449.9163"/>
<polygon fill="#ffa500" stroke="#ffa500" points="99.5138,-418.8977 88.9191,-418.9527 97.2356,-425.5167 99.5138,-418.8977"/>
<text text-anchor="start" x="147" y="-461.866" font-family="Helvetica,sans-Serif" font-size="10.00" fill="#000000"> &lt; SDRSource, const</text>
<text text-anchor="middle" x="194.5" y="-450.866" font-family="Helvetica,sans-Serif" font-size="10.00" fill="#000000"> CFDSim &amp;&gt;</text>
</g>
<!-- Node15 -->
<g id="node16" class="node">
<title>Node15</title>
<g id="a_node16"><a xlink:href="structamr__wind_1_1_factory.html" target="_top" xlink:title="amr_wind::Factory\&lt;\l TurbulenceModel, CFDSim &amp;\&gt;">
<polygon fill="#ffffff" stroke="#000000" points="288,-388.866 288,-418.866 442,-418.866 442,-388.866 288,-388.866"/>
<text text-anchor="start" x="296" y="-406.866" font-family="Helvetica,sans-Serif" font-size="10.00" fill="#000000">amr_wind::Factory&lt;</text>
<text text-anchor="middle" x="365" y="-395.866" font-family="Helvetica,sans-Serif" font-size="10.00" fill="#000000"> TurbulenceModel, CFDSim &amp;&gt;</text>
</a>
</g>
</g>
<!-- Node0&#45;&gt;Node15 -->
<g id="edge15" class="edge">
<title>Node0&#45;&gt;Node15</title>
<path fill="none" stroke="#ffa500" stroke-dasharray="5,2" d="M114.0502,-403.866C163.968,-403.866 234.3666,-403.866 287.9018,-403.866"/>
<polygon fill="#ffa500" stroke="#ffa500" points="114.037,-400.3661 104.0369,-403.866 114.0369,-407.3661 114.037,-400.3661"/>
<text text-anchor="start" x="149.5" y="-417.866" font-family="Helvetica,sans-Serif" font-size="10.00" fill="#000000"> &lt; TurbulenceModel,</text>
<text text-anchor="middle" x="194.5" y="-406.866" font-family="Helvetica,sans-Serif" font-size="10.00" fill="#000000"> CFDSim &amp;&gt;</text>
</g>
<!-- Node24 -->
<g id="node25" class="node">
<title>Node24</title>
<g id="a_node25"><a xlink:href="structamr__wind_1_1_factory.html" target="_top" xlink:title="amr_wind::Factory\&lt;\l OversetManager, CFDSim &amp;\&gt;">
<polygon fill="#ffffff" stroke="#000000" points="289,-339.866 289,-369.866 441,-369.866 441,-339.866 289,-339.866"/>
<text text-anchor="start" x="297" y="-357.866" font-family="Helvetica,sans-Serif" font-size="10.00" fill="#000000">amr_wind::Factory&lt;</text>
<text text-anchor="middle" x="365" y="-346.866" font-family="Helvetica,sans-Serif" font-size="10.00" fill="#000000"> OversetManager, CFDSim &amp;&gt;</text>
</a>
</g>
</g>
<!-- Node0&#45;&gt;Node24 -->
<g id="edge24" class="edge">
<title>Node0&#45;&gt;Node24</title>
<path fill="none" stroke="#ffa500" stroke-dasharray="5,2" d="M114.3321,-390.2701C116.9195,-389.7814 119.4834,-389.3111 122,-388.866 177.6852,-379.0172 240.9612,-370.2402 288.9818,-364.0716"/>
<polygon fill="#ffa500" stroke="#ffa500" points="113.4302,-386.8801 104.2861,-392.2314 114.7715,-393.7504 113.4302,-386.8801"/>
<text text-anchor="middle" x="194.5" y="-391.866" font-family="Helvetica,sans-Serif" font-size="10.00" fill="#000000"> &lt; OversetManager, CFDSim &amp;&gt;</text>
</g>
<!-- Node26 -->
<g id="node27" class="node">
<title>Node26</title>
<g id="a_node27"><a xlink:href="structamr__wind_1_1_factory.html" target="_top" xlink:title="amr_wind::Factory\&lt;\l Physics, CFDSim &amp;\&gt;">
<polygon fill="#ffffff" stroke="#000000" points="307.5,-290.866 307.5,-320.866 422.5,-320.866 422.5,-290.866 307.5,-290.866"/>
<text text-anchor="start" x="315.5" y="-308.866" font-family="Helvetica,sans-Serif" font-size="10.00" fill="#000000">amr_wind::Factory&lt;</text>
<text text-anchor="middle" x="365" y="-297.866" font-family="Helvetica,sans-Serif" font-size="10.00" fill="#000000"> Physics, CFDSim &amp;&gt;</text>
</a>
</g>
</g>
<!-- Node0&#45;&gt;Node26 -->
<g id="edge26" class="edge">
<title>Node0&#45;&gt;Node26</title>
<path fill="none" stroke="#ffa500" stroke-dasharray="5,2" d="M75.742,-381.9761C88.5549,-371.318 105.1656,-359.2429 122,-351.866 181.9731,-325.5856 256.7254,-314.2921 307.3667,-309.456"/>
<polygon fill="#ffa500" stroke="#ffa500" points="73.2081,-379.5388 67.9062,-388.7117 77.7712,-384.8472 73.2081,-379.5388"/>
<text text-anchor="middle" x="194.5" y="-354.866" font-family="Helvetica,sans-Serif" font-size="10.00" fill="#000000"> &lt; Physics, CFDSim &amp;&gt;</text>
</g>
<!-- Node28 -->
<g id="node29" class="node">
<title>Node28</title>
<g id="a_node29"><a xlink:href="structamr__wind_1_1_factory.html" target="_top" xlink:title="amr_wind::Factory\&lt;\l SamplerBase, CFDSim &amp;\&gt;">
<polygon fill="#ffffff" stroke="#000000" points="296,-241.866 296,-271.866 434,-271.866 434,-241.866 296,-241.866"/>
<text text-anchor="start" x="304" y="-259.866" font-family="Helvetica,sans-Serif" font-size="10.00" fill="#000000">amr_wind::Factory&lt;</text>
<text text-anchor="middle" x="365" y="-248.866" font-family="Helvetica,sans-Serif" font-size="10.00" fill="#000000"> SamplerBase, CFDSim &amp;&gt;</text>
</a>
</g>
</g>
<!-- Node0&#45;&gt;Node28 -->
<g id="edge28" class="edge">
<title>Node0&#45;&gt;Node28</title>
<path fill="none" stroke="#ffa500" stroke-dasharray="5,2" d="M61.4069,-379.4953C72.1931,-355.0032 92.305,-318.1929 122,-298.866 173.6706,-265.2362 244.0985,-256.1509 295.8328,-254.6382"/>
<polygon fill="#ffa500" stroke="#ffa500" points="58.1278,-378.2642 57.4791,-388.8392 64.5808,-380.9769 58.1278,-378.2642"/>
<text text-anchor="middle" x="194.5" y="-301.866" font-family="Helvetica,sans-Serif" font-size="10.00" fill="#000000"> &lt; SamplerBase, CFDSim &amp;&gt;</text>
</g>
<!-- Node30 -->
<g id="node31" class="node">
<title>Node30</title>
<g id="a_node31"><a xlink:href="structamr__wind_1_1_factory.html" target="_top" xlink:title="amr_wind::Factory\&lt;\l GeometryType, const\l CFDSim &amp;, const std\l::string &amp;\&gt;">
<polygon fill="#ffffff" stroke="#000000" points="308,-170.866 308,-222.866 422,-222.866 422,-170.866 308,-170.866"/>
<text text-anchor="start" x="316" y="-210.866" font-family="Helvetica,sans-Serif" font-size="10.00" fill="#000000">amr_wind::Factory&lt;</text>
<text text-anchor="start" x="316" y="-199.866" font-family="Helvetica,sans-Serif" font-size="10.00" fill="#000000"> GeometryType, const</text>
<text text-anchor="start" x="316" y="-188.866" font-family="Helvetica,sans-Serif" font-size="10.00" fill="#000000"> CFDSim &amp;, const std</text>
<text text-anchor="middle" x="365" y="-177.866" font-family="Helvetica,sans-Serif" font-size="10.00" fill="#000000">::string &amp;&gt;</text>
</a>
</g>
</g>
<!-- Node0&#45;&gt;Node30 -->
<g id="edge30" class="edge">
<title>Node0&#45;&gt;Node30</title>
<path fill="none" stroke="#ffa500" stroke-dasharray="5,2" d="M57.9252,-379.0593C69.3616,-333.3951 95.6803,-238.861 122,-218.866 174.9567,-178.6349 254.3544,-179.4753 307.8438,-186.1418"/>
<polygon fill="#ffa500" stroke="#ffa500" points="54.5236,-378.2355 55.5306,-388.7823 61.3205,-379.9095 54.5236,-378.2355"/>
<text text-anchor="start" x="141" y="-243.866" font-family="Helvetica,sans-Serif" font-size="10.00" fill="#000000"> &lt; GeometryType, const</text>
<text text-anchor="start" x="141" y="-232.866" font-family="Helvetica,sans-Serif" font-size="10.00" fill="#000000"> CFDSim &amp;, const std</text>
<text text-anchor="middle" x="194.5" y="-221.866" font-family="Helvetica,sans-Serif" font-size="10.00" fill="#000000">::string &amp;&gt;</text>
</g>
<!-- Node32 -->
<g id="node33" class="node">
<title>Node32</title>
<g id="a_node33"><a xlink:href="structamr__wind_1_1_factory.html" target="_top" xlink:title="amr_wind::Factory\&lt;\l DensitySource, const\l CFDSim &amp;\&gt;">
<polygon fill="#ffffff" stroke="#000000" points="308,-110.366 308,-151.366 422,-151.366 422,-110.366 308,-110.366"/>
<text text-anchor="start" x="316" y="-139.366" font-family="Helvetica,sans-Serif" font-size="10.00" fill="#000000">amr_wind::Factory&lt;</text>
<text text-anchor="start" x="316" y="-128.366" font-family="Helvetica,sans-Serif" font-size="10.00" fill="#000000"> DensitySource, const</text>
<text text-anchor="middle" x="365" y="-117.366" font-family="Helvetica,sans-Serif" font-size="10.00" fill="#000000"> CFDSim &amp;&gt;</text>
</a>
</g>
</g>
<!-- Node0&#45;&gt;Node32 -->
<g id="edge32" class="edge">
<title>Node0&#45;&gt;Node32</title>
<path fill="none" stroke="#ffa500" stroke-dasharray="5,2" d="M55.4744,-378.8865C63.9397,-321.8798 87.4979,-184.8741 122,-155.866 173.2891,-112.7439 253.8319,-113.3277 307.9813,-120.0939"/>
<polygon fill="#ffa500" stroke="#ffa500" points="51.9994,-378.4624 54.0269,-388.8614 58.9268,-379.4678 51.9994,-378.4624"/>
<text text-anchor="start" x="141" y="-169.866" font-family="Helvetica,sans-Serif" font-size="10.00" fill="#000000"> &lt; DensitySource, const</text>
<text text-anchor="middle" x="194.5" y="-158.866" font-family="Helvetica,sans-Serif" font-size="10.00" fill="#000000"> CFDSim &amp;&gt;</text>
</g>
<!-- Node34 -->
<g id="node35" class="node">
<title>Node34</title>
<g id="a_node35"><a xlink:href="structamr__wind_1_1_factory.html" target="_top" xlink:title="amr_wind::Factory\&lt;\l RefinementCriteria,\l CFDSim &amp;\&gt;">
<polygon fill="#ffffff" stroke="#000000" points="313,-50.366 313,-91.366 417,-91.366 417,-50.366 313,-50.366"/>
<text text-anchor="start" x="321" y="-79.366" font-family="Helvetica,sans-Serif" font-size="10.00" fill="#000000">amr_wind::Factory&lt;</text>
<text text-anchor="start" x="321" y="-68.366" font-family="Helvetica,sans-Serif" font-size="10.00" fill="#000000"> RefinementCriteria,</text>
<text text-anchor="middle" x="365" y="-57.366" font-family="Helvetica,sans-Serif" font-size="10.00" fill="#000000"> CFDSim &amp;&gt;</text>
</a>
</g>
</g>
<!-- Node0&#45;&gt;Node34 -->
<g id="edge34" class="edge">
<title>Node0&#45;&gt;Node34</title>
<path fill="none" stroke="#ffa500" stroke-dasharray="5,2" d="M53.8769,-378.3672C59.437,-310.4643 78.2455,-127.8365 122,-89.866 149.5255,-65.9792 250.023,-65.6351 312.8323,-67.9664"/>
<polygon fill="#ffa500" stroke="#ffa500" points="50.3673,-378.3519 53.0694,-388.5963 57.3456,-378.9028 50.3673,-378.3519"/>
<text text-anchor="start" x="146" y="-103.866" font-family="Helvetica,sans-Serif" font-size="10.00" fill="#000000"> &lt; RefinementCriteria,</text>
<text text-anchor="middle" x="194.5" y="-92.866" font-family="Helvetica,sans-Serif" font-size="10.00" fill="#000000"> CFDSim &amp;&gt;</text>
</g>
<!-- Node36 -->
<g id="node37" class="node">
<title>Node36</title>
<g id="a_node37"><a xlink:href="structamr__wind_1_1_factory.html" target="_top" xlink:title="amr_wind::Factory\&lt;\l TKESource, const CFDSim &amp;\&gt;">
<polygon fill="#ffffff" stroke="#000000" points="286.5,-.866 286.5,-30.866 443.5,-30.866 443.5,-.866 286.5,-.866"/>
<text text-anchor="start" x="294.5" y="-18.866" font-family="Helvetica,sans-Serif" font-size="10.00" fill="#000000">amr_wind::Factory&lt;</text>
<text text-anchor="middle" x="365" y="-7.866" font-family="Helvetica,sans-Serif" font-size="10.00" fill="#000000"> TKESource, const CFDSim &amp;&gt;</text>
</a>
</g>
</g>
<!-- Node0&#45;&gt;Node36 -->
<g id="edge36" class="edge">
<title>Node0&#45;&gt;Node36</title>
<path fill="none" stroke="#ffa500" stroke-dasharray="5,2" d="M53.1163,-378.0623C56.9353,-302.893 72.1359,-86.5253 122,-40.866 165.4768,-1.0553 233.3806,2.8938 286.3675,-1.812"/>
<polygon fill="#ffa500" stroke="#ffa500" points="49.5998,-378.3235 52.615,-388.4802 56.5917,-378.66 49.5998,-378.3235"/>
<text text-anchor="start" x="148" y="-54.866" font-family="Helvetica,sans-Serif" font-size="10.00" fill="#000000"> &lt; TKESource, const</text>
<text text-anchor="middle" x="194.5" y="-43.866" font-family="Helvetica,sans-Serif" font-size="10.00" fill="#000000"> CFDSim &amp;&gt;</text>
</g>
<!-- Node2 -->
<g id="node3" class="node">
<title>Node2</title>
<g id="a_node3"><a xlink:href="classamr__wind_1_1pde_1_1_p_d_e_base.html" target="_top" xlink:title="Abstract interface defining a PDE and its solution process withn AMR&#45;WindThe exact behavior is implem...">
<polygon fill="#ffffff" stroke="#000000" points="500,-788.366 500,-807.366 630,-807.366 630,-788.366 500,-788.366"/>
<text text-anchor="middle" x="565" y="-795.366" font-family="Helvetica,sans-Serif" font-size="10.00" fill="#000000">amr_wind::pde::PDEBase</text>
</a>
</g>
</g>
<!-- Node1&#45;&gt;Node2 -->
<g id="edge2" class="edge">
<title>Node1&#45;&gt;Node2</title>
<path fill="none" stroke="#191970" d="M435.15,-797.866C456.167,-797.866 479.1205,-797.866 499.8044,-797.866"/>
<polygon fill="#191970" stroke="#191970" points="435.0066,-794.3661 425.0066,-797.866 435.0066,-801.3661 435.0066,-794.3661"/>
</g>
<!-- Node4 -->
<g id="node5" class="node">
<title>Node4</title>
<g id="a_node5"><a xlink:href="classamr__wind_1_1pde_1_1_temperature_source.html" target="_top" xlink:title="Representation of a temperature source termAll temperature source terms must inherit from this class...">
<polygon fill="#ffffff" stroke="#000000" points="494.5,-722.866 494.5,-752.866 635.5,-752.866 635.5,-722.866 494.5,-722.866"/>
<text text-anchor="start" x="502.5" y="-740.866" font-family="Helvetica,sans-Serif" font-size="10.00" fill="#000000">amr_wind::pde::Temperature</text>
<text text-anchor="middle" x="565" y="-729.866" font-family="Helvetica,sans-Serif" font-size="10.00" fill="#000000">Source</text>
</a>
</g>
</g>
<!-- Node3&#45;&gt;Node4 -->
<g id="edge4" class="edge">
<title>Node3&#45;&gt;Node4</title>
<path fill="none" stroke="#191970" d="M429.3966,-737.866C450.1026,-737.866 473.1509,-737.866 494.2852,-737.866"/>
<polygon fill="#191970" stroke="#191970" points="429.1229,-734.3661 419.1229,-737.866 429.1228,-741.3661 429.1229,-734.3661"/>
</g>
<!-- Node6 -->
<g id="node7" class="node">
<title>Node6</title>
<g id="a_node7"><a xlink:href="classamr__wind_1_1_derived_qty.html" target="_top" xlink:title="amr_wind::DerivedQty">
<polygon fill="#ffffff" stroke="#000000" points="508,-668.366 508,-687.366 622,-687.366 622,-668.366 508,-668.366"/>
<text text-anchor="middle" x="565" y="-675.366" font-family="Helvetica,sans-Serif" font-size="10.00" fill="#000000">amr_wind::DerivedQty</text>
</a>
</g>
</g>
<!-- Node5&#45;&gt;Node6 -->
<g id="edge6" class="edge">
<title>Node5&#45;&gt;Node6</title>
<path fill="none" stroke="#191970" d="M453.3896,-677.866C471.8877,-677.866 490.9231,-677.866 507.9175,-677.866"/>
<polygon fill="#191970" stroke="#191970" points="453.1845,-674.3661 443.1845,-677.866 453.1845,-681.3661 453.1845,-674.3661"/>
</g>
<!-- Node8 -->
<g id="node9" class="node">
<title>Node8</title>
<g id="a_node9"><a xlink:href="classamr__wind_1_1pde_1_1_momentum_source.html" target="_top" xlink:title="Representation of a momentum source termAll momentum source terms must inherit from this class...">
<polygon fill="#ffffff" stroke="#000000" points="482,-608.366 482,-627.366 648,-627.366 648,-608.366 482,-608.366"/>
<text text-anchor="middle" x="565" y="-615.366" font-family="Helvetica,sans-Serif" font-size="10.00" fill="#000000">amr_wind::pde::MomentumSource</text>
</a>
</g>
</g>
<!-- Node7&#45;&gt;Node8 -->
<g id="edge8" class="edge">
<title>Node7&#45;&gt;Node8</title>
<path fill="none" stroke="#191970" d="M439.9792,-617.866C453.6708,-617.866 468.0311,-617.866 481.941,-617.866"/>
<polygon fill="#191970" stroke="#191970" points="439.6581,-614.3661 429.6581,-617.866 439.658,-621.3661 439.6581,-614.3661"/>
</g>
<!-- Node10 -->
<g id="node11" class="node">
<title>Node10</title>
<g id="a_node11"><a xlink:href="classamr__wind_1_1pde_1_1_source_term.html" target="_top" xlink:title="Abstract representation of a source term. ">
<polygon fill="#ffffff" stroke="#000000" points="495,-553.366 495,-572.366 635,-572.366 635,-553.366 495,-553.366"/>
<text text-anchor="middle" x="565" y="-560.366" font-family="Helvetica,sans-Serif" font-size="10.00" fill="#000000">amr_wind::pde::SourceTerm</text>
</a>
</g>
</g>
<!-- Node9&#45;&gt;Node10 -->
<g id="edge10" class="edge">
<title>Node9&#45;&gt;Node10</title>
<path fill="none" stroke="#191970" d="M455.2712,-562.866C468.5265,-562.866 482.0119,-562.866 494.7841,-562.866"/>
<polygon fill="#191970" stroke="#191970" points="455.1953,-559.3661 445.1953,-562.866 455.1952,-566.3661 455.1953,-559.3661"/>
</g>
<!-- Node12 -->
<g id="node13" class="node">
<title>Node12</title>
<g id="a_node13"><a xlink:href="classamr__wind_1_1_post_process_base.html" target="_top" xlink:title="Abstract representation of a post&#45;processing utilityProvides an interface for a runtime&#45;selectable po...">
<polygon fill="#ffffff" stroke="#000000" points="493.5,-498.366 493.5,-517.366 636.5,-517.366 636.5,-498.366 493.5,-498.366"/>
<text text-anchor="middle" x="565" y="-505.366" font-family="Helvetica,sans-Serif" font-size="10.00" fill="#000000">amr_wind::PostProcessBase</text>
</a>
</g>
</g>
<!-- Node11&#45;&gt;Node12 -->
<g id="edge12" class="edge">
<title>Node11&#45;&gt;Node12</title>
<path fill="none" stroke="#191970" d="M446.6676,-507.866C462.084,-507.866 478.1022,-507.866 493.1883,-507.866"/>
<polygon fill="#191970" stroke="#191970" points="446.6397,-504.3661 436.6397,-507.866 446.6396,-511.3661 446.6397,-504.3661"/>
</g>
<!-- Node14 -->
<g id="node15" class="node">
<title>Node14</title>
<g id="a_node15"><a xlink:href="classamr__wind_1_1pde_1_1_s_d_r_source.html" target="_top" xlink:title="Base class for SDR source terms. ">
<polygon fill="#ffffff" stroke="#000000" points="495.5,-443.366 495.5,-462.366 634.5,-462.366 634.5,-443.366 495.5,-443.366"/>
<text text-anchor="middle" x="565" y="-450.366" font-family="Helvetica,sans-Serif" font-size="10.00" fill="#000000">amr_wind::pde::SDRSource</text>
</a>
</g>
</g>
<!-- Node13&#45;&gt;Node14 -->
<g id="edge14" class="edge">
<title>Node13&#45;&gt;Node14</title>
<path fill="none" stroke="#191970" d="M454.9248,-452.866C468.4859,-452.866 482.2966,-452.866 495.3458,-452.866"/>
<polygon fill="#191970" stroke="#191970" points="454.62,-449.3661 444.62,-452.866 454.6199,-456.3661 454.62,-449.3661"/>
</g>
<!-- Node16 -->
<g id="node17" class="node">
<title>Node16</title>
<g id="a_node17"><a xlink:href="classamr__wind_1_1turbulence_1_1_turbulence_model.html" target="_top" xlink:title="Abstract representation of a turbulence modelThis class is an abstract representation of a turbulence...">
<polygon fill="#ffffff" stroke="#000000" points="510,-388.866 510,-418.866 620,-418.866 620,-388.866 510,-388.866"/>
<text text-anchor="start" x="518" y="-406.866" font-family="Helvetica,sans-Serif" font-size="10.00" fill="#000000">amr_wind::turbulence</text>
<text text-anchor="middle" x="565" y="-395.866" font-family="Helvetica,sans-Serif" font-size="10.00" fill="#000000">::TurbulenceModel</text>
</a>
</g>
</g>
<!-- Node15&#45;&gt;Node16 -->
<g id="edge16" class="edge">
<title>Node15&#45;&gt;Node16</title>
<path fill="none" stroke="#191970" d="M452.1774,-403.866C471.7112,-403.866 491.9087,-403.866 509.7218,-403.866"/>
<polygon fill="#191970" stroke="#191970" points="452.0392,-400.3661 442.0391,-403.866 452.0391,-407.3661 452.0392,-400.3661"/>
</g>
<!-- Node17 -->
<g id="node18" class="node">
<title>Node17</title>
<g id="a_node18"><a xlink:href="classamr__wind_1_1turbulence_1_1_turb_model.html" target="_top" xlink:title="Turbulence model with a specific transport modelThis templated class allows turbulence model to be sp...">
<polygon fill="#ffffff" stroke="#000000" points="685,-388.866 685,-418.866 813,-418.866 813,-388.866 685,-388.866"/>
<text text-anchor="start" x="693" y="-406.866" font-family="Helvetica,sans-Serif" font-size="10.00" fill="#000000">amr_wind::turbulence</text>
<text text-anchor="middle" x="749" y="-395.866" font-family="Helvetica,sans-Serif" font-size="10.00" fill="#000000">::TurbModel&lt; Transport &gt;</text>
</a>
</g>
</g>
<!-- Node16&#45;&gt;Node17 -->
<g id="edge17" class="edge">
<title>Node16&#45;&gt;Node17</title>
<path fill="none" stroke="#191970" d="M630.419,-403.866C648.0829,-403.866 667.177,-403.866 684.7749,-403.866"/>
<polygon fill="#191970" stroke="#191970" points="630.2061,-400.3661 620.2061,-403.866 630.206,-407.3661 630.2061,-400.3661"/>
</g>
<!-- Node18 -->
<g id="node19" class="node">
<title>Node18</title>
<g id="a_node19"><a xlink:href="classamr__wind_1_1turbulence_1_1_laminar.html" target="_top" xlink:title="Laminar modelImplementation of laminar flow model. ">
<polygon fill="#ffffff" stroke="#000000" points="867,-413.866 867,-443.866 983,-443.866 983,-413.866 867,-413.866"/>
<text text-anchor="start" x="875" y="-431.866" font-family="Helvetica,sans-Serif" font-size="10.00" fill="#000000">amr_wind::turbulence</text>
<text text-anchor="middle" x="925" y="-420.866" font-family="Helvetica,sans-Serif" font-size="10.00" fill="#000000">::Laminar&lt; Transport &gt;</text>
</a>
</g>
</g>
<!-- Node17&#45;&gt;Node18 -->
<g id="edge18" class="edge">
<title>Node17&#45;&gt;Node18</title>
<path fill="none" stroke="#191970" d="M823.0595,-414.3858C837.6864,-416.4635 852.8406,-418.6161 866.8499,-420.606"/>
<polygon fill="#191970" stroke="#191970" points="823.4308,-410.9035 813.0379,-412.9623 822.4463,-417.8339 823.4308,-410.9035"/>
</g>
<!-- Node19 -->
<g id="node20" class="node">
<title>Node19</title>
<g id="a_node20"><a xlink:href="classamr__wind_1_1turbulence_1_1_turb_model_base.html" target="_top" xlink:title="Turbulence model aspects common to both LES and RANS modelsThis class implements more of the common m...">
<polygon fill="#ffffff" stroke="#000000" points="850,-364.866 850,-394.866 1000,-394.866 1000,-364.866 850,-364.866"/>
<text text-anchor="start" x="858" y="-382.866" font-family="Helvetica,sans-Serif" font-size="10.00" fill="#000000">amr_wind::turbulence</text>
<text text-anchor="middle" x="925" y="-371.866" font-family="Helvetica,sans-Serif" font-size="10.00" fill="#000000">::TurbModelBase&lt; Transport &gt;</text>
</a>
</g>
</g>
<!-- Node17&#45;&gt;Node19 -->
<g id="edge19" class="edge">
<title>Node17&#45;&gt;Node19</title>
<path fill="none" stroke="#191970" d="M822.9982,-393.7753C831.9121,-392.5598 841.0227,-391.3174 849.9514,-390.0999"/>
<polygon fill="#191970" stroke="#191970" points="822.4733,-390.3144 813.0379,-395.1335 823.4191,-397.2502 822.4733,-390.3144"/>
</g>
<!-- Node20 -->
<g id="node21" class="node">
<title>Node20</title>
<g id="a_node21"><a xlink:href="classamr__wind_1_1turbulence_1_1_one_eq_ksgs.html" target="_top" xlink:title="Base class for 1&#45;Equation subgrid scale TKE turbulence model. ">
<polygon fill="#ffffff" stroke="#000000" points="1039.5,-401.866 1039.5,-431.866 1173.5,-431.866 1173.5,-401.866 1039.5,-401.866"/>
<text text-anchor="start" x="1047.5" y="-419.866" font-family="Helvetica,sans-Serif" font-size="10.00" fill="#000000">amr_wind::turbulence</text>
<text text-anchor="middle" x="1106.5" y="-408.866" font-family="Helvetica,sans-Serif" font-size="10.00" fill="#000000">::OneEqKsgs&lt; Transport &gt;</text>
</a>
</g>
</g>
<!-- Node19&#45;&gt;Node20 -->
<g id="edge20" class="edge">
<title>Node19&#45;&gt;Node20</title>
<path fill="none" stroke="#191970" d="M1008.6649,-396.9216C1018.9878,-399.026 1029.4337,-401.1555 1039.464,-403.2002"/>
<polygon fill="#191970" stroke="#191970" points="1009.3206,-393.4834 998.823,-394.9153 1007.9223,-400.3423 1009.3206,-393.4834"/>
</g>
<!-- Node23 -->
<g id="node24" class="node">
<title>Node23</title>
<g id="a_node24"><a xlink:href="classamr__wind_1_1turbulence_1_1_smagorinsky.html" target="_top" xlink:title="Smagorinsky LES Model. ">
<polygon fill="#ffffff" stroke="#000000" points="1037,-352.866 1037,-382.866 1176,-382.866 1176,-352.866 1037,-352.866"/>
<text text-anchor="start" x="1045" y="-370.866" font-family="Helvetica,sans-Serif" font-size="10.00" fill="#000000">amr_wind::turbulence</text>
<text text-anchor="middle" x="1106.5" y="-359.866" font-family="Helvetica,sans-Serif" font-size="10.00" fill="#000000">::Smagorinsky&lt; Transport &gt;</text>
</a>
</g>
</g>
<!-- Node19&#45;&gt;Node23 -->
<g id="edge23" class="edge">
<title>Node19&#45;&gt;Node23</title>
<path fill="none" stroke="#191970" d="M1010.2013,-374.2328C1019.1626,-373.6403 1028.1964,-373.0431 1036.9513,-372.4642"/>
<polygon fill="#191970" stroke="#191970" points="1009.8804,-370.7463 1000.1332,-374.8985 1010.3423,-377.7311 1009.8804,-370.7463"/>
</g>
<!-- Node21 -->
<g id="node22" class="node">
<title>Node21</title>
<g id="a_node22"><a xlink:href="classamr__wind_1_1turbulence_1_1_one_eq_ksgs_m84.html" target="_top" xlink:title="1&#45;equation subgrid scale TKE turbulence modelImplements the model described in Moeng 1984 paper ...">
<polygon fill="#ffffff" stroke="#000000" points="1213,-425.866 1213,-455.866 1366,-455.866 1366,-425.866 1213,-425.866"/>
<text text-anchor="start" x="1221" y="-443.866" font-family="Helvetica,sans-Serif" font-size="10.00" fill="#000000">amr_wind::turbulence</text>
<text text-anchor="middle" x="1289.5" y="-432.866" font-family="Helvetica,sans-Serif" font-size="10.00" fill="#000000">::OneEqKsgsM84&lt; Transport &gt;</text>
</a>
</g>
</g>
<!-- Node20&#45;&gt;Node21 -->
<g id="edge21" class="edge">
<title>Node20&#45;&gt;Node21</title>
<path fill="none" stroke="#191970" d="M1183.5827,-426.9752C1193.2533,-428.2435 1203.1444,-429.5407 1212.8091,-430.8081"/>
<polygon fill="#191970" stroke="#191970" points="1183.9736,-423.4966 1173.6033,-425.6664 1183.0633,-430.4371 1183.9736,-423.4966"/>
</g>
<!-- Node22 -->
<g id="node23" class="node">
<title>Node22</title>
<g id="a_node23"><a xlink:href="classamr__wind_1_1turbulence_1_1_one_eq_ksgs_s94.html" target="_top" xlink:title="1&#45;equation subgrid scale TKE turbulence modelImplements the model described in Sullivan 1994 paper ...">
<polygon fill="#ffffff" stroke="#000000" points="1213.5,-376.866 1213.5,-406.866 1365.5,-406.866 1365.5,-376.866 1213.5,-376.866"/>
<text text-anchor="start" x="1221.5" y="-394.866" font-family="Helvetica,sans-Serif" font-size="10.00" fill="#000000">amr_wind::turbulence</text>
<text text-anchor="middle" x="1289.5" y="-383.866" font-family="Helvetica,sans-Serif" font-size="10.00" fill="#000000">::OneEqKsgsS94&lt; Transport &gt;</text>
</a>
</g>
</g>
<!-- Node20&#45;&gt;Node22 -->
<g id="edge22" class="edge">
<title>Node20&#45;&gt;Node22</title>
<path fill="none" stroke="#191970" d="M1183.7439,-406.3135C1193.5718,-404.9709 1203.6246,-403.5976 1213.4338,-402.2575"/>
<polygon fill="#191970" stroke="#191970" points="1183.0375,-402.8774 1173.6033,-407.6989 1183.9851,-409.813 1183.0375,-402.8774"/>
</g>
<!-- Node25 -->
<g id="node26" class="node">
<title>Node25</title>
<g id="a_node26"><a xlink:href="classamr__wind_1_1_overset_manager.html" target="_top" xlink:title="Overset interface manager. ">
<polygon fill="#ffffff" stroke="#000000" points="496.5,-345.366 496.5,-364.366 633.5,-364.366 633.5,-345.366 496.5,-345.366"/>
<text text-anchor="middle" x="565" y="-352.366" font-family="Helvetica,sans-Serif" font-size="10.00" fill="#000000">amr_wind::OversetManager</text>
</a>
</g>
</g>
<!-- Node24&#45;&gt;Node25 -->
<g id="edge25" class="edge">
<title>Node24&#45;&gt;Node25</title>
<path fill="none" stroke="#191970" d="M451.4652,-354.866C466.4384,-354.866 481.824,-354.866 496.2457,-354.866"/>
<polygon fill="#191970" stroke="#191970" points="451.182,-351.3661 441.182,-354.866 451.1819,-358.3661 451.182,-351.3661"/>
</g>
<!-- Node27 -->
<g id="node28" class="node">
<title>Node27</title>
<g id="a_node28"><a xlink:href="classamr__wind_1_1_physics.html" target="_top" xlink:title="Abstract representation of different physicsThis class defines an abstract API that represents the no...">
<polygon fill="#ffffff" stroke="#000000" points="515,-296.366 515,-315.366 615,-315.366 615,-296.366 515,-296.366"/>
<text text-anchor="middle" x="565" y="-303.366" font-family="Helvetica,sans-Serif" font-size="10.00" fill="#000000">amr_wind::Physics</text>
</a>
</g>
</g>
<!-- Node26&#45;&gt;Node27 -->
<g id="edge27" class="edge">
<title>Node26&#45;&gt;Node27</title>
<path fill="none" stroke="#191970" d="M432.7111,-305.866C459.6415,-305.866 490.0717,-305.866 514.9514,-305.866"/>
<polygon fill="#191970" stroke="#191970" points="432.58,-302.3661 422.58,-305.866 432.5799,-309.3661 432.58,-302.3661"/>
</g>
<!-- Node29 -->
<g id="node30" class="node">
<title>Node29</title>
<g id="a_node30"><a xlink:href="classamr__wind_1_1sampling_1_1_sampler_base.html" target="_top" xlink:title="Abstract representation of data probes to sample flow dataThis class defines the interface by which t...">
<polygon fill="#ffffff" stroke="#000000" points="513,-241.866 513,-271.866 617,-271.866 617,-241.866 513,-241.866"/>
<text text-anchor="start" x="521" y="-259.866" font-family="Helvetica,sans-Serif" font-size="10.00" fill="#000000">amr_wind::sampling</text>
<text text-anchor="middle" x="565" y="-248.866" font-family="Helvetica,sans-Serif" font-size="10.00" fill="#000000">::SamplerBase</text>
</a>
</g>
</g>
<!-- Node28&#45;&gt;Node29 -->
<g id="edge29" class="edge">
<title>Node28&#45;&gt;Node29</title>
<path fill="none" stroke="#191970" d="M444.2431,-256.866C467.3379,-256.866 491.9777,-256.866 512.9373,-256.866"/>
<polygon fill="#191970" stroke="#191970" points="444.1087,-253.3661 434.1087,-256.866 444.1087,-260.3661 444.1087,-253.3661"/>
</g>
<!-- Node31 -->
<g id="node32" class="node">
<title>Node31</title>
<g id="a_node32"><a xlink:href="classamr__wind_1_1tagging_1_1_geometry_type.html" target="_top" xlink:title="Abstract definition of shapes for AMR. ">
<polygon fill="#ffffff" stroke="#000000" points="514,-181.866 514,-211.866 616,-211.866 616,-181.866 514,-181.866"/>
<text text-anchor="start" x="522" y="-199.866" font-family="Helvetica,sans-Serif" font-size="10.00" fill="#000000">amr_wind::tagging::</text>
<text text-anchor="middle" x="565" y="-188.866" font-family="Helvetica,sans-Serif" font-size="10.00" fill="#000000">GeometryType</text>
</a>
</g>
</g>
<!-- Node30&#45;&gt;Node31 -->
<g id="edge31" class="edge">
<title>Node30&#45;&gt;Node31</title>
<path fill="none" stroke="#191970" d="M432.0623,-196.866C458.6976,-196.866 488.8423,-196.866 513.6848,-196.866"/>
<polygon fill="#191970" stroke="#191970" points="432.0444,-193.3661 422.0443,-196.866 432.0443,-200.3661 432.0444,-193.3661"/>
</g>
<!-- Node33 -->
<g id="node34" class="node">
<title>Node33</title>
<g id="a_node34"><a xlink:href="classamr__wind_1_1pde_1_1_density_source.html" target="_top" xlink:title="amr_wind::pde::DensitySource">
<polygon fill="#ffffff" stroke="#000000" points="489.5,-121.366 489.5,-140.366 640.5,-140.366 640.5,-121.366 489.5,-121.366"/>
<text text-anchor="middle" x="565" y="-128.366" font-family="Helvetica,sans-Serif" font-size="10.00" fill="#000000">amr_wind::pde::DensitySource</text>
</a>
</g>
</g>
<!-- Node32&#45;&gt;Node33 -->
<g id="edge33" class="edge">
<title>Node32&#45;&gt;Node33</title>
<path fill="none" stroke="#191970" d="M432.0482,-130.866C450.3969,-130.866 470.4118,-130.866 489.212,-130.866"/>
<polygon fill="#191970" stroke="#191970" points="432.0444,-127.3661 422.0443,-130.866 432.0443,-134.3661 432.0444,-127.3661"/>
</g>
<!-- Node35 -->
<g id="node36" class="node">
<title>Node35</title>
<g id="a_node36"><a xlink:href="classamr__wind_1_1_refinement_criteria.html" target="_top" xlink:title="Abstract interface for tagging cells for refinementThis class provides an API that can be used by con...">
<polygon fill="#ffffff" stroke="#000000" points="492,-61.366 492,-80.366 638,-80.366 638,-61.366 492,-61.366"/>
<text text-anchor="middle" x="565" y="-68.366" font-family="Helvetica,sans-Serif" font-size="10.00" fill="#000000">amr_wind::RefinementCriteria</text>
</a>
</g>
</g>
<!-- Node34&#45;&gt;Node35 -->
<g id="edge35" class="edge">
<title>Node34&#45;&gt;Node35</title>
<path fill="none" stroke="#191970" d="M427.1648,-70.866C447.6283,-70.866 470.5712,-70.866 491.7793,-70.866"/>
<polygon fill="#191970" stroke="#191970" points="427.0256,-67.3661 417.0255,-70.866 427.0255,-74.3661 427.0256,-67.3661"/>
</g>
<!-- Node37 -->
<g id="node38" class="node">
<title>Node37</title>
<g id="a_node38"><a xlink:href="classamr__wind_1_1pde_1_1_t_k_e_source.html" target="_top" xlink:title="Base class for all TKE source terms. ">
<polygon fill="#ffffff" stroke="#000000" points="496.5,-6.366 496.5,-25.366 633.5,-25.366 633.5,-6.366 496.5,-6.366"/>
<text text-anchor="middle" x="565" y="-13.366" font-family="Helvetica,sans-Serif" font-size="10.00" fill="#000000">amr_wind::pde::TKESource</text>
</a>
</g>
</g>
<!-- Node36&#45;&gt;Node37 -->
<g id="edge37" class="edge">
<title>Node36&#45;&gt;Node37</title>
<path fill="none" stroke="#191970" d="M454.0282,-15.866C468.2277,-15.866 482.7258,-15.866 496.3588,-15.866"/>
<polygon fill="#191970" stroke="#191970" points="453.7582,-12.3661 443.7582,-15.866 453.7582,-19.3661 453.7582,-12.3661"/>
</g>
</g>
</svg>
