<?xml version="1.0" encoding="UTF-8" standalone="no"?>
<!DOCTYPE svg PUBLIC "-//W3C//DTD SVG 1.1//EN"
 "http://www.w3.org/Graphics/SVG/1.1/DTD/svg11.dtd">
<!-- Generated by graphviz version 2.40.1 (20161225.0304)
 -->
<!-- Title: amr_wind::Factory&lt; Base, Args &gt; Pages: 1 -->
<svg width="1374pt" height="706pt"
 viewBox="0.00 0.00 1374.00 705.50" xmlns="http://www.w3.org/2000/svg" xmlns:xlink="http://www.w3.org/1999/xlink">
<g id="graph0" class="graph" transform="scale(1 1) rotate(0) translate(4 701.5)">
<title>amr_wind::Factory&lt; Base, Args &gt;</title>
<polygon fill="#ffffff" stroke="transparent" points="-4,4 -4,-701.5 1370,-701.5 1370,4 -4,4"/>
<!-- Node0 -->
<g id="node1" class="node">
<title>Node0</title>
<polygon fill="#bfbfbf" stroke="#000000" points="0,-306.5 0,-336.5 104,-336.5 104,-306.5 0,-306.5"/>
<text text-anchor="start" x="8" y="-324.5" font-family="Helvetica,sans-Serif" font-size="10.00" fill="#000000">amr_wind::Factory&lt;</text>
<text text-anchor="middle" x="52" y="-313.5" font-family="Helvetica,sans-Serif" font-size="10.00" fill="#000000"> Base, Args &gt;</text>
</g>
<!-- Node1 -->
<g id="node2" class="node">
<title>Node1</title>
<g id="a_node2"><a xlink:href="structamr__wind_1_1_factory.html" target="_top" xlink:title="amr_wind::Factory\&lt;\l PDEBase, CFDSim &amp;,\l const int \&gt;">
<polygon fill="#ffffff" stroke="#000000" points="305,-646 305,-687 425,-687 425,-646 305,-646"/>
<text text-anchor="start" x="313" y="-675" font-family="Helvetica,sans-Serif" font-size="10.00" fill="#000000">amr_wind::Factory&lt;</text>
<text text-anchor="start" x="313" y="-664" font-family="Helvetica,sans-Serif" font-size="10.00" fill="#000000"> PDEBase, CFDSim &amp;,</text>
<text text-anchor="middle" x="365" y="-653" font-family="Helvetica,sans-Serif" font-size="10.00" fill="#000000"> const int &gt;</text>
</a>
</g>
</g>
<!-- Node0&#45;&gt;Node1 -->
<g id="edge1" class="edge">
<title>Node0&#45;&gt;Node1</title>
<path fill="none" stroke="#ffa500" stroke-dasharray="5,2" d="M54.1252,-346.8961C60.2541,-413.6908 80.2543,-591.8005 122,-630.5 170.7127,-675.658 250.098,-679.1933 304.8027,-675.037"/>
<polygon fill="#ffa500" stroke="#ffa500" points="57.6011,-346.4696 53.2292,-336.8189 50.6286,-347.0896 57.6011,-346.4696"/>
<text text-anchor="start" x="138" y="-689.5" font-family="Helvetica,sans-Serif" font-size="10.00" fill="#000000"> &lt; PDEBase, CFDSim &amp;,</text>
<text text-anchor="middle" x="194.5" y="-678.5" font-family="Helvetica,sans-Serif" font-size="10.00" fill="#000000"> const int &gt;</text>
</g>
<!-- Node3 -->
<g id="node4" class="node">
<title>Node3</title>
<g id="a_node4"><a xlink:href="structamr__wind_1_1_factory.html" target="_top" xlink:title="amr_wind::Factory\&lt;\l TemperatureSource,\l const CFDSim &amp;\&gt;">
<polygon fill="#ffffff" stroke="#000000" points="311,-586 311,-627 419,-627 419,-586 311,-586"/>
<text text-anchor="start" x="319" y="-615" font-family="Helvetica,sans-Serif" font-size="10.00" fill="#000000">amr_wind::Factory&lt;</text>
<text text-anchor="start" x="319" y="-604" font-family="Helvetica,sans-Serif" font-size="10.00" fill="#000000"> TemperatureSource,</text>
<text text-anchor="middle" x="365" y="-593" font-family="Helvetica,sans-Serif" font-size="10.00" fill="#000000"> const CFDSim &amp;&gt;</text>
</a>
</g>
</g>
<!-- Node0&#45;&gt;Node3 -->
<g id="edge3" class="edge">
<title>Node0&#45;&gt;Node3</title>
<path fill="none" stroke="#ffa500" stroke-dasharray="5,2" d="M55.3499,-346.7191C63.6226,-404.9634 86.9262,-546.1782 122,-576.5 149.4138,-600.1996 248.1007,-605.6379 310.9626,-606.6269"/>
<polygon fill="#ffa500" stroke="#ffa500" points="58.7792,-345.9678 53.9385,-336.5435 51.8456,-346.9296 58.7792,-345.9678"/>
<text text-anchor="start" x="144" y="-618.5" font-family="Helvetica,sans-Serif" font-size="10.00" fill="#000000"> &lt; TemperatureSource,</text>
<text text-anchor="middle" x="194.5" y="-607.5" font-family="Helvetica,sans-Serif" font-size="10.00" fill="#000000"> const CFDSim &amp;&gt;</text>
</g>
<!-- Node5 -->
<g id="node6" class="node">
<title>Node5</title>
<g id="a_node6"><a xlink:href="structamr__wind_1_1_factory.html" target="_top" xlink:title="amr_wind::Factory\&lt;\l DerivedQty, const FieldRepo\l &amp;, std::vector\&lt; std::string \&gt; &amp;\&gt;">
<polygon fill="#ffffff" stroke="#000000" points="287,-526 287,-567 443,-567 443,-526 287,-526"/>
<text text-anchor="start" x="295" y="-555" font-family="Helvetica,sans-Serif" font-size="10.00" fill="#000000">amr_wind::Factory&lt;</text>
<text text-anchor="start" x="295" y="-544" font-family="Helvetica,sans-Serif" font-size="10.00" fill="#000000"> DerivedQty, const FieldRepo</text>
<text text-anchor="middle" x="365" y="-533" font-family="Helvetica,sans-Serif" font-size="10.00" fill="#000000"> &amp;, std::vector&lt; std::string &gt; &amp;&gt;</text>
</a>
</g>
</g>
<!-- Node0&#45;&gt;Node5 -->
<g id="edge5" class="edge">
<title>Node0&#45;&gt;Node5</title>
<path fill="none" stroke="#ffa500" stroke-dasharray="5,2" d="M53.6318,-346.6935C57.7229,-387.5483 72.0343,-467.7741 122,-508.5 146.7825,-528.6996 225.7209,-538.2701 286.9771,-542.7348"/>
<polygon fill="#ffa500" stroke="#ffa500" points="57.0995,-346.1684 52.7447,-336.5099 50.1259,-346.7759 57.0995,-346.1684"/>
<text text-anchor="start" x="139.5" y="-565.5" font-family="Helvetica,sans-Serif" font-size="10.00" fill="#000000"> &lt; DerivedQty, const</text>
<text text-anchor="start" x="139.5" y="-554.5" font-family="Helvetica,sans-Serif" font-size="10.00" fill="#000000"> FieldRepo &amp;, std::vector</text>
<text text-anchor="middle" x="194.5" y="-543.5" font-family="Helvetica,sans-Serif" font-size="10.00" fill="#000000">&lt; std::string &gt; &amp;&gt;</text>
</g>
<!-- Node7 -->
<g id="node8" class="node">
<title>Node7</title>
<g id="a_node8"><a xlink:href="structamr__wind_1_1_factory.html" target="_top" xlink:title="amr_wind::Factory\&lt;\l MomentumSource, const\l CFDSim &amp;\&gt;">
<polygon fill="#ffffff" stroke="#000000" points="300.5,-466 300.5,-507 429.5,-507 429.5,-466 300.5,-466"/>
<text text-anchor="start" x="308.5" y="-495" font-family="Helvetica,sans-Serif" font-size="10.00" fill="#000000">amr_wind::Factory&lt;</text>
<text text-anchor="start" x="308.5" y="-484" font-family="Helvetica,sans-Serif" font-size="10.00" fill="#000000"> MomentumSource, const</text>
<text text-anchor="middle" x="365" y="-473" font-family="Helvetica,sans-Serif" font-size="10.00" fill="#000000"> CFDSim &amp;&gt;</text>
</a>
</g>
</g>
<!-- Node0&#45;&gt;Node7 -->
<g id="edge7" class="edge">
<title>Node0&#45;&gt;Node7</title>
<path fill="none" stroke="#ffa500" stroke-dasharray="5,2" d="M57.8078,-346.9081C66.292,-377.7712 85.2323,-428.8775 122,-454.5 150.016,-474.0237 238.4186,-481.6447 300.4765,-484.6138"/>
<polygon fill="#ffa500" stroke="#ffa500" points="61.1161,-345.7204 55.2307,-336.9106 54.3377,-347.4677 61.1161,-345.7204"/>
<text text-anchor="start" x="133.5" y="-496.5" font-family="Helvetica,sans-Serif" font-size="10.00" fill="#000000"> &lt; MomentumSource, const</text>
<text text-anchor="middle" x="194.5" y="-485.5" font-family="Helvetica,sans-Serif" font-size="10.00" fill="#000000"> CFDSim &amp;&gt;</text>
</g>
<!-- Node9 -->
<g id="node10" class="node">
<title>Node9</title>
<g id="a_node10"><a xlink:href="structamr__wind_1_1_factory.html" target="_top" xlink:title="amr_wind::Factory\&lt;\l SourceTerm, const CFDSim &amp;\&gt;">
<polygon fill="#ffffff" stroke="#000000" points="285,-416.5 285,-446.5 445,-446.5 445,-416.5 285,-416.5"/>
<text text-anchor="start" x="293" y="-434.5" font-family="Helvetica,sans-Serif" font-size="10.00" fill="#000000">amr_wind::Factory&lt;</text>
<text text-anchor="middle" x="365" y="-423.5" font-family="Helvetica,sans-Serif" font-size="10.00" fill="#000000"> SourceTerm, const CFDSim &amp;&gt;</text>
</a>
</g>
</g>
<!-- Node0&#45;&gt;Node9 -->
<g id="edge9" class="edge">
<title>Node0&#45;&gt;Node9</title>
<path fill="none" stroke="#ffa500" stroke-dasharray="5,2" d="M64.6071,-345.4129C76.5317,-365.3998 96.402,-392.774 122,-406.5 149.4246,-421.2054 225.2587,-427.2665 284.9897,-429.7615"/>
<polygon fill="#ffa500" stroke="#ffa500" points="67.5473,-343.5036 59.5483,-336.5562 61.469,-346.9755 67.5473,-343.5036"/>
<text text-anchor="start" x="146.5" y="-442.5" font-family="Helvetica,sans-Serif" font-size="10.00" fill="#000000"> &lt; SourceTerm, const</text>
<text text-anchor="middle" x="194.5" y="-431.5" font-family="Helvetica,sans-Serif" font-size="10.00" fill="#000000"> CFDSim &amp;&gt;</text>
</g>
<!-- Node11 -->
<g id="node12" class="node">
<title>Node11</title>
<g id="a_node12"><a xlink:href="structamr__wind_1_1_factory.html" target="_top" xlink:title="amr_wind::Factory\&lt;\l PostProcessBase, CFDSim\l &amp;, const std::string &amp;\&gt;">
<polygon fill="#ffffff" stroke="#000000" points="293.5,-356 293.5,-397 436.5,-397 436.5,-356 293.5,-356"/>
<text text-anchor="start" x="301.5" y="-385" font-family="Helvetica,sans-Serif" font-size="10.00" fill="#000000">amr_wind::Factory&lt;</text>
<text text-anchor="start" x="301.5" y="-374" font-family="Helvetica,sans-Serif" font-size="10.00" fill="#000000"> PostProcessBase, CFDSim</text>
<text text-anchor="middle" x="365" y="-363" font-family="Helvetica,sans-Serif" font-size="10.00" fill="#000000"> &amp;, const std::string &amp;&gt;</text>
</a>
</g>
</g>
<!-- Node0&#45;&gt;Node11 -->
<g id="edge11" class="edge">
<title>Node0&#45;&gt;Node11</title>
<path fill="none" stroke="#ffa500" stroke-dasharray="5,2" d="M96.9217,-339.9623C105.1584,-342.8359 113.7582,-345.5075 122,-347.5 178.6803,-361.203 244.4318,-368.5485 293.2357,-372.4146"/>
<polygon fill="#ffa500" stroke="#ffa500" points="98.0564,-336.6508 87.4624,-336.5248 95.6656,-343.2299 98.0564,-336.6508"/>
<text text-anchor="start" x="145.5" y="-394.5" font-family="Helvetica,sans-Serif" font-size="10.00" fill="#000000"> &lt; PostProcessBase,</text>
<text text-anchor="start" x="145.5" y="-383.5" font-family="Helvetica,sans-Serif" font-size="10.00" fill="#000000"> CFDSim &amp;, const std</text>
<text text-anchor="middle" x="194.5" y="-372.5" font-family="Helvetica,sans-Serif" font-size="10.00" fill="#000000">::string &amp;&gt;</text>
</g>
<!-- Node13 -->
<g id="node14" class="node">
<title>Node13</title>
<g id="a_node14"><a xlink:href="structamr__wind_1_1_factory.html" target="_top" xlink:title="amr_wind::Factory\&lt;\l SDRSource, const CFDSim &amp;\&gt;">
<polygon fill="#ffffff" stroke="#000000" points="285.5,-306.5 285.5,-336.5 444.5,-336.5 444.5,-306.5 285.5,-306.5"/>
<text text-anchor="start" x="293.5" y="-324.5" font-family="Helvetica,sans-Serif" font-size="10.00" fill="#000000">amr_wind::Factory&lt;</text>
<text text-anchor="middle" x="365" y="-313.5" font-family="Helvetica,sans-Serif" font-size="10.00" fill="#000000"> SDRSource, const CFDSim &amp;&gt;</text>
</a>
</g>
</g>
<!-- Node0&#45;&gt;Node13 -->
<g id="edge13" class="edge">
<title>Node0&#45;&gt;Node13</title>
<path fill="none" stroke="#ffa500" stroke-dasharray="5,2" d="M114.1971,-321.5C163.2731,-321.5 232.0779,-321.5 285.2102,-321.5"/>
<polygon fill="#ffa500" stroke="#ffa500" points="114.037,-318.0001 104.0369,-321.5 114.0369,-325.0001 114.037,-318.0001"/>
<text text-anchor="start" x="147" y="-335.5" font-family="Helvetica,sans-Serif" font-size="10.00" fill="#000000"> &lt; SDRSource, const</text>
<text text-anchor="middle" x="194.5" y="-324.5" font-family="Helvetica,sans-Serif" font-size="10.00" fill="#000000"> CFDSim &amp;&gt;</text>
</g>
<!-- Node15 -->
<g id="node16" class="node">
<title>Node15</title>
<g id="a_node16"><a xlink:href="structamr__wind_1_1_factory.html" target="_top" xlink:title="amr_wind::Factory\&lt;\l TurbulenceModel, CFDSim &amp;\&gt;">
<polygon fill="#ffffff" stroke="#000000" points="288,-257.5 288,-287.5 442,-287.5 442,-257.5 288,-257.5"/>
<text text-anchor="start" x="296" y="-275.5" font-family="Helvetica,sans-Serif" font-size="10.00" fill="#000000">amr_wind::Factory&lt;</text>
<text text-anchor="middle" x="365" y="-264.5" font-family="Helvetica,sans-Serif" font-size="10.00" fill="#000000"> TurbulenceModel, CFDSim &amp;&gt;</text>
</a>
</g>
</g>
<!-- Node0&#45;&gt;Node15 -->
<g id="edge15" class="edge">
<title>Node0&#45;&gt;Node15</title>
<path fill="none" stroke="#ffa500" stroke-dasharray="5,2" d="M96.6107,-302.9644C104.9338,-300.0718 113.6436,-297.4126 122,-295.5 176.6297,-282.9965 239.667,-277.2734 287.8457,-274.6622"/>
<polygon fill="#ffa500" stroke="#ffa500" points="95.264,-299.7298 87.0621,-306.4364 97.6561,-306.3084 95.264,-299.7298"/>
<text text-anchor="start" x="149.5" y="-309.5" font-family="Helvetica,sans-Serif" font-size="10.00" fill="#000000"> &lt; TurbulenceModel,</text>
<text text-anchor="middle" x="194.5" y="-298.5" font-family="Helvetica,sans-Serif" font-size="10.00" fill="#000000"> CFDSim &amp;&gt;</text>
</g>
<!-- Node24 -->
<g id="node25" class="node">
<title>Node24</title>
<g id="a_node25"><a xlink:href="structamr__wind_1_1_factory.html" target="_top" xlink:title="amr_wind::Factory\&lt;\l OversetManager, CFDSim &amp;\&gt;">
<polygon fill="#ffffff" stroke="#000000" points="289,-208.5 289,-238.5 441,-238.5 441,-208.5 289,-208.5"/>
<text text-anchor="start" x="297" y="-226.5" font-family="Helvetica,sans-Serif" font-size="10.00" fill="#000000">amr_wind::Factory&lt;</text>
<text text-anchor="middle" x="365" y="-215.5" font-family="Helvetica,sans-Serif" font-size="10.00" fill="#000000"> OversetManager, CFDSim &amp;&gt;</text>
</a>
</g>
</g>
<!-- Node0&#45;&gt;Node24 -->
<g id="edge24" class="edge">
<title>Node0&#45;&gt;Node24</title>
<path fill="none" stroke="#ffa500" stroke-dasharray="5,2" d="M71.7485,-298.75C84.6654,-285.4039 102.6828,-269.4519 122,-260.5 174.3666,-236.2326 239.2272,-227.2796 288.7635,-224.2327"/>
<polygon fill="#ffa500" stroke="#ffa500" points="69.0271,-296.5361 64.7613,-306.2343 74.1439,-301.3131 69.0271,-296.5361"/>
<text text-anchor="middle" x="194.5" y="-263.5" font-family="Helvetica,sans-Serif" font-size="10.00" fill="#000000"> &lt; OversetManager, CFDSim &amp;&gt;</text>
</g>
<!-- Node26 -->
<g id="node27" class="node">
<title>Node26</title>
<g id="a_node27"><a xlink:href="structamr__wind_1_1_factory.html" target="_top" xlink:title="amr_wind::Factory\&lt;\l Physics, CFDSim &amp;\&gt;">
<polygon fill="#ffffff" stroke="#000000" points="307.5,-159.5 307.5,-189.5 422.5,-189.5 422.5,-159.5 307.5,-159.5"/>
<text text-anchor="start" x="315.5" y="-177.5" font-family="Helvetica,sans-Serif" font-size="10.00" fill="#000000">amr_wind::Factory&lt;</text>
<text text-anchor="middle" x="365" y="-166.5" font-family="Helvetica,sans-Serif" font-size="10.00" fill="#000000"> Physics, CFDSim &amp;&gt;</text>
</a>
</g>
</g>
<!-- Node0&#45;&gt;Node26 -->
<g id="edge26" class="edge">
<title>Node0&#45;&gt;Node26</title>
<path fill="none" stroke="#ffa500" stroke-dasharray="5,2" d="M60.4575,-296.7979C70.7243,-270.8169 90.6592,-230.927 122,-210.5 177.4692,-174.3468 255.0299,-168.8036 307.4873,-170.04"/>
<polygon fill="#ffa500" stroke="#ffa500" points="57.1166,-295.7389 56.876,-306.331 63.6694,-298.2007 57.1166,-295.7389"/>
<text text-anchor="middle" x="194.5" y="-213.5" font-family="Helvetica,sans-Serif" font-size="10.00" fill="#000000"> &lt; Physics, CFDSim &amp;&gt;</text>
</g>
<!-- Node28 -->
<g id="node29" class="node">
<title>Node28</title>
<g id="a_node29"><a xlink:href="structamr__wind_1_1_factory.html" target="_top" xlink:title="amr_wind::Factory\&lt;\l SamplerBase, CFDSim &amp;\&gt;">
<polygon fill="#ffffff" stroke="#000000" points="296,-110.5 296,-140.5 434,-140.5 434,-110.5 296,-110.5"/>
<text text-anchor="start" x="304" y="-128.5" font-family="Helvetica,sans-Serif" font-size="10.00" fill="#000000">amr_wind::Factory&lt;</text>
<text text-anchor="middle" x="365" y="-117.5" font-family="Helvetica,sans-Serif" font-size="10.00" fill="#000000"> SamplerBase, CFDSim &amp;&gt;</text>
</a>
</g>
</g>
<!-- Node0&#45;&gt;Node28 -->
<g id="edge28" class="edge">
<title>Node0&#45;&gt;Node28</title>
<path fill="none" stroke="#ffa500" stroke-dasharray="5,2" d="M54.8218,-296.2512C60.443,-258.9236 76.696,-189.7466 122,-155.5 171.3383,-118.2037 243.0897,-113.6119 295.8389,-116.5966"/>
<polygon fill="#ffa500" stroke="#ffa500" points="51.3335,-295.9289 53.4503,-306.3101 58.2693,-296.8746 51.3335,-295.9289"/>
<text text-anchor="middle" x="194.5" y="-158.5" font-family="Helvetica,sans-Serif" font-size="10.00" fill="#000000"> &lt; SamplerBase, CFDSim &amp;&gt;</text>
</g>
<!-- Node30 -->
<g id="node31" class="node">
<title>Node30</title>
<g id="a_node31"><a xlink:href="structamr__wind_1_1_factory.html" target="_top" xlink:title="amr_wind::Factory\&lt;\l DensitySource, const\l CFDSim &amp;\&gt;">
<polygon fill="#ffffff" stroke="#000000" points="308,-50 308,-91 422,-91 422,-50 308,-50"/>
<text text-anchor="start" x="316" y="-79" font-family="Helvetica,sans-Serif" font-size="10.00" fill="#000000">amr_wind::Factory&lt;</text>
<text text-anchor="start" x="316" y="-68" font-family="Helvetica,sans-Serif" font-size="10.00" fill="#000000"> DensitySource, const</text>
<text text-anchor="middle" x="365" y="-57" font-family="Helvetica,sans-Serif" font-size="10.00" fill="#000000"> CFDSim &amp;&gt;</text>
</a>
</g>
</g>
<!-- Node0&#45;&gt;Node30 -->
<g id="edge30" class="edge">
<title>Node0&#45;&gt;Node30</title>
<path fill="none" stroke="#ffa500" stroke-dasharray="5,2" d="M55.9788,-296.2449C65.116,-241.7229 89.3503,-115.7891 122,-89.5 149.6039,-67.2737 245.1149,-65.9986 307.8528,-67.7733"/>
<polygon fill="#ffa500" stroke="#ffa500" points="52.4713,-296.0062 54.3075,-306.4407 59.3791,-297.1386 52.4713,-296.0062"/>
<text text-anchor="start" x="141" y="-103.5" font-family="Helvetica,sans-Serif" font-size="10.00" fill="#000000"> &lt; DensitySource, const</text>
<text text-anchor="middle" x="194.5" y="-92.5" font-family="Helvetica,sans-Serif" font-size="10.00" fill="#000000"> CFDSim &amp;&gt;</text>
</g>
<!-- Node32 -->
<g id="node33" class="node">
<title>Node32</title>
<g id="a_node33"><a xlink:href="structamr__wind_1_1_factory.html" target="_top" xlink:title="amr_wind::Factory\&lt;\l TKESource, const CFDSim &amp;\&gt;">
<polygon fill="#ffffff" stroke="#000000" points="286.5,-.5 286.5,-30.5 443.5,-30.5 443.5,-.5 286.5,-.5"/>
<text text-anchor="start" x="294.5" y="-18.5" font-family="Helvetica,sans-Serif" font-size="10.00" fill="#000000">amr_wind::Factory&lt;</text>
<text text-anchor="middle" x="365" y="-7.5" font-family="Helvetica,sans-Serif" font-size="10.00" fill="#000000"> TKESource, const CFDSim &amp;&gt;</text>
</a>
</g>
</g>
<!-- Node0&#45;&gt;Node32 -->
<g id="edge32" class="edge">
<title>Node0&#45;&gt;Node32</title>
<path fill="none" stroke="#ffa500" stroke-dasharray="5,2" d="M54.6228,-296.241C61.664,-233.6928 83.1295,-74.2216 122,-40.5 166.3686,-2.0086 233.8546,2.1514 286.4576,-2.1388"/>
<polygon fill="#ffa500" stroke="#ffa500" points="51.1186,-296.0896 53.5099,-306.4111 58.0771,-296.8512 51.1186,-296.0896"/>
<text text-anchor="start" x="148" y="-54.5" font-family="Helvetica,sans-Serif" font-size="10.00" fill="#000000"> &lt; TKESource, const</text>
<text text-anchor="middle" x="194.5" y="-43.5" font-family="Helvetica,sans-Serif" font-size="10.00" fill="#000000"> CFDSim &amp;&gt;</text>
</g>
<!-- Node2 -->
<g id="node3" class="node">
<title>Node2</title>
<g id="a_node3"><a xlink:href="classamr__wind_1_1pde_1_1_p_d_e_base.html" target="_top" xlink:title="Abstract interface defining a PDE and its solution process withn AMR&#45;WindThe exact behavior is implem...">
<polygon fill="#ffffff" stroke="#000000" points="500,-657 500,-676 630,-676 630,-657 500,-657"/>
<text text-anchor="middle" x="565" y="-664" font-family="Helvetica,sans-Serif" font-size="10.00" fill="#000000">amr_wind::pde::PDEBase</text>
</a>
</g>
</g>
<!-- Node1&#45;&gt;Node2 -->
<g id="edge2" class="edge">
<title>Node1&#45;&gt;Node2</title>
<path fill="none" stroke="#191970" d="M435.15,-666.5C456.167,-666.5 479.1205,-666.5 499.8044,-666.5"/>
<polygon fill="#191970" stroke="#191970" points="435.0066,-663.0001 425.0066,-666.5 435.0066,-670.0001 435.0066,-663.0001"/>
</g>
<!-- Node4 -->
<g id="node5" class="node">
<title>Node4</title>
<g id="a_node5"><a xlink:href="classamr__wind_1_1pde_1_1_temperature_source.html" target="_top" xlink:title="Representation of a temperature source termAll temperature source terms must inherit from this class...">
<polygon fill="#ffffff" stroke="#000000" points="494.5,-591.5 494.5,-621.5 635.5,-621.5 635.5,-591.5 494.5,-591.5"/>
<text text-anchor="start" x="502.5" y="-609.5" font-family="Helvetica,sans-Serif" font-size="10.00" fill="#000000">amr_wind::pde::Temperature</text>
<text text-anchor="middle" x="565" y="-598.5" font-family="Helvetica,sans-Serif" font-size="10.00" fill="#000000">Source</text>
</a>
</g>
</g>
<!-- Node3&#45;&gt;Node4 -->
<g id="edge4" class="edge">
<title>Node3&#45;&gt;Node4</title>
<path fill="none" stroke="#191970" d="M429.3966,-606.5C450.1026,-606.5 473.1509,-606.5 494.2852,-606.5"/>
<polygon fill="#191970" stroke="#191970" points="429.1229,-603.0001 419.1229,-606.5 429.1228,-610.0001 429.1229,-603.0001"/>
</g>
<!-- Node6 -->
<g id="node7" class="node">
<title>Node6</title>
<g id="a_node7"><a xlink:href="classamr__wind_1_1_derived_qty.html" target="_top" xlink:title="amr_wind::DerivedQty">
<polygon fill="#ffffff" stroke="#000000" points="508,-537 508,-556 622,-556 622,-537 508,-537"/>
<text text-anchor="middle" x="565" y="-544" font-family="Helvetica,sans-Serif" font-size="10.00" fill="#000000">amr_wind::DerivedQty</text>
</a>
</g>
</g>
<!-- Node5&#45;&gt;Node6 -->
<g id="edge6" class="edge">
<title>Node5&#45;&gt;Node6</title>
<path fill="none" stroke="#191970" d="M453.3896,-546.5C471.8877,-546.5 490.9231,-546.5 507.9175,-546.5"/>
<polygon fill="#191970" stroke="#191970" points="453.1845,-543.0001 443.1845,-546.5 453.1845,-550.0001 453.1845,-543.0001"/>
</g>
<!-- Node8 -->
<g id="node9" class="node">
<title>Node8</title>
<g id="a_node9"><a xlink:href="classamr__wind_1_1pde_1_1_momentum_source.html" target="_top" xlink:title="Representation of a momentum source termAll momentum source terms must inherit from this class...">
<polygon fill="#ffffff" stroke="#000000" points="482,-477 482,-496 648,-496 648,-477 482,-477"/>
<text text-anchor="middle" x="565" y="-484" font-family="Helvetica,sans-Serif" font-size="10.00" fill="#000000">amr_wind::pde::MomentumSource</text>
</a>
</g>
</g>
<!-- Node7&#45;&gt;Node8 -->
<g id="edge8" class="edge">
<title>Node7&#45;&gt;Node8</title>
<path fill="none" stroke="#191970" d="M439.9792,-486.5C453.6708,-486.5 468.0311,-486.5 481.941,-486.5"/>
<polygon fill="#191970" stroke="#191970" points="439.6581,-483.0001 429.6581,-486.5 439.658,-490.0001 439.6581,-483.0001"/>
</g>
<!-- Node10 -->
<g id="node11" class="node">
<title>Node10</title>
<g id="a_node11"><a xlink:href="classamr__wind_1_1pde_1_1_source_term.html" target="_top" xlink:title="Abstract representation of a source term. ">
<polygon fill="#ffffff" stroke="#000000" points="495,-422 495,-441 635,-441 635,-422 495,-422"/>
<text text-anchor="middle" x="565" y="-429" font-family="Helvetica,sans-Serif" font-size="10.00" fill="#000000">amr_wind::pde::SourceTerm</text>
</a>
</g>
</g>
<!-- Node9&#45;&gt;Node10 -->
<g id="edge10" class="edge">
<title>Node9&#45;&gt;Node10</title>
<path fill="none" stroke="#191970" d="M455.2712,-431.5C468.5265,-431.5 482.0119,-431.5 494.7841,-431.5"/>
<polygon fill="#191970" stroke="#191970" points="455.1953,-428.0001 445.1953,-431.5 455.1952,-435.0001 455.1953,-428.0001"/>
</g>
<!-- Node12 -->
<g id="node13" class="node">
<title>Node12</title>
<g id="a_node13"><a xlink:href="classamr__wind_1_1_post_process_base.html" target="_top" xlink:title="Abstract representation of a post&#45;processing utilityProvides an interface for a runtime&#45;selectable po...">
<polygon fill="#ffffff" stroke="#000000" points="493.5,-367 493.5,-386 636.5,-386 636.5,-367 493.5,-367"/>
<text text-anchor="middle" x="565" y="-374" font-family="Helvetica,sans-Serif" font-size="10.00" fill="#000000">amr_wind::PostProcessBase</text>
</a>
</g>
</g>
<!-- Node11&#45;&gt;Node12 -->
<g id="edge12" class="edge">
<title>Node11&#45;&gt;Node12</title>
<path fill="none" stroke="#191970" d="M446.6676,-376.5C462.084,-376.5 478.1022,-376.5 493.1883,-376.5"/>
<polygon fill="#191970" stroke="#191970" points="446.6397,-373.0001 436.6397,-376.5 446.6396,-380.0001 446.6397,-373.0001"/>
</g>
<!-- Node14 -->
<g id="node15" class="node">
<title>Node14</title>
<g id="a_node15"><a xlink:href="classamr__wind_1_1pde_1_1_s_d_r_source.html" target="_top" xlink:title="Base class for SDR source terms. ">
<polygon fill="#ffffff" stroke="#000000" points="495.5,-312 495.5,-331 634.5,-331 634.5,-312 495.5,-312"/>
<text text-anchor="middle" x="565" y="-319" font-family="Helvetica,sans-Serif" font-size="10.00" fill="#000000">amr_wind::pde::SDRSource</text>
</a>
</g>
</g>
<!-- Node13&#45;&gt;Node14 -->
<g id="edge14" class="edge">
<title>Node13&#45;&gt;Node14</title>
<path fill="none" stroke="#191970" d="M454.9248,-321.5C468.4859,-321.5 482.2966,-321.5 495.3458,-321.5"/>
<polygon fill="#191970" stroke="#191970" points="454.62,-318.0001 444.62,-321.5 454.6199,-325.0001 454.62,-318.0001"/>
</g>
<!-- Node16 -->
<g id="node17" class="node">
<title>Node16</title>
<g id="a_node17"><a xlink:href="classamr__wind_1_1turbulence_1_1_turbulence_model.html" target="_top" xlink:title="Abstract representation of a turbulence modelThis class is an abstract representation of a turbulence...">
<polygon fill="#ffffff" stroke="#000000" points="510,-257.5 510,-287.5 620,-287.5 620,-257.5 510,-257.5"/>
<text text-anchor="start" x="518" y="-275.5" font-family="Helvetica,sans-Serif" font-size="10.00" fill="#000000">amr_wind::turbulence</text>
<text text-anchor="middle" x="565" y="-264.5" font-family="Helvetica,sans-Serif" font-size="10.00" fill="#000000">::TurbulenceModel</text>
</a>
</g>
</g>
<!-- Node15&#45;&gt;Node16 -->
<g id="edge16" class="edge">
<title>Node15&#45;&gt;Node16</title>
<path fill="none" stroke="#191970" d="M452.1774,-272.5C471.7112,-272.5 491.9087,-272.5 509.7218,-272.5"/>
<polygon fill="#191970" stroke="#191970" points="452.0392,-269.0001 442.0391,-272.5 452.0391,-276.0001 452.0392,-269.0001"/>
</g>
<!-- Node17 -->
<g id="node18" class="node">
<title>Node17</title>
<g id="a_node18"><a xlink:href="classamr__wind_1_1turbulence_1_1_turb_model.html" target="_top" xlink:title="Turbulence model with a specific transport modelThis templated class allows turbulence model to be sp...">
<polygon fill="#ffffff" stroke="#000000" points="685,-257.5 685,-287.5 813,-287.5 813,-257.5 685,-257.5"/>
<text text-anchor="start" x="693" y="-275.5" font-family="Helvetica,sans-Serif" font-size="10.00" fill="#000000">amr_wind::turbulence</text>
<text text-anchor="middle" x="749" y="-264.5" font-family="Helvetica,sans-Serif" font-size="10.00" fill="#000000">::TurbModel&lt; Transport &gt;</text>
</a>
</g>
</g>
<!-- Node16&#45;&gt;Node17 -->
<g id="edge17" class="edge">
<title>Node16&#45;&gt;Node17</title>
<path fill="none" stroke="#191970" d="M630.419,-272.5C648.0829,-272.5 667.177,-272.5 684.7749,-272.5"/>
<polygon fill="#191970" stroke="#191970" points="630.2061,-269.0001 620.2061,-272.5 630.206,-276.0001 630.2061,-269.0001"/>
</g>
<!-- Node18 -->
<g id="node19" class="node">
<title>Node18</title>
<g id="a_node19"><a xlink:href="classamr__wind_1_1turbulence_1_1_laminar.html" target="_top" xlink:title="Laminar modelImplementation of laminar flow model. ">
<polygon fill="#ffffff" stroke="#000000" points="867,-282.5 867,-312.5 983,-312.5 983,-282.5 867,-282.5"/>
<text text-anchor="start" x="875" y="-300.5" font-family="Helvetica,sans-Serif" font-size="10.00" fill="#000000">amr_wind::turbulence</text>
<text text-anchor="middle" x="925" y="-289.5" font-family="Helvetica,sans-Serif" font-size="10.00" fill="#000000">::Laminar&lt; Transport &gt;</text>
</a>
</g>
</g>
<!-- Node17&#45;&gt;Node18 -->
<g id="edge18" class="edge">
<title>Node17&#45;&gt;Node18</title>
<path fill="none" stroke="#191970" d="M823.0595,-283.0198C837.6864,-285.0975 852.8406,-287.2501 866.8499,-289.24"/>
<polygon fill="#191970" stroke="#191970" points="823.4308,-279.5375 813.0379,-281.5963 822.4463,-286.4679 823.4308,-279.5375"/>
</g>
<!-- Node19 -->
<g id="node20" class="node">
<title>Node19</title>
<g id="a_node20"><a xlink:href="classamr__wind_1_1turbulence_1_1_turb_model_base.html" target="_top" xlink:title="Turbulence model aspects common to both LES and RANS modelsThis class implements more of the common m...">
<polygon fill="#ffffff" stroke="#000000" points="850,-233.5 850,-263.5 1000,-263.5 1000,-233.5 850,-233.5"/>
<text text-anchor="start" x="858" y="-251.5" font-family="Helvetica,sans-Serif" font-size="10.00" fill="#000000">amr_wind::turbulence</text>
<text text-anchor="middle" x="925" y="-240.5" font-family="Helvetica,sans-Serif" font-size="10.00" fill="#000000">::TurbModelBase&lt; Transport &gt;</text>
</a>
</g>
</g>
<!-- Node17&#45;&gt;Node19 -->
<g id="edge19" class="edge">
<title>Node17&#45;&gt;Node19</title>
<path fill="none" stroke="#191970" d="M822.9982,-262.4093C831.9121,-261.1938 841.0227,-259.9515 849.9514,-258.7339"/>
<polygon fill="#191970" stroke="#191970" points="822.4733,-258.9484 813.0379,-263.7676 823.4191,-265.8842 822.4733,-258.9484"/>
</g>
<!-- Node20 -->
<g id="node21" class="node">
<title>Node20</title>
<g id="a_node21"><a xlink:href="classamr__wind_1_1turbulence_1_1_one_eq_ksgs.html" target="_top" xlink:title="Base class for 1&#45;Equation subgrid scale TKE turbulence model. ">
<polygon fill="#ffffff" stroke="#000000" points="1039.5,-270.5 1039.5,-300.5 1173.5,-300.5 1173.5,-270.5 1039.5,-270.5"/>
<text text-anchor="start" x="1047.5" y="-288.5" font-family="Helvetica,sans-Serif" font-size="10.00" fill="#000000">amr_wind::turbulence</text>
<text text-anchor="middle" x="1106.5" y="-277.5" font-family="Helvetica,sans-Serif" font-size="10.00" fill="#000000">::OneEqKsgs&lt; Transport &gt;</text>
</a>
</g>
</g>
<!-- Node19&#45;&gt;Node20 -->
<g id="edge20" class="edge">
<title>Node19&#45;&gt;Node20</title>
<path fill="none" stroke="#191970" d="M1008.6649,-265.5557C1018.9878,-267.6601 1029.4337,-269.7895 1039.464,-271.8343"/>
<polygon fill="#191970" stroke="#191970" points="1009.3206,-262.1174 998.823,-263.5493 1007.9223,-268.9763 1009.3206,-262.1174"/>
</g>
<!-- Node23 -->
<g id="node24" class="node">
<title>Node23</title>
<g id="a_node24"><a xlink:href="classamr__wind_1_1turbulence_1_1_smagorinsky.html" target="_top" xlink:title="Smagorinsky LES Model. ">
<polygon fill="#ffffff" stroke="#000000" points="1037,-221.5 1037,-251.5 1176,-251.5 1176,-221.5 1037,-221.5"/>
<text text-anchor="start" x="1045" y="-239.5" font-family="Helvetica,sans-Serif" font-size="10.00" fill="#000000">amr_wind::turbulence</text>
<text text-anchor="middle" x="1106.5" y="-228.5" font-family="Helvetica,sans-Serif" font-size="10.00" fill="#000000">::Smagorinsky&lt; Transport &gt;</text>
</a>
</g>
</g>
<!-- Node19&#45;&gt;Node23 -->
<g id="edge23" class="edge">
<title>Node19&#45;&gt;Node23</title>
<path fill="none" stroke="#191970" d="M1010.2013,-242.8669C1019.1626,-242.2744 1028.1964,-241.6771 1036.9513,-241.0983"/>
<polygon fill="#191970" stroke="#191970" points="1009.8804,-239.3803 1000.1332,-243.5325 1010.3423,-246.3651 1009.8804,-239.3803"/>
</g>
<!-- Node21 -->
<g id="node22" class="node">
<title>Node21</title>
<g id="a_node22"><a xlink:href="classamr__wind_1_1turbulence_1_1_one_eq_ksgs_m84.html" target="_top" xlink:title="1&#45;equation subgrid scale TKE turbulence modelImplements the model described in Moeng 1984 paper ...">
<polygon fill="#ffffff" stroke="#000000" points="1213,-294.5 1213,-324.5 1366,-324.5 1366,-294.5 1213,-294.5"/>
<text text-anchor="start" x="1221" y="-312.5" font-family="Helvetica,sans-Serif" font-size="10.00" fill="#000000">amr_wind::turbulence</text>
<text text-anchor="middle" x="1289.5" y="-301.5" font-family="Helvetica,sans-Serif" font-size="10.00" fill="#000000">::OneEqKsgsM84&lt; Transport &gt;</text>
</a>
</g>
</g>
<!-- Node20&#45;&gt;Node21 -->
<g id="edge21" class="edge">
<title>Node20&#45;&gt;Node21</title>
<path fill="none" stroke="#191970" d="M1183.5827,-295.6092C1193.2533,-296.8775 1203.1444,-298.1747 1212.8091,-299.4422"/>
<polygon fill="#191970" stroke="#191970" points="1183.9736,-292.1306 1173.6033,-294.3004 1183.0633,-299.0711 1183.9736,-292.1306"/>
</g>
<!-- Node22 -->
<g id="node23" class="node">
<title>Node22</title>
<g id="a_node23"><a xlink:href="classamr__wind_1_1turbulence_1_1_one_eq_ksgs_s94.html" target="_top" xlink:title="1&#45;equation subgrid scale TKE turbulence modelImplements the model described in Sullivan 1994 paper ...">
<polygon fill="#ffffff" stroke="#000000" points="1213.5,-245.5 1213.5,-275.5 1365.5,-275.5 1365.5,-245.5 1213.5,-245.5"/>
<text text-anchor="start" x="1221.5" y="-263.5" font-family="Helvetica,sans-Serif" font-size="10.00" fill="#000000">amr_wind::turbulence</text>
<text text-anchor="middle" x="1289.5" y="-252.5" font-family="Helvetica,sans-Serif" font-size="10.00" fill="#000000">::OneEqKsgsS94&lt; Transport &gt;</text>
</a>
</g>
</g>
<!-- Node20&#45;&gt;Node22 -->
<g id="edge22" class="edge">
<title>Node20&#45;&gt;Node22</title>
<path fill="none" stroke="#191970" d="M1183.7439,-274.9476C1193.5718,-273.6049 1203.6246,-272.2316 1213.4338,-270.8916"/>
<polygon fill="#191970" stroke="#191970" points="1183.0375,-271.5115 1173.6033,-276.3329 1183.9851,-278.447 1183.0375,-271.5115"/>
</g>
<!-- Node25 -->
<g id="node26" class="node">
<title>Node25</title>
<g id="a_node26"><a xlink:href="classamr__wind_1_1_overset_manager.html" target="_top" xlink:title="Overset interface manager. ">
<polygon fill="#ffffff" stroke="#000000" points="496.5,-214 496.5,-233 633.5,-233 633.5,-214 496.5,-214"/>
<text text-anchor="middle" x="565" y="-221" font-family="Helvetica,sans-Serif" font-size="10.00" fill="#000000">amr_wind::OversetManager</text>
</a>
</g>
</g>
<!-- Node24&#45;&gt;Node25 -->
<g id="edge25" class="edge">
<title>Node24&#45;&gt;Node25</title>
<path fill="none" stroke="#191970" d="M451.4652,-223.5C466.4384,-223.5 481.824,-223.5 496.2457,-223.5"/>
<polygon fill="#191970" stroke="#191970" points="451.182,-220.0001 441.182,-223.5 451.1819,-227.0001 451.182,-220.0001"/>
</g>
<!-- Node27 -->
<g id="node28" class="node">
<title>Node27</title>
<g id="a_node28"><a xlink:href="classamr__wind_1_1_physics.html" target="_top" xlink:title="Abstract representation of different physicsThis class defines an abstract API that represents the no...">
<polygon fill="#ffffff" stroke="#000000" points="515,-165 515,-184 615,-184 615,-165 515,-165"/>
<text text-anchor="middle" x="565" y="-172" font-family="Helvetica,sans-Serif" font-size="10.00" fill="#000000">amr_wind::Physics</text>
</a>
</g>
</g>
<!-- Node26&#45;&gt;Node27 -->
<g id="edge27" class="edge">
<title>Node26&#45;&gt;Node27</title>
<path fill="none" stroke="#191970" d="M432.7111,-174.5C459.6415,-174.5 490.0717,-174.5 514.9514,-174.5"/>
<polygon fill="#191970" stroke="#191970" points="432.58,-171.0001 422.58,-174.5 432.5799,-178.0001 432.58,-171.0001"/>
</g>
<!-- Node29 -->
<g id="node30" class="node">
<title>Node29</title>
<g id="a_node30"><a xlink:href="classamr__wind_1_1sampling_1_1_sampler_base.html" target="_top" xlink:title="Abstract representation of data probes to sample flow dataThis class defines the interface by which t...">
<polygon fill="#ffffff" stroke="#000000" points="513,-110.5 513,-140.5 617,-140.5 617,-110.5 513,-110.5"/>
<text text-anchor="start" x="521" y="-128.5" font-family="Helvetica,sans-Serif" font-size="10.00" fill="#000000">amr_wind::sampling</text>
<text text-anchor="middle" x="565" y="-117.5" font-family="Helvetica,sans-Serif" font-size="10.00" fill="#000000">::SamplerBase</text>
</a>
</g>
</g>
<!-- Node28&#45;&gt;Node29 -->
<g id="edge29" class="edge">
<title>Node28&#45;&gt;Node29</title>
<path fill="none" stroke="#191970" d="M444.2431,-125.5C467.3379,-125.5 491.9777,-125.5 512.9373,-125.5"/>
<polygon fill="#191970" stroke="#191970" points="444.1087,-122.0001 434.1087,-125.5 444.1087,-129.0001 444.1087,-122.0001"/>
</g>
<!-- Node31 -->
<g id="node32" class="node">
<title>Node31</title>
<g id="a_node32"><a xlink:href="classamr__wind_1_1pde_1_1_density_source.html" target="_top" xlink:title="amr_wind::pde::DensitySource">
<polygon fill="#ffffff" stroke="#000000" points="489.5,-61 489.5,-80 640.5,-80 640.5,-61 489.5,-61"/>
<text text-anchor="middle" x="565" y="-68" font-family="Helvetica,sans-Serif" font-size="10.00" fill="#000000">amr_wind::pde::DensitySource</text>
</a>
</g>
</g>
<!-- Node30&#45;&gt;Node31 -->
<g id="edge31" class="edge">
<title>Node30&#45;&gt;Node31</title>
<path fill="none" stroke="#191970" d="M432.0482,-70.5C450.3969,-70.5 470.4118,-70.5 489.212,-70.5"/>
<polygon fill="#191970" stroke="#191970" points="432.0444,-67.0001 422.0443,-70.5 432.0443,-74.0001 432.0444,-67.0001"/>
</g>
<!-- Node33 -->
<g id="node34" class="node">
<title>Node33</title>
<g id="a_node34"><a xlink:href="classamr__wind_1_1pde_1_1_t_k_e_source.html" target="_top" xlink:title="Base class for all TKE source terms. ">
<polygon fill="#ffffff" stroke="#000000" points="496.5,-6 496.5,-25 633.5,-25 633.5,-6 496.5,-6"/>
<text text-anchor="middle" x="565" y="-13" font-family="Helvetica,sans-Serif" font-size="10.00" fill="#000000">amr_wind::pde::TKESource</text>
</a>
</g>
</g>
<!-- Node32&#45;&gt;Node33 -->
<g id="edge33" class="edge">
<title>Node32&#45;&gt;Node33</title>
<path fill="none" stroke="#191970" d="M454.0282,-15.5C468.2277,-15.5 482.7258,-15.5 496.3588,-15.5"/>
<polygon fill="#191970" stroke="#191970" points="453.7582,-12.0001 443.7582,-15.5 453.7582,-19.0001 453.7582,-12.0001"/>
</g>
</g>
</svg>
