<?xml version="1.0" encoding="UTF-8" standalone="no"?>
<!DOCTYPE svg PUBLIC "-//W3C//DTD SVG 1.1//EN"
 "http://www.w3.org/Graphics/SVG/1.1/DTD/svg11.dtd">
<!-- Generated by graphviz version 2.40.1 (20161225.0304)
 -->
<!-- Title: tensor.H Pages: 1 -->
<svg width="170pt" height="84pt"
 viewBox="0.00 0.00 169.50 84.00" xmlns="http://www.w3.org/2000/svg" xmlns:xlink="http://www.w3.org/1999/xlink">
<g id="graph0" class="graph" transform="scale(1 1) rotate(0) translate(4 80)">
<title>tensor.H</title>
<polygon fill="#ffffff" stroke="transparent" points="-4,4 -4,-80 165.5,-80 165.5,4 -4,4"/>
<!-- Node11 -->
<g id="node1" class="node">
<title>Node11</title>
<polygon fill="#bfbfbf" stroke="#000000" points="1.5,-56.5 1.5,-75.5 55.5,-75.5 55.5,-56.5 1.5,-56.5"/>
<text text-anchor="middle" x="28.5" y="-63.5" font-family="Helvetica,sans-Serif" font-size="10.00" fill="#000000">tensor.H</text>
</g>
<!-- Node12 -->
<g id="node2" class="node">
<title>Node12</title>
<g id="a_node2"><a xlink:href="tensor_i_8_h.html" target="_top" xlink:title="tensorI.H">
<polygon fill="#ffffff" stroke="#000000" points="0,-.5 0,-19.5 57,-19.5 57,-.5 0,-.5"/>
<text text-anchor="middle" x="28.5" y="-7.5" font-family="Helvetica,sans-Serif" font-size="10.00" fill="#000000">tensorI.H</text>
</a>
</g>
</g>
<!-- Node11&#45;&gt;Node12 -->
<g id="edge1" class="edge">
<title>Node11&#45;&gt;Node12</title>
<path fill="none" stroke="#191970" d="M22.0113,-46.1575C21.419,-37.155 21.8335,-26.9199 23.2549,-19.6427"/>
<polygon fill="#191970" stroke="#191970" points="18.5561,-46.739 23.2332,-56.2455 25.5053,-45.8972 18.5561,-46.739"/>
</g>
<!-- Node13 -->
<g id="node3" class="node">
<title>Node13</title>
<g id="a_node3"><a xlink:href="vector__space_8_h.html" target="_top" xlink:title="vector_space.H">
<polygon fill="#ffffff" stroke="#000000" points="75.5,-.5 75.5,-19.5 161.5,-19.5 161.5,-.5 75.5,-.5"/>
<text text-anchor="middle" x="118.5" y="-7.5" font-family="Helvetica,sans-Serif" font-size="10.00" fill="#000000">vector_space.H</text>
</a>
</g>
</g>
<!-- Node11&#45;&gt;Node13 -->
<g id="edge3" class="edge">
<title>Node11&#45;&gt;Node13</title>
<path fill="none" stroke="#191970" d="M52.9784,-50.769C68.9266,-40.8456 89.251,-28.1994 103.0028,-19.6427"/>
<polygon fill="#191970" stroke="#191970" points="50.8183,-47.9908 44.1768,-56.2455 54.5165,-53.9342 50.8183,-47.9908"/>
</g>
<!-- Node12&#45;&gt;Node11 -->
<g id="edge2" class="edge">
<title>Node12&#45;&gt;Node11</title>
<path fill="none" stroke="#191970" d="M34.9795,-29.7046C35.5821,-38.6944 35.1779,-48.9382 33.7668,-56.2455"/>
<polygon fill="#191970" stroke="#191970" points="38.4368,-29.1421 33.7451,-19.6427 31.4889,-29.9945 38.4368,-29.1421"/>
</g>
</g>
</svg>
