<?xml version="1.0" encoding="UTF-8" standalone="no"?>
<!DOCTYPE svg PUBLIC "-//W3C//DTD SVG 1.1//EN"
 "http://www.w3.org/Graphics/SVG/1.1/DTD/svg11.dtd">
<!-- Generated by graphviz version 2.40.1 (20161225.0304)
 -->
<!-- Title: trig_ops.H Pages: 1 -->
<svg width="1566pt" height="319pt"
 viewBox="0.00 0.00 1565.50 319.00" xmlns="http://www.w3.org/2000/svg" xmlns:xlink="http://www.w3.org/1999/xlink">
<g id="graph0" class="graph" transform="scale(1 1) rotate(0) translate(4 315)">
<title>trig_ops.H</title>
<polygon fill="#ffffff" stroke="transparent" points="-4,4 -4,-315 1561.5,-315 1561.5,4 -4,4"/>
<!-- Node4 -->
<g id="node1" class="node">
<title>Node4</title>
<polygon fill="#bfbfbf" stroke="#000000" points="959,-291.5 959,-310.5 1021,-310.5 1021,-291.5 959,-291.5"/>
<text text-anchor="middle" x="990" y="-298.5" font-family="Helvetica,sans-Serif" font-size="10.00" fill="#000000">trig_ops.H</text>
</g>
<!-- Node5 -->
<g id="node2" class="node">
<title>Node5</title>
<g id="a_node2"><a xlink:href="_m_o_data_8h.html" target="_top" xlink:title="MOData.h">
<polygon fill="#ffffff" stroke="#000000" points="526,-235.5 526,-254.5 588,-254.5 588,-235.5 526,-235.5"/>
<text text-anchor="middle" x="557" y="-242.5" font-family="Helvetica,sans-Serif" font-size="10.00" fill="#000000">MOData.h</text>
</a>
</g>
</g>
<!-- Node4&#45;&gt;Node5 -->
<g id="edge1" class="edge">
<title>Node4&#45;&gt;Node5</title>
<path fill="none" stroke="#191970" d="M948.9233,-295.6875C862.7721,-284.5456 664.8349,-258.9463 588.1484,-249.0284"/>
<polygon fill="#191970" stroke="#191970" points="948.4934,-299.161 958.8597,-296.9726 949.3913,-292.2188 948.4934,-299.161"/>
</g>
<!-- Node14 -->
<g id="node11" class="node">
<title>Node14</title>
<g id="a_node11"><a xlink:href="_a_b_l_wall_function_8cpp.html" target="_top" xlink:title="ABLWallFunction.cpp">
<polygon fill="#ffffff" stroke="#000000" points="587.5,-6 587.5,-25 698.5,-25 698.5,-6 587.5,-6"/>
<text text-anchor="middle" x="643" y="-13" font-family="Helvetica,sans-Serif" font-size="10.00" fill="#000000">ABLWallFunction.cpp</text>
</a>
</g>
</g>
<!-- Node4&#45;&gt;Node14 -->
<g id="edge24" class="edge">
<title>Node4&#45;&gt;Node14</title>
<path fill="none" stroke="#191970" d="M948.4615,-299.6835C877.5292,-296.5955 737.192,-286.5642 701,-255 677.9003,-234.854 681,-219.6506 681,-189 681,-189 681,-189 681,-133 681,-91.1928 658.9518,-44.901 648.4445,-25.2137"/>
<polygon fill="#191970" stroke="#191970" points="948.6787,-303.1952 958.8132,-300.1062 948.9644,-296.201 948.6787,-303.1952"/>
</g>
<!-- Node19 -->
<g id="node16" class="node">
<title>Node19</title>
<g id="a_node16"><a xlink:href="_body_force_8cpp.html" target="_top" xlink:title="BodyForce.cpp">
<polygon fill="#ffffff" stroke="#000000" points="709.5,-235.5 709.5,-254.5 792.5,-254.5 792.5,-235.5 709.5,-235.5"/>
<text text-anchor="middle" x="751" y="-242.5" font-family="Helvetica,sans-Serif" font-size="10.00" fill="#000000">BodyForce.cpp</text>
</a>
</g>
</g>
<!-- Node4&#45;&gt;Node19 -->
<g id="edge17" class="edge">
<title>Node4&#45;&gt;Node19</title>
<path fill="none" stroke="#191970" d="M948.9732,-291.387C905.0358,-281.0921 835.7282,-264.8526 791.8564,-254.573"/>
<polygon fill="#191970" stroke="#191970" points="948.2201,-294.8053 958.7549,-293.679 949.8171,-287.9899 948.2201,-294.8053"/>
</g>
<!-- Node20 -->
<g id="node17" class="node">
<title>Node20</title>
<g id="a_node17"><a xlink:href="_coriolis_forcing_8cpp.html" target="_top" xlink:title="CoriolisForcing.cpp">
<polygon fill="#ffffff" stroke="#000000" points="810.5,-235.5 810.5,-254.5 911.5,-254.5 911.5,-235.5 810.5,-235.5"/>
<text text-anchor="middle" x="861" y="-242.5" font-family="Helvetica,sans-Serif" font-size="10.00" fill="#000000">CoriolisForcing.cpp</text>
</a>
</g>
</g>
<!-- Node4&#45;&gt;Node20 -->
<g id="edge18" class="edge">
<title>Node4&#45;&gt;Node20</title>
<path fill="none" stroke="#191970" d="M958.6329,-287.3833C935.1716,-277.1985 903.6815,-263.5284 882.8865,-254.5011"/>
<polygon fill="#191970" stroke="#191970" points="957.2574,-290.6017 967.8241,-291.3733 960.0449,-284.1806 957.2574,-290.6017"/>
</g>
<!-- Node21 -->
<g id="node18" class="node">
<title>Node21</title>
<g id="a_node18"><a xlink:href="_geostrophic_forcing_8cpp.html" target="_top" xlink:title="GeostrophicForcing.cpp">
<polygon fill="#ffffff" stroke="#000000" points="930,-235.5 930,-254.5 1050,-254.5 1050,-235.5 930,-235.5"/>
<text text-anchor="middle" x="990" y="-242.5" font-family="Helvetica,sans-Serif" font-size="10.00" fill="#000000">GeostrophicForcing.cpp</text>
</a>
</g>
</g>
<!-- Node4&#45;&gt;Node21 -->
<g id="edge19" class="edge">
<title>Node4&#45;&gt;Node21</title>
<path fill="none" stroke="#191970" d="M990,-281.1575C990,-272.155 990,-261.9199 990,-254.6427"/>
<polygon fill="#191970" stroke="#191970" points="986.5001,-281.2455 990,-291.2455 993.5001,-281.2456 986.5001,-281.2455"/>
</g>
<!-- Node22 -->
<g id="node19" class="node">
<title>Node22</title>
<g id="a_node19"><a xlink:href="_convecting_taylor_vortex_8cpp.html" target="_top" xlink:title="ConvectingTaylorVortex.cpp">
<polygon fill="#ffffff" stroke="#000000" points="1068,-235.5 1068,-254.5 1208,-254.5 1208,-235.5 1068,-235.5"/>
<text text-anchor="middle" x="1138" y="-242.5" font-family="Helvetica,sans-Serif" font-size="10.00" fill="#000000">ConvectingTaylorVortex.cpp</text>
</a>
</g>
</g>
<!-- Node4&#45;&gt;Node22 -->
<g id="edge20" class="edge">
<title>Node4&#45;&gt;Node22</title>
<path fill="none" stroke="#191970" d="M1024.9153,-287.7888C1051.9383,-277.5639 1088.714,-263.6488 1112.8899,-254.5011"/>
<polygon fill="#191970" stroke="#191970" points="1023.5563,-284.5608 1015.4421,-291.3733 1026.0336,-291.1078 1023.5563,-284.5608"/>
</g>
<!-- Node23 -->
<g id="node20" class="node">
<title>Node23</title>
<g id="a_node20"><a xlink:href="_ekman_spiral_8cpp.html" target="_top" xlink:title="EkmanSpiral.cpp">
<polygon fill="#ffffff" stroke="#000000" points="1226.5,-235.5 1226.5,-254.5 1317.5,-254.5 1317.5,-235.5 1226.5,-235.5"/>
<text text-anchor="middle" x="1272" y="-242.5" font-family="Helvetica,sans-Serif" font-size="10.00" fill="#000000">EkmanSpiral.cpp</text>
</a>
</g>
</g>
<!-- Node4&#45;&gt;Node23 -->
<g id="edge21" class="edge">
<title>Node4&#45;&gt;Node23</title>
<path fill="none" stroke="#191970" d="M1031.1244,-292.8334C1083.0471,-282.5226 1172.1052,-264.8373 1226.1649,-254.102"/>
<polygon fill="#191970" stroke="#191970" points="1030.3831,-289.4122 1021.2564,-294.7931 1031.7466,-296.2782 1030.3831,-289.4122"/>
</g>
<!-- Node24 -->
<g id="node21" class="node">
<title>Node24</title>
<g id="a_node21"><a xlink:href="_free_stream_8cpp.html" target="_top" xlink:title="FreeStream.cpp">
<polygon fill="#ffffff" stroke="#000000" points="1336,-235.5 1336,-254.5 1422,-254.5 1422,-235.5 1336,-235.5"/>
<text text-anchor="middle" x="1379" y="-242.5" font-family="Helvetica,sans-Serif" font-size="10.00" fill="#000000">FreeStream.cpp</text>
</a>
</g>
</g>
<!-- Node4&#45;&gt;Node24 -->
<g id="edge22" class="edge">
<title>Node4&#45;&gt;Node24</title>
<path fill="none" stroke="#191970" d="M1031.248,-296.1027C1094.8788,-288.3826 1220.7483,-272.4549 1327,-255 1329.9029,-254.5231 1332.8926,-254.0092 1335.902,-253.475"/>
<polygon fill="#191970" stroke="#191970" points="1030.7219,-292.6407 1021.2138,-297.3145 1031.5613,-299.5902 1030.7219,-292.6407"/>
</g>
<!-- Node25 -->
<g id="node22" class="node">
<title>Node25</title>
<g id="a_node22"><a xlink:href="_taylor_green_vortex_8cpp.html" target="_top" xlink:title="TaylorGreenVortex.cpp">
<polygon fill="#ffffff" stroke="#000000" points="1440.5,-235.5 1440.5,-254.5 1557.5,-254.5 1557.5,-235.5 1440.5,-235.5"/>
<text text-anchor="middle" x="1499" y="-242.5" font-family="Helvetica,sans-Serif" font-size="10.00" fill="#000000">TaylorGreenVortex.cpp</text>
</a>
</g>
</g>
<!-- Node4&#45;&gt;Node25 -->
<g id="edge23" class="edge">
<title>Node4&#45;&gt;Node25</title>
<path fill="none" stroke="#191970" d="M1031.4461,-297.2634C1109.6684,-290.0812 1284.3775,-273.4198 1431,-255 1434.0783,-254.6133 1437.2327,-254.202 1440.416,-253.7751"/>
<polygon fill="#191970" stroke="#191970" points="1030.7016,-293.8168 1021.062,-298.2132 1031.3392,-300.7877 1030.7016,-293.8168"/>
</g>
<!-- Node6 -->
<g id="node3" class="node">
<title>Node6</title>
<g id="a_node3"><a xlink:href="_a_b_l_wall_function_8_h.html" target="_top" xlink:title="ABLWallFunction.H">
<polygon fill="#ffffff" stroke="#000000" points="505.5,-179.5 505.5,-198.5 608.5,-198.5 608.5,-179.5 505.5,-179.5"/>
<text text-anchor="middle" x="557" y="-186.5" font-family="Helvetica,sans-Serif" font-size="10.00" fill="#000000">ABLWallFunction.H</text>
</a>
</g>
</g>
<!-- Node5&#45;&gt;Node6 -->
<g id="edge2" class="edge">
<title>Node5&#45;&gt;Node6</title>
<path fill="none" stroke="#191970" d="M557,-225.1575C557,-216.155 557,-205.9199 557,-198.6427"/>
<polygon fill="#191970" stroke="#191970" points="553.5001,-225.2455 557,-235.2455 560.5001,-225.2456 553.5001,-225.2455"/>
</g>
<!-- Node18 -->
<g id="node15" class="node">
<title>Node18</title>
<g id="a_node15"><a xlink:href="_m_o_data_8cpp.html" target="_top" xlink:title="MOData.cpp">
<polygon fill="#ffffff" stroke="#000000" points="415,-179.5 415,-198.5 487,-198.5 487,-179.5 415,-179.5"/>
<text text-anchor="middle" x="451" y="-186.5" font-family="Helvetica,sans-Serif" font-size="10.00" fill="#000000">MOData.cpp</text>
</a>
</g>
</g>
<!-- Node5&#45;&gt;Node18 -->
<g id="edge16" class="edge">
<title>Node5&#45;&gt;Node18</title>
<path fill="none" stroke="#191970" d="M529.4778,-230.46C510.5092,-220.4388 485.8273,-207.3993 469.2522,-198.6427"/>
<polygon fill="#191970" stroke="#191970" points="528.0593,-233.669 538.5362,-235.2455 531.3292,-227.4796 528.0593,-233.669"/>
</g>
<!-- Node7 -->
<g id="node4" class="node">
<title>Node7</title>
<g id="a_node4"><a xlink:href="_a_b_l_8_h.html" target="_top" xlink:title="ABL.H">
<polygon fill="#ffffff" stroke="#000000" points="369,-67.5 369,-86.5 415,-86.5 415,-67.5 369,-67.5"/>
<text text-anchor="middle" x="392" y="-74.5" font-family="Helvetica,sans-Serif" font-size="10.00" fill="#000000">ABL.H</text>
</a>
</g>
</g>
<!-- Node6&#45;&gt;Node7 -->
<g id="edge3" class="edge">
<title>Node6&#45;&gt;Node7</title>
<path fill="none" stroke="#191970" d="M495.3677,-177.5077C458.142,-169.2975 415.5388,-157.2147 403,-143 389.168,-127.3193 389.349,-101.0602 390.6756,-86.8509"/>
<polygon fill="#191970" stroke="#191970" points="494.6816,-180.9401 505.1932,-179.6147 496.1494,-174.0957 494.6816,-180.9401"/>
</g>
<!-- Node6&#45;&gt;Node14 -->
<g id="edge15" class="edge">
<title>Node6&#45;&gt;Node14</title>
<path fill="none" stroke="#191970" d="M588.4741,-174.6196C601.5218,-167.0563 615.5553,-156.5134 624,-143 647.9574,-104.6628 645.9368,-47.4425 644.0184,-25.0085"/>
<polygon fill="#191970" stroke="#191970" points="586.8079,-171.5416 579.6794,-179.3796 590.1399,-177.6977 586.8079,-171.5416"/>
</g>
<!-- Node15 -->
<g id="node12" class="node">
<title>Node15</title>
<g id="a_node12"><a xlink:href="_a_b_l_stats_8_h.html" target="_top" xlink:title="ABLStats.H">
<polygon fill="#ffffff" stroke="#000000" points="411.5,-123.5 411.5,-142.5 480.5,-142.5 480.5,-123.5 411.5,-123.5"/>
<text text-anchor="middle" x="446" y="-130.5" font-family="Helvetica,sans-Serif" font-size="10.00" fill="#000000">ABLStats.H</text>
</a>
</g>
</g>
<!-- Node6&#45;&gt;Node15 -->
<g id="edge11" class="edge">
<title>Node6&#45;&gt;Node15</title>
<path fill="none" stroke="#191970" d="M528.9266,-174.8368C508.8615,-164.7139 482.4078,-151.3679 464.8326,-142.5011"/>
<polygon fill="#191970" stroke="#191970" points="527.4138,-177.9938 537.9184,-179.3733 530.5668,-171.7441 527.4138,-177.9938"/>
</g>
<!-- Node17 -->
<g id="node14" class="node">
<title>Node17</title>
<g id="a_node14"><a xlink:href="_boussinesq_bubble_8cpp.html" target="_top" xlink:title="BoussinesqBubble.cpp">
<polygon fill="#ffffff" stroke="#000000" points="499,-123.5 499,-142.5 615,-142.5 615,-123.5 499,-123.5"/>
<text text-anchor="middle" x="557" y="-130.5" font-family="Helvetica,sans-Serif" font-size="10.00" fill="#000000">BoussinesqBubble.cpp</text>
</a>
</g>
</g>
<!-- Node6&#45;&gt;Node17 -->
<g id="edge14" class="edge">
<title>Node6&#45;&gt;Node17</title>
<path fill="none" stroke="#191970" d="M557,-169.1575C557,-160.155 557,-149.9199 557,-142.6427"/>
<polygon fill="#191970" stroke="#191970" points="553.5001,-169.2455 557,-179.2455 560.5001,-169.2456 553.5001,-169.2455"/>
</g>
<!-- Node8 -->
<g id="node5" class="node">
<title>Node8</title>
<g id="a_node5"><a xlink:href="incflo__set__velocity__bcs_8cpp.html" target="_top" xlink:title="incflo_set_velocity\l_bcs.cpp">
<polygon fill="#ffffff" stroke="#000000" points="0,-.5 0,-30.5 98,-30.5 98,-.5 0,-.5"/>
<text text-anchor="start" x="8" y="-18.5" font-family="Helvetica,sans-Serif" font-size="10.00" fill="#000000">incflo_set_velocity</text>
<text text-anchor="middle" x="49" y="-7.5" font-family="Helvetica,sans-Serif" font-size="10.00" fill="#000000">_bcs.cpp</text>
</a>
</g>
</g>
<!-- Node7&#45;&gt;Node8 -->
<g id="edge4" class="edge">
<title>Node7&#45;&gt;Node8</title>
<path fill="none" stroke="#191970" d="M358.7135,-72.7401C305.3139,-65.6572 197.3311,-50.3083 107,-31 104.1461,-30.39 101.2226,-29.728 98.2789,-29.0326"/>
<polygon fill="#191970" stroke="#191970" points="358.5786,-76.2524 368.9493,-74.0849 359.4905,-69.312 358.5786,-76.2524"/>
</g>
<!-- Node9 -->
<g id="node6" class="node">
<title>Node9</title>
<g id="a_node6"><a xlink:href="_a_b_l_forcing_8cpp.html" target="_top" xlink:title="ABLForcing.cpp">
<polygon fill="#ffffff" stroke="#000000" points="116,-6 116,-25 202,-25 202,-6 116,-6"/>
<text text-anchor="middle" x="159" y="-13" font-family="Helvetica,sans-Serif" font-size="10.00" fill="#000000">ABLForcing.cpp</text>
</a>
</g>
</g>
<!-- Node7&#45;&gt;Node9 -->
<g id="edge5" class="edge">
<title>Node7&#45;&gt;Node9</title>
<path fill="none" stroke="#191970" d="M358.7209,-68.9742C322.33,-60.0974 262.3452,-45.1706 211,-31 204.2802,-29.1454 197.1003,-27.0679 190.2878,-25.0513"/>
<polygon fill="#191970" stroke="#191970" points="358.233,-72.4575 368.7769,-71.4195 359.8871,-65.6557 358.233,-72.4575"/>
</g>
<!-- Node10 -->
<g id="node7" class="node">
<title>Node10</title>
<g id="a_node7"><a xlink:href="_a_b_l_mean_boussinesq_8cpp.html" target="_top" xlink:title="ABLMeanBoussinesq.cpp">
<polygon fill="#ffffff" stroke="#000000" points="220.5,-6 220.5,-25 349.5,-25 349.5,-6 220.5,-6"/>
<text text-anchor="middle" x="285" y="-13" font-family="Helvetica,sans-Serif" font-size="10.00" fill="#000000">ABLMeanBoussinesq.cpp</text>
</a>
</g>
</g>
<!-- Node7&#45;&gt;Node10 -->
<g id="edge6" class="edge">
<title>Node7&#45;&gt;Node10</title>
<path fill="none" stroke="#191970" d="M366.3522,-62.2585C346.2634,-50.7122 318.9095,-34.99 301.6013,-25.0419"/>
<polygon fill="#191970" stroke="#191970" points="364.8672,-65.4419 375.2813,-67.3906 368.3554,-59.3729 364.8672,-65.4419"/>
</g>
<!-- Node11 -->
<g id="node8" class="node">
<title>Node11</title>
<g id="a_node8"><a xlink:href="incflo_8cpp.html" target="_top" xlink:title="incflo.cpp">
<polygon fill="#ffffff" stroke="#000000" points="367.5,-6 367.5,-25 426.5,-25 426.5,-6 367.5,-6"/>
<text text-anchor="middle" x="397" y="-13" font-family="Helvetica,sans-Serif" font-size="10.00" fill="#000000">incflo.cpp</text>
</a>
</g>
</g>
<!-- Node7&#45;&gt;Node11 -->
<g id="edge7" class="edge">
<title>Node7&#45;&gt;Node11</title>
<path fill="none" stroke="#191970" d="M393.606,-57.2462C394.4755,-46.5519 395.5111,-33.814 396.2077,-25.2449"/>
<polygon fill="#191970" stroke="#191970" points="390.1032,-57.1399 392.7813,-67.3906 397.0802,-57.7072 390.1032,-57.1399"/>
</g>
<!-- Node12 -->
<g id="node9" class="node">
<title>Node12</title>
<g id="a_node9"><a xlink:href="init_8cpp.html" target="_top" xlink:title="init.cpp">
<polygon fill="#ffffff" stroke="#000000" points="445,-6 445,-25 493,-25 493,-6 445,-6"/>
<text text-anchor="middle" x="469" y="-13" font-family="Helvetica,sans-Serif" font-size="10.00" fill="#000000">init.cpp</text>
</a>
</g>
</g>
<!-- Node7&#45;&gt;Node12 -->
<g id="edge8" class="edge">
<title>Node7&#45;&gt;Node12</title>
<path fill="none" stroke="#191970" d="M411.8458,-61.1491C426.153,-49.722 444.9924,-34.6749 457.0532,-25.0419"/>
<polygon fill="#191970" stroke="#191970" points="409.6606,-58.415 404.0313,-67.3906 414.0292,-63.8846 409.6606,-58.415"/>
</g>
<!-- Node13 -->
<g id="node10" class="node">
<title>Node13</title>
<g id="a_node10"><a xlink:href="_a_b_l_8cpp.html" target="_top" xlink:title="ABL.cpp">
<polygon fill="#ffffff" stroke="#000000" points="511,-6 511,-25 565,-25 565,-6 511,-6"/>
<text text-anchor="middle" x="538" y="-13" font-family="Helvetica,sans-Serif" font-size="10.00" fill="#000000">ABL.cpp</text>
</a>
</g>
</g>
<!-- Node7&#45;&gt;Node13 -->
<g id="edge9" class="edge">
<title>Node7&#45;&gt;Node13</title>
<path fill="none" stroke="#191970" d="M424.6962,-63.4323C446.5956,-54.3191 476.0568,-42.0091 502,-31 506.5101,-29.0861 511.3309,-27.0227 515.9309,-25.0453"/>
<polygon fill="#191970" stroke="#191970" points="423.096,-60.3072 415.2062,-67.3784 425.7836,-66.7707 423.096,-60.3072"/>
</g>
<!-- Node7&#45;&gt;Node14 -->
<g id="edge10" class="edge">
<title>Node7&#45;&gt;Node14</title>
<path fill="none" stroke="#191970" d="M424.6961,-67.082C424.7975,-67.0546 424.8988,-67.0272 425,-67 457.8568,-58.1499 547.6637,-37.3336 601.2052,-25.0467"/>
<polygon fill="#191970" stroke="#191970" points="423.693,-63.7284 415.0264,-69.8227 425.6018,-70.4631 423.693,-63.7284"/>
</g>
<!-- Node15&#45;&gt;Node7 -->
<g id="edge12" class="edge">
<title>Node15&#45;&gt;Node7</title>
<path fill="none" stroke="#191970" d="M429.4031,-115.7884C420.1653,-106.2085 409.0096,-94.6396 401.2983,-86.6427"/>
<polygon fill="#191970" stroke="#191970" points="427.1331,-118.4766 436.5939,-123.2455 432.172,-113.6176 427.1331,-118.4766"/>
</g>
<!-- Node16 -->
<g id="node13" class="node">
<title>Node16</title>
<g id="a_node13"><a xlink:href="_a_b_l_stats_8cpp.html" target="_top" xlink:title="ABLStats.cpp">
<polygon fill="#ffffff" stroke="#000000" points="433.5,-67.5 433.5,-86.5 510.5,-86.5 510.5,-67.5 433.5,-67.5"/>
<text text-anchor="middle" x="472" y="-74.5" font-family="Helvetica,sans-Serif" font-size="10.00" fill="#000000">ABLStats.cpp</text>
</a>
</g>
</g>
<!-- Node15&#45;&gt;Node16 -->
<g id="edge13" class="edge">
<title>Node15&#45;&gt;Node16</title>
<path fill="none" stroke="#191970" d="M454.8011,-114.0437C459.0775,-104.8331 464.033,-94.1598 467.523,-86.6427"/>
<polygon fill="#191970" stroke="#191970" points="451.5655,-112.7015 450.5289,-123.2455 457.9146,-115.6494 451.5655,-112.7015"/>
</g>
</g>
</svg>
