<?xml version="1.0" encoding="UTF-8" standalone="no"?>
<!DOCTYPE svg PUBLIC "-//W3C//DTD SVG 1.1//EN"
 "http://www.w3.org/Graphics/SVG/1.1/DTD/svg11.dtd">
<!-- Generated by graphviz version 2.40.1 (20161225.0304)
 -->
<!-- Title: trig_ops.H Pages: 1 -->
<svg width="1599pt" height="319pt"
 viewBox="0.00 0.00 1598.50 319.00" xmlns="http://www.w3.org/2000/svg" xmlns:xlink="http://www.w3.org/1999/xlink">
<g id="graph0" class="graph" transform="scale(1 1) rotate(0) translate(4 315)">
<title>trig_ops.H</title>
<polygon fill="#ffffff" stroke="transparent" points="-4,4 -4,-315 1594.5,-315 1594.5,4 -4,4"/>
<!-- Node4 -->
<g id="node1" class="node">
<title>Node4</title>
<polygon fill="#bfbfbf" stroke="#000000" points="927,-291.5 927,-310.5 989,-310.5 989,-291.5 927,-291.5"/>
<text text-anchor="middle" x="958" y="-298.5" font-family="Helvetica,sans-Serif" font-size="10.00" fill="#000000">trig_ops.H</text>
</g>
<!-- Node5 -->
<g id="node2" class="node">
<title>Node5</title>
<g id="a_node2"><a xlink:href="_m_o_data_8_h.html" target="_top" xlink:title="MOData.H">
<polygon fill="#ffffff" stroke="#000000" points="543,-235.5 543,-254.5 607,-254.5 607,-235.5 543,-235.5"/>
<text text-anchor="middle" x="575" y="-242.5" font-family="Helvetica,sans-Serif" font-size="10.00" fill="#000000">MOData.H</text>
</a>
</g>
</g>
<!-- Node4&#45;&gt;Node5 -->
<g id="edge1" class="edge">
<title>Node4&#45;&gt;Node5</title>
<path fill="none" stroke="#191970" d="M916.7365,-296.11C853.6879,-288.4557 729.6624,-272.6787 625,-255 619.239,-254.0269 613.1251,-252.8909 607.2233,-251.7406"/>
<polygon fill="#191970" stroke="#191970" points="916.3378,-299.5872 926.6854,-297.3118 917.1773,-292.6378 916.3378,-299.5872"/>
</g>
<!-- Node14 -->
<g id="node11" class="node">
<title>Node14</title>
<g id="a_node11"><a xlink:href="_a_b_l_wall_function_8cpp.html" target="_top" xlink:title="ABLWallFunction.cpp">
<polygon fill="#ffffff" stroke="#000000" points="583.5,-6 583.5,-25 694.5,-25 694.5,-6 583.5,-6"/>
<text text-anchor="middle" x="639" y="-13" font-family="Helvetica,sans-Serif" font-size="10.00" fill="#000000">ABLWallFunction.cpp</text>
</a>
</g>
</g>
<!-- Node4&#45;&gt;Node14 -->
<g id="edge28" class="edge">
<title>Node4&#45;&gt;Node14</title>
<path fill="none" stroke="#191970" d="M916.5861,-299.9404C843.7312,-297.2366 696.7646,-287.7633 659,-255 635.848,-234.9141 639,-219.6506 639,-189 639,-189 639,-189 639,-133 639,-93.0174 639,-45.3818 639,-25.2489"/>
<polygon fill="#191970" stroke="#191970" points="916.6608,-303.445 926.7756,-300.2922 916.9024,-296.4491 916.6608,-303.445"/>
</g>
<!-- Node19 -->
<g id="node16" class="node">
<title>Node19</title>
<g id="a_node16"><a xlink:href="tensor_i_8_h.html" target="_top" xlink:title="tensorI.H">
<polygon fill="#ffffff" stroke="#000000" points="667.5,-235.5 667.5,-254.5 724.5,-254.5 724.5,-235.5 667.5,-235.5"/>
<text text-anchor="middle" x="696" y="-242.5" font-family="Helvetica,sans-Serif" font-size="10.00" fill="#000000">tensorI.H</text>
</a>
</g>
</g>
<!-- Node4&#45;&gt;Node19 -->
<g id="edge17" class="edge">
<title>Node4&#45;&gt;Node19</title>
<path fill="none" stroke="#191970" d="M916.7388,-293.2297C871.6838,-284.5815 797.4759,-269.858 734,-255 730.9445,-254.2848 727.7602,-253.5038 724.592,-252.7036"/>
<polygon fill="#191970" stroke="#191970" points="916.2386,-296.6974 926.718,-295.1373 917.553,-289.8219 916.2386,-296.6974"/>
</g>
<!-- Node22 -->
<g id="node19" class="node">
<title>Node22</title>
<g id="a_node19"><a xlink:href="_body_force_8cpp.html" target="_top" xlink:title="BodyForce.cpp">
<polygon fill="#ffffff" stroke="#000000" points="742.5,-235.5 742.5,-254.5 825.5,-254.5 825.5,-235.5 742.5,-235.5"/>
<text text-anchor="middle" x="784" y="-242.5" font-family="Helvetica,sans-Serif" font-size="10.00" fill="#000000">BodyForce.cpp</text>
</a>
</g>
</g>
<!-- Node4&#45;&gt;Node22 -->
<g id="edge21" class="edge">
<title>Node4&#45;&gt;Node22</title>
<path fill="none" stroke="#191970" d="M918.199,-288.1905C886.321,-277.9309 842.3184,-263.7691 813.5213,-254.5011"/>
<polygon fill="#191970" stroke="#191970" points="917.4969,-291.6413 928.0883,-291.3733 919.6415,-284.9779 917.4969,-291.6413"/>
</g>
<!-- Node23 -->
<g id="node20" class="node">
<title>Node23</title>
<g id="a_node20"><a xlink:href="_coriolis_forcing_8cpp.html" target="_top" xlink:title="CoriolisForcing.cpp">
<polygon fill="#ffffff" stroke="#000000" points="843.5,-235.5 843.5,-254.5 944.5,-254.5 944.5,-235.5 843.5,-235.5"/>
<text text-anchor="middle" x="894" y="-242.5" font-family="Helvetica,sans-Serif" font-size="10.00" fill="#000000">CoriolisForcing.cpp</text>
</a>
</g>
</g>
<!-- Node4&#45;&gt;Node23 -->
<g id="edge22" class="edge">
<title>Node4&#45;&gt;Node23</title>
<path fill="none" stroke="#191970" d="M939.3086,-284.645C928.1781,-274.9058 914.4337,-262.8795 905.0202,-254.6427"/>
<polygon fill="#191970" stroke="#191970" points="937.0215,-287.2945 946.8521,-291.2455 941.631,-282.0264 937.0215,-287.2945"/>
</g>
<!-- Node24 -->
<g id="node21" class="node">
<title>Node24</title>
<g id="a_node21"><a xlink:href="_geostrophic_forcing_8cpp.html" target="_top" xlink:title="GeostrophicForcing.cpp">
<polygon fill="#ffffff" stroke="#000000" points="963,-235.5 963,-254.5 1083,-254.5 1083,-235.5 963,-235.5"/>
<text text-anchor="middle" x="1023" y="-242.5" font-family="Helvetica,sans-Serif" font-size="10.00" fill="#000000">GeostrophicForcing.cpp</text>
</a>
</g>
</g>
<!-- Node4&#45;&gt;Node24 -->
<g id="edge23" class="edge">
<title>Node4&#45;&gt;Node24</title>
<path fill="none" stroke="#191970" d="M976.9835,-284.645C988.2879,-274.9058 1002.247,-262.8795 1011.8076,-254.6427"/>
<polygon fill="#191970" stroke="#191970" points="974.6138,-282.0668 969.3221,-291.2455 979.1827,-287.3701 974.6138,-282.0668"/>
</g>
<!-- Node25 -->
<g id="node22" class="node">
<title>Node25</title>
<g id="a_node22"><a xlink:href="_convecting_taylor_vortex_8cpp.html" target="_top" xlink:title="ConvectingTaylorVortex.cpp">
<polygon fill="#ffffff" stroke="#000000" points="1101,-235.5 1101,-254.5 1241,-254.5 1241,-235.5 1101,-235.5"/>
<text text-anchor="middle" x="1171" y="-242.5" font-family="Helvetica,sans-Serif" font-size="10.00" fill="#000000">ConvectingTaylorVortex.cpp</text>
</a>
</g>
</g>
<!-- Node4&#45;&gt;Node25 -->
<g id="edge24" class="edge">
<title>Node4&#45;&gt;Node25</title>
<path fill="none" stroke="#191970" d="M999.2348,-290.1589C1038.569,-279.8175 1097.2342,-264.3938 1134.8034,-254.5165"/>
<polygon fill="#191970" stroke="#191970" points="998.2103,-286.8093 989.4289,-292.737 999.9902,-293.5792 998.2103,-286.8093"/>
</g>
<!-- Node26 -->
<g id="node23" class="node">
<title>Node26</title>
<g id="a_node23"><a xlink:href="_ekman_spiral_8cpp.html" target="_top" xlink:title="EkmanSpiral.cpp">
<polygon fill="#ffffff" stroke="#000000" points="1259.5,-235.5 1259.5,-254.5 1350.5,-254.5 1350.5,-235.5 1259.5,-235.5"/>
<text text-anchor="middle" x="1305" y="-242.5" font-family="Helvetica,sans-Serif" font-size="10.00" fill="#000000">EkmanSpiral.cpp</text>
</a>
</g>
</g>
<!-- Node4&#45;&gt;Node26 -->
<g id="edge25" class="edge">
<title>Node4&#45;&gt;Node26</title>
<path fill="none" stroke="#191970" d="M999.1405,-294.832C1055.7172,-286.2782 1160.69,-270.1516 1250,-255 1253.0619,-254.4805 1256.2177,-253.9347 1259.3961,-253.3772"/>
<polygon fill="#191970" stroke="#191970" points="998.52,-291.3859 989.1543,-296.3391 999.5647,-298.3075 998.52,-291.3859"/>
</g>
<!-- Node27 -->
<g id="node24" class="node">
<title>Node27</title>
<g id="a_node24"><a xlink:href="_free_stream_8cpp.html" target="_top" xlink:title="FreeStream.cpp">
<polygon fill="#ffffff" stroke="#000000" points="1369,-235.5 1369,-254.5 1455,-254.5 1455,-235.5 1369,-235.5"/>
<text text-anchor="middle" x="1412" y="-242.5" font-family="Helvetica,sans-Serif" font-size="10.00" fill="#000000">FreeStream.cpp</text>
</a>
</g>
</g>
<!-- Node4&#45;&gt;Node27 -->
<g id="edge26" class="edge">
<title>Node4&#45;&gt;Node27</title>
<path fill="none" stroke="#191970" d="M999.2757,-297.322C1072.263,-290.5856 1228.7928,-275.0932 1360,-255 1362.9079,-254.5547 1365.9014,-254.0644 1368.9135,-253.5475"/>
<polygon fill="#191970" stroke="#191970" points="998.7651,-293.854 989.1262,-298.2519 999.4039,-300.8249 998.7651,-293.854"/>
</g>
<!-- Node28 -->
<g id="node25" class="node">
<title>Node28</title>
<g id="a_node25"><a xlink:href="_taylor_green_vortex_8cpp.html" target="_top" xlink:title="TaylorGreenVortex.cpp">
<polygon fill="#ffffff" stroke="#000000" points="1473.5,-235.5 1473.5,-254.5 1590.5,-254.5 1590.5,-235.5 1473.5,-235.5"/>
<text text-anchor="middle" x="1532" y="-242.5" font-family="Helvetica,sans-Serif" font-size="10.00" fill="#000000">TaylorGreenVortex.cpp</text>
</a>
</g>
</g>
<!-- Node4&#45;&gt;Node28 -->
<g id="edge27" class="edge">
<title>Node4&#45;&gt;Node28</title>
<path fill="none" stroke="#191970" d="M999.3339,-298.0217C1085.7592,-291.623 1291.835,-275.469 1464,-255 1467.0808,-254.6337 1470.2372,-254.2387 1473.422,-253.8245"/>
<polygon fill="#191970" stroke="#191970" points="998.8714,-294.5462 989.1554,-298.7711 999.3854,-301.5273 998.8714,-294.5462"/>
</g>
<!-- Node6 -->
<g id="node3" class="node">
<title>Node6</title>
<g id="a_node3"><a xlink:href="_a_b_l_wall_function_8_h.html" target="_top" xlink:title="ABLWallFunction.H">
<polygon fill="#ffffff" stroke="#000000" points="417.5,-179.5 417.5,-198.5 520.5,-198.5 520.5,-179.5 417.5,-179.5"/>
<text text-anchor="middle" x="469" y="-186.5" font-family="Helvetica,sans-Serif" font-size="10.00" fill="#000000">ABLWallFunction.H</text>
</a>
</g>
</g>
<!-- Node5&#45;&gt;Node6 -->
<g id="edge2" class="edge">
<title>Node5&#45;&gt;Node6</title>
<path fill="none" stroke="#191970" d="M547.4778,-230.46C528.5092,-220.4388 503.8273,-207.3993 487.2522,-198.6427"/>
<polygon fill="#191970" stroke="#191970" points="546.0593,-233.669 556.5362,-235.2455 549.3292,-227.4796 546.0593,-233.669"/>
</g>
<!-- Node18 -->
<g id="node15" class="node">
<title>Node18</title>
<g id="a_node15"><a xlink:href="_m_o_data_8cpp.html" target="_top" xlink:title="MOData.cpp">
<polygon fill="#ffffff" stroke="#000000" points="539,-179.5 539,-198.5 611,-198.5 611,-179.5 539,-179.5"/>
<text text-anchor="middle" x="575" y="-186.5" font-family="Helvetica,sans-Serif" font-size="10.00" fill="#000000">MOData.cpp</text>
</a>
</g>
</g>
<!-- Node5&#45;&gt;Node18 -->
<g id="edge16" class="edge">
<title>Node5&#45;&gt;Node18</title>
<path fill="none" stroke="#191970" d="M575,-225.1575C575,-216.155 575,-205.9199 575,-198.6427"/>
<polygon fill="#191970" stroke="#191970" points="571.5001,-225.2455 575,-235.2455 578.5001,-225.2456 571.5001,-225.2455"/>
</g>
<!-- Node7 -->
<g id="node4" class="node">
<title>Node7</title>
<g id="a_node4"><a xlink:href="_a_b_l_8_h.html" target="_top" xlink:title="ABL.H">
<polygon fill="#ffffff" stroke="#000000" points="343,-67.5 343,-86.5 389,-86.5 389,-67.5 343,-67.5"/>
<text text-anchor="middle" x="366" y="-74.5" font-family="Helvetica,sans-Serif" font-size="10.00" fill="#000000">ABL.H</text>
</a>
</g>
</g>
<!-- Node6&#45;&gt;Node7 -->
<g id="edge3" class="edge">
<title>Node6&#45;&gt;Node7</title>
<path fill="none" stroke="#191970" d="M488.2893,-172.1254C501.6808,-158.3307 515.2616,-138.6247 504,-123 490.378,-104.1004 424.7118,-88.5498 389.0937,-81.3376"/>
<polygon fill="#191970" stroke="#191970" points="485.8036,-169.6601 481.028,-179.1176 490.659,-174.7024 485.8036,-169.6601"/>
</g>
<!-- Node6&#45;&gt;Node14 -->
<g id="edge15" class="edge">
<title>Node6&#45;&gt;Node14</title>
<path fill="none" stroke="#191970" d="M488.2154,-172.8076C498.2085,-164.1871 510.4967,-153.2699 521,-143 564.13,-100.8285 611.8908,-46.7301 630.7224,-25.0801"/>
<polygon fill="#191970" stroke="#191970" points="485.7784,-170.2862 480.4506,-179.444 490.3264,-175.6075 485.7784,-170.2862"/>
</g>
<!-- Node15 -->
<g id="node12" class="node">
<title>Node15</title>
<g id="a_node12"><a xlink:href="_a_b_l_stats_8_h.html" target="_top" xlink:title="ABLStats.H">
<polygon fill="#ffffff" stroke="#000000" points="291.5,-123.5 291.5,-142.5 360.5,-142.5 360.5,-123.5 291.5,-123.5"/>
<text text-anchor="middle" x="326" y="-130.5" font-family="Helvetica,sans-Serif" font-size="10.00" fill="#000000">ABLStats.H</text>
</a>
</g>
</g>
<!-- Node6&#45;&gt;Node15 -->
<g id="edge11" class="edge">
<title>Node6&#45;&gt;Node15</title>
<path fill="none" stroke="#191970" d="M434.9202,-175.6541C408.8427,-165.4419 373.5185,-151.6086 350.2618,-142.5011"/>
<polygon fill="#191970" stroke="#191970" points="433.8297,-178.9858 444.4174,-179.3733 436.3822,-172.4677 433.8297,-178.9858"/>
</g>
<!-- Node17 -->
<g id="node14" class="node">
<title>Node17</title>
<g id="a_node14"><a xlink:href="_boussinesq_bubble_8cpp.html" target="_top" xlink:title="BoussinesqBubble.cpp">
<polygon fill="#ffffff" stroke="#000000" points="379,-123.5 379,-142.5 495,-142.5 495,-123.5 379,-123.5"/>
<text text-anchor="middle" x="437" y="-130.5" font-family="Helvetica,sans-Serif" font-size="10.00" fill="#000000">BoussinesqBubble.cpp</text>
</a>
</g>
</g>
<!-- Node6&#45;&gt;Node17 -->
<g id="edge14" class="edge">
<title>Node6&#45;&gt;Node17</title>
<path fill="none" stroke="#191970" d="M458.3355,-170.3372C453.0346,-161.0605 446.8513,-150.2398 442.5101,-142.6427"/>
<polygon fill="#191970" stroke="#191970" points="455.4257,-172.2996 463.426,-179.2455 461.5034,-168.8266 455.4257,-172.2996"/>
</g>
<!-- Node8 -->
<g id="node5" class="node">
<title>Node8</title>
<g id="a_node5"><a xlink:href="incflo__set__velocity__bcs_8cpp.html" target="_top" xlink:title="incflo_set_velocity\l_bcs.cpp">
<polygon fill="#ffffff" stroke="#000000" points="467,-.5 467,-30.5 565,-30.5 565,-.5 467,-.5"/>
<text text-anchor="start" x="475" y="-18.5" font-family="Helvetica,sans-Serif" font-size="10.00" fill="#000000">incflo_set_velocity</text>
<text text-anchor="middle" x="516" y="-7.5" font-family="Helvetica,sans-Serif" font-size="10.00" fill="#000000">_bcs.cpp</text>
</a>
</g>
</g>
<!-- Node7&#45;&gt;Node8 -->
<g id="edge4" class="edge">
<title>Node7&#45;&gt;Node8</title>
<path fill="none" stroke="#191970" d="M398.3958,-63.7177C422.1406,-53.9824 454.4103,-40.7518 479.1408,-30.6123"/>
<polygon fill="#191970" stroke="#191970" points="397.0335,-60.4934 389.1088,-67.5254 399.6891,-66.9702 397.0335,-60.4934"/>
</g>
<!-- Node9 -->
<g id="node6" class="node">
<title>Node9</title>
<g id="a_node6"><a xlink:href="_a_b_l_forcing_8cpp.html" target="_top" xlink:title="ABLForcing.cpp">
<polygon fill="#ffffff" stroke="#000000" points="0,-6 0,-25 86,-25 86,-6 0,-6"/>
<text text-anchor="middle" x="43" y="-13" font-family="Helvetica,sans-Serif" font-size="10.00" fill="#000000">ABLForcing.cpp</text>
</a>
</g>
</g>
<!-- Node7&#45;&gt;Node9 -->
<g id="edge5" class="edge">
<title>Node7&#45;&gt;Node9</title>
<path fill="none" stroke="#191970" d="M332.8677,-67.2814C226.8706,-44.0361 196.3459,-53.653 95,-31 87.6452,-29.3561 79.8091,-27.2259 72.5106,-25.074"/>
<polygon fill="#191970" stroke="#191970" points="332.1521,-70.7077 342.6753,-69.4777 333.6818,-63.8769 332.1521,-70.7077"/>
</g>
<!-- Node10 -->
<g id="node7" class="node">
<title>Node10</title>
<g id="a_node7"><a xlink:href="_a_b_l_mean_boussinesq_8cpp.html" target="_top" xlink:title="ABLMeanBoussinesq.cpp">
<polygon fill="#ffffff" stroke="#000000" points="104.5,-6 104.5,-25 233.5,-25 233.5,-6 104.5,-6"/>
<text text-anchor="middle" x="169" y="-13" font-family="Helvetica,sans-Serif" font-size="10.00" fill="#000000">ABLMeanBoussinesq.cpp</text>
</a>
</g>
</g>
<!-- Node7&#45;&gt;Node10 -->
<g id="edge6" class="edge">
<title>Node7&#45;&gt;Node10</title>
<path fill="none" stroke="#191970" d="M332.7528,-66.6208C295.4726,-54.9826 235.5246,-36.2678 199.4337,-25.0009"/>
<polygon fill="#191970" stroke="#191970" points="332.0392,-70.0646 342.6279,-69.7036 334.1253,-63.3826 332.0392,-70.0646"/>
</g>
<!-- Node11 -->
<g id="node8" class="node">
<title>Node11</title>
<g id="a_node8"><a xlink:href="incflo_8cpp.html" target="_top" xlink:title="incflo.cpp">
<polygon fill="#ffffff" stroke="#000000" points="251.5,-6 251.5,-25 310.5,-25 310.5,-6 251.5,-6"/>
<text text-anchor="middle" x="281" y="-13" font-family="Helvetica,sans-Serif" font-size="10.00" fill="#000000">incflo.cpp</text>
</a>
</g>
</g>
<!-- Node7&#45;&gt;Node11 -->
<g id="edge7" class="edge">
<title>Node7&#45;&gt;Node11</title>
<path fill="none" stroke="#191970" d="M344.5338,-61.4685C328.6881,-50.0037 307.6264,-34.765 294.188,-25.0419"/>
<polygon fill="#191970" stroke="#191970" points="342.5653,-64.3643 352.7188,-67.3906 346.6686,-58.6931 342.5653,-64.3643"/>
</g>
<!-- Node12 -->
<g id="node9" class="node">
<title>Node12</title>
<g id="a_node9"><a xlink:href="init_8cpp.html" target="_top" xlink:title="init.cpp">
<polygon fill="#ffffff" stroke="#000000" points="329,-6 329,-25 377,-25 377,-6 329,-6"/>
<text text-anchor="middle" x="353" y="-13" font-family="Helvetica,sans-Serif" font-size="10.00" fill="#000000">init.cpp</text>
</a>
</g>
</g>
<!-- Node7&#45;&gt;Node12 -->
<g id="edge8" class="edge">
<title>Node7&#45;&gt;Node12</title>
<path fill="none" stroke="#191970" d="M361.8956,-57.5832C359.6206,-46.8205 356.8903,-33.9042 355.0599,-25.2449"/>
<polygon fill="#191970" stroke="#191970" points="358.4762,-58.3307 363.9688,-67.3906 365.3249,-56.8829 358.4762,-58.3307"/>
</g>
<!-- Node13 -->
<g id="node10" class="node">
<title>Node13</title>
<g id="a_node10"><a xlink:href="_a_b_l_8cpp.html" target="_top" xlink:title="ABL.cpp">
<polygon fill="#ffffff" stroke="#000000" points="395,-6 395,-25 449,-25 449,-6 395,-6"/>
<text text-anchor="middle" x="422" y="-13" font-family="Helvetica,sans-Serif" font-size="10.00" fill="#000000">ABL.cpp</text>
</a>
</g>
</g>
<!-- Node7&#45;&gt;Node13 -->
<g id="edge9" class="edge">
<title>Node7&#45;&gt;Node13</title>
<path fill="none" stroke="#191970" d="M381.5701,-59.9007C391.7447,-48.7268 404.6668,-34.5356 413.1266,-25.2449"/>
<polygon fill="#191970" stroke="#191970" points="378.8948,-57.6402 374.75,-67.3906 384.0706,-62.3531 378.8948,-57.6402"/>
</g>
<!-- Node7&#45;&gt;Node14 -->
<g id="edge10" class="edge">
<title>Node7&#45;&gt;Node14</title>
<path fill="none" stroke="#191970" d="M399.1042,-69.8546C440.1752,-60.9492 512.3263,-45.1721 574,-31 582.2537,-29.1034 591.0856,-27.028 599.4949,-25.0302"/>
<polygon fill="#191970" stroke="#191970" points="398.1451,-66.4811 389.1125,-72.0185 399.6268,-73.3225 398.1451,-66.4811"/>
</g>
<!-- Node15&#45;&gt;Node7 -->
<g id="edge12" class="edge">
<title>Node15&#45;&gt;Node7</title>
<path fill="none" stroke="#191970" d="M338.9136,-114.9209C345.6303,-105.5176 353.5717,-94.3997 359.1124,-86.6427"/>
<polygon fill="#191970" stroke="#191970" points="335.9318,-113.0738 332.9675,-123.2455 341.628,-117.1425 335.9318,-113.0738"/>
</g>
<!-- Node16 -->
<g id="node13" class="node">
<title>Node16</title>
<g id="a_node13"><a xlink:href="_a_b_l_stats_8cpp.html" target="_top" xlink:title="ABLStats.cpp">
<polygon fill="#ffffff" stroke="#000000" points="247.5,-67.5 247.5,-86.5 324.5,-86.5 324.5,-67.5 247.5,-67.5"/>
<text text-anchor="middle" x="286" y="-74.5" font-family="Helvetica,sans-Serif" font-size="10.00" fill="#000000">ABLStats.cpp</text>
</a>
</g>
</g>
<!-- Node15&#45;&gt;Node16 -->
<g id="edge13" class="edge">
<title>Node15&#45;&gt;Node16</title>
<path fill="none" stroke="#191970" d="M313.0864,-114.9209C306.3697,-105.5176 298.4283,-94.3997 292.8876,-86.6427"/>
<polygon fill="#191970" stroke="#191970" points="310.372,-117.1425 319.0325,-123.2455 316.0682,-113.0738 310.372,-117.1425"/>
</g>
<!-- Node20 -->
<g id="node17" class="node">
<title>Node20</title>
<g id="a_node17"><a xlink:href="tensor_8_h.html" target="_top" xlink:title="tensor.H">
<polygon fill="#ffffff" stroke="#000000" points="669,-179.5 669,-198.5 723,-198.5 723,-179.5 669,-179.5"/>
<text text-anchor="middle" x="696" y="-186.5" font-family="Helvetica,sans-Serif" font-size="10.00" fill="#000000">tensor.H</text>
</a>
</g>
</g>
<!-- Node19&#45;&gt;Node20 -->
<g id="edge18" class="edge">
<title>Node19&#45;&gt;Node20</title>
<path fill="none" stroke="#191970" d="M689.5113,-225.1575C688.919,-216.155 689.3335,-205.9199 690.7549,-198.6427"/>
<polygon fill="#191970" stroke="#191970" points="686.0561,-225.739 690.7332,-235.2455 693.0053,-224.8972 686.0561,-225.739"/>
</g>
<!-- Node20&#45;&gt;Node19 -->
<g id="edge19" class="edge">
<title>Node20&#45;&gt;Node19</title>
<path fill="none" stroke="#191970" d="M702.4795,-208.7046C703.0821,-217.6944 702.6779,-227.9382 701.2668,-235.2455"/>
<polygon fill="#191970" stroke="#191970" points="705.9368,-208.1421 701.2451,-198.6427 698.9889,-208.9945 705.9368,-208.1421"/>
</g>
<!-- Node21 -->
<g id="node18" class="node">
<title>Node21</title>
<g id="a_node18"><a xlink:href="vector__space_8_h.html" target="_top" xlink:title="vector_space.H">
<polygon fill="#ffffff" stroke="#000000" points="667,-123.5 667,-142.5 753,-142.5 753,-123.5 667,-123.5"/>
<text text-anchor="middle" x="710" y="-130.5" font-family="Helvetica,sans-Serif" font-size="10.00" fill="#000000">vector_space.H</text>
</a>
</g>
</g>
<!-- Node20&#45;&gt;Node21 -->
<g id="edge20" class="edge">
<title>Node20&#45;&gt;Node21</title>
<path fill="none" stroke="#191970" d="M700.8865,-169.4538C703.1549,-160.3803 705.75,-149.9998 707.5893,-142.6427"/>
<polygon fill="#191970" stroke="#191970" points="697.4685,-168.6952 698.4386,-179.2455 704.2595,-170.393 697.4685,-168.6952"/>
</g>
</g>
</svg>
