<?xml version="1.0" encoding="UTF-8" standalone="no"?>
<!DOCTYPE svg PUBLIC "-//W3C//DTD SVG 1.1//EN"
 "http://www.w3.org/Graphics/SVG/1.1/DTD/svg11.dtd">
<!-- Generated by graphviz version 2.40.1 (20161225.0304)
 -->
<!-- Title: vectorI.H Pages: 1 -->
<svg width="170pt" height="196pt"
 viewBox="0.00 0.00 169.50 196.00" xmlns="http://www.w3.org/2000/svg" xmlns:xlink="http://www.w3.org/1999/xlink">
<g id="graph0" class="graph" transform="scale(1 1) rotate(0) translate(4 192)">
<title>vectorI.H</title>
<polygon fill="#ffffff" stroke="transparent" points="-4,4 -4,-192 165.5,-192 165.5,4 -4,4"/>
<!-- Node8 -->
<g id="node1" class="node">
<title>Node8</title>
<polygon fill="#bfbfbf" stroke="#000000" points="44,-168.5 44,-187.5 101,-187.5 101,-168.5 44,-168.5"/>
<text text-anchor="middle" x="72.5" y="-175.5" font-family="Helvetica,sans-Serif" font-size="10.00" fill="#000000">vectorI.H</text>
</g>
<!-- Node9 -->
<g id="node2" class="node">
<title>Node9</title>
<g id="a_node2"><a xlink:href="vector_8_h.html" target="_top" xlink:title="vector.H">
<polygon fill="#ffffff" stroke="#000000" points="45.5,-112.5 45.5,-131.5 99.5,-131.5 99.5,-112.5 45.5,-112.5"/>
<text text-anchor="middle" x="72.5" y="-119.5" font-family="Helvetica,sans-Serif" font-size="10.00" fill="#000000">vector.H</text>
</a>
</g>
</g>
<!-- Node8&#45;&gt;Node9 -->
<g id="edge1" class="edge">
<title>Node8&#45;&gt;Node9</title>
<path fill="none" stroke="#191970" d="M66.0113,-158.1575C65.419,-149.155 65.8335,-138.9199 67.2549,-131.6427"/>
<polygon fill="#191970" stroke="#191970" points="62.5561,-158.739 67.2332,-168.2455 69.5053,-157.8972 62.5561,-158.739"/>
</g>
<!-- Node9&#45;&gt;Node8 -->
<g id="edge6" class="edge">
<title>Node9&#45;&gt;Node8</title>
<path fill="none" stroke="#191970" d="M78.9795,-141.7046C79.5821,-150.6944 79.1779,-160.9382 77.7668,-168.2455"/>
<polygon fill="#191970" stroke="#191970" points="82.4368,-141.1421 77.7451,-131.6427 75.4889,-141.9945 82.4368,-141.1421"/>
</g>
<!-- Node10 -->
<g id="node3" class="node">
<title>Node10</title>
<g id="a_node3"><a xlink:href="tensor_8_h.html" target="_top" xlink:title="tensor.H">
<polygon fill="#ffffff" stroke="#000000" points="18.5,-56.5 18.5,-75.5 72.5,-75.5 72.5,-56.5 18.5,-56.5"/>
<text text-anchor="middle" x="45.5" y="-63.5" font-family="Helvetica,sans-Serif" font-size="10.00" fill="#000000">tensor.H</text>
</a>
</g>
</g>
<!-- Node9&#45;&gt;Node10 -->
<g id="edge2" class="edge">
<title>Node9&#45;&gt;Node10</title>
<path fill="none" stroke="#191970" d="M63.3604,-103.0437C58.9195,-93.8331 53.7735,-83.1598 50.1491,-75.6427"/>
<polygon fill="#191970" stroke="#191970" points="60.3012,-104.7579 67.797,-112.2455 66.6066,-101.7178 60.3012,-104.7579"/>
</g>
<!-- Node12 -->
<g id="node5" class="node">
<title>Node12</title>
<g id="a_node5"><a xlink:href="vector__space_8_h.html" target="_top" xlink:title="vector_space.H">
<polygon fill="#ffffff" stroke="#000000" points="75.5,-.5 75.5,-19.5 161.5,-19.5 161.5,-.5 75.5,-.5"/>
<text text-anchor="middle" x="118.5" y="-7.5" font-family="Helvetica,sans-Serif" font-size="10.00" fill="#000000">vector_space.H</text>
</a>
</g>
</g>
<!-- Node9&#45;&gt;Node12 -->
<g id="edge7" class="edge">
<title>Node9&#45;&gt;Node12</title>
<path fill="none" stroke="#191970" d="M80.3343,-102.9253C90.2723,-78.7284 107.0256,-37.9376 114.588,-19.5249"/>
<polygon fill="#191970" stroke="#191970" points="76.9836,-101.871 76.4219,-112.4509 83.4588,-104.5305 76.9836,-101.871"/>
</g>
<!-- Node11 -->
<g id="node4" class="node">
<title>Node11</title>
<g id="a_node4"><a xlink:href="tensor_i_8_h.html" target="_top" xlink:title="tensorI.H">
<polygon fill="#ffffff" stroke="#000000" points="0,-.5 0,-19.5 57,-19.5 57,-.5 0,-.5"/>
<text text-anchor="middle" x="28.5" y="-7.5" font-family="Helvetica,sans-Serif" font-size="10.00" fill="#000000">tensorI.H</text>
</a>
</g>
</g>
<!-- Node10&#45;&gt;Node11 -->
<g id="edge3" class="edge">
<title>Node10&#45;&gt;Node11</title>
<path fill="none" stroke="#191970" d="M33.3186,-47.0437C29.8421,-37.8331 26.9959,-27.1598 26.1821,-19.6427"/>
<polygon fill="#191970" stroke="#191970" points="30.1087,-48.4392 37.272,-56.2455 36.5403,-45.676 30.1087,-48.4392"/>
</g>
<!-- Node10&#45;&gt;Node12 -->
<g id="edge5" class="edge">
<title>Node10&#45;&gt;Node12</title>
<path fill="none" stroke="#191970" d="M66.451,-49.928C79.2107,-40.1397 95.0885,-27.9595 105.9301,-19.6427"/>
<polygon fill="#191970" stroke="#191970" points="64.0196,-47.3819 58.2156,-56.2455 68.2803,-52.9359 64.0196,-47.3819"/>
</g>
<!-- Node11&#45;&gt;Node10 -->
<g id="edge4" class="edge">
<title>Node11&#45;&gt;Node10</title>
<path fill="none" stroke="#191970" d="M40.7407,-29.1137C44.173,-38.2427 46.9807,-48.7776 47.8057,-56.2455"/>
<polygon fill="#191970" stroke="#191970" points="43.8351,-27.4495 36.6724,-19.6427 37.4034,-30.2123 43.8351,-27.4495"/>
</g>
</g>
</svg>
