<?xml version="1.0" encoding="UTF-8" standalone="no"?>
<!DOCTYPE svg PUBLIC "-//W3C//DTD SVG 1.1//EN"
 "http://www.w3.org/Graphics/SVG/1.1/DTD/svg11.dtd">
<!-- Generated by graphviz version 2.40.1 (20161225.0304)
 -->
<!-- Title: vector.H Pages: 1 -->
<svg width="203pt" height="140pt"
 viewBox="0.00 0.00 203.00 140.00" xmlns="http://www.w3.org/2000/svg" xmlns:xlink="http://www.w3.org/1999/xlink">
<g id="graph0" class="graph" transform="scale(1 1) rotate(0) translate(4 136)">
<title>vector.H</title>
<polygon fill="#ffffff" stroke="transparent" points="-4,4 -4,-136 199,-136 199,4 -4,4"/>
<!-- Node8 -->
<g id="node1" class="node">
<title>Node8</title>
<polygon fill="#bfbfbf" stroke="#000000" points="110.5,-112.5 110.5,-131.5 164.5,-131.5 164.5,-112.5 110.5,-112.5"/>
<text text-anchor="middle" x="137.5" y="-119.5" font-family="Helvetica,sans-Serif" font-size="10.00" fill="#000000">vector.H</text>
</g>
<!-- Node9 -->
<g id="node2" class="node">
<title>Node9</title>
<g id="a_node2"><a xlink:href="tensor_8_h.html" target="_top" xlink:title="tensor.H">
<polygon fill="#ffffff" stroke="#000000" points="18.5,-56.5 18.5,-75.5 72.5,-75.5 72.5,-56.5 18.5,-56.5"/>
<text text-anchor="middle" x="45.5" y="-63.5" font-family="Helvetica,sans-Serif" font-size="10.00" fill="#000000">tensor.H</text>
</a>
</g>
</g>
<!-- Node8&#45;&gt;Node9 -->
<g id="edge1" class="edge">
<title>Node8&#45;&gt;Node9</title>
<path fill="none" stroke="#191970" d="M112.4776,-106.769C96.175,-96.8456 75.399,-84.1994 61.3415,-75.6427"/>
<polygon fill="#191970" stroke="#191970" points="111.113,-110.0357 121.4748,-112.2455 114.7527,-104.0563 111.113,-110.0357"/>
</g>
<!-- Node11 -->
<g id="node4" class="node">
<title>Node11</title>
<g id="a_node4"><a xlink:href="vector__space_8_h.html" target="_top" xlink:title="vector_space.H">
<polygon fill="#ffffff" stroke="#000000" points="75.5,-.5 75.5,-19.5 161.5,-19.5 161.5,-.5 75.5,-.5"/>
<text text-anchor="middle" x="118.5" y="-7.5" font-family="Helvetica,sans-Serif" font-size="10.00" fill="#000000">vector_space.H</text>
</a>
</g>
</g>
<!-- Node8&#45;&gt;Node11 -->
<g id="edge7" class="edge">
<title>Node8&#45;&gt;Node11</title>
<path fill="none" stroke="#191970" d="M134.0683,-102.4478C132.6422,-94.2761 130.9781,-84.6802 129.5,-76 126.1069,-56.0743 122.2446,-32.7448 120.1184,-19.8436"/>
<polygon fill="#191970" stroke="#191970" points="130.654,-103.2418 135.8257,-112.4886 137.5492,-102.0349 130.654,-103.2418"/>
</g>
<!-- Node12 -->
<g id="node5" class="node">
<title>Node12</title>
<g id="a_node5"><a xlink:href="vector_i_8_h.html" target="_top" xlink:title="vectorI.H">
<polygon fill="#ffffff" stroke="#000000" points="138,-56.5 138,-75.5 195,-75.5 195,-56.5 138,-56.5"/>
<text text-anchor="middle" x="166.5" y="-63.5" font-family="Helvetica,sans-Serif" font-size="10.00" fill="#000000">vectorI.H</text>
</a>
</g>
</g>
<!-- Node8&#45;&gt;Node12 -->
<g id="edge5" class="edge">
<title>Node8&#45;&gt;Node12</title>
<path fill="none" stroke="#191970" d="M141.021,-102.7493C145.1052,-93.6064 150.9574,-83.0798 156.2613,-75.6427"/>
<polygon fill="#191970" stroke="#191970" points="137.6891,-101.6584 137.2846,-112.2455 144.203,-104.2214 137.6891,-101.6584"/>
</g>
<!-- Node10 -->
<g id="node3" class="node">
<title>Node10</title>
<g id="a_node3"><a xlink:href="tensor_i_8_h.html" target="_top" xlink:title="tensorI.H">
<polygon fill="#ffffff" stroke="#000000" points="0,-.5 0,-19.5 57,-19.5 57,-.5 0,-.5"/>
<text text-anchor="middle" x="28.5" y="-7.5" font-family="Helvetica,sans-Serif" font-size="10.00" fill="#000000">tensorI.H</text>
</a>
</g>
</g>
<!-- Node9&#45;&gt;Node10 -->
<g id="edge2" class="edge">
<title>Node9&#45;&gt;Node10</title>
<path fill="none" stroke="#191970" d="M33.3186,-47.0437C29.8421,-37.8331 26.9959,-27.1598 26.1821,-19.6427"/>
<polygon fill="#191970" stroke="#191970" points="30.1087,-48.4392 37.272,-56.2455 36.5403,-45.676 30.1087,-48.4392"/>
</g>
<!-- Node9&#45;&gt;Node11 -->
<g id="edge4" class="edge">
<title>Node9&#45;&gt;Node11</title>
<path fill="none" stroke="#191970" d="M66.451,-49.928C79.2107,-40.1397 95.0885,-27.9595 105.9301,-19.6427"/>
<polygon fill="#191970" stroke="#191970" points="64.0196,-47.3819 58.2156,-56.2455 68.2803,-52.9359 64.0196,-47.3819"/>
</g>
<!-- Node10&#45;&gt;Node9 -->
<g id="edge3" class="edge">
<title>Node10&#45;&gt;Node9</title>
<path fill="none" stroke="#191970" d="M40.7407,-29.1137C44.173,-38.2427 46.9807,-48.7776 47.8057,-56.2455"/>
<polygon fill="#191970" stroke="#191970" points="43.8351,-27.4495 36.6724,-19.6427 37.4034,-30.2123 43.8351,-27.4495"/>
</g>
<!-- Node12&#45;&gt;Node8 -->
<g id="edge6" class="edge">
<title>Node12&#45;&gt;Node8</title>
<path fill="none" stroke="#191970" d="M163.0401,-85.1137C158.9737,-94.2427 153.1276,-104.7776 147.8183,-112.2455"/>
<polygon fill="#191970" stroke="#191970" points="166.3617,-86.2303 166.7516,-75.6427 159.8442,-83.6763 166.3617,-86.2303"/>
</g>
</g>
</svg>
