<?xml version="1.0" encoding="UTF-8" standalone="no"?>
<!DOCTYPE svg PUBLIC "-//W3C//DTD SVG 1.1//EN"
 "http://www.w3.org/Graphics/SVG/1.1/DTD/svg11.dtd">
<!-- Generated by graphviz version 2.40.1 (20161225.0304)
 -->
<!-- Title: vectorI.H Pages: 1 -->
<svg width="233pt" height="308pt"
 viewBox="0.00 0.00 233.00 308.00" xmlns="http://www.w3.org/2000/svg" xmlns:xlink="http://www.w3.org/1999/xlink">
<g id="graph0" class="graph" transform="scale(1 1) rotate(0) translate(4 304)">
<title>vectorI.H</title>
<polygon fill="#ffffff" stroke="transparent" points="-4,4 -4,-304 229,-304 229,4 -4,4"/>
<!-- Node8 -->
<g id="node1" class="node">
<title>Node8</title>
<polygon fill="#bfbfbf" stroke="#000000" points="44,-280.5 44,-299.5 101,-299.5 101,-280.5 44,-280.5"/>
<text text-anchor="middle" x="72.5" y="-287.5" font-family="Helvetica,sans-Serif" font-size="10.00" fill="#000000">vectorI.H</text>
</g>
<!-- Node9 -->
<g id="node2" class="node">
<title>Node9</title>
<g id="a_node2"><a xlink:href="vector_8_h.html" target="_top" xlink:title="vector.H">
<polygon fill="#ffffff" stroke="#000000" points="45.5,-224.5 45.5,-243.5 99.5,-243.5 99.5,-224.5 45.5,-224.5"/>
<text text-anchor="middle" x="72.5" y="-231.5" font-family="Helvetica,sans-Serif" font-size="10.00" fill="#000000">vector.H</text>
</a>
</g>
</g>
<!-- Node8&#45;&gt;Node9 -->
<g id="edge1" class="edge">
<title>Node8&#45;&gt;Node9</title>
<path fill="none" stroke="#191970" d="M66.0113,-270.1575C65.419,-261.155 65.8335,-250.9199 67.2549,-243.6427"/>
<polygon fill="#191970" stroke="#191970" points="62.5561,-270.739 67.2332,-280.2455 69.5053,-269.8972 62.5561,-270.739"/>
</g>
<!-- Node9&#45;&gt;Node8 -->
<g id="edge10" class="edge">
<title>Node9&#45;&gt;Node8</title>
<path fill="none" stroke="#191970" d="M78.9795,-253.7046C79.5821,-262.6944 79.1779,-272.9382 77.7668,-280.2455"/>
<polygon fill="#191970" stroke="#191970" points="82.4368,-253.1421 77.7451,-243.6427 75.4889,-253.9945 82.4368,-253.1421"/>
</g>
<!-- Node10 -->
<g id="node3" class="node">
<title>Node10</title>
<g id="a_node3"><a xlink:href="tensor_8_h.html" target="_top" xlink:title="tensor.H">
<polygon fill="#ffffff" stroke="#000000" points="18.5,-168.5 18.5,-187.5 72.5,-187.5 72.5,-168.5 18.5,-168.5"/>
<text text-anchor="middle" x="45.5" y="-175.5" font-family="Helvetica,sans-Serif" font-size="10.00" fill="#000000">tensor.H</text>
</a>
</g>
</g>
<!-- Node9&#45;&gt;Node10 -->
<g id="edge2" class="edge">
<title>Node9&#45;&gt;Node10</title>
<path fill="none" stroke="#191970" d="M63.3604,-215.0437C58.9195,-205.8331 53.7735,-195.1598 50.1491,-187.6427"/>
<polygon fill="#191970" stroke="#191970" points="60.3012,-216.7579 67.797,-224.2455 66.6066,-213.7178 60.3012,-216.7579"/>
</g>
<!-- Node12 -->
<g id="node5" class="node">
<title>Node12</title>
<g id="a_node5"><a xlink:href="vector__space_8_h.html" target="_top" xlink:title="vector_space.H">
<polygon fill="#ffffff" stroke="#000000" points="75.5,-112.5 75.5,-131.5 161.5,-131.5 161.5,-112.5 75.5,-112.5"/>
<text text-anchor="middle" x="118.5" y="-119.5" font-family="Helvetica,sans-Serif" font-size="10.00" fill="#000000">vector_space.H</text>
</a>
</g>
</g>
<!-- Node9&#45;&gt;Node12 -->
<g id="edge11" class="edge">
<title>Node9&#45;&gt;Node12</title>
<path fill="none" stroke="#191970" d="M80.3343,-214.9253C90.2723,-190.7284 107.0256,-149.9376 114.588,-131.5249"/>
<polygon fill="#191970" stroke="#191970" points="76.9836,-213.871 76.4219,-224.4509 83.4588,-216.5305 76.9836,-213.871"/>
</g>
<!-- Node11 -->
<g id="node4" class="node">
<title>Node11</title>
<g id="a_node4"><a xlink:href="tensor_i_8_h.html" target="_top" xlink:title="tensorI.H">
<polygon fill="#ffffff" stroke="#000000" points="0,-112.5 0,-131.5 57,-131.5 57,-112.5 0,-112.5"/>
<text text-anchor="middle" x="28.5" y="-119.5" font-family="Helvetica,sans-Serif" font-size="10.00" fill="#000000">tensorI.H</text>
</a>
</g>
</g>
<!-- Node10&#45;&gt;Node11 -->
<g id="edge3" class="edge">
<title>Node10&#45;&gt;Node11</title>
<path fill="none" stroke="#191970" d="M33.3186,-159.0437C29.8421,-149.8331 26.9959,-139.1598 26.1821,-131.6427"/>
<polygon fill="#191970" stroke="#191970" points="30.1087,-160.4392 37.272,-168.2455 36.5403,-157.676 30.1087,-160.4392"/>
</g>
<!-- Node10&#45;&gt;Node12 -->
<g id="edge5" class="edge">
<title>Node10&#45;&gt;Node12</title>
<path fill="none" stroke="#191970" d="M66.451,-161.928C79.2107,-152.1397 95.0885,-139.9595 105.9301,-131.6427"/>
<polygon fill="#191970" stroke="#191970" points="64.0196,-159.3819 58.2156,-168.2455 68.2803,-164.9359 64.0196,-159.3819"/>
</g>
<!-- Node11&#45;&gt;Node10 -->
<g id="edge4" class="edge">
<title>Node11&#45;&gt;Node10</title>
<path fill="none" stroke="#191970" d="M40.7407,-141.1137C44.173,-150.2427 46.9807,-160.7776 47.8057,-168.2455"/>
<polygon fill="#191970" stroke="#191970" points="43.8351,-139.4495 36.6724,-131.6427 37.4034,-142.2123 43.8351,-139.4495"/>
</g>
<!-- Node13 -->
<g id="node6" class="node">
<title>Node13</title>
<g id="a_node6"><a xlink:href="_box_refiner_8_h.html" target="_top" xlink:title="BoxRefiner.H">
<polygon fill="#ffffff" stroke="#000000" points="27.5,-56.5 27.5,-75.5 103.5,-75.5 103.5,-56.5 27.5,-56.5"/>
<text text-anchor="middle" x="65.5" y="-63.5" font-family="Helvetica,sans-Serif" font-size="10.00" fill="#000000">BoxRefiner.H</text>
</a>
</g>
</g>
<!-- Node12&#45;&gt;Node13 -->
<g id="edge6" class="edge">
<title>Node12&#45;&gt;Node13</title>
<path fill="none" stroke="#191970" d="M102.2104,-104.7884C93.1438,-95.2085 82.1946,-83.6396 74.6261,-75.6427"/>
<polygon fill="#191970" stroke="#191970" points="99.8522,-107.3884 109.2681,-112.2455 104.9363,-102.5767 99.8522,-107.3884"/>
</g>
<!-- Node15 -->
<g id="node8" class="node">
<title>Node15</title>
<g id="a_node8"><a xlink:href="_cylinder_refiner_8_h.html" target="_top" xlink:title="CylinderRefiner.H">
<polygon fill="#ffffff" stroke="#000000" points="124,-56.5 124,-75.5 219,-75.5 219,-56.5 124,-56.5"/>
<text text-anchor="middle" x="171.5" y="-63.5" font-family="Helvetica,sans-Serif" font-size="10.00" fill="#000000">CylinderRefiner.H</text>
</a>
</g>
</g>
<!-- Node12&#45;&gt;Node15 -->
<g id="edge8" class="edge">
<title>Node12&#45;&gt;Node15</title>
<path fill="none" stroke="#191970" d="M134.7896,-104.7884C143.8562,-95.2085 154.8054,-83.6396 162.3739,-75.6427"/>
<polygon fill="#191970" stroke="#191970" points="132.0637,-102.5767 127.7319,-112.2455 137.1478,-107.3884 132.0637,-102.5767"/>
</g>
<!-- Node14 -->
<g id="node7" class="node">
<title>Node14</title>
<g id="a_node7"><a xlink:href="_box_refiner_8cpp.html" target="_top" xlink:title="BoxRefiner.cpp">
<polygon fill="#ffffff" stroke="#000000" points="19.5,-.5 19.5,-19.5 103.5,-19.5 103.5,-.5 19.5,-.5"/>
<text text-anchor="middle" x="61.5" y="-7.5" font-family="Helvetica,sans-Serif" font-size="10.00" fill="#000000">BoxRefiner.cpp</text>
</a>
</g>
</g>
<!-- Node13&#45;&gt;Node14 -->
<g id="edge7" class="edge">
<title>Node13&#45;&gt;Node14</title>
<path fill="none" stroke="#191970" d="M64.0827,-46.1575C63.4396,-37.155 62.7086,-26.9199 62.1888,-19.6427"/>
<polygon fill="#191970" stroke="#191970" points="60.5996,-46.5204 64.8033,-56.2455 67.5818,-46.0216 60.5996,-46.5204"/>
</g>
<!-- Node16 -->
<g id="node9" class="node">
<title>Node16</title>
<g id="a_node9"><a xlink:href="_cylinder_refiner_8cpp.html" target="_top" xlink:title="CylinderRefiner.cpp">
<polygon fill="#ffffff" stroke="#000000" points="122,-.5 122,-19.5 225,-19.5 225,-.5 122,-.5"/>
<text text-anchor="middle" x="173.5" y="-7.5" font-family="Helvetica,sans-Serif" font-size="10.00" fill="#000000">CylinderRefiner.cpp</text>
</a>
</g>
</g>
<!-- Node15&#45;&gt;Node16 -->
<g id="edge9" class="edge">
<title>Node15&#45;&gt;Node16</title>
<path fill="none" stroke="#191970" d="M172.2087,-46.1575C172.5302,-37.155 172.8957,-26.9199 173.1556,-19.6427"/>
<polygon fill="#191970" stroke="#191970" points="168.7076,-46.127 171.8484,-56.2455 175.7032,-46.3769 168.7076,-46.127"/>
</g>
</g>
</svg>
