<?xml version="1.0" encoding="UTF-8" standalone="no"?>
<!DOCTYPE svg PUBLIC "-//W3C//DTD SVG 1.1//EN"
 "http://www.w3.org/Graphics/SVG/1.1/DTD/svg11.dtd">
<!-- Generated by graphviz version 2.40.1 (20161225.0304)
 -->
<!-- Title: vstraits.H Pages: 1 -->
<svg width="194pt" height="196pt"
 viewBox="0.00 0.00 194.00 196.00" xmlns="http://www.w3.org/2000/svg" xmlns:xlink="http://www.w3.org/1999/xlink">
<g id="graph0" class="graph" transform="scale(1 1) rotate(0) translate(4 192)">
<title>vstraits.H</title>
<polygon fill="#ffffff" stroke="transparent" points="-4,4 -4,-192 190,-192 190,4 -4,4"/>
<!-- Node3 -->
<g id="node1" class="node">
<title>Node3</title>
<polygon fill="#bfbfbf" stroke="#000000" points="43,-168.5 43,-187.5 102,-187.5 102,-168.5 43,-168.5"/>
<text text-anchor="middle" x="72.5" y="-175.5" font-family="Helvetica,sans-Serif" font-size="10.00" fill="#000000">vstraits.H</text>
</g>
<!-- Node4 -->
<g id="node2" class="node">
<title>Node4</title>
<g id="a_node2"><a xlink:href="tensor_8_h.html" target="_top" xlink:title="tensor.H">
<polygon fill="#ffffff" stroke="#000000" points="18.5,-56.5 18.5,-75.5 72.5,-75.5 72.5,-56.5 18.5,-56.5"/>
<text text-anchor="middle" x="45.5" y="-63.5" font-family="Helvetica,sans-Serif" font-size="10.00" fill="#000000">tensor.H</text>
</a>
</g>
</g>
<!-- Node3&#45;&gt;Node4 -->
<g id="edge1" class="edge">
<title>Node3&#45;&gt;Node4</title>
<path fill="none" stroke="#191970" d="M67.8229,-158.5987C61.9804,-134.363 52.2151,-93.8551 47.7962,-75.5249"/>
<polygon fill="#191970" stroke="#191970" points="64.4518,-159.5497 70.198,-168.4509 71.2569,-157.9092 64.4518,-159.5497"/>
</g>
<!-- Node7 -->
<g id="node5" class="node">
<title>Node7</title>
<g id="a_node5"><a xlink:href="vector_8_h.html" target="_top" xlink:title="vector.H">
<polygon fill="#ffffff" stroke="#000000" points="73.5,-112.5 73.5,-131.5 127.5,-131.5 127.5,-112.5 73.5,-112.5"/>
<text text-anchor="middle" x="100.5" y="-119.5" font-family="Helvetica,sans-Serif" font-size="10.00" fill="#000000">vector.H</text>
</a>
</g>
</g>
<!-- Node3&#45;&gt;Node7 -->
<g id="edge5" class="edge">
<title>Node3&#45;&gt;Node7</title>
<path fill="none" stroke="#191970" d="M81.9781,-159.0437C86.5835,-149.8331 91.9201,-139.1598 95.6787,-131.6427"/>
<polygon fill="#191970" stroke="#191970" points="78.7189,-157.736 77.3772,-168.2455 84.9799,-160.8665 78.7189,-157.736"/>
</g>
<!-- Node5 -->
<g id="node3" class="node">
<title>Node5</title>
<g id="a_node3"><a xlink:href="tensor_i_8_h.html" target="_top" xlink:title="tensorI.H">
<polygon fill="#ffffff" stroke="#000000" points="0,-.5 0,-19.5 57,-19.5 57,-.5 0,-.5"/>
<text text-anchor="middle" x="28.5" y="-7.5" font-family="Helvetica,sans-Serif" font-size="10.00" fill="#000000">tensorI.H</text>
</a>
</g>
</g>
<!-- Node4&#45;&gt;Node5 -->
<g id="edge2" class="edge">
<title>Node4&#45;&gt;Node5</title>
<path fill="none" stroke="#191970" d="M33.3186,-47.0437C29.8421,-37.8331 26.9959,-27.1598 26.1821,-19.6427"/>
<polygon fill="#191970" stroke="#191970" points="30.1087,-48.4392 37.272,-56.2455 36.5403,-45.676 30.1087,-48.4392"/>
</g>
<!-- Node6 -->
<g id="node4" class="node">
<title>Node6</title>
<g id="a_node4"><a xlink:href="vector__space_8_h.html" target="_top" xlink:title="vector_space.H">
<polygon fill="#ffffff" stroke="#000000" points="75.5,-.5 75.5,-19.5 161.5,-19.5 161.5,-.5 75.5,-.5"/>
<text text-anchor="middle" x="118.5" y="-7.5" font-family="Helvetica,sans-Serif" font-size="10.00" fill="#000000">vector_space.H</text>
</a>
</g>
</g>
<!-- Node4&#45;&gt;Node6 -->
<g id="edge4" class="edge">
<title>Node4&#45;&gt;Node6</title>
<path fill="none" stroke="#191970" d="M66.451,-49.928C79.2107,-40.1397 95.0885,-27.9595 105.9301,-19.6427"/>
<polygon fill="#191970" stroke="#191970" points="64.0196,-47.3819 58.2156,-56.2455 68.2803,-52.9359 64.0196,-47.3819"/>
</g>
<!-- Node5&#45;&gt;Node4 -->
<g id="edge3" class="edge">
<title>Node5&#45;&gt;Node4</title>
<path fill="none" stroke="#191970" d="M40.7407,-29.1137C44.173,-38.2427 46.9807,-48.7776 47.8057,-56.2455"/>
<polygon fill="#191970" stroke="#191970" points="43.8351,-27.4495 36.6724,-19.6427 37.4034,-30.2123 43.8351,-27.4495"/>
</g>
<!-- Node7&#45;&gt;Node4 -->
<g id="edge6" class="edge">
<title>Node7&#45;&gt;Node4</title>
<path fill="none" stroke="#191970" d="M83.8774,-105.0751C74.4145,-95.4402 62.9031,-83.7196 54.9705,-75.6427"/>
<polygon fill="#191970" stroke="#191970" points="81.4155,-107.5635 90.9197,-112.2455 86.4097,-102.6585 81.4155,-107.5635"/>
</g>
<!-- Node7&#45;&gt;Node6 -->
<g id="edge9" class="edge">
<title>Node7&#45;&gt;Node6</title>
<path fill="none" stroke="#191970" d="M103.6709,-102.2702C107.5717,-77.9985 114.0366,-37.7725 116.9692,-19.5249"/>
<polygon fill="#191970" stroke="#191970" points="100.1659,-102.0222 102.0347,-112.4509 107.0772,-103.133 100.1659,-102.0222"/>
</g>
<!-- Node8 -->
<g id="node6" class="node">
<title>Node8</title>
<g id="a_node6"><a xlink:href="vector_i_8_h.html" target="_top" xlink:title="vectorI.H">
<polygon fill="#ffffff" stroke="#000000" points="129,-56.5 129,-75.5 186,-75.5 186,-56.5 129,-56.5"/>
<text text-anchor="middle" x="157.5" y="-63.5" font-family="Helvetica,sans-Serif" font-size="10.00" fill="#000000">vectorI.H</text>
</a>
</g>
</g>
<!-- Node7&#45;&gt;Node8 -->
<g id="edge7" class="edge">
<title>Node7&#45;&gt;Node8</title>
<path fill="none" stroke="#191970" d="M112.003,-104.5004C120.859,-94.9775 132.8354,-83.5596 142.44,-75.6427"/>
<polygon fill="#191970" stroke="#191970" points="109.1588,-102.4336 105.1618,-112.2455 114.4052,-107.0677 109.1588,-102.4336"/>
</g>
<!-- Node8&#45;&gt;Node7 -->
<g id="edge8" class="edge">
<title>Node8&#45;&gt;Node7</title>
<path fill="none" stroke="#191970" d="M146.1216,-83.3656C137.295,-92.8706 125.3222,-104.2958 115.6955,-112.2455"/>
<polygon fill="#191970" stroke="#191970" points="148.9425,-85.4584 152.9303,-75.6427 143.6917,-80.8292 148.9425,-85.4584"/>
</g>
</g>
</svg>
